<svg width="24" height="24" xmlns="http://www.w3.org/2000/svg" fill="none" viewBox="0 0 24 24"><g><path fill="currentColor" d="m4,6l-2,0l0,14c0,0.5304 0.21071,1.0391 0.58579,1.4142c0.37507,0.3751 0.88378,0.5858 1.41421,0.5858l14,0l0,-2l-14,0l0,-14zm16,-4l-12,0c-1.1,0 -2,0.9 -2,2l0,12c0,0.5304 0.21071,1.0391 0.58579,1.4142c0.37507,0.3751 0.88378,0.5858 1.41421,0.5858l12,0c1.11,0 2,-0.89 2,-2l0,-12c0,-0.53043 -0.2107,-1.03914 -0.5858,-1.41421c-0.3751,-0.37508 -0.8838,-0.58579 -1.4142,-0.58579zm0,14l-12,0l0,-12l12,0l0,12z"/></g></svg>