<svg width="24" height="24" viewBox="0 0 24 24" fill="none" xmlns="http://www.w3.org/2000/svg">
<path id="svg_1" fill="currentColor" d="m3.33769,21.97482c-0.60493,-0.1039 -1.08829,-0.506 -1.27353,-1.0601c-0.06079,-0.1837 -0.08105,-0.4554 -0.04921,-0.6339c0.05789,-0.3063 0.57309,-1.8697 1.06803,-3.2467c0.07815,-0.2184 0.18235,-0.3809 0.34733,-0.546c0.2576,-0.2557 0.39364,-0.3223 1.72506,-0.8231c0.43995,-0.1651 0.97542,-0.3702 1.1925,-0.4527c0.63098,-0.2424 1.3951,-0.5114 2.20264,-0.7724l0.26917,-0.0879l0.05789,0.1864c0.2576,0.8177 1.78585,4.9487 1.85821,5.0233c0.01157,0.0107 0.02026,-0.0133 0.02026,-0.0613c0,-0.0452 0.04052,-0.8896 0.08972,-1.8804l0.08973,-1.8005l-0.37917,-0.6898c-0.1534,-0.2317 -0.46599,-0.6259 -0.40521,-0.6712c0.03763,-0.0293 0.10709,0.0266 0.2084,0.0746c0.42837,0.1971 0.91463,0.3782 1.5138,0.3995c0.657,0.024 1.1896,-0.1651 1.7453,-0.3969c0.1129,-0.0479 0.2373,-0.1331 0.2836,-0.0852c0.0637,0.0639 -0.4457,0.6499 -0.4544,0.6632l-0.3878,0.7058l0.0955,1.8778c0.0521,1.0334 0.1013,1.8697 0.11,1.8617c0.055,-0.0532 1.6353,-4.3281 1.8669,-5.0499l0.0492,-0.1571l0.7438,0.2503c0.8741,0.293 0.9668,0.3276 1.7569,0.6233c2.5124,0.9455 2.5413,0.9562 2.8163,1.1985c0.1418,0.1226 0.301,0.333 0.3589,0.4635c0.0202,0.0453 0.1042,0.2823 0.191,0.5273c0.5644,1.6141 0.8886,2.6129 0.9349,2.8766c0.0839,0.4901 -0.1563,1.0494 -0.5905,1.3717c-0.1505,0.1119 -0.4225,0.2424 -0.6194,0.2956c-0.1273,0.0347 -0.5933,0.0373 -8.7063,0.04c-6.94946,0.0026 -8.60216,-0.0027 -8.72952,-0.024zm8.36192,-8.3473c-1.02751,-0.2051 -2.01739,-0.8283 -2.7381,-1.7179c-0.38496,-0.4768 -0.7728,-1.17996 -0.97831,-1.77658c-0.0492,-0.14116 -0.0521,-0.14649 -0.10709,-0.13317c-0.1042,0.02663 -0.27786,0.01065 -0.37048,-0.03196c-0.35022,-0.16514 -0.59336,-0.68984 -0.70913,-1.53416c-0.06947,-0.51405 -0.01737,-0.77507 0.18524,-0.94021c0.13025,-0.10387 0.26918,-0.14116 0.53257,-0.14116l0.2084,0l-0.01448,-0.33294c-0.05499,-1.17192 -0.0492,-1.46757 0.03474,-1.86176c0.35022,-1.65934 1.83794,-2.92716 3.67299,-3.12425c1.31695,-0.14117 2.49205,0.17312 3.46455,0.93221c0.6368,0.49541 1.152,1.29179 1.343,2.07751c0.0985,0.41017 0.1158,0.66054 0.084,1.41697c-0.0145,0.37022 -0.0261,0.7218 -0.0261,0.78039l0,0.10654l0.2084,0c0.3445,0 0.521,0.07724 0.6397,0.27967c0.1187,0.19709 0.1245,0.47409 0.026,1.04674c-0.1505,0.88693 -0.5238,1.39832 -0.9696,1.33706c-0.0521,-0.00799 -0.1042,-0.01332 -0.1158,-0.01332c-0.0115,0 -0.0578,0.09855 -0.1013,0.22107c-0.4515,1.23055 -1.233,2.21865 -2.2373,2.83395c-0.2576,0.1571 -0.6947,0.3596 -0.9754,0.4501c-0.4574,0.1465 -0.7613,0.1838 -1.0565,0.1252z"/>
</svg>
