<svg width="14" height="14" viewBox="0 0 14 14" fill="none" xmlns="http://www.w3.org/2000/svg">
<rect width="14" height="14" />
<path fill-rule="evenodd" clip-rule="evenodd" d="M9.39737 4.91127C9.39737 4.91127 6.75062 9.52374 6.70487 9.56499C6.55375 9.70749 6.31638 9.70002 6.175 9.55002L4.4605 7.96748C4.31875 7.81748 4.32663 7.57752 4.47775 7.43877C4.62888 7.29627 4.86625 7.30374 5.008 7.45374L6.34975 8.69125L8.74788 4.53627C8.85138 4.36002 9.0805 4.29623 9.26013 4.40123C9.43937 4.50248 9.50087 4.73502 9.39737 4.91127ZM7 1C3.6865 1 1 3.685 1 7C1 10.315 3.6865 13 7 13C10.3135 13 13 10.315 13 7C13 3.685 10.3135 1 7 1Z" fill="currentColor"/>
</svg>
