<svg width="18" height="26" viewBox="0 0 18 26" fill="none" xmlns="http://www.w3.org/2000/svg">
<path fill-rule="evenodd" clip-rule="evenodd" d="M14.3047 9.08233C13.7045 8.68111 12.9137 8.22508 12.043 7.85828C11.1346 7.47553 10.1069 7.17609 9.10025 7.15835C9.09035 7.1578 9.08039 7.15752 9.07035 7.15752C9.05967 7.15752 9.04899 7.15755 9.0383 7.15761C9.02762 7.15755 9.01693 7.15752 9.00625 7.15752C8.99622 7.15752 8.98625 7.1578 8.97636 7.15835C7.96971 7.17609 6.94201 7.47553 6.03356 7.85828C5.29054 8.17132 4.60564 8.54936 4.04776 8.90284C4.09208 8.64618 4.15038 8.35107 4.22379 8.02691C4.41861 7.16649 4.71046 6.14243 5.09739 5.16311C5.48653 4.1782 5.96032 3.26826 6.50732 2.61371C7.05715 1.95577 7.62094 1.62359 8.19629 1.62359H8.21121H8.22605H8.24081H8.25549H8.27009H8.28462H8.29907H8.31344H8.32773H8.34194H8.35608H8.37013H8.38411H8.39802H8.41184H8.42559H8.43927H8.44376H8.4438H8.44388H8.44399H8.44414H8.44415H8.44433H8.44434H8.44455H8.44458H8.44482H8.44485H8.44512H8.44516H8.44546H8.44551H8.44583H8.44591H8.44624H8.44634H8.44669H8.44681H8.44717H8.44732H8.44769H8.44787H8.44825H8.44847H8.44884H8.4491H8.44947H8.44978H8.45013H8.45049H8.45083H8.45125H8.45156H8.45205H8.45233H8.45286H8.45289H8.45313H8.45377H8.45397H8.4547H8.45484H8.45566H8.45575H8.45667H8.45669H8.45767H8.45772H8.45868H8.45882H8.45972H8.45995H8.46079H8.46113H8.4619H8.46235H8.46305H8.46362H8.46422H8.46493H8.46543H8.46628H8.46638H8.46667H8.46768H8.46795H8.46912H8.46926H8.4706H8.47197H8.47213H8.47337H8.4737H8.4748H8.47532H8.47627H8.47698H8.47777H8.47869H8.4793H8.47983H8.48044H8.48086H8.48223H8.48245H8.48408H8.48573H8.48596H8.48741H8.4879H8.48912H8.48988H8.49087H8.4919H8.49264H8.49319H8.49397H8.49445H8.49609H8.49628H8.49814H8.49825H8.50003H8.50046H8.50196H8.50272H8.50391H8.50502H8.50589H8.50649H8.50738H8.5079H8.50977H8.50993H8.512H8.51222H8.51409H8.51471H8.51621H8.51725H8.51836H8.5197H8.51984H8.52054H8.52248H8.52275H8.52498H8.52516H8.52724H8.5279H8.52953H8.53068H8.53184H8.53284H8.53351H8.53418H8.53639H8.53655H8.53894H8.53932H8.54136H8.54229H8.54381H8.54532H8.54591H8.54628H8.5484H8.54878H8.5513H8.55152H8.55385H8.5547H8.55643H8.55792H8.5589H8.55903H8.5612H8.56166H8.5643H8.56453H8.56698H8.5679H8.56968H8.57133H8.57182H8.5724H8.57481H8.57515H8.57792H8.57834H8.58072H8.58192H8.58354H8.58466H8.58555H8.58638H8.58923H8.58925H8.59214H8.59297H8.59505H8.59675H8.59742H8.59799H8.60059H8.60095H8.60393H8.60448H8.60693H8.60842H8.60996H8.61011H8.61242H8.61301H8.61608H8.61646H8.61917H8.62056H8.62228H8.62273H8.62472H8.62542H8.62858H8.62892H8.63176H8.63318H8.63495H8.63527H8.63749H8.63817H8.64141H8.64186H8.64468H8.64628H8.64774H8.64796H8.65075H8.65126H8.65458H8.65528H8.65792H8.65986H8.66013H8.66128H8.6645H8.66467H8.66807H8.66919H8.67149H8.67245H8.67393H8.67492H8.67838H8.67873H8.68186H8.68359H8.6847H8.68535H8.6885H8.68887H8.6924H8.69346H8.69595H8.69687H8.69848H8.69952H8.7031H8.70356H8.70671H8.70869H8.70897H8.71033H8.71388H8.71396H8.71762H8.71912H8.721H8.72129H8.72442H8.72498H8.72869H8.72978H8.73241H8.73296H8.73519H8.73615H8.7399H8.74066H8.74368H8.74484H8.74619H8.74746H8.75126H8.75177H8.75508H8.75665H8.75741H8.75891H8.76276H8.76311H8.76663H8.76838H8.76887H8.77051H8.7744H8.77468H8.77831H8.78005H8.78055H8.78223H8.78617H8.78648H8.79012H8.79164H8.79247H8.79408H8.79806H8.79851H8.80206H8.80316H8.80462H8.80606H8.81008H8.81078H8.81411H8.81461H8.817H8.81816H8.82221H8.82328H8.82598H8.82628H8.82962H8.83037H8.83446H8.83602H8.83729H8.83857H8.84248H8.84269H8.84682H8.84852H8.849H8.85097H8.85512H8.85558H8.85929H8.85968H8.86221H8.86346H8.86765H8.86891H8.87077H8.87185H8.87567H8.87606H8.88028H8.88179H8.88249H8.88451H8.88876H8.88937H8.89274H8.89301H8.89631H8.89727H8.90154H8.90331H8.90362H8.90582H8.91011H8.91037H8.91441H8.91443H8.91749H8.91872H8.92303H8.92468H8.92517H8.92736H8.9317H8.93192H8.93584H8.93604H8.93923H8.94039H8.94475H8.94644H8.9466H8.94912H8.9535H8.95403H8.95696H8.95788H8.96153H8.96227H8.96667H8.96742H8.96908H8.97107H8.97548H8.9767H8.97781H8.9799H8.98433H8.98438H8.98813H8.98876H8.99213H8.9932H8.99765H8.99838H8.99994H9.0021H9.00656H9.00781H9.00857H9.01102H9.01549H9.01574H9.01868H9.01996H9.02374H9.02444H9.02873H9.02892H9.0318H9.03341H9.03791H9.0387H9.03992H9.04241H9.04691H9.04811H9.04861H9.05142H9.05593H9.05637H9.05845H9.06044H9.06468H9.06496H9.0666H9.06822H9.06949H9.07114H9.07306H9.07401H9.07568H9.07793H9.07854H9.08022H9.08151H9.08308H9.08476H9.08756H9.08761H9.0893H9.09002H9.09215H9.09385H9.09669H9.09713H9.0984H9.0986H9.10124H9.10295H9.10578H9.10663H9.10724H9.10751H9.11033H9.11206H9.11488H9.11594H9.11607H9.11662H9.11943H9.12118H9.12399H9.12472H9.12543H9.12574H9.12855H9.1303H9.1331H9.13355H9.13474H9.13486H9.13766H9.13942H9.14222H9.14246H9.14397H9.14398H9.14678H9.14854H9.15134H9.15142H9.15311H9.15314H9.1559H9.15767H9.16046H9.16047H9.16223H9.16224H9.16503H9.16679H9.16956H9.16959H9.17127H9.17136H9.17415H9.17592H9.17872H9.17873H9.18024H9.18048H9.18328H9.18504H9.18784H9.18796H9.18914H9.1896H9.1924H9.19415H9.19696H9.19726H9.19798H9.19871H9.20152H9.20326H9.20608H9.20663H9.20675H9.20782H9.21064H9.21237H9.21519H9.21546H9.21606H9.21691H9.21974H9.22146H9.2241H9.22429H9.22556H9.226H9.22885H9.23055H9.23268H9.23339H9.23509H9.23513H9.23794H9.23962H9.24119H9.24248H9.24415H9.24477H9.24702H9.24868H9.24963H9.25156H9.25321H9.25447H9.25609H9.25773H9.25801H9.26225H9.26425H9.26633H9.26677H9.27128H9.27409H9.27458H9.27579H9.28029H9.28277H9.28399H9.28479H9.28928H9.2909H9.29377H9.29397H9.29826H9.29896H9.30274H9.30402H9.30696H9.30721H9.31168H9.31413H9.31489H9.31614H9.3206H9.32276H9.32431H9.32505H9.3295H9.33057H9.33393H9.33456H9.33831H9.33837H9.34279H9.34488H9.34599H9.34721H9.35162H9.35361H9.35527H9.35603H9.36043H9.36117H9.36482H9.36573H9.36866H9.3692H9.37358H9.37609H9.37626H9.37795H9.38231H9.38346H9.38666H9.38686H9.39077H9.391H9.39534H9.39753H9.39802H9.39966H9.40398H9.4052H9.40827H9.40829H9.41233H9.41259H9.41688H9.41908H9.41939H9.42116H9.42543H9.42639H9.42969H9.42995H9.43333H9.43394H9.43818H9.44021H9.4409H9.44241H9.44664H9.44703H9.45084H9.45192H9.45379H9.45504H9.45923H9.46048H9.46301H9.46341H9.46712H9.46758H9.47173H9.4737H9.47418H9.47587H9.48001H9.48022H9.48413H9.48541H9.48668H9.48823H9.49233H9.49308H9.49641H9.49672H9.49942H9.50048H9.50454H9.5057H9.50809H9.50859H9.51192H9.51262H9.51664H9.51808H9.51954H9.52064H9.52419H9.52464H9.52861H9.53023H9.53106H9.53258H9.53622H9.53653H9.54047H9.54215H9.54265H9.54439H9.54802H9.5483H9.55219H9.55383H9.55431H9.55607H9.55959H9.55993H9.56378H9.56529H9.56605H9.56762H9.57093H9.57143H9.57524H9.57651H9.57786H9.57902H9.58204H9.58279H9.58655H9.58751H9.58974H9.59029H9.59292H9.59401H9.59772H9.59828H9.60141H9.60169H9.60358H9.60508H9.60873H9.60882H9.61237H9.61372H9.61401H9.61599H9.61914H9.6196H9.62318H9.62422H9.62582H9.62675H9.62924H9.6303H9.63383H9.6342H9.63734H9.638H9.63911H9.64084H9.64397H9.64432H9.64777H9.64877H9.65024H9.65121H9.65351H9.65463H9.65803H9.6582H9.66141H9.66256H9.66284H9.66477H9.66742H9.66812H9.67144H9.67194H9.67474H9.67496H9.67642H9.67802H9.68084H9.68128H9.68452H9.6852H9.68743H9.68774H9.68952H9.69094H9.69377H9.69412H9.69728H9.69798H9.69997H9.70041H9.70213H9.70353H9.70623H9.70662H9.70969H9.71028H9.71259H9.71274H9.71427H9.71576H9.71822H9.71877H9.72175H9.72211H9.72471H9.72528H9.72594H9.72764H9.72973H9.73056H9.73345H9.73347H9.73631H9.73715H9.73804H9.73916H9.74078H9.74198H9.74436H9.74477H9.74755H9.74789H9.75029H9.75088H9.75137H9.75302H9.75479H9.75572H9.75817H9.75839H9.76104H9.7615H9.76367H9.7638H9.76477H9.76627H9.768H9.76884H9.77117H9.77139H9.77392H9.7743H9.77641H9.77679H9.77738H9.77889H9.7804H9.78133H9.78338H9.78375H9.78615H9.78631H9.78852H9.78919H9.78985H9.79086H9.79202H9.79317H9.7948H9.79546H9.79753H9.79772H9.79995H9.80022H9.80216H9.80286H9.80299H9.80433H9.80544H9.80648H9.80799H9.80861H9.81048H9.8107H9.81276H9.81292H9.8148H9.81532H9.81621H9.81681H9.81767H9.81879H9.81998H9.82074H9.82223H9.82266H9.82444H9.82456H9.82642H9.82661H9.82825H9.82872H9.8295H9.83006H9.8308H9.83183H9.83282H9.83357H9.8348H9.83529H9.83673H9.83697H9.83862H9.84025H9.84046H9.84184H9.84226H9.84287H9.8434H9.84401H9.84493H9.84572H9.84643H9.84738H9.84789H9.849H9.84933H9.85057H9.85073H9.8521H9.85344H9.85358H9.85475H9.85502H9.85602H9.85631H9.85642H9.85726H9.85777H9.85847H9.85908H9.85965H9.86034H9.86079H9.86157H9.8619H9.86274H9.86298H9.86388H9.86402H9.86497H9.86503H9.866H9.86603H9.86695H9.86703H9.86785H9.868H9.86873H9.86893H9.86956H9.86981H9.86983H9.87037H9.87065H9.87114H9.87145H9.87187H9.8722H9.87257H9.87292H9.87323H9.8736H9.87386H9.87423H9.87445H9.87482H9.875H9.87538H9.87552H9.87589H9.87601H9.87636H9.87646H9.87679H9.87687H9.87718H9.87724H9.87754H9.87758H9.87785H9.87788H9.87812H9.87814H9.87835H9.87837H9.87855H9.87856H9.8787H9.87882H9.8789H9.87894H9.88343H9.8971H9.91085H9.92468H9.93858H9.95256H9.96662H9.98076H9.99497H10.0093H10.0236H10.0381H10.0526H10.0672H10.0819H10.0966H10.1115H10.1264C10.7018 1.62359 11.2655 1.95577 11.8154 2.61371C12.3624 3.26826 12.8362 4.1782 13.2253 5.16311C13.6122 6.14243 13.9041 7.16649 14.0989 8.02691C14.1901 8.42954 14.258 8.78733 14.3047 9.08233ZM9.0383 8.21384C9.72633 8.21903 10.463 8.39077 11.181 8.65355C11.0107 9.11827 10.7553 9.67957 10.4272 10.1829C10.0033 10.8332 9.52557 11.2841 9.0383 11.4228C8.55104 11.2841 8.07334 10.8332 7.64944 10.1829C7.32133 9.67957 7.06595 9.11827 6.89565 8.65355C7.6136 8.39077 8.35027 8.21903 9.0383 8.21384ZM9.0383 12.4984C8.94484 12.5042 8.85441 12.485 8.77444 12.4458C7.89715 12.2078 7.22946 11.4727 6.76463 10.7597C6.39882 10.1985 6.11606 9.58583 5.92247 9.06701C5.12844 9.44934 4.43831 9.88875 3.97616 10.2281C4.10028 10.8534 4.51467 11.3646 5.07684 11.8048C5.63272 12.24 6.26368 12.554 6.7861 12.814C6.90854 12.8749 7.02502 12.9329 7.13317 12.9887L6.89082 13.986C3.77591 13.986 2.49489 14.5654 1.93524 15.2473C1.65668 15.5866 1.51477 15.9995 1.44701 16.5039C1.38741 16.9476 1.38886 17.4217 1.39049 17.9512C1.39076 18.0395 1.39104 18.1294 1.39104 18.2209V18.2326L1.39052 18.2443C1.37875 18.5097 1.37748 18.9481 1.37996 19.3571C1.38326 19.899 1.49022 20.3962 1.74327 20.7954C2.0831 21.3315 2.48647 21.8097 2.88364 22.2497V17.6171C2.88364 16.5754 3.72807 15.731 4.76972 15.731H13.3679C14.4095 15.731 15.254 16.5754 15.254 17.6171V22.4529C15.7089 21.9574 16.1866 21.4151 16.5794 20.7954C16.8325 20.3962 16.9394 19.899 16.9427 19.3571C16.9452 18.9481 16.9439 18.5097 16.9322 18.2443L16.9317 18.2326L16.9317 18.2209C16.9317 18.1294 16.9319 18.0395 16.9322 17.9512C16.9338 17.4217 16.9353 16.9476 16.8757 16.5039C16.8079 15.9995 16.666 15.5866 16.3875 15.2473C15.8278 14.5654 14.5468 13.986 11.4319 13.986L11.1895 12.9887C11.2977 12.9329 11.4142 12.8749 11.5366 12.814C12.059 12.554 12.69 12.24 13.2459 11.8048C13.76 11.4023 14.1505 10.9402 14.3084 10.3859C13.8614 10.0341 13.0781 9.5119 12.1541 9.06701C11.9605 9.58583 11.6778 10.1985 11.312 10.7597C10.8471 11.4727 10.1795 12.2078 9.30216 12.4458C9.2222 12.485 9.13177 12.5042 9.0383 12.4984ZM15.3542 23.909C15.3239 23.9433 15.2902 23.9728 15.254 23.9974V24.4671H16.4665C16.7581 24.4671 16.9946 24.7036 16.9946 24.9952C16.9946 25.2869 16.7581 25.5233 16.4665 25.5233H14.7259H3.41175H1.67111C1.37945 25.5233 1.14301 25.2869 1.14301 24.9952C1.14301 24.7036 1.37945 24.4671 1.67111 24.4671H2.88364V23.8136C2.78019 23.6985 2.66533 23.5744 2.54283 23.442L2.54281 23.4419L2.54278 23.4419C2.02071 22.8776 1.35981 22.1633 0.851191 21.3609C0.458069 20.7407 0.327824 20.0285 0.323782 19.3635C0.321341 18.962 0.322226 18.5055 0.334833 18.2095C0.334806 18.1292 0.334501 18.048 0.334192 17.9659V17.9659C0.33222 17.4415 0.330128 16.8849 0.400215 16.3633C0.483582 15.7428 0.673714 15.1195 1.11884 14.5772C1.80571 13.7403 2.99859 13.2122 4.96306 13.0161C4.78086 12.899 4.59961 12.7725 4.42574 12.6364C3.677 12.0502 2.9739 11.2169 2.88984 10.0637C2.88646 10.0384 2.88492 10.0129 2.88522 9.98753C2.88272 9.93618 2.88145 9.88421 2.88145 9.83161C2.88145 9.43987 2.99273 8.68104 3.19366 7.79365C3.39773 6.89242 3.70422 5.81487 4.11508 4.77499C4.52373 3.7407 5.04718 2.71385 5.69686 1.93642C6.34371 1.16238 7.17606 0.567383 8.19629 0.567383H8.21121H8.22605H8.24081H8.25549H8.27009H8.28462H8.29907H8.31344H8.32773H8.34194H8.35608H8.37013H8.38411H8.39802H8.41184H8.42559H8.43927H8.44376H8.4438H8.44387H8.44399H8.44414H8.44415H8.44433H8.44434H8.44455H8.44458H8.44482H8.44485H8.44512H8.44516H8.44546H8.44551H8.44583H8.44591H8.44624H8.44634H8.44669H8.44681H8.44717H8.44732H8.44769H8.44787H8.44825H8.44847H8.44884H8.4491H8.44947H8.44978H8.45013H8.45049H8.45083H8.45125H8.45156H8.45205H8.45233H8.45286H8.45289H8.45313H8.45377H8.45397H8.4547H8.45484H8.45566H8.45575H8.45667H8.45669H8.45767H8.45772H8.45868H8.45882H8.45972H8.45995H8.46079H8.46113H8.4619H8.46235H8.46305H8.46362H8.46422H8.46493H8.46543H8.46628H8.46638H8.46667H8.46768H8.46795H8.46912H8.46926H8.47059H8.47197H8.47213H8.47337H8.4737H8.4748H8.47532H8.47627H8.47698H8.47777H8.47869H8.4793H8.47983H8.48044H8.48086H8.48223H8.48245H8.48407H8.48573H8.48596H8.48741H8.4879H8.48912H8.48988H8.49087H8.4919H8.49264H8.49319H8.49397H8.49445H8.49609H8.49628H8.49814H8.49825H8.50003H8.50046H8.50196H8.50272H8.50391H8.50502H8.50589H8.50649H8.50738H8.5079H8.50977H8.50993H8.512H8.51222H8.51409H8.51471H8.51621H8.51725H8.51836H8.5197H8.51984H8.52054H8.52248H8.52275H8.52498H8.52516H8.52724H8.5279H8.52953H8.53068H8.53184H8.53284H8.53351H8.53418H8.53639H8.53655H8.53894H8.53932H8.54136H8.54229H8.54381H8.54532H8.54591H8.54628H8.5484H8.54878H8.5513H8.55152H8.55385H8.5547H8.55643H8.55792H8.5589H8.55903H8.5612H8.56166H8.5643H8.56453H8.56698H8.5679H8.56968H8.57133H8.57182H8.5724H8.57481H8.57515H8.57792H8.57834H8.58072H8.58192H8.58354H8.58466H8.58555H8.58638H8.58923H8.58925H8.59214H8.59297H8.59505H8.59675H8.59742H8.59799H8.60059H8.60095H8.60393H8.60448H8.60693H8.60842H8.60996H8.61011H8.61242H8.61301H8.61608H8.61646H8.61917H8.62056H8.62228H8.62273H8.62472H8.62542H8.62858H8.62892H8.63176H8.63318H8.63495H8.63527H8.63749H8.63817H8.64141H8.64186H8.64468H8.64628H8.64774H8.64796H8.65075H8.65126H8.65458H8.65528H8.65792H8.65986H8.66013H8.66128H8.6645H8.66467H8.66807H8.66919H8.67149H8.67245H8.67393H8.67492H8.67838H8.67873H8.68186H8.68359H8.6847H8.68535H8.6885H8.68887H8.6924H8.69346H8.69595H8.69687H8.69848H8.69952H8.7031H8.70356H8.70671H8.70869H8.70897H8.71033H8.71388H8.71396H8.71762H8.71912H8.721H8.72129H8.72442H8.72498H8.72869H8.72978H8.73241H8.73296H8.73519H8.73615H8.7399H8.74066H8.74368H8.74484H8.74619H8.74746H8.75126H8.75177H8.75508H8.75665H8.75741H8.75891H8.76276H8.76311H8.76663H8.76838H8.76887H8.77051H8.7744H8.77468H8.77831H8.78005H8.78055H8.78223H8.78617H8.78648H8.79012H8.79164H8.79247H8.79408H8.79806H8.79851H8.80206H8.80316H8.80462H8.80606H8.81008H8.81078H8.81411H8.81461H8.817H8.81816H8.82221H8.82328H8.82598H8.82628H8.82962H8.83037H8.83446H8.83602H8.83729H8.83857H8.84248H8.84269H8.84682H8.84852H8.849H8.85097H8.85512H8.85558H8.85929H8.85968H8.86221H8.86346H8.86765H8.86891H8.87077H8.87185H8.87567H8.87606H8.88028H8.88179H8.88249H8.88451H8.88876H8.88937H8.89274H8.89301H8.89631H8.89727H8.90154H8.90331H8.90362H8.90582H8.91011H8.91037H8.91441H8.91443H8.91749H8.91872H8.92303H8.92468H8.92517H8.92736H8.9317H8.93192H8.93584H8.93604H8.93923H8.94039H8.94475H8.94644H8.9466H8.94912H8.9535H8.95403H8.95696H8.95788H8.96153H8.96227H8.96667H8.96742H8.96908H8.97107H8.97548H8.9767H8.97781H8.9799H8.98433H8.98438H8.98813H8.98876H8.99213H8.9932H8.99765H8.99838H8.99994H9.0021H9.00656H9.00781H9.00857H9.01102H9.01549H9.01574H9.01868H9.01996H9.02374H9.02444H9.02873H9.02892H9.0318H9.03341H9.03791H9.0387H9.03992H9.04241H9.04691H9.04811H9.04861H9.05142H9.05593H9.05637H9.05845H9.06044H9.06468H9.06496H9.0666H9.06822H9.06949H9.07114H9.07306H9.07401H9.07568H9.07793H9.07854H9.08022H9.08151H9.08308H9.08476H9.08756H9.08761H9.0893H9.09002H9.09215H9.09385H9.09669H9.09713H9.0984H9.0986H9.10124H9.10295H9.10578H9.10663H9.10724H9.10751H9.11033H9.11206H9.11488H9.11594H9.11607H9.11662H9.11943H9.12118H9.12399H9.12472H9.12543H9.12574H9.12855H9.1303H9.1331H9.13355H9.13474H9.13486H9.13766H9.13942H9.14222H9.14246H9.14397H9.14398H9.14678H9.14854H9.15134H9.15142H9.15311H9.15314H9.1559H9.15767H9.16046H9.16047H9.16223H9.16224H9.16503H9.16679H9.16956H9.16959H9.17127H9.17136H9.17415H9.17592H9.17872H9.17873H9.18024H9.18048H9.18328H9.18504H9.18784H9.18796H9.18914H9.1896H9.1924H9.19415H9.19696H9.19726H9.19798H9.19871H9.20152H9.20326H9.20608H9.20663H9.20675H9.20782H9.21064H9.21237H9.21519H9.21546H9.21606H9.21691H9.21974H9.22146H9.2241H9.22429H9.22556H9.226H9.22885H9.23055H9.23268H9.23339H9.23509H9.23513H9.23794H9.23962H9.24119H9.24248H9.24415H9.24477H9.24702H9.24868H9.24963H9.25156H9.25321H9.25447H9.25609H9.25773H9.25801H9.26225H9.26425H9.26633H9.26677H9.27128H9.27409H9.27458H9.27579H9.28029H9.28277H9.28399H9.28479H9.28928H9.2909H9.29377H9.29397H9.29826H9.29896H9.30274H9.30402H9.30696H9.30721H9.31168H9.31413H9.31489H9.31614H9.3206H9.32276H9.32431H9.32505H9.3295H9.33057H9.33393H9.33456H9.33831H9.33837H9.34279H9.34488H9.34599H9.34721H9.35162H9.35361H9.35527H9.35603H9.36043H9.36117H9.36482H9.36573H9.36866H9.3692H9.37358H9.37609H9.37626H9.37795H9.38231H9.38346H9.38666H9.38686H9.39077H9.391H9.39534H9.39753H9.39802H9.39966H9.40398H9.4052H9.40827H9.40829H9.41233H9.41259H9.41688H9.41908H9.41939H9.42116H9.42543H9.42639H9.42969H9.42995H9.43333H9.43394H9.43818H9.44021H9.4409H9.44241H9.44664H9.44703H9.45084H9.45192H9.45379H9.45504H9.45923H9.46048H9.46301H9.46341H9.46712H9.46758H9.47173H9.4737H9.47418H9.47587H9.48001H9.48022H9.48413H9.48541H9.48668H9.48823H9.49233H9.49308H9.49641H9.49672H9.49942H9.50048H9.50454H9.5057H9.50809H9.50859H9.51192H9.51262H9.51664H9.51808H9.51954H9.52064H9.52419H9.52464H9.52861H9.53023H9.53106H9.53258H9.53622H9.53653H9.54047H9.54215H9.54265H9.54439H9.54802H9.5483H9.55219H9.55383H9.55431H9.55607H9.55959H9.55993H9.56378H9.56529H9.56605H9.56762H9.57093H9.57143H9.57524H9.57651H9.57786H9.57902H9.58204H9.58279H9.58655H9.58751H9.58974H9.59029H9.59292H9.59401H9.59772H9.59828H9.60141H9.60169H9.60358H9.60508H9.60873H9.60882H9.61237H9.61372H9.61401H9.61599H9.61914H9.6196H9.62318H9.62422H9.62582H9.62675H9.62924H9.6303H9.63383H9.6342H9.63734H9.638H9.63911H9.64084H9.64397H9.64432H9.64777H9.64877H9.65024H9.65121H9.65351H9.65463H9.65803H9.6582H9.66141H9.66256H9.66284H9.66477H9.66742H9.66812H9.67144H9.67194H9.67474H9.67496H9.67642H9.67802H9.68084H9.68128H9.68452H9.6852H9.68743H9.68774H9.68952H9.69094H9.69377H9.69412H9.69728H9.69798H9.69997H9.70041H9.70213H9.70353H9.70623H9.70662H9.70969H9.71028H9.71259H9.71274H9.71427H9.71576H9.71822H9.71877H9.72175H9.72211H9.72471H9.72528H9.72594H9.72764H9.72973H9.73056H9.73345H9.73347H9.73631H9.73715H9.73804H9.73916H9.74078H9.74198H9.74436H9.74477H9.74755H9.74789H9.75029H9.75088H9.75137H9.75302H9.75479H9.75572H9.75817H9.75839H9.76104H9.7615H9.76367H9.7638H9.76477H9.76627H9.768H9.76884H9.77117H9.77139H9.77392H9.7743H9.77641H9.77679H9.77738H9.77889H9.7804H9.78133H9.78338H9.78375H9.78615H9.78631H9.78852H9.78919H9.78985H9.79086H9.79202H9.79317H9.7948H9.79546H9.79753H9.79772H9.79995H9.80022H9.80216H9.80286H9.80299H9.80433H9.80544H9.80648H9.80799H9.80861H9.81048H9.8107H9.81276H9.81292H9.8148H9.81532H9.81621H9.81681H9.81767H9.81879H9.81998H9.82074H9.82223H9.82266H9.82444H9.82456H9.82642H9.82661H9.82825H9.82872H9.8295H9.83006H9.8308H9.83183H9.83282H9.83357H9.8348H9.83529H9.83673H9.83697H9.83862H9.84025H9.84046H9.84184H9.84226H9.84287H9.8434H9.84401H9.84493H9.84572H9.84643H9.84738H9.84789H9.849H9.84933H9.85057H9.85073H9.8521H9.85344H9.85358H9.85475H9.85502H9.85602H9.85631H9.85642H9.85726H9.85777H9.85847H9.85908H9.85965H9.86034H9.86079H9.86157H9.8619H9.86274H9.86298H9.86388H9.86402H9.86497H9.86503H9.866H9.86603H9.86695H9.86703H9.86785H9.868H9.86873H9.86893H9.86956H9.86981H9.86983H9.87037H9.87065H9.87114H9.87145H9.87187H9.8722H9.87257H9.87292H9.87323H9.8736H9.87386H9.87423H9.87445H9.87482H9.875H9.87538H9.87552H9.87589H9.87601H9.87636H9.87646H9.87679H9.87687H9.87718H9.87724H9.87754H9.87758H9.87785H9.87788H9.87812H9.87814H9.87835H9.87837H9.87855H9.87856H9.87871H9.87882H9.8789H9.87894H9.88343H9.8971H9.91085H9.92468H9.93858H9.95256H9.96662H9.98076H9.99497H10.0093H10.0236H10.0381H10.0526H10.0672H10.0819H10.0966H10.1115H10.1264C11.1466 0.567383 11.979 1.16238 12.6258 1.93642C13.2755 2.71385 13.799 3.7407 14.2076 4.77499C14.6185 5.81487 14.925 6.89242 15.129 7.79365C15.33 8.68104 15.4412 9.43987 15.4412 9.83161C15.4412 11.106 14.695 12.0116 13.897 12.6364C13.7231 12.7725 13.5418 12.899 13.3596 13.0161C15.3241 13.2122 16.517 13.7403 17.2039 14.5772C17.649 15.1195 17.8391 15.7428 17.9225 16.3633C17.9926 16.8849 17.9905 17.4415 17.9885 17.9659L17.9885 17.966C17.9882 18.048 17.9879 18.1292 17.9879 18.2095C18.0005 18.5055 18.0014 18.962 17.9989 19.3635C17.9949 20.0285 17.8646 20.7407 17.4715 21.3609C16.9629 22.1633 16.302 22.8776 15.7799 23.4419L15.7799 23.4419L15.7799 23.442C15.6228 23.6118 15.4782 23.768 15.3542 23.909ZM4.76972 16.7872C4.31139 16.7872 3.93985 17.1588 3.93985 17.6171V24.4671H14.1977V17.6171C14.1977 17.1588 13.8262 16.7872 13.3679 16.7872H4.76972Z" fill="currentColor"/>
</svg>
