<svg width="24" height="24" xmlns="http://www.w3.org/2000/svg" fill="none"><path id="svg_1" stroke-linejoin="round" stroke-linecap="round" stroke="currentColor" d="m15.5,18.75l0,-1.6667c0,-0.884 -0.3512,-1.7319 -0.9763,-2.357c-0.6251,-0.6251 -1.473,-0.9763 -2.357,-0.9763l-5.83337,0c-0.88405,0 -1.7319,0.3512 -2.35702,0.9763c-0.62512,0.6251 -0.97631,1.473 -0.97631,2.357l0,1.6667"/><path id="svg_2" stroke-linejoin="round" stroke-linecap="round" stroke="currentColor" d="m9.24984,11.41667c1.84095,0 3.33336,-1.49239 3.33336,-3.33334c0,-1.84095 -1.49241,-3.33333 -3.33336,-3.33333c-1.84095,0 -3.33334,1.49238 -3.33334,3.33333c0,1.84095 1.49239,3.33334 3.33334,3.33334z"/><path id="svg_3" stroke-linejoin="round" stroke-linecap="round" stroke="currentColor" d="m18.833,7.91699l0,5"/><path id="svg_4" stroke-linejoin="round" stroke-linecap="round" stroke="currentColor" d="m21.333,10.41699l-5,0"/></svg>