<svg width="327" height="290" viewBox="0 0 327 290" fill="none" xmlns="http://www.w3.org/2000/svg">
<g clip-path="url(#clip0_151_10353)">
<mask id="mask0_151_10353" style="mask-type:luminance" maskUnits="userSpaceOnUse" x="92" y="0" width="136" height="102">
<path d="M227.601 0H92.5579V101.662H227.601V0Z" fill="white"/>
</mask>
<g mask="url(#mask0_151_10353)">
<path d="M94.2556 1.70523V36.0707C94.2556 40.3523 98.5571 42.7184 100.821 42.7184C105.802 42.7184 106.141 35.282 114.518 35.282C131.271 35.282 131.271 66.3799 114.518 66.3799C106.141 66.3799 105.688 58.9434 100.821 58.9434C98.5571 58.9434 94.2556 61.4222 94.2556 65.5911V99.9567H128.781C133.082 99.9567 135.459 95.675 135.459 93.4216C135.459 88.4639 127.988 88.126 127.988 79.6754C127.988 62.9997 159.23 62.9997 159.23 79.6754C159.23 88.0132 151.759 88.4639 151.759 93.4216C151.759 95.675 154.25 99.9567 158.438 99.9567H192.963V65.7039C192.963 61.4222 197.264 59.0561 199.528 59.0561C204.509 59.0561 204.849 66.4926 213.338 66.4926C230.091 66.4926 230.091 35.3947 213.338 35.3947C204.962 35.3947 204.509 42.8312 199.528 42.8312C197.264 42.8312 192.963 40.465 192.963 36.1834V1.70523H158.551C154.25 1.70523 140.354 1.70523 140.354 1.70523L139.131 1.70517L137.817 1.70508C137.029 1.70523 136.064 1.70517 136.064 1.70517C136.064 1.70517 133.082 1.70523 128.894 1.70523H94.2556Z" fill="#3C7A91" stroke="#DDDDDD" stroke-width="0.758671" stroke-miterlimit="10"/>
</g>
</g>
<g clip-path="url(#clip1_151_10353)">
<path fill-rule="evenodd" clip-rule="evenodd" d="M40.5217 168.753C42.7805 173.116 46.0893 174.383 48.8584 175.134C49.2631 175.243 49.634 175.338 49.9786 175.425L49.9791 175.426C50.8556 175.649 51.5622 175.829 52.2219 176.106C53.0341 176.447 53.5478 176.857 53.8912 177.52C54.1292 177.98 54.2711 179.198 53.7653 180.686C53.2872 182.092 52.3169 183.452 50.7691 184.253L50.7765 184.267L20.6189 199.88L19.1145 200.659L19.8933 202.163L35.3601 232.039C36.6164 234.466 38.8264 235.656 40.9006 236.085C42.9156 236.503 45.0494 236.258 46.4656 235.525C47.9953 234.733 48.8633 233.551 49.4283 232.299C49.8219 231.427 50.1063 230.412 50.3594 229.508C50.4378 229.228 50.5131 228.96 50.5877 228.709C50.9307 227.557 51.3245 226.499 52.0022 225.52C52.6669 224.56 53.6561 223.605 55.2821 222.763C58.4817 221.107 61.5755 221.315 64.3067 222.669C67.0926 224.049 69.5359 226.651 71.1552 229.779C72.7745 232.907 73.4885 236.404 73.0076 239.475C72.5361 242.487 70.9202 245.133 67.7206 246.79C64.5735 248.419 62.3016 247.939 60.1117 247.208C59.853 247.122 59.5774 247.025 59.2908 246.923L59.2907 246.923C58.414 246.614 57.4344 246.268 56.5173 246.088C55.1825 245.825 53.7236 245.838 52.2103 246.622C50.7769 247.364 49.3633 249.004 48.5553 250.889C47.725 252.826 47.4113 255.317 48.6463 257.703L48.6514 257.712L64.0905 287.068L64.874 288.557L66.3686 287.783L93.9214 273.519L99.1423 270.816L104.471 268.058L109.488 265.46L115.739 262.224L115.739 262.224L115.739 262.224L115.739 262.224L115.74 262.224L115.74 262.224L115.741 262.223L115.741 262.223L115.742 262.223L115.743 262.222L115.744 262.222L115.745 262.221L115.746 262.221L115.747 262.22L115.748 262.22L115.749 262.219L115.751 262.218L115.752 262.217L115.754 262.217L115.755 262.216L115.757 262.215L115.759 262.214L115.761 262.213L115.763 262.212L115.765 262.211L115.767 262.21L115.769 262.209L115.771 262.208L115.773 262.206L115.776 262.205L115.778 262.204L115.781 262.202L115.784 262.201L115.786 262.2L115.789 262.198L115.792 262.197L115.795 262.195L115.798 262.194L115.801 262.192L115.805 262.19L115.808 262.189L115.811 262.187L115.815 262.185L115.818 262.183L115.822 262.181L115.825 262.179L115.829 262.178L115.833 262.176L115.837 262.173L115.841 262.171L115.845 262.169L115.849 262.167L115.853 262.165L115.858 262.163L115.862 262.161L115.867 262.158L115.871 262.156L115.876 262.153L115.88 262.151L115.885 262.149L115.89 262.146L115.895 262.144L115.9 262.141L115.905 262.138L115.91 262.136L115.915 262.133L115.92 262.13L115.926 262.128L115.931 262.125L115.937 262.122L115.942 262.119L115.948 262.116L115.954 262.113L115.959 262.11L115.965 262.107L115.971 262.104L115.977 262.101L115.983 262.098L115.989 262.095L115.996 262.091L116.002 262.088L116.008 262.085L116.015 262.082L116.021 262.078L116.028 262.075L116.034 262.071L116.041 262.068L116.048 262.064L116.055 262.061L116.062 262.057L116.069 262.054L116.076 262.05L116.083 262.046L116.09 262.042L116.097 262.039L116.105 262.035L116.112 262.031L116.12 262.027L116.127 262.023L116.135 262.019L116.142 262.015L116.15 262.011L116.158 262.007L116.166 262.003L116.174 261.999L116.182 261.995L116.19 261.991L116.198 261.987L116.206 261.982L116.215 261.978L116.223 261.974L116.231 261.969L116.24 261.965L116.248 261.961L116.257 261.956L116.266 261.952L116.274 261.947L116.283 261.942L116.292 261.938L116.301 261.933L116.31 261.929L116.319 261.924L116.328 261.919L116.338 261.914L116.347 261.91L116.356 261.905L116.366 261.9L116.375 261.895L116.385 261.89L116.394 261.885L116.404 261.88L116.414 261.875L116.423 261.87L116.433 261.865L116.443 261.86L116.453 261.855L116.463 261.849L116.473 261.844L116.483 261.839L116.494 261.834L116.504 261.828L116.514 261.823L116.525 261.818L116.535 261.812L116.546 261.807L116.556 261.801L116.567 261.796L116.577 261.79L116.588 261.785L116.599 261.779L116.61 261.773L116.621 261.768L116.632 261.762L116.643 261.756L116.654 261.75L116.665 261.745L116.677 261.739L116.688 261.733L116.699 261.727L116.711 261.721L116.722 261.715L116.734 261.709L116.745 261.703L116.757 261.697L116.769 261.691L116.78 261.685L116.792 261.679L116.804 261.673L116.816 261.667L116.828 261.66L116.84 261.654L116.852 261.648L116.864 261.642L116.877 261.635L116.889 261.629L116.901 261.623L116.914 261.616L116.926 261.61L116.938 261.603L116.951 261.597L116.964 261.59L116.976 261.584L116.989 261.577L117.002 261.57L117.015 261.564L117.028 261.557L117.04 261.55L117.053 261.544L117.066 261.537L117.08 261.53L117.093 261.523L117.106 261.517L117.119 261.51L117.133 261.503L117.146 261.496L117.159 261.489L117.173 261.482L117.186 261.475L117.2 261.468L117.213 261.461L117.227 261.454L117.241 261.447L117.255 261.44L117.268 261.432L117.282 261.425L117.296 261.418L117.31 261.411L117.324 261.403L117.338 261.396L117.353 261.389L117.367 261.382L117.381 261.374L117.395 261.367L117.41 261.359L117.424 261.352L117.438 261.344L117.453 261.337L117.467 261.329L117.482 261.322L117.497 261.314L117.511 261.307L117.526 261.299L117.541 261.291L117.556 261.284L117.571 261.276L117.585 261.268L117.6 261.261L117.615 261.253L117.63 261.245L117.646 261.237L117.661 261.229L117.676 261.221L117.691 261.214L117.706 261.206L117.722 261.198L117.737 261.19L117.753 261.182L117.768 261.174L117.784 261.166L117.799 261.158L117.815 261.15L117.83 261.141L117.846 261.133L117.862 261.125L117.878 261.117L117.894 261.109L117.909 261.101L117.925 261.092L117.941 261.084L117.957 261.076L117.973 261.067L117.99 261.059L118.006 261.051L118.022 261.042L118.038 261.034L118.054 261.026L118.071 261.017L118.087 261.009L118.103 261L118.12 260.992L118.136 260.983L118.153 260.975L118.169 260.966L118.186 260.957L118.203 260.949L118.219 260.94L118.236 260.931L118.253 260.923L118.27 260.914L118.287 260.905L118.303 260.897L118.32 260.888L118.337 260.879L118.354 260.87L118.371 260.861L118.389 260.853L118.406 260.844L118.423 260.835L118.44 260.826L118.457 260.817L118.475 260.808L118.492 260.799L118.509 260.79L118.527 260.781L118.544 260.772L118.562 260.763L118.579 260.754L118.597 260.745L118.614 260.736L118.632 260.727L118.65 260.717L118.667 260.708L118.685 260.699L118.703 260.69L118.721 260.681L118.738 260.671L118.756 260.662L118.774 260.653L118.792 260.644L118.81 260.634L118.828 260.625L118.846 260.616L118.864 260.606L118.882 260.597L118.901 260.587L118.919 260.578L118.937 260.569L118.955 260.559L118.974 260.55L118.992 260.54L119.01 260.531L119.029 260.521L119.047 260.512L119.066 260.502L119.084 260.492L119.103 260.483L119.121 260.473L119.14 260.464L119.158 260.454L119.177 260.444L119.196 260.435L119.215 260.425L119.233 260.415L119.252 260.405L119.271 260.396L119.29 260.386L119.309 260.376L119.328 260.366L119.347 260.357L119.365 260.347L119.385 260.337L119.404 260.327L119.423 260.317L119.442 260.307L119.461 260.297L119.48 260.288L119.499 260.278L119.518 260.268L119.538 260.258L119.557 260.248L119.576 260.238L119.596 260.228L119.615 260.218L119.634 260.208L119.654 260.198L119.673 260.188L119.693 260.177L119.712 260.167L119.732 260.157L119.751 260.147L119.771 260.137L119.79 260.127L119.81 260.117L119.83 260.106L119.849 260.096L119.869 260.086L119.889 260.076L119.909 260.066L119.928 260.055L119.948 260.045L119.968 260.035L119.988 260.025L120.008 260.014L120.028 260.004L120.048 259.994L120.068 259.983L120.088 259.973L120.108 259.963L120.128 259.952L120.148 259.942L120.168 259.931L120.188 259.921L120.208 259.911L120.228 259.9L120.248 259.89L120.269 259.879L120.289 259.869L120.309 259.858L120.329 259.848L120.35 259.837L120.37 259.827L120.39 259.816L120.411 259.806L120.431 259.795L120.451 259.785L120.472 259.774L120.492 259.763L120.513 259.753L120.533 259.742L120.554 259.732L120.574 259.721L120.595 259.71L120.615 259.7L120.636 259.689L120.657 259.678L120.677 259.668L120.698 259.657L120.719 259.646L120.739 259.636L120.76 259.625L120.781 259.614L120.801 259.603L120.822 259.593L120.843 259.582L120.864 259.571L120.885 259.56L120.905 259.55L120.926 259.539L120.947 259.528L120.968 259.517L120.989 259.506L121.01 259.495L121.031 259.485L121.052 259.474L121.073 259.463L121.094 259.452L121.115 259.441L121.136 259.43L121.157 259.419L121.178 259.409L121.199 259.398L121.22 259.387L121.241 259.376L121.262 259.365L121.283 259.354L121.304 259.343L121.326 259.332L121.347 259.321L121.368 259.31L121.389 259.299L121.41 259.288L121.432 259.277L121.453 259.266L121.474 259.255L121.495 259.244L121.517 259.233L121.538 259.222L121.559 259.211L121.581 259.2L121.602 259.189L121.623 259.178L121.645 259.167L121.666 259.156L121.687 259.145L121.709 259.134L121.73 259.123L121.752 259.112L121.773 259.1L121.794 259.089L121.816 259.078L121.837 259.067L121.859 259.056L121.88 259.045L121.902 259.034L121.923 259.023L121.945 259.011L121.966 259L121.988 258.989L122.009 258.978L122.031 258.967L122.052 258.956L122.074 258.945L122.096 258.933L122.117 258.922L122.139 258.911L122.16 258.9L122.182 258.889L122.204 258.878L122.225 258.866L122.247 258.855L122.268 258.844L122.29 258.833L122.312 258.822L122.333 258.81L122.355 258.799L122.377 258.788L122.398 258.777L122.42 258.765L122.442 258.754L122.463 258.743L122.485 258.732L122.507 258.72L122.529 258.709L122.55 258.698L122.572 258.687L122.594 258.676L122.615 258.664L122.637 258.653L122.659 258.642L122.681 258.631L122.702 258.619L122.724 258.608L122.746 258.597L122.768 258.585L122.789 258.574L122.811 258.563L122.833 258.552L122.855 258.54L122.877 258.529L122.898 258.518L122.92 258.507L122.942 258.495L122.964 258.484L122.985 258.473L123.007 258.461L123.029 258.45L123.051 258.439L123.073 258.428L123.094 258.416L123.116 258.405L123.138 258.394L123.16 258.382L123.167 258.379L153.646 242.406L155.133 241.627L154.367 240.133L139.366 210.869L139.363 210.863C138.692 209.567 138.802 208.18 139.354 206.914C139.93 205.592 140.882 204.656 141.476 204.348C142.158 203.995 142.806 203.951 143.621 204.108C144.285 204.236 144.922 204.46 145.719 204.741L145.72 204.741L145.721 204.742C146.049 204.857 146.403 204.982 146.798 205.114C148.063 205.536 149.564 205.952 151.302 205.96C153.061 205.968 154.972 205.559 157.087 204.464C161.326 202.269 163.539 198.648 164.163 194.665C164.777 190.742 163.852 186.518 161.972 182.887C160.092 179.256 157.177 176.062 153.619 174.299C150.007 172.508 145.772 172.226 141.533 174.42C137.241 176.642 135.914 179.772 135.103 182.421C134.984 182.808 134.882 183.161 134.787 183.488L134.787 183.488C134.547 184.317 134.354 184.981 134.068 185.606C133.717 186.371 133.299 186.88 132.616 187.234C132.022 187.542 130.708 187.778 129.296 187.486C127.943 187.205 126.747 186.494 126.077 185.199L110.559 155.225L109.78 153.721L108.276 154.5L77.726 170.315L77.7187 170.301C76.238 171.068 75.1218 170.874 74.2495 170.395C73.2802 169.862 72.5134 168.905 72.0944 168.096C71.752 167.435 71.7168 166.788 71.9088 165.939C72.064 165.253 72.3228 164.588 72.6446 163.762L72.6448 163.761C72.7764 163.423 72.9185 163.058 73.0684 162.653C73.55 161.353 74.034 159.808 74.0911 158.029C74.149 156.223 73.7658 154.267 72.6533 152.118C70.4193 147.803 66.6132 145.651 62.4378 145.129C58.3235 144.615 53.8531 145.67 49.981 147.674C46.109 149.679 42.6671 152.72 40.7119 156.377C38.7278 160.088 38.2878 164.438 40.5217 168.753ZM79.2669 173.315C76.7415 174.619 74.4325 174.361 72.6182 173.364C70.8987 172.419 69.7166 170.873 69.0856 169.654C68.2729 168.084 68.2927 166.569 68.6042 165.192C68.8198 164.239 69.215 163.225 69.5697 162.315L69.5698 162.315L69.57 162.314C69.6836 162.022 69.7931 161.741 69.8912 161.477C70.3302 160.291 70.6652 159.153 70.7048 157.921C70.7434 156.715 70.5009 155.33 69.6445 153.676C67.9934 150.487 65.2453 148.895 62.0176 148.491C58.7289 148.08 54.9473 148.919 51.5387 150.683C48.13 152.448 45.2625 155.052 43.6997 157.974C42.1659 160.843 41.8793 164.006 43.5305 167.195C45.1569 170.337 47.3778 171.222 49.7446 171.863C50.0139 171.936 50.3016 172.01 50.5998 172.085C51.5569 172.328 52.622 172.599 53.5348 172.982C54.8389 173.531 56.0882 174.394 56.8999 175.962C57.7119 177.531 57.651 179.782 56.973 181.777C56.3256 183.681 55.0282 185.634 52.9183 186.928L52.937 186.964L23.6809 202.11L38.3688 230.481C39.0395 231.777 40.2354 232.488 41.5881 232.768C42.9999 233.06 44.3137 232.824 44.908 232.517C45.5899 232.164 45.9998 231.66 46.3403 230.905C46.6197 230.287 46.8039 229.63 47.035 228.807C47.1266 228.481 47.2255 228.129 47.3406 227.742C47.719 226.471 48.2351 225.009 49.2168 223.591C50.2115 222.155 51.6312 220.838 53.7245 219.755C57.9637 217.56 62.1985 217.843 65.811 219.633C69.3688 221.396 72.2842 224.59 74.164 228.221C76.0437 231.852 76.969 236.077 76.3548 239.999C75.7312 243.983 73.5175 247.604 69.2783 249.798C64.9866 252.02 61.6646 251.298 59.0396 250.422C58.6381 250.288 58.2779 250.161 57.9455 250.044L57.9441 250.043C57.1537 249.765 56.5203 249.541 55.8629 249.412C55.0466 249.251 54.4159 249.295 53.7679 249.631C53.1908 249.929 52.247 250.876 51.6693 252.224C51.1146 253.518 51.014 254.903 51.6527 256.141L51.655 256.145L66.3057 284.001L92.3638 270.51L97.5847 267.808L102.913 265.049L107.93 262.452L114.181 259.216L114.181 259.216L114.181 259.216L114.182 259.215L114.182 259.215L114.182 259.215L114.183 259.215L114.184 259.214L114.184 259.214L114.185 259.214L114.186 259.213L114.187 259.213L114.188 259.212L114.189 259.211L114.19 259.211L114.192 259.21L114.193 259.209L114.194 259.209L114.196 259.208L114.198 259.207L114.199 259.206L114.201 259.205L114.203 259.204L114.205 259.203L114.207 259.202L114.209 259.201L114.211 259.2L114.213 259.199L114.216 259.198L114.218 259.196L114.221 259.195L114.223 259.194L114.226 259.192L114.229 259.191L114.232 259.189L114.234 259.188L114.237 259.186L114.241 259.185L114.244 259.183L114.247 259.182L114.25 259.18L114.254 259.178L114.257 259.176L114.261 259.174L114.264 259.173L114.268 259.171L114.272 259.169L114.275 259.167L114.279 259.165L114.283 259.163L114.287 259.161L114.292 259.158L114.296 259.156L114.3 259.154L114.304 259.152L114.309 259.149L114.313 259.147L114.318 259.145L114.323 259.142L114.327 259.14L114.332 259.137L114.337 259.135L114.342 259.132L114.347 259.13L114.352 259.127L114.358 259.124L114.363 259.122L114.368 259.119L114.374 259.116L114.379 259.113L114.385 259.11L114.39 259.107L114.396 259.104L114.402 259.101L114.408 259.098L114.414 259.095L114.42 259.092L114.426 259.089L114.432 259.086L114.438 259.083L114.444 259.079L114.451 259.076L114.457 259.073L114.464 259.069L114.47 259.066L114.477 259.063L114.483 259.059L114.49 259.056L114.497 259.052L114.504 259.048L114.511 259.045L114.518 259.041L114.525 259.037L114.532 259.034L114.54 259.03L114.547 259.026L114.554 259.022L114.562 259.018L114.569 259.015L114.577 259.011L114.585 259.007L114.592 259.003L114.6 258.999L114.608 258.994L114.616 258.99L114.624 258.986L114.632 258.982L114.64 258.978L114.649 258.974L114.657 258.969L114.665 258.965L114.674 258.961L114.682 258.956L114.691 258.952L114.699 258.947L114.708 258.943L114.717 258.938L114.726 258.934L114.735 258.929L114.743 258.924L114.752 258.92L114.762 258.915L114.771 258.91L114.78 258.906L114.789 258.901L114.799 258.896L114.808 258.891L114.817 258.886L114.827 258.881L114.837 258.876L114.846 258.871L114.856 258.866L114.866 258.861L114.876 258.856L114.885 258.851L114.895 258.846L114.905 258.841L114.916 258.835L114.926 258.83L114.936 258.825L114.946 258.82L114.957 258.814L114.967 258.809L114.977 258.803L114.988 258.798L114.998 258.792L115.009 258.787L115.02 258.781L115.031 258.776L115.041 258.77L115.052 258.765L115.063 258.759L115.074 258.753L115.085 258.747L115.096 258.742L115.108 258.736L115.119 258.73L115.13 258.724L115.142 258.718L115.153 258.712L115.164 258.707L115.176 258.701L115.188 258.695L115.199 258.689L115.211 258.682L115.223 258.676L115.235 258.67L115.246 258.664L115.258 258.658L115.27 258.652L115.282 258.645L115.294 258.639L115.307 258.633L115.319 258.627L115.331 258.62L115.343 258.614L115.356 258.607L115.368 258.601L115.381 258.595L115.393 258.588L115.406 258.581L115.419 258.575L115.431 258.568L115.444 258.562L115.457 258.555L115.47 258.548L115.483 258.542L115.496 258.535L115.509 258.528L115.522 258.521L115.535 258.515L115.548 258.508L115.562 258.501L115.575 258.494L115.588 258.487L115.602 258.48L115.615 258.473L115.629 258.466L115.642 258.459L115.656 258.452L115.67 258.445L115.683 258.438L115.697 258.431L115.711 258.424L115.725 258.416L115.739 258.409L115.753 258.402L115.767 258.395L115.781 258.387L115.795 258.38L115.809 258.373L115.823 258.365L115.838 258.358L115.852 258.351L115.866 258.343L115.881 258.336L115.895 258.328L115.91 258.321L115.924 258.313L115.939 258.306L115.954 258.298L115.968 258.29L115.983 258.283L115.998 258.275L116.013 258.267L116.028 258.26L116.043 258.252L116.058 258.244L116.073 258.236L116.088 258.228L116.103 258.221L116.118 258.213L116.134 258.205L116.149 258.197L116.164 258.189L116.18 258.181L116.195 258.173L116.21 258.165L116.226 258.157L116.242 258.149L116.257 258.141L116.273 258.133L116.289 258.125L116.304 258.116L116.32 258.108L116.336 258.1L116.352 258.092L116.368 258.084L116.384 258.075L116.4 258.067L116.416 258.059L116.432 258.05L116.448 258.042L116.464 258.034L116.48 258.025L116.497 258.017L116.513 258.008L116.529 258L116.546 257.991L116.562 257.983L116.579 257.974L116.595 257.966L116.612 257.957L116.628 257.949L116.645 257.94L116.662 257.931L116.678 257.923L116.695 257.914L116.712 257.905L116.729 257.897L116.746 257.888L116.763 257.879L116.78 257.87L116.797 257.861L116.814 257.853L116.831 257.844L116.848 257.835L116.865 257.826L116.882 257.817L116.9 257.808L116.917 257.799L116.934 257.79L116.952 257.781L116.969 257.772L116.986 257.763L117.004 257.754L117.021 257.745L117.039 257.736L117.057 257.727L117.074 257.718L117.092 257.709L117.11 257.7L117.127 257.69L117.145 257.681L117.163 257.672L117.181 257.663L117.199 257.653L117.217 257.644L117.235 257.635L117.252 257.626L117.271 257.616L117.289 257.607L117.307 257.597L117.325 257.588L117.343 257.579L117.361 257.569L117.379 257.56L117.398 257.55L117.416 257.541L117.434 257.531L117.453 257.522L117.471 257.512L117.49 257.503L117.508 257.493L117.526 257.484L117.545 257.474L117.564 257.464L117.582 257.455L117.601 257.445L117.619 257.436L117.638 257.426L117.657 257.416L117.676 257.406L117.694 257.397L117.713 257.387L117.732 257.377L117.751 257.367L117.77 257.358L117.789 257.348L117.808 257.338L117.827 257.328L117.846 257.318L117.865 257.308L117.884 257.299L117.903 257.289L117.922 257.279L117.942 257.269L117.961 257.259L117.98 257.249L117.999 257.239L118.019 257.229L118.038 257.219L118.057 257.209L118.077 257.199L118.096 257.189L118.116 257.179L118.135 257.169L118.154 257.159L118.174 257.148L118.194 257.138L118.213 257.128L118.233 257.118L118.252 257.108L118.272 257.098L118.292 257.088L118.311 257.077L118.331 257.067L118.351 257.057L118.371 257.047L118.391 257.036L118.41 257.026L118.43 257.016L118.45 257.006L118.47 256.995L118.49 256.985L118.51 256.975L118.53 256.964L118.55 256.954L118.57 256.943L118.59 256.933L118.61 256.923L118.63 256.912L118.65 256.902L118.671 256.891L118.691 256.881L118.711 256.87L118.731 256.86L118.751 256.85L118.772 256.839L118.792 256.829L118.812 256.818L118.833 256.807L118.853 256.797L118.873 256.786L118.894 256.776L118.914 256.765L118.935 256.755L118.955 256.744L118.976 256.733L118.996 256.723L119.017 256.712L119.037 256.702L119.058 256.691L119.078 256.68L119.099 256.67L119.12 256.659L119.14 256.648L119.161 256.638L119.182 256.627L119.202 256.616L119.223 256.605L119.244 256.595L119.265 256.584L119.285 256.573L119.306 256.562L119.327 256.552L119.348 256.541L119.369 256.53L119.39 256.519L119.41 256.508L119.431 256.498L119.452 256.487L119.473 256.476L119.494 256.465L119.515 256.454L119.536 256.443L119.557 256.432L119.578 256.422L119.599 256.411L119.62 256.4L119.641 256.389L119.662 256.378L119.683 256.367L119.705 256.356L119.726 256.345L119.747 256.334L119.768 256.323L119.789 256.312L119.81 256.301L119.832 256.29L119.853 256.279L119.874 256.268L119.895 256.257L119.916 256.246L119.938 256.235L119.959 256.224L119.98 256.213L120.002 256.202L120.023 256.191L120.044 256.18L120.066 256.169L120.087 256.158L120.108 256.147L120.13 256.136L120.151 256.125L120.173 256.114L120.194 256.103L120.215 256.092L120.237 256.081L120.258 256.069L120.28 256.058L120.301 256.047L120.323 256.036L120.344 256.025L120.366 256.014L120.387 256.003L120.409 255.992L120.43 255.98L120.452 255.969L120.473 255.958L120.495 255.947L120.516 255.936L120.538 255.925L120.56 255.913L120.581 255.902L120.603 255.891L120.624 255.88L120.646 255.869L120.668 255.858L120.689 255.846L120.711 255.835L120.732 255.824L120.754 255.813L120.776 255.802L120.797 255.79L120.819 255.779L120.841 255.768L120.862 255.757L120.884 255.745L120.906 255.734L120.928 255.723L120.949 255.712L120.971 255.7L120.993 255.689L121.014 255.678L121.036 255.667L121.058 255.656L121.08 255.644L121.101 255.633L121.123 255.622L121.145 255.61L121.167 255.599L121.188 255.588L121.21 255.577L121.232 255.565L121.254 255.554L121.275 255.543L121.297 255.532L121.319 255.52L121.341 255.509L121.362 255.498L121.384 255.487L121.406 255.475L121.428 255.464L121.45 255.453L121.471 255.441L121.493 255.43L121.515 255.419L121.537 255.408L121.559 255.396L121.58 255.385L121.599 255.376L121.602 255.374L150.586 240.185L136.354 212.42L136.353 212.418C135.098 209.992 135.402 207.501 136.248 205.56C137.071 203.674 138.502 202.073 139.918 201.34C141.448 200.548 142.914 200.522 144.262 200.781C145.193 200.961 146.182 201.309 147.063 201.62C147.345 201.72 147.615 201.815 147.87 201.9C149.012 202.281 150.113 202.567 151.318 202.572C152.501 202.578 153.874 202.312 155.529 201.455C158.729 199.799 160.344 197.152 160.816 194.141C161.297 191.069 160.583 187.572 158.963 184.444C157.344 181.317 154.901 178.715 152.115 177.334C149.384 175.981 146.29 175.773 143.09 177.429C139.943 179.058 139.023 181.191 138.342 183.414C138.264 183.667 138.186 183.938 138.105 184.219L138.104 184.22C137.842 185.128 137.548 186.145 137.148 187.018C136.574 188.269 135.702 189.452 134.173 190.243C132.757 190.976 130.623 191.221 128.608 190.803C126.534 190.373 124.324 189.183 123.068 186.757L108.329 158.287L79.2743 173.329L79.2669 173.315Z" fill="url(#paint0_linear_151_10353)"/>
</g>
<g clip-path="url(#clip2_151_10353)">
<mask id="mask1_151_10353" style="mask-type:luminance" maskUnits="userSpaceOnUse" x="188" y="63" width="108" height="139">
<path d="M190.582 65.8696L191.722 200.27L293.982 199.403L292.842 65.0024L190.582 65.8696Z" fill="white" stroke="white" stroke-width="3.38805" stroke-miterlimit="10"/>
</mask>
<g mask="url(#mask1_151_10353)">
<path d="M193.462 198.013L227.602 198.013C231.909 197.977 236.707 198.021 236.707 198.021L239.741 198.021L243.535 198.021L250.362 198.021C250.362 198.021 253.492 198.057 257.685 198.021L292.253 197.728L291.961 163.367C291.925 159.086 287.598 156.757 285.331 156.776C280.345 156.818 280.068 164.257 271.567 164.329C254.794 164.471 254.53 133.378 271.304 133.235C279.691 133.164 280.207 140.596 285.194 140.554C287.461 140.534 291.746 138.019 291.711 133.851L291.42 99.4903L256.965 99.7825C252.659 99.819 250.242 95.5582 250.223 93.3051C250.181 88.3482 257.658 87.9468 257.587 79.4974C257.445 62.8242 226.164 63.0895 226.306 79.7627C226.377 88.0994 233.861 88.4866 233.903 93.4435C233.922 95.6966 231.578 99.9978 227.271 100.034L192.59 100.328L192.88 134.576C192.917 138.857 197.244 141.187 199.51 141.167C204.384 141.126 204.774 133.687 213.161 133.616C229.935 133.473 230.199 164.567 213.425 164.709C205.038 164.78 204.521 157.349 199.648 157.39C197.381 157.409 193.095 159.924 193.131 164.093L193.462 198.013Z" fill="#77A2B2" stroke="#DDDDDD" stroke-width="0.758671" stroke-miterlimit="10"/>
</g>
</g>
<g clip-path="url(#clip3_151_10353)">
<mask id="mask2_151_10353" style="mask-type:luminance" maskUnits="userSpaceOnUse" x="191" y="0" width="136" height="102">
<path d="M326.229 0L191.185 0V101.662L326.229 101.662V0Z" fill="white"/>
</mask>
<g mask="url(#mask2_151_10353)">
<path d="M192.883 1.70532V36.0708C192.883 40.3524 197.185 42.7185 199.448 42.7185C204.429 42.7185 204.769 35.282 213.145 35.282C229.898 35.282 229.898 66.38 213.145 66.38C204.769 66.38 204.316 58.9435 199.448 58.9435C197.185 58.9435 192.883 61.4223 192.883 65.5912V99.9568H227.408C231.709 99.9568 234.087 95.6751 234.087 93.4217C234.087 88.464 226.616 88.1261 226.616 79.6755C226.616 62.9998 257.858 62.9998 257.858 79.6755C257.858 88.0133 250.387 88.464 250.387 93.4217C250.387 95.6751 252.877 99.9568 257.065 99.9568H291.59V65.704C291.59 61.4223 295.892 59.0562 298.156 59.0562C303.136 59.0562 303.476 66.4927 311.966 66.4927C328.719 66.4927 328.719 35.3948 311.966 35.3948C303.589 35.3948 303.136 42.8313 298.156 42.8313C295.892 42.8313 291.59 40.4651 291.59 36.1835V1.70532L257.179 1.70532C252.877 1.70532 248.844 1.70532 248.844 1.70532L244.292 1.70532L238.981 1.70532L234.429 1.70532C234.429 1.70532 231.709 1.70532 227.521 1.70532L192.883 1.70532Z" fill="#598EA1" stroke="#DDDDDD" stroke-width="0.758671" stroke-miterlimit="10"/>
</g>
</g>
<defs>
<linearGradient id="paint0_linear_151_10353" x1="64.1705" y1="291.478" x2="134.747" y2="141.027" gradientUnits="userSpaceOnUse">
<stop stop-color="#C6192E"/>
<stop offset="0.1" stop-color="#C6192E"/>
<stop offset="0.9" stop-color="#348097"/>
<stop offset="1" stop-color="#348097"/>
</linearGradient>
<clipPath id="clip0_151_10353">
<rect width="135.043" height="101.662" fill="white" transform="translate(92.5579)"/>
</clipPath>
<clipPath id="clip1_151_10353">
<rect width="135.043" height="141.113" fill="white" transform="translate(0 163.748) rotate(-27.3707)"/>
</clipPath>
<clipPath id="clip2_151_10353">
<rect width="134.406" height="102.264" fill="white" transform="translate(191.721 200.27) rotate(-90.4858)"/>
</clipPath>
<clipPath id="clip3_151_10353">
<rect width="135.043" height="101.662" fill="white" transform="translate(191.185)"/>
</clipPath>
</defs>
</svg>
