<svg width="327" height="278" viewBox="0 0 327 278" fill="none" xmlns="http://www.w3.org/2000/svg">
<mask id="mask0_151_10214" style="mask-type:luminance" maskUnits="userSpaceOnUse" x="92" y="0" width="136" height="98">
<path d="M227.602 0.260071H92.5581V97.8908H227.602V0.260071Z" fill="white"/>
</mask>
<g mask="url(#mask0_151_10214)">
<path d="M94.2559 1.89773V34.9005C94.2559 39.0123 98.5573 41.2846 100.821 41.2846C105.802 41.2846 106.141 34.143 114.518 34.143C131.271 34.143 131.271 64.0078 114.518 64.0078C106.141 64.0078 105.689 56.8662 100.821 56.8662C98.5573 56.8662 94.2559 59.2468 94.2559 63.2504V96.2532H128.781C133.082 96.2532 135.459 92.1413 135.459 89.9773C135.459 85.2161 127.988 84.8916 127.988 76.7762C127.988 60.7617 159.231 60.7617 159.231 76.7762C159.231 84.7833 151.76 85.2161 151.76 89.9773C151.76 92.1413 154.25 96.2532 158.438 96.2532H192.963V63.3586C192.963 59.2468 197.265 56.9745 199.529 56.9745C204.509 56.9745 204.849 64.1161 213.339 64.1161C230.092 64.1161 230.092 34.2513 213.339 34.2513C204.962 34.2513 204.509 41.3929 199.529 41.3929C197.265 41.3929 192.963 39.1206 192.963 35.0087V1.89773H158.551C154.25 1.89773 140.354 1.89773 140.354 1.89773L139.131 1.89768L137.817 1.89758C137.029 1.89773 136.064 1.89768 136.064 1.89768C136.064 1.89768 133.082 1.89773 128.894 1.89773H94.2559Z" fill="#3C7A91" stroke="#999999" stroke-width="0.758671" stroke-miterlimit="10"/>
</g>
<g clip-path="url(#clip0_151_10214)">
<path fill-rule="evenodd" clip-rule="evenodd" d="M40.5092 162.328C42.7856 166.551 46.1207 167.773 48.8877 168.493C49.2941 168.599 49.6661 168.69 50.0114 168.774C50.8866 168.988 51.5897 169.16 52.2466 169.425C53.054 169.751 53.5488 170.135 53.8786 170.747C54.1002 171.158 54.2504 172.306 53.7449 173.734C53.2692 175.078 52.2998 176.387 50.744 177.161L50.7514 177.174L20.5938 192.168L19.0769 192.922L19.8808 194.413L35.3475 223.104C36.6211 225.467 38.8559 226.615 40.9313 227.028C42.9507 227.43 45.0813 227.193 46.4906 226.493C48.0134 225.736 48.881 224.604 49.4477 223.398C49.8422 222.559 50.1275 221.58 50.3807 220.712L50.3812 220.71C50.4593 220.443 50.5342 220.186 50.6084 219.946C50.9507 218.842 51.3436 217.828 52.0208 216.889C52.6858 215.967 53.677 215.047 55.3071 214.237C58.5172 212.641 61.6115 212.847 64.3287 214.14C67.1009 215.46 69.5315 217.945 71.1426 220.934C72.7538 223.922 73.4641 227.263 72.9855 230.199C72.5164 233.076 70.9056 235.622 67.6955 237.218C64.5398 238.787 62.2654 238.322 60.0841 237.623C59.8268 237.54 59.5524 237.447 59.2668 237.351L59.2655 237.35C58.3883 237.053 57.4054 236.72 56.4863 236.546C55.1471 236.293 53.6915 236.307 52.1852 237.056C50.7589 237.765 49.3455 239.337 48.5357 241.151C47.7051 243.012 47.3814 245.427 48.6337 247.75L48.6391 247.76L64.0782 275.952L64.8868 277.428L66.3936 276.679L93.9464 262.98L99.1673 260.384L104.495 257.735L109.513 255.241L115.763 252.133L115.764 252.133L115.764 252.133L115.764 252.133L115.765 252.133L115.765 252.132L115.766 252.132L115.766 252.132L115.767 252.132L115.768 252.131L115.769 252.131L115.77 252.13L115.771 252.13L115.772 252.129L115.773 252.129L115.774 252.128L115.776 252.127L115.777 252.126L115.779 252.126L115.78 252.125L115.782 252.124L115.784 252.123L115.786 252.122L115.788 252.121L115.79 252.12L115.792 252.119L115.794 252.118L115.796 252.117L115.798 252.116L115.801 252.115L115.803 252.113L115.806 252.112L115.809 252.111L115.811 252.109L115.814 252.108L115.817 252.107L115.82 252.105L115.823 252.104L115.826 252.102L115.83 252.1L115.833 252.099L115.836 252.097L115.84 252.095L115.843 252.094L115.847 252.092L115.85 252.09L115.854 252.088L115.858 252.086L115.862 252.084L115.866 252.082L115.87 252.08L115.874 252.078L115.878 252.076L115.883 252.074L115.887 252.072L115.892 252.07L115.896 252.067L115.901 252.065L115.905 252.063L115.91 252.06L115.915 252.058L115.92 252.056L115.925 252.053L115.93 252.051L115.935 252.048L115.94 252.045L115.945 252.043L115.951 252.04L115.956 252.037L115.962 252.035L115.967 252.032L115.973 252.029L115.979 252.026L115.984 252.023L115.99 252.021L115.996 252.018L116.002 252.015L116.008 252.012L116.014 252.009L116.021 252.005L116.027 252.002L116.033 251.999L116.04 251.996L116.046 251.993L116.053 251.989L116.059 251.986L116.066 251.983L116.073 251.979L116.08 251.976L116.087 251.973L116.094 251.969L116.101 251.966L116.108 251.962L116.115 251.958L116.122 251.955L116.13 251.951L116.137 251.948L116.145 251.944L116.152 251.94L116.16 251.936L116.167 251.932L116.175 251.929L116.183 251.925L116.191 251.921L116.199 251.917L116.207 251.913L116.215 251.909L116.223 251.905L116.231 251.901L116.24 251.897L116.248 251.892L116.256 251.888L116.265 251.884L116.273 251.88L116.282 251.875L116.291 251.871L116.299 251.867L116.308 251.862L116.317 251.858L116.326 251.854L116.335 251.849L116.344 251.845L116.353 251.84L116.363 251.835L116.372 251.831L116.381 251.826L116.391 251.821L116.4 251.817L116.41 251.812L116.419 251.807L116.429 251.802L116.439 251.798L116.448 251.793L116.458 251.788L116.468 251.783L116.478 251.778L116.488 251.773L116.498 251.768L116.508 251.763L116.519 251.758L116.529 251.753L116.539 251.748L116.55 251.742L116.56 251.737L116.571 251.732L116.581 251.727L116.592 251.721L116.602 251.716L116.613 251.711L116.624 251.705L116.635 251.7L116.646 251.695L116.657 251.689L116.668 251.684L116.679 251.678L116.69 251.672L116.702 251.667L116.713 251.661L116.724 251.656L116.736 251.65L116.747 251.644L116.759 251.639L116.77 251.633L116.782 251.627L116.794 251.621L116.805 251.615L116.817 251.609L116.829 251.603L116.841 251.598L116.853 251.592L116.865 251.586L116.877 251.58L116.889 251.574L116.902 251.567L116.914 251.561L116.926 251.555L116.939 251.549L116.951 251.543L116.963 251.537L116.976 251.53L116.989 251.524L117.001 251.518L117.014 251.512L117.027 251.505L117.04 251.499L117.052 251.492L117.065 251.486L117.078 251.479L117.091 251.473L117.105 251.466L117.118 251.46L117.131 251.453L117.144 251.447L117.157 251.44L117.171 251.434L117.184 251.427L117.198 251.42L117.211 251.413L117.225 251.407L117.238 251.4L117.252 251.393L117.266 251.386L117.28 251.379L117.293 251.373L117.307 251.366L117.321 251.359L117.335 251.352L117.349 251.345L117.363 251.338L117.378 251.331L117.392 251.324L117.406 251.317L117.42 251.31L117.435 251.302L117.449 251.295L117.463 251.288L117.478 251.281L117.492 251.274L117.507 251.266L117.522 251.259L117.536 251.252L117.551 251.245L117.566 251.237L117.581 251.23L117.596 251.222L117.61 251.215L117.625 251.208L117.64 251.2L117.655 251.193L117.671 251.185L117.686 251.178L117.701 251.17L117.716 251.162L117.731 251.155L117.747 251.147L117.762 251.14L117.778 251.132L117.793 251.124L117.809 251.116L117.824 251.109L117.84 251.101L117.855 251.093L117.871 251.085L117.887 251.078L117.903 251.07L117.919 251.062L117.934 251.054L117.95 251.046L117.966 251.038L117.982 251.03L117.998 251.022L118.015 251.014L118.031 251.006L118.047 250.998L118.063 250.99L118.079 250.982L118.096 250.974L118.112 250.966L118.128 250.957L118.145 250.949L118.161 250.941L118.178 250.933L118.194 250.925L118.211 250.916L118.228 250.908L118.244 250.9L118.261 250.891L118.278 250.883L118.295 250.875L118.312 250.866L118.328 250.858L118.345 250.85L118.362 250.841L118.379 250.833L118.396 250.824L118.414 250.816L118.431 250.807L118.448 250.799L118.465 250.79L118.482 250.782L118.5 250.773L118.517 250.764L118.534 250.756L118.552 250.747L118.569 250.738L118.587 250.73L118.604 250.721L118.622 250.712L118.639 250.704L118.657 250.695L118.675 250.686L118.692 250.677L118.71 250.668L118.728 250.66L118.746 250.651L118.763 250.642L118.781 250.633L118.799 250.624L118.817 250.615L118.835 250.606L118.853 250.597L118.871 250.588L118.889 250.579L118.907 250.57L118.926 250.561L118.944 250.552L118.962 250.543L118.98 250.534L118.999 250.525L119.017 250.516L119.035 250.507L119.054 250.497L119.072 250.488L119.091 250.479L119.109 250.47L119.128 250.461L119.146 250.451L119.165 250.442L119.183 250.433L119.202 250.424L119.221 250.414L119.24 250.405L119.258 250.396L119.277 250.386L119.296 250.377L119.315 250.368L119.334 250.358L119.353 250.349L119.372 250.339L119.39 250.33L119.409 250.321L119.429 250.311L119.448 250.302L119.467 250.292L119.486 250.283L119.505 250.273L119.524 250.264L119.543 250.254L119.563 250.244L119.582 250.235L119.601 250.225L119.621 250.216L119.64 250.206L119.659 250.196L119.679 250.187L119.698 250.177L119.718 250.167L119.737 250.158L119.757 250.148L119.776 250.138L119.796 250.128L119.815 250.119L119.835 250.109L119.855 250.099L119.874 250.089L119.894 250.08L119.914 250.07L119.934 250.06L119.953 250.05L119.973 250.04L119.993 250.03L120.013 250.021L120.033 250.011L120.053 250.001L120.073 249.991L120.093 249.981L120.113 249.971L120.133 249.961L120.153 249.951L120.173 249.941L120.193 249.931L120.213 249.921L120.233 249.911L120.253 249.901L120.273 249.891L120.294 249.881L120.314 249.871L120.334 249.861L120.354 249.851L120.375 249.841L120.395 249.831L120.415 249.82L120.436 249.81L120.456 249.8L120.476 249.79L120.497 249.78L120.517 249.77L120.538 249.76L120.558 249.749L120.579 249.739L120.599 249.729L120.62 249.719L120.64 249.709L120.661 249.698L120.682 249.688L120.702 249.678L120.723 249.668L120.744 249.657L120.764 249.647L120.785 249.637L120.806 249.626L120.826 249.616L120.847 249.606L120.868 249.595L120.889 249.585L120.91 249.575L120.93 249.564L120.951 249.554L120.972 249.544L120.993 249.533L121.014 249.523L121.035 249.512L121.056 249.502L121.077 249.492L121.098 249.481L121.119 249.471L121.14 249.46L121.161 249.45L121.182 249.439L121.203 249.429L121.224 249.418L121.245 249.408L121.266 249.398L121.287 249.387L121.308 249.377L121.329 249.366L121.351 249.355L121.372 249.345L121.393 249.334L121.414 249.324L121.435 249.313L121.457 249.303L121.478 249.292L121.499 249.282L121.52 249.271L121.542 249.26L121.563 249.25L121.584 249.239L121.606 249.229L121.627 249.218L121.648 249.207L121.67 249.197L121.691 249.186L121.712 249.176L121.734 249.165L121.755 249.154L121.777 249.144L121.798 249.133L121.819 249.122L121.841 249.112L121.862 249.101L121.884 249.09L121.905 249.08L121.927 249.069L121.948 249.058L121.97 249.048L121.991 249.037L122.013 249.026L122.034 249.016L122.056 249.005L122.077 248.994L122.099 248.983L122.121 248.973L122.142 248.962L122.164 248.951L122.185 248.94L122.207 248.93L122.229 248.919L122.25 248.908L122.272 248.897L122.293 248.887L122.315 248.876L122.337 248.865L122.358 248.854L122.38 248.844L122.402 248.833L122.423 248.822L122.445 248.811L122.467 248.801L122.488 248.79L122.51 248.779L122.532 248.768L122.554 248.757L122.575 248.747L122.597 248.736L122.619 248.725L122.64 248.714L122.662 248.703L122.684 248.693L122.706 248.682L122.727 248.671L122.749 248.66L122.771 248.649L122.793 248.639L122.814 248.628L122.836 248.617L122.858 248.606L122.88 248.595L122.902 248.584L122.923 248.574L122.945 248.563L122.967 248.552L122.989 248.541L123.01 248.53L123.032 248.519L123.054 248.509L123.076 248.498L123.098 248.487L123.119 248.476L123.141 248.465L123.163 248.454L123.185 248.444L123.192 248.44L153.671 233.101L155.17 232.347L154.38 230.866L139.379 202.762L139.375 202.755C138.722 201.543 138.822 200.234 139.374 199.019C139.948 197.754 140.9 196.851 141.501 196.552C142.189 196.21 142.841 196.169 143.652 196.319C144.314 196.441 144.948 196.656 145.745 196.925C146.073 197.036 146.429 197.157 146.825 197.284C148.093 197.69 149.596 198.09 151.335 198.098C153.093 198.106 155.001 197.713 157.112 196.663C161.34 194.561 163.559 191.087 164.185 187.247C164.802 183.465 163.873 179.391 161.985 175.889C160.097 172.387 157.169 169.306 153.597 167.607C149.971 165.881 145.736 165.615 141.508 167.718C137.225 169.847 135.896 172.849 135.082 175.401C134.963 175.774 134.86 176.114 134.765 176.428C134.526 177.224 134.334 177.858 134.048 178.457C133.699 179.188 133.281 179.681 132.591 180.024C131.99 180.323 130.673 180.548 129.265 180.268C127.914 179.999 126.743 179.321 126.089 178.109L110.572 149.324L109.768 147.833L108.251 148.587L77.7009 163.776L77.6936 163.762C76.2017 164.504 75.0858 164.31 74.2295 163.858C73.2746 163.355 72.5191 162.449 72.1068 161.685C71.778 161.075 71.7393 160.474 71.9301 159.663C72.0847 159.007 72.3422 158.372 72.6635 157.579L72.6635 157.579L72.6636 157.579C72.7954 157.254 72.9379 156.902 73.0884 156.512C73.57 155.263 74.0563 153.775 74.1137 152.057C74.172 150.311 73.7858 148.418 72.6657 146.34C70.4139 142.163 66.5822 140.092 62.4057 139.591C58.2904 139.097 53.8232 140.11 49.9559 142.033C46.0886 143.955 42.6485 146.873 40.6929 150.386C38.7082 153.95 38.2573 158.151 40.5092 162.328ZM79.2919 166.749C76.7777 167.996 74.4683 167.755 72.6381 166.79C70.9041 165.875 69.7108 164.376 69.073 163.193C68.2468 161.66 68.2701 160.185 68.5827 158.858C68.799 157.94 69.1957 156.962 69.5506 156.088C69.6641 155.808 69.7734 155.539 69.8711 155.286C70.3102 154.147 70.6428 153.059 70.682 151.885C70.7203 150.739 70.4807 149.423 69.632 147.849C67.9987 144.819 65.2762 143.295 62.0496 142.908C58.7619 142.513 54.977 143.318 51.5636 145.015C48.1502 146.712 45.281 149.215 43.7186 152.021C42.1853 154.775 41.9097 157.79 43.5429 160.82C45.1517 163.804 47.3462 164.649 49.7152 165.265C49.9834 165.335 50.2702 165.405 50.5678 165.478C51.5254 165.711 52.5943 165.972 53.51 166.341C54.8188 166.87 56.0872 167.708 56.9124 169.239C57.7407 170.776 57.6716 172.96 56.9933 174.877C56.3439 176.711 55.0461 178.583 52.9433 179.822L52.9619 179.857L23.7184 194.396L38.3813 221.596C39.0347 222.808 40.2058 223.485 41.5572 223.754C42.9646 224.034 44.2817 223.809 44.8829 223.51C45.5717 223.168 45.9821 222.681 46.3208 221.96C46.5993 221.367 46.7827 220.74 47.0135 219.95L47.0136 219.95C47.1052 219.637 47.2043 219.298 47.3198 218.925C47.6989 217.702 48.2158 216.296 49.1981 214.934C50.1924 213.555 51.6101 212.293 53.6994 211.255C57.9281 209.152 62.1624 209.417 65.7889 211.143C69.3604 212.843 72.2885 215.923 74.1764 219.425C76.0643 222.928 76.9933 227.002 76.3768 230.784C75.7507 234.624 73.532 238.098 69.3032 240.2C65.0202 242.329 61.7007 241.639 59.0671 240.795C58.6637 240.666 58.3023 240.544 57.9692 240.431C57.1798 240.164 56.5493 239.95 55.8938 239.826C55.0818 239.673 54.4479 239.713 53.7929 240.039C53.2087 240.329 52.2647 241.242 51.6889 242.532C51.1346 243.774 51.0438 245.081 51.6651 246.238L51.6675 246.242L66.2928 272.947L92.3387 259.998L97.5596 257.402L102.888 254.753L107.905 252.259L114.156 249.151L114.156 249.151L114.156 249.151L114.156 249.151L114.157 249.15L114.157 249.15L114.158 249.15L114.158 249.15L114.159 249.149L114.16 249.149L114.161 249.148L114.162 249.148L114.163 249.147L114.164 249.147L114.165 249.146L114.167 249.146L114.168 249.145L114.169 249.144L114.171 249.143L114.173 249.143L114.174 249.142L114.176 249.141L114.178 249.14L114.18 249.139L114.182 249.138L114.184 249.137L114.186 249.136L114.188 249.135L114.191 249.134L114.193 249.132L114.196 249.131L114.198 249.13L114.201 249.128L114.204 249.127L114.207 249.126L114.209 249.124L114.212 249.123L114.215 249.121L114.219 249.12L114.222 249.118L114.225 249.116L114.228 249.115L114.232 249.113L114.235 249.111L114.239 249.11L114.243 249.108L114.247 249.106L114.25 249.104L114.254 249.102L114.258 249.1L114.262 249.098L114.266 249.096L114.271 249.094L114.275 249.092L114.279 249.089L114.284 249.087L114.288 249.085L114.293 249.083L114.298 249.08L114.302 249.078L114.307 249.076L114.312 249.073L114.317 249.071L114.322 249.068L114.327 249.066L114.332 249.063L114.338 249.06L114.343 249.058L114.348 249.055L114.354 249.052L114.36 249.05L114.365 249.047L114.371 249.044L114.377 249.041L114.383 249.038L114.388 249.035L114.394 249.032L114.401 249.029L114.407 249.026L114.413 249.023L114.419 249.02L114.426 249.017L114.432 249.014L114.438 249.01L114.445 249.007L114.452 249.004L114.458 249L114.465 248.997L114.472 248.994L114.479 248.99L114.486 248.987L114.493 248.983L114.5 248.98L114.507 248.976L114.515 248.973L114.522 248.969L114.529 248.965L114.537 248.961L114.544 248.958L114.552 248.954L114.56 248.95L114.567 248.946L114.575 248.942L114.583 248.938L114.591 248.935L114.599 248.931L114.607 248.927L114.615 248.922L114.624 248.918L114.632 248.914L114.64 248.91L114.649 248.906L114.657 248.902L114.666 248.897L114.674 248.893L114.683 248.889L114.692 248.884L114.701 248.88L114.709 248.876L114.718 248.871L114.727 248.867L114.737 248.862L114.746 248.858L114.755 248.853L114.764 248.848L114.773 248.844L114.783 248.839L114.792 248.834L114.802 248.83L114.811 248.825L114.821 248.82L114.831 248.815L114.841 248.81L114.85 248.806L114.86 248.801L114.87 248.796L114.88 248.791L114.89 248.786L114.901 248.781L114.911 248.776L114.921 248.77L114.931 248.765L114.942 248.76L114.952 248.755L114.963 248.75L114.973 248.744L114.984 248.739L114.995 248.734L115.006 248.728L115.016 248.723L115.027 248.718L115.038 248.712L115.049 248.707L115.06 248.701L115.071 248.696L115.083 248.69L115.094 248.685L115.105 248.679L115.116 248.673L115.128 248.668L115.139 248.662L115.151 248.656L115.162 248.65L115.174 248.645L115.186 248.639L115.198 248.633L115.209 248.627L115.221 248.621L115.233 248.615L115.245 248.609L115.257 248.603L115.269 248.597L115.282 248.591L115.294 248.585L115.306 248.579L115.318 248.573L115.331 248.567L115.343 248.561L115.356 248.554L115.368 248.548L115.381 248.542L115.394 248.536L115.406 248.529L115.419 248.523L115.432 248.516L115.445 248.51L115.458 248.504L115.471 248.497L115.484 248.491L115.497 248.484L115.51 248.478L115.523 248.471L115.536 248.464L115.55 248.458L115.563 248.451L115.577 248.445L115.59 248.438L115.604 248.431L115.617 248.424L115.631 248.418L115.644 248.411L115.658 248.404L115.672 248.397L115.686 248.39L115.7 248.383L115.714 248.376L115.728 248.369L115.742 248.362L115.756 248.355L115.77 248.348L115.784 248.341L115.798 248.334L115.813 248.327L115.827 248.32L115.841 248.313L115.856 248.306L115.87 248.299L115.885 248.291L115.899 248.284L115.914 248.277L115.929 248.27L115.943 248.262L115.958 248.255L115.973 248.247L115.988 248.24L116.003 248.233L116.018 248.225L116.033 248.218L116.048 248.21L116.063 248.203L116.078 248.195L116.093 248.188L116.108 248.18L116.124 248.173L116.139 248.165L116.155 248.157L116.17 248.15L116.185 248.142L116.201 248.134L116.217 248.126L116.232 248.119L116.248 248.111L116.263 248.103L116.279 248.095L116.295 248.087L116.311 248.079L116.327 248.072L116.343 248.064L116.359 248.056L116.375 248.048L116.391 248.04L116.407 248.032L116.423 248.024L116.439 248.016L116.455 248.008L116.472 248L116.488 247.991L116.504 247.983L116.521 247.975L116.537 247.967L116.554 247.959L116.57 247.951L116.587 247.942L116.603 247.934L116.62 247.926L116.637 247.917L116.653 247.909L116.67 247.901L116.687 247.892L116.704 247.884L116.721 247.876L116.738 247.867L116.755 247.859L116.772 247.85L116.789 247.842L116.806 247.833L116.823 247.825L116.84 247.816L116.857 247.808L116.875 247.799L116.892 247.791L116.909 247.782L116.927 247.773L116.944 247.765L116.961 247.756L116.979 247.747L116.996 247.739L117.014 247.73L117.032 247.721L117.049 247.712L117.067 247.704L117.085 247.695L117.102 247.686L117.12 247.677L117.138 247.668L117.156 247.659L117.174 247.651L117.191 247.642L117.209 247.633L117.227 247.624L117.245 247.615L117.264 247.606L117.282 247.597L117.3 247.588L117.318 247.579L117.336 247.57L117.354 247.561L117.373 247.552L117.391 247.543L117.409 247.533L117.428 247.524L117.446 247.515L117.464 247.506L117.483 247.497L117.501 247.488L117.52 247.478L117.539 247.469L117.557 247.46L117.576 247.451L117.594 247.441L117.613 247.432L117.632 247.423L117.651 247.413L117.669 247.404L117.688 247.395L117.707 247.385L117.726 247.376L117.745 247.367L117.764 247.357L117.783 247.348L117.802 247.338L117.821 247.329L117.84 247.319L117.859 247.31L117.878 247.3L117.897 247.291L117.916 247.281L117.936 247.272L117.955 247.262L117.974 247.253L117.994 247.243L118.013 247.233L118.032 247.224L118.052 247.214L118.071 247.204L118.09 247.195L118.11 247.185L118.129 247.175L118.149 247.166L118.168 247.156L118.188 247.146L118.208 247.136L118.227 247.127L118.247 247.117L118.267 247.107L118.286 247.097L118.306 247.088L118.326 247.078L118.346 247.068L118.365 247.058L118.385 247.048L118.405 247.038L118.425 247.028L118.445 247.018L118.465 247.009L118.485 246.999L118.505 246.989L118.525 246.979L118.545 246.969L118.565 246.959L118.585 246.949L118.605 246.939L118.625 246.929L118.646 246.919L118.666 246.909L118.686 246.899L118.706 246.889L118.726 246.879L118.747 246.868L118.767 246.858L118.787 246.848L118.808 246.838L118.828 246.828L118.848 246.818L118.869 246.808L118.889 246.798L118.91 246.787L118.93 246.777L118.951 246.767L118.971 246.757L118.992 246.747L119.012 246.736L119.033 246.726L119.053 246.716L119.074 246.706L119.095 246.696L119.115 246.685L119.136 246.675L119.157 246.665L119.177 246.654L119.198 246.644L119.219 246.634L119.239 246.623L119.26 246.613L119.281 246.603L119.302 246.592L119.323 246.582L119.344 246.572L119.364 246.561L119.385 246.551L119.406 246.541L119.427 246.53L119.448 246.52L119.469 246.509L119.49 246.499L119.511 246.488L119.532 246.478L119.553 246.468L119.574 246.457L119.595 246.447L119.616 246.436L119.637 246.426L119.658 246.415L119.679 246.405L119.701 246.394L119.722 246.384L119.743 246.373L119.764 246.363L119.785 246.352L119.806 246.342L119.828 246.331L119.849 246.32L119.87 246.31L119.891 246.299L119.913 246.289L119.934 246.278L119.955 246.268L119.977 246.257L119.998 246.246L120.019 246.236L120.041 246.225L120.062 246.215L120.083 246.204L120.105 246.193L120.126 246.183L120.147 246.172L120.169 246.161L120.19 246.151L120.212 246.14L120.233 246.129L120.255 246.119L120.276 246.108L120.298 246.097L120.319 246.087L120.341 246.076L120.362 246.065L120.384 246.055L120.405 246.044L120.427 246.033L120.448 246.023L120.47 246.012L120.491 246.001L120.513 245.99L120.534 245.98L120.556 245.969L120.578 245.958L120.599 245.947L120.621 245.937L120.642 245.926L120.664 245.915L120.686 245.904L120.707 245.894L120.729 245.883L120.751 245.872L120.772 245.861L120.794 245.851L120.816 245.84L120.837 245.829L120.859 245.818L120.881 245.807L120.902 245.797L120.924 245.786L120.946 245.775L120.968 245.764L120.989 245.753L121.011 245.743L121.033 245.732L121.054 245.721L121.076 245.71L121.098 245.699L121.12 245.689L121.141 245.678L121.163 245.667L121.185 245.656L121.207 245.645L121.229 245.635L121.25 245.624L121.272 245.613L121.294 245.602L121.316 245.591L121.337 245.58L121.359 245.57L121.381 245.559L121.403 245.548L121.424 245.537L121.446 245.526L121.468 245.515L121.49 245.505L121.512 245.494L121.533 245.483L121.555 245.472L121.574 245.463L121.577 245.461L150.549 230.881L136.342 204.264L136.34 204.261C135.068 201.899 135.382 199.485 136.229 197.62C137.053 195.805 138.484 194.27 139.893 193.57C141.416 192.813 142.879 192.786 144.231 193.036C145.164 193.209 146.156 193.545 147.038 193.843L147.039 193.844C147.32 193.939 147.589 194.03 147.842 194.111C148.982 194.476 150.081 194.75 151.285 194.756C152.469 194.761 153.845 194.506 155.504 193.681C158.714 192.085 160.325 189.539 160.794 186.662C161.272 183.727 160.562 180.386 158.951 177.397C157.34 174.409 154.909 171.923 152.137 170.604C149.42 169.311 146.326 169.104 143.115 170.7C139.96 172.269 139.041 174.321 138.362 176.448C138.285 176.69 138.207 176.95 138.126 177.22L138.126 177.22C137.863 178.093 137.568 179.072 137.167 179.912C136.592 181.117 135.72 182.25 134.198 183.006C132.789 183.707 130.659 183.943 128.639 183.541C126.564 183.128 124.329 181.98 123.055 179.618L108.342 152.324L79.2993 166.763L79.2919 166.749Z" fill="url(#paint0_linear_151_10214)"/>
</g>
<g clip-path="url(#clip1_151_10214)">
<mask id="mask1_151_10214" style="mask-type:luminance" maskUnits="userSpaceOnUse" x="188" y="60" width="108" height="135">
<path d="M190.581 63.5182L191.721 192.589L293.981 191.757L292.842 62.6854L190.581 63.5182Z" fill="white" stroke="white" stroke-width="3.38805" stroke-miterlimit="10"/>
</mask>
<g mask="url(#mask1_151_10214)">
<path d="M193.461 190.422L227.601 190.422C231.908 190.387 236.706 190.429 236.706 190.429L239.74 190.429L243.534 190.429L250.361 190.429C250.361 190.429 253.491 190.463 257.684 190.429L292.252 190.148L291.961 157.15C291.924 153.038 287.597 150.801 285.331 150.82C280.344 150.861 280.067 158.004 271.567 158.073C254.793 158.21 254.529 128.349 271.303 128.213C279.69 128.144 280.206 135.281 285.193 135.241C287.46 135.222 291.746 132.807 291.71 128.804L291.419 95.8057L256.965 96.0862C252.658 96.1213 250.241 92.0294 250.222 89.8657C250.18 85.1053 257.658 84.7198 257.586 76.6055C257.445 60.5935 226.164 60.8482 226.305 76.8603C226.376 84.8664 233.86 85.2382 233.902 89.9986C233.921 92.1623 231.577 96.293 227.27 96.3281L192.589 96.6105L192.88 129.5C192.916 133.612 197.243 135.849 199.51 135.83C204.383 135.79 204.773 128.646 213.16 128.578C229.934 128.441 230.198 158.302 213.424 158.438C205.037 158.507 204.521 151.37 199.647 151.409C197.38 151.428 193.095 153.843 193.13 157.846L193.461 190.422Z" fill="#3C7A91" fill-opacity="0.7" stroke="#999999" stroke-width="0.758671" stroke-miterlimit="10"/>
</g>
</g>
<mask id="mask2_151_10214" style="mask-type:luminance" maskUnits="userSpaceOnUse" x="191" y="0" width="136" height="98">
<path d="M326.229 0.260071L191.185 0.260071V97.8908L326.229 97.8908V0.260071Z" fill="white"/>
</mask>
<g mask="url(#mask2_151_10214)">
<path d="M192.883 1.89777V34.9005C192.883 39.0124 197.185 41.2847 199.449 41.2847C204.429 41.2847 204.769 34.1431 213.145 34.1431C229.899 34.1431 229.899 64.0079 213.145 64.0079C204.769 64.0079 204.316 56.8663 199.449 56.8663C197.185 56.8663 192.883 59.2468 192.883 63.2504V96.2533H227.408C231.71 96.2533 234.087 92.1414 234.087 89.9774C234.087 85.2162 226.616 84.8917 226.616 76.7762C226.616 60.7617 257.858 60.7617 257.858 76.7762C257.858 84.7834 250.387 85.2162 250.387 89.9774C250.387 92.1414 252.877 96.2533 257.066 96.2533H291.591V63.3587C291.591 59.2468 295.892 56.9745 298.156 56.9745C303.137 56.9745 303.476 64.1161 311.966 64.1161C328.719 64.1161 328.719 34.2513 311.966 34.2513C303.589 34.2513 303.137 41.393 298.156 41.393C295.892 41.393 291.591 39.1206 291.591 35.0088V1.89777L257.179 1.89777C252.877 1.89777 248.844 1.89777 248.844 1.89777L244.292 1.89777L238.981 1.89777L234.429 1.89777C234.429 1.89777 231.71 1.89777 227.521 1.89777L192.883 1.89777Z" fill="#3C7A91" fill-opacity="0.85" stroke="#999999" stroke-width="0.758671" stroke-miterlimit="10"/>
</g>
<defs>
<linearGradient id="paint0_linear_151_10214" x1="64.1835" y1="280.234" x2="130.271" y2="133.649" gradientUnits="userSpaceOnUse">
<stop stop-color="#C6192E"/>
<stop offset="0.1" stop-color="#C6192E"/>
<stop offset="0.9" stop-color="#348097"/>
<stop offset="1" stop-color="#348097"/>
</linearGradient>
<clipPath id="clip0_151_10214">
<rect width="133.929" height="136.719" fill="white" transform="matrix(0.895437 -0.445188 0.474521 0.880244 0 157.515)"/>
</clipPath>
<clipPath id="clip1_151_10214">
<rect width="129.076" height="102.264" fill="white" transform="matrix(-0.00882961 -0.999961 0.999967 -0.0081433 191.721 192.589)"/>
</clipPath>
</defs>
</svg>
