<svg width="16" height="16" viewBox="0 0 16 16" fill="none" xmlns="http://www.w3.org/2000/svg">
<path fill-rule="evenodd" clip-rule="evenodd" d="M14.4888 7.44333H8.55577V1.51032C8.55577 1.20313 8.30675 0.954102 7.99955 0.954102C7.69236 0.954102 7.44333 1.20313 7.44333 1.51032V7.44333H1.51032C1.20313 7.44333 0.954102 7.69236 0.954102 7.99955C0.954102 8.30675 1.20313 8.55577 1.51032 8.55577H7.44333V14.4888C7.44333 14.796 7.69236 15.045 7.99955 15.045C8.30675 15.045 8.55577 14.796 8.55577 14.4888V8.55577H14.4888C14.796 8.55577 15.045 8.30675 15.045 7.99955C15.045 7.69236 14.796 7.44333 14.4888 7.44333Z" fill="currentColor" stroke="currentColor" stroke-width="0.911765"/>
</svg>