<svg width="24" height="24" viewBox="0 0 24 24" fill="none" xmlns="http://www.w3.org/2000/svg">
<path fill-rule="evenodd" clip-rule="evenodd" d="M4.56969 5.69697L10.6006 3.46536V19.1013L7.27502 16.2513C6.35597 15.4471 5.85921 14.6575 5.35453 13.5454C4.84986 12.4333 4.56982 10.8424 4.56969 9.62119V5.69697ZM10.6006 2L3.6166 4.61841C3.43554 4.68628 3.2795 4.80873 3.16932 4.96763C3.05914 5.12653 3.00007 5.31526 3 5.50863V9.6006C2.99996 11.0928 3.31893 12.5678 3.93553 13.9267C4.55213 15.2856 5.45211 16.4969 6.57513 17.4796L10.6006 21.0015L12.3363 19.4829C11.8265 18.6619 11.55 17.7083 11.55 16.7263C11.55 15.3404 12.1006 14.0113 13.0805 13.0313C14.0605 12.0514 15.3896 11.5008 16.7754 11.5008C17.1912 11.5008 17.6018 11.5504 17.9994 11.6462C18.1326 10.978 18.2012 10.2931 18.2012 9.6006V5.50863C18.2011 5.31526 18.1421 5.12653 18.0319 4.96763C17.9217 4.80873 17.7657 4.68723 17.5846 4.61936L10.6006 2Z" fill="currentColor"/>
<path d="M21.047 16.726C21.047 17.8599 20.5966 18.9474 19.7948 19.7491C18.993 20.5509 17.9056 21.0014 16.7717 21.0014C15.6378 21.0014 14.5503 20.5509 13.7486 19.7491C12.9468 18.9474 12.4963 17.8599 12.4963 16.726C12.4963 15.5921 12.9468 14.5047 13.7486 13.7029C14.5503 12.9011 15.6378 12.4507 16.7717 12.4507C17.9056 12.4507 18.993 12.9011 19.7948 13.7029C20.5966 14.5047 21.047 15.5921 21.047 16.726ZM17.2467 14.8259C17.2467 14.6999 17.1967 14.5791 17.1076 14.49C17.0185 14.4009 16.8977 14.3508 16.7717 14.3508C16.6457 14.3508 16.5249 14.4009 16.4358 14.49C16.3467 14.5791 16.2966 14.6999 16.2966 14.8259V16.251H14.8715C14.7455 16.251 14.6247 16.301 14.5356 16.3901C14.4465 16.4792 14.3965 16.6 14.3965 16.726C14.3965 16.852 14.4465 16.9728 14.5356 17.0619C14.6247 17.151 14.7455 17.2011 14.8715 17.2011H16.2966V18.6262C16.2966 18.7522 16.3467 18.873 16.4358 18.9621C16.5249 19.0512 16.6457 19.1012 16.7717 19.1012C16.8977 19.1012 17.0185 19.0512 17.1076 18.9621C17.1967 18.873 17.2467 18.7522 17.2467 18.6262V17.2011H18.6718C18.7978 17.2011 18.9186 17.151 19.0077 17.0619C19.0968 16.9728 19.1469 16.852 19.1469 16.726C19.1469 16.6 19.0968 16.4792 19.0077 16.3901C18.9186 16.301 18.7978 16.251 18.6718 16.251H17.2467V14.8259Z" fill="currentColor"/>
</svg>
