<svg width="20" height="19" viewBox="0 0 20 19" fill="none" xmlns="http://www.w3.org/2000/svg">
<path d="M4.05977 5.11412C4.68061 4.64928 5.43851 4.39857 6.21729 4.40042C6.48625 4.39446 6.75239 4.45566 6.99107 4.57837C7.22976 4.70107 7.43328 4.88132 7.58281 5.10242C7.73234 4.88132 7.93586 4.70107 8.17454 4.57837C8.41323 4.45566 8.67937 4.39446 8.94832 4.40042C9.72711 4.39857 10.485 4.64928 11.1058 5.11412C11.5838 5.48132 11.9525 5.98982 12.0826 6.60452C12.3812 6.62702 12.6543 6.74942 12.8837 6.93392C13.2315 7.21292 13.4846 7.63142 13.6439 8.07422C13.8933 8.76272 13.9607 9.64022 13.7021 10.3872C13.7677 10.4178 13.8323 10.4538 13.8951 10.4952C14.1455 10.6599 14.3357 10.8957 14.4759 11.1738C14.7518 11.7183 14.8656 12.4779 14.8656 13.4004C14.8656 14.4273 14.4696 15.1167 13.9671 15.5424C13.6892 15.778 13.3612 15.9487 13.0076 16.0419C12.9165 16.5441 12.6616 17.1255 12.262 17.6187C11.7431 18.2622 10.9383 18.8004 9.85867 18.8004C9.00294 18.8004 8.32201 18.3324 7.87958 17.8734C7.77381 17.7638 7.67471 17.6481 7.58281 17.5269C7.49092 17.6481 7.39182 17.7638 7.28603 17.8734C6.84361 18.3324 6.16358 18.8004 5.30695 18.8004C4.22728 18.8004 3.42344 18.2622 2.90364 17.6187C2.53017 17.1602 2.27438 16.6193 2.15806 16.0419C1.80438 15.9487 1.47644 15.778 1.19856 15.5424C0.696049 15.1167 0.300049 14.4264 0.300049 13.4004C0.300049 12.4779 0.414752 11.7174 0.689676 11.1738C0.819973 10.9011 1.02021 10.6668 1.27048 10.4943C1.33196 10.4541 1.39648 10.4186 1.46347 10.3881C1.20493 9.63932 1.2723 8.76272 1.52173 8.07422C1.68104 7.63142 1.93412 7.21292 2.28187 6.93392C2.51128 6.74942 2.78438 6.62792 3.08297 6.60452C3.21406 5.98982 3.58184 5.48132 4.05977 5.11412ZM7.12763 6.65042V6.64142L7.12581 6.59642C7.11241 6.36179 7.06521 6.13026 6.98562 5.90882C6.92896 5.74166 6.83249 5.59041 6.70432 5.46782C6.56986 5.35206 6.39539 5.29209 6.21729 5.30042C5.64099 5.29847 5.07976 5.48236 4.61872 5.82422C4.19632 6.14912 3.94143 6.58922 3.94143 7.10042C3.94137 7.17169 3.9242 7.24192 3.89132 7.30534C3.85844 7.36876 3.81079 7.42355 3.7523 7.46521C3.69381 7.50686 3.62616 7.53419 3.55489 7.54493C3.48363 7.55568 3.41081 7.54954 3.34242 7.52702C3.17128 7.47122 3.01834 7.50272 2.85539 7.63232C2.67696 7.77632 2.50308 8.03192 2.37837 8.37662C2.12438 9.08042 2.15078 9.93272 2.49944 10.4511C2.54924 10.525 2.57584 10.6117 2.57591 10.7004H3.25867C3.80191 10.7004 4.32289 10.9138 4.70702 11.2935C5.09115 11.6733 5.30695 12.1884 5.30695 12.7254V13.0269C5.61064 13.1331 5.8666 13.342 6.02959 13.6166C6.19258 13.8913 6.2521 14.2141 6.19762 14.528C6.14315 14.8419 5.9782 15.1266 5.73192 15.3319C5.48564 15.5371 5.17389 15.6497 4.85177 15.6497C4.52965 15.6497 4.2179 15.5371 3.97162 15.3319C3.72534 15.1266 3.56039 14.8419 3.50592 14.528C3.45145 14.2141 3.51097 13.8913 3.67395 13.6166C3.83694 13.342 4.0929 13.1331 4.3966 13.0269V12.7254C4.3966 12.1044 3.88681 11.6004 3.25867 11.6004H1.66557C1.61115 11.6003 1.55719 11.5906 1.50626 11.5716L1.50352 11.577C1.32328 11.9325 1.21039 12.5229 1.21039 13.4004C1.21039 14.1735 1.49715 14.6091 1.79119 14.8584C2.10708 15.1266 2.45757 15.2004 2.57591 15.2004C2.69663 15.2004 2.8124 15.2478 2.89777 15.3322C2.98313 15.4166 3.03108 15.5311 3.03108 15.6504C3.03108 15.9816 3.21315 16.5603 3.6137 17.0571C4.00424 17.5386 4.56592 17.9004 5.30695 17.9004C5.81674 17.9004 6.27373 17.6187 6.62695 17.2524C6.80082 17.0724 6.93646 16.8861 7.02477 16.7331C7.06496 16.6653 7.09937 16.5942 7.12763 16.5207L7.12763 9.35042H6.13991C6.03254 9.65067 5.82126 9.90372 5.54342 10.0649C5.26557 10.226 4.93906 10.2848 4.62158 10.231C4.3041 10.1771 4.01609 10.014 3.80847 9.77057C3.60085 9.52709 3.48697 9.21888 3.48697 8.90042C3.48697 8.58196 3.60085 8.27376 3.80847 8.03027C4.01609 7.78679 4.3041 7.62372 4.62158 7.56986C4.93906 7.51601 5.26557 7.57485 5.54342 7.73599C5.82126 7.89712 6.03254 8.15018 6.13991 8.45042H7.12763L7.12763 6.65042ZM8.03798 15.6495V16.5198C8.06625 16.5933 8.10066 16.6644 8.14085 16.7322C8.23006 16.8852 8.36479 17.0715 8.53776 17.2515C8.89188 17.6178 9.34979 17.8995 9.85867 17.8995C10.5997 17.8995 11.1614 17.5377 11.5519 17.0562C11.9525 16.5594 12.1345 15.9807 12.1345 15.6495C12.1345 15.5302 12.1825 15.4157 12.2678 15.3313C12.3532 15.2469 12.469 15.1995 12.5897 15.1995C12.708 15.1995 13.0585 15.1257 13.3744 14.8575C13.6685 14.6082 13.9552 14.1726 13.9552 13.3995C13.9552 12.522 13.8414 11.9325 13.6621 11.5761C13.6021 11.4434 13.5079 11.3286 13.389 11.2431C13.2865 11.1783 13.1664 11.146 13.0449 11.1504C12.9625 11.1504 12.8818 11.1283 12.8111 11.0864C12.7405 11.0446 12.6827 10.9846 12.6438 10.9128C12.605 10.8411 12.5865 10.7602 12.5905 10.6789C12.5944 10.5976 12.6206 10.5189 12.6662 10.4511C13.0157 9.93272 13.0412 9.08042 12.7872 8.37662C12.6625 8.03192 12.4887 7.77542 12.3102 7.63232C12.1473 7.50272 11.9943 7.47032 11.8232 7.52702C11.7548 7.54954 11.682 7.55568 11.6107 7.54493C11.5395 7.53419 11.4718 7.50686 11.4133 7.46521C11.3548 7.42355 11.3072 7.36876 11.2743 7.30534C11.2414 7.24192 11.2242 7.17169 11.2242 7.10042C11.2242 6.58922 10.9693 6.14912 10.546 5.82422C10.0852 5.48255 9.52431 5.29866 8.94832 5.30042C8.77023 5.29209 8.59575 5.35206 8.46129 5.46782C8.33274 5.59026 8.23594 5.74154 8.17908 5.90882C8.09241 6.14391 8.04477 6.3913 8.03798 6.64142V14.7504H8.72074C9.34888 14.7504 9.85867 14.2464 9.85867 13.6254V11.9739C9.55497 11.8678 9.29901 11.6589 9.13602 11.3842C8.97304 11.1095 8.91352 10.7867 8.96799 10.4728C9.02246 10.159 9.18741 9.87424 9.43369 9.66897C9.67997 9.46371 9.99172 9.35113 10.3138 9.35113C10.636 9.35113 10.9477 9.46371 11.194 9.66897C11.4403 9.87424 11.6052 10.159 11.6597 10.4728C11.7142 10.7867 11.6546 11.1095 11.4917 11.3842C11.3287 11.6589 11.0727 11.8678 10.769 11.9739V13.6254C10.769 14.1625 10.5532 14.6776 10.1691 15.0573C9.78496 15.4371 9.26397 15.6504 8.72074 15.6504L8.03798 15.6495ZM4.3966 8.90042C4.3966 9.01977 4.44456 9.13423 4.52992 9.21862C4.61528 9.30301 4.73105 9.35042 4.85177 9.35042C4.97249 9.35042 5.08827 9.30301 5.17363 9.21862C5.25899 9.13423 5.30695 9.01977 5.30695 8.90042C5.30695 8.78107 5.25899 8.66662 5.17363 8.58222C5.08827 8.49783 4.97249 8.45042 4.85177 8.45042C4.73105 8.45042 4.61528 8.49783 4.52992 8.58222C4.44456 8.66662 4.3966 8.78107 4.3966 8.90042ZM10.3138 11.1504C10.4346 11.1504 10.5503 11.103 10.6357 11.0186C10.7211 10.9342 10.769 10.8198 10.769 10.7004C10.769 10.5811 10.7211 10.4666 10.6357 10.3822C10.5503 10.2978 10.4346 10.2504 10.3138 10.2504C10.1931 10.2504 10.0773 10.2978 9.99199 10.3822C9.90662 10.4666 9.85867 10.5811 9.85867 10.7004C9.85867 10.8198 9.90662 10.9342 9.99199 11.0186C10.0773 11.103 10.1931 11.1504 10.3138 11.1504ZM4.85177 13.8504C4.73105 13.8504 4.61528 13.8978 4.52992 13.9822C4.44456 14.0666 4.3966 14.1811 4.3966 14.3004C4.3966 14.4198 4.44456 14.5342 4.52992 14.6186C4.61528 14.703 4.73105 14.7504 4.85177 14.7504C4.97249 14.7504 5.08827 14.703 5.17363 14.6186C5.25899 14.5342 5.30695 14.4198 5.30695 14.3004C5.30695 14.1811 5.25899 14.0666 5.17363 13.9822C5.08827 13.8978 4.97249 13.8504 4.85177 13.8504Z" fill="currentColor"/>
<path d="M12.7035 3.82655C12.4322 3.77975 12.4322 3.39455 12.7035 3.34775C13.1839 3.26491 13.6285 3.04255 13.9806 2.709C14.3327 2.37546 14.5765 1.94583 14.6807 1.47485L14.6989 1.40015C14.7581 1.13465 15.1395 1.13285 15.2005 1.39745L15.2206 1.48385C15.3288 1.9531 15.575 2.38023 15.9281 2.71155C16.2812 3.04287 16.7255 3.26359 17.2051 3.34595C17.4773 3.39275 17.4773 3.77975 17.2051 3.82655C16.7255 3.90892 16.2812 4.12964 15.9281 4.46096C15.575 4.79228 15.3288 5.21941 15.2206 5.68865L15.2005 5.77505C15.1395 6.03965 14.7581 6.03785 14.6998 5.77235L14.6826 5.69855C14.5782 5.22745 14.3344 4.79774 13.9821 4.46418C13.6297 4.13062 13.185 3.90834 12.7044 3.82565L12.7035 3.82655Z" stroke="currentColor" stroke-width="0.5" stroke-linecap="round" stroke-linejoin="round"/>
<path d="M15.6738 8.44398C15.4421 8.40399 15.4421 8.0749 15.6738 8.03492C16.0843 7.96414 16.4641 7.77417 16.7649 7.48921C17.0658 7.20425 17.274 6.8372 17.3631 6.43482L17.3786 6.371C17.4292 6.14417 17.7551 6.14264 17.8072 6.36869L17.8243 6.44251C17.9168 6.8434 18.1271 7.20832 18.4287 7.49138C18.7304 7.77444 19.11 7.96301 19.5198 8.03338C19.7523 8.07336 19.7523 8.40399 19.5198 8.44398C19.11 8.51434 18.7304 8.70291 18.4287 8.98597C18.1271 9.26903 17.9168 9.63395 17.8243 10.0348L17.8072 10.1087C17.7551 10.3347 17.4292 10.3332 17.3794 10.1064L17.3646 10.0433C17.2755 9.64082 17.0672 9.2737 16.7662 8.98873C16.4652 8.70376 16.0852 8.51385 15.6746 8.44321L15.6738 8.44398Z" stroke="currentColor" stroke-width="0.5" stroke-linecap="round" stroke-linejoin="round"/>
</svg>
