<svg width="40" height="28" viewBox="0 0 40 28" fill="none" xmlns="http://www.w3.org/2000/svg">
<g clip-path="url(#clip0_716_32793)">
<path d="M11.4241 6.93167C12.3647 6.23073 13.5131 5.85267 14.6931 5.85546C15.1006 5.84647 15.5038 5.93876 15.8654 6.12379C16.2271 6.30882 16.5355 6.58062 16.762 6.91403C16.9886 6.58062 17.2969 6.30882 17.6586 6.12379C18.0202 5.93876 18.4235 5.84647 18.831 5.85546C20.011 5.85267 21.1593 6.23073 22.1 6.93167C22.8241 7.48539 23.3827 8.25217 23.58 9.1791C24.0324 9.21303 24.4462 9.3976 24.7937 9.67581C25.3206 10.0965 25.7041 10.7276 25.9455 11.3953C26.3234 12.4335 26.4255 13.7567 26.0337 14.8832C26.1331 14.9293 26.231 14.9836 26.3262 15.046C26.7055 15.2944 26.9937 15.65 27.2062 16.0693C27.6241 16.8904 27.7965 18.0358 27.7965 19.4269C27.7965 20.9754 27.1965 22.015 26.4351 22.6569C26.0141 23.0121 25.5172 23.2695 24.9813 23.4101C24.8434 24.1674 24.4572 25.0441 23.8517 25.7878C23.0655 26.7582 21.8462 27.5697 20.2103 27.5697C18.9137 27.5697 17.882 26.864 17.2117 26.1719C17.0514 26.0066 16.9013 25.8322 16.762 25.6494C16.6228 25.8322 16.4726 26.0066 16.3124 26.1719C15.642 26.864 14.6117 27.5697 13.3137 27.5697C11.6779 27.5697 10.46 26.7582 9.67237 25.7878C9.10652 25.0964 8.71895 24.2807 8.54271 23.4101C8.00682 23.2695 7.50995 23.0121 7.08892 22.6569C6.32754 22.015 5.72754 20.974 5.72754 19.4269C5.72754 18.0358 5.90133 16.889 6.31788 16.0693C6.5153 15.6581 6.81869 15.3048 7.19788 15.0447C7.29104 14.984 7.3888 14.9305 7.4903 14.8845C7.09857 13.7554 7.20064 12.4335 7.57857 11.3953C7.81995 10.7276 8.2034 10.0965 8.7303 9.67581C9.07788 9.3976 9.49168 9.21439 9.94409 9.1791C10.1427 8.25217 10.7 7.48539 11.4241 6.93167ZM16.0724 9.24831V9.23474L16.0696 9.16689C16.0493 8.81308 15.9778 8.46394 15.8572 8.13003C15.7713 7.87795 15.6252 7.64988 15.431 7.46503C15.2273 7.29047 14.9629 7.20004 14.6931 7.2126C13.8199 7.20965 12.9695 7.48696 12.271 8.00246C11.631 8.49239 11.2448 9.15603 11.2448 9.92689C11.2447 10.0343 11.2187 10.1403 11.1689 10.2359C11.119 10.3315 11.0468 10.4141 10.9582 10.477C10.8696 10.5398 10.7671 10.581 10.6591 10.5972C10.5512 10.6134 10.4408 10.6041 10.3372 10.5702C10.0779 10.486 9.84616 10.5335 9.59926 10.729C9.32892 10.9461 9.06547 11.3315 8.8765 11.8513C8.49168 12.9126 8.53168 14.1978 9.05995 14.9795C9.1354 15.0909 9.17571 15.2216 9.17581 15.3555H10.2103C11.0334 15.3555 11.8228 15.6772 12.4048 16.2498C12.9868 16.8225 13.3137 17.5992 13.3137 18.409V18.8637C13.7739 19.0237 14.1617 19.3387 14.4087 19.7529C14.6556 20.1671 14.7458 20.6539 14.6633 21.1272C14.5807 21.6005 14.3308 22.0299 13.9576 22.3394C13.5845 22.6489 13.1122 22.8187 12.6241 22.8187C12.136 22.8187 11.6637 22.6489 11.2905 22.3394C10.9174 22.0299 10.6675 21.6005 10.5849 21.1272C10.5024 20.6539 10.5926 20.1671 10.8395 19.7529C11.0865 19.3387 11.4743 19.0237 11.9344 18.8637V18.409C11.9344 17.4726 11.162 16.7126 10.2103 16.7126H7.7965C7.71405 16.7125 7.63229 16.6978 7.55513 16.6692L7.55099 16.6773C7.27788 17.2134 7.10685 18.1037 7.10685 19.4269C7.10685 20.5927 7.54133 21.2495 7.98685 21.6255C8.46547 22.0299 8.9965 22.1412 9.17581 22.1412C9.35872 22.1412 9.53414 22.2127 9.66347 22.3399C9.79281 22.4672 9.86547 22.6398 9.86547 22.8197C9.86547 23.3192 10.1413 24.1918 10.7482 24.941C11.34 25.667 12.191 26.2126 13.3137 26.2126C14.0862 26.2126 14.7786 25.7878 15.3137 25.2355C15.5772 24.964 15.7827 24.6831 15.9165 24.4524C15.9774 24.3501 16.0295 24.2429 16.0724 24.1321V13.3197H14.5758C14.4131 13.7725 14.093 14.1541 13.672 14.3971C13.2511 14.64 12.7563 14.7288 12.2753 14.6476C11.7943 14.5664 11.3579 14.3205 11.0433 13.9533C10.7287 13.5861 10.5562 13.1214 10.5562 12.6412C10.5562 12.161 10.7287 11.6962 11.0433 11.329C11.3579 10.9619 11.7943 10.716 12.2753 10.6348C12.7563 10.5536 13.2511 10.6423 13.672 10.8853C14.093 11.1283 14.4131 11.5098 14.5758 11.9626H16.0724V9.24831ZM17.4517 22.8184V24.1307C17.4945 24.2416 17.5466 24.3487 17.6075 24.451C17.7427 24.6817 17.9468 24.9627 18.2089 25.2341C18.7455 25.7865 19.4393 26.2112 20.2103 26.2112C21.3331 26.2112 22.1841 25.6657 22.7758 24.9396C23.3827 24.1905 23.6586 23.3178 23.6586 22.8184C23.6586 22.6384 23.7312 22.4658 23.8606 22.3386C23.9899 22.2113 24.1653 22.1398 24.3482 22.1398C24.5275 22.1398 25.0586 22.0285 25.5372 21.6241C25.9827 21.2482 26.4172 20.5913 26.4172 19.4255C26.4172 18.1023 26.2448 17.2134 25.9731 16.676C25.8822 16.4758 25.7395 16.3027 25.5593 16.1738C25.404 16.0761 25.2221 16.0274 25.0379 16.034C24.9131 16.034 24.7907 16.0006 24.6837 15.9375C24.5767 15.8744 24.4891 15.784 24.4302 15.6757C24.3714 15.5675 24.3434 15.4456 24.3494 15.323C24.3553 15.2004 24.395 15.0817 24.4641 14.9795C24.9937 14.1978 25.0324 12.9126 24.6475 11.8513C24.4586 11.3315 24.1951 10.9447 23.9248 10.729C23.6779 10.5335 23.4462 10.4847 23.1868 10.5702C23.0832 10.6041 22.9729 10.6134 22.8649 10.5972C22.7569 10.581 22.6544 10.5398 22.5658 10.477C22.4772 10.4141 22.405 10.3315 22.3552 10.2359C22.3054 10.1403 22.2793 10.0343 22.2793 9.92689C22.2793 9.15603 21.8931 8.49239 21.2517 8.00246C20.5535 7.48724 19.7037 7.20995 18.831 7.2126C18.5611 7.20004 18.2968 7.29047 18.0931 7.46503C17.8983 7.64967 17.7516 7.87777 17.6655 8.13003C17.5342 8.48452 17.462 8.85757 17.4517 9.23474V21.4626H18.4862C19.4379 21.4626 20.2103 20.7026 20.2103 19.7662V17.2758C19.7501 17.1157 19.3623 16.8008 19.1154 16.3866C18.8684 15.9724 18.7783 15.4856 18.8608 15.0123C18.9433 14.539 19.1932 14.1096 19.5664 13.8001C19.9395 13.4906 20.4119 13.3208 20.9 13.3208C21.388 13.3208 21.8604 13.4906 22.2335 13.8001C22.6067 14.1096 22.8566 14.539 22.9391 15.0123C23.0217 15.4856 22.9315 15.9724 22.6845 16.3866C22.4376 16.8008 22.0498 17.1157 21.5896 17.2758V19.7662C21.5896 20.576 21.2626 21.3527 20.6806 21.9254C20.0986 22.498 19.3092 22.8197 18.4862 22.8197L17.4517 22.8184ZM11.9344 12.6412C11.9344 12.8211 12.0071 12.9937 12.1364 13.121C12.2658 13.2483 12.4412 13.3197 12.6241 13.3197C12.807 13.3197 12.9824 13.2483 13.1118 13.121C13.2411 12.9937 13.3137 12.8211 13.3137 12.6412C13.3137 12.4612 13.2411 12.2886 13.1118 12.1613C12.9824 12.0341 12.807 11.9626 12.6241 11.9626C12.4412 11.9626 12.2658 12.0341 12.1364 12.1613C12.0071 12.2886 11.9344 12.4612 11.9344 12.6412ZM20.9 16.034C21.0829 16.034 21.2583 15.9625 21.3876 15.8353C21.5169 15.708 21.5896 15.5354 21.5896 15.3555C21.5896 15.1755 21.5169 15.0029 21.3876 14.8756C21.2583 14.7484 21.0829 14.6769 20.9 14.6769C20.717 14.6769 20.5416 14.7484 20.4123 14.8756C20.283 15.0029 20.2103 15.1755 20.2103 15.3555C20.2103 15.5354 20.283 15.708 20.4123 15.8353C20.5416 15.9625 20.717 16.034 20.9 16.034ZM12.6241 20.1055C12.4412 20.1055 12.2658 20.1769 12.1364 20.3042C12.0071 20.4315 11.9344 20.6041 11.9344 20.784C11.9344 20.964 12.0071 21.1366 12.1364 21.2639C12.2658 21.3911 12.4412 21.4626 12.6241 21.4626C12.807 21.4626 12.9824 21.3911 13.1118 21.2639C13.2411 21.1366 13.3137 20.964 13.3137 20.784C13.3137 20.6041 13.2411 20.4315 13.1118 20.3042C12.9824 20.1769 12.807 20.1055 12.6241 20.1055Z" fill="url(#paint0_linear_716_32793)"/>
<path d="M23.9675 5.74435C23.5564 5.67378 23.5564 5.09292 23.9675 5.02235C24.6954 4.89742 25.369 4.56212 25.9025 4.05916C26.436 3.55619 26.8053 2.90834 26.9633 2.19813L26.9909 2.08549C27.0806 1.68513 27.6585 1.68242 27.7509 2.08142L27.7812 2.21171C27.9453 2.9193 28.3182 3.56338 28.8532 4.06299C29.3882 4.5626 30.0614 4.89543 30.7881 5.01964C31.2006 5.09021 31.2006 5.67378 30.7881 5.74435C30.0614 5.86855 29.3882 6.20138 28.8532 6.70099C28.3182 7.2006 27.9453 7.84469 27.7812 8.55228L27.7509 8.68256C27.6585 9.08156 27.0806 9.07885 26.9923 8.67849L26.9661 8.56721C26.808 7.85682 26.4385 7.20883 25.9047 6.70585C25.3709 6.20287 24.697 5.86767 23.9688 5.74299L23.9675 5.74435Z" stroke="url(#paint1_linear_716_32793)" stroke-width="0.987013" stroke-linecap="round" stroke-linejoin="round"/>
<path d="M28.0602 11.9557C27.7091 11.8954 27.7091 11.3991 28.0602 11.3388C28.6821 11.2321 29.2576 10.9456 29.7135 10.5159C30.1693 10.0862 30.4848 9.53273 30.6197 8.92597L30.6433 8.82974C30.7199 8.4877 31.2137 8.48538 31.2926 8.82626L31.3185 8.93757C31.4586 9.54209 31.7773 10.0924 32.2344 10.5192C32.6914 10.946 33.2666 11.2304 33.8874 11.3365C34.2398 11.3968 34.2398 11.8954 33.8874 11.9557C33.2666 12.0618 32.6914 12.3461 32.2344 12.773C31.7773 13.1998 31.4586 13.7501 31.3185 14.3546L31.2926 14.4659C31.2137 14.8068 30.7199 14.8045 30.6445 14.4624L30.6221 14.3673C30.487 13.7604 30.1714 13.2068 29.7153 12.7771C29.2593 12.3474 28.6835 12.061 28.0614 11.9545L28.0602 11.9557Z" stroke="url(#paint2_linear_716_32793)" stroke-width="0.987013" stroke-linecap="round" stroke-linejoin="round"/>
</g>
<defs>
<linearGradient id="paint0_linear_716_32793" x1="21.5436" y1="27.5697" x2="14.1344" y2="4.19084" gradientUnits="userSpaceOnUse">
<stop stop-color="#3F7DFB"/>
<stop offset="0.197964" stop-color="#4F71FF"/>
<stop offset="0.602209" stop-color="#A55EFF"/>
<stop offset="1" stop-color="#8C1DE4"/>
</linearGradient>
<linearGradient id="paint1_linear_716_32793" x1="28.9899" y1="8.98029" x2="26.5681" y2="1.2087" gradientUnits="userSpaceOnUse">
<stop stop-color="#3F7DFB"/>
<stop offset="0.197964" stop-color="#4F71FF"/>
<stop offset="0.602209" stop-color="#A55EFF"/>
<stop offset="1" stop-color="#8C1DE4"/>
</linearGradient>
<linearGradient id="paint2_linear_716_32793" x1="32.3512" y1="14.7203" x2="30.2821" y2="8.08066" gradientUnits="userSpaceOnUse">
<stop stop-color="#3F7DFB"/>
<stop offset="0.197964" stop-color="#4F71FF"/>
<stop offset="0.602209" stop-color="#A55EFF"/>
<stop offset="1" stop-color="#8C1DE4"/>
</linearGradient>
<clipPath id="clip0_716_32793">
<rect width="40" height="27.1429" fill="white" transform="translate(0.210938 0.427979)"/>
</clipPath>
</defs>
</svg>
