<svg width="25" height="20" viewBox="0 0 25 20" fill="none" xmlns="http://www.w3.org/2000/svg">
<path d="M0.291359 8.13385C2.73411 8.17327 3.84085 7.17328 3.94228 4.71888C3.84085 7.17328 4.85611 8.20751 7.30627 8.24705C4.85611 8.20751 3.75556 9.23694 3.65534 11.662C3.75556 9.23694 2.73411 8.17327 0.291359 8.13385Z" fill="currentColor"/>
<path d="M3.36376 11.6572C3.41238 10.48 3.18541 9.70062 2.71365 9.20665C2.24115 8.71203 1.4668 8.44426 0.279323 8.4251C0.118513 8.4225 -0.00621123 8.29015 0.000239339 8.1295C0.00688521 7.96869 0.142476 7.83985 0.303402 7.84245C1.49291 7.86164 2.28762 7.62571 2.79947 7.15072C3.31011 6.67683 3.60139 5.90704 3.65069 4.71417C3.65734 4.55336 3.79375 4.42539 3.95468 4.42799C4.0952 4.43043 4.2084 4.53161 4.23021 4.66445L4.23376 4.72358L4.22807 5.15156C4.24469 6.10664 4.46894 6.75591 4.88002 7.1843C5.35088 7.67485 6.12481 7.93637 7.31819 7.95564C7.47912 7.95824 7.60389 8.09128 7.59724 8.25209C7.59041 8.41274 7.45492 8.54089 7.29411 8.53829C6.10266 8.51908 5.30752 8.76172 4.79591 9.24026C4.28496 9.71818 3.99552 10.4889 3.94682 11.6666C3.94018 11.8273 3.80443 11.956 3.64366 11.9536C3.48273 11.951 3.35711 11.818 3.36376 11.6572ZM3.86344 6.59428C3.69928 6.9779 3.47875 7.30491 3.19073 7.57227C2.90745 7.83514 2.57039 8.02928 2.18346 8.16644C2.55891 8.31804 2.87888 8.52586 3.14002 8.79916C3.40502 9.07663 3.59876 9.41102 3.73102 9.7984C3.8945 9.41583 4.11576 9.08902 4.40287 8.8204C4.68594 8.55562 5.02271 8.35788 5.41045 8.21852C5.03529 8.06905 4.71525 7.86435 4.45447 7.59266C4.18915 7.31622 3.99516 6.98284 3.86344 6.59428Z" fill=""/>
<path d="M7.55071 2.3272C9.08441 2.35198 9.77931 1.72414 9.84303 0.183117C9.77931 1.72414 10.4167 2.37351 11.9551 2.39836C10.4167 2.37351 9.72573 3.01983 9.66278 4.54245C9.72573 3.01983 9.08441 2.35198 7.55071 2.3272Z" fill="currentColor"/>
<path d="M9.47949 4.5393C9.51002 3.8004 9.36792 3.31122 9.07187 3.00107C8.77523 2.69045 8.2888 2.52182 7.54316 2.50978C7.44223 2.50815 7.36348 2.4254 7.36747 2.32458C7.37112 2.2362 7.43719 2.16294 7.52131 2.14728L7.55826 2.14445L7.82657 2.14108C8.42684 2.11672 8.84401 1.97094 9.12526 1.71001C9.4459 1.41248 9.62877 0.92914 9.65973 0.180156C9.66391 0.0792121 9.74952 -0.00157218 9.85053 2.32301e-05C9.93893 0.0014514 10.0098 0.0656443 10.0234 0.149217L10.0262 0.186076L10.0228 0.454851C10.0332 1.0545 10.1737 1.46216 10.4318 1.73112C10.7274 2.03912 11.2133 2.20348 11.9625 2.2156C12.0636 2.21723 12.1423 2.30069 12.1382 2.40165C12.1338 2.50246 12.0483 2.58256 11.9474 2.58093C11.1994 2.56887 10.7005 2.72179 10.3793 3.0222C10.0585 3.32225 9.87654 3.80585 9.84594 4.54522C9.84177 4.64619 9.75619 4.72699 9.65515 4.72536C9.55414 4.72369 9.47532 4.64025 9.47949 4.5393ZM9.79371 1.35353C9.69036 1.59709 9.55376 1.80581 9.37133 1.97511C9.19225 2.14128 8.9781 2.2613 8.73306 2.3475C8.97099 2.44288 9.17436 2.57225 9.33949 2.74513C9.5073 2.92084 9.62687 3.13363 9.70994 3.37952C9.81287 3.13656 9.95041 2.92808 10.1323 2.75794C10.3111 2.59071 10.5246 2.46797 10.7699 2.3804C10.5325 2.28641 10.3289 2.15958 10.1642 1.98792C9.99614 1.81287 9.87645 1.60019 9.79371 1.35353Z" fill="currentColor"/>
<path d="M24.6447 5.5161L22.004 20H19.4467L22.0875 5.5161H24.6447Z" fill="currentColor"/>
<path d="M13.5495 7.57528L6.92163 20H4.14521L12.3283 5.5161H14.1132L13.5495 7.57528ZM14.9899 20L12.8398 7.30669L12.9964 5.5161H14.6559L17.5889 20H14.9899ZM15.731 14.6282L15.3657 16.6078H7.3287L7.69402 14.6282H15.731Z" fill="currentColor"/>
</svg>
