<svg width="24" height="24" viewBox="0 0 26 26" fill="none" xmlns="http://www.w3.org/2000/svg">
<path d="M14.0827 16.791C14.0827 17.0783 13.9685 17.3539 13.7654 17.557C13.5622 17.7602 13.2867 17.8743 12.9993 17.8743C12.712 17.8743 12.4365 17.7602 12.2333 17.557C12.0302 17.3539 11.916 17.0783 11.916 16.791C11.916 16.5037 12.0302 16.2281 12.2333 16.025C12.4365 15.8218 12.712 15.7077 12.9993 15.7077C13.2867 15.7077 13.5622 15.8218 13.7654 16.025C13.9685 16.2281 14.0827 16.5037 14.0827 16.791ZM13.8118 7.85352C13.8118 7.63803 13.7262 7.43136 13.5739 7.27899C13.4215 7.12662 13.2148 7.04102 12.9993 7.04102C12.7839 7.04102 12.5772 7.12662 12.4248 7.27899C12.2725 7.43136 12.1868 7.63803 12.1868 7.85352V12.7285C12.1868 12.944 12.2725 13.1507 12.4248 13.303C12.5772 13.4554 12.7839 13.541 12.9993 13.541C13.2148 13.541 13.4215 13.4554 13.5739 13.303C13.7262 13.1507 13.8118 12.944 13.8118 12.7285V7.85352Z" fill="currentColor"/>
<path d="M12.4143 0.690282C12.7946 0.566781 13.2041 0.566781 13.5843 0.690282L22.5219 3.5882C22.9027 3.71175 23.2347 3.95272 23.4702 4.27655C23.7056 4.60039 23.8325 4.99046 23.8327 5.39086V10.8335C23.8327 17.5394 19.7485 22.4306 13.6483 24.7327C13.2299 24.8898 12.7688 24.8898 12.3504 24.7327C6.25127 22.4295 2.16602 17.5394 2.16602 10.8335V5.39086C2.16602 4.56753 2.69685 3.8417 3.47685 3.5882L12.4143 0.690282ZM13.0828 2.23511C13.0285 2.21778 12.9702 2.21778 12.9159 2.23511L3.97843 5.1352C3.92412 5.15278 3.87675 5.18708 3.84309 5.23318C3.80944 5.27929 3.79121 5.33486 3.79102 5.39195V10.8335C3.79102 16.7496 7.34435 21.1068 12.9235 23.2117C12.9724 23.2301 13.0263 23.2301 13.0752 23.2117C18.6544 21.1068 22.2077 16.7485 22.2077 10.8335V5.39086C22.2075 5.33378 22.1893 5.27821 22.1556 5.2321C22.1219 5.18599 22.0746 5.1517 22.0203 5.13411L13.0828 2.23511Z" fill="currentColor"/>
</svg>
