<svg width="20" height="20" viewBox="0 0 22 21" fill="none" xmlns="http://www.w3.org/2000/svg">
<path d="M14.1661 15.7695L10.5508 9.83711C10.4461 9.66789 10.2963 9.52753 10.1164 9.42999C9.93641 9.33245 9.73257 9.28113 9.52512 9.28113C9.31767 9.28113 9.11383 9.33245 8.93389 9.42999C8.75394 9.52753 8.60416 9.66789 8.49945 9.83711L4.88416 15.7695C4.78255 15.9337 4.729 16.1205 4.729 16.3107C4.729 16.501 4.78255 16.6877 4.88416 16.852C4.98772 17.022 5.13729 17.163 5.31753 17.2604C5.49778 17.3578 5.7022 17.4081 5.90984 17.4062H13.1404C13.3479 17.408 13.5522 17.3576 13.7322 17.2602C13.9123 17.1628 14.0618 17.0219 14.1652 16.852C14.267 16.6878 14.3207 16.5011 14.3208 16.3108C14.321 16.1206 14.2676 15.9338 14.1661 15.7695ZM13.3062 16.3828C13.2894 16.4099 13.2651 16.4322 13.236 16.4473C13.2069 16.4624 13.174 16.4698 13.1408 16.4687H5.90984C5.87664 16.4698 5.84374 16.4624 5.81464 16.4473C5.78553 16.4322 5.76129 16.4099 5.74447 16.3828C5.73021 16.3609 5.72266 16.3357 5.72266 16.31C5.72266 16.2842 5.73021 16.259 5.74447 16.2371L9.35976 10.3047C9.37766 10.2786 9.40216 10.2573 9.43104 10.2424C9.45992 10.2276 9.49226 10.2199 9.52512 10.2199C9.55798 10.2199 9.59032 10.2276 9.6192 10.2424C9.64808 10.2573 9.67258 10.2786 9.69048 10.3047L13.3054 16.2371C13.3197 16.2589 13.3274 16.2841 13.3276 16.3098C13.3277 16.3356 13.3203 16.3608 13.3062 16.3828ZM9.02903 13.8125V12.5625C9.02903 12.4382 9.08129 12.3189 9.17433 12.231C9.26736 12.1431 9.39355 12.0937 9.52512 12.0937C9.65669 12.0937 9.78288 12.1431 9.87591 12.231C9.96895 12.3189 10.0212 12.4382 10.0212 12.5625V13.8125C10.0212 13.9368 9.96895 14.056 9.87591 14.144C9.78288 14.2319 9.65669 14.2812 9.52512 14.2812C9.39355 14.2812 9.26736 14.2319 9.17433 14.144C9.08129 14.056 9.02903 13.9368 9.02903 13.8125ZM10.1866 15.375C10.1866 15.4986 10.1478 15.6194 10.0751 15.7222C10.0024 15.825 9.89912 15.9051 9.77825 15.9524C9.65738 15.9997 9.52439 16.0121 9.39608 15.988C9.26777 15.9639 9.1499 15.9043 9.0574 15.8169C8.96489 15.7295 8.90189 15.6182 8.87637 15.4969C8.85085 15.3757 8.86395 15.25 8.91401 15.1358C8.96408 15.0216 9.04886 14.924 9.15763 14.8553C9.26641 14.7867 9.3943 14.75 9.52512 14.75C9.70055 14.75 9.86879 14.8158 9.99284 14.9331C10.1169 15.0503 10.1866 15.2092 10.1866 15.375Z" fill="currentColor"/>
<path fill-rule="evenodd" clip-rule="evenodd" d="M14.8167 15.5H16.7746C17.7081 15.5 18.4974 15.1861 19.1425 14.5584C19.7864 13.9301 20.1084 13.1606 20.1084 12.25C20.1084 11.3604 19.7991 10.6036 19.1806 9.97964C18.5621 9.35502 17.7966 9.02848 16.8841 9H16.2984V8.07143C16.2984 6.52319 15.743 5.2074 14.6324 4.12407C13.5218 3.04136 12.1721 2.5 10.5834 2.5C9.17301 2.5 7.93667 2.94107 6.87431 3.82321C5.81196 4.70536 5.17378 5.82274 4.95979 7.17536C3.85108 7.23602 2.92366 7.67864 2.17754 8.50321C1.43141 9.3284 1.05835 10.2731 1.05835 11.3372C1.05835 12.4955 1.47554 13.4788 2.30993 14.2873C2.87129 14.8308 3.51243 15.1916 4.23335 15.3697V14.396C3.77401 14.2405 3.35861 13.9818 2.98716 13.6196C2.33629 12.9851 2.01085 12.219 2.01085 11.3214C2.01085 10.4238 2.33629 9.65774 2.98716 9.02321C3.63804 8.38869 4.42385 8.07143 5.3446 8.07143H5.82085C5.82148 6.78752 6.28599 5.69274 7.21436 4.78707C8.14273 3.8814 9.26573 3.42857 10.5834 3.42857C11.9003 3.42795 13.0233 3.88048 13.9523 4.78614C14.8813 5.69181 15.3458 6.7869 15.3458 8.07143V9.92857H16.7746C17.4414 9.92857 18.0049 10.153 18.4653 10.6018C18.9257 11.0506 19.1559 11.6 19.1559 12.25C19.1559 12.9 18.9257 13.4494 18.4653 13.8982C18.0049 14.347 17.4414 14.5714 16.7746 14.5714H14.8167V15.5Z" fill="currentColor"/>
</svg>
