<svg xmlns="http://www.w3.org/2000/svg" width="16" height="16" viewBox="0 0 16 16" fill="none">
<path d="M7.99994 4V6.8M7.99994 9.4V9.7M12.9412 1C13.5964 1 14.2248 1.26029 14.6882 1.72362C15.1515 2.18694 15.4118 2.81535 15.4118 3.47059V10.0588C15.4118 10.7141 15.1515 11.3425 14.6882 11.8058C14.2248 12.2691 13.5964 12.5294 12.9412 12.5294H8.82355L4.7059 15V12.5294H3.05885C2.4036 12.5294 1.7752 12.2691 1.31188 11.8058C0.84855 11.3425 0.588257 10.7141 0.588257 10.0588V3.47059C0.588257 2.81535 0.84855 2.18694 1.31188 1.72362C1.7752 1.26029 2.4036 1 3.05885 1H12.9412Z" stroke="currentColor" stroke-width="1.1" stroke-linecap="round" stroke-linejoin="round"/>
</svg>