<svg width="24" height="24" fill="none" xmlns="http://www.w3.org/2000/svg">
<path d="M21 16V4H3V16H21ZM21 2C21.5304 2 22.0391 2.21071 22.4142 2.58579C22.7893 2.96086 23 3.46957 23 4V16C23 16.5304 22.7893 17.0391 22.4142 17.4142C22.0391 17.7893 21.5304 18 21 18H14V20H16V22H8V20H10V18H3C2.46957 18 1.96086 17.7893 1.58579 17.4142C1.21071 17.0391 1 16.5304 1 16V4C1 2.89 1.89 2 3 2H21Z" fill="currentColor"/>
<path d="M17.8327 6C17.6427 6.00005 17.4557 6.0498 17.2877 6.14491C17.1198 6.24003 16.9761 6.37763 16.8691 6.54578C16.7621 6.71392 16.695 6.90752 16.6737 7.10975C16.6524 7.31198 16.6775 7.51673 16.7469 7.7062L14.2921 10.3364C14.0184 10.221 13.7141 10.221 13.4405 10.3364L11.6856 8.45618C11.7551 8.26666 11.7803 8.06183 11.7591 7.85949C11.7379 7.65714 11.6708 7.46342 11.5638 7.29517C11.4568 7.12691 11.313 6.98922 11.145 6.89406C10.977 6.7989 10.7899 6.74916 10.5998 6.74916C10.4098 6.74916 10.2226 6.7989 10.0546 6.89406C9.88662 6.98922 9.74286 7.12691 9.63584 7.29517C9.52881 7.46342 9.46177 7.65714 9.44054 7.85949C9.41931 8.06183 9.44454 8.26666 9.51403 8.45618L6.59261 11.5864C6.34311 11.4815 6.06752 11.4719 5.81218 11.5591C5.55684 11.6464 5.33732 11.8252 5.19054 12.0654C5.04375 12.3057 4.97864 12.5928 5.00617 12.8784C5.0337 13.1641 5.15218 13.4308 5.34169 13.6339C5.5312 13.8369 5.78018 13.9639 6.04677 13.9934C6.31336 14.0229 6.58129 13.9531 6.80553 13.7958C7.02976 13.6386 7.19662 13.4034 7.27804 13.1298C7.35945 12.8562 7.35047 12.5609 7.2526 12.2936L10.174 9.16335C10.4477 9.27876 10.752 9.27876 11.0256 9.16335L12.7805 11.0436C12.711 11.2331 12.6858 11.438 12.707 11.6403C12.7282 11.8426 12.7952 12.0364 12.9023 12.2046C13.0093 12.3729 13.1531 12.5106 13.3211 12.6057C13.4891 12.7009 13.6762 12.7506 13.8663 12.7506C14.0563 12.7506 14.2435 12.7009 14.4115 12.6057C14.5795 12.5106 14.7232 12.3729 14.8303 12.2046C14.9373 12.0364 15.0043 11.8426 15.0255 11.6403C15.0468 11.438 15.0215 11.2331 14.9521 11.0436L17.4068 8.41337C17.5666 8.48061 17.7382 8.50926 17.9095 8.49727C18.0807 8.48528 18.2474 8.43295 18.3976 8.34402C18.5478 8.25508 18.6779 8.13172 18.7785 7.98275C18.8791 7.83377 18.9478 7.66284 18.9797 7.48215C19.0116 7.30146 19.0059 7.11546 18.9629 6.93741C18.92 6.75936 18.841 6.59365 18.7314 6.45209C18.6219 6.31054 18.4845 6.19663 18.3292 6.11848C18.1738 6.04034 18.0043 5.99988 17.8327 6Z" fill="currentColor"/>
</svg>
