<svg width="14" height="14" viewBox="0 0 14 14" fill="none" xmlns="http://www.w3.org/2000/svg">
<path d="M1 0H0V13C0 13.2652 0.105357 13.5196 0.292893 13.7071C0.48043 13.8946 0.734784 14 1 14H14V13H1V0Z" fill="currentColor"/>
<path d="M14 3.5H10.5V4.5H12.295L8.5 8.295L6.355 6.145C6.30852 6.09814 6.25322 6.06094 6.19229 6.03555C6.13136 6.01017 6.06601 5.9971 6 5.9971C5.93399 5.9971 5.86864 6.01017 5.80771 6.03555C5.74678 6.06094 5.69148 6.09814 5.645 6.145L2 9.795L2.705 10.5L6 7.205L8.145 9.355C8.19148 9.40186 8.24678 9.43906 8.30771 9.46445C8.36864 9.48983 8.43399 9.5029 8.5 9.5029C8.56601 9.5029 8.63136 9.48983 8.69229 9.46445C8.75322 9.43906 8.80852 9.40186 8.855 9.355L13 5.205V7H14V3.5Z" fill="currentColor"/>
</svg>
