<svg width="16" height="14" viewBox="0 0 16 14" fill="none" xmlns="http://www.w3.org/2000/svg">
<path d="M7.46078 8.28209C7.27622 8.28264 7.09635 8.34031 6.94588 8.44717C6.79541 8.55404 6.68171 8.70487 6.62039 8.87895H5.96862V9.47581H6.62039C6.68171 9.64989 6.79541 9.80072 6.94588 9.90759C7.09635 10.0145 7.27622 10.0721 7.46078 10.0727C7.95438 10.0727 8.35607 9.67099 8.35607 9.17738C8.35607 8.68378 7.95438 8.28209 7.46078 8.28209ZM7.46078 9.47581C7.38159 9.47577 7.30566 9.44428 7.24969 9.38825C7.19372 9.33223 7.1623 9.25627 7.16234 9.17708C7.16238 9.09789 7.19388 9.02197 7.2499 8.966C7.30592 8.91003 7.38189 8.87861 7.46107 8.87865C7.54026 8.87869 7.61619 8.91019 7.67216 8.96621C7.72812 9.02223 7.75954 9.09819 7.7595 9.17738C7.75946 9.25657 7.72797 9.3325 7.67195 9.38846C7.61592 9.44443 7.53996 9.47585 7.46078 9.47581ZM6.86391 10.968C6.72604 10.968 6.59712 11.002 6.48043 11.0575L5.65974 10.2374L5.23806 10.6594L6.05845 11.4798C6.00264 11.5962 5.96862 11.7254 5.96862 11.8633C5.96862 12.3569 6.37031 12.7585 6.86391 12.7585C7.35752 12.7585 7.75921 12.3569 7.75921 11.8633C7.75921 11.3697 7.35752 10.968 6.86391 10.968ZM6.86391 12.1617C6.78472 12.1616 6.7088 12.1302 6.65283 12.0741C6.59686 12.0181 6.56544 11.9421 6.56548 11.863C6.56552 11.7838 6.59702 11.7078 6.65304 11.6519C6.70906 11.5959 6.78502 11.5645 6.86421 11.5645C6.90342 11.5645 6.94224 11.5723 6.97846 11.5873C7.01468 11.6023 7.04758 11.6243 7.0753 11.6521C7.10301 11.6798 7.12498 11.7128 7.13997 11.749C7.15496 11.7852 7.16266 11.824 7.16264 11.8633C7.16262 11.9025 7.15488 11.9413 7.13986 11.9775C7.12483 12.0137 7.10282 12.0466 7.07509 12.0743C7.04735 12.1021 7.01442 12.124 6.97819 12.139C6.94195 12.154 6.90312 12.1617 6.86391 12.1617ZM6.86391 5.59621C6.37031 5.59621 5.96862 5.9979 5.96862 6.4915C5.96862 6.62938 6.00264 6.7583 6.05815 6.87499L5.16763 7.76551L5.58991 8.18749L6.48043 7.29727C6.59682 7.35307 6.72604 7.3871 6.86391 7.3871C7.35752 7.3871 7.75921 6.98541 7.75921 6.4918C7.75921 5.9982 7.35752 5.59621 6.86391 5.59621ZM6.86391 6.79023C6.78472 6.79019 6.7088 6.7587 6.65283 6.70268C6.59686 6.64665 6.56544 6.57069 6.56548 6.4915C6.56552 6.41232 6.59702 6.33639 6.65304 6.28042C6.70906 6.22445 6.78502 6.19303 6.86421 6.19307C6.94336 6.19311 7.01925 6.22459 7.07519 6.28059C7.13113 6.33658 7.16253 6.41251 7.16249 6.49165C7.16245 6.5708 7.13097 6.64669 7.07498 6.70263C7.01898 6.75857 6.94306 6.78998 6.86391 6.78994M4.17803 13.3554C1.87415 13.3554 0 11.4813 0 9.17738C0 6.8735 1.87415 4.99935 4.17803 4.99935C4.73461 4.99935 5.27536 5.10708 5.78509 5.31957L5.55529 5.87047C5.11904 5.68829 4.6508 5.59505 4.17803 5.59621C2.20332 5.59621 0.596862 7.20267 0.596862 9.17738C0.596862 11.1521 2.20332 12.7585 4.17803 12.7585C4.65552 12.7585 5.11869 12.666 5.55529 12.4843L5.78509 13.0352C5.27602 13.2477 4.72968 13.3566 4.17803 13.3554ZM4.17803 10.3711C3.5197 10.3711 2.98431 9.83572 2.98431 9.17738C2.98431 8.51904 3.5197 7.98366 4.17803 7.98366C4.83637 7.98366 5.37176 8.51904 5.37176 9.17738C5.37176 9.83572 4.83637 10.3711 4.17803 10.3711ZM4.17803 8.58052C3.84916 8.58052 3.58117 8.84851 3.58117 9.17738C3.58117 9.50625 3.84916 9.77424 4.17803 9.77424C4.50691 9.77424 4.7749 9.50655 4.7749 9.17738C4.7749 8.84821 4.5072 8.58052 4.17803 8.58052Z" fill="currentColor"/>
<path d="M3.73438 3.68472C3.81079 2.99554 4.09689 2.3398 4.56016 1.792C5.02344 1.2442 5.64532 0.826311 6.35513 0.585819C7.06494 0.345327 7.83423 0.291873 8.57558 0.431532C9.31693 0.571192 10.0006 0.898363 10.5489 1.37587C11.0973 1.85338 11.4883 2.46208 11.6775 3.13279H12.3148C12.9854 3.13279 13.6287 3.37663 14.1029 3.81067C14.5772 4.24471 14.8436 4.83339 14.8436 5.44721C14.8436 6.06104 14.5772 6.64972 14.1029 7.08376C13.6287 7.51779 12.9854 7.76163 12.3148 7.76163H9.86441" stroke="url(#paint0_linear_22019_27149)" stroke-width="0.710985" stroke-linecap="round" stroke-linejoin="round"/>
<defs>
<linearGradient id="paint0_linear_22019_27149" x1="9.27956" y1="0.355492" x2="9.27956" y2="7.76163" gradientUnits="userSpaceOnUse">
<stop stop-color="#718F9D"/>
<stop offset="1" stop-color="#7A9CFF" stop-opacity="0.58"/>
</linearGradient>
</defs>
</svg>
