<svg width="37" height="31" viewBox="0 0 37 31" fill="none" xmlns="http://www.w3.org/2000/svg">
<line x1="18.2534" y1="11.5469" x2="18.2534" y2="16.3451" stroke="currentColor" stroke-width="0.553636"/>
<line x1="8.28463" y1="11.5469" x2="8.28463" y2="16.3451" stroke="currentColor" stroke-width="0.553636"/>
<line x1="18.2534" y1="20.4023" x2="18.2534" y2="25.5696" stroke="currentColor" stroke-width="0.553636"/>
<line x1="8.28463" y1="20.4023" x2="8.28463" y2="25.5696" stroke="currentColor" stroke-width="0.553636"/>
<path d="M1.27682 11.916C1.27682 11.865 1.31813 11.8237 1.36909 11.8237H21.6691C21.7201 11.8237 21.7614 11.865 21.7614 11.916V15.976C21.7614 16.0269 21.7201 16.0682 21.6691 16.0682H1.27682V11.916Z" stroke="currentColor" stroke-width="0.553636"/>
<line y1="-0.276818" x2="4.79818" y2="-0.276818" transform="matrix(3.7467e-08 1 1 -3.7467e-08 5.0625 25.207)" stroke="currentColor" stroke-width="0.553636"/>
<line y1="-0.276818" x2="4.79818" y2="-0.276818" transform="matrix(3.7467e-08 1 1 -3.7467e-08 14.293 25.207)" stroke="currentColor" stroke-width="0.553636"/>
<path d="M21.7544 25.5761C21.7544 25.5252 21.7131 25.4838 21.6622 25.4838H1.26988V29.6361C1.26988 29.6871 1.3112 29.7284 1.36216 29.7284H21.6622C21.7131 29.7284 21.7544 29.6871 21.7544 29.6361V25.5761Z" stroke="currentColor" stroke-width="0.553636"/>
<path d="M1.27682 16.2534H21.7614V20.4057C21.7614 20.4566 21.7201 20.4979 21.6691 20.4979H1.27682V16.2534Z" stroke="currentColor" stroke-width="0.553636"/>
<line x1="13.4565" y1="15.9766" x2="13.4565" y2="20.4057" stroke="currentColor" stroke-width="0.553636"/>
<line x1="4.96822" y1="15.9766" x2="4.96822" y2="20.4057" stroke="currentColor" stroke-width="0.553636"/>
<rect x="1.27682" y="20.6792" width="20.4845" height="4.61364" stroke="currentColor" stroke-width="0.553636"/>
<path d="M11.5781 8.11062C11.7419 6.63866 12.3552 5.23811 13.3483 4.06812C14.3414 2.89812 15.6744 2.00559 17.196 1.49194C18.7176 0.97829 20.3666 0.864123 21.9558 1.16241C23.5449 1.4607 25.0105 2.15948 26.1859 3.17935C27.3613 4.19922 28.1994 5.49928 28.605 6.93182H29.9711C31.4088 6.93182 32.7876 7.45262 33.8042 8.37964C34.8208 9.30667 35.3919 10.564 35.3919 11.875C35.3919 13.186 34.8208 14.4433 33.8042 15.3704C32.7876 16.2974 31.4088 16.8182 29.9711 16.8182H24.7185" stroke="url(#paint0_linear_215_24117)" stroke-width="1.51853" stroke-linecap="round" stroke-linejoin="round"/>
<defs>
<linearGradient id="paint0_linear_215_24117" x1="23.4648" y1="1" x2="23.4648" y2="16.8182" gradientUnits="userSpaceOnUse">
<stop stop-color="#718F9D"/>
<stop offset="1" stop-color="#7A9CFF" stop-opacity="0.58"/>
</linearGradient>
</defs>
</svg>
