<svg width="11" height="10" viewBox="0 0 11 10" fill="none" xmlns="http://www.w3.org/2000/svg">
<path fill-rule="evenodd" clip-rule="evenodd" d="M1.64124 0.5H2.84655C3.2001 0.5 3.48768 0.78771 3.48768 1.14108V2.34618C3.48768 2.69955 3.2001 2.98706 2.84655 2.98706H1.64124C1.28768 2.98706 1 2.69955 1 2.34618V1.14108C1 0.78771 1.28768 0.5 1.64124 0.5ZM2.84461 2.66932C3.02254 2.66932 3.16748 2.52441 3.16748 2.34663V1.14153C3.16748 0.963444 3.02254 0.81864 2.84461 0.81864H1.6393C1.46117 0.81864 1.31633 0.963444 1.31633 1.14153V2.34663C1.31633 2.52441 1.46117 2.66932 1.6393 2.66932H2.84461Z" fill="currentColor"/>
<path d="M2.84655 0.35H1.64124V0.65H2.84655V0.35ZM3.63768 1.14108C3.63768 0.704878 3.28295 0.35 2.84655 0.35V0.65C3.11725 0.65 3.33768 0.870543 3.33768 1.14108H3.63768ZM3.63768 2.34618V1.14108H3.33768V2.34618H3.63768ZM2.84655 3.13706C3.28289 3.13706 3.63768 2.78244 3.63768 2.34618H3.33768C3.33768 2.61666 3.11731 2.83706 2.84655 2.83706V3.13706ZM1.64124 3.13706H2.84655V2.83706H1.64124V3.13706ZM0.85 2.34618C0.85 2.78247 1.20492 3.13706 1.64124 3.13706V2.83706C1.37044 2.83706 1.15 2.61663 1.15 2.34618H0.85ZM0.85 1.14108V2.34618H1.15V1.14108H0.85ZM1.64124 0.35C1.20486 0.35 0.85 0.704847 0.85 1.14108H1.15C1.15 0.870573 1.3705 0.65 1.64124 0.65V0.35ZM3.01748 2.34663C3.01748 2.4415 2.93976 2.51932 2.84461 2.51932V2.81932C3.10532 2.81932 3.31748 2.60732 3.31748 2.34663H3.01748ZM3.01748 1.14153V2.34663H3.31748V1.14153H3.01748ZM2.84461 0.96864C2.93973 0.96864 3.01748 1.04632 3.01748 1.14153H3.31748C3.31748 0.880566 3.10535 0.66864 2.84461 0.66864V0.96864ZM1.6393 0.96864H2.84461V0.66864H1.6393V0.96864ZM1.46633 1.14153C1.46633 1.04632 1.54398 0.96864 1.6393 0.96864V0.66864C1.37837 0.66864 1.16633 0.880566 1.16633 1.14153H1.46633ZM1.46633 2.34663V1.14153H1.16633V2.34663H1.46633ZM1.6393 2.51932C1.54395 2.51932 1.46633 2.4415 1.46633 2.34663H1.16633C1.16633 2.60732 1.3784 2.81932 1.6393 2.81932V2.51932ZM2.84461 2.51932H1.6393V2.81932H2.84461V2.51932Z" fill="currentColor"/>
<path fill-rule="evenodd" clip-rule="evenodd" d="M8.14906 0.5H9.35438C9.70794 0.5 9.99562 0.78771 9.99562 1.14108V2.34618C9.99562 2.69955 9.70794 2.98706 9.35438 2.98706H8.14906C7.7955 2.98706 7.50781 2.69955 7.50781 2.34618V1.14108C7.50781 0.78771 7.7955 0.5 8.14906 0.5ZM9.35218 2.66932C9.53031 2.66932 9.67515 2.52441 9.67515 2.34663V1.14153C9.67515 0.963444 9.53031 0.81864 9.35218 0.81864H8.14688C7.96885 0.81864 7.82401 0.963444 7.82401 1.14153V2.34663C7.82401 2.52441 7.96885 2.66932 8.14688 2.66932H9.35218Z" fill="currentColor"/>
<path d="M9.35438 0.35H8.14906V0.65H9.35438V0.35ZM10.1456 1.14108C10.1456 0.704846 9.79076 0.35 9.35438 0.35V0.65C9.62511 0.65 9.84562 0.870575 9.84562 1.14108H10.1456ZM10.1456 2.34618V1.14108H9.84562V2.34618H10.1456ZM9.35438 3.13706C9.7907 3.13706 10.1456 2.78247 10.1456 2.34618H9.84562C9.84562 2.61662 9.62517 2.83706 9.35438 2.83706V3.13706ZM8.14906 3.13706H9.35438V2.83706H8.14906V3.13706ZM7.35781 2.34618C7.35781 2.78247 7.71274 3.13706 8.14906 3.13706V2.83706C7.87826 2.83706 7.65781 2.61662 7.65781 2.34618H7.35781ZM7.35781 1.14108V2.34618H7.65781V1.14108H7.35781ZM8.14906 0.35C7.71268 0.35 7.35781 0.704846 7.35781 1.14108H7.65781C7.65781 0.870575 7.87832 0.65 8.14906 0.65V0.35ZM9.52515 2.34663C9.52515 2.44151 9.44753 2.51932 9.35218 2.51932V2.81932C9.61309 2.81932 9.82515 2.60732 9.82515 2.34663H9.52515ZM9.52515 1.14153V2.34663H9.82515V1.14153H9.52515ZM9.35218 0.96864C9.4475 0.96864 9.52515 1.04632 9.52515 1.14153H9.82515C9.82515 0.880566 9.61312 0.66864 9.35218 0.66864V0.96864ZM8.14688 0.96864H9.35218V0.66864H8.14688V0.96864ZM7.97401 1.14153C7.97401 1.04629 8.05169 0.96864 8.14688 0.96864V0.66864C7.88601 0.66864 7.67401 0.880596 7.67401 1.14153H7.97401ZM7.97401 2.34663V1.14153H7.67401V2.34663H7.97401ZM8.14688 2.51932C8.05166 2.51932 7.97401 2.44154 7.97401 2.34663H7.67401C7.67401 2.60729 7.88604 2.81932 8.14688 2.81932V2.51932ZM9.35218 2.51932H8.14688V2.81932H9.35218V2.51932Z" fill="currentColor"/>
<path fill-rule="evenodd" clip-rule="evenodd" d="M4.90091 0.5H6.10602C6.45958 0.5 6.74726 0.78771 6.74736 1.14108V2.34618C6.74736 2.69955 6.45968 2.98706 6.10612 2.98706H4.90091C4.54745 2.98706 4.25977 2.69955 4.25977 2.34618V1.14108C4.25977 0.78771 4.54745 0.5 4.90091 0.5ZM6.10452 2.66932C6.28275 2.66932 6.42749 2.52441 6.42749 2.34663V1.14153C6.42749 0.963444 6.28275 0.81864 6.10452 0.81864H4.8993C4.72117 0.81864 4.57632 0.963444 4.57632 1.14153V2.34663C4.57632 2.52441 4.72117 2.66932 4.8993 2.66932H6.10452Z" fill="currentColor"/>
<path d="M6.74736 1.14108H6.89736V1.14103L6.74736 1.14108ZM6.10602 0.35H4.90091V0.65H6.10602V0.35ZM6.89736 1.14103C6.89724 0.704845 6.54241 0.35 6.10602 0.35V0.65C6.37675 0.65 6.59729 0.870575 6.59736 1.14112L6.89736 1.14103ZM6.89736 2.34618V1.14108H6.59736V2.34618H6.89736ZM6.10612 3.13706C6.54244 3.13706 6.89736 2.78247 6.89736 2.34618H6.59736C6.59736 2.61662 6.37692 2.83706 6.10612 2.83706V3.13706ZM4.90091 3.13706H6.10612V2.83706H4.90091V3.13706ZM4.10977 2.34618C4.10977 2.78246 4.46467 3.13706 4.90091 3.13706V2.83706C4.63023 2.83706 4.40977 2.61664 4.40977 2.34618H4.10977ZM4.10977 1.14108V2.34618H4.40977V1.14108H4.10977ZM4.90091 0.35C4.46461 0.35 4.10977 0.704862 4.10977 1.14108H4.40977C4.40977 0.870559 4.63029 0.65 4.90091 0.65V0.35ZM6.27749 2.34663C6.27749 2.44153 6.19994 2.51932 6.10452 2.51932V2.81932C6.36555 2.81932 6.57749 2.60729 6.57749 2.34663H6.27749ZM6.27749 1.14153V2.34663H6.57749V1.14153H6.27749ZM6.10452 0.96864C6.19991 0.96864 6.27749 1.04629 6.27749 1.14153H6.57749C6.57749 0.880595 6.36558 0.66864 6.10452 0.66864V0.96864ZM4.8993 0.96864H6.10452V0.66864H4.8993V0.96864ZM4.72632 1.14153C4.72632 1.04632 4.80397 0.96864 4.8993 0.96864V0.66864C4.63836 0.66864 4.42632 0.880564 4.42632 1.14153H4.72632ZM4.72632 2.34663V1.14153H4.42632V2.34663H4.72632ZM4.8993 2.51932C4.80394 2.51932 4.72632 2.4415 4.72632 2.34663H4.42632C4.42632 2.60732 4.63839 2.81932 4.8993 2.81932V2.51932ZM6.10452 2.51932H4.8993V2.81932H6.10452V2.51932Z" fill="currentColor"/>
<path fill-rule="evenodd" clip-rule="evenodd" d="M1.64124 7.01273H2.84655C3.2001 7.01273 3.48768 7.30044 3.48768 7.6538V8.85891C3.48768 9.21228 3.2001 9.49999 2.84655 9.49999H1.64124C1.28768 9.49999 1 9.21228 1 8.85891V7.6538C1 7.30044 1.28768 7.01273 1.64124 7.01273ZM2.84461 9.18202C3.02254 9.18202 3.16748 9.03721 3.16748 8.85913V7.65403C3.16748 7.47604 3.02254 7.33134 2.84461 7.33134H1.6393C1.46117 7.33134 1.31633 7.47604 1.31633 7.65403V8.85913C1.31633 9.03721 1.46117 9.18202 1.6393 9.18202H2.84461Z" fill="currentColor"/>
<path d="M2.84655 6.86273H1.64124V7.16273H2.84655V6.86273ZM3.63768 7.6538C3.63768 7.2176 3.28295 6.86273 2.84655 6.86273V7.16273C3.11725 7.16273 3.33768 7.38327 3.33768 7.6538H3.63768ZM3.63768 8.85891V7.6538H3.33768V8.85891H3.63768ZM2.84655 9.64999C3.28295 9.64999 3.63768 9.29511 3.63768 8.85891H3.33768C3.33768 9.12945 3.11725 9.34999 2.84655 9.34999V9.64999ZM1.64124 9.64999H2.84655V9.34999H1.64124V9.64999ZM0.85 8.85891C0.85 9.29514 1.20486 9.64999 1.64124 9.64999V9.34999C1.37051 9.34999 1.15 9.12942 1.15 8.85891H0.85ZM0.85 7.6538V8.85891H1.15V7.6538H0.85ZM1.64124 6.86273C1.20486 6.86273 0.85 7.21757 0.85 7.6538H1.15C1.15 7.3833 1.37051 7.16273 1.64124 7.16273V6.86273ZM3.01748 8.85913C3.01748 8.95434 2.93973 9.03202 2.84461 9.03202V9.33202C3.10535 9.33202 3.31748 9.12009 3.31748 8.85913H3.01748ZM3.01748 7.65403V8.85913H3.31748V7.65403H3.01748ZM2.84461 7.48134C2.93982 7.48134 3.01748 7.55901 3.01748 7.65403H3.31748C3.31748 7.39308 3.10525 7.18134 2.84461 7.18134V7.48134ZM1.6393 7.48134H2.84461V7.18134H1.6393V7.48134ZM1.46633 7.65403C1.46633 7.55901 1.54389 7.48134 1.6393 7.48134V7.18134C1.37846 7.18134 1.16633 7.39308 1.16633 7.65403H1.46633ZM1.46633 8.85913V7.65403H1.16633V8.85913H1.46633ZM1.6393 9.03202C1.54398 9.03202 1.46633 8.95434 1.46633 8.85913H1.16633C1.16633 9.12009 1.37837 9.33202 1.6393 9.33202V9.03202ZM2.84461 9.03202H1.6393V9.33202H2.84461V9.03202Z" fill="currentColor"/>
<path fill-rule="evenodd" clip-rule="evenodd" d="M8.14906 7.01273H9.35438C9.70794 7.01273 9.99562 7.30044 9.99562 7.6538V8.85891C9.99562 9.21228 9.70794 9.49999 9.35438 9.49999H8.14906C7.7955 9.49999 7.50781 9.21228 7.50781 8.85891V7.6538C7.50781 7.30044 7.7955 7.01273 8.14906 7.01273ZM9.35218 9.18202C9.53031 9.18202 9.67515 9.03721 9.67515 8.85913V7.65403C9.67515 7.47604 9.53031 7.33134 9.35218 7.33134H8.14688C7.96885 7.33134 7.82401 7.47604 7.82401 7.65403V8.85913C7.82401 9.03721 7.96885 9.18202 8.14688 9.18202H9.35218Z" fill="currentColor"/>
<path d="M9.35438 6.86273H8.14906V7.16273H9.35438V6.86273ZM10.1456 7.6538C10.1456 7.21757 9.79076 6.86273 9.35438 6.86273V7.16273C9.62511 7.16273 9.84562 7.3833 9.84562 7.6538H10.1456ZM10.1456 8.85891V7.6538H9.84562V8.85891H10.1456ZM9.35438 9.64999C9.79076 9.64999 10.1456 9.29514 10.1456 8.85891H9.84562C9.84562 9.12942 9.62511 9.34999 9.35438 9.34999V9.64999ZM8.14906 9.64999H9.35438V9.34999H8.14906V9.64999ZM7.35781 8.85891C7.35781 9.29514 7.71268 9.64999 8.14906 9.64999V9.34999C7.87832 9.34999 7.65781 9.12942 7.65781 8.85891H7.35781ZM7.35781 7.6538V8.85891H7.65781V7.6538H7.35781ZM8.14906 6.86273C7.71268 6.86273 7.35781 7.21757 7.35781 7.6538H7.65781C7.65781 7.3833 7.87832 7.16273 8.14906 7.16273V6.86273ZM9.52515 8.85913C9.52515 8.95434 9.4475 9.03202 9.35218 9.03202V9.33202C9.61312 9.33202 9.82515 9.12009 9.82515 8.85913H9.52515ZM9.52515 7.65403V8.85913H9.82515V7.65403H9.52515ZM9.35218 7.48134C9.4476 7.48134 9.52515 7.55901 9.52515 7.65403H9.82515C9.82515 7.39308 9.61303 7.18134 9.35218 7.18134V7.48134ZM8.14688 7.48134H9.35218V7.18134H8.14688V7.48134ZM7.97401 7.65403C7.97401 7.55898 8.0516 7.48134 8.14688 7.48134V7.18134C7.88611 7.18134 7.67401 7.39311 7.67401 7.65403H7.97401ZM7.97401 8.85913V7.65403H7.67401V8.85913H7.97401ZM8.14688 9.03202C8.05169 9.03202 7.97401 8.95437 7.97401 8.85913H7.67401C7.67401 9.12006 7.88601 9.33202 8.14688 9.33202V9.03202ZM9.35218 9.03202H8.14688V9.33202H9.35218V9.03202Z" fill="currentColor"/>
<path fill-rule="evenodd" clip-rule="evenodd" d="M4.90091 7.01273H6.10602C6.45958 7.01273 6.74726 7.30044 6.74736 7.6538V8.85891C6.74736 9.21228 6.45968 9.49999 6.10612 9.49999H4.90091C4.54745 9.49999 4.25977 9.21228 4.25977 8.85891V7.6538C4.25977 7.30044 4.54745 7.01273 4.90091 7.01273ZM6.10452 9.18202C6.28275 9.18202 6.42749 9.03721 6.42749 8.85913V7.65403C6.42749 7.47604 6.28275 7.33134 6.10452 7.33134H4.8993C4.72117 7.33134 4.57632 7.47604 4.57632 7.65403V8.85913C4.57632 9.03721 4.72117 9.18202 4.8993 9.18202H6.10452Z" fill="currentColor"/>
<path d="M6.74736 7.6538H6.89736V7.65376L6.74736 7.6538ZM6.10602 6.86273H4.90091V7.16273H6.10602V6.86273ZM6.89736 7.65376C6.89724 7.21757 6.54241 6.86273 6.10602 6.86273V7.16273C6.37675 7.16273 6.59729 7.3833 6.59736 7.65385L6.89736 7.65376ZM6.89736 8.85891V7.6538H6.59736V8.85891H6.89736ZM6.10612 9.64999C6.5425 9.64999 6.89736 9.29514 6.89736 8.85891H6.59736C6.59736 9.12942 6.37686 9.34999 6.10612 9.34999V9.64999ZM4.90091 9.64999H6.10612V9.34999H4.90091V9.64999ZM4.10977 8.85891C4.10977 9.29513 4.46461 9.64999 4.90091 9.64999V9.34999C4.63029 9.34999 4.40977 9.12943 4.40977 8.85891H4.10977ZM4.10977 7.6538V8.85891H4.40977V7.6538H4.10977ZM4.90091 6.86273C4.46461 6.86273 4.10977 7.21759 4.10977 7.6538H4.40977C4.40977 7.38328 4.63029 7.16273 4.90091 7.16273V6.86273ZM6.27749 8.85913C6.27749 8.95436 6.19991 9.03202 6.10452 9.03202V9.33202C6.36558 9.33202 6.57749 9.12006 6.57749 8.85913H6.27749ZM6.27749 7.65403V8.85913H6.57749V7.65403H6.27749ZM6.10452 7.48134C6.2 7.48134 6.27749 7.55899 6.27749 7.65403H6.57749C6.57749 7.3931 6.36549 7.18134 6.10452 7.18134V7.48134ZM4.8993 7.48134H6.10452V7.18134H4.8993V7.48134ZM4.72632 7.65403C4.72632 7.55902 4.80388 7.48134 4.8993 7.48134V7.18134C4.63845 7.18134 4.42632 7.39307 4.42632 7.65403H4.72632ZM4.72632 8.85913V7.65403H4.42632V8.85913H4.72632ZM4.8993 9.03202C4.80397 9.03202 4.72632 8.95433 4.72632 8.85913H4.42632C4.42632 9.12009 4.63836 9.33202 4.8993 9.33202V9.03202ZM6.10452 9.03202H4.8993V9.33202H6.10452V9.03202Z" fill="currentColor"/>
<path fill-rule="evenodd" clip-rule="evenodd" d="M1.64124 3.75285H2.84655C3.2001 3.75285 3.48768 4.04056 3.48768 4.39393V5.59884C3.48768 5.9522 3.2001 6.23991 2.84655 6.23991H1.64124C1.28768 6.23991 1 5.9522 1 5.59884V4.39393C1 4.04056 1.28768 3.75285 1.64124 3.75285ZM2.84461 5.92206C3.02254 5.92206 3.16748 5.77735 3.16748 5.59917V4.39436C3.16748 4.21618 3.02254 4.07148 2.84461 4.07148H1.6393C1.46117 4.07148 1.31633 4.21618 1.31633 4.39436V5.59917C1.31633 5.77735 1.46117 5.92206 1.6393 5.92206H2.84461Z" fill="currentColor"/>
<path d="M2.84655 3.60285H1.64124V3.90285H2.84655V3.60285ZM3.63768 4.39393C3.63768 3.95773 3.28295 3.60285 2.84655 3.60285V3.90285C3.11725 3.90285 3.33768 4.1234 3.33768 4.39393H3.63768ZM3.63768 5.59884V4.39393H3.33768V5.59884H3.63768ZM2.84655 6.38991C3.28295 6.38991 3.63768 6.03504 3.63768 5.59884H3.33768C3.33768 5.86937 3.11725 6.08991 2.84655 6.08991V6.38991ZM1.64124 6.38991H2.84655V6.08991H1.64124V6.38991ZM0.85 5.59884C0.85 6.03507 1.20486 6.38991 1.64124 6.38991V6.08991C1.3705 6.08991 1.15 5.86934 1.15 5.59884H0.85ZM0.85 4.39393V5.59884H1.15V4.39393H0.85ZM1.64124 3.60285C1.20486 3.60285 0.85 3.9577 0.85 4.39393H1.15C1.15 4.12343 1.3705 3.90285 1.64124 3.90285V3.60285ZM3.01748 5.59917C3.01748 5.69444 2.93976 5.77206 2.84461 5.77206V6.07206C3.10532 6.07206 3.31748 5.86026 3.31748 5.59917H3.01748ZM3.01748 4.39436V5.59917H3.31748V4.39436H3.01748ZM2.84461 4.22148C2.93976 4.22148 3.01748 4.29909 3.01748 4.39436H3.31748C3.31748 4.13327 3.10532 3.92148 2.84461 3.92148V4.22148ZM1.6393 4.22148H2.84461V3.92148H1.6393V4.22148ZM1.46633 4.39436C1.46633 4.29909 1.54395 4.22148 1.6393 4.22148V3.92148C1.3784 3.92148 1.16633 4.13327 1.16633 4.39436H1.46633ZM1.46633 5.59917V4.39436H1.16633V5.59917H1.46633ZM1.6393 5.77206C1.54395 5.77206 1.46633 5.69444 1.46633 5.59917H1.16633C1.16633 5.86026 1.3784 6.07206 1.6393 6.07206V5.77206ZM2.84461 5.77206H1.6393V6.07206H2.84461V5.77206Z" fill="currentColor"/>
<path fill-rule="evenodd" clip-rule="evenodd" d="M8.14906 3.75285H9.35438C9.70794 3.75285 9.99562 4.04056 9.99562 4.39393V5.59884C9.99562 5.9522 9.70794 6.23991 9.35438 6.23991H8.14906C7.7955 6.23991 7.50781 5.9522 7.50781 5.59884V4.39393C7.50781 4.04056 7.7955 3.75285 8.14906 3.75285ZM9.35218 5.92206C9.53031 5.92206 9.67515 5.77735 9.67515 5.59917V4.39436C9.67515 4.21618 9.53031 4.07148 9.35218 4.07148H8.14688C7.96885 4.07148 7.82401 4.21618 7.82401 4.39436V5.59917C7.82401 5.77735 7.96885 5.92206 8.14688 5.92206H9.35218Z" fill="currentColor"/>
<path d="M9.35438 3.60285H8.14906V3.90285H9.35438V3.60285ZM10.1456 4.39393C10.1456 3.9577 9.79076 3.60285 9.35438 3.60285V3.90285C9.62511 3.90285 9.84562 4.12343 9.84562 4.39393H10.1456ZM10.1456 5.59884V4.39393H9.84562V5.59884H10.1456ZM9.35438 6.38991C9.79076 6.38991 10.1456 6.03507 10.1456 5.59884H9.84562C9.84562 5.86934 9.62511 6.08991 9.35438 6.08991V6.38991ZM8.14906 6.38991H9.35438V6.08991H8.14906V6.38991ZM7.35781 5.59884C7.35781 6.03507 7.71268 6.38991 8.14906 6.38991V6.08991C7.87832 6.08991 7.65781 5.86934 7.65781 5.59884H7.35781ZM7.35781 4.39393V5.59884H7.65781V4.39393H7.35781ZM8.14906 3.60285C7.71268 3.60285 7.35781 3.9577 7.35781 4.39393H7.65781C7.65781 4.12343 7.87832 3.90285 8.14906 3.90285V3.60285ZM9.52515 5.59917C9.52515 5.69444 9.44753 5.77206 9.35218 5.77206V6.07206C9.61309 6.07206 9.82515 5.86026 9.82515 5.59917H9.52515ZM9.52515 4.39436V5.59917H9.82515V4.39436H9.52515ZM9.35218 4.22148C9.44753 4.22148 9.52515 4.29909 9.52515 4.39436H9.82515C9.82515 4.13327 9.61309 3.92148 9.35218 3.92148V4.22148ZM8.14688 4.22148H9.35218V3.92148H8.14688V4.22148ZM7.97401 4.39436C7.97401 4.29906 8.05166 4.22148 8.14688 4.22148V3.92148C7.88604 3.92148 7.67401 4.1333 7.67401 4.39436H7.97401ZM7.97401 5.59917V4.39436H7.67401V5.59917H7.97401ZM8.14688 5.77206C8.05166 5.77206 7.97401 5.69447 7.97401 5.59917H7.67401C7.67401 5.86023 7.88604 6.07206 8.14688 6.07206V5.77206ZM9.35218 5.77206H8.14688V6.07206H9.35218V5.77206Z" fill="currentColor"/>
<path fill-rule="evenodd" clip-rule="evenodd" d="M4.90091 3.75285H6.10602C6.45958 3.75285 6.74726 4.04056 6.74736 4.39393V5.59884C6.74736 5.9522 6.45968 6.23991 6.10612 6.23991H4.90091C4.54745 6.23991 4.25977 5.9522 4.25977 5.59884V4.39393C4.25977 4.04056 4.54745 3.75285 4.90091 3.75285ZM6.10452 5.92206C6.28275 5.92206 6.42749 5.77735 6.42749 5.59917V4.39436C6.42749 4.21618 6.28275 4.07148 6.10452 4.07148H4.8993C4.72117 4.07148 4.57632 4.21618 4.57632 4.39436V5.59917C4.57632 5.77735 4.72117 5.92206 4.8993 5.92206H6.10452Z" fill="currentColor"/>
<path d="M6.74736 4.39393H6.89736V4.39389L6.74736 4.39393ZM6.10602 3.60285H4.90091V3.90285H6.10602V3.60285ZM6.89736 4.39389C6.89724 3.9577 6.54241 3.60285 6.10602 3.60285V3.90285C6.37675 3.90285 6.59729 4.12343 6.59736 4.39397L6.89736 4.39389ZM6.89736 5.59884V4.39393H6.59736V5.59884H6.89736ZM6.10612 6.38991C6.5425 6.38991 6.89736 6.03507 6.89736 5.59884H6.59736C6.59736 5.86934 6.37686 6.08991 6.10612 6.08991V6.38991ZM4.90091 6.38991H6.10612V6.08991H4.90091V6.38991ZM4.10977 5.59884C4.10977 6.03505 4.46461 6.38991 4.90091 6.38991V6.08991C4.63029 6.08991 4.40977 5.86935 4.40977 5.59884H4.10977ZM4.10977 4.39393V5.59884H4.40977V4.39393H4.10977ZM4.90091 3.60285C4.46461 3.60285 4.10977 3.95771 4.10977 4.39393H4.40977C4.40977 4.12341 4.63029 3.90285 4.90091 3.90285V3.60285ZM6.27749 5.59917C6.27749 5.69447 6.19994 5.77206 6.10452 5.77206V6.07206C6.36555 6.07206 6.57749 5.86023 6.57749 5.59917H6.27749ZM6.27749 4.39436V5.59917H6.57749V4.39436H6.27749ZM6.10452 4.22148C6.19994 4.22148 6.27749 4.29906 6.27749 4.39436H6.57749C6.57749 4.1333 6.36555 3.92148 6.10452 3.92148V4.22148ZM4.8993 4.22148H6.10452V3.92148H4.8993V4.22148ZM4.72632 4.39436C4.72632 4.29909 4.80394 4.22148 4.8993 4.22148V3.92148C4.63839 3.92148 4.42632 4.13327 4.42632 4.39436H4.72632ZM4.72632 5.59917V4.39436H4.42632V5.59917H4.72632ZM4.8993 5.77206C4.80394 5.77206 4.72632 5.69444 4.72632 5.59917H4.42632C4.42632 5.86026 4.63839 6.07206 4.8993 6.07206V5.77206ZM6.10452 5.77206H4.8993V6.07206H6.10452V5.77206Z" fill="currentColor"/>
</svg>
