<svg width="275" height="233" viewBox="0 0 275 233" fill="none" xmlns="http://www.w3.org/2000/svg">
<path d="M1.00024 91.5662C1.00024 89.9777 2.288 88.6899 3.87652 88.6899H162.074C163.663 88.6899 164.951 89.9777 164.951 91.5662V229.625C164.951 231.213 163.663 232.501 162.074 232.501H1.00024V91.5662Z" fill="#1A1C1E"/>
<line x1="135.456" y1="89.6899" x2="135.456" y2="127.081" stroke="#D4D6DB" stroke-width="4.31441"/>
<line x1="57.7693" y1="89.6899" x2="57.7693" y2="127.081" stroke="#D4D6DB" stroke-width="4.31441"/>
<line x1="133.157" y1="159" x2="133.157" y2="197" stroke="#D4D6DB" stroke-width="4.31441"/>
<line x1="59.1572" y1="159" x2="59.1572" y2="197" stroke="#D4D6DB" stroke-width="4.31441"/>
<path d="M3.15745 92.5662C3.15745 92.1691 3.47939 91.8471 3.87652 91.8471H162.074C162.472 91.8471 162.793 92.1691 162.793 92.5662V124.205C162.793 124.602 162.472 124.924 162.074 124.924H3.15745V92.5662Z" stroke="#D4D6DB" stroke-width="4.31441"/>
<line y1="-2.1572" x2="36" y2="-2.1572" transform="matrix(3.74683e-08 1 1 -3.74657e-08 34.9996 193.001)" stroke="#D4D6DB" stroke-width="4.31441"/>
<line y1="-2.1572" x2="36" y2="-2.1572" transform="matrix(3.74683e-08 1 1 -3.74657e-08 104 193.001)" stroke="#D4D6DB" stroke-width="4.31441"/>
<path d="M162.739 196.016C162.739 195.619 162.417 195.297 162.02 195.297H3.10291V227.654C3.10291 228.051 3.42484 228.373 3.82198 228.373H162.02C162.417 228.373 162.739 228.051 162.739 227.654V196.016Z" stroke="#D4D6DB" stroke-width="4.31441"/>
<path d="M3.15745 125.366H162.793V157.724C162.793 158.121 162.472 158.443 162.074 158.443H3.15745V125.366Z" stroke="#D4D6DB" stroke-width="4.31441"/>
<line x1="98.0737" y1="123.209" x2="98.0737" y2="157.724" stroke="#D4D6DB" stroke-width="4.31441"/>
<line x1="31.9245" y1="123.209" x2="31.9245" y2="157.724" stroke="#D4D6DB" stroke-width="4.31441"/>
<rect x="3.1572" y="158.855" width="159.636" height="35.9527" stroke="#D4D6DB" stroke-width="4.31441"/>
<path d="M83.4276 61.9121C84.7041 50.4415 89.4834 39.5274 97.2225 30.4099C104.962 21.2925 115.35 14.3372 127.208 10.3345C139.065 6.3318 151.916 5.44212 164.3 7.76659C176.685 10.0911 188.106 15.5364 197.266 23.484C206.426 31.4316 212.957 41.5626 216.118 52.726H226.764C237.968 52.726 248.713 56.7844 256.635 64.0085C264.558 71.2325 269.008 81.0305 269.008 91.2468C269.008 101.463 264.558 111.261 256.635 118.485C248.713 125.709 237.968 129.768 226.764 129.768H185.831" stroke="url(#paint0_linear_345_4601)" stroke-width="11.8337" stroke-linecap="round" stroke-linejoin="round"/>
<defs>
<linearGradient id="paint0_linear_345_4601" x1="176.061" y1="6.50098" x2="176.061" y2="129.768" gradientUnits="userSpaceOnUse">
<stop stop-color="#718F9D"/>
<stop offset="1" stop-color="#7A9CFF" stop-opacity="0.58"/>
</linearGradient>
</defs>
</svg>
