<svg width="32" height="32" viewBox="0 0 32 32" fill="none" xmlns="http://www.w3.org/2000/svg">
<path d="M16.66 13H0.34C0.249826 13 0.163346 13.0444 0.0995838 13.1233C0.0358214 13.2023 0 13.3094 0 13.4211V28.5789C0 28.6906 0.0358214 28.7977 0.0995838 28.8767C0.163346 28.9556 0.249826 29 0.34 29H16.66C16.7502 29 16.8367 28.9556 16.9004 28.8767C16.9642 28.7977 17 28.6906 17 28.5789V13.4211C17 13.3094 16.9642 13.2023 16.9004 13.1233C16.8367 13.0444 16.7502 13 16.66 13ZM4.76 23.1053V18.8947H12.24V23.1053H4.76ZM0.68 23.1053V18.8947H4.08V23.1053H0.68ZM12.92 18.8947H16.32V23.1053H12.92V18.8947ZM16.32 18.0526H8.84V13.8421H16.32V18.0526ZM8.16 13.8421V18.0526H0.68V13.8421H8.16ZM0.68 23.9474H8.16V28.1579H0.68V23.9474ZM8.84 28.1579V23.9474H16.32V28.1579H8.84Z" fill="currentColor"/>
<path d="M8 10.2933C8.15132 8.99054 8.7179 7.75098 9.63534 6.71546C10.5528 5.67994 11.7843 4.89 13.19 4.43539C14.5957 3.98079 16.1191 3.87974 17.5872 4.14374C19.0553 4.40774 20.4093 5.0262 21.4951 5.92885C22.581 6.83149 23.3553 7.98212 23.7301 9.25H24.9921C26.3202 9.25 27.594 9.71094 28.5332 10.5314C29.4724 11.3519 30 12.4647 30 13.625C30 14.7853 29.4724 15.8981 28.5332 16.7186C27.594 17.5391 26.3202 18 24.9921 18H19.5" stroke="url(#paint0_linear_2442_166628)" stroke-width="1.36138" stroke-linecap="round" stroke-linejoin="round"/>
<defs>
<linearGradient id="paint0_linear_2442_166628" x1="18.9813" y1="4" x2="18.9813" y2="18" gradientUnits="userSpaceOnUse">
<stop stop-color="#718F9D"/>
<stop offset="1" stop-color="#7A9CFF" stop-opacity="0.58"/>
</linearGradient>
</defs>
</svg>
