<svg width="21" height="21" viewBox="0 0 21 21" fill="none" xmlns="http://www.w3.org/2000/svg">
<path d="M2.84375 11.375H6.06375C6.35179 11.375 6.63538 11.446 6.88937 11.5819C7.14336 11.7177 7.35989 11.9141 7.51975 12.1538L8.23025 13.2212C8.39011 13.4609 8.60664 13.6573 8.86063 13.7931C9.11462 13.929 9.39821 14 9.68625 14H11.3138C11.6018 14 11.8854 13.929 12.1394 13.7931C12.3934 13.6573 12.6099 13.4609 12.7697 13.2212L13.4803 12.1538C13.6401 11.9141 13.8566 11.7177 14.1106 11.5819C14.3646 11.446 14.6482 11.375 14.9362 11.375H18.1562" stroke="currentColor" stroke-width="1.3125" stroke-linecap="round" stroke-linejoin="round"/>
<path d="M7.875 8.3125H13.125M9.1875 5.6875H11.8125M4.76875 3.59625L2.877 10.4624C2.70994 11.068 2.62517 11.6935 2.625 12.3217V16.625C2.625 17.0891 2.80937 17.5342 3.13756 17.8624C3.46575 18.1906 3.91087 18.375 4.375 18.375H16.625C17.0891 18.375 17.5342 18.1906 17.8624 17.8624C18.1906 17.5342 18.375 17.0891 18.375 16.625V12.3217C18.3748 11.6935 18.2901 11.068 18.123 10.4624L16.2312 3.59625C16.0864 3.30469 15.863 3.05932 15.5863 2.88774C15.3096 2.71616 14.9906 2.62517 14.665 2.625H6.335C6.00943 2.62517 5.69036 2.71616 5.41366 2.88774C5.13697 3.05932 4.91363 3.30469 4.76875 3.59625Z" stroke="currentColor" stroke-width="1.3125" stroke-linecap="round" stroke-linejoin="round"/>
</svg>
