<svg xmlns="http://www.w3.org/2000/svg" width="36" height="36" viewBox="0 0 36 36" fill="none">
  <path
    d="M16.3377 24.4286H26.5V25.8571H16.3377V24.4286ZM11.38 25.1429L9.50726 26.9857L10.5307 28L13.4342 25.1429L10.5307 22.2857L9.5 23.2929L11.38 25.1429ZM16.3377 17.2857H26.5V18.7143H16.3377V17.2857ZM11.38 18L9.50726 19.8429L10.5307 20.8571L13.4342 18L10.5307 15.1429L9.5 16.15L11.38 18ZM16.3377 10.1429H26.5V11.5714H16.3377V10.1429ZM11.38 10.8571L9.50726 12.7L10.5307 13.7143L13.4342 10.8571L10.5307 8L9.5 9.00714L11.38 10.8571Z"
    fill="var(--text-primary)"
  />
</svg>
