<svg width="21" height="16" viewBox="0 0 21 16" fill="none" xmlns="http://www.w3.org/2000/svg">
<path d="M18.687 6.99945H1.81299C1.41516 6.99945 1.03363 6.84142 0.752328 6.56011C0.471024 6.27881 0.312988 5.89728 0.312988 5.49945V1.56445C0.312988 1.16663 0.471024 0.785097 0.752328 0.503793C1.03363 0.222488 1.41516 0.0644531 1.81299 0.0644531H18.687C19.0848 0.0644531 19.4663 0.222488 19.7476 0.503793C20.029 0.785097 20.187 1.16663 20.187 1.56445V5.49445C20.1876 5.69186 20.1493 5.88745 20.0742 6.07001C19.9992 6.25258 19.8888 6.41853 19.7494 6.55835C19.6101 6.69816 19.4445 6.8091 19.2622 6.8848C19.0799 6.96049 18.8844 6.99945 18.687 6.99945ZM1.81299 1.06445C1.68038 1.06445 1.5532 1.11713 1.45943 1.2109C1.36567 1.30467 1.31299 1.43184 1.31299 1.56445V5.49445C1.31299 5.62706 1.36567 5.75424 1.45943 5.84801C1.5532 5.94177 1.68038 5.99445 1.81299 5.99445H18.687C18.8196 5.99445 18.9468 5.94177 19.0405 5.84801C19.1343 5.75424 19.187 5.62706 19.187 5.49445V1.56445C19.187 1.43184 19.1343 1.30467 19.0405 1.2109C18.9468 1.11713 18.8196 1.06445 18.687 1.06445H1.81299ZM18.687 15.9345H1.81299C1.41516 15.9345 1.03363 15.7764 0.752328 15.4951C0.471024 15.2138 0.312988 14.8323 0.312988 14.4345V10.5045C0.312988 10.1066 0.471024 9.7251 0.752328 9.44379C1.03363 9.16249 1.41516 9.00445 1.81299 9.00445H18.687C19.0848 9.00445 19.4663 9.16249 19.7476 9.44379C20.029 9.7251 20.187 10.1066 20.187 10.5045V14.4345C20.187 14.8323 20.029 15.2138 19.7476 15.4951C19.4663 15.7764 19.0848 15.9345 18.687 15.9345ZM1.81299 10.0045C1.68038 10.0045 1.5532 10.0571 1.45943 10.1509C1.36567 10.2447 1.31299 10.3718 1.31299 10.5045V14.4345C1.31299 14.5671 1.36567 14.6942 1.45943 14.788C1.5532 14.8818 1.68038 14.9345 1.81299 14.9345H18.687C18.8196 14.9345 18.9468 14.8818 19.0405 14.788C19.1343 14.6942 19.187 14.5671 19.187 14.4345V10.5045C19.187 10.3718 19.1343 10.2447 19.0405 10.1509C18.9468 10.0571 18.8196 10.0045 18.687 10.0045H1.81299Z" fill="currentColor"/>
<path d="M3.81299 4.0293C4.08913 4.0293 4.31299 3.80544 4.31299 3.5293C4.31299 3.25315 4.08913 3.0293 3.81299 3.0293C3.53685 3.0293 3.31299 3.25315 3.31299 3.5293C3.31299 3.80544 3.53685 4.0293 3.81299 4.0293Z" fill="currentColor"/>
<path d="M5.81299 4.0293C6.08913 4.0293 6.31299 3.80544 6.31299 3.5293C6.31299 3.25315 6.08913 3.0293 5.81299 3.0293C5.53685 3.0293 5.31299 3.25315 5.31299 3.5293C5.31299 3.80544 5.53685 4.0293 5.81299 4.0293Z" fill="currentColor"/>
<path d="M11.7021 4.0293C11.5695 4.0293 11.4424 3.97662 11.3486 3.88285C11.2548 3.78908 11.2021 3.66191 11.2021 3.5293C11.2021 3.39669 11.2548 3.26951 11.3486 3.17574C11.4424 3.08197 11.5695 3.0293 11.7021 3.0293H16.7021C16.8348 3.0293 16.9619 3.08197 17.0557 3.17574C17.1495 3.26951 17.2021 3.39669 17.2021 3.5293C17.2021 3.66191 17.1495 3.78908 17.0557 3.88285C16.9619 3.97662 16.8348 4.0293 16.7021 4.0293H11.7021Z" fill="currentColor"/>
<path d="M3.81299 12.9707C4.08913 12.9707 4.31299 12.7468 4.31299 12.4707C4.31299 12.1946 4.08913 11.9707 3.81299 11.9707C3.53685 11.9707 3.31299 12.1946 3.31299 12.4707C3.31299 12.7468 3.53685 12.9707 3.81299 12.9707Z" fill="currentColor"/>
<path d="M5.81299 12.9707C6.08913 12.9707 6.31299 12.7468 6.31299 12.4707C6.31299 12.1946 6.08913 11.9707 5.81299 11.9707C5.53685 11.9707 5.31299 12.1946 5.31299 12.4707C5.31299 12.7468 5.53685 12.9707 5.81299 12.9707Z" fill="currentColor"/>
<path d="M11.7021 12.9707C11.5695 12.9707 11.4424 12.918 11.3486 12.8243C11.2548 12.7305 11.2021 12.6033 11.2021 12.4707C11.2021 12.3381 11.2548 12.2109 11.3486 12.1172C11.4424 12.0234 11.5695 11.9707 11.7021 11.9707H16.7021C16.8348 11.9707 16.9619 12.0234 17.0557 12.1172C17.1495 12.2109 17.2021 12.3381 17.2021 12.4707C17.2021 12.6033 17.1495 12.7305 17.0557 12.8243C16.9619 12.918 16.8348 12.9707 16.7021 12.9707H11.7021Z" fill="currentColor"/>
</svg>
