<svg width="21" height="22" viewBox="0 0 21 22" fill="none" xmlns="http://www.w3.org/2000/svg">
<path d="M3.8374 7.27474C3.8374 8.9389 4.49849 10.5349 5.67523 11.7116C6.85197 12.8884 8.44798 13.5495 10.1121 13.5495C11.7763 13.5495 13.3723 12.8884 14.549 11.7116C15.7258 10.5349 16.3869 8.9389 16.3869 7.27474C16.3869 5.61057 15.7258 4.01457 14.549 2.83783C13.3723 1.66109 11.7763 1 10.1121 1C8.44798 1 6.85197 1.66109 5.67523 2.83783C4.49849 4.01457 3.8374 5.61057 3.8374 7.27474Z" stroke="currentColor" stroke-linecap="round" stroke-linejoin="round"/>
<path d="M10.1123 13.5495C11.5063 13.2012 12.2039 11.1096 12.2039 7.27474C12.2039 3.43983 11.5063 1.34825 10.1123 1C8.71826 1.34825 8.02072 3.43983 8.02072 7.27474C8.02072 11.1096 8.71826 13.2012 10.1123 13.5495ZM10.1123 13.5495V16.6868M3.83756 7.27474H16.387M0.700195 18.7784H8.02072M8.02072 18.7784C8.02072 19.3331 8.24108 19.8651 8.63333 20.2574C9.02558 20.6496 9.55758 20.87 10.1123 20.87C10.667 20.87 11.199 20.6496 11.5913 20.2574C11.9835 19.8651 12.2039 19.3331 12.2039 18.7784M8.02072 18.7784C8.02072 18.2237 8.24108 17.6917 8.63333 17.2995C9.02558 16.9072 9.55758 16.6868 10.1123 16.6868M12.2039 18.7784H19.5244M12.2039 18.7784C12.2039 18.2237 11.9835 17.6917 11.5913 17.2995C11.199 16.9072 10.667 16.6868 10.1123 16.6868" stroke="currentColor" stroke-linecap="round" stroke-linejoin="round"/>
</svg>
