<svg width="30" height="30" viewBox="0 0 30 30" fill="none" xmlns="http://www.w3.org/2000/svg">
<mask id="mask0_4404_65828" style="mask-type:luminance" maskUnits="userSpaceOnUse" x="1" y="1" width="28" height="29">
<path d="M1.09643 29.9036V1.09643H28.5484V29.9036H1.09643Z" fill="white" stroke="white" stroke-width="0.192862"/>
</mask>
<g mask="url(#mask0_4404_65828)">
<mask id="path-2-inside-1_4404_65828" fill="white">
<path d="M14.61 28.1068C14.61 27.9847 14.7175 27.8779 14.8404 27.8779C14.9633 27.8779 15.0708 27.9847 15.0708 28.1068C15.0708 28.2288 14.9633 28.3359 14.8404 28.3359C14.7022 28.3359 14.61 28.2288 14.61 28.1068ZM13.8882 28.3052C13.7653 28.2901 13.6732 28.183 13.6732 28.061C13.6885 27.9389 13.796 27.8473 13.9189 27.8473C14.0418 27.8626 14.1339 27.9694 14.1339 28.0915C14.1186 28.2136 14.0264 28.3052 13.9035 28.3052C13.9189 28.3052 13.9035 28.3052 13.8882 28.3052ZM15.5315 28.0915C15.5161 27.9694 15.6237 27.8626 15.7465 27.8473C15.8694 27.8321 15.9923 27.9389 15.9923 28.061C16.0076 28.183 15.9001 28.3052 15.7772 28.3052H15.7465C15.639 28.3052 15.5315 28.2136 15.5315 28.0915ZM12.9667 28.1985C12.8438 28.183 12.7517 28.061 12.767 27.9389C12.7824 27.8168 12.9052 27.7252 13.0281 27.7405C13.151 27.7558 13.2431 27.8779 13.2278 28C13.2124 28.1068 13.1049 28.1985 12.9974 28.1985C12.982 28.1985 12.9667 28.1985 12.9667 28.1985ZM16.4377 28C16.4223 27.8779 16.4991 27.7558 16.6373 27.7405C16.7602 27.7252 16.883 27.8015 16.8984 27.9389C16.9138 28.061 16.837 28.183 16.6987 28.1985C16.6834 28.1985 16.668 28.1985 16.668 28.1985C16.5605 28.1985 16.453 28.122 16.4377 28ZM12.0452 28.0305C11.9223 28 11.8455 27.8779 11.8763 27.7558C11.907 27.6337 12.0298 27.5573 12.1527 27.5879C12.2756 27.6184 12.3524 27.7405 12.3216 27.8626C12.2909 27.9694 12.1988 28.0458 12.0913 28.0458C12.0759 28.0305 12.0606 28.0305 12.0452 28.0305ZM17.3438 27.8473C17.3131 27.7252 17.3898 27.6031 17.5127 27.5726C17.6356 27.5421 17.7585 27.6184 17.7892 27.7405C17.8199 27.8626 17.7431 27.9847 17.6202 28.0152C17.6049 28.0152 17.5895 28.0152 17.5741 28.0152C17.4666 28.0305 17.3745 27.9542 17.3438 27.8473ZM11.139 27.7863C11.0162 27.7558 10.9547 27.6184 10.9855 27.4963C11.0162 27.3742 11.1544 27.3131 11.2773 27.3437C11.4001 27.3742 11.4616 27.5115 11.4309 27.6337C11.4001 27.7252 11.308 27.8015 11.2158 27.8015C11.1851 27.8015 11.1544 27.8015 11.139 27.7863ZM18.2499 27.6337C18.2192 27.5115 18.2806 27.3894 18.4035 27.3437C18.5264 27.3131 18.6492 27.3742 18.6953 27.4963C18.726 27.6184 18.6646 27.7405 18.5417 27.7863C18.511 27.8015 18.4957 27.8015 18.4803 27.8015C18.3728 27.8015 18.2806 27.7405 18.2499 27.6337ZM10.2483 27.481C10.1254 27.4352 10.064 27.2979 10.1254 27.191C10.1715 27.0689 10.3097 27.0231 10.4326 27.0537C10.5554 27.0994 10.6169 27.2368 10.5554 27.3437C10.5247 27.4352 10.4326 27.481 10.3404 27.481C10.3097 27.4963 10.279 27.4963 10.2483 27.481ZM19.1253 27.3437C19.0793 27.2215 19.1407 27.0994 19.2482 27.0537C19.3711 27.0079 19.4939 27.0689 19.54 27.191C19.5861 27.3131 19.5246 27.4352 19.4171 27.481C19.3864 27.4963 19.3557 27.4963 19.325 27.4963C19.2482 27.4963 19.1561 27.4352 19.1253 27.3437ZM7.76023 26.1684C7.65272 26.0921 7.62201 25.9547 7.69881 25.8479C7.77561 25.741 7.91382 25.7105 8.02132 25.7868C8.12883 25.8631 8.15956 26.0005 8.08277 26.1073C8.03668 26.1684 7.95991 26.2142 7.89847 26.2142C7.83702 26.2142 7.80631 26.1989 7.76023 26.1684ZM21.5827 26.1073C21.5059 26.0005 21.5366 25.8631 21.6441 25.7868C21.7516 25.7105 21.8898 25.741 21.9666 25.8479C22.0434 25.9547 22.0127 26.0921 21.9052 26.1684C21.8591 26.1989 21.813 26.2142 21.7669 26.2142C21.6902 26.2142 21.6287 26.1684 21.5827 26.1073ZM7.00769 25.6189C6.90019 25.5426 6.88481 25.39 6.97696 25.2984C7.05375 25.2068 7.20735 25.1763 7.2995 25.2679C7.407 25.3442 7.42236 25.4968 7.33021 25.5884C7.28414 25.6494 7.2227 25.68 7.1459 25.68C7.09984 25.6647 7.05375 25.6494 7.00769 25.6189ZM22.3352 25.5731C22.2584 25.4815 22.2738 25.3289 22.3659 25.2526C22.4581 25.1763 22.6117 25.1915 22.6885 25.2831C22.7653 25.3747 22.7499 25.5273 22.6577 25.6037C22.6117 25.6342 22.5656 25.6494 22.5195 25.6494C22.4427 25.6647 22.3813 25.6342 22.3352 25.5731ZM6.28584 25.0084C6.19369 24.9168 6.17833 24.7794 6.27048 24.6879C6.36264 24.5963 6.50087 24.5963 6.593 24.6726C6.68515 24.7642 6.68515 24.9015 6.60838 24.9931C6.56229 25.0389 6.50088 25.0694 6.43943 25.0694C6.39334 25.0694 6.33193 25.0542 6.28584 25.0084ZM23.0417 24.9931C22.9496 24.9015 22.9649 24.7489 23.0571 24.6726C23.1492 24.581 23.3028 24.5963 23.3796 24.6879C23.4717 24.7794 23.4564 24.9321 23.3642 25.0084C23.3181 25.0542 23.2567 25.0694 23.2106 25.0694C23.1492 25.0694 23.0878 25.0389 23.0417 24.9931ZM5.62545 24.3521C5.5333 24.2605 5.54866 24.1079 5.64081 24.0315C5.73296 23.94 5.88653 23.9552 5.96332 24.0468C6.05547 24.1384 6.04012 24.291 5.94797 24.3673C5.90188 24.4131 5.85582 24.4284 5.79438 24.4284C5.73296 24.4284 5.67152 24.3979 5.62545 24.3521ZM23.7021 24.3521C23.6099 24.2605 23.6099 24.1231 23.6867 24.0315C23.7789 23.94 23.9171 23.94 24.0093 24.0163C24.1014 24.1079 24.1014 24.2452 24.0246 24.3368C23.9785 24.3826 23.9171 24.4131 23.8557 24.4131C23.8096 24.4131 23.7482 24.3979 23.7021 24.3521ZM5.01111 23.65C4.93431 23.5584 4.94969 23.4058 5.04184 23.3294C5.13397 23.2531 5.28756 23.2684 5.36436 23.36C5.44115 23.4515 5.42577 23.6042 5.33365 23.6805C5.28756 23.711 5.2415 23.7263 5.19541 23.7263C5.13397 23.7263 5.0572 23.6958 5.01111 23.65ZM24.3164 23.6805C24.2243 23.6042 24.1936 23.4515 24.2857 23.36C24.3625 23.2684 24.5161 23.2379 24.6082 23.3294C24.7004 23.4058 24.7311 23.5584 24.639 23.65C24.5929 23.711 24.5314 23.7415 24.4547 23.7415C24.4086 23.7263 24.3625 23.711 24.3164 23.6805ZM4.45823 22.9021C4.38143 22.7952 4.41214 22.6579 4.51964 22.5815C4.62715 22.5052 4.76539 22.5358 4.84216 22.6426C4.91896 22.7494 4.88825 22.8868 4.78074 22.9631C4.73465 22.9937 4.70395 23.0089 4.65788 23.0089C4.58109 22.9937 4.50429 22.9631 4.45823 22.9021ZM24.8847 22.9479C24.7772 22.8715 24.7465 22.7342 24.8233 22.6273C24.9001 22.5205 25.0383 22.49 25.1458 22.5663C25.2533 22.6426 25.284 22.78 25.2072 22.8868C25.1611 22.9479 25.0844 22.9937 25.0229 22.9937C24.9615 22.9937 24.9154 22.9784 24.8847 22.9479ZM3.95138 22.1084C3.88997 22.0015 3.92068 21.8642 4.02818 21.7879C4.13569 21.7268 4.27393 21.7573 4.33534 21.8794C4.39679 21.9863 4.36608 22.1237 4.25854 22.2C4.22784 22.2152 4.18178 22.2305 4.13569 22.2305C4.07427 22.2152 3.99747 22.1847 3.95138 22.1084ZM25.3915 22.1847C25.284 22.1237 25.2379 21.9863 25.3147 21.8794C25.3762 21.7726 25.5144 21.7268 25.6372 21.7879C25.7447 21.8489 25.7908 21.9863 25.7294 22.1084C25.6833 22.1847 25.6065 22.2305 25.5297 22.2305C25.4683 22.2152 25.4222 22.2 25.3915 22.1847ZM3.52136 21.2842C3.45993 21.1621 3.52136 21.04 3.62887 20.9789C3.73637 20.9179 3.87461 20.9789 3.93603 21.0858C3.99747 21.2079 3.93603 21.33 3.82853 21.391C3.79782 21.4063 3.76708 21.4063 3.73637 21.4063C3.64423 21.4063 3.55208 21.3605 3.52136 21.2842ZM25.8369 21.3758C25.7294 21.3147 25.668 21.1773 25.7294 21.0705C25.7908 20.9484 25.929 20.9026 26.0365 20.9637C26.1594 21.0247 26.2055 21.1621 26.144 21.2689C26.098 21.3452 26.0212 21.4063 25.929 21.4063C25.8983 21.4063 25.8676 21.391 25.8369 21.3758ZM3.1374 20.4294C3.09133 20.3073 3.15276 20.1852 3.26027 20.1394C3.38314 20.0937 3.506 20.1547 3.56744 20.2615C3.61351 20.3837 3.55208 20.521 3.42921 20.5668C3.3985 20.5821 3.36778 20.5821 3.33706 20.5821C3.26027 20.5821 3.18348 20.521 3.1374 20.4294ZM26.2208 20.5515C26.098 20.5058 26.0519 20.3684 26.0826 20.2615C26.1287 20.1394 26.2669 20.0784 26.3744 20.1394C26.4973 20.1852 26.5587 20.3226 26.5127 20.4294C26.4819 20.521 26.3898 20.5821 26.2976 20.5821C26.2669 20.5668 26.2516 20.5515 26.2208 20.5515ZM2.83024 19.5442C2.79953 19.4221 2.86096 19.3 2.98382 19.2542C3.10669 19.2237 3.22956 19.2847 3.27563 19.4068C3.30635 19.5289 3.24491 19.651 3.12205 19.6968C3.10669 19.6968 3.07597 19.7121 3.06062 19.7121C2.95311 19.7121 2.86096 19.651 2.83024 19.5442ZM26.5434 19.6815C26.4205 19.651 26.3591 19.5137 26.3898 19.3915C26.4205 19.2694 26.5587 19.2084 26.6816 19.2389C26.8045 19.2694 26.8659 19.4068 26.8352 19.5289C26.8045 19.6205 26.7123 19.6968 26.6202 19.6968C26.5894 19.6968 26.5587 19.6968 26.5434 19.6815ZM2.58451 18.6437C2.55379 18.5215 2.63058 18.3994 2.75345 18.3689C2.87632 18.3384 2.99918 18.4147 3.0299 18.5368C3.06062 18.6589 2.98382 18.781 2.86096 18.8115C2.8456 18.8115 2.83024 18.8115 2.81488 18.8115C2.70737 18.8268 2.61523 18.7505 2.58451 18.6437ZM26.7891 18.8115C26.6662 18.781 26.5894 18.6589 26.6202 18.5368C26.6509 18.4147 26.7738 18.3384 26.8966 18.3689C27.0195 18.3994 27.0963 18.5215 27.0656 18.6437C27.0349 18.7505 26.9427 18.8268 26.8352 18.8268C26.8352 18.8115 26.8045 18.8115 26.7891 18.8115ZM2.41557 17.7279C2.40021 17.6058 2.477 17.4837 2.61523 17.4684C2.73809 17.4531 2.86096 17.5294 2.87632 17.6668C2.89167 17.7889 2.81488 17.911 2.67666 17.9263C2.6613 17.9263 2.6613 17.9263 2.64594 17.9263C2.52308 17.9263 2.43093 17.85 2.41557 17.7279ZM26.9734 17.911C26.8505 17.8958 26.7584 17.7737 26.7738 17.6515C26.7891 17.5294 26.912 17.4379 27.0348 17.4531C27.1577 17.4684 27.2499 17.5905 27.2345 17.7126C27.2192 17.8194 27.1116 17.911 27.0041 17.911C27.0041 17.911 26.9888 17.911 26.9734 17.911ZM2.30806 16.8121C2.2927 16.69 2.40021 16.5679 2.52308 16.5679C2.64594 16.5526 2.76881 16.6594 2.76881 16.7815C2.78417 16.9037 2.67666 17.0258 2.55379 17.0258H2.53843C2.41557 17.0105 2.32342 16.9189 2.30806 16.8121ZM27.0963 17.0105C26.9734 16.9952 26.8813 16.8884 26.8813 16.7663C26.8966 16.6442 27.0041 16.5526 27.127 16.5526C27.2499 16.5679 27.342 16.6747 27.342 16.7968C27.3267 16.9189 27.2345 17.0105 27.1116 17.0105H27.0963ZM2.27734 15.881C2.27734 15.7589 2.38485 15.6521 2.50772 15.6521C2.63058 15.6521 2.73809 15.7589 2.73809 15.881C2.73809 16.0031 2.63058 16.11 2.50772 16.11C2.36949 16.11 2.27734 16.0031 2.27734 15.881ZM26.9273 15.8658V15.8352C26.9273 15.7131 27.0348 15.6063 27.1577 15.6063C27.2806 15.6063 27.3881 15.7131 27.3881 15.8352V15.8505V15.8658C27.3881 15.9879 27.2806 16.0947 27.1577 16.0947C27.0195 16.0947 26.9273 15.9879 26.9273 15.8658ZM2.52308 15.1942C2.40021 15.1789 2.30806 15.0721 2.30806 14.95C2.32342 14.8279 2.43093 14.7363 2.55379 14.7363C2.67666 14.7515 2.76881 14.8584 2.76881 14.9805C2.75345 15.1026 2.6613 15.1942 2.53843 15.1942H2.52308ZM26.8813 14.9347C26.8659 14.8126 26.9734 14.6905 27.0963 14.6905C27.2192 14.6752 27.342 14.7821 27.342 14.9042C27.3574 15.0263 27.2499 15.1484 27.127 15.1484H27.1116C26.9888 15.1484 26.8966 15.0568 26.8813 14.9347ZM2.59987 14.2784C2.477 14.2631 2.38485 14.141 2.40021 14.0189C2.41557 13.8968 2.53843 13.8052 2.6613 13.8205C2.78417 13.8358 2.87632 13.9579 2.86096 14.08C2.8456 14.2021 2.75345 14.2784 2.63058 14.2784C2.63058 14.2784 2.61523 14.2784 2.59987 14.2784ZM26.7891 14.0494C26.7738 13.9273 26.8505 13.8052 26.9734 13.79C27.0963 13.7747 27.2192 13.851 27.2345 13.9884C27.2499 14.1105 27.1731 14.2326 27.0348 14.2479C27.0195 14.2479 27.0195 14.2479 27.0041 14.2479C26.8966 14.2326 26.8045 14.1563 26.7891 14.0494ZM2.75345 13.3779C2.63058 13.3473 2.55379 13.2252 2.58451 13.1031C2.61523 12.981 2.73809 12.9047 2.86096 12.9352C2.98382 12.9658 3.06062 13.0879 3.0299 13.21C2.99918 13.3168 2.90703 13.3931 2.79953 13.3931C2.78417 13.3779 2.76881 13.3779 2.75345 13.3779ZM26.6202 13.1642C26.5894 13.0421 26.6662 12.92 26.7891 12.8894C26.912 12.8589 27.0349 12.9352 27.0656 13.0573C27.0963 13.1794 27.0195 13.3015 26.8966 13.3321C26.8813 13.3321 26.8659 13.3321 26.8505 13.3321C26.7277 13.3321 26.6355 13.271 26.6202 13.1642ZM2.96846 12.4773C2.8456 12.4468 2.78417 12.3094 2.81488 12.1873C2.8456 12.0652 2.98382 12.0042 3.10669 12.0347C3.22956 12.0652 3.29099 12.2026 3.26027 12.3247C3.22956 12.4163 3.1374 12.4926 3.04526 12.4926C3.01454 12.4926 2.99918 12.4926 2.96846 12.4773ZM26.3744 12.2942C26.3437 12.1721 26.4051 12.05 26.528 12.0042C26.6509 11.9737 26.7738 12.0347 26.8198 12.1568C26.8505 12.2789 26.7891 12.401 26.6662 12.4468C26.6509 12.4621 26.6202 12.4621 26.6048 12.4621C26.4973 12.4621 26.4051 12.3858 26.3744 12.2942ZM3.26027 11.6073C3.1374 11.5615 3.09133 11.4242 3.1374 11.3173C3.18348 11.1952 3.3217 11.1342 3.42921 11.1952C3.55208 11.241 3.59815 11.3784 3.56744 11.4852C3.53672 11.5768 3.44457 11.6379 3.35242 11.6379C3.3217 11.6226 3.29099 11.6226 3.26027 11.6073ZM26.0826 11.4394C26.0365 11.3173 26.098 11.1952 26.2055 11.1494C26.3284 11.1037 26.4512 11.1647 26.4973 11.2715C26.5434 11.3937 26.4819 11.5158 26.3744 11.5615C26.3437 11.5768 26.313 11.5768 26.2823 11.5768C26.2055 11.5921 26.1133 11.531 26.0826 11.4394ZM24.8079 9.07366C24.7311 8.9668 24.7618 8.82944 24.8693 8.75312C24.9768 8.6768 25.1151 8.70734 25.1919 8.81418C25.2687 8.92102 25.2379 9.05838 25.1304 9.1347C25.0844 9.16522 25.0383 9.1805 24.9922 9.1805C24.9308 9.16522 24.854 9.1347 24.8079 9.07366ZM5.04184 8.41734C4.94969 8.34102 4.91896 8.18838 5.01111 8.0968C5.0879 7.98996 5.2415 7.9747 5.33365 8.06628C5.42577 8.1426 5.45651 8.29522 5.36436 8.3868C5.31827 8.44786 5.25685 8.47838 5.18005 8.47838C5.13397 8.46312 5.0879 8.44786 5.04184 8.41734ZM24.2703 8.35628C24.1936 8.24944 24.2089 8.11208 24.3011 8.03576C24.3932 7.95944 24.5468 7.9747 24.6236 8.06628C24.7004 8.15786 24.685 8.3105 24.5929 8.3868C24.5468 8.41734 24.5007 8.4326 24.4547 8.4326C24.3779 8.4326 24.3164 8.40208 24.2703 8.35628ZM5.62545 7.71522C5.5333 7.62366 5.5333 7.48628 5.61007 7.3947C5.70222 7.30312 5.84046 7.28786 5.93262 7.37944C6.02477 7.47102 6.02477 7.60838 5.94797 7.69996C5.90188 7.74576 5.84046 7.77628 5.77902 7.77628C5.73296 7.77628 5.67152 7.74576 5.62545 7.71522ZM23.6714 7.66944C23.5792 7.57786 23.5946 7.4405 23.6867 7.34892C23.7789 7.25734 23.9325 7.2726 24.0093 7.36418C24.1014 7.45576 24.086 7.60838 23.9939 7.6847C23.9478 7.7305 23.8864 7.74576 23.8403 7.74576C23.7789 7.74576 23.7175 7.71522 23.6714 7.66944ZM6.27048 7.04366C6.17833 6.95208 6.19369 6.8147 6.28584 6.72312C6.37799 6.63154 6.51623 6.6468 6.60838 6.73838C6.70053 6.82996 6.68515 6.96734 6.593 7.05892C6.54694 7.1047 6.48549 7.11996 6.43943 7.11996C6.37799 7.11996 6.31657 7.08944 6.27048 7.04366ZM23.0417 7.04366C22.9496 6.95208 22.9496 6.8147 23.0263 6.72312C23.1185 6.63154 23.2567 6.61628 23.3489 6.70786C23.441 6.79944 23.441 6.9368 23.3642 7.02838C23.3181 7.07418 23.2567 7.1047 23.1953 7.1047C23.1339 7.1047 23.0878 7.07418 23.0417 7.04366ZM6.94625 6.43312C6.86945 6.34154 6.88481 6.18892 6.99234 6.1126C7.09984 6.03628 7.23806 6.05154 7.31485 6.14312C7.39165 6.24996 7.3763 6.38734 7.28414 6.46366C7.23806 6.49418 7.19199 6.50944 7.1459 6.50944C7.06911 6.5247 6.99234 6.49418 6.94625 6.43312ZM22.3506 6.44838C22.2584 6.37208 22.2277 6.21944 22.3199 6.12786C22.3967 6.03628 22.5502 6.00576 22.6424 6.09734C22.7345 6.17366 22.7653 6.32628 22.6731 6.41786C22.627 6.47892 22.5656 6.50944 22.4888 6.50944C22.4427 6.49418 22.3967 6.47892 22.3506 6.44838ZM7.68346 5.88366C7.60666 5.7768 7.63737 5.63944 7.74487 5.56312C7.85238 5.4868 7.99062 5.51734 8.06741 5.62418C8.14418 5.73102 8.11348 5.86838 8.00597 5.9447C7.97526 5.97522 7.92917 5.9905 7.88311 5.9905C7.79096 5.97522 7.72952 5.9447 7.68346 5.88366ZM21.6287 5.91418C21.5212 5.83786 21.4905 5.7005 21.5673 5.59366C21.6441 5.4868 21.7823 5.45628 21.8898 5.5326C21.9973 5.60892 22.028 5.74628 21.9512 5.85312C21.9052 5.91418 21.8284 5.95996 21.7669 5.95996C21.7055 5.95996 21.6594 5.9447 21.6287 5.91418ZM8.45137 5.37996C8.38993 5.27312 8.42064 5.13576 8.52814 5.0747C8.63565 5.01366 8.77389 5.04418 8.83533 5.15102C8.89674 5.25786 8.86604 5.39522 8.75853 5.45628C8.7278 5.47154 8.68173 5.4868 8.63565 5.4868C8.57423 5.4868 8.49743 5.44102 8.45137 5.37996ZM20.8608 5.44102C20.7533 5.37996 20.7073 5.2426 20.7687 5.13576C20.8301 5.02892 20.9683 4.98312 21.0912 5.05944C21.1987 5.1205 21.2448 5.25786 21.1833 5.3647C21.1373 5.44102 21.0605 5.4868 20.9837 5.4868C20.9376 5.47154 20.8915 5.45628 20.8608 5.44102ZM9.24999 4.93734C9.18855 4.81522 9.24999 4.69312 9.3575 4.63208C9.48036 4.57102 9.60322 4.63208 9.66466 4.73892C9.71075 4.84576 9.66466 4.98312 9.55716 5.04418C9.52645 5.05944 9.49571 5.05944 9.44965 5.05944C9.37285 5.05944 9.29606 5.01366 9.24999 4.93734ZM20.0622 5.01366C19.9393 4.9526 19.8932 4.81522 19.9547 4.70838C20.0008 4.58628 20.139 4.5405 20.2619 4.60154C20.3694 4.6626 20.4308 4.7847 20.3694 4.9068C20.3233 4.98312 20.2465 5.04418 20.1697 5.04418C20.1236 5.04418 20.0929 5.02892 20.0622 5.01366ZM10.0947 4.5405C10.0486 4.41838 10.1101 4.29628 10.2176 4.23522C10.3404 4.18944 10.4633 4.2505 10.5247 4.3726C10.5708 4.4947 10.5094 4.6168 10.4019 4.6626C10.3711 4.67786 10.3404 4.67786 10.3251 4.67786C10.2176 4.69312 10.1254 4.63208 10.0947 4.5405ZM19.2328 4.6626C19.11 4.6168 19.0486 4.47944 19.0946 4.3726C19.1407 4.2505 19.2789 4.18944 19.3864 4.23522C19.5093 4.28102 19.5707 4.41838 19.5093 4.52522C19.4786 4.6168 19.3864 4.67786 19.2943 4.67786C19.2789 4.67786 19.2482 4.67786 19.2328 4.6626ZM10.9547 4.21996C10.924 4.09786 10.9855 3.97576 11.1083 3.92996C11.2312 3.89944 11.3541 3.9605 11.4001 4.0826C11.4309 4.2047 11.3694 4.3268 11.2466 4.3726C11.2158 4.3726 11.2005 4.38786 11.1851 4.38786C11.0776 4.38786 10.9855 4.3268 10.9547 4.21996ZM18.3728 4.3726C18.2499 4.34208 18.1885 4.2047 18.2192 4.0826C18.2499 3.9605 18.3882 3.89944 18.511 3.92996C18.6339 3.9605 18.6953 4.09786 18.6646 4.21996C18.6339 4.31154 18.5417 4.38786 18.4496 4.38786C18.4189 4.3726 18.3882 4.3726 18.3728 4.3726ZM11.8455 3.97576C11.8148 3.85366 11.8916 3.73154 12.0145 3.70102C12.1373 3.67049 12.2602 3.7468 12.2909 3.86892C12.3216 3.99102 12.2449 4.11312 12.122 4.14366C12.1066 4.14366 12.0913 4.14366 12.0759 4.14366C11.9531 4.14366 11.8609 4.0826 11.8455 3.97576ZM17.4974 4.12838C17.3745 4.09786 17.2977 3.97576 17.3284 3.85366C17.3591 3.73154 17.482 3.65523 17.6049 3.68576C17.7277 3.71628 17.8045 3.83838 17.7738 3.9605C17.7431 4.06734 17.6509 4.14366 17.5434 4.14366C17.5281 4.14366 17.5127 4.14366 17.4974 4.12838ZM12.7363 3.77734C12.721 3.65523 12.7977 3.53313 12.936 3.51786C13.0588 3.5026 13.1817 3.57892 13.197 3.71628C13.2124 3.83838 13.1356 3.9605 12.9974 3.97576C12.982 3.97576 12.9667 3.97576 12.9667 3.97576C12.8592 3.97576 12.767 3.89944 12.7363 3.77734ZM16.6066 3.97576C16.4837 3.9605 16.3916 3.83838 16.4069 3.71628C16.4223 3.59418 16.5452 3.5026 16.668 3.51786C16.7909 3.53313 16.883 3.65523 16.8677 3.77734C16.8523 3.89944 16.7448 3.97576 16.6373 3.97576C16.6373 3.97576 16.622 3.97576 16.6066 3.97576ZM13.6578 3.67049C13.6424 3.54839 13.75 3.42628 13.8728 3.42628C13.9957 3.41102 14.1032 3.51786 14.1186 3.63997C14.1339 3.76208 14.0264 3.86892 13.9035 3.88418H13.8882C13.7653 3.88418 13.6578 3.7926 13.6578 3.67049ZM15.7158 3.86892C15.5929 3.85366 15.5008 3.7468 15.5008 3.62471C15.5161 3.5026 15.6237 3.41102 15.7465 3.41102C15.8694 3.42628 15.9615 3.53313 15.9615 3.65523C15.9462 3.77734 15.854 3.86892 15.7312 3.86892H15.7158ZM14.5793 3.60944C14.5793 3.48734 14.6868 3.38049 14.8097 3.38049C14.9325 3.38049 15.04 3.48734 15.04 3.60944C15.04 3.73154 14.9325 3.83838 14.8097 3.83838C14.6868 3.83838 14.5793 3.7468 14.5793 3.60944Z"/>
</mask>
<path d="M14.61 28.1068C14.61 27.9847 14.7175 27.8779 14.8404 27.8779C14.9633 27.8779 15.0708 27.9847 15.0708 28.1068C15.0708 28.2288 14.9633 28.3359 14.8404 28.3359C14.7022 28.3359 14.61 28.2288 14.61 28.1068ZM13.8882 28.3052C13.7653 28.2901 13.6732 28.183 13.6732 28.061C13.6885 27.9389 13.796 27.8473 13.9189 27.8473C14.0418 27.8626 14.1339 27.9694 14.1339 28.0915C14.1186 28.2136 14.0264 28.3052 13.9035 28.3052C13.9189 28.3052 13.9035 28.3052 13.8882 28.3052ZM15.5315 28.0915C15.5161 27.9694 15.6237 27.8626 15.7465 27.8473C15.8694 27.8321 15.9923 27.9389 15.9923 28.061C16.0076 28.183 15.9001 28.3052 15.7772 28.3052H15.7465C15.639 28.3052 15.5315 28.2136 15.5315 28.0915ZM12.9667 28.1985C12.8438 28.183 12.7517 28.061 12.767 27.9389C12.7824 27.8168 12.9052 27.7252 13.0281 27.7405C13.151 27.7558 13.2431 27.8779 13.2278 28C13.2124 28.1068 13.1049 28.1985 12.9974 28.1985C12.982 28.1985 12.9667 28.1985 12.9667 28.1985ZM16.4377 28C16.4223 27.8779 16.4991 27.7558 16.6373 27.7405C16.7602 27.7252 16.883 27.8015 16.8984 27.9389C16.9138 28.061 16.837 28.183 16.6987 28.1985C16.6834 28.1985 16.668 28.1985 16.668 28.1985C16.5605 28.1985 16.453 28.122 16.4377 28ZM12.0452 28.0305C11.9223 28 11.8455 27.8779 11.8763 27.7558C11.907 27.6337 12.0298 27.5573 12.1527 27.5879C12.2756 27.6184 12.3524 27.7405 12.3216 27.8626C12.2909 27.9694 12.1988 28.0458 12.0913 28.0458C12.0759 28.0305 12.0606 28.0305 12.0452 28.0305ZM17.3438 27.8473C17.3131 27.7252 17.3898 27.6031 17.5127 27.5726C17.6356 27.5421 17.7585 27.6184 17.7892 27.7405C17.8199 27.8626 17.7431 27.9847 17.6202 28.0152C17.6049 28.0152 17.5895 28.0152 17.5741 28.0152C17.4666 28.0305 17.3745 27.9542 17.3438 27.8473ZM11.139 27.7863C11.0162 27.7558 10.9547 27.6184 10.9855 27.4963C11.0162 27.3742 11.1544 27.3131 11.2773 27.3437C11.4001 27.3742 11.4616 27.5115 11.4309 27.6337C11.4001 27.7252 11.308 27.8015 11.2158 27.8015C11.1851 27.8015 11.1544 27.8015 11.139 27.7863ZM18.2499 27.6337C18.2192 27.5115 18.2806 27.3894 18.4035 27.3437C18.5264 27.3131 18.6492 27.3742 18.6953 27.4963C18.726 27.6184 18.6646 27.7405 18.5417 27.7863C18.511 27.8015 18.4957 27.8015 18.4803 27.8015C18.3728 27.8015 18.2806 27.7405 18.2499 27.6337ZM10.2483 27.481C10.1254 27.4352 10.064 27.2979 10.1254 27.191C10.1715 27.0689 10.3097 27.0231 10.4326 27.0537C10.5554 27.0994 10.6169 27.2368 10.5554 27.3437C10.5247 27.4352 10.4326 27.481 10.3404 27.481C10.3097 27.4963 10.279 27.4963 10.2483 27.481ZM19.1253 27.3437C19.0793 27.2215 19.1407 27.0994 19.2482 27.0537C19.3711 27.0079 19.4939 27.0689 19.54 27.191C19.5861 27.3131 19.5246 27.4352 19.4171 27.481C19.3864 27.4963 19.3557 27.4963 19.325 27.4963C19.2482 27.4963 19.1561 27.4352 19.1253 27.3437ZM7.76023 26.1684C7.65272 26.0921 7.62201 25.9547 7.69881 25.8479C7.77561 25.741 7.91382 25.7105 8.02132 25.7868C8.12883 25.8631 8.15956 26.0005 8.08277 26.1073C8.03668 26.1684 7.95991 26.2142 7.89847 26.2142C7.83702 26.2142 7.80631 26.1989 7.76023 26.1684ZM21.5827 26.1073C21.5059 26.0005 21.5366 25.8631 21.6441 25.7868C21.7516 25.7105 21.8898 25.741 21.9666 25.8479C22.0434 25.9547 22.0127 26.0921 21.9052 26.1684C21.8591 26.1989 21.813 26.2142 21.7669 26.2142C21.6902 26.2142 21.6287 26.1684 21.5827 26.1073ZM7.00769 25.6189C6.90019 25.5426 6.88481 25.39 6.97696 25.2984C7.05375 25.2068 7.20735 25.1763 7.2995 25.2679C7.407 25.3442 7.42236 25.4968 7.33021 25.5884C7.28414 25.6494 7.2227 25.68 7.1459 25.68C7.09984 25.6647 7.05375 25.6494 7.00769 25.6189ZM22.3352 25.5731C22.2584 25.4815 22.2738 25.3289 22.3659 25.2526C22.4581 25.1763 22.6117 25.1915 22.6885 25.2831C22.7653 25.3747 22.7499 25.5273 22.6577 25.6037C22.6117 25.6342 22.5656 25.6494 22.5195 25.6494C22.4427 25.6647 22.3813 25.6342 22.3352 25.5731ZM6.28584 25.0084C6.19369 24.9168 6.17833 24.7794 6.27048 24.6879C6.36264 24.5963 6.50087 24.5963 6.593 24.6726C6.68515 24.7642 6.68515 24.9015 6.60838 24.9931C6.56229 25.0389 6.50088 25.0694 6.43943 25.0694C6.39334 25.0694 6.33193 25.0542 6.28584 25.0084ZM23.0417 24.9931C22.9496 24.9015 22.9649 24.7489 23.0571 24.6726C23.1492 24.581 23.3028 24.5963 23.3796 24.6879C23.4717 24.7794 23.4564 24.9321 23.3642 25.0084C23.3181 25.0542 23.2567 25.0694 23.2106 25.0694C23.1492 25.0694 23.0878 25.0389 23.0417 24.9931ZM5.62545 24.3521C5.5333 24.2605 5.54866 24.1079 5.64081 24.0315C5.73296 23.94 5.88653 23.9552 5.96332 24.0468C6.05547 24.1384 6.04012 24.291 5.94797 24.3673C5.90188 24.4131 5.85582 24.4284 5.79438 24.4284C5.73296 24.4284 5.67152 24.3979 5.62545 24.3521ZM23.7021 24.3521C23.6099 24.2605 23.6099 24.1231 23.6867 24.0315C23.7789 23.94 23.9171 23.94 24.0093 24.0163C24.1014 24.1079 24.1014 24.2452 24.0246 24.3368C23.9785 24.3826 23.9171 24.4131 23.8557 24.4131C23.8096 24.4131 23.7482 24.3979 23.7021 24.3521ZM5.01111 23.65C4.93431 23.5584 4.94969 23.4058 5.04184 23.3294C5.13397 23.2531 5.28756 23.2684 5.36436 23.36C5.44115 23.4515 5.42577 23.6042 5.33365 23.6805C5.28756 23.711 5.2415 23.7263 5.19541 23.7263C5.13397 23.7263 5.0572 23.6958 5.01111 23.65ZM24.3164 23.6805C24.2243 23.6042 24.1936 23.4515 24.2857 23.36C24.3625 23.2684 24.5161 23.2379 24.6082 23.3294C24.7004 23.4058 24.7311 23.5584 24.639 23.65C24.5929 23.711 24.5314 23.7415 24.4547 23.7415C24.4086 23.7263 24.3625 23.711 24.3164 23.6805ZM4.45823 22.9021C4.38143 22.7952 4.41214 22.6579 4.51964 22.5815C4.62715 22.5052 4.76539 22.5358 4.84216 22.6426C4.91896 22.7494 4.88825 22.8868 4.78074 22.9631C4.73465 22.9937 4.70395 23.0089 4.65788 23.0089C4.58109 22.9937 4.50429 22.9631 4.45823 22.9021ZM24.8847 22.9479C24.7772 22.8715 24.7465 22.7342 24.8233 22.6273C24.9001 22.5205 25.0383 22.49 25.1458 22.5663C25.2533 22.6426 25.284 22.78 25.2072 22.8868C25.1611 22.9479 25.0844 22.9937 25.0229 22.9937C24.9615 22.9937 24.9154 22.9784 24.8847 22.9479ZM3.95138 22.1084C3.88997 22.0015 3.92068 21.8642 4.02818 21.7879C4.13569 21.7268 4.27393 21.7573 4.33534 21.8794C4.39679 21.9863 4.36608 22.1237 4.25854 22.2C4.22784 22.2152 4.18178 22.2305 4.13569 22.2305C4.07427 22.2152 3.99747 22.1847 3.95138 22.1084ZM25.3915 22.1847C25.284 22.1237 25.2379 21.9863 25.3147 21.8794C25.3762 21.7726 25.5144 21.7268 25.6372 21.7879C25.7447 21.8489 25.7908 21.9863 25.7294 22.1084C25.6833 22.1847 25.6065 22.2305 25.5297 22.2305C25.4683 22.2152 25.4222 22.2 25.3915 22.1847ZM3.52136 21.2842C3.45993 21.1621 3.52136 21.04 3.62887 20.9789C3.73637 20.9179 3.87461 20.9789 3.93603 21.0858C3.99747 21.2079 3.93603 21.33 3.82853 21.391C3.79782 21.4063 3.76708 21.4063 3.73637 21.4063C3.64423 21.4063 3.55208 21.3605 3.52136 21.2842ZM25.8369 21.3758C25.7294 21.3147 25.668 21.1773 25.7294 21.0705C25.7908 20.9484 25.929 20.9026 26.0365 20.9637C26.1594 21.0247 26.2055 21.1621 26.144 21.2689C26.098 21.3452 26.0212 21.4063 25.929 21.4063C25.8983 21.4063 25.8676 21.391 25.8369 21.3758ZM3.1374 20.4294C3.09133 20.3073 3.15276 20.1852 3.26027 20.1394C3.38314 20.0937 3.506 20.1547 3.56744 20.2615C3.61351 20.3837 3.55208 20.521 3.42921 20.5668C3.3985 20.5821 3.36778 20.5821 3.33706 20.5821C3.26027 20.5821 3.18348 20.521 3.1374 20.4294ZM26.2208 20.5515C26.098 20.5058 26.0519 20.3684 26.0826 20.2615C26.1287 20.1394 26.2669 20.0784 26.3744 20.1394C26.4973 20.1852 26.5587 20.3226 26.5127 20.4294C26.4819 20.521 26.3898 20.5821 26.2976 20.5821C26.2669 20.5668 26.2516 20.5515 26.2208 20.5515ZM2.83024 19.5442C2.79953 19.4221 2.86096 19.3 2.98382 19.2542C3.10669 19.2237 3.22956 19.2847 3.27563 19.4068C3.30635 19.5289 3.24491 19.651 3.12205 19.6968C3.10669 19.6968 3.07597 19.7121 3.06062 19.7121C2.95311 19.7121 2.86096 19.651 2.83024 19.5442ZM26.5434 19.6815C26.4205 19.651 26.3591 19.5137 26.3898 19.3915C26.4205 19.2694 26.5587 19.2084 26.6816 19.2389C26.8045 19.2694 26.8659 19.4068 26.8352 19.5289C26.8045 19.6205 26.7123 19.6968 26.6202 19.6968C26.5894 19.6968 26.5587 19.6968 26.5434 19.6815ZM2.58451 18.6437C2.55379 18.5215 2.63058 18.3994 2.75345 18.3689C2.87632 18.3384 2.99918 18.4147 3.0299 18.5368C3.06062 18.6589 2.98382 18.781 2.86096 18.8115C2.8456 18.8115 2.83024 18.8115 2.81488 18.8115C2.70737 18.8268 2.61523 18.7505 2.58451 18.6437ZM26.7891 18.8115C26.6662 18.781 26.5894 18.6589 26.6202 18.5368C26.6509 18.4147 26.7738 18.3384 26.8966 18.3689C27.0195 18.3994 27.0963 18.5215 27.0656 18.6437C27.0349 18.7505 26.9427 18.8268 26.8352 18.8268C26.8352 18.8115 26.8045 18.8115 26.7891 18.8115ZM2.41557 17.7279C2.40021 17.6058 2.477 17.4837 2.61523 17.4684C2.73809 17.4531 2.86096 17.5294 2.87632 17.6668C2.89167 17.7889 2.81488 17.911 2.67666 17.9263C2.6613 17.9263 2.6613 17.9263 2.64594 17.9263C2.52308 17.9263 2.43093 17.85 2.41557 17.7279ZM26.9734 17.911C26.8505 17.8958 26.7584 17.7737 26.7738 17.6515C26.7891 17.5294 26.912 17.4379 27.0348 17.4531C27.1577 17.4684 27.2499 17.5905 27.2345 17.7126C27.2192 17.8194 27.1116 17.911 27.0041 17.911C27.0041 17.911 26.9888 17.911 26.9734 17.911ZM2.30806 16.8121C2.2927 16.69 2.40021 16.5679 2.52308 16.5679C2.64594 16.5526 2.76881 16.6594 2.76881 16.7815C2.78417 16.9037 2.67666 17.0258 2.55379 17.0258H2.53843C2.41557 17.0105 2.32342 16.9189 2.30806 16.8121ZM27.0963 17.0105C26.9734 16.9952 26.8813 16.8884 26.8813 16.7663C26.8966 16.6442 27.0041 16.5526 27.127 16.5526C27.2499 16.5679 27.342 16.6747 27.342 16.7968C27.3267 16.9189 27.2345 17.0105 27.1116 17.0105H27.0963ZM2.27734 15.881C2.27734 15.7589 2.38485 15.6521 2.50772 15.6521C2.63058 15.6521 2.73809 15.7589 2.73809 15.881C2.73809 16.0031 2.63058 16.11 2.50772 16.11C2.36949 16.11 2.27734 16.0031 2.27734 15.881ZM26.9273 15.8658V15.8352C26.9273 15.7131 27.0348 15.6063 27.1577 15.6063C27.2806 15.6063 27.3881 15.7131 27.3881 15.8352V15.8505V15.8658C27.3881 15.9879 27.2806 16.0947 27.1577 16.0947C27.0195 16.0947 26.9273 15.9879 26.9273 15.8658ZM2.52308 15.1942C2.40021 15.1789 2.30806 15.0721 2.30806 14.95C2.32342 14.8279 2.43093 14.7363 2.55379 14.7363C2.67666 14.7515 2.76881 14.8584 2.76881 14.9805C2.75345 15.1026 2.6613 15.1942 2.53843 15.1942H2.52308ZM26.8813 14.9347C26.8659 14.8126 26.9734 14.6905 27.0963 14.6905C27.2192 14.6752 27.342 14.7821 27.342 14.9042C27.3574 15.0263 27.2499 15.1484 27.127 15.1484H27.1116C26.9888 15.1484 26.8966 15.0568 26.8813 14.9347ZM2.59987 14.2784C2.477 14.2631 2.38485 14.141 2.40021 14.0189C2.41557 13.8968 2.53843 13.8052 2.6613 13.8205C2.78417 13.8358 2.87632 13.9579 2.86096 14.08C2.8456 14.2021 2.75345 14.2784 2.63058 14.2784C2.63058 14.2784 2.61523 14.2784 2.59987 14.2784ZM26.7891 14.0494C26.7738 13.9273 26.8505 13.8052 26.9734 13.79C27.0963 13.7747 27.2192 13.851 27.2345 13.9884C27.2499 14.1105 27.1731 14.2326 27.0348 14.2479C27.0195 14.2479 27.0195 14.2479 27.0041 14.2479C26.8966 14.2326 26.8045 14.1563 26.7891 14.0494ZM2.75345 13.3779C2.63058 13.3473 2.55379 13.2252 2.58451 13.1031C2.61523 12.981 2.73809 12.9047 2.86096 12.9352C2.98382 12.9658 3.06062 13.0879 3.0299 13.21C2.99918 13.3168 2.90703 13.3931 2.79953 13.3931C2.78417 13.3779 2.76881 13.3779 2.75345 13.3779ZM26.6202 13.1642C26.5894 13.0421 26.6662 12.92 26.7891 12.8894C26.912 12.8589 27.0349 12.9352 27.0656 13.0573C27.0963 13.1794 27.0195 13.3015 26.8966 13.3321C26.8813 13.3321 26.8659 13.3321 26.8505 13.3321C26.7277 13.3321 26.6355 13.271 26.6202 13.1642ZM2.96846 12.4773C2.8456 12.4468 2.78417 12.3094 2.81488 12.1873C2.8456 12.0652 2.98382 12.0042 3.10669 12.0347C3.22956 12.0652 3.29099 12.2026 3.26027 12.3247C3.22956 12.4163 3.1374 12.4926 3.04526 12.4926C3.01454 12.4926 2.99918 12.4926 2.96846 12.4773ZM26.3744 12.2942C26.3437 12.1721 26.4051 12.05 26.528 12.0042C26.6509 11.9737 26.7738 12.0347 26.8198 12.1568C26.8505 12.2789 26.7891 12.401 26.6662 12.4468C26.6509 12.4621 26.6202 12.4621 26.6048 12.4621C26.4973 12.4621 26.4051 12.3858 26.3744 12.2942ZM3.26027 11.6073C3.1374 11.5615 3.09133 11.4242 3.1374 11.3173C3.18348 11.1952 3.3217 11.1342 3.42921 11.1952C3.55208 11.241 3.59815 11.3784 3.56744 11.4852C3.53672 11.5768 3.44457 11.6379 3.35242 11.6379C3.3217 11.6226 3.29099 11.6226 3.26027 11.6073ZM26.0826 11.4394C26.0365 11.3173 26.098 11.1952 26.2055 11.1494C26.3284 11.1037 26.4512 11.1647 26.4973 11.2715C26.5434 11.3937 26.4819 11.5158 26.3744 11.5615C26.3437 11.5768 26.313 11.5768 26.2823 11.5768C26.2055 11.5921 26.1133 11.531 26.0826 11.4394ZM24.8079 9.07366C24.7311 8.9668 24.7618 8.82944 24.8693 8.75312C24.9768 8.6768 25.1151 8.70734 25.1919 8.81418C25.2687 8.92102 25.2379 9.05838 25.1304 9.1347C25.0844 9.16522 25.0383 9.1805 24.9922 9.1805C24.9308 9.16522 24.854 9.1347 24.8079 9.07366ZM5.04184 8.41734C4.94969 8.34102 4.91896 8.18838 5.01111 8.0968C5.0879 7.98996 5.2415 7.9747 5.33365 8.06628C5.42577 8.1426 5.45651 8.29522 5.36436 8.3868C5.31827 8.44786 5.25685 8.47838 5.18005 8.47838C5.13397 8.46312 5.0879 8.44786 5.04184 8.41734ZM24.2703 8.35628C24.1936 8.24944 24.2089 8.11208 24.3011 8.03576C24.3932 7.95944 24.5468 7.9747 24.6236 8.06628C24.7004 8.15786 24.685 8.3105 24.5929 8.3868C24.5468 8.41734 24.5007 8.4326 24.4547 8.4326C24.3779 8.4326 24.3164 8.40208 24.2703 8.35628ZM5.62545 7.71522C5.5333 7.62366 5.5333 7.48628 5.61007 7.3947C5.70222 7.30312 5.84046 7.28786 5.93262 7.37944C6.02477 7.47102 6.02477 7.60838 5.94797 7.69996C5.90188 7.74576 5.84046 7.77628 5.77902 7.77628C5.73296 7.77628 5.67152 7.74576 5.62545 7.71522ZM23.6714 7.66944C23.5792 7.57786 23.5946 7.4405 23.6867 7.34892C23.7789 7.25734 23.9325 7.2726 24.0093 7.36418C24.1014 7.45576 24.086 7.60838 23.9939 7.6847C23.9478 7.7305 23.8864 7.74576 23.8403 7.74576C23.7789 7.74576 23.7175 7.71522 23.6714 7.66944ZM6.27048 7.04366C6.17833 6.95208 6.19369 6.8147 6.28584 6.72312C6.37799 6.63154 6.51623 6.6468 6.60838 6.73838C6.70053 6.82996 6.68515 6.96734 6.593 7.05892C6.54694 7.1047 6.48549 7.11996 6.43943 7.11996C6.37799 7.11996 6.31657 7.08944 6.27048 7.04366ZM23.0417 7.04366C22.9496 6.95208 22.9496 6.8147 23.0263 6.72312C23.1185 6.63154 23.2567 6.61628 23.3489 6.70786C23.441 6.79944 23.441 6.9368 23.3642 7.02838C23.3181 7.07418 23.2567 7.1047 23.1953 7.1047C23.1339 7.1047 23.0878 7.07418 23.0417 7.04366ZM6.94625 6.43312C6.86945 6.34154 6.88481 6.18892 6.99234 6.1126C7.09984 6.03628 7.23806 6.05154 7.31485 6.14312C7.39165 6.24996 7.3763 6.38734 7.28414 6.46366C7.23806 6.49418 7.19199 6.50944 7.1459 6.50944C7.06911 6.5247 6.99234 6.49418 6.94625 6.43312ZM22.3506 6.44838C22.2584 6.37208 22.2277 6.21944 22.3199 6.12786C22.3967 6.03628 22.5502 6.00576 22.6424 6.09734C22.7345 6.17366 22.7653 6.32628 22.6731 6.41786C22.627 6.47892 22.5656 6.50944 22.4888 6.50944C22.4427 6.49418 22.3967 6.47892 22.3506 6.44838ZM7.68346 5.88366C7.60666 5.7768 7.63737 5.63944 7.74487 5.56312C7.85238 5.4868 7.99062 5.51734 8.06741 5.62418C8.14418 5.73102 8.11348 5.86838 8.00597 5.9447C7.97526 5.97522 7.92917 5.9905 7.88311 5.9905C7.79096 5.97522 7.72952 5.9447 7.68346 5.88366ZM21.6287 5.91418C21.5212 5.83786 21.4905 5.7005 21.5673 5.59366C21.6441 5.4868 21.7823 5.45628 21.8898 5.5326C21.9973 5.60892 22.028 5.74628 21.9512 5.85312C21.9052 5.91418 21.8284 5.95996 21.7669 5.95996C21.7055 5.95996 21.6594 5.9447 21.6287 5.91418ZM8.45137 5.37996C8.38993 5.27312 8.42064 5.13576 8.52814 5.0747C8.63565 5.01366 8.77389 5.04418 8.83533 5.15102C8.89674 5.25786 8.86604 5.39522 8.75853 5.45628C8.7278 5.47154 8.68173 5.4868 8.63565 5.4868C8.57423 5.4868 8.49743 5.44102 8.45137 5.37996ZM20.8608 5.44102C20.7533 5.37996 20.7073 5.2426 20.7687 5.13576C20.8301 5.02892 20.9683 4.98312 21.0912 5.05944C21.1987 5.1205 21.2448 5.25786 21.1833 5.3647C21.1373 5.44102 21.0605 5.4868 20.9837 5.4868C20.9376 5.47154 20.8915 5.45628 20.8608 5.44102ZM9.24999 4.93734C9.18855 4.81522 9.24999 4.69312 9.3575 4.63208C9.48036 4.57102 9.60322 4.63208 9.66466 4.73892C9.71075 4.84576 9.66466 4.98312 9.55716 5.04418C9.52645 5.05944 9.49571 5.05944 9.44965 5.05944C9.37285 5.05944 9.29606 5.01366 9.24999 4.93734ZM20.0622 5.01366C19.9393 4.9526 19.8932 4.81522 19.9547 4.70838C20.0008 4.58628 20.139 4.5405 20.2619 4.60154C20.3694 4.6626 20.4308 4.7847 20.3694 4.9068C20.3233 4.98312 20.2465 5.04418 20.1697 5.04418C20.1236 5.04418 20.0929 5.02892 20.0622 5.01366ZM10.0947 4.5405C10.0486 4.41838 10.1101 4.29628 10.2176 4.23522C10.3404 4.18944 10.4633 4.2505 10.5247 4.3726C10.5708 4.4947 10.5094 4.6168 10.4019 4.6626C10.3711 4.67786 10.3404 4.67786 10.3251 4.67786C10.2176 4.69312 10.1254 4.63208 10.0947 4.5405ZM19.2328 4.6626C19.11 4.6168 19.0486 4.47944 19.0946 4.3726C19.1407 4.2505 19.2789 4.18944 19.3864 4.23522C19.5093 4.28102 19.5707 4.41838 19.5093 4.52522C19.4786 4.6168 19.3864 4.67786 19.2943 4.67786C19.2789 4.67786 19.2482 4.67786 19.2328 4.6626ZM10.9547 4.21996C10.924 4.09786 10.9855 3.97576 11.1083 3.92996C11.2312 3.89944 11.3541 3.9605 11.4001 4.0826C11.4309 4.2047 11.3694 4.3268 11.2466 4.3726C11.2158 4.3726 11.2005 4.38786 11.1851 4.38786C11.0776 4.38786 10.9855 4.3268 10.9547 4.21996ZM18.3728 4.3726C18.2499 4.34208 18.1885 4.2047 18.2192 4.0826C18.2499 3.9605 18.3882 3.89944 18.511 3.92996C18.6339 3.9605 18.6953 4.09786 18.6646 4.21996C18.6339 4.31154 18.5417 4.38786 18.4496 4.38786C18.4189 4.3726 18.3882 4.3726 18.3728 4.3726ZM11.8455 3.97576C11.8148 3.85366 11.8916 3.73154 12.0145 3.70102C12.1373 3.67049 12.2602 3.7468 12.2909 3.86892C12.3216 3.99102 12.2449 4.11312 12.122 4.14366C12.1066 4.14366 12.0913 4.14366 12.0759 4.14366C11.9531 4.14366 11.8609 4.0826 11.8455 3.97576ZM17.4974 4.12838C17.3745 4.09786 17.2977 3.97576 17.3284 3.85366C17.3591 3.73154 17.482 3.65523 17.6049 3.68576C17.7277 3.71628 17.8045 3.83838 17.7738 3.9605C17.7431 4.06734 17.6509 4.14366 17.5434 4.14366C17.5281 4.14366 17.5127 4.14366 17.4974 4.12838ZM12.7363 3.77734C12.721 3.65523 12.7977 3.53313 12.936 3.51786C13.0588 3.5026 13.1817 3.57892 13.197 3.71628C13.2124 3.83838 13.1356 3.9605 12.9974 3.97576C12.982 3.97576 12.9667 3.97576 12.9667 3.97576C12.8592 3.97576 12.767 3.89944 12.7363 3.77734ZM16.6066 3.97576C16.4837 3.9605 16.3916 3.83838 16.4069 3.71628C16.4223 3.59418 16.5452 3.5026 16.668 3.51786C16.7909 3.53313 16.883 3.65523 16.8677 3.77734C16.8523 3.89944 16.7448 3.97576 16.6373 3.97576C16.6373 3.97576 16.622 3.97576 16.6066 3.97576ZM13.6578 3.67049C13.6424 3.54839 13.75 3.42628 13.8728 3.42628C13.9957 3.41102 14.1032 3.51786 14.1186 3.63997C14.1339 3.76208 14.0264 3.86892 13.9035 3.88418H13.8882C13.7653 3.88418 13.6578 3.7926 13.6578 3.67049ZM15.7158 3.86892C15.5929 3.85366 15.5008 3.7468 15.5008 3.62471C15.5161 3.5026 15.6237 3.41102 15.7465 3.41102C15.8694 3.42628 15.9615 3.53313 15.9615 3.65523C15.9462 3.77734 15.854 3.86892 15.7312 3.86892H15.7158ZM14.5793 3.60944C14.5793 3.48734 14.6868 3.38049 14.8097 3.38049C14.9325 3.38049 15.04 3.48734 15.04 3.60944C15.04 3.73154 14.9325 3.83838 14.8097 3.83838C14.6868 3.83838 14.5793 3.7468 14.5793 3.60944Z" fill="url(#paint0_linear_4404_65828)" stroke="url(#paint1_linear_4404_65828)" stroke-width="0.386923" mask="url(#path-2-inside-1_4404_65828)"/>
<mask id="path-3-inside-2_4404_65828" fill="white">
<path d="M13.9823 14.0498C13.9823 14.3703 13.7213 14.6298 13.3987 14.6298C13.0762 14.6298 12.8151 14.3703 12.8151 14.0498C12.8151 13.7293 13.0762 13.4698 13.3987 13.4698C13.7213 13.4698 13.9823 13.7293 13.9823 14.0498ZM13.3987 17.423C13.0762 17.423 12.8151 17.6825 12.8151 18.003C12.8151 18.3235 13.0762 18.583 13.3987 18.583C13.7213 18.583 13.9823 18.3235 13.9823 18.003C13.9823 17.6825 13.7213 17.423 13.3987 17.423ZM11.4329 13.4851C11.1104 13.4851 10.8493 13.7446 10.8493 14.0651C10.8493 14.3856 11.1104 14.6451 11.4329 14.6451C11.7554 14.6451 12.0165 14.3856 12.0165 14.0651C12.0165 13.7446 11.7554 13.4851 11.4329 13.4851ZM21.554 11.9282C21.554 12.0961 21.554 12.264 21.554 12.4319V12.493C21.5079 14.6298 21.2007 16.4614 20.6017 18.0793L20.571 18.1556V18.1709C20.5557 18.1861 20.5096 18.3235 20.5096 18.3235L20.4789 18.3846C20.4635 18.4303 20.4482 18.4761 20.4175 18.5219C20.3867 18.6135 20.3407 18.6898 20.3099 18.7814L20.2639 18.8882C20.2485 18.9188 20.2332 18.9646 20.2178 18.9951C20.1717 19.1019 20.1257 19.1935 20.0796 19.2851L20.0335 19.3614C20.0181 19.3919 20.0028 19.4072 20.0028 19.4377C19.926 19.5903 19.8492 19.743 19.7571 19.8803C18.6666 21.7882 17.054 23.2688 14.827 24.4135C12.6155 23.2688 11.0029 21.7882 9.91242 19.8803C9.83562 19.743 9.75883 19.5903 9.66668 19.4377C9.65132 19.4072 9.63597 19.3919 9.63597 19.3614L9.60523 19.2851C9.55917 19.1782 9.49773 19.0867 9.45167 18.9798C9.43631 18.9493 9.42096 18.9035 9.40558 18.873L9.35952 18.7814C9.32881 18.6898 9.28272 18.5982 9.23666 18.5067C9.22128 18.4609 9.20592 18.4151 9.17521 18.3693C9.17521 18.3693 9.09842 18.1709 9.09842 18.1556V18.1403L9.06771 18.064C8.46874 16.4461 8.16158 14.6146 8.11549 12.4777V12.4167V12.4014C8.11549 12.2335 8.11549 12.0656 8.11549 11.913V11.7756C8.11549 11.6077 8.11549 11.4398 8.13085 11.2567V11.0735C8.13085 10.9819 8.13085 10.8903 8.1462 10.7988C8.25373 10.7988 8.34586 10.7988 8.45339 10.7988C10.6803 10.7988 12.8919 10.2493 14.8424 9.22666C16.8083 10.2646 19.0045 10.7988 21.2314 10.7988C21.3389 10.7988 21.4311 10.7988 21.5386 10.7988C21.5386 10.8903 21.5386 10.9819 21.554 11.0735V11.2567C21.554 11.4246 21.554 11.5925 21.5693 11.7756L21.554 11.9282ZM16.5164 14.0498C16.5164 14.4925 16.885 14.8588 17.3304 14.8588C17.7758 14.8588 18.1444 14.4925 18.1444 14.0498C18.1444 13.6072 17.7758 13.2409 17.3304 13.2409C16.885 13.2409 16.5164 13.6072 16.5164 14.0498ZM12.2469 14.0498C12.2469 13.6072 11.8783 13.2409 11.4329 13.2409C10.9875 13.2409 10.6189 13.6072 10.6189 14.0498C10.6189 14.4925 10.9875 14.8588 11.4329 14.8588C11.8783 14.8588 12.2469 14.5077 12.2469 14.0498ZM14.2127 17.9877C14.2127 17.5451 13.8441 17.1788 13.3987 17.1788C12.9533 17.1788 12.5847 17.5451 12.5847 17.9877C12.5847 18.4303 12.9533 18.7967 13.3987 18.7967C13.8441 18.7967 14.2127 18.4456 14.2127 17.9877ZM14.2127 14.0498C14.2127 13.6072 13.8441 13.2409 13.3987 13.2409C12.9533 13.2409 12.5847 13.6072 12.5847 14.0498C12.5847 14.4925 12.9533 14.8588 13.3987 14.8588C13.8441 14.8588 14.2127 14.5077 14.2127 14.0498ZM16.1786 17.9877C16.1786 17.5451 15.81 17.1788 15.3646 17.1788C14.9192 17.1788 14.5506 17.5451 14.5506 17.9877C14.5506 18.4303 14.9192 18.7967 15.3646 18.7967C15.81 18.7967 16.1786 18.4456 16.1786 17.9877ZM16.1786 16.0188C16.1786 15.5761 15.81 15.2098 15.3646 15.2098C14.9192 15.2098 14.5506 15.5761 14.5506 16.0188C14.5506 16.4614 14.9192 16.8277 15.3646 16.8277C15.81 16.8277 16.1786 16.4767 16.1786 16.0188ZM16.1786 14.0498C16.1786 13.6072 15.81 13.2409 15.3646 13.2409C14.9192 13.2409 14.5506 13.6072 14.5506 14.0498C14.5506 14.4925 14.9192 14.8588 15.3646 14.8588C15.81 14.8588 16.1786 14.5077 16.1786 14.0498ZM18.1444 16.0188C18.1444 15.5761 17.7758 15.2098 17.3304 15.2098C16.885 15.2098 16.5164 15.5761 16.5164 16.0188C16.5164 16.4614 16.885 16.8277 17.3304 16.8277C17.7758 16.8277 18.1444 16.4767 18.1444 16.0188ZM17.3304 15.4388C17.0079 15.4388 16.7468 15.6982 16.7468 16.0188C16.7468 16.3393 17.0079 16.5988 17.3304 16.5988C17.653 16.5988 17.9141 16.3393 17.9141 16.0188C17.9141 15.6982 17.653 15.4388 17.3304 15.4388ZM25.7314 1.2135C24.9635 1.2135 24.3338 1.83929 24.3338 2.60245C24.3338 3.36561 24.9635 3.9914 25.7314 3.9914C26.4993 3.9914 27.129 3.36561 27.129 2.60245C27.129 1.83929 26.4993 1.2135 25.7314 1.2135ZM2.89369 7.30349C2.12578 7.30349 1.49609 7.9293 1.49609 8.69246C1.49609 9.45559 2.12578 10.0814 2.89369 10.0814C3.6616 10.0814 4.2913 9.45559 4.2913 8.69246C4.2913 7.9293 3.6616 7.30349 2.89369 7.30349Z"/>
</mask>
<path d="M13.9823 14.0498C13.9823 14.3703 13.7213 14.6298 13.3987 14.6298C13.0762 14.6298 12.8151 14.3703 12.8151 14.0498C12.8151 13.7293 13.0762 13.4698 13.3987 13.4698C13.7213 13.4698 13.9823 13.7293 13.9823 14.0498ZM13.3987 17.423C13.0762 17.423 12.8151 17.6825 12.8151 18.003C12.8151 18.3235 13.0762 18.583 13.3987 18.583C13.7213 18.583 13.9823 18.3235 13.9823 18.003C13.9823 17.6825 13.7213 17.423 13.3987 17.423ZM11.4329 13.4851C11.1104 13.4851 10.8493 13.7446 10.8493 14.0651C10.8493 14.3856 11.1104 14.6451 11.4329 14.6451C11.7554 14.6451 12.0165 14.3856 12.0165 14.0651C12.0165 13.7446 11.7554 13.4851 11.4329 13.4851ZM21.554 11.9282C21.554 12.0961 21.554 12.264 21.554 12.4319V12.493C21.5079 14.6298 21.2007 16.4614 20.6017 18.0793L20.571 18.1556V18.1709C20.5557 18.1861 20.5096 18.3235 20.5096 18.3235L20.4789 18.3846C20.4635 18.4303 20.4482 18.4761 20.4175 18.5219C20.3867 18.6135 20.3407 18.6898 20.3099 18.7814L20.2639 18.8882C20.2485 18.9188 20.2332 18.9646 20.2178 18.9951C20.1717 19.1019 20.1257 19.1935 20.0796 19.2851L20.0335 19.3614C20.0181 19.3919 20.0028 19.4072 20.0028 19.4377C19.926 19.5903 19.8492 19.743 19.7571 19.8803C18.6666 21.7882 17.054 23.2688 14.827 24.4135C12.6155 23.2688 11.0029 21.7882 9.91242 19.8803C9.83562 19.743 9.75883 19.5903 9.66668 19.4377C9.65132 19.4072 9.63597 19.3919 9.63597 19.3614L9.60523 19.2851C9.55917 19.1782 9.49773 19.0867 9.45167 18.9798C9.43631 18.9493 9.42096 18.9035 9.40558 18.873L9.35952 18.7814C9.32881 18.6898 9.28272 18.5982 9.23666 18.5067C9.22128 18.4609 9.20592 18.4151 9.17521 18.3693C9.17521 18.3693 9.09842 18.1709 9.09842 18.1556V18.1403L9.06771 18.064C8.46874 16.4461 8.16158 14.6146 8.11549 12.4777V12.4167V12.4014C8.11549 12.2335 8.11549 12.0656 8.11549 11.913V11.7756C8.11549 11.6077 8.11549 11.4398 8.13085 11.2567V11.0735C8.13085 10.9819 8.13085 10.8903 8.1462 10.7988C8.25373 10.7988 8.34586 10.7988 8.45339 10.7988C10.6803 10.7988 12.8919 10.2493 14.8424 9.22666C16.8083 10.2646 19.0045 10.7988 21.2314 10.7988C21.3389 10.7988 21.4311 10.7988 21.5386 10.7988C21.5386 10.8903 21.5386 10.9819 21.554 11.0735V11.2567C21.554 11.4246 21.554 11.5925 21.5693 11.7756L21.554 11.9282ZM16.5164 14.0498C16.5164 14.4925 16.885 14.8588 17.3304 14.8588C17.7758 14.8588 18.1444 14.4925 18.1444 14.0498C18.1444 13.6072 17.7758 13.2409 17.3304 13.2409C16.885 13.2409 16.5164 13.6072 16.5164 14.0498ZM12.2469 14.0498C12.2469 13.6072 11.8783 13.2409 11.4329 13.2409C10.9875 13.2409 10.6189 13.6072 10.6189 14.0498C10.6189 14.4925 10.9875 14.8588 11.4329 14.8588C11.8783 14.8588 12.2469 14.5077 12.2469 14.0498ZM14.2127 17.9877C14.2127 17.5451 13.8441 17.1788 13.3987 17.1788C12.9533 17.1788 12.5847 17.5451 12.5847 17.9877C12.5847 18.4303 12.9533 18.7967 13.3987 18.7967C13.8441 18.7967 14.2127 18.4456 14.2127 17.9877ZM14.2127 14.0498C14.2127 13.6072 13.8441 13.2409 13.3987 13.2409C12.9533 13.2409 12.5847 13.6072 12.5847 14.0498C12.5847 14.4925 12.9533 14.8588 13.3987 14.8588C13.8441 14.8588 14.2127 14.5077 14.2127 14.0498ZM16.1786 17.9877C16.1786 17.5451 15.81 17.1788 15.3646 17.1788C14.9192 17.1788 14.5506 17.5451 14.5506 17.9877C14.5506 18.4303 14.9192 18.7967 15.3646 18.7967C15.81 18.7967 16.1786 18.4456 16.1786 17.9877ZM16.1786 16.0188C16.1786 15.5761 15.81 15.2098 15.3646 15.2098C14.9192 15.2098 14.5506 15.5761 14.5506 16.0188C14.5506 16.4614 14.9192 16.8277 15.3646 16.8277C15.81 16.8277 16.1786 16.4767 16.1786 16.0188ZM16.1786 14.0498C16.1786 13.6072 15.81 13.2409 15.3646 13.2409C14.9192 13.2409 14.5506 13.6072 14.5506 14.0498C14.5506 14.4925 14.9192 14.8588 15.3646 14.8588C15.81 14.8588 16.1786 14.5077 16.1786 14.0498ZM18.1444 16.0188C18.1444 15.5761 17.7758 15.2098 17.3304 15.2098C16.885 15.2098 16.5164 15.5761 16.5164 16.0188C16.5164 16.4614 16.885 16.8277 17.3304 16.8277C17.7758 16.8277 18.1444 16.4767 18.1444 16.0188ZM17.3304 15.4388C17.0079 15.4388 16.7468 15.6982 16.7468 16.0188C16.7468 16.3393 17.0079 16.5988 17.3304 16.5988C17.653 16.5988 17.9141 16.3393 17.9141 16.0188C17.9141 15.6982 17.653 15.4388 17.3304 15.4388ZM25.7314 1.2135C24.9635 1.2135 24.3338 1.83929 24.3338 2.60245C24.3338 3.36561 24.9635 3.9914 25.7314 3.9914C26.4993 3.9914 27.129 3.36561 27.129 2.60245C27.129 1.83929 26.4993 1.2135 25.7314 1.2135ZM2.89369 7.30349C2.12578 7.30349 1.49609 7.9293 1.49609 8.69246C1.49609 9.45559 2.12578 10.0814 2.89369 10.0814C3.6616 10.0814 4.2913 9.45559 4.2913 8.69246C4.2913 7.9293 3.6616 7.30349 2.89369 7.30349Z" fill="url(#paint2_linear_4404_65828)" stroke="url(#paint3_linear_4404_65828)" stroke-width="0.386923" mask="url(#path-3-inside-2_4404_65828)"/>
<path d="M4.79551 7.30402C7.22212 4.4956 10.8159 2.72508 14.8244 2.72508C19.3398 2.72508 23.3329 4.98402 25.7288 8.41824M9.38762 27.833C11.0463 28.581 12.8893 28.9929 14.8244 28.9929C16.7596 28.9929 18.6026 28.581 20.2613 27.833M22.3039 26.6882C25.7749 24.3224 28.0325 20.354 28.0325 15.8667C28.0325 13.9435 27.6179 12.1119 26.8653 10.4635M2.53785 10.9824C2.46106 11.1809 2.38427 11.3793 2.30748 11.593C1.84673 12.9361 1.58564 14.3709 1.58564 15.8667C1.58564 20.3693 3.87403 24.353 7.34498 26.7188M16.7749 24.2156C17.1128 24.4751 17.4354 24.7193 17.7579 24.9635C19.0019 25.8793 20.1845 26.673 21.2903 27.314C24.3466 29.0845 26.7578 29.6952 27.7561 28.7029C28.6315 27.833 28.2476 25.864 26.9268 23.2998M2.72215 23.3151C1.38598 25.864 1.01738 27.833 1.89281 28.7029C2.87573 29.6797 5.25627 29.0845 8.28184 27.3446C9.40298 26.7035 10.6163 25.8946 11.8757 24.9635C12.1982 24.7193 12.5207 24.4751 12.8586 24.2156M7.32962 3.83928C4.76481 2.5114 2.76823 2.14508 1.89281 3.01508C0.909877 3.99192 1.50885 6.38824 3.2904 9.4256C4.07369 10.7688 5.08732 12.234 6.28525 13.7603C6.36205 13.8519 6.42349 13.9435 6.50029 14.0198C6.56171 14.0961 6.6078 14.1572 6.66921 14.2335C6.94567 14.5693 7.22212 14.9051 7.49857 15.2409M22.1503 15.2409C22.4422 14.9051 22.7032 14.5693 22.9797 14.2335C23.0411 14.1572 23.1025 14.0961 23.1486 14.0198C23.2254 13.9282 23.2868 13.8367 23.3636 13.7603C24.5309 12.2646 25.5291 10.8298 26.3124 9.51718C28.14 6.43402 28.7697 4.00718 27.7714 3.01508C26.896 2.14508 24.9148 2.52666 22.3346 3.85457M22.3807 11.7761C22.3807 11.6082 22.3807 11.4251 22.3654 11.2419C22.3654 11.1809 22.3654 11.1198 22.3654 11.0588C22.3654 10.8298 22.35 10.6161 22.3346 10.3872L22.3193 9.94457C21.966 9.97508 21.5974 9.99034 21.2288 9.99034C18.8944 9.99034 16.7135 9.37982 14.8398 8.29612C12.9507 9.37982 10.7545 10.0056 8.43541 10.0056C8.06683 10.0056 7.69823 9.99034 7.34498 9.95982L7.31427 10.4024C7.29891 10.6314 7.29891 10.8603 7.28356 11.074C7.28356 11.1351 7.28356 11.1961 7.28356 11.2572C7.28356 11.4403 7.28356 11.6082 7.28356 11.7914C7.28356 11.8372 7.28356 11.883 7.28356 11.9288C7.28356 12.1272 7.28356 12.3103 7.28356 12.5088V12.524C7.32962 14.7524 7.66752 16.6909 8.29719 18.3851V18.4003C8.3279 18.4767 8.35864 18.553 8.38934 18.6293C8.42005 18.7056 8.45079 18.7819 8.4815 18.843C8.52756 18.9498 8.57365 19.0414 8.61971 19.1482C8.65044 19.2093 8.68115 19.2856 8.71186 19.3467C8.75795 19.4535 8.81936 19.5603 8.86545 19.6824C8.89616 19.7282 8.91151 19.7893 8.94225 19.8503C9.01902 20.0182 9.11117 20.1709 9.20332 20.3235C10.4013 22.4146 12.1521 24.0172 14.5787 25.2382L14.8398 25.3603L15.1009 25.2382C17.5275 24.0172 19.2783 22.4146 20.4763 20.3235C20.5684 20.1709 20.6452 20.003 20.7374 19.8503C20.7681 19.8046 20.7834 19.7435 20.8142 19.6824C20.8756 19.5756 20.9217 19.4688 20.9677 19.3467C20.9985 19.2856 21.0292 19.2093 21.0599 19.1482C21.106 19.0414 21.152 18.9498 21.1981 18.843C21.2288 18.7667 21.2595 18.6903 21.2903 18.6293C21.321 18.553 21.3517 18.4767 21.3824 18.4003V18.3851C22.0121 16.6909 22.35 14.7524 22.3961 12.524V12.5088C22.3961 12.3256 22.3961 12.1272 22.3961 11.9288C22.3807 11.883 22.3807 11.8219 22.3807 11.7761Z" stroke="url(#paint4_linear_4404_65828)" stroke-width="0.326847" stroke-linecap="round" stroke-linejoin="round"/>
</g>
<defs>
<linearGradient id="paint0_linear_4404_65828" x1="4.60681" y1="21.4206" x2="22.374" y2="1.14243" gradientUnits="userSpaceOnUse">
<stop stop-color="#E62F45"/>
<stop offset="0.28" stop-color="#BC5B76"/>
<stop offset="0.56" stop-color="#818AB8"/>
<stop offset="0.78" stop-color="#599FBC"/>
<stop offset="0.9" stop-color="#4BAECC"/>
<stop offset="1" stop-color="#43B3D6"/>
</linearGradient>
<linearGradient id="paint1_linear_4404_65828" x1="4.60681" y1="21.4206" x2="22.374" y2="1.14243" gradientUnits="userSpaceOnUse">
<stop stop-color="#E62F45"/>
<stop offset="0.28" stop-color="#BC5B76"/>
<stop offset="0.56" stop-color="#818AB8"/>
<stop offset="0.78" stop-color="#599FBC"/>
<stop offset="0.9" stop-color="#4BAECC"/>
<stop offset="1" stop-color="#43B3D6"/>
</linearGradient>
<linearGradient id="paint2_linear_4404_65828" x1="4.61588" y1="27.5099" x2="20.6713" y2="0.435694" gradientUnits="userSpaceOnUse">
<stop offset="0.20418" stop-color="#E62F45"/>
<stop offset="0.411641" stop-color="#BC5B76"/>
<stop offset="0.530101" stop-color="#818AB8"/>
<stop offset="0.670544" stop-color="#599FBC"/>
<stop offset="0.9" stop-color="#4BAECC"/>
<stop offset="1" stop-color="#43B3D6"/>
</linearGradient>
<linearGradient id="paint3_linear_4404_65828" x1="3.874" y1="17.9847" x2="20.1203" y2="-2.3755" gradientUnits="userSpaceOnUse">
<stop stop-color="#E62F45"/>
<stop offset="0.28" stop-color="#BC5B76"/>
<stop offset="0.56" stop-color="#818AB8"/>
<stop offset="0.78" stop-color="#599FBC"/>
<stop offset="0.9" stop-color="#4BAECC"/>
<stop offset="1" stop-color="#43B3D6"/>
</linearGradient>
<linearGradient id="paint4_linear_4404_65828" x1="3.90654" y1="21.7971" x2="22.8668" y2="0.13664" gradientUnits="userSpaceOnUse">
<stop stop-color="#E62F45"/>
<stop offset="0.28" stop-color="#BC5B76"/>
<stop offset="0.56" stop-color="#818AB8"/>
<stop offset="0.78" stop-color="#599FBC"/>
<stop offset="0.9" stop-color="#4BAECC"/>
<stop offset="1" stop-color="#43B3D6"/>
</linearGradient>
</defs>
</svg>
