<svg width="32" height="33" viewBox="0 0 32 33" fill="none" xmlns="http://www.w3.org/2000/svg">
<path d="M15.7543 30.9083C15.7543 30.7687 15.8771 30.6466 16.0176 30.6466C16.158 30.6466 16.2809 30.7687 16.2809 30.9083C16.2809 31.0477 16.158 31.1701 16.0176 31.1701C15.8596 31.1701 15.7543 31.0477 15.7543 30.9083ZM14.9292 31.1351C14.7888 31.1178 14.6834 30.9954 14.6834 30.856C14.701 30.7164 14.8239 30.6117 14.9643 30.6117C15.1048 30.6292 15.2101 30.7513 15.2101 30.8908C15.1925 31.0304 15.0872 31.1351 14.9468 31.1351C14.9643 31.1351 14.9468 31.1351 14.9292 31.1351ZM16.8075 30.8908C16.79 30.7513 16.9128 30.6292 17.0533 30.6117C17.1937 30.5943 17.3341 30.7164 17.3341 30.856C17.3517 30.9954 17.2288 31.1351 17.0884 31.1351H17.0533C16.9304 31.1351 16.8075 31.0304 16.8075 30.8908ZM13.876 31.013C13.7355 30.9954 13.6302 30.856 13.6478 30.7164C13.6653 30.5768 13.8057 30.4722 13.9462 30.4896C14.0866 30.507 14.1919 30.6466 14.1744 30.7862C14.1568 30.9083 14.0339 31.013 13.9111 31.013C13.8935 31.013 13.876 31.013 13.876 31.013ZM17.8432 30.7862C17.8257 30.6466 17.9134 30.507 18.0714 30.4896C18.2119 30.4722 18.3523 30.5594 18.3698 30.7164C18.3874 30.856 18.2996 30.9954 18.1416 31.013C18.1241 31.013 18.1065 31.013 18.1065 31.013C17.9837 31.013 17.8608 30.9257 17.8432 30.7862ZM12.8227 30.8211C12.6823 30.7862 12.5945 30.6466 12.6296 30.507C12.6647 30.3675 12.8051 30.2803 12.9456 30.3151C13.086 30.35 13.1738 30.4896 13.1387 30.6292C13.1036 30.7513 12.9982 30.8385 12.8754 30.8385C12.8578 30.8211 12.8403 30.8211 12.8227 30.8211ZM18.8789 30.6117C18.8438 30.4722 18.9316 30.3326 19.072 30.2977C19.2125 30.2628 19.3529 30.35 19.388 30.4896C19.4231 30.6292 19.3353 30.7687 19.1949 30.8036C19.1774 30.8036 19.1598 30.8036 19.1422 30.8036C19.0193 30.8211 18.914 30.7338 18.8789 30.6117ZM11.787 30.5419C11.6466 30.507 11.5763 30.35 11.6115 30.2105C11.6466 30.0709 11.8045 30.0011 11.945 30.036C12.0854 30.0709 12.1557 30.2279 12.1205 30.3675C12.0854 30.4722 11.9801 30.5594 11.8748 30.5594C11.8397 30.5594 11.8045 30.5594 11.787 30.5419ZM19.9146 30.3675C19.8795 30.2279 19.9497 30.0884 20.0902 30.036C20.2306 30.0011 20.371 30.0709 20.4237 30.2105C20.4588 30.35 20.3886 30.4896 20.2481 30.5419C20.213 30.5594 20.1955 30.5594 20.1779 30.5594C20.0551 30.5594 19.9497 30.4896 19.9146 30.3675ZM10.7689 30.193C10.6284 30.1407 10.5582 29.9837 10.6284 29.8616C10.6811 29.722 10.8391 29.6696 10.9795 29.7046C11.1199 29.7569 11.1902 29.9139 11.1199 30.036C11.0848 30.1407 10.9795 30.193 10.8742 30.193C10.8391 30.2105 10.804 30.2105 10.7689 30.193ZM20.9152 30.036C20.8626 29.8964 20.9328 29.7569 21.0557 29.7046C21.1961 29.6522 21.3365 29.722 21.3892 29.8616C21.4418 30.0011 21.3716 30.1407 21.2487 30.193C21.2136 30.2105 21.1785 30.2105 21.1434 30.2105C21.0557 30.2105 20.9503 30.1407 20.9152 30.036ZM7.92506 28.6927C7.80218 28.6055 7.76708 28.4485 7.85486 28.3263C7.94264 28.2042 8.10061 28.1693 8.22349 28.2566C8.34636 28.3438 8.38149 28.5008 8.29372 28.6229C8.24104 28.6927 8.15329 28.745 8.08306 28.745C8.01283 28.745 7.97773 28.7276 7.92506 28.6927ZM23.7239 28.6229C23.6361 28.5008 23.6712 28.3438 23.7941 28.2566C23.917 28.1693 24.075 28.2042 24.1628 28.3263C24.2505 28.4485 24.2154 28.6055 24.0925 28.6927C24.0399 28.7276 23.9872 28.745 23.9345 28.745C23.8468 28.745 23.7766 28.6927 23.7239 28.6229ZM7.06492 28.0647C6.94204 27.9774 6.92446 27.803 7.02979 27.6983C7.11757 27.5936 7.29312 27.5587 7.39845 27.6634C7.52133 27.7506 7.53888 27.9251 7.43355 28.0298C7.3809 28.0996 7.31067 28.1344 7.22289 28.1344C7.17025 28.117 7.11757 28.0996 7.06492 28.0647ZM24.584 28.0123C24.4963 27.9076 24.5138 27.7332 24.6192 27.646C24.7245 27.5587 24.9 27.5762 24.9878 27.6809C25.0756 27.7855 25.058 27.96 24.9527 28.0472C24.9 28.0821 24.8474 28.0996 24.7947 28.0996C24.7069 28.117 24.6367 28.0821 24.584 28.0123ZM6.23985 27.3668C6.13452 27.2622 6.11698 27.1052 6.2223 27.0005C6.32763 26.8958 6.48564 26.8958 6.59093 26.983C6.69626 27.0877 6.69626 27.2447 6.60851 27.3494C6.55583 27.4017 6.48564 27.4366 6.41541 27.4366C6.36273 27.4366 6.29253 27.4192 6.23985 27.3668ZM25.3916 27.3494C25.2862 27.2447 25.3038 27.0703 25.4091 26.983C25.5144 26.8784 25.69 26.8958 25.7777 27.0005C25.8831 27.1052 25.8655 27.2796 25.7602 27.3668C25.7075 27.4192 25.6373 27.4366 25.5846 27.4366C25.5144 27.4366 25.4442 27.4017 25.3916 27.3494ZM5.48504 26.6167C5.37972 26.512 5.39727 26.3376 5.50259 26.2503C5.60792 26.1456 5.78344 26.1631 5.87122 26.2678C5.97655 26.3724 5.959 26.5469 5.85367 26.6341C5.80099 26.6865 5.74835 26.7039 5.67812 26.7039C5.60792 26.7039 5.53769 26.669 5.48504 26.6167ZM26.1464 26.6167C26.041 26.512 26.041 26.355 26.1288 26.2503C26.2341 26.1456 26.3922 26.1456 26.4975 26.2329C26.6028 26.3376 26.6028 26.4946 26.515 26.5992C26.4623 26.6516 26.3921 26.6865 26.3219 26.6865C26.2693 26.6865 26.199 26.669 26.1464 26.6167ZM4.78285 25.8142C4.69507 25.7095 4.71266 25.5351 4.81798 25.4478C4.92328 25.3606 5.09883 25.378 5.18661 25.4827C5.27439 25.5874 5.25681 25.7619 5.15151 25.8491C5.09883 25.884 5.04619 25.9014 4.99351 25.9014C4.92328 25.9014 4.83553 25.8665 4.78285 25.8142ZM26.8486 25.8491C26.7432 25.7619 26.7081 25.5874 26.8134 25.4827C26.9012 25.378 27.0768 25.3432 27.1821 25.4478C27.2874 25.5351 27.3225 25.7095 27.2172 25.8142C27.1645 25.884 27.0943 25.9189 27.0065 25.9189C26.9539 25.9014 26.9012 25.884 26.8486 25.8491ZM4.15092 24.9594C4.06314 24.8373 4.09824 24.6802 4.22112 24.593C4.34399 24.5058 4.502 24.5407 4.58975 24.6628C4.67753 24.7849 4.64243 24.9419 4.51955 25.0291C4.46687 25.064 4.43177 25.0815 4.37912 25.0815C4.29135 25.064 4.20357 25.0291 4.15092 24.9594ZM27.4981 25.0117C27.3752 24.9245 27.3401 24.7675 27.4278 24.6453C27.5156 24.5232 27.6736 24.4883 27.7965 24.5756C27.9193 24.6628 27.9545 24.8198 27.8667 24.9419C27.814 25.0117 27.7263 25.064 27.656 25.064C27.5858 25.064 27.5332 25.0466 27.4981 25.0117ZM3.57161 24.0522C3.50141 23.9301 3.53651 23.7731 3.65938 23.6858C3.78226 23.616 3.94027 23.6509 4.01046 23.7905C4.08069 23.9126 4.04559 24.0696 3.92269 24.1568C3.88759 24.1743 3.83494 24.1918 3.78226 24.1918C3.71206 24.1743 3.62429 24.1394 3.57161 24.0522ZM28.0774 24.1394C27.9545 24.0696 27.9018 23.9126 27.9896 23.7905C28.0598 23.6684 28.2178 23.616 28.3582 23.6858C28.4811 23.7556 28.5338 23.9126 28.4635 24.0522C28.4109 24.1394 28.3231 24.1918 28.2353 24.1918C28.1651 24.1743 28.1125 24.1568 28.0774 24.1394ZM3.0801 23.1101C3.00988 22.9706 3.0801 22.831 3.20298 22.7612C3.32585 22.6914 3.48386 22.7612 3.55406 22.8833C3.62429 23.0229 3.55406 23.1625 3.43118 23.2322C3.39608 23.2497 3.36095 23.2497 3.32585 23.2497C3.22053 23.2497 3.11521 23.1974 3.0801 23.1101ZM28.5864 23.2148C28.4635 23.145 28.3933 22.988 28.4635 22.8659C28.5338 22.7263 28.6917 22.674 28.8146 22.7438C28.9551 22.8135 29.0077 22.9706 28.9375 23.0927C28.8848 23.1799 28.7971 23.2497 28.6917 23.2497C28.6566 23.2497 28.6215 23.2322 28.5864 23.2148ZM2.64124 22.1332C2.58858 21.9936 2.6588 21.854 2.78167 21.8017C2.92211 21.7494 3.06254 21.8192 3.13276 21.9413C3.18542 22.0809 3.11521 22.2379 2.97477 22.2902C2.93966 22.3076 2.90455 22.3076 2.86945 22.3076C2.78167 22.3076 2.6939 22.2379 2.64124 22.1332ZM29.0253 22.2727C28.8848 22.2204 28.8322 22.0634 28.8673 21.9413C28.9199 21.8017 29.0779 21.7319 29.2008 21.8017C29.3412 21.854 29.4115 22.0111 29.3588 22.1332C29.3237 22.2379 29.2184 22.3076 29.113 22.3076C29.0779 22.2902 29.0604 22.2727 29.0253 22.2727ZM2.29016 21.1213C2.25505 20.9818 2.32526 20.8422 2.4657 20.7899C2.60613 20.755 2.74657 20.8248 2.79923 20.9643C2.83434 21.1039 2.76412 21.2435 2.62369 21.2958C2.60613 21.2958 2.57102 21.3132 2.55347 21.3132C2.43059 21.3132 2.32526 21.2435 2.29016 21.1213ZM29.3939 21.2783C29.2535 21.2435 29.1833 21.0865 29.2184 20.9469C29.2535 20.8073 29.4115 20.7375 29.5519 20.7724C29.6923 20.8073 29.7626 20.9643 29.7275 21.1039C29.6923 21.2086 29.587 21.2958 29.4817 21.2958C29.4466 21.2958 29.4115 21.2958 29.3939 21.2783ZM2.00929 20.0921C1.97418 19.9525 2.06195 19.8129 2.20238 19.778C2.34282 19.7431 2.48325 19.8304 2.51836 19.9699C2.55347 20.1095 2.4657 20.2491 2.32526 20.2839C2.30771 20.2839 2.29016 20.2839 2.2726 20.2839C2.14972 20.3014 2.0444 20.2142 2.00929 20.0921ZM29.6748 20.2839C29.5344 20.2491 29.4466 20.1095 29.4817 19.9699C29.5168 19.8304 29.6572 19.7431 29.7977 19.778C29.9381 19.8129 30.0259 19.9525 29.9908 20.0921C29.9557 20.2142 29.8503 20.3014 29.7275 20.3014C29.7275 20.2839 29.6923 20.2839 29.6748 20.2839ZM1.81619 19.0453C1.79864 18.9058 1.88641 18.7662 2.0444 18.7487C2.18483 18.7313 2.32526 18.8185 2.34282 18.9755C2.36037 19.1151 2.2726 19.2547 2.11461 19.2721C2.09706 19.2721 2.09706 19.2721 2.07951 19.2721C1.93907 19.2721 1.83375 19.1849 1.81619 19.0453ZM29.8854 19.2547C29.745 19.2372 29.6397 19.0977 29.6572 18.9581C29.6748 18.8185 29.8152 18.7138 29.9557 18.7313C30.0961 18.7487 30.2014 18.8883 30.1839 19.0279C30.1663 19.15 30.0434 19.2547 29.9205 19.2547C29.9205 19.2547 29.903 19.2547 29.8854 19.2547ZM1.69331 17.9986C1.67576 17.859 1.79864 17.7194 1.93907 17.7194C2.07951 17.702 2.21994 17.8241 2.21994 17.9637C2.23749 18.1033 2.11461 18.2428 1.97418 18.2428H1.95663C1.81619 18.2254 1.71087 18.1207 1.69331 17.9986ZM30.0259 18.2254C29.8854 18.2079 29.7801 18.0858 29.7801 17.9462C29.7977 17.8067 29.9205 17.702 30.061 17.702C30.2014 17.7194 30.3067 17.8416 30.3067 17.9811C30.2892 18.1207 30.1839 18.2254 30.0434 18.2254H30.0259ZM1.6582 16.9344C1.6582 16.7948 1.78108 16.6727 1.92152 16.6727C2.06195 16.6727 2.18483 16.7948 2.18483 16.9344C2.18483 17.074 2.06195 17.1961 1.92152 17.1961C1.76353 17.1961 1.6582 17.074 1.6582 16.9344ZM29.8328 16.917V16.882C29.8328 16.7425 29.9557 16.6204 30.0961 16.6204C30.2365 16.6204 30.3594 16.7425 30.3594 16.882V16.8995V16.917C30.3594 17.0565 30.2365 17.1786 30.0961 17.1786C29.9381 17.1786 29.8328 17.0565 29.8328 16.917ZM1.93907 16.1494C1.79864 16.1319 1.69331 16.0098 1.69331 15.8702C1.71087 15.7307 1.83375 15.626 1.97418 15.626C2.11461 15.6434 2.21994 15.7655 2.21994 15.9051C2.20238 16.0447 2.09706 16.1494 1.95663 16.1494H1.93907ZM29.7801 15.8528C29.7626 15.7132 29.8854 15.5737 30.0259 15.5737C30.1663 15.5562 30.3067 15.6783 30.3067 15.8179C30.3243 15.9574 30.2014 16.097 30.061 16.097H30.0434C29.903 16.097 29.7977 15.9923 29.7801 15.8528ZM2.02684 15.1026C1.88641 15.0852 1.78108 14.9456 1.79864 14.806C1.81619 14.6665 1.95663 14.5618 2.09706 14.5793C2.23749 14.5967 2.34282 14.7363 2.32526 14.8758C2.30771 15.0154 2.20238 15.1026 2.06195 15.1026C2.06195 15.1026 2.0444 15.1026 2.02684 15.1026ZM29.6748 14.8409C29.6572 14.7014 29.745 14.5618 29.8854 14.5443C30.0259 14.5269 30.1663 14.6141 30.1839 14.7711C30.2014 14.9107 30.1136 15.0503 29.9557 15.0677C29.9381 15.0677 29.9381 15.0677 29.9205 15.0677C29.7977 15.0503 29.6923 14.963 29.6748 14.8409ZM2.20238 14.0733C2.06195 14.0384 1.97418 13.8989 2.00929 13.7593C2.0444 13.6197 2.18483 13.5325 2.32526 13.5674C2.4657 13.6023 2.55347 13.7419 2.51836 13.8814C2.48325 14.0035 2.37793 14.0908 2.25505 14.0908C2.23749 14.0733 2.21994 14.0733 2.20238 14.0733ZM29.4817 13.8291C29.4466 13.6895 29.5344 13.5499 29.6748 13.5151C29.8152 13.4802 29.9557 13.5674 29.9908 13.707C30.0259 13.8465 29.9381 13.9861 29.7977 14.021C29.7801 14.021 29.7626 14.021 29.745 14.021C29.6046 14.021 29.4993 13.9512 29.4817 13.8291ZM2.44814 13.044C2.30771 13.0091 2.23749 12.8521 2.2726 12.7126C2.30771 12.573 2.4657 12.5032 2.60613 12.5381C2.74657 12.573 2.81678 12.73 2.78167 12.8696C2.74657 12.9743 2.64124 13.0615 2.53592 13.0615C2.50081 13.0615 2.48325 13.0615 2.44814 13.044ZM29.2008 12.8347C29.1657 12.6951 29.2359 12.5556 29.3763 12.5032C29.5168 12.4683 29.6572 12.5381 29.7099 12.6777C29.745 12.8173 29.6748 12.9568 29.5344 13.0091C29.5168 13.0266 29.4817 13.0266 29.4641 13.0266C29.3412 13.0266 29.2359 12.9394 29.2008 12.8347ZM2.78167 12.0497C2.64124 11.9973 2.58858 11.8403 2.64124 11.7182C2.6939 11.5786 2.85189 11.5088 2.97477 11.5786C3.11521 11.6309 3.16787 11.7879 3.13276 11.9101C3.09765 12.0147 2.99233 12.0845 2.887 12.0845C2.85189 12.0671 2.81678 12.0671 2.78167 12.0497ZM28.8673 11.8577C28.8146 11.7182 28.8848 11.5786 29.0077 11.5263C29.1481 11.474 29.2886 11.5437 29.3412 11.6658C29.3939 11.8054 29.3237 11.945 29.2008 11.9973C29.1657 12.0147 29.1306 12.0147 29.0955 12.0147C29.0077 12.0322 28.9024 11.9624 28.8673 11.8577ZM27.4103 9.15369C27.3225 9.03155 27.3576 8.87455 27.4805 8.78732C27.6034 8.70008 27.7614 8.73499 27.8491 8.85711C27.9369 8.97922 27.9018 9.13622 27.7789 9.22346C27.7263 9.25834 27.6736 9.27581 27.6209 9.27581C27.5507 9.25834 27.4629 9.22346 27.4103 9.15369ZM4.81798 8.40353C4.71266 8.31629 4.67753 8.14182 4.78285 8.03715C4.87063 7.91503 5.04619 7.89759 5.15151 8.00227C5.25681 8.0895 5.29194 8.26394 5.18661 8.36862C5.13393 8.43841 5.06374 8.47329 4.97596 8.47329C4.92328 8.45585 4.87063 8.43841 4.81798 8.40353ZM26.7959 8.33373C26.7081 8.21162 26.7257 8.05462 26.831 7.96739C26.9363 7.88015 27.1119 7.89759 27.1996 8.00227C27.2874 8.10694 27.2699 8.28141 27.1645 8.36862C27.1119 8.40353 27.0592 8.42097 27.0065 8.42097C26.9188 8.42097 26.8486 8.38609 26.7959 8.33373ZM5.48504 7.60101C5.37972 7.49637 5.37972 7.33934 5.46746 7.23466C5.57279 7.12999 5.7308 7.11255 5.83612 7.21722C5.94145 7.3219 5.94145 7.47889 5.85367 7.58357C5.80099 7.63592 5.7308 7.6708 5.66057 7.6708C5.60792 7.6708 5.53769 7.63592 5.48504 7.60101ZM26.1113 7.54869C26.0059 7.44401 26.0235 7.28702 26.1288 7.18234C26.2341 7.07767 26.4097 7.09511 26.4975 7.19978C26.6028 7.30446 26.5852 7.47889 26.4799 7.56613C26.4272 7.61848 26.357 7.63592 26.3044 7.63592C26.2341 7.63592 26.1639 7.60101 26.1113 7.54869ZM6.2223 6.83343C6.11698 6.72876 6.13452 6.57173 6.23985 6.46706C6.34518 6.36238 6.50319 6.37982 6.60851 6.4845C6.71384 6.58917 6.69626 6.7462 6.59093 6.85087C6.53828 6.9032 6.46806 6.92064 6.41541 6.92064C6.34518 6.92064 6.27498 6.88576 6.2223 6.83343ZM25.3916 6.83343C25.2862 6.72876 25.2862 6.57173 25.374 6.46706C25.4793 6.36238 25.6373 6.34494 25.7426 6.44962C25.848 6.55429 25.848 6.71129 25.7602 6.81596C25.7075 6.86832 25.6373 6.9032 25.5671 6.9032C25.4969 6.9032 25.4442 6.86832 25.3916 6.83343ZM6.99469 6.13559C6.90691 6.03092 6.92446 5.85648 7.04737 5.76924C7.17025 5.68201 7.32822 5.69945 7.416 5.80412C7.50378 5.92624 7.48623 6.08327 7.3809 6.1705C7.32822 6.20538 7.27557 6.22282 7.22289 6.22282C7.13512 6.24027 7.04737 6.20538 6.99469 6.13559ZM24.6016 6.15303C24.4963 6.06583 24.4612 5.89136 24.5665 5.78668C24.6543 5.68201 24.8298 5.64713 24.9351 5.7518C25.0404 5.83904 25.0756 6.01347 24.9702 6.11815C24.9176 6.18794 24.8474 6.22282 24.7596 6.22282C24.7069 6.20538 24.6543 6.18794 24.6016 6.15303ZM7.83731 5.50757C7.74953 5.38542 7.78463 5.22843 7.90751 5.14119C8.03038 5.05396 8.18839 5.08887 8.27617 5.21099C8.36391 5.3331 8.32881 5.4901 8.20594 5.57733C8.17084 5.61222 8.11816 5.62969 8.06551 5.62969C7.96018 5.61222 7.88996 5.57733 7.83731 5.50757ZM23.7766 5.54245C23.6537 5.45522 23.6186 5.29822 23.7063 5.17611C23.7941 5.05396 23.9521 5.01908 24.075 5.10631C24.1979 5.19355 24.233 5.35054 24.1452 5.47266C24.0925 5.54245 24.0048 5.59478 23.9345 5.59478C23.8643 5.59478 23.8117 5.57733 23.7766 5.54245ZM8.71502 4.93184C8.6448 4.80973 8.67989 4.65273 8.80277 4.58294C8.92565 4.51317 9.08365 4.54806 9.15388 4.67017C9.22408 4.79229 9.18898 4.94928 9.0661 5.01908C9.03097 5.03652 8.97833 5.05396 8.92565 5.05396C8.85545 5.05396 8.76767 5.00164 8.71502 4.93184ZM22.8988 5.00164C22.776 4.93184 22.7233 4.77485 22.7935 4.65273C22.8637 4.53062 23.0217 4.47826 23.1622 4.5655C23.285 4.63529 23.3377 4.79229 23.2675 4.9144C23.2148 5.00164 23.127 5.05396 23.0393 5.05396C22.9866 5.03652 22.9339 5.01908 22.8988 5.00164ZM9.62784 4.42594C9.55761 4.28635 9.62784 4.1468 9.75071 4.07703C9.89114 4.00724 10.0316 4.07703 10.1018 4.19915C10.1545 4.32127 10.1018 4.47826 9.97892 4.54806C9.94382 4.5655 9.90869 4.5655 9.85604 4.5655C9.76826 4.5655 9.68049 4.51317 9.62784 4.42594ZM21.986 4.51317C21.8456 4.44338 21.7929 4.28635 21.8631 4.16424C21.9158 4.02468 22.0738 3.97236 22.2142 4.04212C22.3371 4.11192 22.4073 4.25147 22.3371 4.39103C22.2845 4.47826 22.1967 4.54806 22.1089 4.54806C22.0562 4.54806 22.0211 4.53062 21.986 4.51317ZM10.5933 3.97236C10.5407 3.83277 10.6109 3.69322 10.7338 3.62342C10.8742 3.5711 11.0146 3.64089 11.0848 3.78045C11.1375 3.92001 11.0673 4.05956 10.9444 4.11192C10.9093 4.12936 10.8742 4.12936 10.8566 4.12936C10.7338 4.1468 10.6284 4.07703 10.5933 3.97236ZM21.0381 4.11192C20.8977 4.05956 20.8275 3.90257 20.8801 3.78045C20.9328 3.64089 21.0908 3.5711 21.2136 3.62342C21.3541 3.67577 21.4243 3.83277 21.3541 3.95489C21.319 4.05956 21.2136 4.12936 21.1083 4.12936C21.0908 4.12936 21.0557 4.12936 21.0381 4.11192ZM11.5763 3.60598C11.5412 3.46642 11.6115 3.32687 11.7519 3.27452C11.8923 3.23963 12.0328 3.30943 12.0854 3.44898C12.1205 3.58854 12.0503 3.7281 11.9099 3.78045C11.8748 3.78045 11.8572 3.79789 11.8397 3.79789C11.7168 3.79789 11.6115 3.7281 11.5763 3.60598ZM20.0551 3.78045C19.9146 3.74557 19.8444 3.58854 19.8795 3.44898C19.9146 3.30943 20.0726 3.23963 20.213 3.27452C20.3535 3.30943 20.4237 3.46642 20.3886 3.60598C20.3535 3.71066 20.2481 3.79789 20.1428 3.79789C20.1077 3.78045 20.0726 3.78045 20.0551 3.78045ZM12.5945 3.32687C12.5594 3.18731 12.6472 3.04773 12.7876 3.01284C12.928 2.97795 13.0685 3.06517 13.1036 3.20475C13.1387 3.34431 13.0509 3.48387 12.9105 3.51878C12.8929 3.51878 12.8754 3.51878 12.8578 3.51878C12.7174 3.51878 12.6121 3.44898 12.5945 3.32687ZM19.0545 3.50131C18.914 3.46642 18.8263 3.32687 18.8614 3.18731C18.8965 3.04773 19.0369 2.96051 19.1774 2.9954C19.3178 3.03028 19.4056 3.16984 19.3704 3.30943C19.3353 3.43154 19.23 3.51878 19.1071 3.51878C19.0896 3.51878 19.072 3.51878 19.0545 3.50131ZM13.6127 3.10008C13.5951 2.96051 13.6829 2.82094 13.8409 2.8035C13.9813 2.78605 14.1217 2.87328 14.1393 3.03028C14.1568 3.16984 14.0691 3.30943 13.9111 3.32687C13.8935 3.32687 13.876 3.32687 13.876 3.32687C13.7531 3.32687 13.6478 3.23963 13.6127 3.10008ZM18.0363 3.32687C17.8959 3.30943 17.7906 3.16984 17.8081 3.03028C17.8257 2.89072 17.9661 2.78605 18.1065 2.8035C18.247 2.82094 18.3523 2.96051 18.3347 3.10008C18.3172 3.23963 18.1943 3.32687 18.0714 3.32687C18.0714 3.32687 18.0539 3.32687 18.0363 3.32687ZM14.6659 2.97795C14.6483 2.83839 14.7712 2.69882 14.9116 2.69882C15.0521 2.68138 15.175 2.8035 15.1925 2.94306C15.2101 3.08264 15.0872 3.20475 14.9468 3.22219H14.9292C14.7888 3.22219 14.6659 3.11752 14.6659 2.97795ZM17.0182 3.20475C16.8777 3.18731 16.7724 3.06517 16.7724 2.92562C16.79 2.78605 16.9128 2.68137 17.0533 2.68137C17.1937 2.69882 17.299 2.82094 17.299 2.96051C17.2815 3.10008 17.1762 3.20475 17.0357 3.20475H17.0182ZM15.7192 2.90817C15.7192 2.7686 15.842 2.64648 15.9825 2.64648C16.1229 2.64648 16.2458 2.7686 16.2458 2.90817C16.2458 3.04773 16.1229 3.16984 15.9825 3.16984C15.842 3.16984 15.7192 3.06517 15.7192 2.90817Z" fill="url(#paint0_linear_3857_64578)"/>
<path d="M15.0333 14.8416C15.0333 15.208 14.7349 15.5046 14.3662 15.5046C13.9976 15.5046 13.6992 15.208 13.6992 14.8416C13.6992 14.4753 13.9976 14.1787 14.3662 14.1787C14.7349 14.1787 15.0333 14.4753 15.0333 14.8416ZM14.3662 18.6971C13.9976 18.6971 13.6992 18.9937 13.6992 19.36C13.6992 19.7264 13.9976 20.023 14.3662 20.023C14.7349 20.023 15.0333 19.7264 15.0333 19.36C15.0333 18.9937 14.7349 18.6971 14.3662 18.6971ZM12.1193 14.1961C11.7507 14.1961 11.4522 14.4927 11.4522 14.8591C11.4522 15.2254 11.7507 15.522 12.1193 15.522C12.488 15.522 12.7864 15.2254 12.7864 14.8591C12.7864 14.4927 12.488 14.1961 12.1193 14.1961ZM23.6876 12.4167C23.6876 12.6086 23.6876 12.8005 23.6876 12.9924V13.0622C23.6349 15.5046 23.2838 17.598 22.5992 19.4473L22.5641 19.5345V19.552C22.5465 19.5694 22.4939 19.7264 22.4939 19.7264L22.4588 19.7962C22.4412 19.8485 22.4237 19.9009 22.3886 19.9532C22.3534 20.0579 22.3008 20.1451 22.2657 20.2498L22.213 20.3719C22.1955 20.4068 22.1779 20.4591 22.1604 20.494C22.1077 20.6161 22.055 20.7208 22.0023 20.8255L21.9497 20.9127C21.9321 20.9476 21.9146 20.965 21.9146 20.9999C21.8268 21.1744 21.739 21.3488 21.6337 21.5058C20.3874 23.6865 18.5442 25.3787 15.9988 26.6872C13.471 25.3787 11.6278 23.6865 10.3815 21.5058C10.2937 21.3488 10.2059 21.1744 10.1006 20.9999C10.083 20.965 10.0655 20.9476 10.0655 20.9127L10.0303 20.8255C9.9777 20.7033 9.90747 20.5987 9.85482 20.4766C9.83727 20.4417 9.81972 20.3893 9.80214 20.3544L9.74949 20.2498C9.71439 20.1451 9.66172 20.0404 9.60907 19.9357C9.59149 19.8834 9.57394 19.8311 9.53884 19.7787C9.53884 19.7787 9.45106 19.5519 9.45106 19.5345V19.517L9.41596 19.4298C8.73135 17.5806 8.38027 15.4871 8.32759 13.0448V12.975V12.9575C8.32759 12.7656 8.32759 12.5737 8.32759 12.3993V12.2422C8.32759 12.0504 8.32759 11.8584 8.34514 11.6491V11.4397C8.34514 11.3351 8.34514 11.2304 8.36269 11.1257C8.4856 11.1257 8.5909 11.1257 8.7138 11.1257C11.2592 11.1257 13.787 10.4977 16.0163 9.32884C18.2633 10.5151 20.7736 11.1257 23.3189 11.1257C23.4418 11.1257 23.5471 11.1257 23.67 11.1257C23.67 11.2304 23.67 11.3351 23.6876 11.4397V11.6491C23.6876 11.841 23.6876 12.0329 23.7051 12.2422L23.6876 12.4167ZM17.9298 14.8416C17.9298 15.3476 18.3511 15.7662 18.8601 15.7662C19.3692 15.7662 19.7905 15.3476 19.7905 14.8416C19.7905 14.3357 19.3692 13.917 18.8601 13.917C18.3511 13.917 17.9298 14.3357 17.9298 14.8416ZM13.0497 14.8416C13.0497 14.3357 12.6284 13.917 12.1193 13.917C11.6103 13.917 11.1889 14.3357 11.1889 14.8416C11.1889 15.3476 11.6103 15.7662 12.1193 15.7662C12.6284 15.7662 13.0497 15.365 13.0497 14.8416ZM15.2966 19.3426C15.2966 18.8367 14.8753 18.418 14.3662 18.418C13.8572 18.418 13.4359 18.8367 13.4359 19.3426C13.4359 19.8485 13.8572 20.2672 14.3662 20.2672C14.8753 20.2672 15.2966 19.8659 15.2966 19.3426ZM15.2966 14.8416C15.2966 14.3357 14.8753 13.917 14.3662 13.917C13.8572 13.917 13.4359 14.3357 13.4359 14.8416C13.4359 15.3476 13.8572 15.7662 14.3662 15.7662C14.8753 15.7662 15.2966 15.365 15.2966 14.8416ZM17.5436 19.3426C17.5436 18.8367 17.1223 18.418 16.6132 18.418C16.1041 18.418 15.6828 18.8367 15.6828 19.3426C15.6828 19.8485 16.1041 20.2672 16.6132 20.2672C17.1223 20.2672 17.5436 19.8659 17.5436 19.3426ZM17.5436 17.0921C17.5436 16.5862 17.1223 16.1675 16.6132 16.1675C16.1041 16.1675 15.6828 16.5862 15.6828 17.0921C15.6828 17.598 16.1041 18.0167 16.6132 18.0167C17.1223 18.0167 17.5436 17.6155 17.5436 17.0921ZM17.5436 14.8416C17.5436 14.3357 17.1223 13.917 16.6132 13.917C16.1041 13.917 15.6828 14.3357 15.6828 14.8416C15.6828 15.3476 16.1041 15.7662 16.6132 15.7662C17.1223 15.7662 17.5436 15.365 17.5436 14.8416ZM19.7905 17.0921C19.7905 16.5862 19.3692 16.1675 18.8601 16.1675C18.3511 16.1675 17.9298 16.5862 17.9298 17.0921C17.9298 17.598 18.3511 18.0167 18.8601 18.0167C19.3692 18.0167 19.7905 17.6155 19.7905 17.0921ZM18.8601 16.4292C18.4915 16.4292 18.1931 16.7258 18.1931 17.0921C18.1931 17.4585 18.4915 17.755 18.8601 17.755C19.2288 17.755 19.5272 17.4585 19.5272 17.0921C19.5272 16.7258 19.2288 16.4292 18.8601 16.4292ZM28.4623 0.169922C27.5846 0.169922 26.8649 0.88519 26.8649 1.75747C26.8649 2.62975 27.5846 3.34502 28.4623 3.34502C29.34 3.34502 30.0598 2.62975 30.0598 1.75747C30.0598 0.88519 29.34 0.169922 28.4623 0.169922ZM2.35915 7.13069C1.48144 7.13069 0.761719 7.84598 0.761719 8.71826C0.761719 9.59051 1.48144 10.3058 2.35915 10.3058C3.23687 10.3058 3.9566 9.59051 3.9566 8.71826C3.9566 7.84598 3.23687 7.13069 2.35915 7.13069Z" fill="url(#paint1_linear_3857_64578)"/>
<path d="M4.53626 7.13102C7.30984 3.92104 11.4175 1.89736 15.9992 1.89736C21.1601 1.89736 25.7243 4.4793 28.4627 8.40456M9.78498 30.5953C11.6808 31.4503 13.7873 31.9211 15.9992 31.9211C18.211 31.9211 20.3175 31.4503 22.2134 30.5953M24.5481 29.2869C28.5154 26.5828 31.0958 22.047 31.0958 16.918C31.0958 14.7198 30.6219 12.6264 29.7617 10.7423M1.95579 11.3354C1.86802 11.5622 1.78025 11.789 1.69248 12.0332C1.16585 13.5684 0.867427 15.2083 0.867427 16.918C0.867427 22.0644 3.48302 26.6177 7.45026 29.3218M18.2286 26.4607C18.6148 26.7573 18.9834 27.0364 19.352 27.3155C20.7739 28.3623 22.1256 29.2695 23.3895 30.0021C26.8828 32.0258 29.6388 32.7238 30.7799 31.5897C31.7804 30.5953 31.3416 28.3448 29.8319 25.414M2.16644 25.4314C0.63922 28.3448 0.21792 30.5953 1.21851 31.5897C2.34198 32.7061 5.0629 32.0258 8.52108 30.0371C9.80253 29.3043 11.1893 28.3797 12.6288 27.3155C12.9974 27.0364 13.366 26.7573 13.7522 26.4607M7.43271 3.17087C4.50117 1.65312 2.21911 1.23443 1.21851 2.22882C0.09504 3.34534 0.779655 6.0843 2.81595 9.55595C3.71123 11.0912 4.8698 12.7659 6.23902 14.5105C6.32679 14.6152 6.39702 14.7198 6.4848 14.8071C6.555 14.8943 6.60768 14.9641 6.67787 15.0513C6.99386 15.4351 7.30984 15.8189 7.62582 16.2027M24.3725 16.2027C24.7061 15.8189 25.0045 15.4351 25.3205 15.0513C25.3907 14.9641 25.4609 14.8943 25.5136 14.8071C25.6013 14.7024 25.6716 14.5977 25.7593 14.5105C27.0935 12.8008 28.2345 11.161 29.1298 9.66063C31.2187 6.13662 31.9385 3.36278 30.7974 2.22882C29.7968 1.23443 27.5323 1.67057 24.5832 3.18835M24.6359 12.2426C24.6359 12.0507 24.6359 11.8413 24.6183 11.632C24.6183 11.5622 24.6183 11.4924 24.6183 11.4226C24.6183 11.161 24.6008 10.9167 24.5832 10.655L24.5657 10.1491C24.1619 10.184 23.7406 10.2014 23.3193 10.2014C20.6511 10.2014 18.1584 9.50363 16.0167 8.26497C13.8576 9.50363 11.3473 10.2189 8.69661 10.2189C8.27533 10.2189 7.85402 10.2014 7.45026 10.1666L7.41516 10.6725C7.39761 10.9342 7.39761 11.1958 7.38006 11.4401C7.38006 11.5099 7.38006 11.5796 7.38006 11.6494C7.38006 11.8588 7.38006 12.0507 7.38006 12.26C7.38006 12.3124 7.38006 12.3647 7.38006 12.417C7.38006 12.6438 7.38006 12.8532 7.38006 13.08V13.0974C7.43271 15.6445 7.81892 17.86 8.53863 19.7965V19.8139C8.57373 19.9012 8.60886 19.9884 8.64396 20.0756C8.67906 20.1629 8.71419 20.2501 8.74929 20.3199C8.80193 20.442 8.85461 20.5467 8.90726 20.6688C8.94239 20.7386 8.97749 20.8258 9.01259 20.8956C9.06527 21.0177 9.13547 21.1398 9.18814 21.2794C9.22324 21.3317 9.24079 21.4015 9.27592 21.4713C9.36367 21.6632 9.469 21.8376 9.57432 22.0121C10.9436 24.4021 12.9448 26.2339 15.7183 27.6296L16.0167 27.7691L16.3152 27.6296C19.0887 26.2339 21.0899 24.4021 22.4591 22.0121C22.5645 21.8376 22.6522 21.6457 22.7576 21.4713C22.7927 21.419 22.8102 21.3492 22.8454 21.2794C22.9155 21.1573 22.9682 21.0351 23.0209 20.8956C23.056 20.8258 23.0911 20.7386 23.1262 20.6688C23.1789 20.5467 23.2315 20.442 23.2842 20.3199C23.3193 20.2326 23.3544 20.1454 23.3895 20.0756C23.4246 19.9884 23.4597 19.9012 23.4949 19.8139V19.7965C24.2146 17.86 24.6008 15.6445 24.6534 13.0974V13.08C24.6534 12.8706 24.6534 12.6438 24.6534 12.417C24.6359 12.3647 24.6359 12.2949 24.6359 12.2426Z" stroke="url(#paint2_linear_3857_64578)" stroke-width="0.349996" stroke-linecap="round" stroke-linejoin="round"/>
<defs>
<linearGradient id="paint0_linear_3857_64578" x1="1.69206" y1="31.1305" x2="30.3371" y2="2.3086" gradientUnits="userSpaceOnUse">
<stop stop-color="#C6192E"/>
<stop offset="0.15" stop-color="#C6192E"/>
<stop offset="0.17" stop-color="#C01D32"/>
<stop offset="0.52" stop-color="#755268"/>
<stop offset="0.77" stop-color="#467389"/>
<stop offset="0.89" stop-color="#348097"/>
<stop offset="1" stop-color="#348097"/>
</linearGradient>
<linearGradient id="paint1_linear_3857_64578" x1="-1.79455" y1="28.0022" x2="26.4859" y2="-0.452676" gradientUnits="userSpaceOnUse">
<stop stop-color="#C6192E"/>
<stop offset="0.15" stop-color="#C6192E"/>
<stop offset="0.17" stop-color="#C01D32"/>
<stop offset="0.52" stop-color="#755268"/>
<stop offset="0.77" stop-color="#467389"/>
<stop offset="0.89" stop-color="#348097"/>
<stop offset="1" stop-color="#348097"/>
</linearGradient>
<linearGradient id="paint2_linear_3857_64578" x1="1.03495" y1="31.7826" x2="30.7758" y2="1.8564" gradientUnits="userSpaceOnUse">
<stop stop-color="#C6192E"/>
<stop offset="0.15" stop-color="#C6192E"/>
<stop offset="0.17" stop-color="#C01D32"/>
<stop offset="0.52" stop-color="#755268"/>
<stop offset="0.77" stop-color="#467389"/>
<stop offset="0.89" stop-color="#348097"/>
<stop offset="1" stop-color="#348097"/>
</linearGradient>
</defs>
</svg>
