<svg width="23" height="23" viewBox="0 0 23 23" fill="none" xmlns="http://www.w3.org/2000/svg">
<path d="M12.5186 1.91675L18.9075 8.30564V21.0834H4V1.91675H12.5186Z" stroke="currentColor" stroke-width="1.4375" stroke-linecap="round" stroke-linejoin="round"/>
<path d="M12.3516 1.91675V8.30564H18.7405" stroke="currentColor" stroke-width="1.4375" stroke-linecap="round" stroke-linejoin="round"/>
<path d="M11.3676 11.028L8.14392 11.7739C8.05671 11.8132 7.99925 11.8939 8.00001 11.976C8.00001 13.7089 8.43686 15.5342 9.088 16.3262C9.73914 17.1181 10.5888 17.5618 11.3503 17.9646C11.439 18.0118 11.561 18.0118 11.6497 17.9646C12.4112 17.5618 13.2608 17.1181 13.912 16.3262C14.5632 15.5342 15 13.7089 15 11.976C15.0007 11.8939 14.9433 11.8132 14.8561 11.7739L11.6324 11.028C11.532 10.9881 11.4554 10.9933 11.3676 11.028ZM11.5 11.4894V17.5009C10.7885 17.123 10.0872 16.728 9.54565 16.0694C8.98275 15.3847 8.58419 13.6926 8.56127 12.1068L11.5 11.4894Z" fill="currentColor"/>
</svg>
