<svg width="22" height="20" viewBox="0 0 22 20" fill="none" xmlns="http://www.w3.org/2000/svg">
<path fill-rule="evenodd" clip-rule="evenodd" d="M11.2964 0.929489C11.7209 0.912099 12.0861 1.19038 12.1819 1.60428L14.9849 13.7062C14.9967 13.757 15.004 13.8085 15.0071 13.8602C15.1165 14.3839 15.1186 14.928 15.0044 15.4584C14.8772 16.0493 14.6099 16.6023 14.2196 17.0698C13.8294 17.5371 13.3337 17.8983 12.7771 18.1296C12.2213 18.3606 11.6227 18.455 11.0292 18.4162C10.436 18.3775 9.85929 18.2066 9.34022 17.9218C8.82116 17.6371 8.36779 17.2431 8.01417 16.7678C7.66053 16.2926 7.41237 15.7437 7.29538 15.1591C7.17884 14.5768 7.19524 13.9717 7.35406 13.3914L10.3878 1.67778C10.4972 1.25547 10.8719 0.94688 11.2964 0.929489ZM13.1477 14.0791L11.2185 5.74968L9.13508 13.794C9.05902 14.0695 9.0461 14.3741 9.10848 14.6858C9.17095 14.9979 9.30685 15.3061 9.51234 15.5822C9.71785 15.8584 9.9838 16.0901 10.289 16.2575C10.5941 16.4249 10.9246 16.5204 11.2518 16.5417C11.5787 16.5631 11.8893 16.5099 12.1615 16.3967C12.4329 16.2839 12.662 16.1136 12.8378 15.9031C13.0135 15.6927 13.1381 15.4394 13.1988 15.1576C13.2596 14.8749 13.2553 14.566 13.1751 14.2543C13.1603 14.1967 13.1512 14.138 13.1477 14.0791Z" fill="currentColor"/>
<path fill-rule="evenodd" clip-rule="evenodd" d="M11.4429 4.5531C12.6208 4.55239 13.7637 4.91153 14.7878 5.59954C15.8112 6.28711 16.686 7.28282 17.3548 8.50521C17.6172 8.98491 17.5013 9.64928 17.0959 9.98912C16.6905 10.329 16.1491 10.2156 15.8866 9.73588C15.3565 8.76683 14.6741 7.99747 13.8943 7.47356C13.1151 6.95008 12.2537 6.68148 11.3706 6.68201C10.4873 6.68255 9.5954 6.9524 8.75828 7.48083C7.9205 8.00968 7.15638 8.78593 6.52618 9.76259C6.22188 10.2342 5.67118 10.332 5.29615 9.98099C4.92113 9.62999 4.8638 8.96315 5.16811 8.49154C5.95297 7.27519 6.92014 6.28438 8.00513 5.59949C9.09077 4.91417 10.2652 4.55381 11.4429 4.5531Z" fill="currentColor"/>
<path fill-rule="evenodd" clip-rule="evenodd" d="M5.0824 1.62439C6.90289 0.56001 8.93314 0 10.9999 0C13.0667 0 15.0969 0.56001 16.9174 1.62439C18.7369 2.68823 20.2899 4.22217 21.4526 6.08682C21.7188 6.51384 21.5862 7.0744 21.1563 7.33887C20.7264 7.60335 20.162 7.47159 19.8958 7.04457C18.8801 5.41562 17.5371 4.09732 15.9885 3.19193C14.4409 2.28709 12.7301 1.81893 10.9999 1.81893C9.26969 1.81893 7.55892 2.28709 6.0113 3.19193C4.46275 4.09732 3.11974 5.41562 2.10403 7.04457C1.83777 7.47159 1.27343 7.60335 0.843532 7.33887C0.413637 7.0744 0.280985 6.51384 0.547244 6.08682C1.70993 4.22217 3.26285 2.68823 5.0824 1.62439Z" fill="currentColor"/>
</svg>
