<svg width="18" height="20" viewBox="0 0 18 20" fill="none" xmlns="http://www.w3.org/2000/svg">
<path d="M8.514 0.0763834C8.82988 -0.0254611 9.17012 -0.0254611 9.486 0.0763834L16.911 2.46614C17.2274 2.56802 17.5032 2.76673 17.6988 3.03378C17.8945 3.30083 17.9999 3.62251 18 3.9527V8.44096C18 13.9709 14.607 18.0044 9.5391 19.9028C9.19155 20.0324 8.80845 20.0324 8.4609 19.9028C3.3939 18.0035 0 13.9709 0 8.44096V3.9527C0 3.27374 0.441 2.67518 1.089 2.46614L8.514 0.0763834ZM9.0693 1.35032C9.02422 1.33603 8.97578 1.33603 8.9307 1.35032L1.5057 3.74186C1.46058 3.75636 1.42123 3.78464 1.39327 3.82267C1.3653 3.86069 1.35016 3.90651 1.35 3.95359V8.44096C1.35 13.3196 4.302 16.9128 8.937 18.6486C8.97761 18.6637 9.02239 18.6637 9.063 18.6486C13.698 16.9128 16.65 13.3187 16.65 8.44096V3.9527C16.6498 3.90562 16.6347 3.8598 16.6067 3.82177C16.5788 3.78375 16.5394 3.75547 16.4943 3.74097L9.0693 1.35032Z" fill="currentColor"/>
<path fill-rule="evenodd" clip-rule="evenodd" d="M8.7004 4.07693C8.88643 3.97419 9.11357 3.97419 9.2996 4.07693L14.1885 6.77693C14.3809 6.8832 14.5 7.08311 14.5 7.29988V12.6999C14.5 12.9166 14.3809 13.1166 14.1885 13.2228L9.2996 15.9228C9.11357 16.0256 8.88643 16.0256 8.7004 15.9228L3.81151 13.2228C3.61908 13.1166 3.5 12.9166 3.5 12.6999V7.29988C3.5 7.08311 3.61908 6.8832 3.81151 6.77693L8.7004 4.07693ZM4.72222 8.32579L8.38889 10.3508V14.374L4.72222 12.349V8.32579ZM9.61111 14.374L13.2778 12.349V8.32579L9.61111 10.3508V14.374ZM9 9.31147L12.6424 7.29988L9 5.28829L5.35761 7.29988L9 9.31147Z" fill="currentColor"/>
</svg>
