<svg width="24" height="20" viewBox="0 0 24 20" fill="none" xmlns="http://www.w3.org/2000/svg">
<path d="M7.12267 8.25196C7.12267 8.51163 7.15285 8.72274 7.20426 8.87685C7.26349 9.03096 7.33838 9.19985 7.44232 9.38246C7.47552 9.43057 7.49372 9.48654 7.49485 9.54396C7.49485 9.61468 7.45014 9.68435 7.35402 9.75507L6.88573 10.0496C6.82919 10.088 6.76198 10.11 6.69238 10.1129C6.61749 10.1129 6.54373 10.0781 6.46885 10.0147C6.3686 9.91311 6.27913 9.80245 6.20173 9.68435C6.11842 9.54977 6.04159 9.4117 5.97149 9.27057C5.39143 9.91657 4.66273 10.2396 3.78538 10.2396C3.16061 10.2396 2.66326 10.0707 2.29891 9.73396C1.93455 9.39724 1.74902 8.94757 1.74902 8.38601C1.74902 7.78963 1.97255 7.30513 2.4252 6.9399C2.87785 6.57468 3.48138 6.39207 4.24696 6.39207C4.49955 6.39207 4.75996 6.41318 5.03491 6.44801C5.30873 6.48179 5.59149 6.53879 5.88879 6.60107V6.08913C5.88879 5.55501 5.77032 5.18346 5.53896 4.96601C5.30202 4.74751 4.89967 4.64301 4.32744 4.64301C4.06702 4.64301 3.79991 4.67151 3.52496 4.73379C3.25183 4.79525 2.98366 4.87497 2.72249 4.97235C2.63772 5.00788 2.55076 5.03854 2.46208 5.06418C2.4237 5.07592 2.38389 5.08301 2.34361 5.08529C2.23967 5.08529 2.18714 5.01457 2.18714 4.86785V4.52374C2.18714 4.41185 2.20167 4.3274 2.23967 4.27779C2.29557 4.21366 2.36683 4.163 2.44755 4.13001C2.70685 4.00335 3.01867 3.89885 3.38302 3.8144C3.76203 3.72298 4.15198 3.67828 4.54314 3.6814C5.42832 3.6814 6.07432 3.8714 6.4912 4.25035C6.90026 4.62929 7.10814 5.20563 7.10814 5.97724V8.25196H7.12267ZM4.10502 9.31913C4.35091 9.31913 4.60349 9.2769 4.87061 9.19246C5.13773 9.10801 5.37579 8.9539 5.57696 8.74279C5.69543 8.60979 5.78485 8.46201 5.82955 8.29313C5.87426 8.12424 5.90443 7.92051 5.90443 7.68196V7.38746C5.67847 7.33624 5.44977 7.29642 5.21932 7.26818C4.98765 7.24016 4.75434 7.22606 4.52079 7.22596C4.02232 7.22596 3.65796 7.31674 3.4132 7.50674C3.16732 7.69674 3.04885 7.96274 3.04885 8.31424C3.04885 8.64463 3.13826 8.88951 3.32379 9.0584C3.50261 9.23468 3.76302 9.31913 4.10502 9.31913ZM10.0744 10.077C9.94026 10.077 9.85085 10.0559 9.79161 10.0063C9.73238 9.96407 9.67985 9.8659 9.63514 9.7329L7.88826 4.30524C7.84355 4.16485 7.8212 4.07302 7.8212 4.02446C7.8212 3.91257 7.88043 3.84924 8.00002 3.84924H8.72873C8.86955 3.84924 8.96679 3.87035 9.0182 3.91996C9.07743 3.96218 9.12214 4.06035 9.16685 4.19335L10.4164 8.84096L11.5765 4.19335C11.6134 4.05296 11.6581 3.96113 11.7173 3.91996C11.8064 3.86806 11.9102 3.84337 12.0146 3.84924H12.6092C12.75 3.84924 12.8473 3.87035 12.9065 3.91996C12.9657 3.96218 13.0183 4.06035 13.0473 4.19335L14.222 8.89796L15.5084 4.19335C15.5531 4.05296 15.6045 3.96113 15.657 3.91996C15.7432 3.86812 15.8445 3.84336 15.9465 3.84924H16.6383C16.7568 3.84924 16.8238 3.90518 16.8238 4.02446C16.8238 4.05929 16.816 4.09518 16.8093 4.13635C16.7975 4.19615 16.7799 4.2548 16.7568 4.31157L14.9652 9.73924C14.9205 9.87963 14.8691 9.97146 14.8087 10.0126C14.7247 10.0637 14.6257 10.0885 14.526 10.0833H13.8867C13.7458 10.0833 13.6486 10.0622 13.5894 10.0126C13.5301 9.96301 13.4776 9.87224 13.4486 9.73185L12.2963 5.20351L11.1518 9.72551C11.1149 9.8659 11.0702 9.95774 11.011 10.0063C10.9517 10.0548 10.8478 10.077 10.7137 10.077H10.0744ZM19.628 10.267C19.2413 10.267 18.8546 10.2248 18.4836 10.1403C18.1114 10.0559 17.8219 9.96512 17.6286 9.85957C17.5101 9.79624 17.4274 9.72657 17.3983 9.66324C17.3692 9.60143 17.3539 9.53457 17.3536 9.4669V9.10907C17.3536 8.96129 17.4128 8.89162 17.5246 8.89162C17.5693 8.89162 17.614 8.89901 17.6587 8.91274C17.7034 8.92646 17.7705 8.95496 17.8443 8.98346C18.0968 9.08901 18.3718 9.17346 18.6624 9.2294C18.9597 9.28535 19.2491 9.31385 19.5476 9.31385C20.0158 9.31385 20.3802 9.23679 20.6328 9.08163C20.7539 9.01263 20.8535 8.91455 20.9215 8.79736C20.9894 8.68017 21.0232 8.54807 21.0195 8.41451C21.022 8.32405 21.0055 8.23401 20.9709 8.14959C20.9364 8.06517 20.8845 7.98803 20.8183 7.92263C20.6842 7.78963 20.4316 7.67035 20.0673 7.5574L18.9887 7.24179C18.4456 7.08029 18.0443 6.84174 17.7995 6.52613C17.5599 6.23468 17.429 5.87654 17.4274 5.50751C17.4274 5.21301 17.4944 4.95335 17.6286 4.72851C17.7627 4.50368 17.9404 4.30735 18.1639 4.15324C18.3874 3.99174 18.64 3.87246 18.9373 3.78801C19.2335 3.70146 19.5453 3.66663 19.8728 3.66663C20.036 3.66663 20.207 3.67401 20.3713 3.69513C20.5423 3.71624 20.6987 3.74474 20.8541 3.77218C21.0027 3.80701 21.1435 3.8429 21.2777 3.88407C21.4118 3.92629 21.5157 3.96852 21.5895 4.01074C21.6934 4.06668 21.7683 4.12263 21.813 4.18596C21.8577 4.2419 21.8801 4.31896 21.8801 4.41818V4.74857C21.8801 4.89635 21.8208 4.9734 21.7091 4.9734C21.61 4.96254 21.514 4.93388 21.4263 4.88896C20.9771 4.70154 20.4901 4.60827 19.9991 4.61557C19.5755 4.61557 19.2413 4.6789 19.01 4.8119C18.7797 4.9449 18.6601 5.14863 18.6601 5.43679C18.6601 5.63313 18.735 5.80201 18.8837 5.93501C19.0323 6.06801 19.3073 6.20207 19.7018 6.32135L20.758 6.63696C21.2933 6.79846 21.68 7.02329 21.9103 7.31146C22.1405 7.59963 22.2523 7.92896 22.2523 8.29418C22.2523 8.59607 22.1852 8.86946 22.0589 9.10907C21.9248 9.34763 21.7471 9.55874 21.5157 9.72657C21.2705 9.9069 20.9903 10.0403 20.6909 10.1192C20.3556 10.2174 20.0069 10.267 19.628 10.267Z" fill="currentColor"/>
<path fill-rule="evenodd" clip-rule="evenodd" d="M21.033 13.6787C18.5876 15.3845 15.0335 16.2901 11.9778 16.2901C7.6961 16.2901 3.83686 14.7944 0.923159 12.3086C0.692923 12.1122 0.900806 11.8452 1.17575 11.9993C4.32751 13.7262 8.21581 14.7722 12.2382 14.7722C14.9519 14.7722 17.9326 14.2381 20.6765 13.1435C21.0844 12.9704 21.4342 13.3979 21.033 13.6787Z" fill="currentColor"/>
<path fill-rule="evenodd" clip-rule="evenodd" d="M22.0513 12.584C21.7395 12.2051 19.9847 12.4014 19.189 12.4932C18.9509 12.5217 18.914 12.3244 19.1298 12.1776C20.5279 11.2509 22.8247 11.5179 23.0918 11.8261C23.3589 12.1417 23.0169 14.312 21.7093 15.3506C21.5081 15.5121 21.3147 15.4277 21.4042 15.2176C21.7015 14.522 22.3631 12.9556 22.0513 12.584Z" fill="currentColor"/>
</svg>