<svg width="21" height="23" viewBox="0 0 21 23" fill="none" xmlns="http://www.w3.org/2000/svg">
<path d="M4.31 6.15285C3.36 6.15285 2.59 6.93285 2.59 7.89285C2.59 8.35285 2.77 8.78285 3.1 9.11285C3.42 9.43285 3.86 9.61285 4.31 9.61285H4.32C5.27 9.61285 6.04 8.83285 6.04 7.87285C6.04 6.93285 5.27 6.16285 4.31 6.15285ZM4.32 8.76285H4.31C4.08 8.76285 3.86 8.67285 3.7 8.50285C3.53 8.34285 3.44 8.12285 3.44 7.88285C3.44 7.40285 3.83 7.00285 4.32 7.00285C4.8 7.00285 5.18 7.40285 5.19 7.88285C5.19 8.36285 4.8 8.76285 4.32 8.76285ZM8.64 6.15285C7.69 6.15285 6.92 6.93285 6.92 7.88285C6.92 8.34285 7.1 8.78285 7.43 9.10285C7.75 9.43285 8.19 9.61285 8.65 9.61285C9.6 9.61285 10.37 8.83285 10.37 7.88285C10.37 6.93285 9.59 6.15285 8.64 6.15285ZM8.65 8.76285C8.41 8.76285 8.2 8.66285 8.03 8.50285C7.87 8.33285 7.78 8.11285 7.78 7.88285C7.78 7.40285 8.17 7.00285 8.64 7.00285V6.58285L8.65 7.00285C9.13 7.00285 9.52 7.40285 9.52 7.88285C9.52 8.36285 9.13 8.75285 8.65 8.76285ZM8.64 6.15285C7.69 6.15285 6.92 6.93285 6.92 7.88285C6.92 8.34285 7.1 8.78285 7.43 9.10285C7.75 9.43285 8.19 9.61285 8.65 9.61285C9.6 9.61285 10.37 8.83285 10.37 7.88285C10.37 6.93285 9.59 6.15285 8.64 6.15285ZM8.65 8.76285C8.41 8.76285 8.2 8.66285 8.03 8.50285C7.87 8.33285 7.78 8.11285 7.78 7.88285C7.78 7.40285 8.17 7.00285 8.64 7.00285V6.58285L8.65 7.00285C9.13 7.00285 9.52 7.40285 9.52 7.88285C9.52 8.36285 9.13 8.75285 8.65 8.76285ZM4.31 6.15285C3.36 6.15285 2.59 6.93285 2.59 7.89285C2.59 8.35285 2.77 8.78285 3.1 9.11285C3.42 9.43285 3.86 9.61285 4.31 9.61285H4.32C5.27 9.61285 6.04 8.83285 6.04 7.87285C6.04 6.93285 5.27 6.16285 4.31 6.15285ZM4.32 8.76285H4.31C4.08 8.76285 3.86 8.67285 3.7 8.50285C3.53 8.34285 3.44 8.12285 3.44 7.88285C3.44 7.40285 3.83 7.00285 4.32 7.00285C4.8 7.00285 5.18 7.40285 5.19 7.88285C5.19 8.36285 4.8 8.76285 4.32 8.76285ZM4.31 6.15285C3.36 6.15285 2.59 6.93285 2.59 7.89285C2.59 8.35285 2.77 8.78285 3.1 9.11285C3.42 9.43285 3.86 9.61285 4.31 9.61285H4.32C5.27 9.61285 6.04 8.83285 6.04 7.87285C6.04 6.93285 5.27 6.16285 4.31 6.15285ZM4.32 8.76285H4.31C4.08 8.76285 3.86 8.67285 3.7 8.50285C3.53 8.34285 3.44 8.12285 3.44 7.88285C3.44 7.40285 3.83 7.00285 4.32 7.00285C4.8 7.00285 5.18 7.40285 5.19 7.88285C5.19 8.36285 4.8 8.76285 4.32 8.76285ZM8.64 6.15285C7.69 6.15285 6.92 6.93285 6.92 7.88285C6.92 8.34285 7.1 8.78285 7.43 9.10285C7.75 9.43285 8.19 9.61285 8.65 9.61285C9.6 9.61285 10.37 8.83285 10.37 7.88285C10.37 6.93285 9.59 6.15285 8.64 6.15285ZM8.65 8.76285C8.41 8.76285 8.2 8.66285 8.03 8.50285C7.87 8.33285 7.78 8.11285 7.78 7.88285C7.78 7.40285 8.17 7.00285 8.64 7.00285V6.58285L8.65 7.00285C9.13 7.00285 9.52 7.40285 9.52 7.88285C9.52 8.36285 9.13 8.75285 8.65 8.76285ZM8.64 6.15285C7.69 6.15285 6.92 6.93285 6.92 7.88285C6.92 8.34285 7.1 8.78285 7.43 9.10285C7.75 9.43285 8.19 9.61285 8.65 9.61285C9.6 9.61285 10.37 8.83285 10.37 7.88285C10.37 6.93285 9.59 6.15285 8.64 6.15285ZM8.65 8.76285C8.41 8.76285 8.2 8.66285 8.03 8.50285C7.87 8.33285 7.78 8.11285 7.78 7.88285C7.78 7.40285 8.17 7.00285 8.64 7.00285V6.58285L8.65 7.00285C9.13 7.00285 9.52 7.40285 9.52 7.88285C9.52 8.36285 9.13 8.75285 8.65 8.76285ZM4.31 6.15285C3.36 6.15285 2.59 6.93285 2.59 7.89285C2.59 8.35285 2.77 8.78285 3.1 9.11285C3.42 9.43285 3.86 9.61285 4.31 9.61285H4.32C5.27 9.61285 6.04 8.83285 6.04 7.87285C6.04 6.93285 5.27 6.16285 4.31 6.15285ZM4.32 8.76285H4.31C4.08 8.76285 3.86 8.67285 3.7 8.50285C3.53 8.34285 3.44 8.12285 3.44 7.88285C3.44 7.40285 3.83 7.00285 4.32 7.00285C4.8 7.00285 5.18 7.40285 5.19 7.88285C5.19 8.36285 4.8 8.76285 4.32 8.76285ZM4.31 6.15285C3.36 6.15285 2.59 6.93285 2.59 7.89285C2.59 8.35285 2.77 8.78285 3.1 9.11285C3.42 9.43285 3.86 9.61285 4.31 9.61285H4.32C5.27 9.61285 6.04 8.83285 6.04 7.87285C6.04 6.93285 5.27 6.16285 4.31 6.15285ZM4.32 8.76285H4.31C4.08 8.76285 3.86 8.67285 3.7 8.50285C3.53 8.34285 3.44 8.12285 3.44 7.88285C3.44 7.40285 3.83 7.00285 4.32 7.00285C4.8 7.00285 5.18 7.40285 5.19 7.88285C5.19 8.36285 4.8 8.76285 4.32 8.76285ZM8.64 6.15285C7.69 6.15285 6.92 6.93285 6.92 7.88285C6.92 8.34285 7.1 8.78285 7.43 9.10285C7.75 9.43285 8.19 9.61285 8.65 9.61285C9.6 9.61285 10.37 8.83285 10.37 7.88285C10.37 6.93285 9.59 6.15285 8.64 6.15285ZM8.65 8.76285C8.41 8.76285 8.2 8.66285 8.03 8.50285C7.87 8.33285 7.78 8.11285 7.78 7.88285C7.78 7.40285 8.17 7.00285 8.64 7.00285V6.58285L8.65 7.00285C9.13 7.00285 9.52 7.40285 9.52 7.88285C9.52 8.36285 9.13 8.75285 8.65 8.76285ZM8.64 6.15285C7.69 6.15285 6.92 6.93285 6.92 7.88285C6.92 8.34285 7.1 8.78285 7.43 9.10285C7.75 9.43285 8.19 9.61285 8.65 9.61285C9.6 9.61285 10.37 8.83285 10.37 7.88285C10.37 6.93285 9.59 6.15285 8.64 6.15285ZM8.65 8.76285C8.41 8.76285 8.2 8.66285 8.03 8.50285C7.87 8.33285 7.78 8.11285 7.78 7.88285C7.78 7.40285 8.17 7.00285 8.64 7.00285V6.58285L8.65 7.00285C9.13 7.00285 9.52 7.40285 9.52 7.88285C9.52 8.36285 9.13 8.75285 8.65 8.76285ZM4.31 6.15285C3.36 6.15285 2.59 6.93285 2.59 7.89285C2.59 8.35285 2.77 8.78285 3.1 9.11285C3.42 9.43285 3.86 9.61285 4.31 9.61285H4.32C5.27 9.61285 6.04 8.83285 6.04 7.87285C6.04 6.93285 5.27 6.16285 4.31 6.15285ZM4.32 8.76285H4.31C4.08 8.76285 3.86 8.67285 3.7 8.50285C3.53 8.34285 3.44 8.12285 3.44 7.88285C3.44 7.40285 3.83 7.00285 4.32 7.00285C4.8 7.00285 5.18 7.40285 5.19 7.88285C5.19 8.36285 4.8 8.76285 4.32 8.76285ZM4.31 6.15285C3.36 6.15285 2.59 6.93285 2.59 7.89285C2.59 8.35285 2.77 8.78285 3.1 9.11285C3.42 9.43285 3.86 9.61285 4.31 9.61285H4.32C5.27 9.61285 6.04 8.83285 6.04 7.87285C6.04 6.93285 5.27 6.16285 4.31 6.15285ZM4.32 8.76285H4.31C4.08 8.76285 3.86 8.67285 3.7 8.50285C3.53 8.34285 3.44 8.12285 3.44 7.88285C3.44 7.40285 3.83 7.00285 4.32 7.00285C4.8 7.00285 5.18 7.40285 5.19 7.88285C5.19 8.36285 4.8 8.76285 4.32 8.76285ZM8.64 6.15285C7.69 6.15285 6.92 6.93285 6.92 7.88285C6.92 8.34285 7.1 8.78285 7.43 9.10285C7.75 9.43285 8.19 9.61285 8.65 9.61285C9.6 9.61285 10.37 8.83285 10.37 7.88285C10.37 6.93285 9.59 6.15285 8.64 6.15285ZM8.65 8.76285C8.41 8.76285 8.2 8.66285 8.03 8.50285C7.87 8.33285 7.78 8.11285 7.78 7.88285C7.78 7.40285 8.17 7.00285 8.64 7.00285V6.58285L8.65 7.00285C9.13 7.00285 9.52 7.40285 9.52 7.88285C9.52 8.36285 9.13 8.75285 8.65 8.76285ZM8.64 6.15285C7.69 6.15285 6.92 6.93285 6.92 7.88285C6.92 8.34285 7.1 8.78285 7.43 9.10285C7.75 9.43285 8.19 9.61285 8.65 9.61285C9.6 9.61285 10.37 8.83285 10.37 7.88285C10.37 6.93285 9.59 6.15285 8.64 6.15285ZM8.65 8.76285C8.41 8.76285 8.2 8.66285 8.03 8.50285C7.87 8.33285 7.78 8.11285 7.78 7.88285C7.78 7.40285 8.17 7.00285 8.64 7.00285V6.58285L8.65 7.00285C9.13 7.00285 9.52 7.40285 9.52 7.88285C9.52 8.36285 9.13 8.75285 8.65 8.76285ZM4.31 6.15285C3.36 6.15285 2.59 6.93285 2.59 7.89285C2.59 8.35285 2.77 8.78285 3.1 9.11285C3.42 9.43285 3.86 9.61285 4.31 9.61285H4.32C5.27 9.61285 6.04 8.83285 6.04 7.87285C6.04 6.93285 5.27 6.16285 4.31 6.15285ZM4.32 8.76285H4.31C4.08 8.76285 3.86 8.67285 3.7 8.50285C3.53 8.34285 3.44 8.12285 3.44 7.88285C3.44 7.40285 3.83 7.00285 4.32 7.00285C4.8 7.00285 5.18 7.40285 5.19 7.88285C5.19 8.36285 4.8 8.76285 4.32 8.76285ZM4.31 6.15285C3.36 6.15285 2.59 6.93285 2.59 7.89285C2.59 8.35285 2.77 8.78285 3.1 9.11285C3.42 9.43285 3.86 9.61285 4.31 9.61285H4.32C5.27 9.61285 6.04 8.83285 6.04 7.87285C6.04 6.93285 5.27 6.16285 4.31 6.15285ZM4.32 8.76285H4.31C4.08 8.76285 3.86 8.67285 3.7 8.50285C3.53 8.34285 3.44 8.12285 3.44 7.88285C3.44 7.40285 3.83 7.00285 4.32 7.00285C4.8 7.00285 5.18 7.40285 5.19 7.88285C5.19 8.36285 4.8 8.76285 4.32 8.76285ZM8.64 6.15285C7.69 6.15285 6.92 6.93285 6.92 7.88285C6.92 8.34285 7.1 8.78285 7.43 9.10285C7.75 9.43285 8.19 9.61285 8.65 9.61285C9.6 9.61285 10.37 8.83285 10.37 7.88285C10.37 6.93285 9.59 6.15285 8.64 6.15285ZM8.65 8.76285C8.41 8.76285 8.2 8.66285 8.03 8.50285C7.87 8.33285 7.78 8.11285 7.78 7.88285C7.78 7.40285 8.17 7.00285 8.64 7.00285V6.58285L8.65 7.00285C9.13 7.00285 9.52 7.40285 9.52 7.88285C9.52 8.36285 9.13 8.75285 8.65 8.76285ZM8.64 6.15285C7.69 6.15285 6.92 6.93285 6.92 7.88285C6.92 8.34285 7.1 8.78285 7.43 9.10285C7.75 9.43285 8.19 9.61285 8.65 9.61285C9.6 9.61285 10.37 8.83285 10.37 7.88285C10.37 6.93285 9.59 6.15285 8.64 6.15285ZM8.65 8.76285C8.41 8.76285 8.2 8.66285 8.03 8.50285C7.87 8.33285 7.78 8.11285 7.78 7.88285C7.78 7.40285 8.17 7.00285 8.64 7.00285V6.58285L8.65 7.00285C9.13 7.00285 9.52 7.40285 9.52 7.88285C9.52 8.36285 9.13 8.75285 8.65 8.76285ZM4.31 6.15285C3.36 6.15285 2.59 6.93285 2.59 7.89285C2.59 8.35285 2.77 8.78285 3.1 9.11285C3.42 9.43285 3.86 9.61285 4.31 9.61285H4.32C5.27 9.61285 6.04 8.83285 6.04 7.87285C6.04 6.93285 5.27 6.16285 4.31 6.15285ZM4.32 8.76285H4.31C4.08 8.76285 3.86 8.67285 3.7 8.50285C3.53 8.34285 3.44 8.12285 3.44 7.88285C3.44 7.40285 3.83 7.00285 4.32 7.00285C4.8 7.00285 5.18 7.40285 5.19 7.88285C5.19 8.36285 4.8 8.76285 4.32 8.76285ZM4.31 6.15285C3.36 6.15285 2.59 6.93285 2.59 7.89285C2.59 8.35285 2.77 8.78285 3.1 9.11285C3.42 9.43285 3.86 9.61285 4.31 9.61285H4.32C5.27 9.61285 6.04 8.83285 6.04 7.87285C6.04 6.93285 5.27 6.16285 4.31 6.15285ZM4.32 8.76285H4.31C4.08 8.76285 3.86 8.67285 3.7 8.50285C3.53 8.34285 3.44 8.12285 3.44 7.88285C3.44 7.40285 3.83 7.00285 4.32 7.00285C4.8 7.00285 5.18 7.40285 5.19 7.88285C5.19 8.36285 4.8 8.76285 4.32 8.76285ZM8.64 6.15285C7.69 6.15285 6.92 6.93285 6.92 7.88285C6.92 8.34285 7.1 8.78285 7.43 9.10285C7.75 9.43285 8.19 9.61285 8.65 9.61285C9.6 9.61285 10.37 8.83285 10.37 7.88285C10.37 6.93285 9.59 6.15285 8.64 6.15285ZM8.65 8.76285C8.41 8.76285 8.2 8.66285 8.03 8.50285C7.87 8.33285 7.78 8.11285 7.78 7.88285C7.78 7.40285 8.17 7.00285 8.64 7.00285V6.58285L8.65 7.00285C9.13 7.00285 9.52 7.40285 9.52 7.88285C9.52 8.36285 9.13 8.75285 8.65 8.76285ZM8.64 6.15285C7.69 6.15285 6.92 6.93285 6.92 7.88285C6.92 8.34285 7.1 8.78285 7.43 9.10285C7.75 9.43285 8.19 9.61285 8.65 9.61285C9.6 9.61285 10.37 8.83285 10.37 7.88285C10.37 6.93285 9.59 6.15285 8.64 6.15285ZM8.65 8.76285C8.41 8.76285 8.2 8.66285 8.03 8.50285C7.87 8.33285 7.78 8.11285 7.78 7.88285C7.78 7.40285 8.17 7.00285 8.64 7.00285V6.58285L8.65 7.00285C9.13 7.00285 9.52 7.40285 9.52 7.88285C9.52 8.36285 9.13 8.75285 8.65 8.76285ZM4.31 6.15285C3.36 6.15285 2.59 6.93285 2.59 7.89285C2.59 8.35285 2.77 8.78285 3.1 9.11285C3.42 9.43285 3.86 9.61285 4.31 9.61285H4.32C5.27 9.61285 6.04 8.83285 6.04 7.87285C6.04 6.93285 5.27 6.16285 4.31 6.15285ZM4.32 8.76285H4.31C4.08 8.76285 3.86 8.67285 3.7 8.50285C3.53 8.34285 3.44 8.12285 3.44 7.88285C3.44 7.40285 3.83 7.00285 4.32 7.00285C4.8 7.00285 5.18 7.40285 5.19 7.88285C5.19 8.36285 4.8 8.76285 4.32 8.76285ZM19.52 12.7629C19.36 12.7029 19.19 12.6629 19.02 12.6629H8.36C7.83 12.6629 7.36 12.9829 7.17 13.4829L4.96 19.0329L1.39 17.4029C1.17 17.2929 1.07 17.0329 1.17 16.8129L2.32 14.2229C2.39 14.0629 2.55 13.9629 2.72 13.9629H4.32C4.56 13.9629 4.75 13.7629 4.75 13.5329V12.2129H11.67C11.91 12.2129 12.1 12.0229 12.1 11.7929V9.97285C12.6 9.79285 12.96 9.31285 12.96 8.74285V7.44285C12.96 6.88285 12.6 6.40285 12.1 6.22285V5.70285C12.1 4.51285 11.13 3.54285 9.94 3.54285H6.91V1.34285C6.91 1.11285 6.72 0.922852 6.48 0.922852C6.24 0.922852 6.06 1.11285 6.06 1.34285V3.54285H3.02C1.84 3.54285 0.87 4.51285 0.87 5.70285V6.22285C0.37 6.40285 0 6.88285 0 7.45285V8.75285C0 9.31285 0.37 9.79285 0.87 9.97285V11.7929C0.87 12.0229 1.06 12.2129 1.3 12.2129H3.9V13.1029H2.72C2.21 13.1029 1.75 13.4129 1.54 13.8729L0.39 16.4729C0.1 17.1129 0.39 17.8829 1.03 18.1729L5.01 19.9929C5.12 20.0429 5.24 20.0429 5.35 20.0029C5.45 19.9629 5.54 19.8729 5.58 19.7629L7.96 13.7929C8.03 13.6229 8.18 13.5129 8.36 13.5129H19.02C19.08 13.5129 19.13 13.5329 19.19 13.5529C19.41 13.6429 19.52 13.9029 19.42 14.1329L18.81 15.5829L19.35 16.5129L20.21 14.4629C20.49 13.8029 20.18 13.0429 19.52 12.7629ZM1.72 11.3629V9.62285C1.72 9.38285 1.53 9.19285 1.3 9.19285C1.05 9.19285 0.86 8.99285 0.86 8.75285V7.45285C0.86 7.20285 1.05 7.00285 1.3 7.00285C1.53 7.00285 1.72 6.81285 1.72 6.58285V5.70285C1.72 4.98285 2.31 4.39285 3.02 4.39285H9.94C10.66 4.39285 11.25 4.98285 11.25 5.70285V6.58285C11.25 6.81285 11.44 7.00285 11.67 7.00285C11.9 7.00285 12.11 7.20285 12.11 7.44285V8.74285C12.11 8.99285 11.91 9.19285 11.67 9.19285C11.43 9.19285 11.25 9.38285 11.25 9.61285V11.3629H1.72ZM8.64 6.15285C7.69 6.15285 6.92 6.93285 6.92 7.88285C6.92 8.34285 7.1 8.78285 7.43 9.10285C7.75 9.43285 8.19 9.61285 8.65 9.61285C9.6 9.61285 10.37 8.83285 10.37 7.88285C10.37 6.93285 9.59 6.15285 8.64 6.15285ZM8.65 8.76285C8.41 8.76285 8.2 8.66285 8.03 8.50285C7.87 8.33285 7.78 8.11285 7.78 7.88285C7.78 7.40285 8.17 7.00285 8.64 7.00285V6.58285L8.65 7.00285C9.13 7.00285 9.52 7.40285 9.52 7.88285C9.52 8.36285 9.13 8.75285 8.65 8.76285ZM4.31 6.15285C3.36 6.15285 2.59 6.93285 2.59 7.89285C2.59 8.35285 2.77 8.78285 3.1 9.11285C3.42 9.43285 3.86 9.61285 4.31 9.61285H4.32C5.27 9.61285 6.04 8.83285 6.04 7.87285C6.04 6.93285 5.27 6.16285 4.31 6.15285ZM4.32 8.76285H4.31C4.08 8.76285 3.86 8.67285 3.7 8.50285C3.53 8.34285 3.44 8.12285 3.44 7.88285C3.44 7.40285 3.83 7.00285 4.32 7.00285C4.8 7.00285 5.18 7.40285 5.19 7.88285C5.19 8.36285 4.8 8.76285 4.32 8.76285ZM4.31 6.15285C3.36 6.15285 2.59 6.93285 2.59 7.89285C2.59 8.35285 2.77 8.78285 3.1 9.11285C3.42 9.43285 3.86 9.61285 4.31 9.61285H4.32C5.27 9.61285 6.04 8.83285 6.04 7.87285C6.04 6.93285 5.27 6.16285 4.31 6.15285ZM4.32 8.76285H4.31C4.08 8.76285 3.86 8.67285 3.7 8.50285C3.53 8.34285 3.44 8.12285 3.44 7.88285C3.44 7.40285 3.83 7.00285 4.32 7.00285C4.8 7.00285 5.18 7.40285 5.19 7.88285C5.19 8.36285 4.8 8.76285 4.32 8.76285ZM8.64 6.15285C7.69 6.15285 6.92 6.93285 6.92 7.88285C6.92 8.34285 7.1 8.78285 7.43 9.10285C7.75 9.43285 8.19 9.61285 8.65 9.61285C9.6 9.61285 10.37 8.83285 10.37 7.88285C10.37 6.93285 9.59 6.15285 8.64 6.15285ZM8.65 8.76285C8.41 8.76285 8.2 8.66285 8.03 8.50285C7.87 8.33285 7.78 8.11285 7.78 7.88285C7.78 7.40285 8.17 7.00285 8.64 7.00285V6.58285L8.65 7.00285C9.13 7.00285 9.52 7.40285 9.52 7.88285C9.52 8.36285 9.13 8.75285 8.65 8.76285ZM8.64 6.15285C7.69 6.15285 6.92 6.93285 6.92 7.88285C6.92 8.34285 7.1 8.78285 7.43 9.10285C7.75 9.43285 8.19 9.61285 8.65 9.61285C9.6 9.61285 10.37 8.83285 10.37 7.88285C10.37 6.93285 9.59 6.15285 8.64 6.15285ZM8.65 8.76285C8.41 8.76285 8.2 8.66285 8.03 8.50285C7.87 8.33285 7.78 8.11285 7.78 7.88285C7.78 7.40285 8.17 7.00285 8.64 7.00285V6.58285L8.65 7.00285C9.13 7.00285 9.52 7.40285 9.52 7.88285C9.52 8.36285 9.13 8.75285 8.65 8.76285ZM4.31 6.15285C3.36 6.15285 2.59 6.93285 2.59 7.89285C2.59 8.35285 2.77 8.78285 3.1 9.11285C3.42 9.43285 3.86 9.61285 4.31 9.61285H4.32C5.27 9.61285 6.04 8.83285 6.04 7.87285C6.04 6.93285 5.27 6.16285 4.31 6.15285ZM4.32 8.76285H4.31C4.08 8.76285 3.86 8.67285 3.7 8.50285C3.53 8.34285 3.44 8.12285 3.44 7.88285C3.44 7.40285 3.83 7.00285 4.32 7.00285C4.8 7.00285 5.18 7.40285 5.19 7.88285C5.19 8.36285 4.8 8.76285 4.32 8.76285ZM4.31 6.15285C3.36 6.15285 2.59 6.93285 2.59 7.89285C2.59 8.35285 2.77 8.78285 3.1 9.11285C3.42 9.43285 3.86 9.61285 4.31 9.61285H4.32C5.27 9.61285 6.04 8.83285 6.04 7.87285C6.04 6.93285 5.27 6.16285 4.31 6.15285ZM4.32 8.76285H4.31C4.08 8.76285 3.86 8.67285 3.7 8.50285C3.53 8.34285 3.44 8.12285 3.44 7.88285C3.44 7.40285 3.83 7.00285 4.32 7.00285C4.8 7.00285 5.18 7.40285 5.19 7.88285C5.19 8.36285 4.8 8.76285 4.32 8.76285ZM8.64 6.15285C7.69 6.15285 6.92 6.93285 6.92 7.88285C6.92 8.34285 7.1 8.78285 7.43 9.10285C7.75 9.43285 8.19 9.61285 8.65 9.61285C9.6 9.61285 10.37 8.83285 10.37 7.88285C10.37 6.93285 9.59 6.15285 8.64 6.15285ZM8.65 8.76285C8.41 8.76285 8.2 8.66285 8.03 8.50285C7.87 8.33285 7.78 8.11285 7.78 7.88285C7.78 7.40285 8.17 7.00285 8.64 7.00285V6.58285L8.65 7.00285C9.13 7.00285 9.52 7.40285 9.52 7.88285C9.52 8.36285 9.13 8.75285 8.65 8.76285ZM8.64 6.15285C7.69 6.15285 6.92 6.93285 6.92 7.88285C6.92 8.34285 7.1 8.78285 7.43 9.10285C7.75 9.43285 8.19 9.61285 8.65 9.61285C9.6 9.61285 10.37 8.83285 10.37 7.88285C10.37 6.93285 9.59 6.15285 8.64 6.15285ZM8.65 8.76285C8.41 8.76285 8.2 8.66285 8.03 8.50285C7.87 8.33285 7.78 8.11285 7.78 7.88285C7.78 7.40285 8.17 7.00285 8.64 7.00285V6.58285L8.65 7.00285C9.13 7.00285 9.52 7.40285 9.52 7.88285C9.52 8.36285 9.13 8.75285 8.65 8.76285ZM4.31 6.15285C3.36 6.15285 2.59 6.93285 2.59 7.89285C2.59 8.35285 2.77 8.78285 3.1 9.11285C3.42 9.43285 3.86 9.61285 4.31 9.61285H4.32C5.27 9.61285 6.04 8.83285 6.04 7.87285C6.04 6.93285 5.27 6.16285 4.31 6.15285ZM4.32 8.76285H4.31C4.08 8.76285 3.86 8.67285 3.7 8.50285C3.53 8.34285 3.44 8.12285 3.44 7.88285C3.44 7.40285 3.83 7.00285 4.32 7.00285C4.8 7.00285 5.18 7.40285 5.19 7.88285C5.19 8.36285 4.8 8.76285 4.32 8.76285ZM4.31 6.15285C3.36 6.15285 2.59 6.93285 2.59 7.89285C2.59 8.35285 2.77 8.78285 3.1 9.11285C3.42 9.43285 3.86 9.61285 4.31 9.61285H4.32C5.27 9.61285 6.04 8.83285 6.04 7.87285C6.04 6.93285 5.27 6.16285 4.31 6.15285ZM4.32 8.76285H4.31C4.08 8.76285 3.86 8.67285 3.7 8.50285C3.53 8.34285 3.44 8.12285 3.44 7.88285C3.44 7.40285 3.83 7.00285 4.32 7.00285C4.8 7.00285 5.18 7.40285 5.19 7.88285C5.19 8.36285 4.8 8.76285 4.32 8.76285ZM8.64 6.15285C7.69 6.15285 6.92 6.93285 6.92 7.88285C6.92 8.34285 7.1 8.78285 7.43 9.10285C7.75 9.43285 8.19 9.61285 8.65 9.61285C9.6 9.61285 10.37 8.83285 10.37 7.88285C10.37 6.93285 9.59 6.15285 8.64 6.15285ZM8.65 8.76285C8.41 8.76285 8.2 8.66285 8.03 8.50285C7.87 8.33285 7.78 8.11285 7.78 7.88285C7.78 7.40285 8.17 7.00285 8.64 7.00285V6.58285L8.65 7.00285C9.13 7.00285 9.52 7.40285 9.52 7.88285C9.52 8.36285 9.13 8.75285 8.65 8.76285ZM8.64 6.15285C7.69 6.15285 6.92 6.93285 6.92 7.88285C6.92 8.34285 7.1 8.78285 7.43 9.10285C7.75 9.43285 8.19 9.61285 8.65 9.61285C9.6 9.61285 10.37 8.83285 10.37 7.88285C10.37 6.93285 9.59 6.15285 8.64 6.15285ZM8.65 8.76285C8.41 8.76285 8.2 8.66285 8.03 8.50285C7.87 8.33285 7.78 8.11285 7.78 7.88285C7.78 7.40285 8.17 7.00285 8.64 7.00285V6.58285L8.65 7.00285C9.13 7.00285 9.52 7.40285 9.52 7.88285C9.52 8.36285 9.13 8.75285 8.65 8.76285ZM4.31 6.15285C3.36 6.15285 2.59 6.93285 2.59 7.89285C2.59 8.35285 2.77 8.78285 3.1 9.11285C3.42 9.43285 3.86 9.61285 4.31 9.61285H4.32C5.27 9.61285 6.04 8.83285 6.04 7.87285C6.04 6.93285 5.27 6.16285 4.31 6.15285ZM4.32 8.76285H4.31C4.08 8.76285 3.86 8.67285 3.7 8.50285C3.53 8.34285 3.44 8.12285 3.44 7.88285C3.44 7.40285 3.83 7.00285 4.32 7.00285C4.8 7.00285 5.18 7.40285 5.19 7.88285C5.19 8.36285 4.8 8.76285 4.32 8.76285ZM4.31 6.15285C3.36 6.15285 2.59 6.93285 2.59 7.89285C2.59 8.35285 2.77 8.78285 3.1 9.11285C3.42 9.43285 3.86 9.61285 4.31 9.61285H4.32C5.27 9.61285 6.04 8.83285 6.04 7.87285C6.04 6.93285 5.27 6.16285 4.31 6.15285ZM4.32 8.76285H4.31C4.08 8.76285 3.86 8.67285 3.7 8.50285C3.53 8.34285 3.44 8.12285 3.44 7.88285C3.44 7.40285 3.83 7.00285 4.32 7.00285C4.8 7.00285 5.18 7.40285 5.19 7.88285C5.19 8.36285 4.8 8.76285 4.32 8.76285ZM8.64 6.15285C7.69 6.15285 6.92 6.93285 6.92 7.88285C6.92 8.34285 7.1 8.78285 7.43 9.10285C7.75 9.43285 8.19 9.61285 8.65 9.61285C9.6 9.61285 10.37 8.83285 10.37 7.88285C10.37 6.93285 9.59 6.15285 8.64 6.15285ZM8.65 8.76285C8.41 8.76285 8.2 8.66285 8.03 8.50285C7.87 8.33285 7.78 8.11285 7.78 7.88285C7.78 7.40285 8.17 7.00285 8.64 7.00285V6.58285L8.65 7.00285C9.13 7.00285 9.52 7.40285 9.52 7.88285C9.52 8.36285 9.13 8.75285 8.65 8.76285ZM8.64 6.15285C7.69 6.15285 6.92 6.93285 6.92 7.88285C6.92 8.34285 7.1 8.78285 7.43 9.10285C7.75 9.43285 8.19 9.61285 8.65 9.61285C9.6 9.61285 10.37 8.83285 10.37 7.88285C10.37 6.93285 9.59 6.15285 8.64 6.15285ZM8.65 8.76285C8.41 8.76285 8.2 8.66285 8.03 8.50285C7.87 8.33285 7.78 8.11285 7.78 7.88285C7.78 7.40285 8.17 7.00285 8.64 7.00285V6.58285L8.65 7.00285C9.13 7.00285 9.52 7.40285 9.52 7.88285C9.52 8.36285 9.13 8.75285 8.65 8.76285ZM4.31 6.15285C3.36 6.15285 2.59 6.93285 2.59 7.89285C2.59 8.35285 2.77 8.78285 3.1 9.11285C3.42 9.43285 3.86 9.61285 4.31 9.61285H4.32C5.27 9.61285 6.04 8.83285 6.04 7.87285C6.04 6.93285 5.27 6.16285 4.31 6.15285ZM4.32 8.76285H4.31C4.08 8.76285 3.86 8.67285 3.7 8.50285C3.53 8.34285 3.44 8.12285 3.44 7.88285C3.44 7.40285 3.83 7.00285 4.32 7.00285C4.8 7.00285 5.18 7.40285 5.19 7.88285C5.19 8.36285 4.8 8.76285 4.32 8.76285ZM4.31 6.15285C3.36 6.15285 2.59 6.93285 2.59 7.89285C2.59 8.35285 2.77 8.78285 3.1 9.11285C3.42 9.43285 3.86 9.61285 4.31 9.61285H4.32C5.27 9.61285 6.04 8.83285 6.04 7.87285C6.04 6.93285 5.27 6.16285 4.31 6.15285ZM4.32 8.76285H4.31C4.08 8.76285 3.86 8.67285 3.7 8.50285C3.53 8.34285 3.44 8.12285 3.44 7.88285C3.44 7.40285 3.83 7.00285 4.32 7.00285C4.8 7.00285 5.18 7.40285 5.19 7.88285C5.19 8.36285 4.8 8.76285 4.32 8.76285ZM8.64 6.15285C7.69 6.15285 6.92 6.93285 6.92 7.88285C6.92 8.34285 7.1 8.78285 7.43 9.10285C7.75 9.43285 8.19 9.61285 8.65 9.61285C9.6 9.61285 10.37 8.83285 10.37 7.88285C10.37 6.93285 9.59 6.15285 8.64 6.15285ZM8.65 8.76285C8.41 8.76285 8.2 8.66285 8.03 8.50285C7.87 8.33285 7.78 8.11285 7.78 7.88285C7.78 7.40285 8.17 7.00285 8.64 7.00285V6.58285L8.65 7.00285C9.13 7.00285 9.52 7.40285 9.52 7.88285C9.52 8.36285 9.13 8.75285 8.65 8.76285ZM5.28 20.9229L1.47 19.2129C1.25 19.1229 1 19.2229 0.91 19.4329C0.81 19.6429 0.91 19.9029 1.12 19.9929L5.01 21.7329C5.07 21.7629 5.13 21.7729 5.19 21.7729H10.78C10.78 21.4729 10.86 21.1929 10.99 20.9229H5.28ZM8.64 6.15285C7.69 6.15285 6.92 6.93285 6.92 7.88285C6.92 8.34285 7.1 8.78285 7.43 9.10285C7.75 9.43285 8.19 9.61285 8.65 9.61285C9.6 9.61285 10.37 8.83285 10.37 7.88285C10.37 6.93285 9.59 6.15285 8.64 6.15285ZM8.65 8.76285C8.41 8.76285 8.2 8.66285 8.03 8.50285C7.87 8.33285 7.78 8.11285 7.78 7.88285C7.78 7.40285 8.17 7.00285 8.64 7.00285V6.58285L8.65 7.00285C9.13 7.00285 9.52 7.40285 9.52 7.88285C9.52 8.36285 9.13 8.75285 8.65 8.76285ZM4.31 6.15285C3.36 6.15285 2.59 6.93285 2.59 7.89285C2.59 8.35285 2.77 8.78285 3.1 9.11285C3.42 9.43285 3.86 9.61285 4.31 9.61285H4.32C5.27 9.61285 6.04 8.83285 6.04 7.87285C6.04 6.93285 5.27 6.16285 4.31 6.15285ZM4.32 8.76285H4.31C4.08 8.76285 3.86 8.67285 3.7 8.50285C3.53 8.34285 3.44 8.12285 3.44 7.88285C3.44 7.40285 3.83 7.00285 4.32 7.00285C4.8 7.00285 5.18 7.40285 5.19 7.88285C5.19 8.36285 4.8 8.76285 4.32 8.76285ZM4.31 6.15285C3.36 6.15285 2.59 6.93285 2.59 7.89285C2.59 8.35285 2.77 8.78285 3.1 9.11285C3.42 9.43285 3.86 9.61285 4.31 9.61285H4.32C5.27 9.61285 6.04 8.83285 6.04 7.87285C6.04 6.93285 5.27 6.16285 4.31 6.15285ZM4.32 8.76285H4.31C4.08 8.76285 3.86 8.67285 3.7 8.50285C3.53 8.34285 3.44 8.12285 3.44 7.88285C3.44 7.40285 3.83 7.00285 4.32 7.00285C4.8 7.00285 5.18 7.40285 5.19 7.88285C5.19 8.36285 4.8 8.76285 4.32 8.76285ZM8.64 6.15285C7.69 6.15285 6.92 6.93285 6.92 7.88285C6.92 8.34285 7.1 8.78285 7.43 9.10285C7.75 9.43285 8.19 9.61285 8.65 9.61285C9.6 9.61285 10.37 8.83285 10.37 7.88285C10.37 6.93285 9.59 6.15285 8.64 6.15285ZM8.65 8.76285C8.41 8.76285 8.2 8.66285 8.03 8.50285C7.87 8.33285 7.78 8.11285 7.78 7.88285C7.78 7.40285 8.17 7.00285 8.64 7.00285V6.58285L8.65 7.00285C9.13 7.00285 9.52 7.40285 9.52 7.88285C9.52 8.36285 9.13 8.75285 8.65 8.76285ZM13.41 16.5829H12.1C11.87 16.5829 11.68 16.7729 11.68 17.0029C11.68 17.2329 11.87 17.4329 12.1 17.4329H12.98L13.47 16.5929C13.47 16.5929 13.43 16.5829 13.41 16.5829ZM4.31 6.15285C3.36 6.15285 2.59 6.93285 2.59 7.89285C2.59 8.35285 2.77 8.78285 3.1 9.11285C3.42 9.43285 3.86 9.61285 4.31 9.61285H4.32C5.27 9.61285 6.04 8.83285 6.04 7.87285C6.04 6.93285 5.27 6.16285 4.31 6.15285ZM4.32 8.76285H4.31C4.08 8.76285 3.86 8.67285 3.7 8.50285C3.53 8.34285 3.44 8.12285 3.44 7.88285C3.44 7.40285 3.83 7.00285 4.32 7.00285C4.8 7.00285 5.18 7.40285 5.19 7.88285C5.19 8.36285 4.8 8.76285 4.32 8.76285ZM8.64 6.15285C7.69 6.15285 6.92 6.93285 6.92 7.88285C6.92 8.34285 7.1 8.78285 7.43 9.10285C7.75 9.43285 8.19 9.61285 8.65 9.61285C9.6 9.61285 10.37 8.83285 10.37 7.88285C10.37 6.93285 9.59 6.15285 8.64 6.15285ZM8.65 8.76285C8.41 8.76285 8.2 8.66285 8.03 8.50285C7.87 8.33285 7.78 8.11285 7.78 7.88285C7.78 7.40285 8.17 7.00285 8.64 7.00285V6.58285L8.65 7.00285C9.13 7.00285 9.52 7.40285 9.52 7.88285C9.52 8.36285 9.13 8.75285 8.65 8.76285Z" fill="currentColor"/>
<path d="M20.8204 21.3328L18.8004 17.8328L18.2604 16.8928L17.4004 15.4028C17.2904 15.2128 17.1504 15.0828 16.9904 14.9928C16.8204 14.8928 16.6304 14.8428 16.4304 14.8428C16.2304 14.8428 16.0404 14.8928 15.8704 14.9928C15.7004 15.0928 15.5604 15.2328 15.4604 15.4028L12.2904 20.9228L12.0504 21.3328C11.9704 21.4628 11.9204 21.6128 11.9104 21.7728C11.9004 21.8028 11.9004 21.8428 11.9004 21.8728C11.9004 22.0628 11.9504 22.2528 12.0504 22.4128C12.1404 22.5828 12.2904 22.7228 12.4604 22.8228C12.6304 22.9228 12.8404 22.9628 13.0104 22.9728H19.8404C20.0504 22.9728 20.2404 22.9228 20.4104 22.8228C20.5804 22.7228 20.7204 22.5828 20.8104 22.4128C20.9104 22.2528 20.9604 22.0628 20.9604 21.8728C20.9604 21.6828 20.9104 21.4928 20.8204 21.3328ZM12.7304 22.0328L12.8804 21.7728L13.3704 20.9228L16.4304 15.5928L17.8104 17.9828L18.3404 18.9128L20.1404 22.0328H12.7304Z" fill="currentColor"/>
<path d="M17 20.9229C17 21.199 16.7761 21.4229 16.5 21.4229C16.2239 21.4229 16 21.199 16 20.9229C16 20.6467 16.2239 20.4229 16.5 20.4229C16.7761 20.4229 17 20.6467 17 20.9229Z" fill="curretColor"/>
<path d="M16 17.4229C16 17.1467 16.2239 16.9229 16.5 16.9229C16.7761 16.9229 17 17.1467 17 17.4229V19.2229C17 19.499 16.7761 19.7229 16.5 19.7229C16.2239 19.7229 16 19.499 16 19.2229V17.4229Z" fill="currentColor"/>
</svg>