<svg width="14" height="12" viewBox="0 0 14 12" fill="none" xmlns="http://www.w3.org/2000/svg">
<path d="M10.0662 5.64725C9.61389 5.11208 9.06222 4.69706 8.45097 4.4321C7.83971 4.16715 7.1841 4.05885 6.53137 4.11501C5.87865 4.17117 5.24507 4.3904 4.67629 4.7569C4.10752 5.12339 3.61772 5.62802 3.24219 6.23442" stroke="currentColor" stroke-linecap="round" stroke-linejoin="round"/>
<path d="M12.7381 4.45543C12.0773 3.38856 11.1989 2.51755 10.1772 1.91619C9.15554 1.31484 8.02077 1.00085 6.86903 1.00085C5.71729 1.00085 4.58251 1.31484 3.56086 1.91619C2.53921 2.51755 1.66078 3.38856 1 4.45543" stroke="currentColor" stroke-linecap="round" stroke-linejoin="round"/>
<path d="M12.7368 4.45566L6.27089 7.33671C6.03156 7.43862 5.81608 7.60123 5.641 7.81204C5.46592 8.02286 5.33591 8.27626 5.26096 8.55278C5.18601 8.8293 5.16811 9.12158 5.20865 9.40714C5.24918 9.6927 5.34707 9.96396 5.49478 10.2C5.6425 10.4361 5.83611 10.6308 6.06074 10.769C6.28536 10.9073 6.53503 10.9854 6.79053 10.9975C7.04604 11.0096 7.3006 10.9552 7.53463 10.8386C7.76867 10.7221 7.97595 10.5463 8.14056 10.325L8.14507 10.3318L12.7368 4.45566Z" stroke="currentColor" stroke-linecap="round" stroke-linejoin="round"/>
</svg>
