<svg width="30" height="30" viewBox="0 0 30 30" fill="none" xmlns="http://www.w3.org/2000/svg">
<g clip-path="url(#clip0_4404_65826)">
<mask id="mask0_4404_65826" style="mask-type:luminance" maskUnits="userSpaceOnUse" x="3" y="3" width="24" height="24">
<path d="M26.1258 3.33334H3.88281V26.6667H26.1258V3.33334Z" fill="white"/>
</mask>
<g mask="url(#mask0_4404_65826)">
<path d="M23.1002 9.60231C23.1002 9.41565 23.0965 9.22652 23.0915 9.03616C23.0903 8.96985 23.0878 8.90353 23.0866 8.83722C23.0792 8.59774 23.0705 8.35705 23.0569 8.11267L23.0322 7.64353H23.0273C22.6417 7.67546 22.2512 7.69267 21.8558 7.69267C19.3597 7.69267 17.018 7.0295 15.0013 5.87267C12.9846 7.03074 10.6441 7.69267 8.14672 7.69267C7.75251 7.69267 7.36204 7.67546 6.97526 7.64231H6.9703L6.94559 8.11142C6.93324 8.35581 6.92334 8.59652 6.91595 8.836C6.91347 8.90353 6.91224 8.96985 6.91099 9.03616C6.90605 9.22652 6.90357 9.4144 6.90234 9.60231C6.90234 9.65389 6.90234 9.7067 6.90234 9.75828C6.90234 9.96581 6.90357 10.1709 6.90853 10.3735V10.3821C6.96165 12.7634 7.32002 14.8449 7.99101 16.6625L7.99349 16.676C8.02438 16.7583 8.05774 16.8381 8.08863 16.9191C8.11953 16.9978 8.14919 17.0776 8.18132 17.1549C8.22705 17.2655 8.27523 17.3735 8.32342 17.4828C8.35432 17.5541 8.38521 17.6265 8.41733 17.6965C8.47171 17.8156 8.52979 17.9323 8.58787 18.049C8.61629 18.1067 8.64348 18.1644 8.67314 18.2221C8.7621 18.3941 8.85356 18.5635 8.94993 18.7306C10.2326 20.9718 12.1196 22.6923 14.7158 24.0002L15.0013 24.1316L15.2867 24.0002C17.883 22.6923 19.7712 20.9718 21.0526 18.7306C21.1477 18.5635 21.2404 18.3941 21.3294 18.2221C21.3591 18.1656 21.3862 18.1067 21.4147 18.049C21.4727 17.9323 21.5308 17.8169 21.5852 17.6978C21.6173 17.6278 21.6482 17.5553 21.6803 17.4828C21.7285 17.3748 21.7767 17.2667 21.8212 17.1562C21.8533 17.0788 21.883 16.999 21.9139 16.9204C21.946 16.8393 21.9794 16.7595 22.009 16.6772L22.0115 16.6649C22.6825 14.8474 23.0409 12.7658 23.0928 10.3846V10.376C23.0989 10.1734 23.1002 9.96828 23.1002 9.76074C23.1002 9.70915 23.1002 9.65635 23.1002 9.60476V9.60231Z" stroke="url(#paint0_linear_4404_65826)" stroke-width="0.369566" stroke-linecap="round" stroke-linejoin="round"/>
<path d="M23.1002 9.60231C23.1002 9.41565 23.0965 9.22652 23.0915 9.03616C23.0903 8.96985 23.0878 8.90353 23.0866 8.83722C23.0792 8.59774 23.0705 8.35705 23.0569 8.11267L23.0322 7.64353H23.0273C22.6417 7.67546 22.2512 7.69267 21.8558 7.69267C19.3597 7.69267 17.018 7.0295 15.0013 5.87267C12.9846 7.03074 10.6441 7.69267 8.14672 7.69267C7.75251 7.69267 7.36204 7.67546 6.97526 7.64231H6.9703L6.94559 8.11142C6.93324 8.35581 6.92334 8.59652 6.91595 8.836C6.91347 8.90353 6.91224 8.96985 6.91099 9.03616C6.90605 9.22652 6.90357 9.4144 6.90234 9.60231C6.90234 9.65389 6.90234 9.7067 6.90234 9.75828C6.90234 9.96581 6.90357 10.1709 6.90853 10.3735V10.3821C6.96165 12.7634 7.32002 14.8449 7.99101 16.6625L7.99349 16.676C8.02438 16.7583 8.05774 16.8381 8.08863 16.9191C8.11953 16.9978 8.14919 17.0776 8.18132 17.1549C8.22705 17.2655 8.27523 17.3735 8.32342 17.4828C8.35432 17.5541 8.38521 17.6265 8.41733 17.6965C8.47171 17.8156 8.52979 17.9323 8.58787 18.049C8.61629 18.1067 8.64348 18.1644 8.67314 18.2221C8.7621 18.3941 8.85356 18.5635 8.94993 18.7306C10.2326 20.9718 12.1196 22.6923 14.7158 24.0002L15.0013 24.1316L15.2867 24.0002C17.883 22.6923 19.7712 20.9718 21.0526 18.7306C21.1477 18.5635 21.2404 18.3941 21.3294 18.2221C21.3591 18.1656 21.3862 18.1067 21.4147 18.049C21.4727 17.9323 21.5308 17.8169 21.5852 17.6978C21.6173 17.6278 21.6482 17.5553 21.6803 17.4828C21.7285 17.3748 21.7767 17.2667 21.8212 17.1562C21.8533 17.0788 21.883 16.999 21.9139 16.9204C21.946 16.8393 21.9794 16.7595 22.009 16.6772L22.0115 16.6649C22.6825 14.8474 23.0409 12.7658 23.0928 10.3846V10.376C23.0989 10.1734 23.1002 9.96828 23.1002 9.76074C23.1002 9.70915 23.1002 9.65635 23.1002 9.60476V9.60231Z" stroke="url(#paint1_linear_4404_65826)" stroke-width="0.369566" stroke-linecap="round" stroke-linejoin="round"/>
<path d="M14.0911 12.0422C14.0911 12.3849 13.8118 12.6624 13.467 12.6624C13.1222 12.6624 12.843 12.3849 12.843 12.0422C12.843 11.6996 13.1222 11.422 13.467 11.422C13.8118 11.422 14.0911 11.6996 14.0911 12.0422ZM17.6796 13.5331C17.3348 13.5331 17.0555 13.8107 17.0555 14.1533C17.0555 14.4959 17.3348 14.7735 17.6796 14.7735C18.0244 14.7735 18.3036 14.4959 18.3036 14.1533C18.3036 13.8107 18.0244 13.5331 17.6796 13.5331ZM13.4658 15.6442C13.121 15.6442 12.8417 15.9217 12.8417 16.2643C12.8417 16.607 13.121 16.8845 13.4658 16.8845C13.8105 16.8845 14.0898 16.607 14.0898 16.2643C14.0898 15.9217 13.8105 15.6442 13.4658 15.6442ZM11.3589 11.422C11.0141 11.422 10.7348 11.6996 10.7348 12.0422C10.7348 12.3849 11.0141 12.6624 11.3589 12.6624C11.7036 12.6624 11.9829 12.3849 11.9829 12.0422C11.9829 11.6996 11.7036 11.422 11.3589 11.422ZM22.3345 9.76047C22.3345 9.94345 22.3333 10.1264 22.3296 10.307L22.3271 10.3647C22.2765 12.6759 21.9379 14.6507 21.2928 16.3994L21.2694 16.4633V16.4719C21.2582 16.4964 21.2001 16.6414 21.2001 16.6414L21.1717 16.7151C21.152 16.7654 21.1334 16.8157 21.1124 16.8649C21.0741 16.9594 21.0321 17.0515 20.9913 17.1449L20.9444 17.2517C20.9271 17.2935 20.9085 17.3352 20.89 17.3757C20.8393 17.4851 20.7862 17.5919 20.7331 17.6975L20.691 17.7847C20.6775 17.8142 20.6626 17.8436 20.6478 17.8719C20.5613 18.0389 20.4736 18.1998 20.3883 18.3508C19.1946 20.4361 17.4325 22.0522 14.9993 23.2901C12.5662 22.0522 10.804 20.4361 9.61157 18.352C9.52384 18.1985 9.43609 18.0377 9.35082 17.8731C9.33601 17.8449 9.3224 17.8154 9.30757 17.7871L9.27051 17.7098C9.21491 17.598 9.16053 17.4887 9.10862 17.377C9.0901 17.3377 9.07278 17.2971 9.05549 17.2566L9.00854 17.1498C8.96652 17.0564 8.92575 16.9619 8.88621 16.8673C8.86644 16.8182 8.84664 16.7691 8.82812 16.72C8.82812 16.72 8.74163 16.5001 8.73173 16.4743V16.4657L8.70577 16.4007C8.05949 14.6519 7.72092 12.6771 7.67148 10.3659V10.3119L7.66902 10.3045C7.66531 10.1252 7.66406 9.94223 7.66406 9.75925V9.6082C7.66654 9.42644 7.66902 9.24223 7.67396 9.05679L7.6789 8.86153C7.6826 8.72399 7.68754 8.58522 7.69373 8.44644C7.84573 8.45136 7.99524 8.45381 8.14476 8.45381C10.5421 8.45381 12.9023 7.8631 15.0005 6.7431C17.0976 7.8631 19.459 8.45381 21.8563 8.45381C22.0058 8.45381 22.1554 8.45136 22.3074 8.44644C22.3135 8.58522 22.3185 8.72399 22.3222 8.86153L22.3271 9.05557C22.3321 9.24101 22.3345 9.42522 22.3358 9.60698V9.76047H22.3345ZM16.8059 12.041C16.8059 12.52 17.1964 12.9105 17.6796 12.9105C18.1628 12.9105 18.5532 12.5212 18.5532 12.041C18.5532 11.5608 18.1615 11.1728 17.6796 11.1728C17.1977 11.1728 16.8059 11.562 16.8059 12.041ZM12.2338 12.041C12.2338 11.5608 11.842 11.1728 11.3601 11.1728C10.8782 11.1728 10.4865 11.562 10.4865 12.041C10.4865 12.52 10.8782 12.9093 11.3601 12.9093C11.842 12.9093 12.2338 12.52 12.2338 12.041ZM14.3407 16.2631C14.3407 15.7829 13.9489 15.3949 13.467 15.3949C12.9851 15.3949 12.5934 15.7842 12.5934 16.2631C12.5934 16.742 12.9851 17.1314 13.467 17.1314C13.9489 17.1314 14.3407 16.742 14.3407 16.2631ZM14.3407 12.041C14.3407 11.5608 13.9489 11.1728 13.467 11.1728C12.9851 11.1728 12.5934 11.562 12.5934 12.041C12.5934 12.52 12.9851 12.9093 13.467 12.9093C13.9489 12.9093 14.3407 12.52 14.3407 12.041ZM16.4476 16.2631C16.4476 15.7829 16.0559 15.3949 15.5739 15.3949C15.092 15.3949 14.7003 15.7829 14.7003 16.2631C14.7003 16.7433 15.092 17.1314 15.5739 17.1314C16.0559 17.1314 16.4476 16.7433 16.4476 16.2631ZM16.4476 14.1521C16.4476 13.6731 16.0559 13.2838 15.5739 13.2838C15.092 13.2838 14.7003 13.6731 14.7003 14.1521C14.7003 14.631 15.092 15.0203 15.5739 15.0203C16.0559 15.0203 16.4476 14.6322 16.4476 14.1521ZM16.4476 12.041C16.4476 11.5608 16.0559 11.1728 15.5739 11.1728C15.092 11.1728 14.7003 11.562 14.7003 12.041C14.7003 12.52 15.092 12.9105 15.5739 12.9105C16.0559 12.9105 16.4476 12.5212 16.4476 12.041ZM18.5545 14.1521C18.5545 13.6719 18.1628 13.2838 17.6808 13.2838C17.1989 13.2838 16.8072 13.6731 16.8072 14.1521C16.8072 14.631 17.1989 15.0203 17.6808 15.0203C18.1628 15.0203 18.5545 14.631 18.5545 14.1521Z" fill="url(#paint2_linear_4404_65826)"/>
</g>
</g>
<defs>
<linearGradient id="paint0_linear_4404_65826" x1="8.40498" y1="19.072" x2="21.5181" y2="5.87718" gradientUnits="userSpaceOnUse">
<stop stop-color="#E62F45"/>
<stop offset="0.28" stop-color="#BC5B76"/>
<stop offset="0.56" stop-color="#818AB8"/>
<stop offset="0.78" stop-color="#599FBC"/>
<stop offset="0.9" stop-color="#4BAECC"/>
<stop offset="1" stop-color="#43B3D6"/>
</linearGradient>
<linearGradient id="paint1_linear_4404_65826" x1="8.40498" y1="19.072" x2="21.5181" y2="5.87718" gradientUnits="userSpaceOnUse">
<stop stop-color="#E62F45"/>
<stop offset="0.28" stop-color="#BC5B76"/>
<stop offset="0.56" stop-color="#818AB8"/>
<stop offset="0.78" stop-color="#599FBC"/>
<stop offset="0.9" stop-color="#4BAECC"/>
<stop offset="1" stop-color="#43B3D6"/>
</linearGradient>
<linearGradient id="paint2_linear_4404_65826" x1="9.18772" y1="18.5166" x2="20.7412" y2="6.88996" gradientUnits="userSpaceOnUse">
<stop stop-color="#DA3B52"/>
<stop offset="0.28" stop-color="#C6506A"/>
<stop offset="0.56" stop-color="#8289B7"/>
<stop offset="0.78" stop-color="#5C9EBC"/>
<stop offset="0.9" stop-color="#49A5C1"/>
<stop offset="1" stop-color="#48ACCA"/>
</linearGradient>
<clipPath id="clip0_4404_65826">
<rect width="22.243" height="23.3333" fill="white" transform="translate(3.87891 3.33333)"/>
</clipPath>
</defs>
</svg>
