<svg width="30" height="30" viewBox="0 0 30 30" fill="none" xmlns="http://www.w3.org/2000/svg">
<g clip-path="url(#clip0_4404_65823)">
<mask id="mask0_4404_65823" style="mask-type:luminance" maskUnits="userSpaceOnUse" x="3" y="2" width="24" height="26">
<path d="M26.9177 2.5H3.08594V27.5H26.9177V2.5Z" fill="white"/>
</mask>
<g mask="url(#mask0_4404_65823)">
<path d="M23.6791 9.21675C23.6791 9.01675 23.6751 8.81411 23.6698 8.61017C23.6685 8.53911 23.6658 8.46806 23.6645 8.39701C23.6565 8.14042 23.6473 7.88255 23.6327 7.6207L23.6062 7.11806H23.6009C23.1878 7.15227 22.7695 7.1707 22.3458 7.1707C19.6713 7.1707 17.1624 6.46017 15.0016 5.2207C12.8409 6.4615 10.3332 7.1707 7.65747 7.1707C7.23512 7.1707 6.81675 7.15227 6.40234 7.11675H6.39703L6.37056 7.61937C6.35732 7.88122 6.34672 8.13911 6.33879 8.3957C6.33614 8.46806 6.33482 8.53911 6.33348 8.61017C6.32819 8.81411 6.32554 9.01542 6.32422 9.21675C6.32422 9.27201 6.32422 9.3286 6.32422 9.38386C6.32422 9.60622 6.32554 9.82596 6.33085 10.0431V10.0523C6.38777 12.6036 6.77173 14.8339 7.49065 16.7812L7.4933 16.7957C7.5264 16.8839 7.56214 16.9694 7.59524 17.0562C7.62834 17.1404 7.66013 17.226 7.69455 17.3089C7.74354 17.4273 7.79517 17.5431 7.8468 17.6602C7.8799 17.7365 7.913 17.8141 7.94742 17.8891C8.00568 18.0168 8.06791 18.1418 8.13014 18.2668C8.16059 18.3286 8.18972 18.3904 8.2215 18.4523C8.31681 18.6365 8.4148 18.8181 8.51806 18.997C9.89236 21.3983 11.9141 23.2418 14.6958 24.6431L15.0016 24.7839L15.3075 24.6431C18.0892 23.2418 20.1122 21.3983 21.4852 18.997C21.5872 18.8181 21.6864 18.6365 21.7818 18.4523C21.8136 18.3918 21.8427 18.3286 21.8731 18.2668C21.9354 18.1418 21.9976 18.0181 22.0558 17.8904C22.0903 17.8154 22.1233 17.7378 22.1578 17.6602C22.2094 17.5444 22.261 17.4286 22.3087 17.3102C22.3431 17.2273 22.3749 17.1418 22.408 17.0575C22.4424 16.9707 22.4782 16.8852 22.51 16.797L22.5126 16.7839C23.2315 14.8365 23.6155 12.6062 23.6711 10.0549V10.0457C23.6777 9.8286 23.6791 9.60886 23.6791 9.3865C23.6791 9.33122 23.6791 9.27465 23.6791 9.21937V9.21675Z" stroke="url(#paint0_linear_4404_65823)" stroke-width="0.395964" stroke-linecap="round" stroke-linejoin="round"/>
<path d="M23.6791 9.21675C23.6791 9.01675 23.6751 8.81411 23.6698 8.61017C23.6685 8.53911 23.6658 8.46806 23.6645 8.39701C23.6565 8.14042 23.6473 7.88255 23.6327 7.6207L23.6062 7.11806H23.6009C23.1878 7.15227 22.7695 7.1707 22.3458 7.1707C19.6713 7.1707 17.1624 6.46017 15.0016 5.2207C12.8409 6.4615 10.3332 7.1707 7.65747 7.1707C7.23512 7.1707 6.81675 7.15227 6.40234 7.11675H6.39703L6.37056 7.61937C6.35732 7.88122 6.34672 8.13911 6.33879 8.3957C6.33614 8.46806 6.33482 8.53911 6.33348 8.61017C6.32819 8.81411 6.32554 9.01542 6.32422 9.21675C6.32422 9.27201 6.32422 9.3286 6.32422 9.38386C6.32422 9.60622 6.32554 9.82596 6.33085 10.0431V10.0523C6.38777 12.6036 6.77173 14.8339 7.49065 16.7812L7.4933 16.7957C7.5264 16.8839 7.56214 16.9694 7.59524 17.0562C7.62834 17.1404 7.66013 17.226 7.69455 17.3089C7.74354 17.4273 7.79517 17.5431 7.8468 17.6602C7.8799 17.7365 7.913 17.8141 7.94742 17.8891C8.00568 18.0168 8.06791 18.1418 8.13014 18.2668C8.16059 18.3286 8.18972 18.3904 8.2215 18.4523C8.31681 18.6365 8.4148 18.8181 8.51806 18.997C9.89236 21.3983 11.9141 23.2418 14.6958 24.6431L15.0016 24.7839L15.3075 24.6431C18.0892 23.2418 20.1122 21.3983 21.4852 18.997C21.5872 18.8181 21.6864 18.6365 21.7818 18.4523C21.8136 18.3918 21.8427 18.3286 21.8731 18.2668C21.9354 18.1418 21.9976 18.0181 22.0558 17.8904C22.0903 17.8154 22.1233 17.7378 22.1578 17.6602C22.2094 17.5444 22.261 17.4286 22.3087 17.3102C22.3431 17.2273 22.3749 17.1418 22.408 17.0575C22.4424 16.9707 22.4782 16.8852 22.51 16.797L22.5126 16.7839C23.2315 14.8365 23.6155 12.6062 23.6711 10.0549V10.0457C23.6777 9.8286 23.6791 9.60886 23.6791 9.3865C23.6791 9.33122 23.6791 9.27465 23.6791 9.21937V9.21675Z" stroke="url(#paint1_linear_4404_65823)" stroke-width="0.395964" stroke-linecap="round" stroke-linejoin="round"/>
<path d="M14.0267 11.831C14.0267 12.1981 13.7275 12.4954 13.3581 12.4954C12.9887 12.4954 12.6895 12.1981 12.6895 11.831C12.6895 11.4639 12.9887 11.1665 13.3581 11.1665C13.7275 11.1665 14.0267 11.4639 14.0267 11.831ZM17.8716 13.4283C17.5022 13.4283 17.2029 13.7257 17.2029 14.0928C17.2029 14.4599 17.5022 14.7573 17.8716 14.7573C18.2409 14.7573 18.5402 14.4599 18.5402 14.0928C18.5402 13.7257 18.2409 13.4283 17.8716 13.4283ZM13.3568 15.6902C12.9874 15.6902 12.6881 15.9875 12.6881 16.3547C12.6881 16.7218 12.9874 17.0191 13.3568 17.0191C13.7261 17.0191 14.0254 16.7218 14.0254 16.3547C14.0254 15.9875 13.7261 15.6902 13.3568 15.6902ZM11.0993 11.1665C10.73 11.1665 10.4307 11.4639 10.4307 11.831C10.4307 12.1981 10.73 12.4954 11.0993 12.4954C11.4688 12.4954 11.768 12.1981 11.768 11.831C11.768 11.4639 11.4688 11.1665 11.0993 11.1665ZM22.859 9.38622C22.859 9.58227 22.8577 9.77832 22.8537 9.97176L22.851 10.0336C22.7968 12.5099 22.434 14.6257 21.7429 16.4994L21.7177 16.5678V16.577C21.7058 16.6033 21.6436 16.7586 21.6436 16.7586L21.6131 16.8376C21.5919 16.8915 21.5721 16.9454 21.5496 16.9981C21.5085 17.0994 21.4635 17.1981 21.4198 17.2981L21.3695 17.4125C21.351 17.4573 21.3311 17.502 21.3113 17.5454C21.257 17.6625 21.2001 17.777 21.1431 17.8902L21.0981 17.9836C21.0835 18.0152 21.0676 18.0468 21.0518 18.077C20.9591 18.256 20.8651 18.4283 20.7737 18.5902C19.4948 20.8244 17.6068 22.556 14.9998 23.8823C12.3929 22.556 10.5049 20.8244 9.22724 18.5915C9.13324 18.427 9.03923 18.2547 8.94787 18.0783C8.932 18.0481 8.91742 18.0165 8.90153 17.9862L8.86182 17.9033C8.80224 17.7836 8.74399 17.6665 8.68836 17.5468C8.66852 17.5047 8.64997 17.4612 8.63144 17.4178L8.58113 17.3033C8.53611 17.2033 8.49243 17.102 8.45006 17.0007C8.42888 16.9481 8.40768 16.8954 8.38783 16.8428C8.38783 16.8428 8.29516 16.6073 8.28455 16.5797V16.5704L8.25674 16.5007C7.5643 14.627 7.20154 12.5112 7.14857 10.0349V9.97701L7.14594 9.96912C7.14197 9.77701 7.14062 9.58096 7.14062 9.38491V9.22306C7.14328 9.02832 7.14594 8.83096 7.15123 8.63227L7.15652 8.42306C7.16049 8.2757 7.16578 8.12701 7.17241 7.97832C7.33526 7.9836 7.49546 7.98622 7.65566 7.98622C10.2242 7.98622 12.753 7.35332 15.0011 6.15332C17.2479 7.35332 19.7781 7.98622 22.3466 7.98622C22.5068 7.98622 22.667 7.9836 22.8299 7.97832C22.8365 8.12701 22.8418 8.2757 22.8458 8.42306L22.851 8.63096C22.8564 8.82965 22.859 9.02701 22.8603 9.22176V9.38622H22.859ZM16.9355 11.8297C16.9355 12.3428 17.3539 12.7612 17.8716 12.7612C18.3892 12.7612 18.8076 12.3441 18.8076 11.8297C18.8076 11.3152 18.3879 10.8994 17.8716 10.8994C17.3552 10.8994 16.9355 11.3165 16.9355 11.8297ZM12.0367 11.8297C12.0367 11.3152 11.617 10.8994 11.1007 10.8994C10.5843 10.8994 10.1646 11.3165 10.1646 11.8297C10.1646 12.3428 10.5843 12.7599 11.1007 12.7599C11.617 12.7599 12.0367 12.3428 12.0367 11.8297ZM14.2941 16.3533C14.2941 15.8389 13.8744 15.4231 13.3581 15.4231C12.8417 15.4231 12.422 15.8402 12.422 16.3533C12.422 16.8665 12.8417 17.2836 13.3581 17.2836C13.8744 17.2836 14.2941 16.8665 14.2941 16.3533ZM14.2941 11.8297C14.2941 11.3152 13.8744 10.8994 13.3581 10.8994C12.8417 10.8994 12.422 11.3165 12.422 11.8297C12.422 12.3428 12.8417 12.7599 13.3581 12.7599C13.8744 12.7599 14.2941 12.3428 14.2941 11.8297ZM16.5515 16.3533C16.5515 15.8389 16.1318 15.4231 15.6155 15.4231C15.0991 15.4231 14.6794 15.8389 14.6794 16.3533C14.6794 16.8678 15.0991 17.2836 15.6155 17.2836C16.1318 17.2836 16.5515 16.8678 16.5515 16.3533ZM16.5515 14.0915C16.5515 13.5783 16.1318 13.1612 15.6155 13.1612C15.0991 13.1612 14.6794 13.5783 14.6794 14.0915C14.6794 14.6047 15.0991 15.0218 15.6155 15.0218C16.1318 15.0218 16.5515 14.606 16.5515 14.0915ZM16.5515 11.8297C16.5515 11.3152 16.1318 10.8994 15.6155 10.8994C15.0991 10.8994 14.6794 11.3165 14.6794 11.8297C14.6794 12.3428 15.0991 12.7612 15.6155 12.7612C16.1318 12.7612 16.5515 12.3441 16.5515 11.8297ZM18.8089 14.0915C18.8089 13.577 18.3892 13.1612 17.8729 13.1612C17.3565 13.1612 16.9368 13.5783 16.9368 14.0915C16.9368 14.6047 17.3565 15.0218 17.8729 15.0218C18.3892 15.0218 18.8089 14.6047 18.8089 14.0915Z" fill="url(#paint2_linear_4404_65823)"/>
</g>
</g>
<defs>
<linearGradient id="paint0_linear_4404_65823" x1="7.93419" y1="19.3628" x2="21.9839" y2="5.22555" gradientUnits="userSpaceOnUse">
<stop stop-color="#C6192E"/>
<stop offset="0.28" stop-color="#8F3F55"/>
<stop offset="0.56" stop-color="#5E6278"/>
<stop offset="0.78" stop-color="#3F778E"/>
<stop offset="0.9" stop-color="#348097"/>
<stop offset="1" stop-color="#348097"/>
</linearGradient>
<linearGradient id="paint1_linear_4404_65823" x1="7.93419" y1="19.3628" x2="21.9839" y2="5.22555" gradientUnits="userSpaceOnUse">
<stop stop-color="#C6192E"/>
<stop offset="0.28" stop-color="#8F3F55"/>
<stop offset="0.56" stop-color="#5E6278"/>
<stop offset="0.78" stop-color="#3F778E"/>
<stop offset="0.9" stop-color="#348097"/>
<stop offset="1" stop-color="#348097"/>
</linearGradient>
<linearGradient id="paint2_linear_4404_65823" x1="8.77312" y1="18.7678" x2="21.1518" y2="6.31067" gradientUnits="userSpaceOnUse">
<stop stop-color="#C6192E"/>
<stop offset="0.28" stop-color="#8F3F55"/>
<stop offset="0.56" stop-color="#5E6278"/>
<stop offset="0.78" stop-color="#3F778E"/>
<stop offset="0.9" stop-color="#348097"/>
<stop offset="1" stop-color="#348097"/>
</linearGradient>
<clipPath id="clip0_4404_65823">
<rect width="23.8318" height="25" fill="white" transform="translate(3.08594 2.5)"/>
</clipPath>
</defs>
</svg>
