<svg width="160" height="160" viewBox="0 0 160 160" fill="none" xmlns="http://www.w3.org/2000/svg">
<g clip-path="url(#clip0_3046_109001)">
<mask id="mask0_3046_109001" style="mask-type:luminance" maskUnits="userSpaceOnUse" x="0" y="0" width="160" height="160">
<path d="M160 0H0V160H160V0Z" fill="white"/>
</mask>
<g mask="url(#mask0_3046_109001)">
<path d="M102.685 102.672L92.584 92.5735M55.8774 25.5065C57.7746 25.5002 59.6634 25.76 61.4899 26.2795C63.2353 26.7657 64.8998 27.5158 66.4229 28.5008C67.9086 29.4587 69.2177 30.6701 70.292 32.0769C71.3663 33.5211 72.1601 35.1564 72.6297 36.8935C73.1762 38.9506 73.2946 41.0992 72.9809 43.2062C72.6962 44.9392 72.0936 46.6036 71.2043 48.1164C70.4209 49.4483 69.4713 50.6743 68.3741 51.7631C67.5284 52.6068 66.6223 53.3881 65.6623 54.1008C64.5236 54.9403 63.4494 55.8629 62.4478 56.8603C60.9953 57.9346 59.9377 59.4597 59.4432 61.1968C59.1626 62.213 59.0463 63.2083 58.8946 63.9086C58.4022 66.5683 56.1143 68.5195 53.4109 68.5839C50.4104 68.5714 47.973 66.161 47.9294 63.1605C47.9917 60.0311 48.7482 56.9537 50.1383 54.1485C51.8983 51.6613 54.0323 49.4608 56.4613 47.6239L57.8057 46.4561C58.4021 45.9802 58.9569 45.4566 59.466 44.8893C59.9979 44.3096 60.4427 43.6551 60.7876 42.9486C61.1305 42.2816 61.226 41.5169 61.0556 40.7854C60.7917 39.8857 60.2826 39.0753 59.5844 38.4478C59.1502 38.0239 58.6203 37.7122 58.0406 37.5356C57.3528 37.3402 56.6401 37.2467 55.9253 37.255C54.2671 37.2696 52.6484 37.7475 51.2479 38.6348C49.8515 39.4659 48.6131 40.5382 47.5907 41.8036C46.5185 43.2333 44.852 44.0935 43.0649 44.1413C40.0104 44.1351 37.5314 41.6665 37.5127 38.6119C37.5294 37.2405 38.0406 35.921 38.9507 34.8945C39.4058 34.346 39.8505 33.7247 40.3887 33.1283C41.5814 31.7922 42.9091 30.5807 44.3512 29.5168C45.9138 28.3324 47.6385 27.3808 49.4712 26.6888C51.52 25.9158 53.6894 25.521 55.8774 25.519V25.5065ZM53.7747 74.8509C57.4796 74.8447 60.4883 77.8431 60.4946 81.548C60.5008 85.255 57.5024 88.2639 53.7975 88.2701C50.0905 88.2764 47.0817 85.2779 47.0754 81.573C47.0754 81.5646 47.0754 81.5563 47.0754 81.548C47.0692 77.8556 50.0572 74.8571 53.7497 74.8509C53.758 74.8509 53.7663 74.8509 53.7747 74.8509ZM107.769 97.6228L156.141 145.995C157.484 147.333 158.24 149.151 158.246 151.046C158.234 154.998 155.034 158.198 151.082 158.211C149.187 158.205 147.368 157.448 146.03 156.108L97.6582 107.734L107.769 97.6228ZM54.7554 1.78906C25.4962 1.80777 1.79332 25.5439 1.81202 54.8031C1.83072 84.0623 25.5668 107.765 54.8261 107.746C84.0853 107.726 107.788 83.9917 107.769 54.7324C107.769 54.7283 107.769 54.7242 107.769 54.72C107.763 25.4816 84.0541 1.78283 54.8136 1.78906C54.7949 1.78906 54.7762 1.78906 54.7554 1.78906Z" stroke="url(#paint0_linear_3046_109001)" stroke-width="3.50697" stroke-linecap="round" stroke-linejoin="round"/>
</g>
</g>
<defs>
<linearGradient id="paint0_linear_3046_109001" x1="47.998" y1="125.409" x2="125.409" y2="47.9875" gradientUnits="userSpaceOnUse">
<stop stop-color="#C6192E"/>
<stop offset="0.1" stop-color="#C6192E"/>
<stop offset="0.11" stop-color="#C31B30"/>
<stop offset="0.47" stop-color="#765167"/>
<stop offset="0.72" stop-color="#46738A"/>
<stop offset="0.85" stop-color="#348097"/>
<stop offset="1" stop-color="#348097"/>
</linearGradient>
<clipPath id="clip0_3046_109001">
<rect width="160" height="160" fill="white"/>
</clipPath>
</defs>
</svg>
