<svg xmlns="http://www.w3.org/2000/svg" width="15" height="16" viewBox="0 0 15 16" fill="none">
<path d="M7.5025 15.8047C6.46583 15.8047 5.49083 15.608 4.5775 15.2147C3.66472 14.8208 2.87056 14.2864 2.195 13.6114C1.51944 12.9364 0.984722 12.143 0.590833 11.2314C0.196945 10.3197 0 9.34496 0 8.30719C0 7.26941 0.196945 6.29441 0.590833 5.38219C0.984167 4.46941 1.51778 3.67524 2.19167 2.99969C2.86556 2.32413 3.65917 1.78941 4.5725 1.39552C5.48583 1.00163 6.46083 0.804688 7.4975 0.804688C8.53417 0.804688 9.50917 1.00163 10.4225 1.39552C11.3353 1.78885 12.1294 2.32274 12.805 2.99719C13.4806 3.67163 14.0153 4.46524 14.4092 5.37802C14.8031 6.2908 15 7.26552 15 8.30219C15 9.33885 14.8033 10.3139 14.41 11.2272C14.0167 12.1405 13.4822 12.9347 12.8067 13.6097C12.1311 14.2847 11.3378 14.8194 10.4267 15.2139C9.51556 15.6083 8.54083 15.8052 7.5025 15.8047ZM7.5 14.9714C8.31389 14.9714 9.09722 14.8286 9.85 14.543C10.6039 14.2569 11.2886 13.8419 11.9042 13.298L2.50667 3.90135C1.97333 4.51635 1.56111 5.20052 1.27 5.95385C0.978889 6.70719 0.833333 7.4908 0.833333 8.30469C0.833333 10.1658 1.47917 11.7422 2.77083 13.0339C4.0625 14.3255 5.63889 14.9714 7.5 14.9714ZM12.4933 12.708C13.0378 12.093 13.4525 11.4089 13.7375 10.6555C14.0236 9.90219 14.1667 9.11858 14.1667 8.30469C14.1667 6.44358 13.5208 4.86719 12.2292 3.57552C10.9375 2.28385 9.36111 1.63802 7.5 1.63802C6.68278 1.63802 5.89556 1.7783 5.13833 2.05885C4.38167 2.33885 3.70111 2.75635 3.09667 3.31135L12.4933 12.708Z" fill="currentColor"/>
</svg>