<svg width="32" height="32" viewBox="0 0 32 32" fill="none" xmlns="http://www.w3.org/2000/svg">
<path d="M7.2894 15.2311V13M2.75564 28.523L6.15676 30H15.8579C16.1621 29.9999 16.4366 29.8218 16.555 29.5479L18.9406 24.0098C19.1025 23.6338 18.9219 23.2008 18.5371 23.0425C18.4443 23.0043 18.3445 22.9848 18.2436 22.9848H8.93371C8.62479 22.9842 8.34695 23.1684 8.23354 23.4493L6.15676 28.523L2.68276 26.9747C2.30547 26.8065 2.13668 26.3732 2.30418 26.0024L3.31166 23.7976C3.43343 23.5313 3.70387 23.3598 4.00235 23.3595H5.40111V21.8824M12.2002 26.3136H13.3392M6.52743 18.5537C6.53006 19.1658 6.02434 19.6642 5.39795 19.6668C4.77154 19.6693 4.26161 19.1751 4.25899 18.563C4.25639 17.9506 4.76208 17.4523 5.3885 17.4497C5.3927 17.4497 5.39691 17.4497 5.40111 17.4497C6.02296 17.4531 6.52571 17.9459 6.52743 18.5537ZM9.17768 17.4497C8.55214 17.4506 8.04574 17.9469 8.04662 18.5583C8.04749 19.1697 8.5553 19.6647 9.18084 19.6638C9.80579 19.6628 10.3119 19.1676 10.3119 18.5567C10.3119 17.9453 9.80483 17.4497 9.17926 17.4497C9.17878 17.4497 9.17816 17.4497 9.17768 17.4497ZM11.8232 17.4497V16.7081C11.8232 15.8924 11.1466 15.2311 10.3119 15.2311H4.26689C3.43224 15.2311 2.75564 15.8924 2.75564 16.7081V17.4497C2.33833 17.4497 2 17.7804 2 18.1882V19.2953C2 19.7031 2.33833 20.0338 2.75564 20.0338V21.8793H11.8232V20.0307C12.2404 20.0307 12.5788 19.7 12.5788 19.2922V18.1852C12.577 17.7785 12.2393 17.4497 11.8232 17.4497Z" stroke="currentColor" stroke-width="0.725902" stroke-linecap="round" stroke-linejoin="round"/>
<path d="M8 10.2933C8.15132 8.99054 8.7179 7.75098 9.63534 6.71546C10.5528 5.67994 11.7843 4.89 13.19 4.43539C14.5957 3.98079 16.1191 3.87974 17.5872 4.14374C19.0553 4.40774 20.4093 5.0262 21.4951 5.92885C22.581 6.83149 23.3553 7.98212 23.7301 9.25H24.9921C26.3202 9.25 27.594 9.71094 28.5332 10.5314C29.4724 11.3519 30 12.4647 30 13.625C30 14.7853 29.4724 15.8981 28.5332 16.7186C27.594 17.5391 26.3202 18 24.9921 18H19.5" stroke="url(#paint0_linear_2442_166647)" stroke-width="1.36138" stroke-linecap="round" stroke-linejoin="round"/>
<defs>
<linearGradient id="paint0_linear_2442_166647" x1="18.9813" y1="4" x2="18.9813" y2="18" gradientUnits="userSpaceOnUse">
<stop stop-color="#718F9D"/>
<stop offset="1" stop-color="#7A9CFF" stop-opacity="0.58"/>
</linearGradient>
</defs>
</svg>
