<svg width="20" height="19" viewBox="0 0 20 19" fill="none" xmlns="http://www.w3.org/2000/svg">
<g transform="scale(0.03)" fill="currentColor" stroke="none">
<path d="M302 617 c-7 -8 -7 -18 -2 -27 13 -20 13 -160 0 -160 -6 0 -10 26
-10 58 0 64 -11 82 -50 82 -14 0 -31 5 -38 12 -10 10 -16 8 -29 -5 -16 -16
-16 -18 0 -34 13 -13 19 -15 29 -5 7 7 25 12 40 12 28 0 28 -1 28 -64 0 -48
-4 -65 -15 -70 -11 -4 -15 2 -15 27 -1 45 -21 67 -62 67 -19 0 -39 5 -46 12
-9 9 -16 8 -29 -5 -16 -16 -16 -18 -1 -34 14 -13 20 -14 32 -4 8 7 30 11 48 9
30 -3 33 -6 36 -41 2 -21 -2 -45 -8 -53 -10 -12 -15 -10 -32 11 -14 17 -29 25
-52 25 -17 0 -37 5 -44 12 -10 9 -16 8 -29 -5 -16 -16 -16 -18 -1 -34 14 -13
20 -14 32 -4 22 18 80 10 84 -12 8 -41 -71 -72 -118 -47 -28 15 -49 -15 -27
-38 13 -13 20 -13 29 -4 7 7 26 12 43 12 71 0 105 -72 37 -78 -18 -2 -40 2
-48 9 -12 10 -18 9 -32 -4 -15 -16 -15 -18 1 -34 13 -13 19 -14 29 -5 7 7 27
12 44 12 23 0 38 8 52 25 17 21 22 23 32 11 6 -8 10 -32 8 -53 -3 -35 -6 -38
-36 -41 -18 -2 -40 2 -48 9 -12 10 -18 9 -32 -4 -15 -16 -15 -18 1 -34 13 -13
19 -14 29 -5 7 7 26 12 43 12 40 0 65 27 65 68 0 24 4 30 15 26 11 -5 15 -22
15 -70 0 -63 0 -64 -28 -64 -15 0 -33 5 -40 12 -10 9 -16 8 -29 -5 -16 -16
-16 -18 0 -34 13 -13 19 -14 29 -5 7 7 24 12 38 12 39 0 50 18 50 82 0 32 4
58 10 58 15 0 13 -143 -2 -158 -10 -9 -8 -16 5 -29 16 -16 18 -16 34 0 13 13
15 20 5 29 -15 15 -17 158 -2 158 6 0 10 -26 10 -58 0 -64 11 -82 50 -82 14 0
31 -5 38 -12 10 -9 16 -8 29 5 16 16 16 18 0 34 -13 13 -19 14 -29 5 -7 -7
-25 -12 -40 -12 -28 0 -28 1 -28 64 0 48 4 65 15 70 11 4 15 -2 15 -27 1 -45
21 -67 62 -67 19 0 39 -5 46 -12 10 -9 16 -8 29 5 16 16 16 18 1 34 -14 13
-20 14 -32 4 -8 -7 -30 -11 -48 -9 -30 3 -33 6 -36 41 -2 21 2 45 8 53 10 12
15 10 32 -11 14 -17 29 -25 52 -25 17 0 37 -5 44 -12 10 -9 16 -8 29 5 16 16
16 18 0 34 -13 13 -20 14 -29 5 -7 -7 -29 -12 -50 -12 -34 0 -38 3 -38 24 0
45 71 72 120 46 13 -7 21 -6 30 5 18 22 -5 48 -30 35 -49 -26 -120 1 -120 46
0 21 4 24 38 24 21 0 43 -5 50 -12 9 -9 16 -8 29 5 16 16 16 18 0 34 -13 13
-19 14 -29 5 -7 -7 -27 -12 -44 -12 -23 0 -38 -8 -52 -25 -17 -21 -22 -23 -32
-11 -6 8 -10 32 -8 53 3 35 6 38 36 41 18 2 40 -2 48 -9 12 -10 18 -9 32 4 15
16 15 18 -1 34 -13 13 -20 14 -29 5 -7 -7 -27 -12 -46 -12 -41 0 -61 -22 -62
-67 0 -25 -4 -31 -15 -27 -11 5 -15 22 -15 70 0 63 0 64 28 64 15 0 33 -5 40
-12 10 -10 16 -8 29 5 16 16 16 18 0 34 -13 13 -19 15 -29 5 -7 -7 -24 -12
-38 -12 -39 0 -50 -18 -50 -81 0 -32 -4 -61 -10 -64 -13 -8 -13 144 0 165 9
14 -4 40 -20 40 -4 0 -12 -6 -18 -13z m28 -17 c0 -5 -4 -10 -10 -10 -5 0 -10
5 -10 10 0 6 5 10 10 10 6 0 10 -4 10 -10z m-130 -40 c0 -5 -4 -10 -10 -10 -5
0 -10 5 -10 10 0 6 5 10 10 10 6 0 10 -4 10 -10z m260 0 c0 -5 -4 -10 -10 -10
-5 0 -10 5 -10 10 0 6 5 10 10 10 6 0 10 -4 10 -10z m-330 -60 c0 -5 -4 -10
-10 -10 -5 0 -10 5 -10 10 0 6 5 10 10 10 6 0 10 -4 10 -10z m400 0 c0 -5 -4
-10 -10 -10 -5 0 -10 5 -10 10 0 6 5 10 10 10 6 0 10 -4 10 -10z m-450 -80 c0
-5 -4 -10 -10 -10 -5 0 -10 5 -10 10 0 6 5 10 10 10 6 0 10 -4 10 -10z m500 0
c0 -5 -4 -10 -10 -10 -5 0 -10 5 -10 10 0 6 5 10 10 10 6 0 10 -4 10 -10z
m-177 -30 c23 -11 55 -32 70 -45 l28 -25 -28 -25 c-63 -55 -143 -76 -209 -55
-36 11 -123 68 -123 80 -1 10 81 65 112 77 49 18 103 15 150 -7z m-353 -70 c0
-5 -4 -10 -10 -10 -5 0 -10 5 -10 10 0 6 5 10 10 10 6 0 10 -4 10 -10z m560 0
c0 -5 -4 -10 -10 -10 -5 0 -10 5 -10 10 0 6 5 10 10 10 6 0 10 -4 10 -10z
m-530 -100 c0 -5 -4 -10 -10 -10 -5 0 -10 5 -10 10 0 6 5 10 10 10 6 0 10 -4
10 -10z m500 0 c0 -5 -4 -10 -10 -10 -5 0 -10 5 -10 10 0 6 5 10 10 10 6 0 10
-4 10 -10z m-450 -80 c0 -5 -4 -10 -10 -10 -5 0 -10 5 -10 10 0 6 5 10 10 10
6 0 10 -4 10 -10z m400 0 c0 -5 -4 -10 -10 -10 -5 0 -10 5 -10 10 0 6 5 10 10
10 6 0 10 -4 10 -10z m-330 -60 c0 -5 -4 -10 -10 -10 -5 0 -10 5 -10 10 0 6 5
10 10 10 6 0 10 -4 10 -10z m260 0 c0 -5 -4 -10 -10 -10 -5 0 -10 5 -10 10 0
6 5 10 10 10 6 0 10 -4 10 -10z m-130 -40 c0 -5 -4 -10 -10 -10 -5 0 -10 5
-10 10 0 6 5 10 10 10 6 0 10 -4 10 -10z"/>
<path d="M297 373 c-24 -6 -39 -47 -28 -77 17 -43 92 -40 104 4 6 25 -8 70
-22 70 -5 0 -15 2 -23 4 -7 2 -21 2 -31 -1z m53 -28 c26 -32 -13 -81 -47 -59
-23 14 -28 41 -13 59 16 19 44 19 60 0z"/>
</g>
</svg>
