<svg width="21" height="22" viewBox="0 0 21 22" fill="none" xmlns="http://www.w3.org/2000/svg">
<path d="M7.05293 3.54763V0.922852M1.86472 19.1851L5.75679 20.9229H16.8583C17.2064 20.9227 17.5205 20.7132 17.656 20.391L20.386 13.8755C20.5713 13.4333 20.3646 12.9238 19.9243 12.7376C19.8181 12.6926 19.7039 12.6697 19.5884 12.6697H8.9346C8.58109 12.6689 8.26314 12.8857 8.13335 13.2161L5.75679 19.1851L1.78131 17.3637C1.34957 17.1659 1.1564 16.656 1.34808 16.2198L2.501 13.626C2.64035 13.3126 2.94983 13.1108 3.29139 13.1105H4.89207V11.3728M12.6726 16.5859H13.976M6.18097 7.45657C6.18398 8.17678 5.60526 8.76311 4.88845 8.7662C4.17161 8.76912 3.58808 8.18772 3.58508 7.4675C3.5821 6.74709 4.16079 6.16083 4.87763 6.15781C4.88244 6.15781 4.88726 6.15781 4.89207 6.15784C5.60368 6.16183 6.179 6.74161 6.18097 7.45657ZM9.21378 6.15784C8.49794 6.15885 7.91845 6.74271 7.91945 7.46202C7.92045 8.18133 8.50156 8.76366 9.2174 8.76256C9.93256 8.76149 10.5117 8.17879 10.5117 7.4602C10.5117 6.74089 9.93146 6.15784 9.21559 6.15784C9.21504 6.15784 9.21433 6.15784 9.21378 6.15784ZM12.2411 6.15784V5.28534C12.2411 4.32562 11.4669 3.54763 10.5117 3.54763H3.59412C2.63899 3.54763 1.86472 4.32562 1.86472 5.28534V6.15784C1.38717 6.15784 1 6.54683 1 7.02667V8.32907C1 8.80884 1.38717 9.1979 1.86472 9.1979V11.3691H12.2411V9.19427C12.7187 9.19427 13.1059 8.80518 13.1059 8.3254V7.02304C13.1038 6.54459 12.7174 6.15784 12.2411 6.15784Z" stroke="currentColor" stroke-width="0.852274" stroke-linecap="round" stroke-linejoin="round"/>
</svg>
