<svg width="24" height="24" xmlns="http://www.w3.org/2000/svg" fill="none"><path id="svg_1" fill="currentColor" d="m15,5.8676l-6,0l0,-1.05885c0,-0.6353 0.4,-1.05883 1,-1.05883l4,0c0.6,0 1,0.42353 1,1.05883l0,1.05885zm5,0l-3.5,0l0,-1.05885c0,-0.63368 -0.2039,-1.2887 -0.6845,-1.79759c-0.4879,-0.51663 -1.1479,-0.76124 -1.8155,-0.76124l-4,0c-0.66756,0 -1.32759,0.24461 -1.81552,0.76124c-0.48062,0.50889 -0.68448,1.16391 -0.68448,1.79759l0,1.05885l-3.5,0c-1.1,0 -2,0.95294 -2,2.11764l0,6.35293c0,1.1647 0.9,2.1177 2,2.1177l16,0c1.1,0 2,-0.953 2,-2.1177l0,-6.35293c0,-1.1647 -0.9,-2.11764 -2,-2.11764zm-9.5,7.88237c-0.2761,0 -0.5,0.2238 -0.5,0.5c0,0.2761 0.2239,0.5 0.5,0.5l3,0c0.2761,0 0.5,-0.2239 0.5,-0.5c0,-0.2762 -0.2239,-0.5 -0.5,-0.5l-3,0zm-6.5,3.7648l16,0c1.1,0 2,-0.9529 2,-2.1176l0,4.2353c0,1.1647 -0.9,2.1176 -2,2.1176l-16,0c-1.1,0 -2,-0.9529 -2,-2.1176l0,-4.2353c0,1.1647 0.9,2.1176 2,2.1176z" clip-rule="evenodd" fill-rule="evenodd"/></svg>