<svg xmlns="http://www.w3.org/2000/svg" width="36" height="36" viewBox="0 0 36 36" fill="none">
  <path
    d="M25.9936 10.4927C24.4406 8.97166 22.3126 8.91266 21.2286 9.97466L17.5286 13.5997C17.3859 13.7356 17.1955 13.8099 16.9984 13.8066C16.8014 13.8032 16.6136 13.7224 16.4757 13.5817C16.3377 13.441 16.2607 13.2516 16.2612 13.0546C16.2618 12.8575 16.3398 12.6686 16.4786 12.5287L20.1786 8.90366C22.0146 7.10466 25.0926 7.51066 27.0436 9.42166C28.9966 11.3347 29.4216 14.3767 27.5716 16.1897L24.6646 19.0377C24.5942 19.1066 24.5109 19.161 24.4195 19.1978C24.3281 19.2345 24.2303 19.2529 24.1318 19.2519C24.0333 19.2509 23.9359 19.2305 23.8453 19.1918C23.7546 19.1532 23.6725 19.097 23.6036 19.0267C23.5346 18.9563 23.4802 18.873 23.4435 18.7816C23.4067 18.6902 23.3883 18.5924 23.3893 18.4939C23.3904 18.3954 23.4108 18.298 23.4494 18.2074C23.4881 18.1167 23.5442 18.0346 23.6146 17.9657L26.5216 15.1177C27.5916 14.0697 27.5436 12.0117 25.9936 10.4927ZM12.6276 10.0857C12.5735 10.0025 12.5034 9.93096 12.4214 9.87509C12.3395 9.81923 12.2473 9.78017 12.1501 9.76018C12.053 9.7402 11.9528 9.73968 11.8555 9.75866C11.7581 9.77764 11.6655 9.81574 11.583 9.87076C11.5004 9.92578 11.4296 9.99662 11.3747 10.0792C11.3197 10.1617 11.2817 10.2544 11.2628 10.3518C11.2438 10.4491 11.2444 10.5493 11.2645 10.6464C11.2845 10.7435 11.3236 10.8357 11.3796 10.9177L13.3796 13.9177C13.4909 14.0808 13.6621 14.1934 13.856 14.231C14.0498 14.2687 14.2507 14.2284 14.415 14.1188C14.5793 14.0093 14.6938 13.8394 14.7336 13.6459C14.7734 13.4525 14.7353 13.2512 14.6276 13.0857L12.6276 10.0857ZM8.24057 13.7907C8.14676 13.758 8.04739 13.7443 7.94825 13.7504C7.84911 13.7565 7.75216 13.7822 7.66304 13.8261C7.57392 13.8699 7.49439 13.931 7.42908 14.0059C7.36377 14.0807 7.31397 14.1678 7.28258 14.262C7.25119 14.3562 7.23883 14.4558 7.24622 14.5548C7.25361 14.6539 7.2806 14.7505 7.32563 14.839C7.37066 14.9275 7.43282 15.0063 7.50851 15.0706C7.58421 15.1349 7.67192 15.1835 7.76657 15.2137L13.7666 17.2137C13.9545 17.2735 14.1584 17.2569 14.3341 17.1675C14.5099 17.0781 14.6434 16.9231 14.7057 16.736C14.768 16.549 14.7542 16.3449 14.6671 16.1679C14.58 15.991 14.4268 15.8554 14.2406 15.7907L8.24057 13.7907ZM12.7316 19.0077C12.8626 18.8604 12.9304 18.6674 12.9203 18.4705C12.9101 18.2736 12.8228 18.0886 12.6773 17.9556C12.5318 17.8225 12.3397 17.7521 12.1427 17.7596C11.9457 17.7672 11.7595 17.8519 11.6246 17.9957L10.3636 19.3757C8.63657 21.2647 9.01357 24.4287 10.8676 26.4567C12.7326 28.4967 15.7376 28.9617 17.5226 27.0087L21.5576 22.5947C21.6886 22.4474 21.7564 22.2544 21.7463 22.0575C21.7361 21.8606 21.6488 21.6756 21.5033 21.5426C21.3578 21.4095 21.1657 21.3391 20.9687 21.3466C20.7717 21.3542 20.5855 21.4389 20.4506 21.5827L16.4156 25.9967C15.4146 27.0917 13.4526 27.0617 11.9756 25.4447C10.4856 23.8167 10.4116 21.5447 11.4706 20.3867L12.7316 19.0077Z"
    fill="var(--text-primary)"
  />
</svg>
