<svg width="16" height="16" viewBox="0 0 16 16" fill="none" xmlns="http://www.w3.org/2000/svg">
<path fill-rule="evenodd" clip-rule="evenodd" d="M3.00013 4.03346C3.00897 4.03346 3.01745 4.02995 3.0237 4.0237C3.02995 4.01745 3.03346 4.00897 3.03346 4.00013C3.03346 3.99129 3.02995 3.98281 3.0237 3.97656C3.01745 3.97031 3.00897 3.9668 3.00013 3.9668C2.99129 3.9668 2.98281 3.97031 2.97656 3.97656C2.97031 3.98281 2.9668 3.99129 2.9668 4.00013C2.9668 4.00897 2.97031 4.01745 2.97656 4.0237C2.98281 4.02995 2.99129 4.03346 3.00013 4.03346ZM2.26945 3.26945C2.46324 3.07567 2.72607 2.9668 3.00013 2.9668C3.27419 2.9668 3.53702 3.07567 3.73081 3.26945C3.92459 3.46324 4.03346 3.72607 4.03346 4.00013C4.03346 4.27419 3.92459 4.53702 3.73081 4.73081C3.53702 4.92459 3.27419 5.03346 3.00013 5.03346C2.72607 5.03346 2.46324 4.92459 2.26945 4.73081C2.07567 4.53702 1.9668 4.27419 1.9668 4.00013C1.9668 3.72607 2.07567 3.46324 2.26945 3.26945ZM5.4668 4.00013C5.4668 3.70558 5.70558 3.4668 6.00013 3.4668H13.5001C13.7947 3.4668 14.0335 3.70558 14.0335 4.00013C14.0335 4.29468 13.7947 4.53346 13.5001 4.53346H6.00013C5.70558 4.53346 5.4668 4.29468 5.4668 4.00013ZM3.00013 8.03346C3.00897 8.03346 3.01745 8.02995 3.0237 8.0237C3.02995 8.01745 3.03346 8.00897 3.03346 8.00013C3.03346 7.99129 3.02995 7.98281 3.0237 7.97656C3.01745 7.97031 3.00897 7.9668 3.00013 7.9668C2.99129 7.9668 2.98281 7.97031 2.97656 7.97656C2.97031 7.98281 2.9668 7.99129 2.9668 8.00013C2.9668 8.00897 2.97031 8.01745 2.97656 8.0237C2.98281 8.02995 2.99129 8.03346 3.00013 8.03346ZM2.26945 7.26945C2.46324 7.07567 2.72607 6.9668 3.00013 6.9668C3.27419 6.9668 3.53702 7.07567 3.73081 7.26945C3.92459 7.46324 4.03346 7.72607 4.03346 8.00013C4.03346 8.27419 3.92459 8.53702 3.73081 8.73081C3.53702 8.9246 3.27419 9.03346 3.00013 9.03346C2.72607 9.03346 2.46324 8.9246 2.26945 8.73081C2.07567 8.53702 1.9668 8.27419 1.9668 8.00013C1.9668 7.72607 2.07567 7.46324 2.26945 7.26945ZM5.4668 8.00013C5.4668 7.70558 5.70558 7.4668 6.00013 7.4668H10.5001C10.7947 7.4668 11.0335 7.70558 11.0335 8.00013C11.0335 8.29468 10.7947 8.53346 10.5001 8.53346H6.00013C5.70558 8.53346 5.4668 8.29468 5.4668 8.00013ZM3.00013 12.0335C3.00897 12.0335 3.01745 12.03 3.0237 12.0237C3.02995 12.0174 3.03346 12.009 3.03346 12.0001C3.03346 11.9913 3.02995 11.9828 3.0237 11.9766C3.01745 11.9703 3.00897 11.9668 3.00013 11.9668C2.99129 11.9668 2.98281 11.9703 2.97656 11.9766C2.97031 11.9828 2.9668 11.9913 2.9668 12.0001C2.9668 12.009 2.97031 12.0174 2.97656 12.0237C2.98281 12.03 2.99129 12.0335 3.00013 12.0335ZM2.26945 11.2695C2.46324 11.0757 2.72607 10.9668 3.00013 10.9668C3.27419 10.9668 3.53702 11.0757 3.73081 11.2695C3.92459 11.4632 4.03346 11.7261 4.03346 12.0001C4.03346 12.2742 3.92459 12.537 3.73081 12.7308C3.53702 12.9246 3.27419 13.0335 3.00013 13.0335C2.72607 13.0335 2.46324 12.9246 2.26945 12.7308C2.07567 12.537 1.9668 12.2742 1.9668 12.0001C1.9668 11.7261 2.07567 11.4632 2.26945 11.2695ZM5.4668 12.0001C5.4668 11.7056 5.70558 11.4668 6.00013 11.4668H13.5001C13.7947 11.4668 14.0335 11.7056 14.0335 12.0001C14.0335 12.2947 13.7947 12.5335 13.5001 12.5335H6.00013C5.70558 12.5335 5.4668 12.2947 5.4668 12.0001Z" fill="currentColor"/>
</svg>
