<svg width="14" height="14" viewBox="0 0 14 14" fill="none" xmlns="http://www.w3.org/2000/svg">
  <path fill-rule="evenodd" clip-rule="evenodd" d="M11.0359 1.80994H12.5835C12.8571 1.80994 13.1196 1.91865 13.313 2.11214C13.5065 2.30563 13.6152 2.56805 13.6152 2.84169V12.1901C13.6152 12.4638 13.5065 12.7262 13.313 12.9197C13.1196 13.1132 12.8571 13.2219 12.5835 13.2219H1.64698C1.37334 13.2219 1.11092 13.1132 0.917426 12.9197C0.723936 12.7262 0.615234 12.4638 0.615234 12.1901V2.84169C0.615234 2.56805 0.723936 2.30563 0.917426 2.11214C1.11092 1.91865 1.37334 1.80994 1.64698 1.80994H3.1946V1.29407C3.1946 1.15725 3.24895 1.02604 3.3457 0.929294C3.44244 0.832549 3.57365 0.778198 3.71047 0.778198C3.84729 0.778198 3.9785 0.832549 4.07525 0.929294C4.17199 1.02604 4.22635 1.15725 4.22635 1.29407V1.80994H10.0041V1.29407C10.0041 1.15725 10.0585 1.02604 10.1552 0.929294C10.252 0.832549 10.3832 0.778198 10.52 0.778198C10.6568 0.778198 10.788 0.832549 10.8848 0.929294C10.9815 1.02604 11.0359 1.15725 11.0359 1.29407V1.80994ZM3.1946 2.94487V2.42899H1.23428V4.90518V5.93693V12.6028H12.9962V5.93693V4.90518V2.42899H11.0359V2.94487C11.0359 3.08168 10.9815 3.2129 10.8848 3.30964C10.788 3.40639 10.6568 3.46074 10.52 3.46074C10.3832 3.46074 10.252 3.40639 10.1552 3.30964C10.0585 3.2129 10.0041 3.08168 10.0041 2.94487V2.42899H4.22635V2.94487C4.22635 3.08168 4.17199 3.2129 4.07525 3.30964C3.9785 3.40639 3.84729 3.46074 3.71047 3.46074C3.57365 3.46074 3.44244 3.40639 3.3457 3.30964C3.24895 3.2129 3.1946 3.08168 3.1946 2.94487Z" fill="currentColor"/>
  <path d="M4.31864 7.12709H4.84096C5.04408 7.12709 5.21215 7.09203 5.34514 7.0219C5.48056 6.95178 5.58092 6.85505 5.64621 6.73172C5.7115 6.6084 5.74414 6.46694 5.74414 6.30734C5.74414 6.14048 5.71391 5.99781 5.65346 5.87932C5.59542 5.75842 5.50595 5.66532 5.38504 5.60003C5.26655 5.53474 5.11542 5.50209 4.93164 5.50209C4.77688 5.50209 4.63663 5.53353 4.51088 5.5964C4.38756 5.65685 4.28962 5.74391 4.21708 5.85756C4.14453 5.9688 4.10826 6.10179 4.10826 6.25656H3.23047C3.23047 5.97605 3.30422 5.72698 3.45173 5.50935C3.59924 5.29171 3.79994 5.12123 4.05385 4.99791C4.31017 4.87216 4.59793 4.80929 4.91713 4.80929C5.25809 4.80929 5.55552 4.86612 5.80943 4.97977C6.06576 5.09101 6.26525 5.25786 6.40792 5.48033C6.5506 5.7028 6.62193 5.97847 6.62193 6.30734C6.62193 6.45726 6.58687 6.60961 6.51674 6.76437C6.44661 6.91913 6.34263 7.06059 6.2048 7.18876C6.06696 7.3145 5.89528 7.41727 5.68973 7.49707C5.48419 7.57445 5.246 7.61314 4.97517 7.61314H4.31864V7.12709ZM4.31864 7.80901V7.33022H4.97517C5.28469 7.33022 5.54827 7.36649 5.7659 7.43903C5.98596 7.51158 6.1649 7.61193 6.30273 7.74009C6.44057 7.86584 6.54092 8.00972 6.60379 8.17174C6.66908 8.33375 6.70173 8.50544 6.70173 8.6868C6.70173 8.93345 6.65699 9.15351 6.56752 9.34696C6.48047 9.53799 6.35593 9.70001 6.19392 9.83301C6.0319 9.96601 5.84208 10.0664 5.62444 10.1341C5.40923 10.2018 5.17466 10.2356 4.92076 10.2356C4.69345 10.2356 4.47582 10.2042 4.26786 10.1413C4.0599 10.0785 3.8737 9.98535 3.70926 9.86203C3.54483 9.73628 3.41425 9.58031 3.31752 9.39411C3.22321 9.2055 3.17606 8.98786 3.17606 8.74121H4.05022C4.05022 8.89839 4.0865 9.03743 4.15904 9.15834C4.234 9.27683 4.33798 9.36993 4.47098 9.43764C4.6064 9.50535 4.76116 9.5392 4.93527 9.5392C5.11905 9.5392 5.27744 9.50656 5.41044 9.44127C5.54343 9.37598 5.645 9.27925 5.71512 9.15109C5.78767 9.02293 5.82394 8.86816 5.82394 8.6868C5.82394 8.48126 5.78404 8.31441 5.70424 8.18624C5.62444 8.05808 5.51079 7.96377 5.36328 7.90332C5.21577 7.84045 5.04167 7.80901 4.84096 7.80901H4.31864ZM10.9565 7.07994V7.94322C10.9565 8.35672 10.9154 8.70977 10.8331 9.00237C10.7533 9.29255 10.6373 9.52832 10.4849 9.70968C10.3326 9.89104 10.15 10.024 9.93722 10.1087C9.72684 10.1933 9.49107 10.2356 9.22991 10.2356C9.02195 10.2356 8.8285 10.209 8.64955 10.1558C8.47303 10.1026 8.31343 10.0192 8.17076 9.90555C8.02809 9.7919 7.90597 9.6456 7.80441 9.46666C7.70526 9.2853 7.62788 9.06887 7.57227 8.81738C7.51907 8.56589 7.49247 8.27451 7.49247 7.94322V7.07994C7.49247 6.66402 7.53358 6.31338 7.61579 6.02804C7.69801 5.74028 7.81529 5.50693 7.96763 5.32798C8.11998 5.14662 8.30134 5.01483 8.51172 4.93262C8.72452 4.8504 8.9615 4.80929 9.22266 4.80929C9.43304 4.80929 9.62649 4.83589 9.80301 4.88909C9.98196 4.93987 10.1416 5.02088 10.2818 5.13211C10.4245 5.24335 10.5454 5.38844 10.6445 5.56738C10.7461 5.74391 10.8235 5.95791 10.8767 6.2094C10.9299 6.45847 10.9565 6.74865 10.9565 7.07994ZM10.0823 8.06655V6.94936C10.0823 6.73898 10.0702 6.55399 10.046 6.39439C10.0219 6.23237 9.98558 6.09575 9.93722 5.98451C9.89128 5.87086 9.83324 5.77897 9.76311 5.70884C9.69299 5.6363 9.61319 5.58431 9.52372 5.55287C9.43425 5.51902 9.33389 5.50209 9.22266 5.50209C9.08724 5.50209 8.96633 5.52869 8.85993 5.58189C8.75353 5.63267 8.66406 5.71489 8.59152 5.82854C8.51897 5.9422 8.46336 6.09212 8.42467 6.27832C8.38839 6.4621 8.37026 6.68578 8.37026 6.94936V8.06655C8.37026 8.27934 8.38235 8.46675 8.40653 8.62877C8.43071 8.79078 8.46698 8.92983 8.51535 9.0459C8.56371 9.15955 8.62175 9.25386 8.68945 9.32882C8.75958 9.40137 8.83938 9.45457 8.92885 9.48842C9.02074 9.52227 9.12109 9.5392 9.22991 9.5392C9.36775 9.5392 9.48986 9.5126 9.59626 9.4594C9.70266 9.4062 9.79213 9.32157 9.86468 9.2055C9.93722 9.08701 9.99163 8.93345 10.0279 8.74484C10.0642 8.55622 10.0823 8.33012 10.0823 8.06655Z" fill="currentColor"/>
</svg>