<svg width="32" height="33" viewBox="0 0 32 33" fill="none" xmlns="http://www.w3.org/2000/svg">
<path d="M7.25 14.9166H10.75V18.0833H7.25V14.9166ZM7.25 21.25H10.75V24.4166H7.25V21.25ZM14.25 14.9166H17.75V18.0833H14.25V14.9166ZM14.25 21.25H17.75V24.4166H14.25V21.25ZM21.25 14.9166H24.75V18.0833H21.25V14.9166ZM21.25 21.25H24.75V24.4166H21.25V21.25Z"
      fill="currentColor"/>
<path d="M3.75 32.3333H28.25C30.1803 32.3333 31.75 30.913 31.75 29.1666V6.99996C31.75 5.25354 30.1803 3.83329 28.25 3.83329H24.75V0.666626H21.25V3.83329H10.75V0.666626H7.25V3.83329H3.75C1.81975 3.83329 0.25 5.25354 0.25 6.99996V29.1666C0.25 30.913 1.81975 32.3333 3.75 32.3333ZM28.25 10.1666L28.2517 29.1666H3.75V10.1666H28.25Z"
      fill="currentColor"/>
</svg>
