<svg width="17" height="18" viewBox="0 0 17 18" fill="none" xmlns="http://www.w3.org/2000/svg">
<path d="M14.44 3.91285C14.26 3.69285 14.07 3.48285 13.87 3.28285C12.57 2.00285 10.86 1.15285 8.95 0.962852C8.86 0.952852 8.77 0.942852 8.68 0.942852H8.62C8.47 0.922852 8.31 0.922852 8.15 0.922852H7.98C7.9 0.932852 7.83 0.932852 7.75 0.932852H1.17L2.02 1.78285L2.4 2.16285L2.99 2.75285C2.77 2.93285 2.57 3.12285 2.37 3.33285C2.12 3.57285 1.88 3.84285 1.66 4.12285C1.64 4.15285 1.62 4.18285 1.6 4.21285C1.44 4.41285 1.3 4.62285 1.17 4.84285C0.57 5.84285 0.17 6.97285 0.04 8.19285C0.03 8.28285 0.02 8.37285 0.02 8.46285V8.57285C0 8.72285 0 8.88285 0 9.04285V9.26285C0 9.26285 0.01 9.35285 0.01 9.39285V15.9729L1.82 14.1629C1.82 14.1629 1.8 14.1329 1.79 14.1129L1.83 14.1529H1.82C2 14.3829 2.19 14.5929 2.39 14.7929C2.65 15.0529 2.93 15.2929 3.22 15.5129H3.23C3.46 15.6729 3.69 15.8329 3.94 15.9829C5.16 16.7129 6.59 17.1429 8.12 17.1429C10.75 17.1429 13.09 15.8929 14.57 13.9429H14.59V13.9229L12.23 11.5329L11.62 10.9229H11.61C11.47 11.1629 11.31 11.4029 11.11 11.6229C10.91 11.8629 10.66 12.0829 10.4 12.2729C9.88 12.6729 9.14 13.0029 8.12 13.0029C8 13.0029 7.91 12.9929 7.84 12.9629H7.83C7.59 12.9429 7.35 12.9029 7.13 12.8429C6.82 12.7629 6.53 12.6429 6.26 12.4829H6.25C6.25 12.4829 6.15 12.4329 6.11 12.4129H6.1C5.91 12.2829 5.72 12.1529 5.56 11.9929C5.31 11.7929 5.1 11.5529 4.92 11.2829C4.89 11.2429 4.86 11.1929 4.83 11.1529L6.09 9.89285L6.94 9.04285H5.74C5.49 9.05285 5.24 9.05285 4.99 9.04285H4.95H4.94C4.94 9.04285 4.93333 9.04285 4.92 9.04285H4.14C4.14 8.92285 4.15 8.83285 4.18 8.76285C4.18 8.56285 4.22 8.38285 4.27 8.20285C4.28 8.13285 4.29 8.07285 4.32 8.01285C4.4 7.70285 4.51 7.42285 4.67 7.15285C4.67 7.15285 4.67333 7.14618 4.68 7.13285C4.68 7.13285 4.72 7.05285 4.74 7.02285C4.86 6.81285 5 6.62285 5.15 6.44285C5.36 6.19285 5.61 5.97285 5.87 5.79285C5.9 5.77285 5.93 5.74285 5.97 5.72285L5.99 5.75285L6.57 6.33285L7.25 7.01285L8.1 7.86285V6.66285C8.09 6.41285 8.09 6.15285 8.1 5.90285C8.09 5.61285 8.09 5.33285 8.09 5.05285H8.15C8.27 5.05285 8.36 5.07285 8.43 5.10285C8.6 5.10285 8.77 5.14285 8.93 5.17285C9.97 5.39285 10.85 6.02285 11.42 6.89285V6.91285L9.32 9.02285H10.52C12.34 9.01285 14.18 9.01285 15.4 9.02285H16.25V2.09285L14.43 3.91285H14.44ZM4.23 9.90285C4.45 9.90285 4.67 9.90285 4.89 9.89285L4.37 10.4129L4.23 10.5529L3.75 11.0329L4.11 11.6129C4.14 11.6629 4.18 11.7229 4.23 11.7729C4.22 11.7829 4.23 11.7929 4.25 11.8029C4.25 11.8029 4.25333 11.8062 4.26 11.8129C4.29 11.8729 4.32 11.9229 4.37 11.9729L4.39 11.9929C4.41 12.0229 4.43 12.0429 4.44 12.0629C4.55 12.2029 4.67 12.3329 4.8 12.4529C4.82 12.4729 4.84 12.4929 4.86 12.5129C4.89 12.5429 4.92 12.5729 4.95 12.5929C5.16 12.7929 5.39 12.9629 5.64 13.1229C5.7 13.1529 5.77 13.1929 5.84 13.2329C6.03 13.3429 6.24 13.4329 6.45 13.5129C6.81 13.6529 7.2 13.7529 7.61 13.7929C7.79 13.8429 7.96 13.8529 8.12 13.8529C9.32 13.8529 10.23 13.4629 10.89 12.9629C10.9 12.9529 10.91 12.9529 10.92 12.9429C11.21 12.7329 11.48 12.4929 11.72 12.2329L13.43 13.9629C12.12 15.3929 10.23 16.2929 8.12 16.2929C6.84 16.2929 5.63 15.9629 4.58 15.3529C4.33 15.2329 4.08 15.0729 3.85 14.8929C3.61 14.7329 3.39 14.5429 3.18 14.3429C3.13 14.3029 3.09 14.2629 3.04 14.2229L2.98 14.1629C2.81 13.9829 2.65 13.8029 2.49 13.6129L2.28 13.3529L1.9 12.8829L1.31 13.4729L1.23 13.5529L0.86 13.9229V9.89285H0.87H0.89H0.9C1.58 9.90285 2.43 9.90285 3.36 9.90285H4.23ZM7.25 1.82285C7.25 2.50285 7.25 3.35285 7.25 4.28285V5.15285C7.25 5.37285 7.25 5.59285 7.25 5.81285L6.74 5.30285L6.59 5.15285L6.11 4.66285L5.53 5.03285C5.53 5.03285 5.44 5.09285 5.4 5.13285C5.38 5.13285 5.37 5.13285 5.36 5.15285C5.12 5.31285 4.89 5.50285 4.68 5.71285C4.64 5.76285 4.6 5.80285 4.56 5.85285C4.48 5.94285 4.4 6.03285 4.33 6.12285C4.22 6.25285 4.13 6.39285 4.05 6.53285C4.03 6.55285 4.01 6.58285 4 6.60285C3.97 6.65285 3.94 6.70285 3.92 6.75285C3.81 6.93285 3.72 7.13285 3.65 7.33285C3.53 7.61285 3.45 7.90285 3.4 8.20285C3.37 8.31285 3.36 8.42285 3.35 8.53285C3.3 8.71285 3.29 8.88285 3.29 9.04285C2.37 9.05285 1.52 9.05285 0.85 9.04285C0.85 8.75285 0.87 8.47285 0.9 8.19285C1.01 7.21285 1.33 6.28285 1.79 5.46285C1.94 5.20285 2.1 4.96285 2.28 4.73285C2.3 4.70285 2.32 4.67285 2.35 4.64285C2.49 4.44285 2.65 4.26285 2.82 4.08285C3.04 3.84285 3.28 3.62285 3.53 3.41285L4.26 2.81285L3.69 2.25285L3.22 1.78285H7.25C7.25 1.78285 7.25 1.81285 7.25 1.82285ZM15.41 8.17285C14.37 8.17285 12.9 8.17285 11.38 8.17285L12.04 7.51285L12.52 7.02285L12.16 6.45285C11.45 5.34285 10.29 4.54285 8.94 4.31285C8.85 4.29285 8.75 4.28285 8.66 4.27285C8.48 4.22285 8.3 4.20285 8.15 4.20285H8.09C8.09 3.28285 8.09 2.44285 8.1 1.77285H8.15C8.42 1.77285 8.69 1.78285 8.95 1.82285C10.89 2.03285 12.6 3.01285 13.78 4.45285L14.37 5.18285L15.41 4.14285V8.17285Z" fill="currentColor"/>
</svg>