<svg width="26" height="26" viewBox="0 0 26 26" fill="none" xmlns="http://www.w3.org/2000/svg">
<g opacity="0.5" class="cartOpacity">
<path d="M6.65906 7.8333C6.78521 6.57572 7.25755 5.37915 8.0224 4.37956C8.78725 3.37997 9.81395 2.61743 10.9858 2.17859C12.1577 1.73975 13.4278 1.64221 14.6517 1.89706C15.8756 2.1519 17.0044 2.7489 17.9097 3.62024C18.8149 4.49157 19.4604 5.60228 19.7728 6.82618H20.8249C21.9322 6.82618 22.9942 7.27112 23.7771 8.06313C24.5601 8.85514 25 9.92934 25 11.0494C25 12.1695 24.5601 13.2437 23.7771 14.0357C22.9942 14.8277 21.9322 15.2726 20.8249 15.2726H17.9097" stroke="url(#paint0_linear_7432_6641)" stroke-width="1.25516" stroke-linecap="round" stroke-linejoin="round"/>
<path d="M6.58591 24.2419C6.98069 24.2419 7.30073 23.9219 7.30073 23.5271C7.30073 23.1323 6.98069 22.8123 6.58591 22.8123C6.19113 22.8123 5.87109 23.1323 5.87109 23.5271C5.87109 23.9219 6.19113 24.2419 6.58591 24.2419Z" stroke="white" stroke-width="1.42963" stroke-linecap="round" stroke-linejoin="round"/>
<path d="M16.5935 24.2419C16.9883 24.2419 17.3083 23.9219 17.3083 23.5271C17.3083 23.1323 16.9883 22.8123 16.5935 22.8123C16.1987 22.8123 15.8787 23.1323 15.8787 23.5271C15.8787 23.9219 16.1987 24.2419 16.5935 24.2419Z" stroke="white" stroke-width="1.42963" stroke-linecap="round" stroke-linejoin="round"/>
<path d="M0.867188 8.51562H3.72646L5.87091 20.6675H17.308" stroke="white" stroke-width="1.42963" stroke-linecap="round" stroke-linejoin="round"/>
<path d="M5.87055 17.8086H17.0146C17.0972 17.8086 17.1773 17.78 17.2413 17.7277C17.3052 17.6753 17.349 17.6024 17.3653 17.5213L18.6519 11.088C18.6623 11.0361 18.6611 10.9825 18.6482 10.9312C18.6354 10.8799 18.6114 10.832 18.5778 10.7911C18.5443 10.7502 18.502 10.7173 18.4542 10.6947C18.4064 10.6721 18.3541 10.6604 18.3012 10.6604H4.44092L5.87055 17.8086Z" fill="white" stroke="white" stroke-width="1.42963" stroke-linecap="round" stroke-linejoin="round"/>
</g>
<defs>
<linearGradient id="paint0_linear_7432_6641" x1="7.14171" y1="2.72361" x2="26.4479" y2="13.342" gradientUnits="userSpaceOnUse">
<stop stop-color="white"/>
<stop offset="0.376484" stop-color="#D3DEFF"/>
<stop offset="1" stop-color="#537FFD"/>
</linearGradient>
</defs>
</svg>
