<svg width="20" height="28" viewBox="0 0 20 28" fill="none" xmlns="http://www.w3.org/2000/svg">
<path fill-rule="evenodd" clip-rule="evenodd" d="M10.79 11.67C10.86 11.74 10.9 11.83 10.9 11.94C10.9 11.97 10.9 12 10.88 12.03C10.85 12.21 10.69 12.34 10.5 12.34H8.56V11.54H10.5C10.61 11.54 10.72 11.59 10.79 11.67Z" fill="currentColor"/>
<path fill-rule="evenodd" clip-rule="evenodd" d="M14.98 8.18L14.94 8.15L14.9 8.12V7.82C14.92 7.87 14.93 7.91 14.94 7.96C14.96 8.04 14.97 8.1 14.98 8.18Z" fill="currentColor"/>
<path fill-rule="evenodd" clip-rule="evenodd" d="M14.98 8.18L14.94 8.15L14.9 8.12V7.82C14.92 7.87 14.93 7.91 14.94 7.96C14.96 8.04 14.97 8.1 14.98 8.18Z" fill="currentColor"/>
<path fill-rule="evenodd" clip-rule="evenodd" d="M4.1 14.94C4.1 14.72 4.28 14.54 4.5 14.54H10.5C10.72 14.54 10.9 14.72 10.9 14.94C10.9 15.16 10.72 15.34 10.5 15.34H4.5C4.28 15.34 4.1 15.16 4.1 14.94Z" fill="currentColor"/>
<path d="M13 14.94C13 14.66 12.78 14.44 12.5 14.44C12.22 14.44 12 14.66 12 14.94C12 15.22 12.22 15.44 12.5 15.44C12.78 15.44 13 15.22 13 14.94Z" fill="currentColor"/>
<path fill-rule="evenodd" clip-rule="evenodd" d="M10.9 11.94C10.9 11.94 10.9 12 10.88 12.03C10.85 12.21 10.69 12.34 10.5 12.34H4.5C4.28 12.34 4.1 12.16 4.1 11.94C4.1 11.72 4.28 11.54 4.5 11.54H10.5C10.61 11.54 10.72 11.59 10.79 11.67C10.86 11.74 10.9 11.83 10.9 11.94Z" fill="currentColor"/>
<path fill-rule="evenodd" clip-rule="evenodd" d="M4.1 17.94C4.1 17.72 4.28 17.54 4.5 17.54H10.5C10.72 17.54 10.9 17.72 10.9 17.94C10.9 18.16 10.72 18.34 10.5 18.34H4.5C4.28 18.34 4.1 18.16 4.1 17.94Z" fill="currentColor"/>
<path d="M13 17.94C13 17.66 12.78 17.44 12.5 17.44C12.22 17.44 12 17.66 12 17.94C12 18.22 12.22 18.44 12.5 18.44C12.78 18.44 13 18.22 13 17.94Z" fill="currentColor"/>
<path fill-rule="evenodd" clip-rule="evenodd" d="M4.1 20.94C4.1 20.72 4.28 20.54 4.5 20.54H10.5C10.72 20.54 10.9 20.72 10.9 20.94C10.9 21.16 10.72 21.34 10.5 21.34H4.5C4.28 21.34 4.1 21.16 4.1 20.94Z" fill="currentColor"/>
<path d="M13 20.94C13 20.66 12.78 20.44 12.5 20.44C12.22 20.44 12 20.66 12 20.94C12 21.22 12.22 21.44 12.5 21.44C12.78 21.44 13 21.22 13 20.94Z" fill="currentColor"/>
<path fill-rule="evenodd" clip-rule="evenodd" d="M14.94 7.97C14.93 7.91 14.92 7.87 14.9 7.82V8.12L14.94 8.15L14.98 8.18C14.97 8.1 14.96 8.04 14.94 7.97ZM14.15 14.06V22.44C14.15 23.08 13.64 23.59 13 23.59H4C3.37 23.59 2.85 23.08 2.85 22.44V8.44C2.85 7.81 3.37 7.29 4 7.29H8.56V6.44H4C2.9 6.44 2 7.34 2 8.44V22.44C2 23.55 2.9 24.44 4 24.44H13C14.11 24.44 15 23.55 15 22.44V14.06H14.15Z" fill="currentColor"/>
<path fill-rule="evenodd" clip-rule="evenodd" d="M18.2 4.41C17.3 3.5 16.07 3 14.79 3C13.51 3 12.29 3.5 11.39 4.41C10.94 4.85 10.59 5.38 10.35 5.96C10.29 6.12 10.23 6.27 10.18 6.44C10.12 6.65 10.07 6.87 10.05 7.1C10.04 7.16 10.03 7.22 10.02 7.29C9.99 7.46 9.98 7.64 9.98 7.82C9.98 9.09 10.48 10.32 11.39 11.22C11.59 11.42 11.81 11.6 12.04 11.76C12.31 11.95 12.59 12.11 12.89 12.24C13.22 12.39 13.57 12.49 13.92 12.56C14 12.56 14.07 12.58 14.15 12.59C14.36 12.62 14.58 12.64 14.79 12.64C14.86 12.64 14.93 12.64 15 12.63C15.02 12.63 15.05 12.63 15.07 12.63C16.26 12.57 17.37 12.07 18.2 11.23C19.11 10.33 19.61 9.1 19.61 7.83C19.61 6.56 19.11 5.32 18.2 4.42V4.41ZM17.54 10.56C16.88 11.22 16 11.61 15.07 11.68C14.98 11.69 14.88 11.69 14.79 11.69C14.49 11.69 14.21 11.67 13.92 11.59C13.22 11.44 12.56 11.09 12.05 10.56C11.33 9.83 10.91 8.85 10.91 7.82C10.91 7.58 10.94 7.33 10.98 7.1C11.06 6.7 11.2 6.32 11.39 5.96C11.56 5.63 11.79 5.34 12.05 5.08C12.78 4.35 13.76 3.93 14.79 3.93C15.82 3.93 16.81 4.35 17.54 5.08C18.26 5.8 18.68 6.78 18.68 7.82C18.68 8.86 18.26 9.83 17.54 10.56Z" fill="currentColor"/>
<path fill-rule="evenodd" clip-rule="evenodd" d="M16.41 9.99C16.26 10.2 15.98 10.22 15.77 10.06L15.07 9.51L14.19 8.81C14.09 8.71 14.03 8.59 14.03 8.45V5.28C14.03 5.04 14.23 4.84 14.48 4.84C14.73 4.84 14.94 5.04 14.94 5.28V7.96C14.94 7.96 14.92 7.87 14.9 7.82V8.12L14.94 8.15V8.22L15.04 8.31L16.34 9.36C16.54 9.52 16.57 9.8 16.41 9.99Z" fill="currentColor"/>
<path fill-rule="evenodd" clip-rule="evenodd" d="M14.94 7.96V8.15L14.9 8.12V7.82C14.92 7.87 14.93 7.91 14.94 7.96Z" fill="currentColor"/>
</svg>
