<svg width="32" height="32" viewBox="0 0 32 32" fill="none" xmlns="http://www.w3.org/2000/svg">
<path d="M31 16.0001C31 24.2844 24.2843 31 16 31C7.71566 31 1 24.2844 1 16.0001C1 7.71569 7.71566 1 16 1C24.2843 1 31 7.71569 31 16.0001ZM24.5702 11.3411C24.5702 11.1424 24.5667 10.942 24.5615 10.738C24.5615 10.6666 24.558 10.5968 24.5562 10.5254C24.5493 10.2709 24.5388 10.0147 24.5249 9.75322L24.4987 9.25474H24.4935C24.0856 9.28786 23.6708 9.30702 23.2542 9.30702C20.6119 9.30702 18.1351 8.60111 16 7.36883C13.8649 8.60111 11.3881 9.30702 8.74576 9.30702C8.32745 9.30702 7.91436 9.28786 7.5065 9.25301H7.50127L7.47515 9.75322C7.46119 10.0129 7.45246 10.2692 7.44376 10.5236C7.44203 10.5951 7.44027 10.6666 7.43853 10.7363C7.4333 10.9385 7.43157 11.1389 7.4298 11.3394C7.4298 11.3951 7.4298 11.4509 7.4298 11.5049C7.4298 11.7263 7.4298 11.9441 7.4368 12.1603V12.169C7.49257 14.705 7.87254 16.9221 8.58365 18.8568V18.8707C8.61853 18.9579 8.65338 19.0433 8.6865 19.1304C8.71961 19.2141 8.75099 19.2995 8.78411 19.3814C8.83292 19.5 8.88346 19.615 8.934 19.73C8.96712 19.805 8.9985 19.8834 9.03335 19.9566C9.09086 20.0839 9.15362 20.2076 9.21463 20.3314C9.24424 20.3924 9.27386 20.4551 9.30525 20.5161C9.39937 20.6991 9.49698 20.8804 9.59806 21.0582C10.9558 23.4461 12.9533 25.2779 15.7019 26.6706L16.0035 26.81L16.305 26.6706C19.0537 25.2762 21.0511 23.4443 22.4089 21.0582C22.51 20.8804 22.6076 20.7009 22.7017 20.5161C22.7331 20.4551 22.761 20.3924 22.7924 20.3314C22.8534 20.2076 22.9144 20.0839 22.9736 19.9566C23.0085 19.8817 23.0399 19.805 23.073 19.7283C23.1235 19.6133 23.1741 19.4982 23.2229 19.3797C23.256 19.2978 23.2891 19.2124 23.3205 19.1287C23.3536 19.0416 23.3902 18.9579 23.4216 18.869V18.855C24.1344 16.9186 24.5126 14.7033 24.5685 12.1673V12.1585C24.5754 11.9424 24.5754 11.7245 24.5754 11.5032C24.5754 11.4491 24.5754 11.3934 24.5754 11.3376L24.5702 11.3411Z" stroke="url(#paint0_linear_4404_65827)" stroke-width="0.318103" stroke-linejoin="round"/>
<path d="M15.0375 13.9394C15.0375 14.3037 14.7412 14.6 14.377 14.6C14.0127 14.6 13.7164 14.3037 13.7164 13.9394C13.7164 13.5752 14.0127 13.2789 14.377 13.2789C14.7412 13.2789 15.0375 13.5752 15.0375 13.9394ZM14.377 17.7757C14.0127 17.7757 13.7164 18.0721 13.7164 18.4363C13.7164 18.8006 14.0127 19.0969 14.377 19.0969C14.7412 19.0969 15.0375 18.8006 15.0375 18.4363C15.0375 18.0721 14.7412 17.7757 14.377 17.7757ZM12.1477 13.2789C11.7834 13.2789 11.4871 13.5752 11.4871 13.9394C11.4871 14.3037 11.7834 14.6 12.1477 14.6C12.512 14.6 12.8083 14.3037 12.8083 13.9394C12.8083 13.5752 12.512 13.2789 12.1477 13.2789ZM23.6304 11.508C23.6304 11.6997 23.6304 11.8897 23.6252 12.078L23.6217 12.1512C23.5694 14.5983 23.2138 16.6864 22.5341 18.5357L22.5044 18.6159V18.6246C22.494 18.6472 22.4364 18.7919 22.4364 18.7919L22.4068 18.8686C22.3859 18.9209 22.3667 18.9749 22.3441 19.0272C22.3022 19.1283 22.2587 19.2259 22.2168 19.3253L22.168 19.4386C22.1488 19.4821 22.1314 19.5257 22.1123 19.5675C22.06 19.6826 22.0042 19.7941 21.9484 19.9074L21.9031 20.0015C21.8891 20.0312 21.8752 20.0608 21.8595 20.0904C21.7689 20.2665 21.6783 20.4355 21.5876 20.5959C20.3484 22.7763 18.52 24.4705 16.0014 25.7708C13.4828 24.4688 11.6544 22.7763 10.4152 20.5959C10.3228 20.4355 10.2322 20.2647 10.1415 20.0904C10.1259 20.0608 10.1119 20.0329 10.098 20.0033L10.0561 19.9179C9.99689 19.7976 9.93935 19.6843 9.88708 19.5675C9.86789 19.5257 9.84873 19.4821 9.8313 19.4386L9.78423 19.3322C9.74065 19.2311 9.69534 19.1301 9.6535 19.0272C9.63261 18.9749 9.61168 18.9226 9.59076 18.8686C9.59076 18.8686 9.50361 18.6472 9.49491 18.6246V18.6159L9.46353 18.5357C8.78551 16.6864 8.42995 14.5983 8.37592 12.1512V12.0797L8.37242 12.071C8.36895 11.8845 8.36719 11.6962 8.36719 11.5063V11.3459C8.36895 11.1525 8.37242 10.9572 8.37765 10.7603L8.38288 10.5529C8.38638 10.45 8.38984 10.3489 8.39334 10.2444C8.51011 10.2478 8.62689 10.2478 8.74193 10.2478C11.2762 10.2478 13.7739 9.6256 15.9979 8.44386C18.222 9.6256 20.7196 10.2478 23.2539 10.2478C23.3689 10.2478 23.4857 10.2478 23.6025 10.2444C23.606 10.3472 23.6095 10.45 23.6129 10.5529L23.6182 10.7603C23.6234 10.9572 23.6252 11.1525 23.6269 11.3459V11.508H23.6304ZM17.9134 13.9377C17.9134 14.4484 18.3265 14.8632 18.839 14.8632C19.3514 14.8632 19.7645 14.4484 19.7645 13.9377C19.7645 13.427 19.3496 13.0122 18.839 13.0122C18.3283 13.0122 17.9134 13.427 17.9134 13.9377ZM13.0749 13.9377C13.0749 13.427 12.6601 13.0122 12.1495 13.0122C11.6387 13.0122 11.2239 13.427 11.2239 13.9377C11.2239 14.4484 11.6387 14.8632 12.1495 14.8632C12.6601 14.8632 13.0749 14.4484 13.0749 13.9377ZM15.3042 18.4346C15.3042 17.9239 14.8894 17.5091 14.3787 17.5091C13.868 17.5091 13.4532 17.9239 13.4532 18.4346C13.4532 18.9453 13.868 19.3601 14.3787 19.3601C14.8894 19.3601 15.3042 18.9453 15.3042 18.4346ZM15.3042 13.9377C15.3042 13.427 14.8894 13.0122 14.3787 13.0122C13.868 13.0122 13.4532 13.427 13.4532 13.9377C13.4532 14.4484 13.868 14.8632 14.3787 14.8632C14.8894 14.8632 15.3042 14.4484 15.3042 13.9377ZM17.5335 18.4346C17.5335 17.9239 17.1186 17.5091 16.6079 17.5091C16.0973 17.5091 15.6824 17.9222 15.6824 18.4346C15.6824 18.947 16.0973 19.3601 16.6079 19.3601C17.1186 19.3601 17.5335 18.947 17.5335 18.4346ZM17.5335 16.1861C17.5335 15.6755 17.1186 15.2606 16.6079 15.2606C16.0973 15.2606 15.6824 15.6755 15.6824 16.1861C15.6824 16.6969 16.0973 17.1117 16.6079 17.1117C17.1186 17.1117 17.5335 16.6986 17.5335 16.1861ZM17.5335 13.9377C17.5335 13.427 17.1186 13.0122 16.6079 13.0122C16.0973 13.0122 15.6824 13.427 15.6824 13.9377C15.6824 14.4484 16.0973 14.8632 16.6079 14.8632C17.1186 14.8632 17.5335 14.4484 17.5335 13.9377ZM19.7627 16.1861C19.7627 15.6755 19.3479 15.2606 18.8372 15.2606C18.3265 15.2606 17.9117 15.6755 17.9117 16.1861C17.9117 16.6969 18.3265 17.1117 18.8372 17.1117C19.3479 17.1117 19.7627 16.6969 19.7627 16.1861ZM18.8372 15.5256C18.4729 15.5256 18.1766 15.8219 18.1766 16.1861C18.1766 16.5504 18.4729 16.8467 18.8372 16.8467C19.2015 16.8467 19.4978 16.5504 19.4978 16.1861C19.4978 15.8219 19.2015 15.5256 18.8372 15.5256Z" fill="url(#paint1_linear_4404_65827)"/>
<path d="M29.8987 16.0003C29.9081 23.772 23.6926 30.0722 16.0159 30.0722C8.33923 30.0722 2.10845 23.772 2.09905 16.0003C2.08965 8.22858 8.30519 1.92838 15.9819 1.92838C23.6585 1.92838 29.8893 8.22858 29.8987 16.0003Z" stroke="url(#paint2_linear_4404_65827)" stroke-width="0.318104" stroke-linecap="round" stroke-linejoin="round"/>
<defs>
<linearGradient id="paint0_linear_4404_65827" x1="3.78303" y1="22.6868" x2="25.1588" y2="-1.55897" gradientUnits="userSpaceOnUse">
<stop stop-color="#E62F45"/>
<stop offset="0.28" stop-color="#BC5B76"/>
<stop offset="0.56" stop-color="#818AB8"/>
<stop offset="0.78" stop-color="#599FBC"/>
<stop offset="0.9" stop-color="#4BAECC"/>
<stop offset="1" stop-color="#43B3D6"/>
</linearGradient>
<linearGradient id="paint1_linear_4404_65827" x1="9.78312" y1="20.9694" x2="22.2271" y2="8.53576" gradientUnits="userSpaceOnUse">
<stop stop-color="#E62F45"/>
<stop offset="0.28" stop-color="#BC5B76"/>
<stop offset="0.56" stop-color="#818AB8"/>
<stop offset="0.78" stop-color="#599FBC"/>
<stop offset="0.9" stop-color="#4BAECC"/>
<stop offset="1" stop-color="#43B3D6"/>
</linearGradient>
<linearGradient id="paint2_linear_4404_65827" x1="4.68555" y1="22.2734" x2="24.7441" y2="-0.224355" gradientUnits="userSpaceOnUse">
<stop stop-color="#E62F45"/>
<stop offset="0.28" stop-color="#BC5B76"/>
<stop offset="0.56" stop-color="#818AB8"/>
<stop offset="0.78" stop-color="#599FBC"/>
<stop offset="0.9" stop-color="#4BAECC"/>
<stop offset="1" stop-color="#43B3D6"/>
</linearGradient>
</defs>
</svg>
