<svg width="24" height="24" viewBox="0 0 24 24" fill="none" xmlns="http://www.w3.org/2000/svg">
    <path
        d="M20.21 4.57676C19.9828 4.39834 19.7179 4.27408 19.4355 4.21343C19.153 4.15278 18.8604 4.15734 18.58 4.22676L15.05 5.11676C14.9048 5.14639 14.7552 5.14639 14.61 5.11676L9.63002 3.87676C9.32735 3.80671 9.01269 3.80671 8.71002 3.87676L4.50002 4.93676C4.08848 5.03764 3.72278 5.2739 3.46163 5.60758C3.20048 5.94127 3.05904 6.35303 3.06002 6.77676V17.9268C3.05729 18.2162 3.12181 18.5024 3.24849 18.7627C3.37516 19.023 3.56054 19.2503 3.79002 19.4268C4.01723 19.6052 4.28213 19.7294 4.56458 19.7901C4.84703 19.8507 5.13959 19.8462 5.42002 19.7768L8.95002 18.8868C9.09519 18.8571 9.24485 18.8571 9.39002 18.8868L14.37 20.1268C14.5213 20.1588 14.6754 20.1756 14.83 20.1768C14.9846 20.1749 15.1387 20.1582 15.29 20.1268L19.5 19.0668C19.9116 18.9659 20.2773 18.7296 20.5384 18.3959C20.7996 18.0622 20.941 17.6505 20.94 17.2268V6.07676C20.9427 5.78729 20.8782 5.50114 20.7516 5.24085C20.6249 4.98055 20.4395 4.75322 20.21 4.57676ZM8.67002 17.9268L5.18002 18.7968C5.04733 18.8323 4.90823 18.8366 4.7736 18.8094C4.63897 18.7821 4.51246 18.7241 4.40399 18.6399C4.29551 18.5556 4.20802 18.4474 4.14834 18.3237C4.08867 18.2 4.05844 18.0641 4.06002 17.9268V6.77676C4.06062 6.57681 4.12778 6.38276 4.25092 6.22522C4.37405 6.06768 4.54614 5.95563 4.74002 5.90676L8.67002 4.91676V17.9268ZM14.33 19.0868L9.67002 17.9268V4.91676L14.33 6.07676V19.0868ZM19.94 17.2268C19.9394 17.4267 19.8723 17.6208 19.7491 17.7783C19.626 17.9358 19.4539 18.0479 19.26 18.0968L15.33 19.0868V6.07676L18.82 5.20676C18.9536 5.17181 19.0934 5.16806 19.2287 5.19581C19.3639 5.22355 19.491 5.28204 19.6 5.36676C19.7073 5.45111 19.7938 5.55901 19.8528 5.68212C19.9117 5.80524 19.9416 5.94026 19.94 6.07676V17.2268Z"
        fill="currentColor" />
</svg>