<svg width="30" height="30" viewBox="0 0 30 30" fill="none" xmlns="http://www.w3.org/2000/svg">
<path d="M29.7113 14.9998C29.7113 23.1246 23.125 29.7108 15.0002 29.7108C6.87539 29.7108 0.289062 23.1246 0.289062 14.9998C0.289062 6.87499 6.87539 0.288666 15.0002 0.288666C23.125 0.288666 29.7113 6.87499 29.7113 14.9998ZM23.4053 10.4306C23.4053 10.2357 23.4019 10.0391 23.3968 9.83911C23.3968 9.76902 23.3934 9.70064 23.3917 9.63055C23.3848 9.38098 23.3746 9.12971 23.3609 8.87328L23.3353 8.3844H23.3301C22.9301 8.41688 22.5233 8.43567 22.1147 8.43567C19.5233 8.43567 17.0942 7.74336 15.0002 6.53482C12.9062 7.74336 10.4771 8.43567 7.88566 8.43567C7.4754 8.43567 7.07027 8.41688 6.67026 8.3827H6.66513L6.63951 8.87328C6.62582 9.12798 6.61726 9.37928 6.60873 9.62885C6.60703 9.69894 6.6053 9.76902 6.6036 9.83738C6.59847 10.0357 6.59677 10.2323 6.59504 10.4289C6.59504 10.4836 6.59504 10.5383 6.59504 10.5912C6.59504 10.8083 6.59504 11.022 6.6019 11.234V11.2425C6.6566 13.7297 7.02926 15.9041 7.72667 17.8015V17.8152C7.76088 17.9006 7.79506 17.9844 7.82753 18.0699C7.86001 18.1519 7.89079 18.2357 7.92327 18.316C7.97114 18.4323 8.02071 18.5451 8.07027 18.6579C8.10275 18.7314 8.13353 18.8083 8.16771 18.8801C8.22411 19.0049 8.28567 19.1263 8.34549 19.2477C8.37454 19.3075 8.40359 19.369 8.43437 19.4288C8.52668 19.6083 8.62241 19.7861 8.72155 19.9605C10.0532 22.3024 12.0122 24.0989 14.7079 25.4647L15.0036 25.6015L15.2993 25.4647C17.9951 24.0972 19.954 22.3007 21.2857 19.9605C21.3848 19.7861 21.4805 19.6101 21.5728 19.4288C21.6036 19.369 21.631 19.3075 21.6618 19.2477C21.7216 19.1263 21.7814 19.0049 21.8395 18.8801C21.8737 18.8066 21.9045 18.7314 21.937 18.6562C21.9865 18.5434 22.0361 18.4306 22.084 18.3143C22.1165 18.234 22.1489 18.1502 22.1797 18.0682C22.2122 17.9827 22.2481 17.9006 22.2788 17.8135V17.7998C22.978 15.9006 23.3489 13.728 23.4036 11.2408V11.2323C23.4105 11.0203 23.4105 10.8066 23.4105 10.5895C23.4105 10.5365 23.4105 10.4818 23.4105 10.4271L23.4053 10.4306Z" stroke="url(#paint0_linear_4404_65824)" stroke-width="0.34204" stroke-linejoin="round"/>
<path d="M14.0575 12.9776C14.0575 13.3349 13.7669 13.6255 13.4097 13.6255C13.0524 13.6255 12.7618 13.3349 12.7618 12.9776C12.7618 12.6204 13.0524 12.3298 13.4097 12.3298C13.7669 12.3298 14.0575 12.6204 14.0575 12.9776ZM13.4097 16.74C13.0524 16.74 12.7618 17.0306 12.7618 17.3879C12.7618 17.7452 13.0524 18.0358 13.4097 18.0358C13.7669 18.0358 14.0575 17.7452 14.0575 17.3879C14.0575 17.0306 13.7669 16.74 13.4097 16.74ZM11.2233 12.3298C10.8661 12.3298 10.5755 12.6204 10.5755 12.9776C10.5755 13.3349 10.8661 13.6255 11.2233 13.6255C11.5806 13.6255 11.8712 13.3349 11.8712 12.9776C11.8712 12.6204 11.5806 12.3298 11.2233 12.3298ZM22.4849 10.593C22.4849 10.7811 22.4849 10.9674 22.4798 11.152L22.4763 11.2238C22.4251 13.6238 22.0763 15.6717 21.4097 17.4853L21.3806 17.564V17.5725C21.3704 17.5947 21.3139 17.7366 21.3139 17.7366L21.2849 17.8118C21.2644 17.8631 21.2456 17.9161 21.2234 17.9674C21.1823 18.0666 21.1396 18.1623 21.0986 18.2597L21.0507 18.3708C21.0319 18.4136 21.0148 18.4563 20.996 18.4973C20.9447 18.6101 20.89 18.7195 20.8353 18.8306L20.7909 18.923C20.7772 18.952 20.7635 18.9811 20.7481 19.0101C20.6592 19.1828 20.5704 19.3486 20.4815 19.5058C19.2661 21.6443 17.4729 23.3058 15.0028 24.5811C12.5327 23.3041 10.7396 21.6443 9.52417 19.5058C9.4336 19.3486 9.34469 19.1811 9.25581 19.0101C9.24042 18.9811 9.22673 18.9537 9.21308 18.9247L9.17204 18.8409C9.11394 18.723 9.05751 18.6118 9.00624 18.4973C8.98742 18.4563 8.96864 18.4136 8.95155 18.3708L8.90538 18.2665C8.86264 18.1674 8.8182 18.0682 8.77716 17.9674C8.75667 17.9161 8.73616 17.8648 8.71564 17.8118C8.71564 17.8118 8.63016 17.5947 8.62163 17.5725V17.564L8.59085 17.4853C7.92589 15.6717 7.57718 13.6238 7.52418 11.2238V11.1537L7.52075 11.1452C7.51735 10.9623 7.51562 10.7776 7.51562 10.5913V10.4341C7.51736 10.2443 7.52075 10.0529 7.52588 9.85968L7.53101 9.65628C7.53444 9.55541 7.53784 9.45628 7.54127 9.35371C7.6558 9.35714 7.77032 9.35714 7.88315 9.35714C10.3686 9.35714 12.8182 8.74688 14.9994 7.58791C17.1806 8.74688 19.6302 9.35714 22.1156 9.35714C22.2285 9.35714 22.343 9.35714 22.4575 9.35371C22.4609 9.45458 22.4644 9.55541 22.4678 9.65628L22.4729 9.85968C22.478 10.0529 22.4798 10.2443 22.4815 10.4341V10.593H22.4849ZM16.878 12.9759C16.878 13.4768 17.2832 13.8836 17.7857 13.8836C18.2883 13.8836 18.6934 13.4768 18.6934 12.9759C18.6934 12.4751 18.2866 12.0682 17.7857 12.0682C17.2849 12.0682 16.878 12.4751 16.878 12.9759ZM12.1327 12.9759C12.1327 12.4751 11.7259 12.0682 11.2251 12.0682C10.7242 12.0682 10.3174 12.4751 10.3174 12.9759C10.3174 13.4768 10.7242 13.8836 11.2251 13.8836C11.7259 13.8836 12.1327 13.4768 12.1327 12.9759ZM14.3191 17.3862C14.3191 16.8853 13.9122 16.4785 13.4114 16.4785C12.9105 16.4785 12.5037 16.8853 12.5037 17.3862C12.5037 17.887 12.9105 18.2939 13.4114 18.2939C13.9122 18.2939 14.3191 17.887 14.3191 17.3862ZM14.3191 12.9759C14.3191 12.4751 13.9122 12.0682 13.4114 12.0682C12.9105 12.0682 12.5037 12.4751 12.5037 12.9759C12.5037 13.4768 12.9105 13.8836 13.4114 13.8836C13.9122 13.8836 14.3191 13.4768 14.3191 12.9759ZM16.5054 17.3862C16.5054 16.8853 16.0986 16.4785 15.5977 16.4785C15.0968 16.4785 14.69 16.8836 14.69 17.3862C14.69 17.8888 15.0968 18.2939 15.5977 18.2939C16.0986 18.2939 16.5054 17.8888 16.5054 17.3862ZM16.5054 15.1811C16.5054 14.6802 16.0986 14.2734 15.5977 14.2734C15.0968 14.2734 14.69 14.6802 14.69 15.1811C14.69 15.6819 15.0968 16.0888 15.5977 16.0888C16.0986 16.0888 16.5054 15.6836 16.5054 15.1811ZM16.5054 12.9759C16.5054 12.4751 16.0986 12.0682 15.5977 12.0682C15.0968 12.0682 14.69 12.4751 14.69 12.9759C14.69 13.4768 15.0968 13.8836 15.5977 13.8836C16.0986 13.8836 16.5054 13.4768 16.5054 12.9759ZM18.6917 15.1811C18.6917 14.6802 18.2849 14.2734 17.784 14.2734C17.2832 14.2734 16.8763 14.6802 16.8763 15.1811C16.8763 15.6819 17.2832 16.0888 17.784 16.0888C18.2849 16.0888 18.6917 15.6819 18.6917 15.1811ZM17.784 14.5332C17.4268 14.5332 17.1362 14.8238 17.1362 15.1811C17.1362 15.5383 17.4268 15.8289 17.784 15.8289C18.1413 15.8289 18.4319 15.5383 18.4319 15.1811C18.4319 14.8238 18.1413 14.5332 17.784 14.5332Z" fill="url(#paint1_linear_4404_65824)"/>
<path d="M16.3504 1.35038C23.8889 2.09617 29.3954 8.81191 28.6496 16.3504C27.9038 23.8889 21.1881 29.3954 13.6496 28.6496C6.11114 27.9038 0.604587 21.1881 1.35039 13.6496C2.09618 6.11114 8.81191 0.604581 16.3504 1.35038Z" stroke="url(#paint2_linear_4404_65824)" stroke-width="0.342042" stroke-linecap="round" stroke-linejoin="round"/>
<defs>
<linearGradient id="paint0_linear_4404_65824" x1="4.41557" y1="25.5844" x2="25.5848" y2="4.41516" gradientUnits="userSpaceOnUse">
<stop stop-color="#C6192E"/>
<stop offset="0.15" stop-color="#C6192E"/>
<stop offset="0.17" stop-color="#C01D32"/>
<stop offset="0.52" stop-color="#755268"/>
<stop offset="0.77" stop-color="#467389"/>
<stop offset="0.89" stop-color="#348097"/>
<stop offset="1" stop-color="#348097"/>
</linearGradient>
<linearGradient id="paint1_linear_4404_65824" x1="3.837" y1="24.9076" x2="20.3396" y2="8.40499" gradientUnits="userSpaceOnUse">
<stop stop-color="#C6192E"/>
<stop offset="0.15" stop-color="#C6192E"/>
<stop offset="0.17" stop-color="#C01D32"/>
<stop offset="0.52" stop-color="#755268"/>
<stop offset="0.77" stop-color="#467389"/>
<stop offset="0.89" stop-color="#348097"/>
<stop offset="1" stop-color="#348097"/>
</linearGradient>
<linearGradient id="paint2_linear_4404_65824" x1="5.11878" y1="24.8816" x2="24.8795" y2="5.1209" gradientUnits="userSpaceOnUse">
<stop stop-color="#C6192E"/>
<stop offset="0.15" stop-color="#C6192E"/>
<stop offset="0.17" stop-color="#C01D32"/>
<stop offset="0.52" stop-color="#755268"/>
<stop offset="0.77" stop-color="#467389"/>
<stop offset="0.89" stop-color="#348097"/>
<stop offset="1" stop-color="#348097"/>
</linearGradient>
</defs>
</svg>
