<svg xmlns="http://www.w3.org/2000/svg" width="14" height="14" viewBox="0 0 14 14" fill="none">
<path d="M7 3.75V7L9.16667 8.08333" stroke="currentColor" stroke-width="1.035" stroke-linecap="round" stroke-linejoin="round"/>
<path d="M9.16711 11.9619C8.1935 12.3872 7.11631 12.5168 6.0696 12.3346C5.02289 12.1524 4.05289 11.6663 3.28032 10.937C2.50774 10.2076 1.96672 9.26719 1.72458 8.2327C1.48244 7.19821 1.54988 6.11534 1.9185 5.11888C2.28712 4.12243 2.94065 3.25638 3.79774 2.62852C4.65484 2.00067 5.67765 1.63874 6.73888 1.58778C7.80012 1.53682 8.8529 1.79908 9.76621 2.34191C10.6795 2.88475 11.413 3.68419 11.8754 4.64074M11.3338 6.72941V9.97941M11.3338 12.1461H11.3392" stroke="currentColor" stroke-width="1.035" stroke-linecap="round" stroke-linejoin="round"/>
</svg>