<svg width="20" height="20" viewBox="0 0 20 20" fill="currentColor" xmlns="http://www.w3.org/2000/svg">
<path fill-rule="evenodd" clip-rule="evenodd" d="M10 18.5C14.6944 18.5 18.5 14.6944 18.5 10C18.5 5.30558 14.6944 1.5 10 1.5C5.30558 1.5 1.5 5.30558 1.5 10C1.5 14.6944 5.30558 18.5 10 18.5ZM10 20C15.5228 20 20 15.5228 20 10C20 4.47715 15.5228 0 10 0C4.47715 0 0 4.47715 0 10C0 15.5228 4.47715 20 10 20ZM9.69995 4.5C9.69995 4.22386 9.92381 4 10.2 4H10.7C10.9761 4 11.2 4.22386 11.2 4.5V11C11.2 11.2761 10.9761 11.5 10.7 11.5H10.5H10.2H6.5C6.22386 11.5 6 11.2761 6 11V10.5C6 10.2239 6.22386 10 6.5 10H9.69995V4.5Z" fill="currentColor"/>
</svg>
