<svg width="186" height="175" viewBox="0 0 186 175" fill="none" xmlns="http://www.w3.org/2000/svg">
<path fill-rule="evenodd" clip-rule="evenodd" d="M96.1077 79.23C94.6214 73.3355 86.485 63.4358 48.4729 63.4358C30.5626 63.4358 17.5644 65.4006 9.83097 69.2799C1.29147 73.5622 0.611328 79.3559 0.611328 81.0688V114.572C0.651301 135.459 11.9313 154.708 30.1343 164.952L44.7699 173.189C47.0693 174.481 49.8764 174.481 52.1758 173.189L66.8114 164.952C85.0145 154.708 96.2944 135.459 96.3344 114.572V81.0688C96.3345 80.4489 96.2584 79.8313 96.1077 79.23ZM90.5136 114.311C90.5147 133.3 80.2754 150.814 63.7272 160.128L48.4545 168.803L33.1818 160.207C16.6335 150.893 6.39423 133.379 6.39534 114.39V79.4281C6.39534 79.4281 6.39534 68.9134 48.4545 68.9134C87.8849 68.9134 90.5136 79.4281 90.5136 79.4281V114.311Z" fill="#264769"/>
<path d="M40.4208 129.011L68.1992 101.233C68.8548 100.577 69.6196 100.249 70.4936 100.249C71.3677 100.249 72.1324 100.577 72.788 101.233C73.4435 101.888 73.7713 102.667 73.7713 103.57C73.7713 104.472 73.4435 105.25 72.788 105.903L42.7152 136.058C42.0597 136.714 41.2949 137.041 40.4208 137.041C39.5468 137.041 38.782 136.714 38.1265 136.058L24.0324 121.964C23.3769 121.309 23.0622 120.531 23.0884 119.63C23.1146 118.73 23.4566 117.951 24.1143 117.293C24.7721 116.636 25.5511 116.308 26.4513 116.31C27.3516 116.312 28.1295 116.64 28.785 117.293L40.4208 129.011Z" fill="#264769"/>
<path d="M47.1953 46.3997C48.1115 37.7968 51.5416 29.6113 57.096 22.7733C62.6504 15.9352 70.1063 10.7188 78.6165 7.7168C87.1268 4.71479 96.35 4.04754 105.238 5.79088C114.127 7.53421 122.324 11.6182 128.898 17.5789C135.472 23.5395 140.16 31.1377 142.428 39.5102H150.069C158.11 39.5102 165.822 42.554 171.508 47.972C177.194 53.39 180.388 60.7384 180.388 68.4006C180.388 76.0628 177.194 83.4112 171.508 88.8292C165.822 94.2472 158.11 97.291 150.069 97.291H120.691" stroke="url(#paint0_linear_2798_8089)" stroke-width="9.41887" stroke-linecap="round" stroke-linejoin="round"/>
<defs>
<linearGradient id="paint0_linear_2798_8089" x1="113.679" y1="4.84167" x2="113.679" y2="97.291" gradientUnits="userSpaceOnUse">
<stop stop-color="#718F9D"/>
<stop offset="1" stop-color="#7A9CFF" stop-opacity="0.58"/>
</linearGradient>
</defs>
</svg>
