<svg width="18" height="18" viewBox="0 0 18 18" fill="none" xmlns="http://www.w3.org/2000/svg">
<path id="cloud" d="M15.4486 5.5632C15.1832 4.26338 14.4748 3.09597 13.4445 2.26022C12.4142 1.42448 11.1258 0.972199 9.79915 0.980583C8.47252 0.988968 7.18991 1.45749 6.17024 2.3062C5.15057 3.1549 4.45704 4.33117 4.20802 5.63424C3.15063 5.82246 2.20213 6.40004 1.54959 7.25308C0.897041 8.10613 0.587812 9.17273 0.682883 10.2425C0.777954 11.3123 1.27042 12.3077 2.06317 13.0323C2.85592 13.7569 3.89141 14.1582 4.96542 14.157H5.25188V13.0111H4.96542C4.14761 13.0132 3.36106 12.6971 2.77221 12.1296C2.18336 11.5621 1.8384 10.7878 1.81034 9.97043C1.78227 9.1531 2.0733 8.35692 2.62185 7.75036C3.17039 7.14381 3.9334 6.77447 4.74943 6.72049L5.22896 6.68784L5.28052 6.2106C5.39657 5.14488 5.88282 4.15366 6.65457 3.40961C7.42633 2.66556 8.43466 2.21584 9.5039 2.13882C10.5731 2.06179 11.6355 2.36233 12.506 2.98808C13.3764 3.61383 13.9997 4.52513 14.2673 5.5632H15.4486Z" fill="currentColor"/>
<path id="starOne" d="M16.3787 6.54572C16.4754 6.41273 16.6882 6.47071 16.7041 6.63439L16.7933 7.7411C16.7971 7.77738 16.8117 7.81167 16.8354 7.83945C16.859 7.86722 16.8905 7.88718 16.9257 7.89667L17.8196 8.14024C17.9848 8.18524 18.0008 8.41047 17.8435 8.47578L17.0515 8.87478C17.017 8.88893 16.9879 8.91362 16.9684 8.94532C16.9488 8.97703 16.9398 9.01411 16.9426 9.05126L16.9066 10.0991C16.9201 10.2727 16.7 10.3586 16.5881 10.2236L15.8735 9.43988C15.8495 9.41103 15.8173 9.39025 15.7811 9.3804C15.745 9.37055 15.7066 9.37209 15.6714 9.38482L14.658 9.69766C14.4932 9.75733 14.3469 9.57138 14.4466 9.42882L14.9472 8.50754C14.9684 8.47696 14.9795 8.44043 14.9787 8.40318C14.9779 8.36594 14.9654 8.3299 14.9429 8.30023L14.4627 7.55457C14.3601 7.41845 14.4885 7.23258 14.6533 7.27749L15.5472 7.52106C15.5824 7.53076 15.6197 7.52957 15.6541 7.51762C15.6886 7.50567 15.7186 7.48355 15.7403 7.45416L16.3785 6.54567L16.3787 6.54572Z" fill="currentColor"/>
<path id="starTwo" d="M14.0213 11.5457C14.1179 11.4127 14.3307 11.4707 14.3467 11.6344L14.4359 12.7411C14.4397 12.7774 14.4543 12.8117 14.478 12.8394C14.5016 12.8672 14.5331 12.8872 14.5683 12.8967L15.4622 13.1402C15.6274 13.1852 15.6434 13.4105 15.4861 13.4758L14.6941 13.8748C14.6596 13.8889 14.6305 13.9136 14.6109 13.9453C14.5914 13.977 14.5824 14.0141 14.5852 14.0513L14.5492 15.0991C14.5627 15.2727 14.3426 15.3586 14.2306 15.2236L13.516 14.4399C13.4921 14.411 13.4599 14.3903 13.4237 14.3804C13.3875 14.3705 13.3492 14.3721 13.314 14.3848L12.3006 14.6977C12.1357 14.7573 11.9895 14.5714 12.0892 14.4288L12.5897 13.5075C12.611 13.477 12.6221 13.4404 12.6213 13.4032C12.6205 13.3659 12.608 13.3299 12.5854 13.3002L12.1053 12.5546C12.0027 12.4185 12.1311 12.2326 12.2959 12.2775L13.1898 12.5211C13.225 12.5308 13.2623 12.5296 13.2967 12.5176C13.3312 12.5057 13.3612 12.4835 13.3828 12.4542L14.0211 11.5457L14.0213 11.5457Z" fill="currentColor" fill-opacity="0.8"/>
<path id="starThree" d="M9.61507 13.7646C9.75339 13.6758 9.93064 13.807 9.88615 13.9654L9.56765 15.029C9.55798 15.0642 9.5592 15.1014 9.57114 15.1359C9.58309 15.1704 9.60521 15.2004 9.63458 15.222L10.3791 15.7733C10.5167 15.8752 10.4499 16.0909 10.2797 16.0947L9.39681 16.1791C9.35957 16.1797 9.32349 16.1922 9.29376 16.2146C9.26403 16.2371 9.24218 16.2684 9.23133 16.304L8.81755 17.2674C8.76714 17.434 8.53084 17.4343 8.47555 17.2678L8.09402 16.2782C8.0822 16.2426 8.0597 16.2115 8.02957 16.1892C7.99945 16.1669 7.96317 16.1545 7.9257 16.1535L6.86786 16.0773C6.69263 16.0731 6.62385 15.8468 6.76842 15.7501L7.56919 15.0732C7.60011 15.0525 7.62366 15.0224 7.63646 14.9875C7.64925 14.9525 7.65064 14.9143 7.64042 14.8785L7.46357 14.0094C7.41737 13.8454 7.60448 13.7188 7.74177 13.8204L8.48634 14.3718C8.51558 14.3936 8.55076 14.406 8.58721 14.4074C8.62366 14.4087 8.65967 14.399 8.69048 14.3795L9.61493 13.7645L9.61507 13.7646Z" fill="currentColor"/>
</svg>
