<svg width="185" height="175" viewBox="0 0 185 175" fill="none" xmlns="http://www.w3.org/2000/svg">
<path fill-rule="evenodd" clip-rule="evenodd" d="M95.4963 80.0716C94.0101 74.1772 85.8737 64.2775 47.8615 64.2775C29.9512 64.2775 16.9531 66.2423 9.21964 70.1216C0.680137 74.4039 0 80.1976 0 81.9105V115.413C0.0399727 136.301 11.3199 155.55 29.523 165.793L44.1586 174.031C46.458 175.323 49.265 175.323 51.5645 174.031L66.2001 165.793C84.4031 155.55 95.6831 136.301 95.7231 115.413V81.9105C95.7232 81.2906 95.647 80.673 95.4963 80.0716ZM89.9023 115.152C89.9034 134.142 79.6641 151.656 63.1159 160.97L47.8431 169.645L32.5704 161.049C16.0222 151.735 5.7829 134.221 5.78402 115.231V80.2698C5.78402 80.2698 5.78402 69.7551 47.8431 69.7551C87.2736 69.7551 89.9023 80.2698 89.9023 80.2698V115.152Z" fill="#D4D6DB"/>
<path d="M39.8095 129.853L67.5879 102.074C68.2434 101.419 69.0082 101.091 69.8823 101.091C70.7563 101.091 71.5211 101.419 72.1767 102.074C72.8322 102.73 73.16 103.509 73.16 104.411C73.16 105.314 72.8322 106.092 72.1767 106.745L42.1039 136.9C41.4483 137.555 40.6836 137.883 39.8095 137.883C38.9355 137.883 38.1707 137.555 37.5151 136.9L23.4211 122.806C22.7655 122.15 22.4509 121.372 22.4771 120.472C22.5033 119.572 22.8453 118.793 23.503 118.135C24.1607 117.477 24.9397 117.15 25.84 117.152C26.7403 117.154 27.5182 117.482 28.1737 118.135L39.8095 129.853Z" fill="#D4D6DB"/>
<path d="M46.584 47.2414C47.5001 38.6385 50.9303 30.453 56.4847 23.6149C62.0391 16.7769 69.495 11.5605 78.0052 8.55848C86.5154 5.55646 95.7387 4.88922 104.627 6.63255C113.515 8.37589 121.712 12.4599 128.286 18.4205C134.861 24.3812 139.548 31.9794 141.817 40.3518H149.457C157.499 40.3518 165.21 43.3956 170.896 48.8136C176.582 54.2316 179.777 61.58 179.777 69.2422C179.777 76.9045 176.582 84.2528 170.896 89.6708C165.21 95.0888 157.499 98.1326 149.457 98.1326H120.079" stroke="url(#paint0_linear_2798_8100)" stroke-width="9.41887" stroke-linecap="round" stroke-linejoin="round"/>
<defs>
<linearGradient id="paint0_linear_2798_8100" x1="113.067" y1="5.68335" x2="113.067" y2="98.1327" gradientUnits="userSpaceOnUse">
<stop stop-color="#718F9D"/>
<stop offset="1" stop-color="#7A9CFF" stop-opacity="0.58"/>
</linearGradient>
</defs>
</svg>
