<svg width="18" height="17" viewBox="0 0 18 17" fill="none" xmlns="http://www.w3.org/2000/svg">
<path d="M15.4486 5.5632C15.1832 4.26338 14.4748 3.09597 13.4445 2.26022C12.4142 1.42448 11.1258 0.972199 9.79915 0.980583C8.47252 0.988968 7.18991 1.45749 6.17024 2.3062C5.15057 3.1549 4.45704 4.33117 4.20802 5.63424C3.15063 5.82245 2.20213 6.40004 1.54959 7.25308C0.897041 8.10613 0.587812 9.17273 0.682883 10.2425C0.777954 11.3123 1.27042 12.3077 2.06317 13.0323C2.85592 13.7569 3.89141 14.1582 4.96542 14.157H5.25188V13.0111H4.96542C4.14761 13.0132 3.36106 12.6971 2.77221 12.1296C2.18336 11.5621 1.8384 10.7878 1.81034 9.97043C1.78227 9.1531 2.0733 8.35692 2.62185 7.75036C3.17039 7.14381 3.9334 6.77447 4.74943 6.72049L5.22896 6.68784L5.28052 6.2106C5.39657 5.14488 5.88282 4.15366 6.65457 3.40961C7.42633 2.66556 8.43466 2.21584 9.5039 2.13882C10.5731 2.06179 11.6355 2.36233 12.506 2.98808C13.3764 3.61383 13.9997 4.52513 14.2673 5.5632H15.4486Z" fill="currentColor"/>
<path d="M9.76854 12.1582C9.84854 11.9473 10.1513 11.9473 10.2315 12.1582L10.749 13.5917C10.7671 13.6384 10.7988 13.6785 10.8402 13.7068C10.8815 13.7351 10.9304 13.7501 10.9805 13.75H12.2522C12.4872 13.75 12.5897 14.0425 12.4049 14.1857L11.5 15C11.4594 15.0311 11.4298 15.0743 11.4153 15.1234C11.4009 15.1724 11.4023 15.2248 11.4195 15.273L11.75 16.6737C11.8304 16.8987 11.57 17.0919 11.373 16.9534L10.1438 16.1734C10.1017 16.1439 10.0515 16.128 10 16.128C9.94858 16.128 9.89838 16.1439 9.85629 16.1734L8.62709 16.9534C8.43035 17.0919 8.16961 16.8984 8.25011 16.6737L8.58059 15.273C8.59774 15.2248 8.59918 15.1724 8.58472 15.1234C8.57026 15.0743 8.54063 15.0311 8.5001 15L7.59514 14.1857C7.41015 14.0425 7.51314 13.75 7.74763 13.75H9.01932C9.06939 13.7501 9.11834 13.7351 9.15967 13.7068C9.20101 13.6786 9.23279 13.6384 9.25081 13.5917L9.76829 12.1582H9.76854Z" fill="currentColor"/>
<path d="M15.4616 7.74907C15.5942 7.56652 15.8863 7.64611 15.9083 7.87078L16.0307 9.38988C16.0359 9.43968 16.056 9.48675 16.0884 9.52487C16.1209 9.563 16.1641 9.59038 16.2125 9.60342L17.4394 9.93774C17.6661 9.99952 17.6881 10.3087 17.4722 10.3983L16.385 10.946C16.3377 10.9654 16.2978 10.9993 16.271 11.0428C16.2441 11.0863 16.2317 11.1372 16.2356 11.1882L16.1862 12.6266C16.2047 12.8648 15.9026 12.9828 15.749 12.7974L14.7681 11.7217C14.7352 11.6821 14.691 11.6535 14.6413 11.64C14.5917 11.6265 14.5391 11.6286 14.4907 11.6461L13.0997 12.0755C12.8734 12.1574 12.6727 11.9022 12.8095 11.7065L13.4966 10.4419C13.5258 10.3999 13.541 10.3498 13.5399 10.2987C13.5388 10.2475 13.5216 10.1981 13.4907 10.1573L12.8316 9.13384C12.6908 8.947 12.8671 8.69187 13.0933 8.75352L14.3203 9.08784C14.3685 9.10116 14.4197 9.09952 14.467 9.08312C14.5143 9.06673 14.5556 9.03635 14.5852 8.99602L15.4614 7.749L15.4616 7.74907Z" fill="currentColor"/>
</svg>
