<svg width="24" height="24" viewBox="0 0 24 24" fill="none" xmlns="http://www.w3.org/2000/svg">
<path d="M17.1658 10.0822H16.0421C15.7085 8.78999 15.0191 7.61727 14.0522 6.69731C13.0854 5.77734 11.8799 5.14701 10.5727 4.87795C9.26551 4.60888 7.90907 4.71186 6.65749 5.17519C5.40591 5.63853 4.30939 6.44363 3.49252 7.49901C2.67565 8.5544 2.17119 9.81776 2.03645 11.1455C1.90172 12.4733 2.14212 13.8122 2.73033 15.0102C3.31854 16.2082 4.23098 17.2171 5.36397 17.9224C6.49696 18.6277 7.80507 19.0011 9.13966 19.0001H17.1658C18.3484 19.0001 19.4825 18.5303 20.3187 17.6941C21.155 16.8579 21.6247 15.7237 21.6247 14.5412C21.6247 13.3586 21.155 12.2244 20.3187 11.3882C19.4825 10.552 18.3484 10.0822 17.1658 10.0822Z" stroke="currentColor" stroke-width="1.78358" stroke-linecap="round" stroke-linejoin="round"/>
</svg>
