<svg width="105" height="18" viewBox="0 0 105 18" fill="none" xmlns="http://www.w3.org/2000/svg">
<path d="M78 8.19235C78.1618 6.70348 78.7678 5.28683 79.749 4.10338C80.7302 2.91993 82.0474 2.01714 83.5508 1.49759C85.0542 0.97804 86.6835 0.862561 88.2537 1.16428C89.8239 1.46599 91.2719 2.1728 92.4333 3.2044C93.5947 4.23599 94.4228 5.551 94.8236 7H96.1733C97.5938 7 98.9562 7.52678 99.9606 8.46447C100.965 9.40215 101.529 10.6739 101.529 12C101.529 13.3261 100.965 14.5979 99.9606 15.5355C98.9562 16.4732 97.5938 17 96.1733 17H90.9835" stroke="url(#paint0_linear_505_281)" stroke-width="1.5" stroke-linecap="round" stroke-linejoin="round"/>
<path d="M5.70703 15.1699H7.45898C7.42383 15.7441 7.26562 16.2539 6.98438 16.6992C6.70703 17.1445 6.31836 17.4922 5.81836 17.7422C5.32227 17.9922 4.72461 18.1172 4.02539 18.1172C3.47852 18.1172 2.98828 18.0234 2.55469 17.8359C2.12109 17.6445 1.75 17.3711 1.44141 17.0156C1.13672 16.6602 0.904297 16.2305 0.744141 15.7266C0.583984 15.2227 0.503906 14.6582 0.503906 14.0332V13.4414C0.503906 12.8164 0.585938 12.252 0.75 11.748C0.917969 11.2402 1.15625 10.8086 1.46484 10.4531C1.77734 10.0977 2.15039 9.82422 2.58398 9.63281C3.01758 9.44141 3.50195 9.3457 4.03711 9.3457C4.74805 9.3457 5.34766 9.47461 5.83594 9.73242C6.32812 9.99023 6.70898 10.3457 6.97852 10.7988C7.25195 11.252 7.41602 11.7676 7.4707 12.3457H5.71289C5.69336 12.002 5.625 11.7109 5.50781 11.4727C5.39062 11.2305 5.21289 11.0488 4.97461 10.9277C4.74023 10.8027 4.42773 10.7402 4.03711 10.7402C3.74414 10.7402 3.48828 10.7949 3.26953 10.9043C3.05078 11.0137 2.86719 11.1797 2.71875 11.4023C2.57031 11.625 2.45898 11.9062 2.38477 12.2461C2.31445 12.582 2.2793 12.9766 2.2793 13.4297V14.0332C2.2793 14.4746 2.3125 14.8633 2.37891 15.1992C2.44531 15.5312 2.54688 15.8125 2.68359 16.043C2.82422 16.2695 3.00391 16.4414 3.22266 16.5586C3.44531 16.6719 3.71289 16.7285 4.02539 16.7285C4.39258 16.7285 4.69531 16.6699 4.93359 16.5527C5.17188 16.4355 5.35352 16.2617 5.47852 16.0312C5.60742 15.8008 5.68359 15.5137 5.70703 15.1699ZM10.2891 9V18H8.5957V9H10.2891ZM11.4141 14.8945V14.7715C11.4141 14.3066 11.4805 13.8789 11.6133 13.4883C11.7461 13.0938 11.9395 12.752 12.1934 12.4629C12.4473 12.1738 12.7598 11.9492 13.1309 11.7891C13.502 11.625 13.9277 11.543 14.4082 11.543C14.8887 11.543 15.3164 11.625 15.6914 11.7891C16.0664 11.9492 16.3809 12.1738 16.6348 12.4629C16.8926 12.752 17.0879 13.0938 17.2207 13.4883C17.3535 13.8789 17.4199 14.3066 17.4199 14.7715V14.8945C17.4199 15.3555 17.3535 15.7832 17.2207 16.1777C17.0879 16.5684 16.8926 16.9102 16.6348 17.2031C16.3809 17.4922 16.0684 17.7168 15.6973 17.877C15.3262 18.0371 14.9004 18.1172 14.4199 18.1172C13.9395 18.1172 13.5117 18.0371 13.1367 17.877C12.7656 17.7168 12.4512 17.4922 12.1934 17.2031C11.9395 16.9102 11.7461 16.5684 11.6133 16.1777C11.4805 15.7832 11.4141 15.3555 11.4141 14.8945ZM13.1016 14.7715V14.8945C13.1016 15.1602 13.125 15.4082 13.1719 15.6387C13.2188 15.8691 13.293 16.0723 13.3945 16.248C13.5 16.4199 13.6367 16.5547 13.8047 16.6523C13.9727 16.75 14.1777 16.7988 14.4199 16.7988C14.6543 16.7988 14.8555 16.75 15.0234 16.6523C15.1914 16.5547 15.3262 16.4199 15.4277 16.248C15.5293 16.0723 15.6035 15.8691 15.6504 15.6387C15.7012 15.4082 15.7266 15.1602 15.7266 14.8945V14.7715C15.7266 14.5137 15.7012 14.2715 15.6504 14.0449C15.6035 13.8145 15.5273 13.6113 15.4219 13.4355C15.3203 13.2559 15.1855 13.1152 15.0176 13.0137C14.8496 12.9121 14.6465 12.8613 14.4082 12.8613C14.1699 12.8613 13.9668 12.9121 13.7988 13.0137C13.6348 13.1152 13.5 13.2559 13.3945 13.4355C13.293 13.6113 13.2188 13.8145 13.1719 14.0449C13.125 14.2715 13.1016 14.5137 13.1016 14.7715ZM22.207 16.4824V11.6602H23.8945V18H22.3066L22.207 16.4824ZM22.3945 15.1816L22.8926 15.1699C22.8926 15.5918 22.8438 15.9844 22.7461 16.3477C22.6484 16.707 22.502 17.0195 22.3066 17.2852C22.1113 17.5469 21.8652 17.752 21.5684 17.9004C21.2715 18.0449 20.9219 18.1172 20.5195 18.1172C20.2109 18.1172 19.9258 18.0742 19.6641 17.9883C19.4062 17.8984 19.1836 17.7598 18.9961 17.5723C18.8125 17.3809 18.668 17.1367 18.5625 16.8398C18.4609 16.5391 18.4102 16.1777 18.4102 15.7559V11.6602H20.0977V15.7676C20.0977 15.9551 20.1191 16.1133 20.1621 16.2422C20.209 16.3711 20.2734 16.4766 20.3555 16.5586C20.4375 16.6406 20.5332 16.6992 20.6426 16.7344C20.7559 16.7695 20.8809 16.7871 21.0176 16.7871C21.3652 16.7871 21.6387 16.7168 21.8379 16.5762C22.041 16.4355 22.1836 16.2441 22.2656 16.002C22.3516 15.7559 22.3945 15.4824 22.3945 15.1816ZM28.9277 16.6172V9H30.627V18H29.0977L28.9277 16.6172ZM24.9199 14.9062V14.7832C24.9199 14.2988 24.9746 13.8594 25.084 13.4648C25.1934 13.0664 25.3535 12.7246 25.5645 12.4395C25.7754 12.1543 26.0352 11.9336 26.3438 11.7773C26.6523 11.6211 27.0039 11.543 27.3984 11.543C27.7695 11.543 28.0938 11.6211 28.3711 11.7773C28.6523 11.9336 28.8906 12.1562 29.0859 12.4453C29.2852 12.7305 29.4453 13.0684 29.5664 13.459C29.6875 13.8457 29.7754 14.2695 29.8301 14.7305V15C29.7754 15.4414 29.6875 15.8516 29.5664 16.2305C29.4453 16.6094 29.2852 16.9414 29.0859 17.2266C28.8906 17.5078 28.6523 17.7266 28.3711 17.8828C28.0898 18.0391 27.7617 18.1172 27.3867 18.1172C26.9922 18.1172 26.6406 18.0371 26.332 17.877C26.0273 17.7168 25.7695 17.4922 25.5586 17.2031C25.3516 16.9141 25.1934 16.5742 25.084 16.1836C24.9746 15.793 24.9199 15.3672 24.9199 14.9062ZM26.6074 14.7832V14.9062C26.6074 15.168 26.627 15.4121 26.666 15.6387C26.709 15.8652 26.7773 16.0664 26.8711 16.2422C26.9688 16.4141 27.0938 16.5488 27.2461 16.6465C27.4023 16.7402 27.5918 16.7871 27.8145 16.7871C28.1035 16.7871 28.3418 16.7227 28.5293 16.5938C28.7168 16.4609 28.8594 16.2793 28.957 16.0488C29.0586 15.8184 29.1172 15.5527 29.1328 15.252V14.4844C29.1211 14.2383 29.0859 14.0176 29.0273 13.8223C28.9727 13.623 28.8906 13.4531 28.7812 13.3125C28.6758 13.1719 28.543 13.0625 28.3828 12.9844C28.2266 12.9062 28.041 12.8672 27.8262 12.8672C27.6074 12.8672 27.4199 12.918 27.2637 13.0195C27.1074 13.1172 26.9805 13.252 26.8828 13.4238C26.7891 13.5957 26.7188 13.7988 26.6719 14.0332C26.6289 14.2637 26.6074 14.5137 26.6074 14.7832ZM40.1309 15.9023C40.1309 15.668 40.0918 15.459 40.0137 15.2754C39.9355 15.0918 39.8066 14.9277 39.627 14.7832C39.4512 14.6348 39.2129 14.498 38.9121 14.373C38.6152 14.2441 38.2441 14.1172 37.7988 13.9922C37.373 13.8711 36.9883 13.7383 36.6445 13.5938C36.3008 13.4492 36.0059 13.2832 35.7598 13.0957C35.5176 12.9082 35.332 12.6895 35.2031 12.4395C35.0742 12.1855 35.0098 11.8906 35.0098 11.5547C35.0098 11.2266 35.0801 10.9277 35.2207 10.6582C35.3613 10.3887 35.5586 10.1562 35.8125 9.96094C36.0703 9.76562 36.373 9.61523 36.7207 9.50977C37.0723 9.4043 37.457 9.35156 37.875 9.35156C38.4727 9.35156 38.9883 9.46484 39.4219 9.69141C39.8594 9.91797 40.1973 10.2246 40.4355 10.6113C40.6777 10.9941 40.7988 11.4238 40.7988 11.9004H40.0781C40.0781 11.5293 39.9902 11.1992 39.8145 10.9102C39.6426 10.6172 39.3926 10.3887 39.0645 10.2246C38.7402 10.0566 38.3438 9.97266 37.875 9.97266C37.4062 9.97266 37.0117 10.0449 36.6914 10.1895C36.375 10.3301 36.1348 10.5195 35.9707 10.7578C35.8105 10.9922 35.7305 11.2539 35.7305 11.543C35.7305 11.7461 35.7695 11.9336 35.8477 12.1055C35.9258 12.2734 36.0527 12.4316 36.2285 12.5801C36.4082 12.7246 36.6445 12.8613 36.9375 12.9902C37.2305 13.1152 37.5918 13.2344 38.0215 13.3477C38.4746 13.4727 38.877 13.6113 39.2285 13.7637C39.5801 13.916 39.877 14.0918 40.1191 14.291C40.3613 14.4863 40.5449 14.7148 40.6699 14.9766C40.7949 15.2383 40.8574 15.543 40.8574 15.8906C40.8574 16.2383 40.7832 16.5508 40.6348 16.8281C40.4902 17.1016 40.2852 17.334 40.0195 17.5254C39.7578 17.7168 39.4473 17.8633 39.0879 17.9648C38.7324 18.0664 38.3438 18.1172 37.9219 18.1172C37.543 18.1172 37.166 18.0684 36.791 17.9707C36.416 17.873 36.0723 17.7227 35.7598 17.5195C35.4512 17.3125 35.2031 17.0469 35.0156 16.7227C34.832 16.3984 34.7402 16.0117 34.7402 15.5625H35.4551C35.4551 15.9219 35.5273 16.2246 35.6719 16.4707C35.8164 16.7168 36.0078 16.916 36.2461 17.0684C36.4883 17.2207 36.7539 17.332 37.043 17.4023C37.3359 17.4688 37.6289 17.502 37.9219 17.502C38.3711 17.502 38.7598 17.4355 39.0879 17.3027C39.4199 17.1699 39.6758 16.9844 39.8555 16.7461C40.0391 16.5039 40.1309 16.2227 40.1309 15.9023ZM44.7012 18.1172C44.2871 18.1172 43.9062 18.041 43.5586 17.8887C43.2148 17.7363 42.9141 17.5215 42.6562 17.2441C42.4023 16.9668 42.2051 16.6387 42.0645 16.2598C41.9277 15.877 41.8594 15.459 41.8594 15.0059V14.7539C41.8594 14.2656 41.9316 13.8242 42.0762 13.4297C42.2207 13.0352 42.4199 12.6973 42.6738 12.416C42.9277 12.1348 43.2168 11.9199 43.541 11.7715C43.8691 11.6191 44.2129 11.543 44.5723 11.543C44.9746 11.543 45.332 11.6152 45.6445 11.7598C45.957 11.9004 46.2188 12.1016 46.4297 12.3633C46.6445 12.6211 46.8066 12.9277 46.916 13.2832C47.0254 13.6348 47.0801 14.0234 47.0801 14.4492V14.877H42.2812V14.2793H46.3828V14.1973C46.375 13.8418 46.3027 13.5098 46.166 13.2012C46.0332 12.8887 45.834 12.6348 45.5684 12.4395C45.3027 12.2441 44.9707 12.1465 44.5723 12.1465C44.2754 12.1465 44.002 12.209 43.752 12.334C43.5059 12.459 43.293 12.6387 43.1133 12.873C42.9375 13.1035 42.8008 13.3789 42.7031 13.6992C42.6094 14.0156 42.5625 14.3672 42.5625 14.7539V15.0059C42.5625 15.3574 42.6133 15.6855 42.7148 15.9902C42.8203 16.291 42.9688 16.5566 43.1602 16.7871C43.3555 17.0176 43.5859 17.1973 43.8516 17.3262C44.1172 17.4551 44.4102 17.5195 44.7305 17.5195C45.1055 17.5195 45.4375 17.4512 45.7266 17.3145C46.0156 17.1738 46.2754 16.9531 46.5059 16.6523L46.9453 16.9922C46.8086 17.1953 46.6367 17.3828 46.4297 17.5547C46.2266 17.7266 45.9824 17.8633 45.6973 17.9648C45.4121 18.0664 45.0801 18.1172 44.7012 18.1172ZM49.1602 12.709V18H48.4629V11.6602H49.1426L49.1602 12.709ZM51.4043 11.6133L51.3867 12.2578C51.3086 12.2461 51.2324 12.2363 51.1582 12.2285C51.084 12.2207 51.0039 12.2168 50.918 12.2168C50.6133 12.2168 50.3457 12.2734 50.1152 12.3867C49.8887 12.4961 49.6973 12.6504 49.541 12.8496C49.3848 13.0449 49.2656 13.2754 49.1836 13.541C49.1016 13.8027 49.0547 14.084 49.043 14.3848L48.7852 14.4844C48.7852 14.0703 48.8281 13.6855 48.9141 13.3301C49 12.9746 49.1309 12.6641 49.3066 12.3984C49.4863 12.1289 49.7109 11.9199 49.9805 11.7715C50.2539 11.6191 50.5742 11.543 50.9414 11.543C51.0312 11.543 51.1191 11.5508 51.2051 11.5664C51.2949 11.5781 51.3613 11.5938 51.4043 11.6133ZM54.4805 17.3262L56.5137 11.6602H57.2344L54.8613 18H54.3516L54.4805 17.3262ZM52.6406 11.6602L54.6973 17.3438L54.8086 18H54.293L51.9141 11.6602H52.6406ZM59.168 11.6602V18H58.4707V11.6602H59.168ZM58.3477 9.82617C58.3477 9.69336 58.3887 9.58203 58.4707 9.49219C58.5566 9.39844 58.6738 9.35156 58.8223 9.35156C58.9707 9.35156 59.0879 9.39844 59.1738 9.49219C59.2637 9.58203 59.3086 9.69336 59.3086 9.82617C59.3086 9.95508 59.2637 10.0664 59.1738 10.1602C59.0879 10.25 58.9707 10.2949 58.8223 10.2949C58.6738 10.2949 58.5566 10.25 58.4707 10.1602C58.3887 10.0664 58.3477 9.95508 58.3477 9.82617ZM63.4219 17.5137C63.7188 17.5137 63.9961 17.459 64.2539 17.3496C64.5156 17.2363 64.7305 17.0703 64.8984 16.8516C65.0703 16.6289 65.168 16.3574 65.1914 16.0371H65.8594C65.8398 16.4395 65.7168 16.7988 65.4902 17.1152C65.2676 17.4277 64.9746 17.6738 64.6113 17.8535C64.252 18.0293 63.8555 18.1172 63.4219 18.1172C62.9805 18.1172 62.5898 18.0371 62.25 17.877C61.9141 17.7168 61.6328 17.4941 61.4062 17.209C61.1797 16.9199 61.0078 16.584 60.8906 16.2012C60.7773 15.8145 60.7207 15.3984 60.7207 14.9531V14.707C60.7207 14.2617 60.7773 13.8477 60.8906 13.4648C61.0078 13.0781 61.1797 12.7422 61.4062 12.457C61.6328 12.168 61.9141 11.9434 62.25 11.7832C62.5859 11.623 62.9746 11.543 63.416 11.543C63.8691 11.543 64.2754 11.6348 64.6348 11.8184C64.998 12.002 65.2871 12.2617 65.502 12.5977C65.7207 12.9336 65.8398 13.332 65.8594 13.793H65.1914C65.1719 13.4531 65.082 13.1602 64.9219 12.9141C64.7617 12.668 64.5508 12.4785 64.2891 12.3457C64.0273 12.2129 63.7363 12.1465 63.416 12.1465C63.0566 12.1465 62.75 12.2168 62.4961 12.3574C62.2422 12.4941 62.0352 12.6836 61.875 12.9258C61.7188 13.1641 61.6035 13.4375 61.5293 13.7461C61.4551 14.0508 61.418 14.3711 61.418 14.707V14.9531C61.418 15.293 61.4531 15.6172 61.5234 15.9258C61.5977 16.2305 61.7129 16.502 61.8691 16.7402C62.0293 16.9785 62.2363 17.168 62.4902 17.3086C62.748 17.4453 63.0586 17.5137 63.4219 17.5137ZM69.7207 18.1172C69.3066 18.1172 68.9258 18.041 68.5781 17.8887C68.2344 17.7363 67.9336 17.5215 67.6758 17.2441C67.4219 16.9668 67.2246 16.6387 67.084 16.2598C66.9473 15.877 66.8789 15.459 66.8789 15.0059V14.7539C66.8789 14.2656 66.9512 13.8242 67.0957 13.4297C67.2402 13.0352 67.4395 12.6973 67.6934 12.416C67.9473 12.1348 68.2363 11.9199 68.5605 11.7715C68.8887 11.6191 69.2324 11.543 69.5918 11.543C69.9941 11.543 70.3516 11.6152 70.6641 11.7598C70.9766 11.9004 71.2383 12.1016 71.4492 12.3633C71.6641 12.6211 71.8262 12.9277 71.9355 13.2832C72.0449 13.6348 72.0996 14.0234 72.0996 14.4492V14.877H67.3008V14.2793H71.4023V14.1973C71.3945 13.8418 71.3223 13.5098 71.1855 13.2012C71.0527 12.8887 70.8535 12.6348 70.5879 12.4395C70.3223 12.2441 69.9902 12.1465 69.5918 12.1465C69.2949 12.1465 69.0215 12.209 68.7715 12.334C68.5254 12.459 68.3125 12.6387 68.1328 12.873C67.957 13.1035 67.8203 13.3789 67.7227 13.6992C67.6289 14.0156 67.582 14.3672 67.582 14.7539V15.0059C67.582 15.3574 67.6328 15.6855 67.7344 15.9902C67.8398 16.291 67.9883 16.5566 68.1797 16.7871C68.375 17.0176 68.6055 17.1973 68.8711 17.3262C69.1367 17.4551 69.4297 17.5195 69.75 17.5195C70.125 17.5195 70.457 17.4512 70.7461 17.3145C71.0352 17.1738 71.2949 16.9531 71.5254 16.6523L71.9648 16.9922C71.8281 17.1953 71.6562 17.3828 71.4492 17.5547C71.2461 17.7266 71.002 17.8633 70.7168 17.9648C70.4316 18.0664 70.0996 18.1172 69.7207 18.1172ZM77.2793 16.3828C77.2793 16.2109 77.2363 16.041 77.1504 15.873C77.0645 15.7051 76.8984 15.5508 76.6523 15.4102C76.4102 15.2695 76.0527 15.1504 75.5801 15.0527C75.2285 14.9746 74.9141 14.8867 74.6367 14.7891C74.3633 14.6914 74.1328 14.5742 73.9453 14.4375C73.7578 14.3008 73.6152 14.1367 73.5176 13.9453C73.4199 13.7539 73.3711 13.5273 73.3711 13.2656C73.3711 13.0312 73.4219 12.8105 73.5234 12.6035C73.6289 12.3926 73.7773 12.209 73.9688 12.0527C74.1641 11.8926 74.3984 11.7676 74.6719 11.6777C74.9492 11.5879 75.2598 11.543 75.6035 11.543C76.0918 11.543 76.5098 11.627 76.8574 11.7949C77.209 11.959 77.4766 12.1836 77.6602 12.4688C77.8477 12.7539 77.9414 13.0762 77.9414 13.4355H77.2441C77.2441 13.2168 77.1797 13.0098 77.0508 12.8145C76.9258 12.6191 76.7402 12.459 76.4941 12.334C76.252 12.209 75.9551 12.1465 75.6035 12.1465C75.2402 12.1465 74.9453 12.2012 74.7188 12.3105C74.4922 12.4199 74.3262 12.5586 74.2207 12.7266C74.1191 12.8945 74.0684 13.0684 74.0684 13.248C74.0684 13.3887 74.0898 13.5176 74.1328 13.6348C74.1797 13.748 74.2617 13.8535 74.3789 13.9512C74.5 14.0488 74.6719 14.1406 74.8945 14.2266C75.1172 14.3125 75.4062 14.3965 75.7617 14.4785C76.2734 14.5918 76.6914 14.7305 77.0156 14.8945C77.3438 15.0547 77.5859 15.2539 77.7422 15.4922C77.8984 15.7266 77.9766 16.0117 77.9766 16.3477C77.9766 16.6094 77.9219 16.8496 77.8125 17.0684C77.7031 17.2832 77.5449 17.4688 77.3379 17.625C77.1348 17.7812 76.8887 17.9023 76.5996 17.9883C76.3145 18.0742 75.9941 18.1172 75.6387 18.1172C75.1035 18.1172 74.6504 18.0293 74.2793 17.8535C73.9121 17.6738 73.6328 17.4395 73.4414 17.1504C73.2539 16.8574 73.1602 16.5469 73.1602 16.2188H73.8574C73.8809 16.5469 73.9844 16.8066 74.168 16.998C74.3516 17.1855 74.5762 17.3184 74.8418 17.3965C75.1113 17.4746 75.377 17.5137 75.6387 17.5137C75.998 17.5137 76.2988 17.4609 76.541 17.3555C76.7832 17.25 76.9668 17.1113 77.0918 16.9395C77.2168 16.7676 77.2793 16.582 77.2793 16.3828Z" fill="currentColor"/>
<circle r="0.999933" transform="matrix(1 0 0 -1 81.4023 17.0001)" fill="#D01E2F"/>
<circle r="0.999933" transform="matrix(1 0 0 -1 84.4013 17.0001)" fill="#50AF4C"/>
<circle r="0.999933" transform="matrix(1 0 0 -1 87.4023 17.0001)" fill="#FFC700"/>
<defs>
<linearGradient id="paint0_linear_505_281" x1="89.7448" y1="1" x2="89.7448" y2="17" gradientUnits="userSpaceOnUse">
<stop stop-color="#718F9D"/>
<stop offset="1" stop-color="#7A9CFF" stop-opacity="0.58"/>
</linearGradient>
</defs>
</svg>
