<svg width="18" height="17" viewBox="0 0 18 17" fill="none" xmlns="http://www.w3.org/2000/svg">
<path id="cloud" d="M15.4486 5.5632C15.1832 4.26338 14.4748 3.09597 13.4445 2.26022C12.4142 1.42448 11.1258 0.972199 9.79915 0.980583C8.47252 0.988968 7.18991 1.45749 6.17024 2.3062C5.15057 3.1549 4.45704 4.33117 4.20802 5.63424C3.15063 5.82245 2.20213 6.40004 1.54959 7.25308C0.897041 8.10613 0.587812 9.17273 0.682883 10.2425C0.777954 11.3123 1.27042 12.3077 2.06317 13.0323C2.85592 13.7569 3.89141 14.1582 4.96542 14.157H5.25188V13.0111H4.96542C4.14761 13.0132 3.36106 12.6971 2.77221 12.1296C2.18336 11.5621 1.8384 10.7878 1.81034 9.97043C1.78227 9.1531 2.0733 8.35692 2.62185 7.75036C3.17039 7.14381 3.9334 6.77447 4.74943 6.72049L5.22896 6.68784L5.28052 6.2106C5.39657 5.14488 5.88282 4.15366 6.65457 3.40961C7.42633 2.66556 8.43466 2.21584 9.5039 2.13882C10.5731 2.06179 11.6355 2.36233 12.506 2.98808C13.3764 3.61383 13.9997 4.52513 14.2673 5.5632H15.4486Z" fill="currentColor"/>
<path id="star" d="M12.5834 8.28485C12.7274 7.90505 13.2723 7.90505 13.4167 8.28485L14.3482 10.8651C14.3807 10.9492 14.4379 11.0214 14.5123 11.0722C14.5867 11.1231 14.6748 11.1502 14.7649 11.15H17.0539C17.4769 11.15 17.6614 11.6764 17.3289 11.9343L15.6999 13.3999C15.627 13.456 15.5736 13.5338 15.5476 13.6221C15.5216 13.7103 15.5242 13.8046 15.555 13.8913L16.1499 16.4126C16.2948 16.8176 15.8259 17.1655 15.4713 16.9162L13.2588 15.5122C13.183 15.4589 13.0927 15.4304 13.0001 15.4304C12.9074 15.4304 12.8171 15.4589 12.7413 15.5122L10.5288 16.9162C10.1746 17.1655 9.7053 16.8172 9.85019 16.4126L10.4451 13.8913C10.4759 13.8046 10.4785 13.7103 10.4525 13.6221C10.4265 13.5338 10.3731 13.456 10.3002 13.3999L8.67125 11.9343C8.33826 11.6764 8.52365 11.15 8.94573 11.15H11.2348C11.3249 11.1503 11.413 11.1232 11.4874 11.0723C11.5618 11.0215 11.619 10.9492 11.6515 10.8651L12.5829 8.28485H12.5834Z" fill="currentColor"/>
</svg>
