<svg width="154" height="160" viewBox="0 0 154 160" fill="none" xmlns="http://www.w3.org/2000/svg">
<g clip-path="url(#clip0_254_37913)">
<mask id="mask0_254_37913" style="mask-type:luminance" maskUnits="userSpaceOnUse" x="0" y="0" width="154" height="160">
<path d="M153.684 0H0V160H153.684V0Z" fill="white"/>
</mask>
<g mask="url(#mask0_254_37913)">
<path d="M40.4838 126.75L27.8187 135.179L20.2223 127.468L28.5391 114.612L26.1162 110.784C22.241 104.657 19.4901 97.8696 17.9958 90.7487L17.0397 86.3083L2.1875 83.1707V72.2693L17.0528 69.1318L18.0089 64.6913C19.5243 57.579 22.2882 50.8015 26.1684 44.6831L28.6046 40.8543L20.3009 27.9984L27.8842 20.3008L40.5492 28.7429L44.3212 26.2834C50.356 22.3548 57.0368 19.5584 64.0457 18.0274L68.4332 17.0702L71.5242 1.99414H82.2638L85.3547 17.0968L89.7423 18.0673C96.725 19.6107 103.378 22.4112 109.388 26.3364L113.16 28.8093L125.825 20.3672L133.421 28.0913L125.105 40.934L127.515 44.7628C131.39 50.8904 134.146 57.6775 135.648 64.7977L136.591 69.2382L151.456 72.3757V83.2771L136.617 86.4147L135.674 90.8684C134.154 97.9581 131.389 104.713 127.515 110.81L125.078 114.639L133.382 127.508L125.799 135.206L113.134 126.75M62.1989 142.704H91.1438M76.8417 129.529V91.8655L60.4701 75.8456M76.8678 92.4504L93.213 75.8456M62.1989 129.529V143.315C62.2347 151.377 68.664 157.904 76.6059 157.94C84.5732 157.94 91.0423 151.403 91.0783 143.315V129.529M116.421 77.3744C116.471 55.1785 98.7848 37.1442 76.9183 37.094C55.0518 37.0436 37.2854 54.9962 37.236 77.1923C37.2048 91.0492 44.2084 103.945 55.7682 111.316C57.5341 112.428 58.6048 114.391 58.5972 116.5V129.489H59.9069H93.8286H95.1383V116.514C95.1351 114.409 96.2054 112.452 97.9673 111.342C109.473 104.003 116.446 91.168 116.421 77.3744Z" stroke="url(#paint0_linear_254_37913)" stroke-width="4.44491" stroke-linecap="round" stroke-linejoin="round"/>
</g>
</g>
<defs>
<linearGradient id="paint0_linear_254_37913" x1="-1390.84" y1="-1302.04" x2="-1280.87" y2="-1410.39" gradientUnits="userSpaceOnUse">
<stop stop-color="#C6192E"/>
<stop offset="0.1" stop-color="#C6192E"/>
<stop offset="0.11" stop-color="#C31B30"/>
<stop offset="0.47" stop-color="#765167"/>
<stop offset="0.72" stop-color="#46738A"/>
<stop offset="0.85" stop-color="#348097"/>
<stop offset="1" stop-color="#348097"/>
</linearGradient>
<clipPath id="clip0_254_37913">
<rect width="153.684" height="160" fill="white"/>
</clipPath>
</defs>
</svg>
