<svg width="24" height="25" viewBox="0 0 24 25" fill="none" xmlns="http://www.w3.org/2000/svg">
<path d="M15 5.15234V19.1523M9 5.15234V19.1523M4 5.15234H20C20.2652 5.15234 20.5196 5.2577 20.7071 5.44524C20.8946 5.63277 21 5.88713 21 6.15234V18.1523C21 18.4176 20.8946 18.6719 20.7071 18.8595C20.5196 19.047 20.2652 19.1523 20 19.1523H4C3.73478 19.1523 3.48043 19.047 3.29289 18.8595C3.10536 18.6719 3 18.4176 3 18.1523V6.15234C3 5.88713 3.10536 5.63277 3.29289 5.44524C3.48043 5.2577 3.73478 5.15234 4 5.15234Z" stroke="currentColor" stroke-width="2" stroke-linecap="round" stroke-linejoin="round"/>
</svg>
