<svg width="11" height="11" viewBox="0 0 11 11" fill="none" xmlns="http://www.w3.org/2000/svg">
<path id="svg_1" fill="currentColor" d="m8.7,5.00001l-1.696,0c-0.224,-0.58 -0.81066,-1 -1.504,-1c-0.69333,0 -1.28,0.42 -1.504,1l-1.696,0c-0.176,0 -1.06666,-0.05 -1.06666,-1l0,-0.5c0,-0.915 0.82133,-1 1.06666,-1l5.42934,0c0.224,0.58 0.81066,1 1.504,1c0.42434,0 0.83128,-0.15804 1.13138,-0.43934c0.3,-0.28131 0.4686,-0.66284 0.4686,-1.06066c0,-0.39783 -0.1686,-0.77936 -0.4686,-1.06066c-0.3001,-0.28131 -0.70704,-0.43934 -1.13138,-0.43934c-0.69334,0 -1.28,0.42 -1.504,1l-5.42934,0c-0.85866,0 -2.13333,0.53 -2.13333,2l0,0.5c0,1.47 1.27467,2 2.13333,2l1.696,0c0.224,0.58 0.81067,1 1.504,1c0.69334,0 1.28,-0.42 1.504,-1l1.696,0c0.176,0 1.06667,0.05 1.06667,1l0,0.5c0,0.915 -0.82133,1 -1.06667,1l-5.42933,0c-0.224,-0.58 -0.81067,-1 -1.504,-1c-0.42435,0 -0.83131,0.15803 -1.13137,0.43934c-0.30006,0.2813 -0.46863,0.66283 -0.46863,1.06066c0,0.39782 0.16857,0.77939 0.46863,1.06069c0.30006,0.2813 0.70702,0.4393 1.13137,0.4393c0.69333,0 1.28,-0.42 1.504,-0.99999l5.42933,0c0.85867,0 2.13332,-0.535 2.13332,-2l0,-0.5c0,-1.465 -1.27465,-2 -2.13332,-2zm0.53334,-3.5c0.14145,0 0.2771,0.05268 0.37712,0.14644c0.10002,0.09377 0.15621,0.22095 0.15621,0.35356c0,0.13261 -0.05619,0.25978 -0.15621,0.35355c-0.10002,0.09377 -0.23567,0.14645 -0.37712,0.14645c-0.14145,0 -0.27711,-0.05268 -0.37713,-0.14645c-0.10002,-0.09377 -0.15621,-0.22094 -0.15621,-0.35355c0,-0.13261 0.05619,-0.25979 0.15621,-0.35356c0.10002,-0.09376 0.23568,-0.14644 0.37713,-0.14644zm-7.46667,8c-0.14145,0 -0.2771,-0.05268 -0.37712,-0.14645c-0.10002,-0.09377 -0.15621,-0.22094 -0.15621,-0.35355c0,-0.13261 0.05619,-0.25979 0.15621,-0.35356c0.10002,-0.09376 0.23567,-0.14644 0.37712,-0.14644c0.14145,0 0.2771,0.05268 0.37712,0.14644c0.10002,0.09377 0.15621,0.22095 0.15621,0.35356c0,0.13261 -0.05619,0.25978 -0.15621,0.35355c-0.10002,0.09377 -0.23567,0.14645 -0.37712,0.14645z"/>
</svg>
