<svg width="20" height="20" viewBox="0 0 21 20" fill="none" xmlns="http://www.w3.org/2000/svg">
<g clip-path="url(#clip0_648_12739)">
<path d="M13.7812 17.501C14.5061 17.501 15.0938 16.9413 15.0938 16.251C15.0938 15.5606 14.5061 15.001 13.7812 15.001C13.0564 15.001 12.4688 15.5606 12.4688 16.251C12.4688 16.9413 13.0564 17.501 13.7812 17.501Z" fill="currentColor"/>
<path d="M13.7812 5.00098C14.5061 5.00098 15.0938 4.44133 15.0938 3.75098C15.0938 3.06062 14.5061 2.50098 13.7812 2.50098C13.0564 2.50098 12.4688 3.06062 12.4688 3.75098C12.4688 4.44133 13.0564 5.00098 13.7812 5.00098Z" fill="currentColor"/>
<path d="M2.625 11.251C3.34987 11.251 3.9375 10.6913 3.9375 10.001C3.9375 9.31062 3.34987 8.75098 2.625 8.75098C1.90013 8.75098 1.3125 9.31062 1.3125 10.001C1.3125 10.6913 1.90013 11.251 2.625 11.251Z" fill="currentColor"/>
<path d="M18.375 7.50098C17.7946 7.50262 17.2312 7.68759 16.773 8.02689C16.3149 8.3662 15.9878 8.84068 15.8432 9.37598H13.0318C12.9389 9.02351 12.7657 8.69482 12.5245 8.41318C12.2834 8.13155 11.9801 7.90386 11.6363 7.74625C11.2925 7.58863 10.9165 7.50495 10.5349 7.50112C10.1534 7.49729 9.77558 7.57342 9.42835 7.7241L7.34344 5.24285C7.68639 4.81391 7.87302 4.29011 7.875 3.75098C7.875 3.25652 7.72105 2.77317 7.43261 2.36205C7.14417 1.95093 6.7342 1.6305 6.25455 1.44128C5.77489 1.25206 5.24709 1.20255 4.73789 1.29901C4.22869 1.39548 3.76096 1.63358 3.39385 1.98321C3.02673 2.33284 2.77673 2.7783 2.67544 3.26325C2.57415 3.7482 2.62614 4.25087 2.82482 4.70769C3.0235 5.1645 3.35995 5.55495 3.79163 5.82965C4.22331 6.10436 4.73083 6.25098 5.25 6.25098C5.62004 6.25016 5.98563 6.17409 6.32231 6.02785L8.40656 8.5091C8.06204 8.93722 7.87532 9.46158 7.87532 10.001C7.87532 10.5404 8.06204 11.0647 8.40656 11.4929L6.32231 13.9741C5.98563 13.8279 5.62004 13.7518 5.25 13.751C4.73083 13.751 4.22331 13.8976 3.79163 14.1723C3.35995 14.447 3.0235 14.8375 2.82482 15.2943C2.62614 15.7511 2.57415 16.2538 2.67544 16.7387C2.77673 17.2237 3.02673 17.6691 3.39385 18.0187C3.76096 18.3684 4.22869 18.6065 4.73789 18.7029C5.24709 18.7994 5.77489 18.7499 6.25455 18.5607C6.7342 18.3715 7.14417 18.051 7.43261 17.6399C7.72105 17.2288 7.875 16.7454 7.875 16.251C7.87307 15.7118 7.68643 15.188 7.34344 14.7591L9.42769 12.2779C9.77496 12.4286 10.1528 12.5049 10.5344 12.5011C10.9161 12.4973 11.2922 12.4137 11.6361 12.256C11.98 12.0984 12.2833 11.8707 12.5245 11.589C12.7657 11.3073 12.9389 10.9785 13.0318 10.626H15.8432C15.9668 11.0776 16.2208 11.4871 16.5765 11.8081C16.9322 12.1291 17.3753 12.3487 17.8554 12.4419C18.3356 12.5351 18.8335 12.4983 19.2928 12.3355C19.752 12.1728 20.1542 11.8906 20.4535 11.5211C20.7529 11.1517 20.9374 10.7097 20.9863 10.2453C21.0351 9.78093 20.9462 9.31283 20.7298 8.89415C20.5133 8.47547 20.1779 8.12299 19.7617 7.87673C19.3454 7.63046 18.865 7.50028 18.375 7.50098ZM3.9375 3.75098C3.9375 3.50375 4.01448 3.26208 4.1587 3.05651C4.30292 2.85095 4.5079 2.69074 4.74773 2.59613C4.98756 2.50152 5.25146 2.47676 5.50606 2.525C5.76066 2.57323 5.99452 2.69228 6.17808 2.86709C6.36164 3.04191 6.48664 3.26464 6.53728 3.50711C6.58793 3.74959 6.56193 4.00092 6.46259 4.22933C6.36325 4.45774 6.19503 4.65296 5.97919 4.79031C5.76335 4.92767 5.50959 5.00098 5.25 5.00098C4.90201 5.00065 4.56837 4.86884 4.32231 4.6345C4.07624 4.40015 3.93785 4.0824 3.9375 3.75098ZM5.25 17.501C4.99041 17.501 4.73665 17.4277 4.52082 17.2903C4.30498 17.153 4.13675 16.9577 4.03741 16.7293C3.93807 16.5009 3.91208 16.2496 3.96272 16.0071C4.01336 15.7646 4.13837 15.5419 4.32192 15.3671C4.50548 15.1923 4.73935 15.0732 4.99395 15.025C5.24855 14.9768 5.51245 15.0015 5.75227 15.0961C5.9921 15.1907 6.19709 15.351 6.34131 15.5565C6.48552 15.7621 6.5625 16.0038 6.5625 16.251C6.56215 16.5824 6.42376 16.9001 6.1777 17.1345C5.93163 17.3688 5.59799 17.5006 5.25 17.501ZM10.5 11.251C10.2404 11.251 9.98666 11.1777 9.77082 11.0403C9.55498 10.903 9.38675 10.7077 9.28741 10.4793C9.18807 10.2509 9.16208 9.99959 9.21272 9.75711C9.26336 9.51464 9.38837 9.29191 9.57192 9.11709C9.75548 8.94228 9.98935 8.82323 10.2439 8.775C10.4985 8.72676 10.7624 8.75152 11.0023 8.84613C11.2421 8.94074 11.4471 9.10095 11.5913 9.30651C11.7355 9.51208 11.8125 9.75375 11.8125 10.001C11.8122 10.3324 11.6738 10.6501 11.4277 10.8845C11.1816 11.1188 10.848 11.2506 10.5 11.251ZM18.375 11.251C18.1154 11.251 17.8617 11.1777 17.6458 11.0403C17.43 10.903 17.2618 10.7077 17.1624 10.4793C17.0631 10.2509 17.0371 9.99959 17.0877 9.75711C17.1384 9.51464 17.2634 9.29191 17.4469 9.11709C17.6305 8.94228 17.8643 8.82323 18.1189 8.775C18.3735 8.72676 18.6374 8.75152 18.8773 8.84613C19.1171 8.94074 19.3221 9.10095 19.4663 9.30651C19.6105 9.51208 19.6875 9.75375 19.6875 10.001C19.6872 10.3324 19.5488 10.6501 19.3027 10.8845C19.0566 11.1188 18.723 11.2506 18.375 11.251Z" fill="currentColor"/>
</g>
<defs>
<clipPath id="clip0_648_12739">
<rect width="21" height="20" fill="white" transform="translate(0 0.000976562)"/>
</clipPath>
</defs>
</svg>
