<svg width="18" height="18" viewBox="0 0 18 18" fill="none" transform="rotate(180)" xmlns="http://www.w3.org/2000/svg">
<path d="M8.99935 16.2917C10.9332 16.2917 12.7879 15.5235 14.1553 14.156C15.5228 12.7886 16.291 10.9339 16.291 9.00002C16.291 7.06615 15.5228 5.21149 14.1553 3.84403C12.7879 2.47658 10.9332 1.70835 8.99935 1.70835V16.2917ZM8.99935 17.3334C6.78921 17.3334 4.6696 16.4554 3.10679 14.8926C1.54399 13.3298 0.666016 11.2102 0.666016 9.00002C0.666016 6.78988 1.54399 4.67027 3.10679 3.10746C4.6696 1.54466 6.78921 0.666687 8.99935 0.666687C11.2095 0.666687 13.3291 1.54466 14.8919 3.10746C16.4547 4.67027 17.3327 6.78988 17.3327 9.00002C17.3327 11.2102 16.4547 13.3298 14.8919 14.8926C13.3291 16.4554 11.2095 17.3334 8.99935 17.3334Z" fill="currentColor"/>
</svg>
