<svg width="16" height="15" viewBox="0 0 16 15" fill="currentColor" xmlns="http://www.w3.org/2000/svg">
<path fill-rule="evenodd" clip-rule="evenodd" d="M14.3965 9.43492C14.3965 9.94595 13.9817 10.3607 13.4707 10.3607H6.06444C5.55341 10.3607 5.13866 9.94595 5.13866 9.43492V2.02868C5.13866 1.51765 5.55341 1.1029 6.06444 1.1029H13.4707C13.9817 1.1029 14.3965 1.51765 14.3965 2.02868V9.43492ZM13.4707 0.177124H6.06444C5.04192 0.177124 4.21288 1.00616 4.21288 2.02868V9.43492C4.21288 10.4574 5.04192 11.2865 6.06444 11.2865H13.4707C14.4932 11.2865 15.3222 10.4574 15.3222 9.43492V2.02868C15.3222 1.00616 14.4932 0.177124 13.4707 0.177124ZM10.6933 13.138C10.6933 13.6491 10.2786 14.0638 9.76756 14.0638H2.36133C1.85029 14.0638 1.43555 13.6491 1.43555 13.138V5.7318C1.43555 5.22077 1.85029 4.80602 2.36133 4.80602H3.28711V3.88024H2.36133C1.3388 3.88024 0.509766 4.70928 0.509766 5.7318V13.138C0.509766 14.1606 1.3388 14.9896 2.36133 14.9896H9.76756C10.7901 14.9896 11.6191 14.1606 11.6191 13.138V12.2123H10.6933V13.138Z" fill="currentColor"/>
</svg>
