<svg width="12" height="14" viewBox="0 0 12 14" fill="none" xmlns="http://www.w3.org/2000/svg">
<path d="M11.9792 5.02315C11.9725 4.9638 11.9595 4.90534 11.9405 4.84873V4.79059C11.9094 4.72417 11.868 4.66312 11.8177 4.60972L7.94184 0.733833C7.88844 0.683586 7.82738 0.642156 7.76096 0.611097C7.74168 0.608358 7.72211 0.608358 7.70283 0.611097C7.6372 0.573463 7.56473 0.549305 7.48965 0.540039H4.87343C4.35945 0.540039 3.86653 0.744215 3.5031 1.10765C3.13966 1.47108 2.93549 1.96401 2.93549 2.47798V3.12396H2.28951C1.77553 3.12396 1.28261 3.32814 0.919173 3.69157C0.555738 4.05501 0.351563 4.54793 0.351562 5.06191V11.5217C0.351563 12.0357 0.555738 12.5286 0.919173 12.892C1.28261 13.2555 1.77553 13.4597 2.28951 13.4597H7.45735C7.97133 13.4597 8.46425 13.2555 8.82769 12.892C9.19112 12.5286 9.3953 12.0357 9.3953 11.5217V10.8757H10.0413C10.5553 10.8757 11.0482 10.6716 11.4116 10.3081C11.775 9.94469 11.9792 9.45177 11.9792 8.93779V5.06191C11.9792 5.06191 11.9792 5.06191 11.9792 5.02315ZM8.10333 2.74283L9.77642 4.41592H8.74931C8.57799 4.41592 8.41368 4.34787 8.29254 4.22672C8.17139 4.10558 8.10333 3.94127 8.10333 3.76994V2.74283ZM8.10333 11.5217C8.10333 11.693 8.03527 11.8573 7.91413 11.9785C7.79298 12.0996 7.62868 12.1677 7.45735 12.1677H2.28951C2.11818 12.1677 1.95387 12.0996 1.83273 11.9785C1.71158 11.8573 1.64352 11.693 1.64352 11.5217V5.06191C1.64352 4.89058 1.71158 4.72627 1.83273 4.60513C1.95387 4.48398 2.11818 4.41592 2.28951 4.41592H2.93549V8.93779C2.93549 9.45177 3.13966 9.94469 3.5031 10.3081C3.86653 10.6716 4.35945 10.8757 4.87343 10.8757H8.10333V11.5217ZM10.6873 8.93779C10.6873 9.10912 10.6192 9.27342 10.4981 9.39457C10.3769 9.51571 10.2126 9.58377 10.0413 9.58377H4.87343C4.7021 9.58377 4.5378 9.51571 4.41665 9.39457C4.29551 9.27342 4.22745 9.10912 4.22745 8.93779V2.47798C4.22745 2.30666 4.29551 2.14235 4.41665 2.0212C4.5378 1.90006 4.7021 1.832 4.87343 1.832H6.81137V3.76994C6.81137 4.28392 7.01555 4.77684 7.37898 5.14028C7.74242 5.50371 8.23534 5.70789 8.74931 5.70789H10.6873V8.93779Z" fill="currentColor" fill-opacity="0.7"/>
</svg>
