<svg width="30" height="30" viewBox="0 0 30 30" fill="none" xmlns="http://www.w3.org/2000/svg">
<g clip-path="url(#clip0_295_35767)">
<path d="M20.8112 13.0222C20.8045 12.9628 20.7915 12.9044 20.7725 12.8478V12.7896C20.7414 12.7232 20.7 12.6621 20.6498 12.6087V12.6087L16.7739 8.73286C16.7205 8.68261 16.6594 8.64118 16.593 8.61012C16.5737 8.60738 16.5541 8.60738 16.5349 8.61012C16.4692 8.57249 16.3968 8.54833 16.3217 8.53906H13.7055C13.1915 8.53906 12.6986 8.74324 12.3351 9.10667C11.9717 9.47011 11.7675 9.96303 11.7675 10.477V11.123H11.1215C10.6076 11.123 10.1146 11.3272 9.7512 11.6906C9.38777 12.054 9.18359 12.547 9.18359 13.0609V19.5207C9.18359 20.0347 9.38777 20.5276 9.7512 20.8911C10.1146 21.2545 10.6076 21.4587 11.1215 21.4587H16.2894C16.8034 21.4587 17.2963 21.2545 17.6597 20.8911C18.0232 20.5276 18.2273 20.0347 18.2273 19.5207V18.8748H18.8733C19.3873 18.8748 19.8802 18.6706 20.2436 18.3071C20.6071 17.9437 20.8112 17.4508 20.8112 16.9368V13.0609C20.8112 13.0609 20.8112 13.0609 20.8112 13.0222ZM16.9354 10.7419L18.6085 12.4149H17.5813C17.41 12.4149 17.2457 12.3469 17.1246 12.2257C17.0034 12.1046 16.9354 11.9403 16.9354 11.769V10.7419ZM16.9354 19.5207C16.9354 19.6921 16.8673 19.8564 16.7462 19.9775C16.625 20.0987 16.4607 20.1667 16.2894 20.1667H11.1215C10.9502 20.1667 10.7859 20.0987 10.6648 19.9775C10.5436 19.8564 10.4756 19.6921 10.4756 19.5207V13.0609C10.4756 12.8896 10.5436 12.7253 10.6648 12.6042C10.7859 12.483 10.9502 12.4149 11.1215 12.4149H11.7675V16.9368C11.7675 17.4508 11.9717 17.9437 12.3351 18.3071C12.6986 18.6706 13.1915 18.8748 13.7055 18.8748H16.9354V19.5207ZM19.5193 16.9368C19.5193 17.1081 19.4512 17.2724 19.3301 17.3936C19.2089 17.5147 19.0446 17.5828 18.8733 17.5828H13.7055C13.5341 17.5828 13.3698 17.5147 13.2487 17.3936C13.1275 17.2724 13.0595 17.1081 13.0595 16.9368V10.477C13.0595 10.3057 13.1275 10.1414 13.2487 10.0202C13.3698 9.89908 13.5341 9.83102 13.7055 9.83102H15.6434V11.769C15.6434 12.2829 15.8476 12.7759 16.211 13.1393C16.5744 13.5027 17.0674 13.7069 17.5813 13.7069H19.5193V16.9368Z" fill="currentColor"/>
</g>
<defs>
<clipPath id="clip0_295_35767">
<rect width="13.71" height="13.71" fill="white" transform="translate(8.14453 8.14453)"/>
</clipPath>
</defs>
</svg>
