<svg width="22" height="10" viewBox="0 0 22 10" fill="none" xmlns="http://www.w3.org/2000/svg">
<path fill-rule="evenodd" clip-rule="evenodd" d="M4.93736 0.0449219H17.063C17.9636 0.0449219 18.714 0.0449218 19.309 0.125065C19.9382 0.209215 20.5062 0.395548 20.962 0.852363C21.4188 1.30818 21.6051 1.87619 21.6893 2.50532C21.7694 3.10038 21.7694 3.85072 21.7694 4.75133V4.85551C21.7694 5.75612 21.7694 6.50646 21.6893 7.10152C21.6051 7.73065 21.4188 8.29866 20.962 8.75447C20.5062 9.21129 19.9382 9.39762 19.309 9.48177C18.714 9.56192 17.9636 9.56192 17.063 9.56192H4.93736C4.03776 9.56192 3.28641 9.56192 2.69135 9.48177C2.06223 9.39762 1.49421 9.21129 1.0384 8.75447C0.581583 8.29866 0.39525 7.73065 0.3111 7.10152C0.230957 6.50646 0.230957 5.75612 0.230957 4.85551V4.75133C0.230957 3.85072 0.230957 3.10038 0.3111 2.50532C0.39525 1.87619 0.581583 1.30818 1.0374 0.852363C1.49421 0.395548 2.06223 0.209215 2.69035 0.125065C3.28641 0.0449218 4.03776 0.0449219 4.93736 0.0449219ZM2.89071 1.61372C2.42888 1.67684 2.23053 1.78403 2.1003 1.91426C1.97006 2.04449 1.86287 2.24285 1.79976 2.70567C1.73564 3.18854 1.73364 3.83769 1.73364 4.80342C1.73364 5.76914 1.73564 6.4183 1.80076 6.90217C1.86287 7.36399 1.97006 7.56235 2.1013 7.69258C2.23153 7.82281 2.42888 7.93 2.89071 7.99311C3.37457 8.05723 4.02373 8.05923 4.98945 8.05923H17.0109C17.9766 8.05923 18.6258 8.05723 19.1097 7.99211C19.5715 7.93 19.7698 7.82281 19.9001 7.69158C20.0303 7.56134 20.1375 7.36399 20.2006 6.90217C20.2647 6.4183 20.2667 5.76914 20.2667 4.80342C20.2667 3.83769 20.2647 3.18853 20.1996 2.70467C20.1375 2.24285 20.0303 2.04449 19.8991 1.91426C19.7688 1.78403 19.5715 1.67684 19.1097 1.61372C18.6258 1.54961 17.9766 1.54761 17.0109 1.54761H4.98945C4.02373 1.54761 3.37457 1.54961 2.89071 1.61372ZM4.98945 3.05029C5.18872 3.05029 5.37983 3.12945 5.52073 3.27035C5.66164 3.41126 5.7408 3.60236 5.7408 3.80163V5.80521C5.7408 6.00448 5.66164 6.19558 5.52073 6.33649C5.37983 6.47739 5.18872 6.55655 4.98945 6.55655C4.79019 6.55655 4.59908 6.47739 4.45818 6.33649C4.31727 6.19558 4.23811 6.00448 4.23811 5.80521V3.80163C4.23811 3.60236 4.31727 3.41126 4.45818 3.27035C4.59908 3.12945 4.79019 3.05029 4.98945 3.05029ZM7.99482 3.05029C8.19409 3.05029 8.3852 3.12945 8.5261 3.27035C8.667 3.41126 8.74616 3.60236 8.74616 3.80163V5.80521C8.74616 6.00448 8.667 6.19558 8.5261 6.33649C8.3852 6.47739 8.19409 6.55655 7.99482 6.55655C7.79555 6.55655 7.60445 6.47739 7.46354 6.33649C7.32264 6.19558 7.24348 6.00448 7.24348 5.80521V3.80163C7.24348 3.60236 7.32264 3.41126 7.46354 3.27035C7.60445 3.12945 7.79555 3.05029 7.99482 3.05029ZM11.7515 4.80342C11.7515 4.60415 11.8307 4.41304 11.9716 4.27214C12.1125 4.13124 12.3036 4.05208 12.5029 4.05208H17.0109C17.2102 4.05208 17.4013 4.13124 17.5422 4.27214C17.6831 4.41304 17.7623 4.60415 17.7623 4.80342C17.7623 5.00269 17.6831 5.19379 17.5422 5.3347C17.4013 5.4756 17.2102 5.55476 17.0109 5.55476H12.5029C12.3036 5.55476 12.1125 5.4756 11.9716 5.3347C11.8307 5.19379 11.7515 5.00269 11.7515 4.80342Z" fill="currentColor"/>
</svg>
