<svg width="20" height="20" viewBox="0 0 20 20" fill="none" xmlns="http://www.w3.org/2000/svg">
<path d="M17 5.19922L19.1875 3.01172L17 0.824219" stroke="currentColor" stroke-width="1.3" stroke-linecap="round" stroke-linejoin="round"/>
<path d="M3 15.25C3.46413 15.25 3.90925 15.4344 4.23744 15.7626C4.56563 16.0908 4.75 16.5359 4.75 17C4.75 17.4641 4.56563 17.9092 4.23744 18.2374C3.90925 18.5656 3.46413 18.75 3 18.75C2.53587 18.75 2.09075 18.5656 1.76256 18.2374C1.43437 17.9092 1.25 17.4641 1.25 17C1.25 16.5359 1.43437 16.0908 1.76256 15.7626C2.09075 15.4344 2.53587 15.25 3 15.25Z" stroke="currentColor" stroke-width="1.3" stroke-linejoin="round"/>
<path d="M5 17H6.25C6.81359 17 7.35409 16.8097 7.7526 16.4709C8.15112 16.1321 8.375 15.6452 8.64062 15.1935C8.64062 15.1935 12.625 5.25806 12.8906 4.80645C13.1562 4.35484 13.6458 3.86787 14.0443 3.5291C14.4428 3.19032 14.9833 3 15.5469 3H19" stroke="currentColor" stroke-width="1.3" stroke-linecap="round" stroke-linejoin="round"/>
<path d="M17 14.8496L19.1875 17.0371L17 19.2246" stroke="currentColor" stroke-width="1.3" stroke-linecap="round" stroke-linejoin="round"/>
<path d="M3 4.75C3.46413 4.75 3.90925 4.56563 4.23744 4.23744C4.56563 3.90925 4.75 3.46413 4.75 3C4.75 2.53587 4.56563 2.09075 4.23744 1.76256C3.90925 1.43437 3.46413 1.25 3 1.25C2.53587 1.25 2.09075 1.43437 1.76256 1.76256C1.43437 2.09075 1.25 2.53587 1.25 3C1.25 3.46413 1.43437 3.90925 1.76256 4.23744C2.09075 4.56563 2.53587 4.75 3 4.75Z" stroke="currentColor" stroke-width="1.3" stroke-linejoin="round"/>
<path d="M5 3H6.25C6.81359 3 7.35409 3.19032 7.7526 3.5291C8.15112 3.86787 8.375 4.35484 8.64062 4.80645C8.64062 4.80645 12.625 14.7419 12.8906 15.1935C13.1562 15.6452 13.6458 16.1321 14.0443 16.4709C14.4428 16.8097 14.9833 17 15.5469 17H19" stroke="currentColor" stroke-width="1.3" stroke-linecap="round" stroke-linejoin="round"/>
</svg>
