<svg width="30" height="30" viewBox="0 0 30 30" fill="none" xmlns="http://www.w3.org/2000/svg">
<path d="M23.4399 18.8622V22.2874C23.4399 22.7416 23.2423 23.1772 22.8906 23.4984C22.5388 23.8196 22.0617 24 21.5642 24H8.4343C7.93683 24 7.45974 23.8196 7.10798 23.4984C6.75621 23.1772 6.55859 22.7416 6.55859 22.2874V18.8622" stroke="currentColor" stroke-width="1.47565" stroke-linecap="round" stroke-linejoin="round"/>
<path d="M11.1895 9.91609L14.8153 13.5419L18.4411 9.91609" stroke="currentColor" stroke-width="1.16635" stroke-linecap="round" stroke-linejoin="round"/>
<path d="M14.8145 13.5417V6" stroke="currentColor" stroke-width="1.16635" stroke-linecap="round" stroke-linejoin="round"/>
<path d="M10.7238 20.4208C10.914 20.4208 11.0898 20.3819 11.2512 20.3041C11.4126 20.2262 11.5452 20.1196 11.6489 19.9841C11.7527 19.8458 11.8118 19.6887 11.8262 19.5129H12.5871C12.5727 19.7896 12.479 20.0475 12.3061 20.2868C12.136 20.5231 11.9126 20.7148 11.636 20.8617C11.3593 21.0059 11.0552 21.0779 10.7238 21.0779C10.3721 21.0779 10.0652 21.0159 9.80292 20.892C9.54353 20.7681 9.32737 20.598 9.15444 20.3819C8.9844 20.1657 8.85614 19.9178 8.76968 19.6383C8.68609 19.3558 8.6443 19.0575 8.6443 18.7434V18.5618C8.6443 18.2476 8.68609 17.9508 8.76968 17.6712C8.85614 17.3888 8.9844 17.1395 9.15444 16.9233C9.32737 16.7071 9.54353 16.5371 9.80292 16.4132C10.0652 16.2892 10.3721 16.2273 10.7238 16.2273C11.0898 16.2273 11.4097 16.3022 11.6835 16.4521C11.9573 16.5991 12.172 16.8008 12.3277 17.0573C12.4862 17.311 12.5727 17.5992 12.5871 17.922H11.8262C11.8118 17.7289 11.757 17.5545 11.6619 17.3989C11.5697 17.2432 11.4429 17.1193 11.2815 17.0271C11.1229 16.932 10.937 16.8844 10.7238 16.8844C10.4788 16.8844 10.2727 16.9334 10.1055 17.0314C9.94126 17.1265 9.81013 17.2562 9.71213 17.4205C9.61702 17.5819 9.54785 17.762 9.50462 17.9609C9.46427 18.1569 9.4441 18.3572 9.4441 18.5618V18.7434C9.4441 18.948 9.46427 19.1498 9.50462 19.3486C9.54497 19.5475 9.6127 19.7276 9.70781 19.889C9.8058 20.0504 9.93694 20.1801 10.1012 20.2781C10.2684 20.3732 10.4759 20.4208 10.7238 20.4208ZM16.2099 19.7507C16.2099 19.6354 16.184 19.5288 16.1321 19.4308C16.0831 19.3299 15.9808 19.2391 15.8251 19.1584C15.6724 19.0748 15.4418 19.0028 15.1334 18.9422C14.874 18.8875 14.6391 18.8226 14.4288 18.7477C14.2212 18.6728 14.044 18.582 13.897 18.4753C13.7529 18.3687 13.6419 18.2433 13.5641 18.0992C13.4863 17.9551 13.4474 17.7865 13.4474 17.5934C13.4474 17.4089 13.4877 17.2346 13.5684 17.0703C13.652 16.906 13.7687 16.7605 13.9186 16.6336C14.0714 16.5068 14.2544 16.4074 14.4677 16.3353C14.6809 16.2633 14.9187 16.2273 15.181 16.2273C15.5557 16.2273 15.8756 16.2936 16.1407 16.4261C16.4059 16.5587 16.6091 16.736 16.7503 16.9579C16.8915 17.1769 16.9621 17.4205 16.9621 17.6885H16.1624C16.1624 17.5588 16.1234 17.4334 16.0456 17.3124C15.9707 17.1885 15.8597 17.0861 15.7127 17.0054C15.5686 16.9247 15.3914 16.8844 15.181 16.8844C14.9591 16.8844 14.7789 16.919 14.6406 16.9882C14.5051 17.0544 14.4057 17.1395 14.3423 17.2432C14.2818 17.347 14.2515 17.4565 14.2515 17.5718C14.2515 17.6582 14.2659 17.7361 14.2947 17.8052C14.3264 17.8715 14.3812 17.9335 14.459 17.9911C14.5368 18.0459 14.6464 18.0978 14.7876 18.1468C14.9288 18.1958 15.1089 18.2448 15.328 18.2938C15.7113 18.3802 16.0269 18.484 16.2748 18.605C16.5226 18.7261 16.7071 18.8745 16.8281 19.0503C16.9492 19.2261 17.0097 19.4394 17.0097 19.6902C17.0097 19.8948 16.9665 20.0821 16.88 20.2522C16.7964 20.4222 16.6739 20.5692 16.5125 20.6931C16.354 20.8142 16.1638 20.9093 15.9419 20.9785C15.7228 21.0448 15.4764 21.0779 15.2026 21.0779C14.7905 21.0779 14.4417 21.0044 14.1564 20.8574C13.8711 20.7104 13.6549 20.5202 13.5079 20.2868C13.3609 20.0533 13.2874 19.8069 13.2874 19.5475H14.0915C14.1031 19.7665 14.1665 19.9409 14.2818 20.0706C14.397 20.1974 14.5383 20.2882 14.7054 20.343C14.8726 20.3948 15.0383 20.4208 15.2026 20.4208C15.4216 20.4208 15.6047 20.392 15.7517 20.3343C15.9015 20.2767 16.0154 20.1974 16.0932 20.0965C16.171 19.9957 16.2099 19.8804 16.2099 19.7507ZM19.4826 20.2695L20.7622 16.3137H21.5793L19.8976 20.9914H19.3615L19.4826 20.2695ZM18.4147 16.3137L19.7333 20.2911L19.8241 20.9914H19.288L17.5933 16.3137H18.4147Z" fill="currentColor"/>
</svg>
