<svg width="11" height="10" viewBox="0 0 11 10" fill="none" xmlns="http://www.w3.org/2000/svg">
<path d="M3 8.25C3 8.51522 2.89464 8.76957 2.70711 8.95711C2.51957 9.14464 2.26522 9.25 2 9.25C1.73478 9.25 1.48043 9.14464 1.29289 8.95711C1.10536 8.76957 1 8.51522 1 8.25C1 7.98478 1.10536 7.73043 1.29289 7.54289C1.48043 7.35536 1.73478 7.25 2 7.25C2.26522 7.25 2.51957 7.35536 2.70711 7.54289C2.89464 7.73043 3 7.98478 3 8.25ZM3 8.25H4.5C4.76522 8.25 5.01957 8.14464 5.20711 7.95711C5.39464 7.76957 5.5 7.51522 5.5 7.25V3.25C5.5 2.98478 5.60536 2.73043 5.79289 2.54289C5.98043 2.35536 6.23478 2.25 6.5 2.25H10" stroke="currentColor" stroke-linecap="round" stroke-linejoin="round"/>
<path d="M8.5 0.75L10 2.25L8.5 3.75" stroke="currentColor" stroke-linecap="round" stroke-linejoin="round"/>
</svg>
