<svg width="16" height="16" viewBox="0 0 16 16" fill="none" xmlns="http://www.w3.org/2000/svg">
<rect x="0.863959" y="0.863959" width="14.2721" height="14.2721" rx="7.13604" stroke="currentColor" stroke-width="0.727918"/>
<path d="M6.88281 9.19141H7.63281C7.59374 9.55078 7.49088 9.8724 7.32421 10.1562C7.15755 10.4401 6.92187 10.6654 6.61718 10.832C6.31249 10.9961 5.93229 11.0781 5.47656 11.0781C5.14322 11.0781 4.83984 11.0156 4.5664 10.8906C4.29557 10.7656 4.06249 10.5885 3.86718 10.3594C3.67187 10.1276 3.52083 9.85026 3.41406 9.52734C3.30989 9.20182 3.25781 8.83984 3.25781 8.44141V7.875C3.25781 7.47656 3.30989 7.11589 3.41406 6.79297C3.52083 6.46745 3.67317 6.1888 3.87109 5.95703C4.07161 5.72526 4.31249 5.54688 4.59374 5.42188C4.87499 5.29688 5.1914 5.23438 5.54296 5.23438C5.97265 5.23438 6.33593 5.3151 6.63281 5.47656C6.92968 5.63802 7.16015 5.86198 7.32421 6.14844C7.49088 6.43229 7.59374 6.76172 7.63281 7.13672H6.88281C6.84635 6.87109 6.77864 6.64323 6.67968 6.45312C6.58072 6.26042 6.4401 6.11198 6.25781 6.00781C6.07552 5.90365 5.83723 5.85156 5.54296 5.85156C5.29036 5.85156 5.0677 5.89974 4.87499 5.99609C4.68489 6.09245 4.52473 6.22917 4.39453 6.40625C4.26692 6.58333 4.17057 6.79557 4.10546 7.04297C4.04036 7.29036 4.00781 7.5651 4.00781 7.86719V8.44141C4.00781 8.72005 4.03645 8.98177 4.09374 9.22656C4.15364 9.47135 4.24348 9.6862 4.36328 9.87109C4.48307 10.056 4.63541 10.2018 4.82031 10.3086C5.0052 10.4128 5.22395 10.4648 5.47656 10.4648C5.79687 10.4648 6.05208 10.4141 6.24218 10.3125C6.43229 10.2109 6.57552 10.0651 6.67187 9.875C6.77083 9.6849 6.84114 9.45703 6.88281 9.19141ZM12.0937 9.19141H12.8437C12.8047 9.55078 12.7018 9.8724 12.5352 10.1562C12.3685 10.4401 12.1328 10.6654 11.8281 10.832C11.5234 10.9961 11.1432 11.0781 10.6875 11.0781C10.3542 11.0781 10.0508 11.0156 9.77734 10.8906C9.50651 10.7656 9.27343 10.5885 9.07812 10.3594C8.88281 10.1276 8.73177 9.85026 8.62499 9.52734C8.52083 9.20182 8.46874 8.83984 8.46874 8.44141V7.875C8.46874 7.47656 8.52083 7.11589 8.62499 6.79297C8.73177 6.46745 8.88411 6.1888 9.08203 5.95703C9.28255 5.72526 9.52343 5.54688 9.80468 5.42188C10.0859 5.29688 10.4023 5.23438 10.7539 5.23438C11.1836 5.23438 11.5469 5.3151 11.8437 5.47656C12.1406 5.63802 12.3711 5.86198 12.5352 6.14844C12.7018 6.43229 12.8047 6.76172 12.8437 7.13672H12.0937C12.0573 6.87109 11.9896 6.64323 11.8906 6.45312C11.7917 6.26042 11.651 6.11198 11.4687 6.00781C11.2865 5.90365 11.0482 5.85156 10.7539 5.85156C10.5013 5.85156 10.2786 5.89974 10.0859 5.99609C9.89583 6.09245 9.73567 6.22917 9.60546 6.40625C9.47786 6.58333 9.38151 6.79557 9.3164 7.04297C9.2513 7.29036 9.21874 7.5651 9.21874 7.86719V8.44141C9.21874 8.72005 9.24739 8.98177 9.30468 9.22656C9.36458 9.47135 9.45442 9.6862 9.57421 9.87109C9.69401 10.056 9.84635 10.2018 10.0312 10.3086C10.2161 10.4128 10.4349 10.4648 10.6875 10.4648C11.0078 10.4648 11.263 10.4141 11.4531 10.3125C11.6432 10.2109 11.7865 10.0651 11.8828 9.875C11.9818 9.6849 12.0521 9.45703 12.0937 9.19141Z" fill="currentColor"/>
</svg>