<svg width="23" height="15" viewBox="0 0 23 15" fill="none" xmlns="http://www.w3.org/2000/svg">
<path fill-rule="evenodd" clip-rule="evenodd" d="M21.5294 13.3333V1.66667H2.46276V13.3333H21.5294ZM22.9961 1.66667V13.3333C22.9961 13.7754 22.8416 14.1993 22.5665 14.5118C22.2915 14.8244 21.9184 15 21.5294 15H2.46276C2.07378 15 1.70072 14.8244 1.42567 14.5118C1.15062 14.1993 0.996094 13.7754 0.996094 13.3333V1.66667C0.996094 1.22464 1.15062 0.800716 1.42567 0.488155C1.70072 0.175595 2.07378 0 2.46276 0H21.5294C21.9184 0 22.2915 0.175595 22.5665 0.488155C22.8416 0.800716 22.9961 1.22464 22.9961 1.66667ZM3.92943 3.75C3.92943 3.63949 3.96806 3.53351 4.03682 3.45537C4.10558 3.37723 4.19885 3.33333 4.29609 3.33333H9.42943C9.52667 3.33333 9.61994 3.37723 9.6887 3.45537C9.75746 3.53351 9.79609 3.63949 9.79609 3.75V11.25C9.79609 11.3605 9.75746 11.4665 9.6887 11.5446C9.61994 11.6228 9.52667 11.6667 9.42943 11.6667H4.29609C4.19885 11.6667 4.10558 11.6228 4.03682 11.5446C3.96806 11.4665 3.92943 11.3605 3.92943 11.25V3.75ZM11.9961 6.66667C11.8016 6.66667 11.6151 6.75446 11.4775 6.91074C11.34 7.06702 11.2628 7.27899 11.2628 7.5C11.2628 7.72101 11.34 7.93297 11.4775 8.08926C11.6151 8.24554 11.8016 8.33333 11.9961 8.33333H16.3961C16.5906 8.33333 16.7771 8.24554 16.9146 8.08926C17.0522 7.93297 17.1294 7.72101 17.1294 7.5C17.1294 7.27899 17.0522 7.06702 16.9146 6.91074C16.7771 6.75446 16.5906 6.66667 16.3961 6.66667H11.9961ZM11.2628 10.8333C11.2628 10.6123 11.34 10.4004 11.4775 10.2441C11.6151 10.0878 11.8016 10 11.9961 10H19.3294C19.5239 10 19.7104 10.0878 19.848 10.2441C19.9855 10.4004 20.0628 10.6123 20.0628 10.8333C20.0628 11.0543 19.9855 11.2663 19.848 11.4226C19.7104 11.5789 19.5239 11.6667 19.3294 11.6667H11.9961C11.8016 11.6667 11.6151 11.5789 11.4775 11.4226C11.34 11.2663 11.2628 11.0543 11.2628 10.8333ZM11.9961 3.33333C11.8016 3.33333 11.6151 3.42113 11.4775 3.57741C11.34 3.73369 11.2628 3.94565 11.2628 4.16667C11.2628 4.38768 11.34 4.59964 11.4775 4.75592C11.6151 4.9122 11.8016 5 11.9961 5H17.8628C18.0573 5 18.2438 4.9122 18.3813 4.75592C18.5188 4.59964 18.5961 4.38768 18.5961 4.16667C18.5961 3.94565 18.5188 3.73369 18.3813 3.57741C18.2438 3.42113 18.0573 3.33333 17.8628 3.33333H11.9961Z" fill="currentColor"/>
</svg>
