<svg width="13" height="15" viewBox="0 0 13 15" fill="none" xmlns="http://www.w3.org/2000/svg">
<path fill-rule="evenodd" clip-rule="evenodd" d="M12.9371 2.1397C12.7358 1.34115 11.6335 0 6.48393 0C4.05757 0 2.29668 0.266182 1.24901 0.791722C0.09214 1.37186 0 2.15676 0 2.38882V6.92757C0.00541522 9.75726 1.53354 12.365 3.99956 13.7528L5.98228 14.8687C6.29379 15.0438 6.67407 15.0438 6.98558 14.8687L8.9683 13.7528C11.4343 12.365 12.9624 9.75726 12.9679 6.92757V2.38882C12.9679 2.30483 12.9576 2.22116 12.9371 2.1397ZM11.9416 6.91789C11.9417 9.38312 10.6125 11.6568 8.46415 12.866L6.48143 13.9922L4.49871 12.8763C2.35041 11.6671 1.02114 9.39336 1.02128 6.92813V2.38938C1.02128 2.38938 1.02128 1.02434 6.48143 1.02434C11.6003 1.02434 11.9416 2.38938 11.9416 2.38938V6.91789Z" fill="currentColor"/>
<path d="M12.0895 4.28082H9.17627M12.0895 5.88308H9.17627M12.0895 7.48533H9.17627" stroke="currentColor" stroke-width="0.770105" stroke-linecap="round"/>
</svg>
