<svg width="15" height="16" viewBox="0 0 15 16" fill="none" xmlns="http://www.w3.org/2000/svg">
<path d="M13.4937 4.07617H12.155H1.44537" stroke="currentColor" stroke-width="0.988606" stroke-linecap="round" stroke-linejoin="round"/>
<path d="M2.78732 13.5523V4.18136H4.79536H10.1502H12.1582V13.5523C12.1582 13.9073 12.0172 14.2478 11.7661 14.4989C11.5151 14.7499 11.1745 14.891 10.8195 14.891H4.12601C3.77097 14.891 3.43047 14.7499 3.17941 14.4989C2.92836 14.2478 2.78732 13.9073 2.78732 13.5523Z" fill="currentColor"/>
<path d="M2.78732 4.18136V13.5523C2.78732 13.9073 2.92836 14.2478 3.17941 14.4989C3.43047 14.7499 3.77097 14.891 4.12601 14.891H10.8195C11.1745 14.891 11.5151 14.7499 11.7661 14.4989C12.0172 14.2478 12.1582 13.9073 12.1582 13.5523V4.18136M2.78732 4.18136H12.1582M2.78732 4.18136H4.79536M12.1582 4.18136H10.1502M10.1502 4.18136V2.54182C10.1502 2.18678 10.0091 1.84628 9.75806 1.59522C9.50701 1.34417 9.1665 1.20313 8.81146 1.20312H6.13406C5.77902 1.20313 5.43851 1.34417 5.18746 1.59522C4.9364 1.84628 4.79536 2.18678 4.79536 2.54182V4.18136M10.1502 4.18136H4.79536" stroke="currentColor" stroke-width="0.988606" stroke-linecap="round" stroke-linejoin="round"/>
</svg>
