<svg width="30" height="30" viewBox="0 0 30 30" fill="none" xmlns="http://www.w3.org/2000/svg">
<path d="M21.04 10.86H8.99C8.72 10.86 8.5 10.64 8.5 10.37C8.5 10.1 8.72 9.88 8.99 9.88H21.04C21.31 9.88 21.53 10.1 21.53 10.37C21.53 10.64 21.31 10.86 21.04 10.86Z" fill="currentColor"/>
<path d="M19.7 10.47V13.35C19.53 13.34 19.37 13.36 19.21 13.38C15.72 13.78 13.02 16.74 13.02 20.33C13.02 20.45 13.02 20.56 13.04 20.68C13.04 20.85 13.05 21.01 13.08 21.18H11.67C11.32 21.18 10.98 21.04 10.73 20.79C10.47 20.54 10.33 20.19 10.33 19.84V10.47H19.7Z" fill="currentColor"/>
<path d="M19.7 9.97H18.19V8.83C18.19 8.34 18 7.88 17.65 7.53C17.31 7.19 16.85 7 16.36 7H13.68C13.19 7 12.73 7.19 12.38 7.53C12.04 7.88 11.85 8.34 11.85 8.83V9.97H10.33C10.06 9.97 9.84 10.2 9.84 10.47V19.84C9.84 20.33 10.03 20.79 10.38 21.14C10.73 21.49 11.19 21.67 11.67 21.67H13.15C13.12 21.51 13.09 21.34 13.08 21.18C13.05 21.01 13.04 20.85 13.04 20.68H11.67C11.45 20.68 11.23 20.59 11.08 20.44C10.92 20.28 10.83 20.07 10.83 19.84V10.96H19.21V13.38C19.37 13.36 19.53 13.34 19.7 13.35C19.81 13.33 19.91 13.33 20.02 13.33C20.08 13.33 20.14 13.33 20.2 13.34V10.47C20.2 10.2 19.98 9.97 19.7 9.97ZM12.84 8.83C12.84 8.6 12.92 8.39 13.08 8.23C13.24 8.07 13.45 7.99 13.68 7.99H16.36C16.58 7.99 16.8 8.07 16.95 8.23C17.11 8.39 17.2 8.6 17.2 8.83V9.97H12.84V8.83Z" fill="currentColor"/>
<path d="M24.5 20.5C24.5 22.9862 22.4863 25 20 25C18.0313 25 16.3888 23.7513 15.77 22.0075C15.725 21.8837 15.68 21.76 15.6463 21.625H16.8162C16.8612 21.76 16.9175 21.8837 16.985 22.0075C17.2325 22.5138 17.5925 22.9412 18.0538 23.2562C18.6163 23.6612 19.3025 23.875 20 23.875C21.8563 23.875 23.375 22.3675 23.375 20.5C23.375 18.6325 21.9688 17.2375 20.2025 17.1363C20.135 17.125 20.0675 17.125 20 17.125C19.8763 17.125 19.7637 17.1363 19.64 17.1475C19.4487 17.17 19.2687 17.2037 19.0888 17.26C18.5263 17.4175 18.0312 17.7213 17.6262 18.1263L19.4375 19.9375H15.5V16L16.8162 17.3275C17.2325 16.9113 17.7275 16.5738 18.2787 16.3488C18.5375 16.2363 18.8075 16.1575 19.0888 16.1013C19.2687 16.0563 19.46 16.0338 19.64 16.0225C19.7637 16 19.8763 16 20 16C20.0675 16 20.135 16 20.2025 16.0113C22.5988 16.1125 24.5 18.0812 24.5 20.5Z" fill="currentColor"/>
</svg>
