<svg xmlns="http://www.w3.org/2000/svg" width="24" height="24" viewBox="0 0 24 24" fill="none" style="&#10;">
<path fill-rule="evenodd" clip-rule="evenodd" d="M14.77 8.57C14.77 8.84 14.54 9.03 14.29 9.03H9.23C8.98 9.03 8.75 8.84 8.75 8.57C8.75 8.3 8.98 8.11 9.23 8.11H14.29C14.54 8.11 14.77 8.3 14.77 8.57Z" fill="currentColor"/>
<path fill-rule="evenodd" clip-rule="evenodd" d="M14.77 11.18C14.77 11.45 14.54 11.64 14.29 11.64H9.23C8.98 11.64 8.75 11.45 8.75 11.18C8.75 10.91 8.98 10.72 9.23 10.72H14.29C14.54 10.72 14.77 10.91 14.77 11.18Z" fill="currentColor"/>
<path fill-rule="evenodd" clip-rule="evenodd" d="M11.4 13.79C11.4 14.06 11.17 14.25 10.91 14.25H9.23C8.98 14.25 8.75 14.06 8.75 13.79C8.75 13.52 8.98 13.33 9.23 13.33H10.91C11.17 13.33 11.4 13.53 11.4 13.79Z" fill="currentColor"/>
<path fill-rule="evenodd" clip-rule="evenodd" d="M17.02 8.05V10.08C17.02 10.35 16.79 10.54 16.54 10.54C16.29 10.54 16.06 10.35 16.06 10.08V8.05C16.06 7.16 15.28 6.42 14.29 6.42H9.23C8.24 6.42 7.46 7.16 7.46 8.05V15.88C7.46 16.77 8.24 17.51 9.23 17.51H10.7C10.95 17.51 11.18 17.7 11.18 17.97C11.18 18.24 10.95 18.43 10.7 18.43H9.23C7.73 18.43 6.5 17.3 6.5 15.88V8.05C6.5 6.63 7.73 5.5 9.23 5.5H14.29C15.78 5.5 17.02 6.63 17.02 8.05Z" fill="currentColor"/>
<path d="M19.2094 11.21C19.0594 11.06 18.8794 10.95 18.6894 10.87C18.4994 10.79 18.2894 10.75 18.0794 10.75C17.6894 10.75 17.3194 10.89 17.0294 11.14L14.3294 13.84C13.2394 14.94 12.3994 16.3 11.8994 17.77C11.8694 17.87 11.8594 17.98 11.8994 18.09C11.9194 18.18 11.9594 18.27 12.0294 18.34L12.0594 18.38L12.0794 18.4H12.0894C12.1294 18.45 12.1894 18.48 12.2494 18.5C12.3194 18.53 12.3894 18.55 12.4694 18.55C12.5394 18.55 12.5994 18.55 12.6594 18.52C14.1294 18.02 15.4894 17.18 16.5894 16.09L19.2194 13.46C19.5194 13.16 19.6794 12.76 19.6794 12.34C19.6794 11.92 19.5194 11.51 19.2194 11.21H19.2094ZM18.0094 13.38L17.0394 12.41L17.5994 11.85C17.6594 11.78 17.7394 11.73 17.8194 11.7C17.9894 11.63 18.1894 11.63 18.3494 11.7C18.4294 11.73 18.5094 11.78 18.5694 11.85C18.6294 11.91 18.6794 11.99 18.7194 12.07C18.7494 12.15 18.7694 12.24 18.7694 12.34C18.7694 12.43 18.7494 12.52 18.7194 12.6C18.6894 12.68 18.6294 12.76 18.5694 12.82L18.0094 13.38ZM15.9694 15.42C15.1094 16.28 14.1094 16.95 12.9994 17.42C13.4594 16.32 14.1194 15.33 14.9694 14.48L16.3994 13.04L17.3794 14.02L15.9694 15.42Z" fill="currentColor"/>
</svg>
