<svg width="8" height="8" viewBox="0 0 8 8" fill="none" xmlns="http://www.w3.org/2000/svg">
<path d="M4.5 0.5C4.5 0.223858 4.27614 -1.20705e-08 4 0C3.72386 4.18729e-08 3.5 0.223858 3.5 0.5L4.5 0.5ZM3.64645 7.85389C3.84171 8.04916 4.15829 8.04916 4.35355 7.85389L7.53553 4.67191C7.7308 4.47665 7.7308 4.16007 7.53553 3.96481C7.34027 3.76954 7.02369 3.76954 6.82843 3.96481L4 6.79323L1.17157 3.96481C0.97631 3.76955 0.659728 3.76955 0.464466 3.96481C0.269204 4.16007 0.269204 4.47665 0.464466 4.67191L3.64645 7.85389ZM3.5 0.5L3.5 7.50034L4.5 7.50034L4.5 0.5L3.5 0.5Z" fill="currentColor"/>
</svg>
