<svg width="86" height="25" viewBox="0 0 86 25" fill="none" xmlns="http://www.w3.org/2000/svg">
<path d="M83.6738 12.0946V12.7696H79.9404V12.0946H83.6738ZM81.3112 10.1797H82.1309V17.736C82.1309 18.0804 82.1768 18.3399 82.2686 18.5144C82.3605 18.6889 82.4799 18.806 82.6268 18.8657C82.7738 18.9254 82.9322 18.9552 83.1021 18.9552C83.2261 18.9552 83.3455 18.9483 83.4603 18.9346C83.5751 18.9162 83.6784 18.8978 83.7703 18.8795L83.8047 19.5752C83.7037 19.6073 83.5728 19.6326 83.4121 19.6509C83.2513 19.6739 83.0906 19.6854 82.9299 19.6854C82.613 19.6854 82.3329 19.628 82.0895 19.5132C81.8462 19.3938 81.6556 19.1917 81.5178 18.907C81.3801 18.6177 81.3112 18.2251 81.3112 17.7291V10.1797Z" fill="currentColor"/>
<path d="M76.579 13.3278V19.5478H75.7593V12.0948H76.5583L76.579 13.3278ZM79.2171 12.0397L79.1965 12.7974C79.1046 12.7836 79.0151 12.7721 78.9278 12.7629C78.8406 12.7538 78.7465 12.7492 78.6454 12.7492C78.2872 12.7492 77.9727 12.8158 77.7017 12.9489C77.4354 13.0775 77.2104 13.2589 77.0267 13.4931C76.843 13.7227 76.703 13.9936 76.6065 14.3059C76.5101 14.6136 76.455 14.9442 76.4412 15.2978L76.1381 15.4149C76.1381 14.9281 76.1886 14.4758 76.2897 14.0579C76.3907 13.64 76.5445 13.275 76.7512 12.9627C76.9624 12.6458 77.2265 12.4002 77.5433 12.2257C77.8648 12.0466 78.2413 11.957 78.673 11.957C78.7786 11.957 78.8819 11.9662 78.9829 11.9846C79.0886 11.9984 79.1666 12.0167 79.2171 12.0397Z" fill="currentColor"/>
<path d="M71.3364 19.6856C70.8496 19.6856 70.4019 19.596 69.9932 19.4169C69.5891 19.2378 69.2355 18.9853 68.9324 18.6592C68.6339 18.3332 68.402 17.9475 68.2367 17.502C68.076 17.052 67.9956 16.5606 67.9956 16.0279V15.7318C67.9956 15.1577 68.0806 14.6388 68.2505 14.175C68.4204 13.7112 68.6546 13.314 68.9531 12.9834C69.2516 12.6527 69.5914 12.4002 69.9725 12.2257C70.3583 12.0466 70.7624 11.957 71.1848 11.957C71.6578 11.957 72.078 12.042 72.4454 12.2119C72.8127 12.3772 73.1204 12.6137 73.3684 12.9214C73.6209 13.2245 73.8115 13.5849 73.9401 14.0028C74.0687 14.4161 74.133 14.873 74.133 15.3736V15.8764H68.4916V15.1738H73.3133V15.0774C73.3041 14.6595 73.2191 14.2692 73.0584 13.9064C72.9023 13.539 72.6681 13.2405 72.3558 13.0109C72.0436 12.7813 71.6532 12.6665 71.1848 12.6665C70.8358 12.6665 70.5144 12.74 70.2205 12.8869C69.9312 13.0339 69.6809 13.2451 69.4697 13.5206C69.263 13.7916 69.1023 14.1153 68.9875 14.4919C68.8773 14.8638 68.8222 15.2771 68.8222 15.7318V16.0279C68.8222 16.4412 68.8819 16.827 69.0013 17.1852C69.1253 17.5388 69.2998 17.851 69.5248 18.1219C69.7544 18.3929 70.0253 18.6041 70.3376 18.7557C70.6499 18.9072 70.9943 18.983 71.3708 18.983C71.8117 18.983 72.202 18.9026 72.5418 18.7419C72.8816 18.5766 73.187 18.3171 73.4579 17.9635L73.9745 18.363C73.8138 18.6018 73.6118 18.8222 73.3684 19.0243C73.1296 19.2264 72.8426 19.3871 72.5074 19.5065C72.1721 19.6259 71.7818 19.6856 71.3364 19.6856Z" fill="currentColor"/>
<path d="M61.4452 13.5275V24.0108H60.6187V12.0948H61.3901L61.4452 13.5275ZM66.6251 15.7524V15.8971C66.6251 16.4527 66.5609 16.9624 66.4323 17.4262C66.3037 17.89 66.1177 18.2919 65.8743 18.6317C65.6355 18.9669 65.3394 19.2264 64.9858 19.41C64.6322 19.5937 64.2304 19.6856 63.7803 19.6856C63.3349 19.6856 62.9377 19.6167 62.5887 19.4789C62.2397 19.3412 61.9389 19.146 61.6863 18.8934C61.4383 18.6363 61.2386 18.3378 61.087 17.998C60.9401 17.6536 60.8368 17.277 60.7771 16.8683V14.9603C60.846 14.5102 60.9585 14.1016 61.1146 13.7342C61.2707 13.3668 61.4705 13.05 61.7139 12.7836C61.9618 12.5173 62.2557 12.3129 62.5956 12.1706C62.9354 12.0282 63.3234 11.957 63.7597 11.957C64.2143 11.957 64.6184 12.0466 64.972 12.2257C65.3302 12.4002 65.6309 12.655 65.8743 12.9903C66.1223 13.3209 66.3083 13.7204 66.4323 14.1888C66.5609 14.6526 66.6251 15.1738 66.6251 15.7524ZM65.7986 15.8971V15.7524C65.7986 15.3162 65.7526 14.9121 65.6608 14.5401C65.5735 14.1681 65.4381 13.8444 65.2544 13.5689C65.0753 13.2887 64.8457 13.0706 64.5656 12.9145C64.2901 12.7584 63.9617 12.6803 63.5806 12.6803C63.1856 12.6803 62.8481 12.7469 62.568 12.88C62.2925 13.0086 62.0629 13.1808 61.8792 13.3967C61.6955 13.6079 61.5509 13.8398 61.4452 14.0924C61.3396 14.3449 61.2615 14.5929 61.211 14.8363V17.0336C61.2983 17.3826 61.4383 17.7064 61.6312 18.0049C61.8241 18.2987 62.0812 18.5352 62.4027 18.7143C62.7287 18.8888 63.1259 18.9761 63.5943 18.9761C63.9709 18.9761 64.2969 18.898 64.5725 18.7419C64.848 18.5858 65.0753 18.3676 65.2544 18.0875C65.4381 17.8074 65.5735 17.4813 65.6608 17.1094C65.7526 16.7374 65.7986 16.3333 65.7986 15.8971Z" fill="currentColor"/>
<path d="M54.2305 7.01367L55.2119 11.3095L57.5277 7.01367H60.4116L56.5204 13.3412L58.423 19.5482H55.6767L54.6953 15.1749L52.3279 19.5482H49.4009L53.3868 13.126L51.5187 7.01367H54.2305Z" fill="currentColor"/>
<path d="M47.6927 16.3697H49.2661C49.2157 17.0283 49.0479 17.6155 48.7626 18.1313C48.4773 18.6426 48.0766 19.0456 47.5605 19.3404C47.0444 19.6351 46.4172 19.7825 45.6787 19.7825C45.1123 19.7825 44.6025 19.672 44.1494 19.4509C43.6963 19.2252 43.3082 18.9074 42.9851 18.4975C42.662 18.083 42.4145 17.5833 42.2425 16.9983C42.0746 16.4134 41.9907 15.7594 41.9907 15.0363V14.2004C41.9907 13.4773 42.0767 12.8233 42.2488 12.2383C42.425 11.6534 42.6767 11.1537 43.004 10.7392C43.3312 10.32 43.7235 9.99995 44.1809 9.77888C44.6424 9.5578 45.1606 9.44727 45.7354 9.44727C46.4654 9.44727 47.0822 9.59465 47.5857 9.88941C48.0892 10.1842 48.4794 10.5918 48.7563 11.1122C49.0374 11.6327 49.2094 12.2291 49.2724 12.9016H47.699C47.657 12.4686 47.5647 12.0979 47.4221 11.7893C47.2836 11.4807 47.078 11.2458 46.8053 11.0846C46.5326 10.9188 46.1759 10.8359 45.7354 10.8359C45.3746 10.8359 45.0599 10.9096 44.7914 11.057C44.5228 11.2043 44.2984 11.4208 44.1179 11.7064C43.9375 11.9919 43.8012 12.3443 43.7089 12.7634C43.6208 13.1779 43.5767 13.6523 43.5767 14.1866V15.0363C43.5767 15.5429 43.6166 16.0035 43.6963 16.418C43.7802 16.8279 43.9061 17.1803 44.0739 17.475C44.2459 17.7698 44.4641 17.9978 44.7284 18.159C44.9927 18.3202 45.3095 18.4008 45.6787 18.4008C46.1277 18.4008 46.4906 18.3225 46.7675 18.1659C47.0486 18.0093 47.2605 17.7813 47.4032 17.4819C47.55 17.178 47.6465 16.8072 47.6927 16.3697Z" fill="currentColor"/>
<path d="M40.8153 14.3385V14.8912C40.8153 15.6512 40.7289 16.3328 40.5561 16.9362C40.3833 17.5395 40.1362 18.0531 39.8147 18.4768C39.4972 18.9005 39.1155 19.2252 38.6694 19.4509C38.2234 19.672 37.7291 19.7825 37.1866 19.7825C36.6481 19.7825 36.1558 19.672 35.7097 19.4509C35.2677 19.2252 34.8839 18.9005 34.5584 18.4768C34.2329 18.0531 33.9798 17.5395 33.7989 16.9362C33.6221 16.3328 33.5337 15.6512 33.5337 14.8912V14.3385C33.5337 13.5786 33.6221 12.8993 33.7989 12.3005C33.9757 11.6972 34.2249 11.1836 34.5464 10.7599C34.8719 10.3316 35.2556 10.0069 35.6977 9.78579C36.1438 9.56011 36.636 9.44727 37.1745 9.44727C37.717 9.44727 38.2113 9.56011 38.6574 9.78579C39.1034 10.0069 39.4872 10.3316 39.8087 10.7599C40.1302 11.1836 40.3773 11.6972 40.5501 12.3005C40.7269 12.8993 40.8153 13.5786 40.8153 14.3385ZM39.3023 14.8912V14.3247C39.3023 13.7628 39.2541 13.2677 39.1577 12.8394C39.0652 12.4064 38.9266 12.0449 38.7418 11.7547C38.5609 11.46 38.3379 11.2389 38.0727 11.0915C37.8074 10.9395 37.5081 10.8635 37.1745 10.8635C36.841 10.8635 36.5436 10.9395 36.2824 11.0915C36.0212 11.2389 35.7982 11.46 35.6133 11.7547C35.4325 12.0449 35.2938 12.4064 35.1974 12.8394C35.1009 13.2677 35.0527 13.7628 35.0527 14.3247V14.8912C35.0527 15.4531 35.1009 15.9505 35.1974 16.3835C35.2938 16.8164 35.4345 17.1826 35.6193 17.4819C35.8082 17.7767 36.0332 18.0001 36.2944 18.1521C36.5557 18.2995 36.853 18.3731 37.1866 18.3731C37.5241 18.3731 37.8235 18.2995 38.0847 18.1521C38.3459 18.0001 38.5669 17.7767 38.7478 17.4819C38.9286 17.1826 39.0652 16.8164 39.1577 16.3835C39.2541 15.9505 39.3023 15.4531 39.3023 14.8912Z" fill="currentColor"/>
<mask id="path-8-outside-1_166_1408" maskUnits="userSpaceOnUse" x="24.3184" y="8.55225" width="9" height="12" fill="black">
<rect fill="currentColor" x="24.3184" y="8.55225" width="9" height="12"/>
<path d="M28.0156 9.55225C28.6394 9.55228 29.2088 9.66175 29.7236 9.88135C30.2386 10.0965 30.6818 10.4107 31.0527 10.8228C31.428 11.2302 31.7162 11.7248 31.917 12.3062C32.1177 12.8829 32.2178 13.5332 32.2178 14.2563V14.853C32.2178 15.5762 32.1177 16.2287 31.917 16.8101C31.7162 17.3869 31.4256 17.8792 31.0459 18.2866C30.6706 18.694 30.217 19.0083 29.6846 19.228C29.1566 19.4431 28.5607 19.5503 27.8975 19.5503H25.3184V9.55225H28.0156ZM26.582 18.4722H27.8975C28.5783 18.4722 29.1457 18.3234 29.5996 18.0259C30.0535 17.7237 30.3941 17.3024 30.6211 16.7622C30.8523 16.2175 30.9678 15.5808 30.9678 14.853V14.2417C30.9677 13.6696 30.9024 13.1612 30.7715 12.7173C30.6406 12.2688 30.4484 11.8911 30.1953 11.5845C29.9422 11.2732 29.6322 11.0377 29.2656 10.8774C28.9035 10.7173 28.4868 10.6372 28.0156 10.6372H26.582V18.4722Z"/>
</mask>
<path d="M28.0156 9.55225C28.6394 9.55228 29.2088 9.66175 29.7236 9.88135C30.2386 10.0965 30.6818 10.4107 31.0527 10.8228C31.428 11.2302 31.7162 11.7248 31.917 12.3062C32.1177 12.8829 32.2178 13.5332 32.2178 14.2563V14.853C32.2178 15.5762 32.1177 16.2287 31.917 16.8101C31.7162 17.3869 31.4256 17.8792 31.0459 18.2866C30.6706 18.694 30.217 19.0083 29.6846 19.228C29.1566 19.4431 28.5607 19.5503 27.8975 19.5503H25.3184V9.55225H28.0156ZM26.582 18.4722H27.8975C28.5783 18.4722 29.1457 18.3234 29.5996 18.0259C30.0535 17.7237 30.3941 17.3024 30.6211 16.7622C30.8523 16.2175 30.9678 15.5808 30.9678 14.853V14.2417C30.9677 13.6696 30.9024 13.1612 30.7715 12.7173C30.6406 12.2688 30.4484 11.8911 30.1953 11.5845C29.9422 11.2732 29.6322 11.0377 29.2656 10.8774C28.9035 10.7173 28.4868 10.6372 28.0156 10.6372H26.582V18.4722Z" fill="currentColor"/>
<path d="M28.0156 9.55225L28.0156 9.43225H28.0156V9.55225ZM29.7236 9.88135L29.6765 9.99173L29.6774 9.99207L29.7236 9.88135ZM31.0527 10.8228L30.9636 10.9031L30.9645 10.9041L31.0527 10.8228ZM31.917 12.3062L31.8036 12.3453L31.8037 12.3456L31.917 12.3062ZM31.917 16.8101L32.0303 16.8495L32.0304 16.8492L31.917 16.8101ZM31.0459 18.2866L30.9581 18.2048L30.9576 18.2053L31.0459 18.2866ZM29.6846 19.228L29.7298 19.3392L29.7303 19.339L29.6846 19.228ZM25.3184 19.5503H25.1984V19.6703H25.3184V19.5503ZM25.3184 9.55225V9.43225H25.1984V9.55225H25.3184ZM26.582 18.4722H26.462V18.5922H26.582V18.4722ZM29.5996 18.0259L29.6654 18.1262L29.6661 18.1258L29.5996 18.0259ZM30.6211 16.7622L30.5106 16.7153L30.5105 16.7157L30.6211 16.7622ZM30.9678 14.2417H31.0878V14.2417L30.9678 14.2417ZM30.7715 12.7173L30.6563 12.7509L30.6564 12.7512L30.7715 12.7173ZM30.1953 11.5845L30.1022 11.6602L30.1028 11.6609L30.1953 11.5845ZM29.2656 10.8774L29.2171 10.9872L29.2176 10.9874L29.2656 10.8774ZM28.0156 10.6372L28.0156 10.5172H28.0156V10.6372ZM26.582 10.6372V10.5172H26.462V10.6372H26.582ZM28.0156 9.55225L28.0156 9.67225C28.6252 9.67228 29.1783 9.77919 29.6766 9.99173L29.7236 9.88135L29.7707 9.77097C29.2394 9.54432 28.6537 9.43228 28.0156 9.43225L28.0156 9.55225ZM29.7236 9.88135L29.6774 9.99207C30.176 10.2004 30.6045 10.5043 30.9636 10.903L31.0527 10.8228L31.1419 10.7425C30.759 10.3172 30.3012 9.99261 29.7699 9.77062L29.7236 9.88135ZM31.0527 10.8228L30.9645 10.9041C31.3274 11.298 31.6076 11.7779 31.8036 12.3453L31.917 12.3062L32.0304 12.267C31.8249 11.6717 31.5287 11.1623 31.141 10.7415L31.0527 10.8228ZM31.917 12.3062L31.8037 12.3456C31.9992 12.9075 32.0978 13.5442 32.0978 14.2563H32.2178H32.3378C32.3378 13.5222 32.2361 12.8582 32.0303 12.2667L31.917 12.3062ZM32.2178 14.2563H32.0978V14.853H32.2178H32.3378V14.2563H32.2178ZM32.2178 14.853H32.0978C32.0978 15.5652 31.9992 16.2042 31.8036 16.7709L31.917 16.8101L32.0304 16.8492C32.2362 16.2533 32.3378 15.5872 32.3378 14.853H32.2178ZM31.917 16.8101L31.8037 16.7706C31.6079 17.3332 31.3254 17.8107 30.9581 18.2048L31.0459 18.2866L31.1337 18.3684C31.5258 17.9477 31.8246 17.4406 32.0303 16.8495L31.917 16.8101ZM31.0459 18.2866L30.9576 18.2053C30.5946 18.5994 30.1556 18.9038 29.6388 19.1171L29.6846 19.228L29.7303 19.339C30.2783 19.1128 30.7466 18.7886 31.1342 18.3679L31.0459 18.2866ZM29.6846 19.228L29.6393 19.1169C29.1279 19.3252 28.5478 19.4303 27.8975 19.4303V19.5503V19.6703C28.5737 19.6703 29.1853 19.561 29.7298 19.3392L29.6846 19.228ZM27.8975 19.5503V19.4303H25.3184V19.5503V19.6703H27.8975V19.5503ZM25.3184 19.5503H25.4384V9.55225H25.3184H25.1984V19.5503H25.3184ZM25.3184 9.55225V9.67225H28.0156V9.55225V9.43225H25.3184V9.55225ZM26.582 18.4722V18.5922H27.8975V18.4722V18.3522H26.582V18.4722ZM27.8975 18.4722V18.5922C28.5957 18.5922 29.1875 18.4395 29.6654 18.1262L29.5996 18.0259L29.5338 17.9255C29.1039 18.2074 28.5609 18.3522 27.8975 18.3522V18.4722ZM29.5996 18.0259L29.6661 18.1258C30.1411 17.8096 30.4964 17.369 30.7317 16.8087L30.6211 16.7622L30.5105 16.7157C30.2919 17.2359 29.9659 17.6379 29.5331 17.926L29.5996 18.0259ZM30.6211 16.7622L30.7316 16.8091C30.9704 16.2465 31.0878 15.5933 31.0878 14.853H30.9678H30.8478C30.8478 15.5684 30.7343 16.1884 30.5106 16.7153L30.6211 16.7622ZM30.9678 14.853H31.0878V14.2417H30.9678H30.8478V14.853H30.9678ZM30.9678 14.2417L31.0878 14.2417C31.0877 13.6608 31.0214 13.1406 30.8866 12.6833L30.7715 12.7173L30.6564 12.7512C30.7834 13.1819 30.8477 13.6785 30.8478 14.2417L30.9678 14.2417ZM30.7715 12.7173L30.8867 12.6837C30.752 12.2222 30.5529 11.8293 30.2879 11.5081L30.1953 11.5845L30.1028 11.6609C30.3438 11.9529 30.5291 12.3154 30.6563 12.7509L30.7715 12.7173ZM30.1953 11.5845L30.2884 11.5088C30.0232 11.1827 29.6978 10.9354 29.3137 10.7675L29.2656 10.8774L29.2176 10.9874C29.5666 11.1399 29.8612 11.3638 30.1022 11.6602L30.1953 11.5845ZM29.2656 10.8774L29.3142 10.7677C28.9341 10.5996 28.5004 10.5172 28.0156 10.5172L28.0156 10.6372L28.0156 10.7572C28.4733 10.7572 28.8729 10.8349 29.2171 10.9872L29.2656 10.8774ZM28.0156 10.6372V10.5172H26.582V10.6372V10.7572H28.0156V10.6372ZM26.582 10.6372H26.462V18.4722H26.582H26.702V10.6372H26.582Z" fill="currentColor" mask="url(#path-8-outside-1_166_1408)"/>
<circle cx="1.29192" cy="1.29192" r="1.29192" transform="matrix(-4.37114e-08 -1 -1 4.37114e-08 66.4824 24.0117)" fill="#29DF76"/>
<circle cx="1.29192" cy="1.29192" r="1.29192" transform="matrix(-4.37114e-08 -1 -1 4.37114e-08 70.2407 24.0117)" fill="#FFE207"/>
<circle cx="1.29192" cy="1.29192" r="1.29192" transform="matrix(-4.37114e-08 -1 -1 4.37114e-08 73.999 24.0117)" fill="#FC4C5D"/>
<path d="M20.7764 7.17383L18.5679 19.287H16.4292L18.6377 7.17383H20.7764Z" fill="currentColor"/>
<path d="M11.4974 8.89597L5.9543 19.287H3.63232L10.4761 7.17383H11.9688L11.4974 8.89597ZM12.702 19.287L10.9038 8.67134L11.0347 7.17383H12.4227L14.8756 19.287H12.702ZM13.3218 14.7945L13.0163 16.4501H6.29474L6.60027 14.7945H13.3218Z" fill="currentColor"/>
<g clip-path="url(#clip0_166_1408)">
<path d="M0.40882 9.36233C2.45174 9.3953 3.37734 8.55899 3.46217 6.50632C3.37734 8.55899 4.22642 9.42394 6.27554 9.457C4.22642 9.42394 3.30601 10.2849 3.22219 12.313C3.30601 10.2849 2.45174 9.3953 0.40882 9.36233Z" fill="currentColor" stroke="currentColor" stroke-width="0.487443" stroke-linejoin="round"/>
</g>
<g clip-path="url(#clip1_166_1408)">
<path d="M6.48029 4.50649C7.76296 4.52722 8.34412 4.00214 8.39741 2.71335C8.34412 4.00214 8.87722 4.54522 10.1638 4.566C8.87722 4.54522 8.29931 5.08575 8.24666 6.35915C8.29931 5.08575 7.76296 4.52722 6.48029 4.50649Z" fill="currentColor" stroke="currentColor" stroke-width="0.306047" stroke-linejoin="round"/>
</g>
<defs>
<clipPath id="clip0_166_1408">
<rect width="7.09445" height="7.74887" fill="currentColor" transform="matrix(0.99987 0.0161345 -0.0412922 0.999147 0.319824 5.48828)"/>
</clipPath>
<clipPath id="clip1_166_1408">
<rect width="4.94104" height="4.89403" fill="currentColor" transform="matrix(0.99987 0.0161531 -0.0413127 0.999146 6.04053 1.93164)"/>
</clipPath>
</defs>
</svg>
