<svg xmlns="http://www.w3.org/2000/svg" width="24" height="24" viewBox="0 0 24 24" fill="none">
  <path
    d="M13.1086 11.0385H16.9547M13.1086 16.3754H16.9547M20.7117 20.4615C20.7117 20.8696 20.5496 21.2609 20.261 21.5494C19.9725 21.8379 19.5812 22 19.1732 22H5.32704C4.91901 22 4.5277 21.8379 4.23918 21.5494C3.95066 21.2609 3.78857 20.8696 3.78857 20.4615V3.53846C3.78857 3.13044 3.95066 2.73912 4.23918 2.4506C4.5277 2.16209 4.91901 2 5.32704 2H13.9209C14.3289 2.00009 14.7201 2.16223 15.0086 2.45077L20.2609 7.70308C20.5494 7.99153 20.7116 8.38278 20.7117 8.79077V20.4615Z"
    stroke="var(--text-primary)"
    stroke-linecap="round"
    stroke-linejoin="round"
  />
  <circle cx="9.5" cy="11" r="1" fill="var(--text-primary)" />
  <circle cx="9.5" cy="16" r="1" fill="var(--text-primary)" />
</svg>
