<svg width="18" height="18" viewBox="0 0 18 18" fill="none" xmlns="http://www.w3.org/2000/svg">
<path d="M3.1665 0.666656H14.8332C16.2139 0.666656 17.3332 1.78594 17.3332 3.16666V14.8333C17.3332 16.214 16.2139 17.3333 14.8332 17.3333H3.1665C1.78579 17.3333 0.666504 16.214 0.666504 14.8333V3.16666C0.666504 1.78594 1.78579 0.666656 3.1665 0.666656ZM4.83317 6.49999H13.1665C13.6267 6.49999 13.9998 6.12689 13.9998 5.66666C13.9998 5.20642 13.6267 4.83332 13.1665 4.83332H4.83317C4.37293 4.83332 3.99984 5.20642 3.99984 5.66666C3.99984 6.12689 4.37293 6.49999 4.83317 6.49999ZM4.83317 9.83332H13.1665C13.6267 9.83332 13.9998 9.46023 13.9998 8.99999C13.9998 8.53975 13.6267 8.16666 13.1665 8.16666H4.83317C4.37293 8.16666 3.99984 8.53975 3.99984 8.99999C3.99984 9.46023 4.37293 9.83332 4.83317 9.83332ZM4.83317 13.1667H8.99984C9.46007 13.1667 9.83317 12.7936 9.83317 12.3333C9.83317 11.8731 9.46007 11.5 8.99984 11.5H4.83317C4.37293 11.5 3.99984 11.8731 3.99984 12.3333C3.99984 12.7936 4.37293 13.1667 4.83317 13.1667Z" fill="currentcolor"/>
</svg>
