<svg width="14" height="10" viewBox="0 0 14 10" fill="none" xmlns="http://www.w3.org/2000/svg">
<path d="M5.64519 4.50495L1.34534 0.205241C1.07182 -0.0684135 0.628351 -0.0684135 0.354961 0.205241C0.0815496 0.478652 0.0815496 0.922099 0.354961 1.19549L4.15966 5.00007L0.355072 8.80452C0.08166 9.07805 0.08166 9.52145 0.355072 9.79486C0.628484 10.0684 1.07193 10.0684 1.34545 9.79486L5.6453 5.49508C5.78201 5.35831 5.85029 5.17925 5.85029 5.00009C5.85029 4.82085 5.78188 4.64165 5.64519 4.50495Z" fill="currentColor"/>
<path d="M13.6452 4.50495L9.34534 0.205241C9.07182 -0.0684135 8.62835 -0.0684135 8.35496 0.205241C8.08155 0.478652 8.08155 0.922099 8.35496 1.19549L12.1597 5.00007L8.35507 8.80452C8.08166 9.07805 8.08166 9.52145 8.35507 9.79486C8.62848 10.0684 9.07193 10.0684 9.34545 9.79486L13.6453 5.49508C13.782 5.35831 13.8503 5.17925 13.8503 5.00009C13.8503 4.82085 13.7819 4.64165 13.6452 4.50495Z" fill="currentColor"/>
</svg>
