<svg xmlns="http://www.w3.org/2000/svg" width="16" height="16" viewBox="0 0 16 16" fill="none">
<path d="M10.242 3.88086C10.384 3.88086 10.5203 3.9373 10.6208 4.03777C10.7212 4.13823 10.7777 4.27449 10.7777 4.41657V5.84515H12.197C12.339 5.84515 12.4753 5.90159 12.5758 6.00205C12.6762 6.10252 12.7327 6.23878 12.7327 6.38086C12.7327 6.52294 12.6762 6.6592 12.5758 6.75967C12.4753 6.86013 12.339 6.91657 12.197 6.91657H10.7777V8.34515C10.7777 8.48723 10.7212 8.62349 10.6208 8.72395C10.5203 8.82442 10.384 8.88086 10.242 8.88086C10.0999 8.88086 9.96361 8.82442 9.86314 8.72395C9.76268 8.62349 9.70624 8.48723 9.70624 8.34515V6.91657H8.26838C8.1263 6.91657 7.99004 6.86013 7.88957 6.75967C7.78911 6.6592 7.73267 6.52294 7.73267 6.38086C7.73267 6.23878 7.78911 6.10252 7.88957 6.00205C7.99004 5.90159 8.1263 5.84515 8.26838 5.84515H9.70624V4.41657C9.70624 4.27449 9.76268 4.13823 9.86314 4.03777C9.96361 3.9373 10.0999 3.88086 10.242 3.88086Z" fill="currentColor"/>
<path d="M4.8927 2.27344C4.8927 1.58344 5.4527 1.02344 6.1427 1.02344H14.3398C15.0298 1.02344 15.5898 1.58344 15.5898 2.27344V10.4863C15.5898 10.8178 15.4581 11.1358 15.2237 11.3702C14.9893 11.6046 14.6714 11.7363 14.3398 11.7363H6.1427C5.81118 11.7363 5.49324 11.6046 5.25882 11.3702C5.0244 11.1358 4.8927 10.8178 4.8927 10.4863V2.27344ZM6.1427 2.09487C6.09534 2.09487 6.04992 2.11368 6.01643 2.14717C5.98294 2.18066 5.96413 2.22608 5.96413 2.27344V10.4863C5.96413 10.5856 6.04413 10.6649 6.1427 10.6649H14.3398C14.3872 10.6649 14.4326 10.6461 14.4661 10.6126C14.4996 10.5791 14.5184 10.5337 14.5184 10.4863V2.27344C14.5184 2.22608 14.4996 2.18066 14.4661 2.14717C14.4326 2.11368 14.3872 2.09487 14.3398 2.09487H6.1427Z" fill="currentColor"/>
<path d="M1.30054 7.27317C1.30044 7.10896 1.33271 6.94634 1.39548 6.7946C1.45826 6.64286 1.55032 6.50498 1.6664 6.38883C1.78248 6.27268 1.92031 6.18054 2.07202 6.11768C2.22372 6.05482 2.38632 6.02246 2.55054 6.02246H3.62554C3.76762 6.02246 3.90388 6.0789 4.00434 6.17937C4.10481 6.27983 4.16125 6.4161 4.16125 6.55818C4.16125 6.70026 4.10481 6.83652 4.00434 6.93698C3.90388 7.03745 3.76762 7.09389 3.62554 7.09389H2.55054C2.50318 7.09389 2.45776 7.1127 2.42427 7.14619C2.39078 7.17968 2.37197 7.2251 2.37197 7.27246L2.37554 14.0596C2.37554 14.1582 2.45482 14.2382 2.55411 14.2382H9.33982C9.38718 14.2382 9.4326 14.2194 9.46609 14.1859C9.49958 14.1524 9.51839 14.107 9.51839 14.0596V12.981C9.51839 12.839 9.57484 12.7027 9.6753 12.6022C9.77577 12.5018 9.91203 12.4453 10.0541 12.4453C10.1962 12.4453 10.3324 12.5018 10.4329 12.6022C10.5334 12.7027 10.5898 12.839 10.5898 12.981V14.0596C10.5898 14.3911 10.4581 14.7091 10.2237 14.9435C9.98929 15.1779 9.67134 15.3096 9.33982 15.3096H2.55411C2.22259 15.3096 1.90465 15.1779 1.67023 14.9435C1.4358 14.7091 1.30411 14.3911 1.30411 14.0596L1.30054 7.27317Z" fill="currentColor"/>
</svg>