<svg width="13" height="12" viewBox="0 0 13 12" fill="none" xmlns="http://www.w3.org/2000/svg">
<path d="M3.5672 5.21954C3.61516 5.21954 3.66865 5.22692 3.72768 5.24168C3.78671 5.25644 3.84574 5.27673 3.90476 5.30255C3.96379 5.32838 4.02282 5.35236 4.08185 5.37449C4.14088 5.39663 4.19437 5.41876 4.24233 5.4409L4.15379 5.45196C4.12427 5.45565 4.09292 5.4575 4.05971 5.4575C3.997 5.4575 3.93981 5.44828 3.88816 5.42983C3.83651 5.41138 3.78855 5.3874 3.74428 5.35789C3.70001 5.32838 3.65574 5.30624 3.61147 5.29148C3.5672 5.27673 3.52662 5.26566 3.48973 5.25828C3.45283 5.25828 3.41963 5.26566 3.39012 5.28042C3.3606 5.29517 3.33109 5.31177 3.30157 5.33022C3.30157 5.31546 3.28866 5.30808 3.26284 5.30808C3.28866 5.28226 3.33662 5.26197 3.40672 5.24721C3.47681 5.23246 3.53031 5.22323 3.5672 5.21954ZM4.31427 5.46857C4.46553 5.46857 4.60387 5.49439 4.72931 5.54604C4.67766 5.56449 4.62601 5.57924 4.57436 5.59031C4.52271 5.60138 4.46922 5.60876 4.41388 5.61245C4.34009 5.61245 4.27369 5.60507 4.21466 5.59031C4.23311 5.5608 4.25155 5.54235 4.27 5.53497C4.28844 5.52759 4.3032 5.50546 4.31427 5.46857ZM6.48907 0.33315C7.00926 0.33315 7.50915 0.401401 7.98875 0.537902C8.46835 0.674404 8.91844 0.8644 9.33901 1.10789C9.75958 1.35138 10.1433 1.64836 10.4901 1.99884C10.8368 2.34932 11.132 2.73115 11.3755 3.14435C11.619 3.55754 11.8108 4.00763 11.951 4.49461C12.0912 4.98159 12.1594 5.48332 12.1557 5.99982C12.1557 6.52 12.0875 7.01989 11.951 7.49949C11.8145 7.97909 11.6245 8.42918 11.381 8.84975C11.1375 9.27032 10.8405 9.654 10.4901 10.0008C10.1396 10.3476 9.75774 10.6427 9.34454 10.8862C8.93135 11.1297 8.48126 11.3215 7.99428 11.4617C7.5073 11.6019 7.00557 11.6702 6.48907 11.6665C5.96889 11.6665 5.469 11.5982 4.9894 11.4617C4.5098 11.3252 4.05971 11.1352 3.63914 10.8917C3.21857 10.6483 2.83489 10.3513 2.4881 10.0008C2.14131 9.65032 1.84617 9.26848 1.60268 8.85528C1.35919 8.44209 1.16735 7.992 1.02716 7.50502C0.886969 7.01805 0.818718 6.51631 0.822408 5.99982C0.822408 5.47963 0.890658 4.97974 1.02716 4.50014C1.16366 4.02054 1.35366 3.57045 1.59715 3.14988C1.84064 2.72931 2.13762 2.34563 2.4881 1.99884C2.83857 1.65205 3.22041 1.35691 3.63361 1.11342C4.0468 0.869934 4.49689 0.678093 4.98387 0.537902C5.47084 0.397711 5.97258 0.32946 6.48907 0.33315ZM10.7059 3.40444C10.6542 3.32328 10.6026 3.2458 10.5509 3.17202C10.4993 3.09823 10.4458 3.0226 10.3904 2.94513C10.3831 2.97833 10.3738 3.00231 10.3628 3.01707C10.3517 3.03183 10.3443 3.06503 10.3406 3.11668C10.3406 3.14988 10.3535 3.18124 10.3794 3.21075C10.4052 3.24027 10.4384 3.26978 10.479 3.2993C10.5196 3.32881 10.5601 3.35094 10.6007 3.3657C10.6413 3.38046 10.6764 3.39337 10.7059 3.40444ZM10.324 2.86212C10.324 2.89163 10.3185 2.91193 10.3074 2.92299H10.3406C10.3554 2.92299 10.3665 2.92484 10.3738 2.92853L10.324 2.86212ZM6.48907 10.9581C6.90965 10.9581 7.321 10.9047 7.72312 10.7977C8.12525 10.6907 8.50524 10.5394 8.8631 10.3439C9.22095 10.1484 9.55298 9.90856 9.85919 9.62449C10.1654 9.34042 10.4329 9.02315 10.6616 8.67267C10.6136 8.56199 10.5675 8.44947 10.5233 8.3351C10.479 8.22074 10.4568 8.10268 10.4568 7.98094C10.4568 7.84812 10.4624 7.74114 10.4734 7.65997C10.4845 7.57881 10.4974 7.50687 10.5122 7.44415C10.5269 7.38144 10.5343 7.32794 10.5343 7.28367C10.5343 7.2394 10.5288 7.18222 10.5177 7.11212C10.5067 7.04203 10.4753 6.9664 10.4236 6.88523C10.372 6.80407 10.3037 6.6897 10.2189 6.54213C10.2226 6.51631 10.2281 6.48126 10.2355 6.43699C10.2429 6.39272 10.2503 6.3466 10.2576 6.29864C10.265 6.25068 10.2669 6.20641 10.2632 6.16583C10.2595 6.12525 10.2503 6.0902 10.2355 6.06069C10.1396 6.04962 10.04 6.02933 9.93667 5.99982C9.83337 5.9703 9.74114 5.92603 9.65997 5.867L9.69318 5.83933C9.64522 5.8504 9.59726 5.86516 9.5493 5.88361C9.50134 5.90205 9.45522 5.92234 9.41095 5.94448C9.36668 5.96661 9.31872 5.98137 9.26707 5.98875C9.21542 5.99613 9.16561 6.00351 9.11765 6.01088L9.02911 5.99982L9.04571 5.96108C8.99407 5.97584 8.93873 5.99428 8.8797 6.01642C8.82067 6.03855 8.76349 6.04962 8.70815 6.04962C8.67126 6.04962 8.61776 6.03671 8.54767 6.01088C8.47757 5.98506 8.40748 5.9537 8.33738 5.91681C8.26729 5.87992 8.20457 5.83933 8.14923 5.79506C8.09389 5.75079 8.06622 5.70837 8.06622 5.66778L8.07729 5.65118C8.05884 5.62905 8.03486 5.60876 8.00535 5.59031C7.97584 5.57186 7.94817 5.55342 7.92234 5.53497C7.89652 5.51653 7.87254 5.49624 7.8504 5.4741C7.82827 5.45196 7.81904 5.42614 7.82273 5.39663L7.88361 5.34682L7.75633 5.33022L7.71206 5.1642C7.71943 5.18265 7.73604 5.19003 7.76186 5.18634C7.78769 5.18265 7.80798 5.17527 7.82273 5.1642L7.62351 5.05906L7.76186 4.70489C7.71021 4.51305 7.6973 4.36548 7.72312 4.26219C7.74895 4.15889 7.79875 4.07403 7.87254 4.00763C7.94632 3.94122 8.02749 3.87482 8.11603 3.80841C8.20457 3.742 8.29496 3.65162 8.38719 3.53725L8.37058 3.47084L8.73582 3.02814L8.81883 3.01707C8.92213 3.01707 9.03834 3.01338 9.16746 3.006C9.29658 2.99862 9.42755 2.98571 9.56036 2.96726C9.69318 2.94882 9.82414 2.93037 9.95327 2.91193C10.0824 2.89348 10.2004 2.8695 10.3074 2.83999C10.1894 2.69979 10.0658 2.56698 9.93667 2.44155C9.80754 2.31611 9.6692 2.19621 9.52163 2.08185C9.48104 2.0966 9.43124 2.1169 9.37221 2.14272C9.31318 2.16854 9.25416 2.20175 9.19513 2.24233C9.1361 2.28291 9.08999 2.32718 9.05678 2.37514C9.02358 2.4231 9.00329 2.47291 8.99591 2.52456L9.02911 2.6297C8.96271 2.73669 8.88892 2.80309 8.80776 2.82892C8.7266 2.85474 8.64359 2.8695 8.55874 2.87319C8.47388 2.87688 8.38534 2.87688 8.29311 2.87319C8.20088 2.8695 8.11234 2.8861 8.02749 2.92299L7.93894 2.73484L8.02195 2.41388L7.92788 2.27553L8.88523 1.9767C8.84465 1.87341 8.77824 1.79593 8.68601 1.74428C8.59378 1.69263 8.49233 1.66681 8.38165 1.66681V1.61147L8.69155 1.56167C8.34845 1.39196 7.99244 1.26284 7.62351 1.1743C7.25459 1.08575 6.87644 1.04148 6.48907 1.04148C6.16811 1.04148 5.85084 1.07284 5.53725 1.13556C5.22367 1.19828 4.92115 1.28866 4.6297 1.40672C4.33825 1.52477 4.05602 1.67234 3.78302 1.84943C3.51002 2.02651 3.26099 2.22573 3.03595 2.44708C3.13187 2.44708 3.20565 2.47106 3.2573 2.51902C3.30895 2.56698 3.35691 2.62048 3.40118 2.6795C3.44545 2.73853 3.49157 2.79203 3.53953 2.83999C3.58749 2.88795 3.65205 2.91377 3.73321 2.91746L3.82176 2.85105L3.81069 2.72931L3.99331 2.46922L3.84943 2.05971C3.86787 2.04864 3.89554 2.0302 3.93243 2.00437C3.96933 1.97855 4.00068 1.96564 4.02651 1.96564C4.13719 1.96564 4.22204 1.97117 4.28107 1.98224C4.34009 1.99331 4.39174 2.0136 4.43601 2.04311C4.48028 2.07262 4.51902 2.11505 4.55223 2.17039C4.58543 2.22573 4.63708 2.29582 4.70717 2.38068L4.90639 2.22573C4.94328 2.24048 5.00231 2.26446 5.08348 2.29767C5.16464 2.33087 5.24765 2.37145 5.3325 2.41941C5.41735 2.46737 5.48929 2.51718 5.54832 2.56883C5.60735 2.62048 5.63871 2.66844 5.64239 2.71271C5.64239 2.76805 5.6221 2.81232 5.58152 2.84552C5.54094 2.87872 5.48745 2.90639 5.42104 2.92853C5.35463 2.95066 5.28638 2.96726 5.21629 2.97833C5.14619 2.9894 5.0761 3.00416 5.006 3.0226C4.93591 3.04105 4.88241 3.0595 4.84552 3.07794C4.80863 3.09639 4.78649 3.12775 4.77911 3.17202L5.10008 3.27716C5.02629 3.33988 4.94697 3.39706 4.86212 3.44871C4.77727 3.50036 4.68873 3.54832 4.5965 3.59259L4.61863 3.68667L4.10952 3.88588V4.04083L4.07078 4.05743L4.09845 3.86375L4.07631 3.85821C4.05049 3.85821 4.03573 3.86375 4.03204 3.87482C4.02835 3.88588 4.02651 3.8988 4.02651 3.91355C4.02651 3.92831 4.0302 3.94307 4.03758 3.95782C4.04496 3.97258 4.0468 3.98365 4.04311 3.99103L3.97117 3.95229L3.98224 3.97443C3.98224 3.98549 3.98777 4.00209 3.99884 4.02423C4.00991 4.04637 4.02466 4.06666 4.04311 4.0851C4.06156 4.10355 4.07631 4.122 4.08738 4.14044C4.09845 4.15889 4.10583 4.16811 4.10952 4.16811C4.10952 4.17918 4.10214 4.19025 4.08738 4.20131C4.07262 4.21238 4.05418 4.21976 4.03204 4.22345C4.00991 4.22714 3.99515 4.23267 3.98777 4.24005C3.98039 4.24743 3.98039 4.24927 3.98777 4.24558C4.03942 4.24558 4.05049 4.24927 4.02098 4.25665C3.99146 4.26403 3.94535 4.28248 3.88263 4.31199C3.81991 4.3415 3.76273 4.38393 3.71108 4.43927C3.65943 4.49461 3.62992 4.57577 3.62254 4.68276C3.62254 4.74548 3.62438 4.80635 3.62807 4.86538C3.63176 4.9244 3.62992 4.98528 3.62254 5.04799C3.57089 4.9078 3.49341 4.80081 3.39012 4.72703C3.28682 4.65325 3.16138 4.61635 3.01381 4.61635L2.77586 4.63849L2.89207 4.71596C2.82935 4.70858 2.76479 4.70121 2.69838 4.69383C2.63198 4.68645 2.56373 4.6846 2.49363 4.68829C2.42354 4.69198 2.36082 4.70674 2.30548 4.73256C2.25014 4.75839 2.1948 4.79713 2.13946 4.84877L2.10626 5.0978C2.10626 5.21585 2.13209 5.31177 2.18374 5.38556C2.23538 5.45934 2.32577 5.49808 2.45489 5.50177C2.56557 5.50177 2.6744 5.48517 2.78139 5.45196C2.88838 5.41876 2.99352 5.38002 3.09682 5.33575C3.06362 5.41692 3.02673 5.49439 2.98614 5.56818C2.94556 5.64196 2.91605 5.72312 2.8976 5.81167L2.96954 5.84487C3.05808 5.78584 3.13925 5.77662 3.21303 5.8172C3.28682 5.85778 3.35876 5.91681 3.42885 5.99428C3.49895 6.07176 3.57089 6.15107 3.64467 6.23224C3.71846 6.3134 3.79778 6.37243 3.88263 6.40932L3.69448 6.50893L3.25177 6.25991C3.25546 6.26729 3.25915 6.28389 3.26284 6.30971C3.26653 6.33554 3.26468 6.34107 3.2573 6.32631L3.05808 5.98875C2.94003 5.98506 2.81459 5.96661 2.68178 5.93341C2.54897 5.90021 2.41431 5.85594 2.27781 5.8006C2.14131 5.74526 2.01403 5.68439 1.89598 5.61798C1.77792 5.55157 1.66909 5.48148 1.56948 5.40769L1.53074 5.99982C1.53074 6.4499 1.59161 6.88892 1.71336 7.31687C1.8351 7.74482 2.00665 8.14695 2.22801 8.52325C2.44936 8.89956 2.72052 9.24265 3.04148 9.55255C3.36245 9.86245 3.71846 10.1262 4.10952 10.3439C4.09107 10.2664 4.08923 10.1889 4.10398 10.1115C4.11874 10.034 4.13719 9.95652 4.15932 9.87905C4.18146 9.80157 4.20544 9.7241 4.23126 9.64663C4.25709 9.56915 4.27 9.48983 4.27 9.40867C4.27 9.29061 4.25155 9.16703 4.21466 9.0379C4.17777 8.90878 4.1335 8.77781 4.08185 8.645C4.0302 8.51219 3.97302 8.38122 3.9103 8.25209C3.84758 8.12297 3.79778 8.00123 3.76088 7.88686C3.72399 7.77249 3.69448 7.66551 3.67234 7.5659C3.65021 7.46629 3.66127 7.37959 3.70555 7.30581L3.62254 7.26707C3.64467 7.21542 3.67419 7.16561 3.71108 7.11765C3.74797 7.06969 3.78671 7.02173 3.82729 6.97377C3.86787 6.92581 3.89923 6.87417 3.92137 6.81883C3.9435 6.76349 3.95641 6.70815 3.9601 6.65281C3.9601 6.61592 3.95272 6.57718 3.93797 6.5366C3.92321 6.49602 3.9103 6.45728 3.89923 6.42039L4.01544 6.44806C4.07816 6.30418 4.16301 6.20641 4.27 6.15476C4.37699 6.10311 4.51164 6.07545 4.67397 6.07176C4.69242 6.07176 4.73115 6.07913 4.79018 6.09389C4.84921 6.10865 4.91193 6.12894 4.97833 6.15476C5.04474 6.18059 5.10746 6.20088 5.16648 6.21564C5.22551 6.23039 5.26978 6.24515 5.2993 6.25991C5.2993 6.28573 5.31405 6.30233 5.34357 6.30971C5.37308 6.31709 5.38968 6.33 5.39337 6.34845L5.3823 6.39272C5.39337 6.39641 5.4192 6.40932 5.45978 6.43146C5.50036 6.45359 5.54463 6.48126 5.59259 6.51446C5.64055 6.54767 5.68298 6.57718 5.71987 6.60301C5.75676 6.62883 5.78259 6.64912 5.79734 6.66388C5.86375 6.66388 5.95413 6.68601 6.0685 6.73028C6.18287 6.77456 6.3083 6.82989 6.4448 6.8963C6.5813 6.96271 6.71596 7.04203 6.84877 7.13426C6.98159 7.22649 7.10702 7.31872 7.22508 7.41095C7.34313 7.50318 7.43352 7.59541 7.49624 7.68764C7.55895 7.77987 7.59584 7.86104 7.60691 7.93113L7.41876 8.13035C7.43352 8.3185 7.42061 8.46238 7.38002 8.56199C7.33944 8.6616 7.27673 8.74461 7.19187 8.81101C7.10702 8.87742 7.00926 8.93276 6.89858 8.97703C6.7879 9.0213 6.668 9.08402 6.53888 9.16518C6.53888 9.23897 6.52043 9.31828 6.48354 9.40314C6.44665 9.48799 6.40053 9.56915 6.34519 9.64663C6.28986 9.7241 6.22345 9.78866 6.14598 9.84031C6.0685 9.89196 5.99103 9.91778 5.91355 9.91778L5.68113 9.7407C5.68851 9.74808 5.68851 9.76099 5.68113 9.77944C5.67375 9.79788 5.66453 9.80157 5.65346 9.79051C5.69035 9.8606 5.69958 9.94176 5.68113 10.034C5.66269 10.1262 5.63133 10.2203 5.58706 10.3162C5.54278 10.4121 5.49298 10.5025 5.43764 10.5874C5.3823 10.6722 5.3325 10.7442 5.28823 10.8032C5.48745 10.8549 5.68667 10.8936 5.88588 10.9194C6.0851 10.9452 6.28617 10.9581 6.48907 10.9581Z" fill="currentColor"/>
</svg>
