<svg width="24" height="24" viewBox="0 0 24 24" xmlns="http://www.w3.org/2000/svg" fill="none">
   <path id="svg_1" fill="currentColor" d="m21,11c0,5.55 -3.84,10.74 -9,12c-5.16,-1.26 -9,-6.45 -9,-12l0,-6l9,-4l9,4l0,6zm-9,10c3.75,-1 7,-5.46 7,-9.78l0,-4.92l-7,-3.12l-7,3.12l0,4.92c0,4.32 3.25,8.78 7,9.78z"/>
   <path id="svg_2" fill="currentColor" d="m16.2834,13.7616l0.1707,-0.2989c0.0895,-0.1606 0.0442,-0.3696 -0.1016,-0.4698l-0.4352,-0.2925l0.0666,-0.5571c0.0222,-0.1885 -0.0999,-0.3611 -0.2731,-0.3862l-0.3208,-0.0455l-0.0019,-0.0003c-0.1729,-0.0239 -0.3311,0.1092 -0.3531,0.2974l-0.0751,0.6221l0,0.0223l-2.68789,1.3815l-0.27219,0.1402l-0.27221,-0.1402l-2.68365,-1.3871c0.00043,-0.0075 0.00043,-0.0149 0,-0.0223l-0.07511,-0.6222c-0.02268,-0.1887 -0.18158,-0.3217 -0.35495,-0.297l-0.32104,0.0455c-0.17337,0.0247 -0.29553,0.1976 -0.27285,0.3863l0.06569,0.557l-0.43433,0.2925l-0.00248,0.0017c-0.14827,0.1007 -0.1934,0.3132 -0.10077,0.4746l0.17095,0.2994c0.09194,0.1618 0.28703,0.212 0.43576,0.1119l0.49064,-0.3305l0.01621,-0.013l2.29624,1.1865l-1.36955,0.7075l-0.0162,-0.0121l-0.49088,-0.3298c-0.14867,-0.1001 -0.3438,-0.0501 -0.43582,0.1116l-0.17066,0.299l-0.00238,0.0042c-0.08946,0.1629 -0.04063,0.3738 0.10905,0.4711l0.43433,0.2934l-0.06572,0.5515l-0.00023,0.0021c-0.02203,0.1882 0.10033,0.3603 0.27331,0.3843l0.31998,0.0454c0.17363,0.0246 0.33282,-0.1082 0.35583,-0.2971l0.07423,-0.6221c0.00041,-0.0074 0.00041,-0.0149 0,-0.0223l2.03086,-1.0463l2.02743,1.0473l0,0.0222l0.0751,0.6221l0.0003,0.0021c0.023,0.188 0.1819,0.3202 0.3547,0.2949l0.3208,-0.0454c0.1733,-0.025 0.2953,-0.1977 0.2731,-0.3861l-0.0666,-0.5516l0.4355,-0.2936c0.1485,-0.1003 0.1943,-0.3126 0.1021,-0.4743l-0.1708,-0.2992c-0.0922,-0.1616 -0.2873,-0.2114 -0.4359,-0.1111l-0.4906,0.3296l-0.0162,0.012l-1.3704,-0.7074l2.2979,-1.1875l0.0171,0.0121l0.4898,0.3295c0.1489,0.0997 0.3439,0.0494 0.436,-0.1123zm-6.17792,-1.8773l-0.55977,0c-0.16084,-0.0006 -0.29097,-0.1425 -0.29097,-0.3175l0,-1.92192c-0.00016,-0.389 0.07425,-0.77385 0.21843,-1.12991c0.13864,-0.34593 0.33872,-0.65854 0.58879,-0.92007c0.25049,-0.26517 0.54575,-0.47519 0.86952,-0.61836c0.33736,-0.15049 0.69859,-0.22747 1.06321,-0.22653l0.01706,0c0.36437,-0.00094 0.72531,0.07604 1.06235,0.22653c0.3239,0.14344 0.6194,0.35336 0.8704,0.61836c0.2495,0.262 0.4495,0.57452 0.5888,0.92007c0.1435,0.35625 0.2176,0.74099 0.2176,1.12991l0,1.92282c0,0.1748 -0.1303,0.3166 -0.291,0.3166l-0.5632,0l-0.0019,0c-0.2397,0.0058 -0.4299,0.2219 -0.4247,0.4828l0,0.3899c0,0.1749 -0.1304,0.3166 -0.291,0.3166l-2.356,0c-0.16069,0 -0.29097,-0.1417 -0.29097,-0.3166l0,-0.3899l0.00004,-0.0021c0.00419,-0.2609 -0.18687,-0.4761 -0.42669,-0.4807zm0.76284,-0.99901c-0.43262,0.00352 -0.78599,-0.37509 -0.7893,-0.84582l-0.00086,-0.00371l0,-0.00556c0.00142,-0.47073 0.35329,-0.8511 0.78591,-0.84953c0.42961,0.00101 0.77828,0.37835 0.78154,0.84581c0.00332,0.47072 -0.34469,0.85518 -0.77729,0.85881zm1.48988,-0.84582c0,0.47073 0.3507,0.85231 0.7833,0.85231c0.4327,0 0.7834,-0.38158 0.7834,-0.85231c0,-0.47071 -0.3507,-0.85229 -0.7834,-0.85229c-0.43157,-0.00058 -0.78228,0.37897 -0.78416,0.84858l0.00086,0.00371zm-0.7253,1.85783l0.29865,-0.8486l0.0017,-0.00371c0.01187,-0.02852 0.03781,-0.04689 0.06657,-0.04736c0.03011,-0.00008 0.057,0.02033 0.06741,0.05107l0.29951,0.8486c0.00314,0.009 0.00468,0.0186 0.00468,0.0283c-0.00025,0.0436 -0.03293,0.0787 -0.07295,0.0785c-0.00998,0.0001 -0.01989,-0.0022 -0.02901,-0.0065l-0.26964,-0.1282l-0.2705,0.1282c-0.02654,0.0128 -0.05752,0.0069 -0.0785,-0.0149c-0.02108,-0.022 -0.02816,-0.0556 -0.01792,-0.0854z" clip-rule="evenodd" fill-rule="evenodd"/>
</svg>