<svg width="16" height="20" viewBox="0 0 16 20" fill="none" xmlns="http://www.w3.org/2000/svg">
<path d="M8 18.0003C11.5 17.4199 14.5 12.9166 14.5 9.33331V5.00031L8 2.00031L1.5 5.00031V10.0003L0.583334 10.5833C0.500001 10.0833 0.5 9.66665 0.5 9.16665V4.16665L8 0.833313L15.5 4.16665V9.16665C15.5 13.75 12.3333 18.0833 8 19.1666C8 19.0003 8 19.0003 8 18.9166C8 18.5003 8 18.5003 8 18.0003Z" fill="currentColor"/>
<path d="M8.34377 9.91304L4.72162 16.6087H4.22327L3.06469 14.2174L0.498346 19L0 17.6142L2.81551 12.4866H3.31386L4.47244 14.5979L8.0946 8H8.59224L10 10.5638L9.5 11.8261L8.34377 9.91304Z" fill="currentColor"/>
</svg>
