<svg width="18" height="18" viewBox="0 0 18 18" fill="none" xmlns="http://www.w3.org/2000/svg">
  <path
    d="M14.1802 3.96005C12.8102 2.58005 10.9402 1.80005 9.00016 1.80005C7.06016 1.80005 5.19016 2.58005 3.82016 3.96005C2.45016 5.33005 1.66016 7.20005 1.66016 9.14005C1.66016 11.08 2.44016 12.95 3.81016 14.32C5.18016 15.69 7.05016 16.47 8.99016 16.47C10.9302 16.47 12.8002 15.69 14.1702 14.32C15.5502 12.95 16.3202 11.08 16.3202 9.14005C16.3202 7.20005 15.5502 5.33005 14.1702 3.96005H14.1802ZM8.48016 5.47005C8.48016 5.33005 8.54016 5.20005 8.64016 5.11005C8.73016 5.01005 8.86016 4.96005 9.00016 4.96005C9.14016 4.96005 9.27016 5.01005 9.37016 5.11005C9.46016 5.20005 9.52016 5.33005 9.52016 5.47005V10.19C9.52016 10.32 9.46016 10.45 9.37016 10.55C9.27016 10.65 9.14016 10.7 9.00016 10.7C8.86016 10.7 8.73016 10.65 8.64016 10.55C8.54016 10.45 8.48016 10.32 8.48016 10.19V5.47005ZM9.55016 13.09C9.40016 13.24 9.21016 13.32 9.00016 13.32C8.79016 13.32 8.60016 13.24 8.45016 13.09C8.30016 12.95 8.22016 12.75 8.22016 12.54C8.22016 12.33 8.30016 12.14 8.45016 11.99C8.60016 11.85 8.79016 11.77 9.00016 11.77C9.21016 11.77 9.40016 11.85 9.55016 11.99C9.70016 12.14 9.78016 12.34 9.78016 12.54C9.78016 12.75 9.70016 12.95 9.55016 13.09Z"
    fill="var(--icon-negative)"
    stroke="var(--icon-negative)"
    strokeWidth="0.02"
  />
  <path
    d="M9.77973 12.5388C9.77973 12.7488 9.69973 12.9488 9.54973 13.0888C9.39973 13.2388 9.20973 13.3188 8.99973 13.3188C8.78973 13.3188 8.59973 13.2388 8.44973 13.0888C8.29973 12.9488 8.21973 12.7488 8.21973 12.5388C8.21973 12.3288 8.29973 12.1388 8.44973 11.9888C8.59973 11.8488 8.78973 11.7688 8.99973 11.7688C9.20973 11.7688 9.39973 11.8488 9.54973 11.9888C9.69973 12.1388 9.77973 12.3388 9.77973 12.5388Z"
    fill="var(--text-on-action-2)"
    stroke="var(--text-on-action-2)"
    strokeWidth="0.02"
  />
  <path
    d="M9.52047 5.47021V10.1902C9.52047 10.3202 9.46047 10.4502 9.37047 10.5502C9.27047 10.6502 9.14047 10.7002 9.00047 10.7002C8.86047 10.7002 8.73047 10.6502 8.64047 10.5502C8.54047 10.4502 8.48047 10.3202 8.48047 10.1902V5.47021C8.48047 5.33021 8.54047 5.2002 8.64047 5.1102C8.73047 5.0102 8.86047 4.96021 9.00047 4.96021C9.14047 4.96021 9.27047 5.0102 9.37047 5.1102C9.46047 5.2002 9.52047 5.33021 9.52047 5.47021Z"
    fill="var(--text-on-action-2)"
    stroke="var(--text-on-action-2)"
    strokeWidth="0.02"
  />
</svg>