<svg width="200" height="231" viewBox="0 0 200 231" fill="none" xmlns="http://www.w3.org/2000/svg">
<path d="M131.455 207.734L97.3421 227.11L63.2295 207.911C26.268 187.107 3.3979 147.988 3.40039 105.574V27.4852C3.40039 27.4852 3.40039 4 97.3421 4C185.412 4 191.284 27.4852 191.284 27.4852V105.398C191.285 125.354 186.222 144.582 177.01 161.515" stroke="currentColor" stroke-width="6.16364"/>
<path d="M36.2734 133.72L77.1193 92.5354C77.8477 91.8011 79.0354 91.8025 79.762 92.5385L112.279 125.477C112.999 126.207 114.175 126.216 114.906 125.496L161.776 79.3359" stroke="currentColor" stroke-width="6.16364" stroke-linecap="round"/>
<path d="M154.067 147.134C174.87 147.134 191.734 164.001 191.734 184.8C191.734 205.6 174.87 222.467 154.067 222.467C133.264 222.467 116.4 205.6 116.4 184.8C116.4 164.001 133.264 147.134 154.067 147.134ZM154.067 153.413C136.759 153.413 122.679 167.493 122.679 184.8C122.679 202.108 136.759 216.188 154.067 216.188C171.375 216.188 185.455 202.108 185.455 184.8C185.455 167.493 171.375 153.413 154.067 153.413ZM154.063 194.225C155.061 194.225 156.018 194.621 156.724 195.327C157.43 196.032 157.826 196.99 157.826 197.988C157.826 198.986 157.43 199.943 156.724 200.648C156.018 201.354 155.061 201.75 154.063 201.75C153.065 201.75 152.108 201.354 151.403 200.648C150.697 199.943 150.3 198.986 150.3 197.988C150.3 196.99 150.697 196.032 151.403 195.327C152.108 194.621 153.065 194.225 154.063 194.225ZM154.044 165.967C154.728 165.966 155.388 166.213 155.904 166.662C156.419 167.111 156.754 167.731 156.847 168.408L156.873 168.788L156.888 185.746C156.889 186.462 156.618 187.152 156.129 187.675C155.641 188.199 154.972 188.518 154.258 188.567C153.543 188.616 152.837 188.393 152.281 187.941C151.726 187.489 151.362 186.843 151.265 186.134L151.238 185.75L151.223 168.796C151.223 168.425 151.295 168.057 151.437 167.714C151.579 167.37 151.787 167.059 152.049 166.796C152.312 166.533 152.623 166.325 152.966 166.183C153.309 166.04 153.673 165.967 154.044 165.967Z" fill="#FE001E"/>
<path d="M155.518 48.0538L154.915 49.8436C154.691 50.524 154.309 51.1423 153.8 51.6488C153.292 52.1553 152.671 52.5357 151.988 52.7594L150.169 53.3618C150.108 53.3817 150.054 53.4203 150.016 53.4723C149.978 53.5242 149.958 53.5868 149.958 53.651C149.958 53.7152 149.978 53.7777 150.016 53.8297C150.054 53.8816 150.108 53.9203 150.169 53.9401L151.988 54.5425C152.665 54.7664 153.28 55.1446 153.784 55.647C154.288 56.1494 154.668 56.762 154.892 57.4362L155.496 59.2482C155.517 59.3084 155.556 59.3607 155.608 59.3977C155.66 59.4348 155.722 59.4547 155.786 59.4547C155.85 59.4547 155.912 59.4348 155.964 59.3977C156.016 59.3607 156.055 59.3084 156.076 59.2482L156.703 57.4583C156.928 56.7845 157.308 56.1722 157.812 55.6699C158.316 55.1677 158.931 54.7892 159.607 54.5647L161.425 53.9632C161.487 53.9434 161.54 53.9047 161.578 53.8528C161.616 53.8008 161.636 53.7383 161.636 53.6741C161.636 53.6099 161.616 53.5473 161.578 53.4954C161.54 53.4434 161.487 53.4048 161.425 53.3849L159.63 52.7594C158.946 52.5363 158.325 52.156 157.817 51.6495C157.308 51.1429 156.927 50.5243 156.703 49.8436L156.099 48.0307C156.076 47.9711 156.035 47.9203 155.982 47.8852C155.928 47.8501 155.865 47.8327 155.801 47.8352C155.737 47.8378 155.675 47.8602 155.625 47.8994C155.574 47.9386 155.536 47.9926 155.518 48.0538Z" stroke="currentColor" stroke-width="3.42424" stroke-linecap="round" stroke-linejoin="round"/>
<path d="M134.043 53.7142L132.947 56.9685C132.539 58.2056 131.844 59.3298 130.92 60.2507C129.995 61.1715 128.866 61.8632 127.624 62.2699L124.317 63.3652C124.206 63.4013 124.108 63.4716 124.04 63.5661C123.971 63.6605 123.934 63.7742 123.934 63.891C123.934 64.0077 123.971 64.1214 124.04 64.2159C124.108 64.3103 124.206 64.3806 124.317 64.4167L127.624 65.512C128.855 65.9191 129.973 66.6067 130.89 67.5201C131.807 68.4335 132.496 69.5474 132.904 70.7732L134.003 74.0677C134.04 74.1772 134.111 74.2723 134.206 74.3397C134.3 74.407 134.414 74.4432 134.53 74.4432C134.646 74.4432 134.759 74.407 134.854 74.3397C134.948 74.2723 135.019 74.1772 135.057 74.0677L136.197 70.8134C136.607 69.5883 137.297 68.475 138.213 67.5618C139.13 66.6486 140.248 65.9606 141.478 65.5523L144.783 64.4587C144.895 64.4226 144.992 64.3523 145.061 64.2579C145.129 64.1634 145.167 64.0497 145.167 63.933C145.167 63.8162 145.129 63.7025 145.061 63.6081C144.992 63.5136 144.895 63.4433 144.783 63.4072L141.518 62.2699C140.276 61.8642 139.146 61.1729 138.222 60.2519C137.298 59.3308 136.604 58.2061 136.197 56.9685L135.099 53.6722C135.057 53.564 134.983 53.4715 134.885 53.4078C134.788 53.344 134.673 53.3122 134.557 53.3168C134.441 53.3215 134.329 53.3623 134.237 53.4336C134.145 53.5049 134.076 53.603 134.043 53.7142Z" stroke="currentColor" stroke-width="4.10909" stroke-linecap="round" stroke-linejoin="round"/>
</svg>
