<svg width="18" height="18" viewBox="0 0 18 18" fill="none" xmlns="http://www.w3.org/2000/svg">
<g clip-path="url(#clip0_8760_55309)">
<path d="M9.375 1.509C9.25008 1.50316 9.12505 1.50016 9 1.5C4.8585 1.5 1.5 4.713 1.5 8.67525C1.5 10.5787 2.27475 12.309 3.53925 13.5922C3.8175 13.875 4.0035 14.2612 3.9285 14.6587C3.80641 15.3041 3.52631 15.9091 3.11325 16.4197C4.1946 16.6174 5.31101 16.4437 6.28125 15.927C6.62175 15.7462 6.792 15.6555 6.91275 15.6375C7.0335 15.6195 7.20525 15.651 7.54875 15.7155C8.02725 15.8055 8.51325 15.8505 9 15.8505C13.1415 15.8505 16.5 12.6375 16.5 8.67525C16.5 8.53225 16.4957 8.3905 16.4872 8.25M12 1.5L14.25 3.75M14.25 3.75L16.5 6M14.25 3.75L16.5 1.5M14.25 3.75L12 6M8.997 9H9.003M11.9932 9H12M6 9H6.00675" stroke="currentColor" stroke-width="1.125" stroke-linecap="round" stroke-linejoin="round"/>
</g>
<defs>
<clipPath id="clip0_8760_55309">
<rect width="18" height="18" fill="white"/>
</clipPath>
</defs>
</svg>
