<svg width="24" height="24" viewBox="0 0 24 24" fill="none" xmlns="http://www.w3.org/2000/svg"><g><path d="M21 11C21 16.55 17.16 21.74 12 23C6.84 21.74 3 16.55 3 11V5L12 1L21 5V11ZM12 21C15.75 20 19 15.54 19 11.22V6.3L12 3.18L5 6.3V11.22C5 15.54 8.25 20 12 21Z" fill="currentColor"/><path d="M9.52381 10.6667V9.49767C9.52422 8.92335 9.78531 8.3727 10.2497 7.96682C10.714 7.56094 11.3436 7.33307 12 7.33333C13.365 7.33333 14.4762 8.30233 14.4762 9.49767V10.6667H14.0952V9.50333C14.0953 9.01677 13.8747 8.55006 13.4819 8.20569C13.0891 7.86133 12.5561 7.66746 12 7.66667C11.7245 7.66671 11.4518 7.71427 11.1974 7.80663C10.9429 7.89899 10.7118 8.03433 10.5172 8.20491C10.3226 8.3755 10.1684 8.57798 10.0633 8.80077C9.95817 9.02357 9.90431 9.26231 9.90476 9.50333V10.6667H9.52381Z" fill="currentColor"/><path fill-rule="evenodd" clip-rule="evenodd" d="M9.14172 11C9.04158 11.0002 8.94246 11.0176 8.85003 11.0513C8.7576 11.085 8.67366 11.1343 8.60301 11.1964C8.53236 11.2585 8.47639 11.3322 8.43829 11.4132C8.40019 11.4942 8.38071 11.581 8.38096 11.6687V14.998C8.38066 15.0856 8.4001 15.1725 8.43819 15.2535C8.47627 15.3346 8.53224 15.4082 8.6029 15.4703C8.67356 15.5324 8.75752 15.5818 8.84997 15.6154C8.94243 15.6491 9.04157 15.6665 9.14172 15.6667H14.8583C14.9584 15.6665 15.0575 15.6491 15.15 15.6153C15.2424 15.5816 15.3263 15.5323 15.397 15.4702C15.4676 15.4081 15.5236 15.3345 15.5617 15.2535C15.5998 15.1724 15.6193 15.0856 15.619 14.998V11.6687C15.6193 11.581 15.5999 11.4942 15.5618 11.4132C15.5237 11.3321 15.4678 11.2584 15.3971 11.1963C15.3264 11.1342 15.2425 11.0849 15.15 11.0512C15.0576 11.0175 14.9584 11.0001 14.8583 11H9.14172ZM11.4286 14.166V13.5C11.2687 13.3951 11.1505 13.2488 11.0909 13.0818C11.0313 12.9149 11.0333 12.7357 11.0965 12.5698C11.1597 12.4039 11.281 12.2596 11.4431 12.1573C11.6053 12.055 11.8001 12 12 12C12.1999 12 12.3947 12.055 12.5569 12.1573C12.719 12.2596 12.8403 12.4039 12.9035 12.5698C12.9667 12.7357 12.9687 12.9149 12.9091 13.0818C12.8495 13.2488 12.7313 13.3951 12.5714 13.5V14.166C12.5714 14.2986 12.5112 14.4258 12.4041 14.5196C12.2969 14.6133 12.1516 14.666 12 14.666C11.8484 14.666 11.7031 14.6133 11.5959 14.5196C11.4888 14.4258 11.4286 14.2986 11.4286 14.166Z" fill="currentColor"/><path fill-rule="evenodd" clip-rule="evenodd" d="M9.14286 9.5V10.6667C8.99249 10.6668 8.84361 10.6928 8.70475 10.7433C8.56588 10.7938 8.43977 10.8677 8.33361 10.9609C8.22746 11.0541 8.14335 11.1647 8.08611 11.2864C8.02886 11.4081 7.9996 11.5384 8 11.67V14.9967C7.9999 15.1284 8.02949 15.259 8.08708 15.3807C8.14467 15.5025 8.22913 15.6131 8.33563 15.7063C8.44213 15.7995 8.56858 15.8734 8.70774 15.9238C8.84691 15.9742 8.99606 16.0001 9.14667 16H14.8537C15.0044 16.0003 15.1536 15.9746 15.2929 15.9242C15.4321 15.8739 15.5587 15.8 15.6652 15.7068C15.7717 15.6136 15.8561 15.5028 15.9136 15.381C15.971 15.2591 16.0004 15.1285 16 14.9967V11.67C16 11.1167 15.4895 10.6683 14.8571 10.6667V9.5C14.8571 8.83696 14.5561 8.20107 14.0203 7.73223C13.4845 7.26339 12.7578 7 12 7C11.2422 7 10.5155 7.26339 9.9797 7.73223C9.44388 8.20107 9.14286 8.83696 9.14286 9.5ZM9.52381 9.49767V10.6667H9.90476V9.50333C9.90431 9.26231 9.95817 9.02357 10.0633 8.80077C10.1684 8.57798 10.3226 8.3755 10.5172 8.20491C10.7118 8.03433 10.9429 7.89899 11.1974 7.80663C11.4518 7.71427 11.7245 7.66671 12 7.66667C12.5561 7.66746 13.0891 7.86133 13.4819 8.20569C13.8747 8.55006 14.0953 9.01677 14.0952 9.50333V10.6667H14.4762V9.49767C14.4762 8.30233 13.365 7.33333 12 7.33333C11.3436 7.33307 10.714 7.56094 10.2497 7.96682C9.78531 8.3727 9.52422 8.92335 9.52381 9.49767ZM10.2857 9.5V10.6667H13.7143V9.5C13.7143 8.67167 12.9448 8 12 8C11.0533 8 10.2857 8.67 10.2857 9.5ZM8.85003 11.0513C8.94246 11.0176 9.04158 11.0002 9.14172 11H14.8583C14.9584 11.0001 15.0576 11.0175 15.15 11.0512C15.2425 11.0849 15.3264 11.1342 15.3971 11.1963C15.4678 11.2584 15.5237 11.3321 15.5618 11.4132C15.5999 11.4942 15.6193 11.581 15.619 11.6687V14.998C15.6193 15.0856 15.5998 15.1724 15.5617 15.2535C15.5236 15.3345 15.4676 15.4081 15.397 15.4702C15.3263 15.5323 15.2424 15.5816 15.15 15.6153C15.0575 15.6491 14.9584 15.6665 14.8583 15.6667H9.14172C9.04157 15.6665 8.94243 15.6491 8.84997 15.6154C8.75752 15.5818 8.67356 15.5324 8.6029 15.4703C8.53224 15.4082 8.47627 15.3346 8.43819 15.2535C8.4001 15.1725 8.38066 15.0856 8.38096 14.998V11.6687C8.38071 11.581 8.40019 11.4942 8.43829 11.4132C8.47639 11.3322 8.53236 11.2585 8.60301 11.1964C8.67366 11.1343 8.7576 11.085 8.85003 11.0513Z" fill="currentColor"/></g></svg>