<svg width="17" height="14" viewBox="0 0 17 14" fill="none" xmlns="http://www.w3.org/2000/svg">
<path d="M9.23581 1.13354C10.7917 1.13354 12.284 1.75164 13.3842 2.85185C14.4844 3.95207 15.1025 5.44428 15.1025 7.00021C15.1025 8.55615 14.4844 10.0484 13.3842 11.1486C12.284 12.2488 10.7917 12.8669 9.23581 12.8669C7.67987 12.8669 6.18766 12.2488 5.08745 11.1486C3.98723 10.0484 3.36914 8.55615 3.36914 7.00021C3.36914 5.44428 3.98723 3.95207 5.08745 2.85185C6.18766 1.75164 7.67987 1.13354 9.23581 1.13354ZM9.23581 12.0288C10.5695 12.0288 11.8485 11.499 12.7915 10.5559C13.7346 9.61291 14.2644 8.33387 14.2644 7.00021C14.2644 5.66655 13.7346 4.38751 12.7915 3.44447C11.8485 2.50143 10.5695 1.97164 9.23581 1.97164C7.90215 1.97164 6.62311 2.50143 5.68007 3.44447C4.73703 4.38751 4.20724 5.66655 4.20724 7.00021C4.20724 8.33387 4.73703 9.61291 5.68007 10.5559C6.62311 11.499 7.90215 12.0288 9.23581 12.0288ZM9.86438 9.72402C9.86438 9.89073 9.79815 10.0506 9.68027 10.1685C9.56239 10.2864 9.40252 10.3526 9.23581 10.3526C9.0691 10.3526 8.90922 10.2864 8.79134 10.1685C8.67346 10.0506 8.60724 9.89073 8.60724 9.72402C8.60724 9.55731 8.67346 9.39744 8.79134 9.27956C8.90922 9.16167 9.0691 9.09545 9.23581 9.09545C9.40252 9.09545 9.56239 9.16167 9.68027 9.27956C9.79815 9.39744 9.86438 9.55731 9.86438 9.72402ZM9.23581 3.64783C9.34695 3.64783 9.45353 3.69198 9.53212 3.77057C9.61071 3.84915 9.65486 3.95574 9.65486 4.06688V7.83831C9.65486 7.94945 9.61071 8.05603 9.53212 8.13462C9.45353 8.21321 9.34695 8.25736 9.23581 8.25736C9.12467 8.25736 9.01808 8.21321 8.9395 8.13462C8.86091 8.05603 8.81676 7.94945 8.81676 7.83831V4.06688C8.81676 3.95574 8.86091 3.84915 8.9395 3.77057C9.01808 3.69198 9.12467 3.64783 9.23581 3.64783Z" fill="currentColor"/>
</svg>
