<svg width="30" height="31" viewBox="0 0 30 31" fill="none" xmlns="http://www.w3.org/2000/svg">
<g clip-path="url(#clip0_7399_1160)">
<path fill-rule="evenodd" clip-rule="evenodd" d="M23.625 10.4688V24.125C23.625 24.8875 23.3221 25.6188 22.7829 26.1579C22.2438 26.6971 21.5125 27 20.75 27V25.5625C21.1312 25.5625 21.4969 25.411 21.7665 25.1415C22.036 24.8719 22.1875 24.5062 22.1875 24.125V10.4688H19.3125C18.7406 10.4688 18.1922 10.2416 17.7878 9.8372C17.3834 9.43282 17.1562 8.88437 17.1562 8.3125V5.4375H9.25C8.86875 5.4375 8.50312 5.58895 8.23353 5.85853C7.96395 6.12812 7.8125 6.49375 7.8125 6.875V19.8125H6.375V6.875C6.375 6.1125 6.6779 5.38124 7.21707 4.84207C7.75624 4.3029 8.4875 4 9.25 4H17.1562L23.625 10.4688ZM3.5 25.3339C3.50823 25.5604 3.56377 25.7827 3.66304 25.9865C3.76232 26.1902 3.90314 26.3709 4.07644 26.517C4.26235 26.6723 4.4914 26.793 4.76356 26.8792C5.17181 27.0086 5.35438 27.0101 5.7195 27.0101C6.20538 27.0101 6.6165 26.9344 6.95287 26.7829C7.29308 26.6306 7.55183 26.4197 7.72913 26.1504C7.91041 25.8698 8.00399 25.5415 7.99794 25.2074C7.99794 24.8854 7.93325 24.6171 7.80387 24.4024C7.67236 24.187 7.48644 24.01 7.26481 23.8892C7.01089 23.7482 6.73705 23.6464 6.45262 23.5874L5.55994 23.3804C5.34945 23.3405 5.15053 23.254 4.97775 23.1274C4.91243 23.0766 4.85983 23.0114 4.82415 22.9368C4.78847 22.8622 4.77067 22.7803 4.77219 22.6976C4.77219 22.4733 4.86035 22.2893 5.03669 22.1456C5.2159 21.9999 5.46171 21.9271 5.77413 21.9271C5.97921 21.9271 6.1565 21.9596 6.306 22.0248C6.44382 22.0798 6.56513 22.1694 6.65819 22.285C6.74666 22.3917 6.80608 22.5195 6.83069 22.6559H7.90881C7.89069 22.3634 7.79165 22.0817 7.62275 21.8422C7.44161 21.5837 7.193 21.3799 6.904 21.2529C6.5512 21.0974 6.16811 21.0228 5.78275 21.0344C5.36108 21.0344 4.98925 21.1063 4.66725 21.25C4.34429 21.3928 4.09129 21.5945 3.90825 21.8552C3.72617 22.1168 3.63512 22.423 3.63512 22.7738C3.63512 23.0632 3.69406 23.3143 3.81194 23.527C3.92981 23.7397 4.098 23.9156 4.3165 24.0546C4.53596 24.1916 4.79471 24.2937 5.09275 24.3608L5.98112 24.5677C6.27821 24.6377 6.49958 24.7302 6.64525 24.8452C6.71667 24.8997 6.77393 24.9706 6.81221 25.052C6.85049 25.1333 6.86866 25.2226 6.86519 25.3124C6.86519 25.4705 6.82446 25.6095 6.743 25.7292C6.6502 25.8561 6.52227 25.9531 6.375 26.0081C6.21496 26.0752 6.01706 26.1087 5.78131 26.1087C5.61265 26.1087 5.45931 26.0896 5.32131 26.0513C5.19387 26.017 5.07328 25.9611 4.96481 25.8859C4.86923 25.8239 4.78739 25.7429 4.72434 25.6479C4.66129 25.553 4.61838 25.4461 4.59825 25.3339H3.5ZM13.3871 27.4744L12.6583 26.4121C12.9113 26.1792 13.1035 25.8917 13.2347 25.5496C13.367 25.2065 13.4331 24.8203 13.4331 24.3909V23.6707C13.4331 23.1379 13.3335 22.6746 13.1341 22.2807C12.948 21.8993 12.6535 21.5812 12.2874 21.3664C11.9204 21.1508 11.481 21.043 10.9693 21.043C10.4642 21.043 10.0262 21.1508 9.65538 21.3664C9.28737 21.5801 9.00371 21.8849 8.80438 22.2807C8.59901 22.7147 8.49809 23.1907 8.50969 23.6707V24.3895C8.50969 24.9204 8.60792 25.3828 8.80438 25.7767C9.00371 26.1696 9.28737 26.4744 9.65538 26.6909C10.0573 26.9119 10.5107 27.022 10.9693 27.0101C11.2628 27.0114 11.5545 26.9628 11.8317 26.8663L12.2544 27.4729L13.3871 27.4744ZM9.62663 24.4125V23.6621C9.62663 23.3085 9.68125 23.0066 9.7905 22.7565C9.88732 22.5244 10.0497 22.3256 10.2577 22.1844C10.4706 22.0505 10.7178 21.9816 10.9693 21.986C11.2453 21.986 11.4824 22.0521 11.6808 22.1844C11.8888 22.3256 12.0512 22.5244 12.148 22.7565C12.2582 23.0066 12.3133 23.3085 12.3133 23.6621V24.4125C12.3133 24.6483 12.2879 24.8615 12.2371 25.0522C12.1863 25.24 12.1121 25.4029 12.0143 25.5409L11.8619 25.3397L11.711 25.1284H10.6573L11.3056 26.0627C11.1916 26.1109 11.0685 26.1339 10.9448 26.1303C10.6956 26.1312 10.4518 26.0576 10.2448 25.919C10.0381 25.7744 9.87819 25.5725 9.78475 25.3382C9.67268 25.0428 9.61898 24.7284 9.62663 24.4125ZM15.3565 25.9319H17.7945V26.9008H14.2194V21.1523H15.3551L15.3565 25.9319Z" fill="currentColor"/>
</g>
<defs>
<clipPath id="clip0_7399_1160">
<rect width="23" height="23" fill="currentColor" transform="translate(3.5 4)"/>
</clipPath>
</defs>
</svg>
