<svg width="30" height="30" viewBox="0 0 30 30" fill="none" xmlns="http://www.w3.org/2000/svg">
<path d="M8.44629 3C7.12021 3 5.84844 3.52678 4.91076 4.46447C3.97307 5.40215 3.44629 6.67392 3.44629 8V20C3.44629 20.6566 3.57562 21.3068 3.82689 21.9134C4.07816 22.52 4.44646 23.0712 4.91076 23.5355C5.84844 24.4732 7.12021 25 8.44629 25H14.4463C14.7115 25 14.9659 24.8946 15.1534 24.7071C15.3409 24.5196 15.4463 24.2652 15.4463 24V15H24.4463C24.7115 15 24.9659 14.8946 25.1534 14.7071C25.3409 14.5196 25.4463 14.2652 25.4463 14V8C25.4463 7.34339 25.317 6.69321 25.0657 6.08658C24.8144 5.47995 24.4461 4.92876 23.9818 4.46447C23.5175 4.00017 22.9663 3.63188 22.3597 3.3806C21.7531 3.12933 21.1029 3 20.4463 3H8.44629ZM13.4463 15V23H8.44629C7.65064 23 6.88758 22.6839 6.32497 22.1213C5.76236 21.5587 5.44629 20.7956 5.44629 20V15H13.4463ZM13.4463 13H5.44629V8C5.44629 7.20435 5.76236 6.44129 6.32497 5.87868C6.88758 5.31607 7.65064 5 8.44629 5H13.4463V13ZM15.4463 13V5H20.4463C21.2419 5 22.005 5.31607 22.5676 5.87868C23.1302 6.44129 23.4463 7.20435 23.4463 8V13H15.4463Z" fill="currentColor"/>
<path d="M21.4463 20C21.9986 20 22.4463 19.5523 22.4463 19C22.4463 18.4477 21.9986 18 21.4463 18C20.894 18 20.4463 18.4477 20.4463 19C20.4463 19.5523 20.894 20 21.4463 20Z" fill="#FE001E"/>
<path d="M21.4463 20C21.9986 20 22.4463 19.5523 22.4463 19C22.4463 18.4477 21.9986 18 21.4463 18C20.894 18 20.4463 18.4477 20.4463 19C20.4463 19.5523 20.894 20 21.4463 20Z" stroke="#FE001E"/>
<path d="M21.4463 23C21.9986 23 22.4463 22.5523 22.4463 22C22.4463 21.4477 21.9986 21 21.4463 21C20.894 21 20.4463 21.4477 20.4463 22C20.4463 22.5523 20.894 23 21.4463 23Z" fill="#FE001E"/>
<path d="M21.4463 23C21.9986 23 22.4463 22.5523 22.4463 22C22.4463 21.4477 21.9986 21 21.4463 21C20.894 21 20.4463 21.4477 20.4463 22C20.4463 22.5523 20.894 23 21.4463 23Z" stroke="#FE001E"/>
<path d="M22.6196 26.2857C22.5575 26.1064 22.4573 25.9436 22.3265 25.809C22.1956 25.6744 22.0373 25.5714 21.863 25.5075V24.5715H23.113C23.174 24.5715 23.2343 24.5576 23.2896 24.531C23.3449 24.5043 23.3939 24.4655 23.433 24.4172L25.5163 21.8458C25.5571 21.7955 25.5861 21.7362 25.6011 21.6725C25.6161 21.6089 25.6168 21.5425 25.603 21.4785L24.7696 17.6214C24.7553 17.5551 24.7259 17.4932 24.6837 17.4409C24.6416 17.3885 24.5879 17.3473 24.5271 17.3206L21.6105 16.0349C21.5586 16.0119 21.5028 16 21.4463 16C21.3898 16 21.334 16.0119 21.2821 16.0349L18.365 17.3206C18.3042 17.3473 18.2505 17.3885 18.2082 17.4408C18.166 17.4931 18.1365 17.5551 18.1221 17.6214L17.2896 21.4785C17.2758 21.5425 17.2764 21.6089 17.2915 21.6725C17.3065 21.7362 17.3355 21.7955 17.3763 21.8458L19.4596 24.4172C19.4987 24.4655 19.5476 24.5043 19.6029 24.531C19.6582 24.5576 19.7185 24.5715 19.7796 24.5715H21.0296V25.5079C20.8553 25.5717 20.697 25.6746 20.5661 25.8092C20.4352 25.9437 20.3351 26.1065 20.273 26.2857H16.4463V27.1429H20.273C20.4455 27.6404 20.9038 28 21.4463 28C21.9888 28 22.4471 27.6404 22.6196 27.1429H26.4463V26.2857H22.6196ZM18.1475 21.4588L18.8892 18.0217L21.4463 16.8946L24.0025 18.0217L24.745 21.4588L22.918 23.7144H19.9746L18.1475 21.4588ZM21.4463 27.1429C21.339 27.1379 21.2377 27.0906 21.1635 27.0108C21.0893 26.931 21.0478 26.8248 21.0478 26.7143C21.0478 26.6038 21.0893 26.4976 21.1635 26.4178C21.2377 26.338 21.339 26.2907 21.4463 26.2857C21.5536 26.2907 21.6549 26.338 21.7291 26.4178C21.8033 26.4976 21.8447 26.6038 21.8447 26.7143C21.8447 26.8248 21.8033 26.931 21.7291 27.0108C21.6549 27.0906 21.5536 27.1379 21.4463 27.1429Z" fill="#FE001E"/>
<path d="M22.6196 26.2857C22.5575 26.1064 22.4573 25.9436 22.3265 25.809C22.1956 25.6744 22.0373 25.5714 21.863 25.5075V24.5715H23.113C23.174 24.5715 23.2343 24.5576 23.2896 24.531C23.3449 24.5043 23.3939 24.4655 23.433 24.4172L25.5163 21.8458C25.5571 21.7955 25.5861 21.7362 25.6011 21.6725C25.6161 21.6089 25.6168 21.5425 25.603 21.4785L24.7696 17.6214C24.7553 17.5551 24.7259 17.4932 24.6837 17.4409C24.6416 17.3885 24.5879 17.3473 24.5271 17.3206L21.6105 16.0349C21.5586 16.0119 21.5028 16 21.4463 16C21.3898 16 21.334 16.0119 21.2821 16.0349L18.365 17.3206C18.3042 17.3473 18.2505 17.3885 18.2082 17.4408C18.166 17.4931 18.1365 17.5551 18.1221 17.6214L17.2896 21.4785C17.2758 21.5425 17.2764 21.6089 17.2915 21.6725C17.3065 21.7362 17.3355 21.7955 17.3763 21.8458L19.4596 24.4172C19.4987 24.4655 19.5476 24.5043 19.6029 24.531C19.6582 24.5576 19.7185 24.5715 19.7796 24.5715H21.0296V25.5079C20.8553 25.5717 20.697 25.6746 20.5661 25.8092C20.4352 25.9437 20.3351 26.1065 20.273 26.2857H16.4463V27.1429H20.273C20.4455 27.6404 20.9038 28 21.4463 28C21.9888 28 22.4471 27.6404 22.6196 27.1429H26.4463V26.2857H22.6196ZM18.1475 21.4588L18.8892 18.0217L21.4463 16.8946L24.0025 18.0217L24.745 21.4588L22.918 23.7144H19.9746L18.1475 21.4588ZM21.4463 27.1429C21.339 27.1379 21.2377 27.0906 21.1635 27.0108C21.0893 26.931 21.0478 26.8248 21.0478 26.7143C21.0478 26.6038 21.0893 26.4976 21.1635 26.4178C21.2377 26.338 21.339 26.2907 21.4463 26.2857C21.5536 26.2907 21.6549 26.338 21.7291 26.4178C21.8033 26.4976 21.8447 26.6038 21.8447 26.7143C21.8447 26.8248 21.8033 26.931 21.7291 27.0108C21.6549 27.0906 21.5536 27.1379 21.4463 27.1429Z" stroke="#FE001E"/>
</svg>
