<svg width="9" height="33" viewBox="0 0 9 33" fill="none" xmlns="http://www.w3.org/2000/svg">
<path d="M0.889624 3.95132L0.889632 3.95132L0.889333 3.94849C0.843411 3.51343 0.889467 3.07358 1.02452 2.65747C1.15956 2.24136 1.38058 1.8583 1.67324 1.53312C1.9659 1.20795 2.32365 0.947937 2.72328 0.769956C3.12291 0.591974 3.5555 0.5 3.99298 0.5C4.43045 0.5 4.86304 0.591974 5.26267 0.769956C5.6623 0.947937 6.02005 1.20795 6.31271 1.53312C6.60536 1.8583 6.82639 2.24136 6.96143 2.65747C7.09648 3.07358 7.14254 3.51343 7.09661 3.94849L7.09632 3.95132L5.69623 17.9804C5.69619 17.9808 5.69615 17.9811 5.69611 17.9815C5.65184 18.4021 5.45347 18.7915 5.13921 19.0746C4.82468 19.358 4.41633 19.5148 3.99298 19.5148C3.56962 19.5148 3.16128 19.358 2.84674 19.0746C2.53247 18.7915 2.3341 18.4021 2.28984 17.9815C2.2898 17.9811 2.28976 17.9808 2.28972 17.9804L0.889624 3.95132ZM0.5 28.0268C0.5 27.5671 0.590555 27.1118 0.766496 26.6871C0.942436 26.2623 1.20032 25.8764 1.52541 25.5513L1.17566 25.2015L1.52541 25.5513C1.85051 25.2262 2.23645 24.9683 2.66121 24.7924L2.46987 24.3304L2.66121 24.7924C3.08597 24.6164 3.54122 24.5259 4.00098 24.5259C4.46073 24.5259 4.91599 24.6164 5.34074 24.7924L5.53209 24.3304L5.34074 24.7924C5.7655 24.9683 6.15144 25.2262 6.47654 25.5513L6.83009 25.1977L6.47654 25.5513C6.80164 25.8764 7.05952 26.2623 7.23546 26.6871C7.4114 27.1118 7.50195 27.5671 7.50195 28.0268C7.50195 28.9554 7.1331 29.8458 6.47654 30.5024C5.81998 31.159 4.92949 31.5278 4.00098 31.5278C3.07246 31.5278 2.18197 31.159 1.52541 30.5024C0.868852 29.8458 0.5 28.9554 0.5 28.0268Z"
      fill="currentColor" stroke="white"/>
</svg>
