<svg width="16" height="16" viewBox="0 0 16 16" fill="none" xmlns="http://www.w3.org/2000/svg">
  <path fill-rule="evenodd" clip-rule="evenodd" d="M14.75 11C15.1642 11 15.5 11.3358 15.5 11.75V14C15.5 14.8284 14.8284 15.5 14 15.5H2C1.17157 15.5 0.5 14.8284 0.5 14V11.75C0.5 11.3358 0.835786 11 1.25 11V11C1.66421 11 2 11.3358 2 11.75V13C2 13.5523 2.44772 14 3 14H13C13.5523 14 14 13.5523 14 13V11.75C14 11.3358 14.3358 11 14.75 11V11ZM8.75 8.43934L10.6893 6.5C10.9822 6.20711 11.4571 6.20711 11.75 6.5V6.5C12.0429 6.79289 12.0429 7.26777 11.75 7.56066L8.70711 10.6036C8.31658 10.9941 7.68342 10.9941 7.29289 10.6036L4.25 7.56066C3.95711 7.26777 3.95711 6.79289 4.25 6.5V6.5C4.54289 6.20711 5.01777 6.20711 5.31066 6.5L7.25 8.43934V1.25C7.25 0.835786 7.58579 0.5 8 0.5V0.5C8.41421 0.5 8.75 0.835786 8.75 1.25V8.43934Z" fill="currentColor"/>
</svg>