<svg width="30" height="30" viewBox="0 0 30 30" fill="none" xmlns="http://www.w3.org/2000/svg">
<path d="M22.954 15.1173C22.9307 15.0647 22.366 13.812 21.1107 12.5567C19.438 10.884 17.3253 10 15 10C12.6747 10 10.562 10.884 8.88933 12.5567C7.63399 13.812 7.06666 15.0667 7.04599 15.1173C7.01567 15.1855 7 15.2594 7 15.334C7 15.4086 7.01567 15.4825 7.04599 15.5507C7.06933 15.6033 7.63399 16.8553 8.88933 18.1107C10.562 19.7827 12.6747 20.6667 15 20.6667C17.3253 20.6667 19.438 19.7827 21.1107 18.1107C22.366 16.8553 22.9307 15.6033 22.954 15.5507C22.9843 15.4825 23 15.4086 23 15.334C23 15.2594 22.9843 15.1855 22.954 15.1173ZM15 19.6C12.948 19.6 11.1553 18.854 9.67133 17.3833C9.06243 16.7778 8.54439 16.0873 8.13333 15.3333C8.54428 14.5793 9.06233 13.8888 9.67133 13.2833C11.1553 11.8127 12.948 11.0667 15 11.0667C17.052 11.0667 18.8447 11.8127 20.3287 13.2833C20.9388 13.8886 21.4579 14.5791 21.87 15.3333C21.3893 16.2307 19.2953 19.6 15 19.6ZM15 12.1333C14.3671 12.1333 13.7484 12.321 13.2222 12.6726C12.6959 13.0243 12.2858 13.524 12.0436 14.1087C11.8014 14.6935 11.738 15.3369 11.8615 15.9576C11.985 16.5784 12.2897 17.1486 12.7373 17.5961C13.1848 18.0436 13.755 18.3484 14.3757 18.4719C14.9964 18.5953 15.6399 18.532 16.2246 18.2898C16.8093 18.0476 17.3091 17.6374 17.6607 17.1112C18.0123 16.5849 18.2 15.9662 18.2 15.3333C18.1991 14.4849 17.8617 13.6715 17.2618 13.0716C16.6618 12.4716 15.8484 12.1342 15 12.1333ZM15 17.4667C14.5781 17.4667 14.1656 17.3416 13.8148 17.1071C13.464 16.8727 13.1905 16.5395 13.0291 16.1497C12.8676 15.7599 12.8253 15.331 12.9077 14.9171C12.99 14.5033 13.1932 14.1232 13.4915 13.8248C13.7899 13.5265 14.17 13.3233 14.5838 13.241C14.9976 13.1587 15.4266 13.2009 15.8164 13.3624C16.2062 13.5239 16.5394 13.7973 16.7738 14.1481C17.0082 14.4989 17.1333 14.9114 17.1333 15.3333C17.1333 15.8991 16.9086 16.4418 16.5085 16.8418C16.1084 17.2419 15.5658 17.4667 15 17.4667Z" fill="currentColor"/>
</svg>
