<svg width="13" height="12" viewBox="0 0 13 12" fill="none" xmlns="http://www.w3.org/2000/svg">
<circle cx="6.5" cy="6" r="5" stroke="currentColor" stroke-width="0.8"/>
<path d="M6.20695 3.48792C6.20695 3.10926 6.35895 2.91992 6.66295 2.91992C6.80162 2.91992 6.90829 2.97059 6.98295 3.07192C7.05762 3.16792 7.09495 3.30659 7.09495 3.48792C7.09495 3.70659 7.08962 3.95726 7.07895 4.23992C7.07362 4.52259 7.06295 4.81859 7.04695 5.12792C7.03095 5.43192 7.01229 5.73326 6.99095 6.03192C6.97495 6.32526 6.95095 6.59725 6.91895 6.84792C6.89229 7.09326 6.86295 7.29859 6.83095 7.46392H6.47895C6.44162 7.29859 6.40962 7.09326 6.38295 6.84792C6.35629 6.59725 6.32962 6.32526 6.30295 6.03192C6.28162 5.73326 6.26295 5.43192 6.24695 5.12792C6.23629 4.81859 6.22562 4.52259 6.21495 4.23992C6.20962 3.95726 6.20695 3.70659 6.20695 3.48792ZM7.19095 8.54392C7.19095 8.69326 7.13762 8.81859 7.03095 8.91992C6.92962 9.01592 6.80695 9.06125 6.66295 9.05592C6.51362 9.05059 6.38562 8.99459 6.27895 8.88792C6.17762 8.77592 6.12695 8.63726 6.12695 8.47192C6.12695 8.32259 6.17762 8.19726 6.27895 8.09592C6.38562 7.98925 6.51095 7.93859 6.65495 7.94392C6.80962 7.94926 6.93762 8.00792 7.03895 8.11992C7.14029 8.23192 7.19095 8.37326 7.19095 8.54392Z" fill="currentColor"/>
</svg>