<svg width="22" height="23" viewBox="0 0 22 23" fill="none" xmlns="http://www.w3.org/2000/svg">
    <path
      d="M2.75 18.6499L3.94167 15.0749C2.91174 13.5516 2.53916 11.7477 2.8932 9.99865C3.24724 8.24954 4.30381 6.67423 5.86645 5.56562C7.4291 4.457 9.39149 3.89052 11.3887 3.9715C13.386 4.05249 15.2822 4.77542 16.7248 6.00588C18.1675 7.23635 19.0583 8.89061 19.2317 10.6611C19.4052 12.4316 18.8494 14.1978 17.6677 15.6314C16.4861 17.065 14.7589 18.0683 12.8075 18.4549C10.856 18.8415 8.81302 18.5851 7.05833 17.7332L2.75 18.6499Z"
      stroke="currentColor"
      strokeWidth="1.1"
      strokeLinecap="round"
      strokeLinejoin="round"
    />
    <path
      d="M9.57655 13.2637L10.9891 12.4117L12.4017 13.2749L12.0317 11.6605L13.2761 10.5843L11.6394 10.4385L10.9891 8.91385L10.3389 10.4273L8.7021 10.5731L9.94651 11.6605L9.57655 13.2637ZM10.9891 13.4655L9.12811 14.5866C9.0459 14.6389 8.95995 14.6613 8.87026 14.6538C8.78057 14.6464 8.7021 14.6165 8.63483 14.5641C8.56757 14.5118 8.51525 14.4465 8.47788 14.3682C8.44051 14.2896 8.43304 14.2017 8.45546 14.1045L8.94874 11.9856L7.30073 10.5619C7.22599 10.4946 7.17936 10.4179 7.16082 10.3318C7.14199 10.246 7.14752 10.162 7.17741 10.0798C7.20731 9.99757 7.25215 9.9303 7.31194 9.87799C7.37174 9.82567 7.45395 9.79204 7.55858 9.77709L9.7335 9.5865L10.5743 7.59096C10.6117 7.50127 10.6697 7.43401 10.7483 7.38916C10.8266 7.34432 10.9069 7.3219 10.9891 7.3219C11.0713 7.3219 11.1518 7.34432 11.2304 7.38916C11.3087 7.43401 11.3666 7.50127 11.4039 7.59096L12.2447 9.5865L14.4197 9.77709C14.5243 9.79204 14.6065 9.82567 14.6663 9.87799C14.7261 9.9303 14.7709 9.99757 14.8008 10.0798C14.8307 10.162 14.8364 10.246 14.8179 10.3318C14.799 10.4179 14.7522 10.4946 14.6775 10.5619L13.0295 11.9856L13.5228 14.1045C13.5452 14.2017 13.5377 14.2896 13.5004 14.3682C13.463 14.4465 13.4107 14.5118 13.3434 14.5641C13.2761 14.6165 13.1977 14.6464 13.108 14.6538C13.0183 14.6613 12.9323 14.6389 12.8501 14.5866L10.9891 13.4655Z"
      fill="currentColor"
    />
  </svg>