<svg xmlns="http://www.w3.org/2000/svg" width="30" height="30" viewBox="0 0 30 30" fill="none">
  <path
    d="M7 22.375V7.375C7 6.74511 7.24991 6.14071 7.69531 5.69531C8.14071 5.24991 8.74511 5 9.375 5H16.4629C17.0833 5.00016 17.6794 5.24299 18.123 5.67676L22.2852 9.74707L22.4463 9.9209C22.598 10.1021 22.7214 10.3058 22.8135 10.5244C22.9362 10.8159 22.9999 11.129 23 11.4453V22.375C23 23.0049 22.7501 23.6093 22.3047 24.0547C21.8593 24.5001 21.2549 24.75 20.625 24.75H9.375C8.74511 24.75 8.14071 24.5001 7.69531 24.0547C7.24991 23.6093 7 23.0049 7 22.375ZM15 19.0625L15.1006 19.0723C15.3286 19.1188 15.5 19.3208 15.5 19.5625C15.5 19.8042 15.3286 20.0062 15.1006 20.0527L15 20.0625H12.1875C11.9114 20.0625 11.6875 19.8386 11.6875 19.5625C11.6875 19.2864 11.9114 19.0625 12.1875 19.0625H15ZM17.8125 15.3125L17.9131 15.3223C18.1411 15.3688 18.3125 15.5708 18.3125 15.8125C18.3125 16.0542 18.1411 16.2562 17.9131 16.3027L17.8125 16.3125H12.1875C11.9114 16.3125 11.6875 16.0886 11.6875 15.8125C11.6875 15.5364 11.9114 15.3125 12.1875 15.3125H17.8125ZM8 22.375C8 22.7397 8.14448 23.0898 8.40234 23.3477C8.66021 23.6055 9.01033 23.75 9.375 23.75H20.625C20.9897 23.75 21.3398 23.6055 21.5977 23.3477C21.8555 23.0898 22 22.7397 22 22.375V11.4453C21.9999 11.2623 21.9636 11.0808 21.8926 10.9121C21.8215 10.7434 21.7169 10.5909 21.5859 10.4629L17.4238 6.3916C17.1671 6.14053 16.822 6.00016 16.4629 6H9.375C9.01033 6 8.66021 6.14448 8.40234 6.40234C8.14448 6.66021 8 7.01033 8 7.375V22.375Z"
    fill="var(--text-primary)"
  />
  <path
    d="M16.375 9.25V5.5H17.375V9.25C17.375 9.61467 17.5195 9.96479 17.7773 10.2227C18.0352 10.4805 18.3853 10.625 18.75 10.625H22.5V11.625H18.75C18.1201 11.625 17.5157 11.3751 17.0703 10.9297C16.6249 10.4843 16.375 9.87989 16.375 9.25Z"
    fill="var(--text-primary)"
  />
</svg>
