<svg width="36" height="36" viewBox="0 0 36 36" fill="none" xmlns="http://www.w3.org/2000/svg">
<path d="M28.8002 11.25V30.15C28.8002 30.508 28.658 30.8514 28.4048 31.1046C28.1516 31.3578 27.8082 31.5 27.4502 31.5H8.5502C8.19215 31.5 7.84878 31.3578 7.5956 31.1046C7.34243 30.8514 7.2002 30.508 7.2002 30.15V5.85C7.2002 5.49196 7.34243 5.14858 7.5956 4.89541C7.84878 4.64223 8.19215 4.5 8.5502 4.5H22.0502M28.8002 11.25H22.0502V4.5M28.8002 11.25L22.0502 4.5" stroke="currentColor" stroke-width="1.5" stroke-linecap="round" stroke-linejoin="round"/>
<path d="M11.25 16.2449C11.25 15.2546 18 13.2749 18 13.2749C18 13.2749 24.75 15.2546 24.75 16.2449C24.75 24.1646 18 28.1249 18 28.1249C18 28.1249 11.25 24.1646 11.25 16.2449Z" stroke="currentColor" stroke-width="1.5" stroke-linecap="round" stroke-linejoin="round"/>
<path d="M15.75 20.25L17.3654 22.5L21 18" stroke="currentColor" stroke-width="1.5" stroke-linecap="round" stroke-linejoin="round"/>
</svg>
