<svg width="14" height="8" viewBox="0 0 14 8" fill="none" xmlns="http://www.w3.org/2000/svg">
<path d="M3.09375 4C3.09375 3.56853 3.44353 3.21875 3.875 3.21875H10.125C10.5565 3.21875 10.9062 3.56853 10.9062 4C10.9062 4.43147 10.5565 4.78125 10.125 4.78125H3.875C3.44353 4.78125 3.09375 4.43147 3.09375 4ZM0.75 0.875C0.75 0.443527 1.09978 0.09375 1.53125 0.09375H12.4688C12.9002 0.09375 13.25 0.443527 13.25 0.875C13.25 1.30647 12.9002 1.65625 12.4688 1.65625H1.53125C1.09978 1.65625 0.75 1.30647 0.75 0.875ZM5.4375 7.125C5.4375 6.69353 5.78728 6.34375 6.21875 6.34375H7.78125C8.21272 6.34375 8.5625 6.69353 8.5625 7.125C8.5625 7.55647 8.21272 7.90625 7.78125 7.90625H6.21875C5.78728 7.90625 5.4375 7.55647 5.4375 7.125Z" fill="currentColor"/>
</svg>
