<svg width="16" height="15" viewBox="0 0 16 15" fill="none" xmlns="http://www.w3.org/2000/svg">
<path fill-rule="evenodd" clip-rule="evenodd" d="M1.03571 2.62504H2.00465C2.12085 3.03632 2.36815 3.39842 2.70897 3.65628C3.04979 3.91414 3.46548 4.05366 3.89286 4.05366C4.32023 4.05366 4.73593 3.91414 5.07674 3.65628C5.41756 3.39842 5.66486 3.03632 5.78107 2.62504H14.9643C15.1064 2.62504 15.2426 2.56861 15.3431 2.46814C15.4436 2.36767 15.5 2.23141 15.5 2.08933C15.5 1.94725 15.4436 1.81098 15.3431 1.71052C15.2426 1.61005 15.1064 1.55362 14.9643 1.55362H5.78107C5.66486 1.14234 5.41756 0.780244 5.07674 0.522382C4.73593 0.264521 4.32023 0.125 3.89286 0.125C3.46548 0.125 3.04979 0.264521 2.70897 0.522382C2.36815 0.780244 2.12085 1.14234 2.00465 1.55362H1.03571C0.893634 1.55362 0.75737 1.61005 0.656904 1.71052C0.556438 1.81098 0.5 1.94725 0.5 2.08933C0.5 2.23141 0.556438 2.36767 0.656904 2.46814C0.75737 2.56861 0.893634 2.62504 1.03571 2.62504ZM3.89286 1.19647C4.06945 1.19647 4.24207 1.24886 4.3889 1.34697C4.53573 1.44508 4.65017 1.58451 4.71775 1.74766C4.78533 1.91081 4.80301 2.0903 4.76856 2.2635C4.73411 2.43669 4.64907 2.59583 4.5242 2.72069C4.39933 2.84556 4.24024 2.93056 4.06705 2.96501C3.89385 2.99946 3.71432 2.9818 3.55117 2.91422C3.38802 2.84664 3.24858 2.7322 3.15047 2.58537C3.05236 2.43854 3 2.26592 3 2.08933C3 1.85253 3.09407 1.62541 3.26151 1.45796C3.42896 1.29052 3.65606 1.19647 3.89286 1.19647ZM14.9643 6.55362H9.82785C9.68453 6.1854 9.43335 5.86907 9.1072 5.64602C8.78104 5.42298 8.39513 5.30362 8 5.30362C7.60487 5.30362 7.21896 5.42298 6.8928 5.64602C6.56665 5.86907 6.31547 6.1854 6.17215 6.55362H1.03571C0.893634 6.55362 0.75737 6.61005 0.656904 6.71052C0.556438 6.81099 0.5 6.94725 0.5 7.08933C0.5 7.23141 0.556438 7.36767 0.656904 7.46814C0.75737 7.56861 0.893634 7.62504 1.03571 7.62504H6.07142C6.15457 8.07623 6.39318 8.48402 6.74577 8.77756C7.09836 9.07111 7.54265 9.23188 8.00144 9.23188C8.46023 9.23188 8.9045 9.07111 9.25708 8.77756C9.60967 8.48402 9.84829 8.07623 9.93144 7.62504H14.9671C15.1092 7.62466 15.2453 7.56787 15.3455 7.46714C15.4457 7.3664 15.5018 7.22997 15.5014 7.08789C15.5011 6.94581 15.4442 6.80971 15.3435 6.70952C15.2428 6.60932 15.1064 6.55324 14.9643 6.55362ZM8 8.16076C7.82341 8.16076 7.65079 8.10837 7.50396 8.01026C7.35713 7.91215 7.24269 7.77272 7.17511 7.60957C7.10753 7.44642 7.08985 7.26693 7.1243 7.09373C7.15875 6.92054 7.24379 6.7614 7.36866 6.63654C7.49352 6.51167 7.65261 6.42667 7.82581 6.39222C7.99901 6.35777 8.17854 6.37543 8.34169 6.44301C8.50484 6.51059 8.64427 6.62503 8.74238 6.77186C8.84049 6.91869 8.89286 7.09131 8.89286 7.2679C8.89286 7.5047 8.79879 7.73182 8.63134 7.89927C8.4639 8.06671 8.2368 8.16076 8 8.16076ZM14.9643 11.5536H13.9954C13.8791 11.1423 13.6318 10.7802 13.291 10.5224C12.9502 10.2645 12.5345 10.125 12.1071 10.125C11.6798 10.125 11.2641 10.2645 10.9233 10.5224C10.5824 10.7802 10.3351 11.1423 10.2189 11.5536H1.03571C0.893634 11.5536 0.75737 11.6101 0.656904 11.7105C0.556438 11.811 0.5 11.9472 0.5 12.0893C0.5 12.2314 0.556438 12.3677 0.656904 12.4681C0.75737 12.5686 0.893634 12.625 1.03571 12.625H10.2189C10.3351 13.0363 10.5824 13.3984 10.9233 13.6563C11.2641 13.9141 11.6798 14.0537 12.1071 14.0537C12.5345 14.0537 12.9502 13.9141 13.291 13.6563C13.6318 13.3984 13.8791 13.0363 13.9954 12.625H14.9643C15.1064 12.625 15.2426 12.5686 15.3431 12.4681C15.4436 12.3677 15.5 12.2314 15.5 12.0893C15.5 11.9472 15.4436 11.811 15.3431 11.7105C15.2426 11.6101 15.1064 11.5536 14.9643 11.5536ZM12.1071 12.9822C11.9306 12.9822 11.7579 12.9298 11.6111 12.8317C11.4643 12.7336 11.3498 12.5941 11.2823 12.431C11.2147 12.2678 11.197 12.0884 11.2314 11.9152C11.2659 11.742 11.3509 11.5828 11.4758 11.458C11.6007 11.3331 11.7598 11.2481 11.933 11.2136C12.1061 11.1792 12.2857 11.1969 12.4488 11.2644C12.612 11.332 12.7514 11.4465 12.8495 11.5933C12.9476 11.7401 13 11.9127 13 12.0893C13 12.3261 12.9059 12.5533 12.7385 12.7207C12.571 12.8881 12.3439 12.9822 12.1071 12.9822Z" fill="currentColor"/>
</svg>
