<svg width="375" height="250" viewBox="0 0 375 250" fill="none" xmlns="http://www.w3.org/2000/svg">
<path d="M290.4 97.56C285.697 73.728 272.866 52.268 254.099 36.8454C235.331 21.4229 211.791 12.9945 187.5 13C147.04 13 111.9 35.96 94.4 69.56C73.8233 71.7836 54.7941 81.5329 40.9688 96.9345C27.1436 112.336 19.4976 132.303 19.5 153C19.5 199.34 57.16 237 103.5 237H285.5C324.14 237 355.5 205.64 355.5 167C355.5 130.04 326.8 100.08 290.4 97.56Z" fill="currentColor"/>
<path d="M201.094 93.1875L184.951 121.649L173.906 110.604" stroke="#00AB63" stroke-width="5" stroke-linecap="round" stroke-linejoin="round"/>
<path d="M185.541 68.307C186.813 67.8938 188.183 67.8938 189.456 68.307L219.362 78.0039C220.636 78.4173 221.747 79.2236 222.535 80.3072C223.323 81.3908 223.748 82.6961 223.748 84.0359V102.248C223.748 124.687 210.082 141.053 189.67 148.757C188.27 149.282 186.727 149.282 185.327 148.757C164.918 141.05 151.248 124.687 151.248 102.248V84.0359C151.248 81.2809 153.024 78.8521 155.634 78.0039L185.541 68.307ZM187.777 73.4763C187.596 73.4182 187.401 73.4182 187.219 73.4763L157.313 83.1804C157.131 83.2392 156.973 83.354 156.86 83.5083C156.747 83.6626 156.686 83.8485 156.686 84.0395V102.248C156.686 122.044 168.576 136.624 187.244 143.667C187.408 143.729 187.588 143.729 187.752 143.667C206.421 136.624 218.311 122.04 218.311 102.248V84.0359C218.31 83.8449 218.249 83.6589 218.136 83.5046C218.024 83.3503 217.865 83.2356 217.684 83.1768L187.777 73.4763Z" fill="#00AB63"/>
<g clip-path="url(#clip0_556_10892)">
<path d="M72.168 175.939L68.1152 188H65.2734L70.5859 173.781H72.4023L72.168 175.939ZM75.5566 188L71.4844 175.939L71.2402 173.781H73.0664L78.4082 188H75.5566ZM75.3711 182.717V184.836H67.7441V182.717H75.3711ZM84.502 177.434V179.289H78.4473V177.434H84.502ZM80.0684 174.836H82.6562V184.953C82.6562 185.266 82.6986 185.507 82.7832 185.676C82.8678 185.845 82.9948 185.959 83.1641 186.018C83.3333 186.076 83.5352 186.105 83.7695 186.105C83.9388 186.105 84.0951 186.096 84.2383 186.076C84.3815 186.057 84.502 186.037 84.5996 186.018L84.6094 187.951C84.3945 188.023 84.1504 188.081 83.877 188.127C83.61 188.173 83.3073 188.195 82.9688 188.195C82.3893 188.195 81.8815 188.098 81.4453 187.902C81.0091 187.701 80.6706 187.378 80.4297 186.936C80.1888 186.486 80.0684 185.894 80.0684 185.158V174.836ZM91.2207 177.434V179.289H85.166V177.434H91.2207ZM86.7871 174.836H89.375V184.953C89.375 185.266 89.4173 185.507 89.502 185.676C89.5866 185.845 89.7135 185.959 89.8828 186.018C90.0521 186.076 90.2539 186.105 90.4883 186.105C90.6576 186.105 90.8138 186.096 90.957 186.076C91.1003 186.057 91.2207 186.037 91.3184 186.018L91.3281 187.951C91.1133 188.023 90.8691 188.081 90.5957 188.127C90.3288 188.173 90.026 188.195 89.6875 188.195C89.1081 188.195 88.6003 188.098 88.1641 187.902C87.7279 187.701 87.3893 187.378 87.1484 186.936C86.9076 186.486 86.7871 185.894 86.7871 185.158V174.836ZM98.7598 185.754V180.881C98.7598 180.523 98.6979 180.214 98.5742 179.953C98.4505 179.693 98.2617 179.491 98.0078 179.348C97.7539 179.204 97.4316 179.133 97.041 179.133C96.696 179.133 96.3932 179.191 96.1328 179.309C95.8789 179.426 95.6836 179.592 95.5469 179.807C95.4102 180.015 95.3418 180.256 95.3418 180.529H92.7539C92.7539 180.093 92.8581 179.68 93.0664 179.289C93.2747 178.892 93.571 178.54 93.9551 178.234C94.3457 177.922 94.8112 177.678 95.3516 177.502C95.8984 177.326 96.5104 177.238 97.1875 177.238C97.9883 177.238 98.7012 177.375 99.3262 177.648C99.9577 177.915 100.452 178.319 100.811 178.859C101.175 179.4 101.357 180.08 101.357 180.9V185.51C101.357 186.037 101.39 186.49 101.455 186.867C101.527 187.238 101.631 187.561 101.768 187.834V188H99.1406C99.0169 187.733 98.9225 187.395 98.8574 186.984C98.7923 186.568 98.7598 186.158 98.7598 185.754ZM99.1211 181.564L99.1406 183.098H97.5098C97.1061 183.098 96.7513 183.14 96.4453 183.225C96.1393 183.303 95.8887 183.42 95.6934 183.576C95.498 183.726 95.3516 183.908 95.2539 184.123C95.1562 184.331 95.1074 184.569 95.1074 184.836C95.1074 185.096 95.166 185.331 95.2832 185.539C95.4069 185.747 95.5827 185.913 95.8105 186.037C96.0449 186.154 96.3184 186.213 96.6309 186.213C97.0866 186.213 97.4837 186.122 97.8223 185.939C98.1608 185.751 98.4245 185.523 98.6133 185.256C98.8021 184.989 98.903 184.735 98.916 184.494L99.6582 185.607C99.5671 185.874 99.4303 186.158 99.248 186.457C99.0658 186.757 98.8314 187.036 98.5449 187.297C98.2585 187.557 97.9134 187.772 97.5098 187.941C97.1061 188.111 96.6374 188.195 96.1035 188.195C95.4199 188.195 94.8079 188.059 94.2676 187.785C93.7272 187.512 93.3008 187.137 92.9883 186.662C92.6758 186.187 92.5195 185.646 92.5195 185.041C92.5195 184.481 92.6237 183.986 92.832 183.557C93.0404 183.127 93.3496 182.766 93.7598 182.473C94.1699 182.173 94.6777 181.949 95.2832 181.799C95.8952 181.643 96.5951 181.564 97.3828 181.564H99.1211ZM108.018 186.164C108.382 186.164 108.708 186.092 108.994 185.949C109.281 185.806 109.508 185.604 109.678 185.344C109.854 185.083 109.948 184.781 109.961 184.436H112.393C112.38 185.152 112.178 185.793 111.787 186.359C111.396 186.926 110.876 187.375 110.225 187.707C109.58 188.033 108.857 188.195 108.057 188.195C107.243 188.195 106.533 188.059 105.928 187.785C105.322 187.512 104.818 187.131 104.414 186.643C104.017 186.154 103.717 185.588 103.516 184.943C103.32 184.299 103.223 183.609 103.223 182.873V182.561C103.223 181.825 103.32 181.135 103.516 180.49C103.717 179.846 104.017 179.279 104.414 178.791C104.818 178.303 105.322 177.922 105.928 177.648C106.533 177.375 107.24 177.238 108.047 177.238C108.9 177.238 109.648 177.404 110.293 177.736C110.944 178.068 111.452 178.537 111.816 179.143C112.188 179.748 112.38 180.461 112.393 181.281H109.961C109.948 180.904 109.863 180.565 109.707 180.266C109.551 179.966 109.329 179.725 109.043 179.543C108.757 179.361 108.408 179.27 107.998 179.27C107.562 179.27 107.197 179.361 106.904 179.543C106.618 179.725 106.393 179.976 106.23 180.295C106.074 180.607 105.964 180.959 105.898 181.35C105.84 181.734 105.811 182.137 105.811 182.561V182.873C105.811 183.303 105.84 183.713 105.898 184.104C105.964 184.494 106.074 184.846 106.23 185.158C106.393 185.464 106.618 185.708 106.904 185.891C107.197 186.073 107.568 186.164 108.018 186.164ZM116.689 172.99V188H114.111V172.99H116.689ZM123.311 177.434L118.711 182.6L116.221 185.129L115.4 183.127L117.324 180.705L120.195 177.434H123.311ZM120.674 188L117.402 183.078L119.121 181.408L123.662 188H120.674ZM133.35 185.275L136.182 173.781H137.715L137.812 176.203L134.785 188H133.164L133.35 185.275ZM131.562 173.781L133.887 185.236V188H132.119L128.896 173.781H131.562ZM140.752 185.188L143.037 173.781H145.713L142.49 188H140.723L140.752 185.188ZM138.447 173.781L141.279 185.314L141.445 188H139.824L136.807 176.193L136.924 173.781H138.447ZM152.705 185.754V180.881C152.705 180.523 152.643 180.214 152.52 179.953C152.396 179.693 152.207 179.491 151.953 179.348C151.699 179.204 151.377 179.133 150.986 179.133C150.641 179.133 150.339 179.191 150.078 179.309C149.824 179.426 149.629 179.592 149.492 179.807C149.355 180.015 149.287 180.256 149.287 180.529H146.699C146.699 180.093 146.803 179.68 147.012 179.289C147.22 178.892 147.516 178.54 147.9 178.234C148.291 177.922 148.757 177.678 149.297 177.502C149.844 177.326 150.456 177.238 151.133 177.238C151.934 177.238 152.646 177.375 153.271 177.648C153.903 177.915 154.398 178.319 154.756 178.859C155.12 179.4 155.303 180.08 155.303 180.9V185.51C155.303 186.037 155.335 186.49 155.4 186.867C155.472 187.238 155.576 187.561 155.713 187.834V188H153.086C152.962 187.733 152.868 187.395 152.803 186.984C152.738 186.568 152.705 186.158 152.705 185.754ZM153.066 181.564L153.086 183.098H151.455C151.051 183.098 150.697 183.14 150.391 183.225C150.085 183.303 149.834 183.42 149.639 183.576C149.443 183.726 149.297 183.908 149.199 184.123C149.102 184.331 149.053 184.569 149.053 184.836C149.053 185.096 149.111 185.331 149.229 185.539C149.352 185.747 149.528 185.913 149.756 186.037C149.99 186.154 150.264 186.213 150.576 186.213C151.032 186.213 151.429 186.122 151.768 185.939C152.106 185.751 152.37 185.523 152.559 185.256C152.747 184.989 152.848 184.735 152.861 184.494L153.604 185.607C153.512 185.874 153.376 186.158 153.193 186.457C153.011 186.757 152.777 187.036 152.49 187.297C152.204 187.557 151.859 187.772 151.455 187.941C151.051 188.111 150.583 188.195 150.049 188.195C149.365 188.195 148.753 188.059 148.213 187.785C147.673 187.512 147.246 187.137 146.934 186.662C146.621 186.187 146.465 185.646 146.465 185.041C146.465 184.481 146.569 183.986 146.777 183.557C146.986 183.127 147.295 182.766 147.705 182.473C148.115 182.173 148.623 181.949 149.229 181.799C149.84 181.643 150.54 181.564 151.328 181.564H153.066ZM163.438 185.109C163.438 184.888 163.379 184.689 163.262 184.514C163.145 184.338 162.923 184.178 162.598 184.035C162.279 183.885 161.81 183.745 161.191 183.615C160.645 183.498 160.14 183.352 159.678 183.176C159.215 183 158.818 182.788 158.486 182.541C158.154 182.287 157.894 181.991 157.705 181.652C157.523 181.307 157.432 180.91 157.432 180.461C157.432 180.025 157.526 179.615 157.715 179.23C157.904 178.84 158.177 178.498 158.535 178.205C158.893 177.906 159.329 177.671 159.844 177.502C160.358 177.326 160.938 177.238 161.582 177.238C162.48 177.238 163.252 177.385 163.896 177.678C164.548 177.971 165.046 178.374 165.391 178.889C165.736 179.396 165.908 179.969 165.908 180.607H163.33C163.33 180.327 163.265 180.074 163.135 179.846C163.011 179.618 162.819 179.436 162.559 179.299C162.298 179.156 161.969 179.084 161.572 179.084C161.214 179.084 160.911 179.143 160.664 179.26C160.423 179.377 160.241 179.53 160.117 179.719C159.993 179.908 159.932 180.116 159.932 180.344C159.932 180.513 159.964 180.666 160.029 180.803C160.101 180.933 160.215 181.053 160.371 181.164C160.527 181.275 160.739 181.376 161.006 181.467C161.279 181.558 161.615 181.646 162.012 181.73C162.799 181.887 163.486 182.095 164.072 182.355C164.665 182.609 165.127 182.948 165.459 183.371C165.791 183.794 165.957 184.335 165.957 184.992C165.957 185.461 165.856 185.891 165.654 186.281C165.452 186.665 165.16 187.001 164.775 187.287C164.391 187.574 163.932 187.798 163.398 187.961C162.865 188.117 162.262 188.195 161.592 188.195C160.622 188.195 159.801 188.023 159.131 187.678C158.46 187.326 157.952 186.883 157.607 186.35C157.262 185.809 157.09 185.249 157.09 184.67H159.561C159.58 185.08 159.691 185.409 159.893 185.656C160.094 185.904 160.348 186.083 160.654 186.193C160.967 186.298 161.296 186.35 161.641 186.35C162.031 186.35 162.36 186.298 162.627 186.193C162.894 186.083 163.096 185.936 163.232 185.754C163.369 185.565 163.438 185.35 163.438 185.109ZM175.781 173.781V188H173.096V173.781H175.781ZM181.514 179.924V182.043H175.078V179.924H181.514ZM182.266 173.781V175.9H175.078V173.781H182.266ZM189.971 185.49V177.434H192.568V188H190.127L189.971 185.49ZM190.303 183.303L191.104 183.283C191.104 183.993 191.025 184.647 190.869 185.246C190.713 185.845 190.469 186.366 190.137 186.809C189.811 187.245 189.398 187.587 188.896 187.834C188.395 188.075 187.803 188.195 187.119 188.195C186.598 188.195 186.123 188.124 185.693 187.98C185.264 187.831 184.893 187.6 184.58 187.287C184.274 186.968 184.036 186.561 183.867 186.066C183.698 185.565 183.613 184.963 183.613 184.26V177.434H186.191V184.279C186.191 184.631 186.23 184.924 186.309 185.158C186.393 185.393 186.507 185.585 186.65 185.734C186.8 185.878 186.973 185.982 187.168 186.047C187.37 186.105 187.585 186.135 187.812 186.135C188.438 186.135 188.929 186.011 189.287 185.764C189.652 185.51 189.912 185.171 190.068 184.748C190.225 184.318 190.303 183.837 190.303 183.303ZM197.588 173V188H195V173H197.588ZM202.783 173V188H200.195V173H202.783ZM208.34 186.828L211.172 177.434H213.936L209.697 189.602C209.6 189.862 209.473 190.145 209.316 190.451C209.167 190.757 208.965 191.047 208.711 191.32C208.457 191.6 208.138 191.828 207.754 192.004C207.376 192.18 206.917 192.268 206.377 192.268C206.143 192.268 205.934 192.251 205.752 192.219C205.57 192.186 205.378 192.144 205.176 192.092V190.158C205.241 190.165 205.316 190.168 205.4 190.168C205.492 190.174 205.57 190.178 205.635 190.178C206.012 190.178 206.325 190.132 206.572 190.041C206.82 189.956 207.018 189.816 207.168 189.621C207.324 189.432 207.454 189.185 207.559 188.879L208.34 186.828ZM206.943 177.434L209.336 185.217L209.756 187.941L207.979 188.264L204.16 177.434H206.943ZM221.533 173.781H223.857L227.744 184.484L231.621 173.781H233.955L228.672 188H226.807L221.533 173.781ZM220.361 173.781H222.637L223.047 183.615V188H220.361V173.781ZM232.842 173.781H235.127V188H232.441V183.615L232.842 173.781ZM240.4 177.434V188H237.812V177.434H240.4ZM237.637 174.67C237.637 174.286 237.767 173.967 238.027 173.713C238.294 173.459 238.652 173.332 239.102 173.332C239.551 173.332 239.906 173.459 240.166 173.713C240.433 173.967 240.566 174.286 240.566 174.67C240.566 175.048 240.433 175.363 240.166 175.617C239.906 175.871 239.551 175.998 239.102 175.998C238.652 175.998 238.294 175.871 238.027 175.617C237.767 175.363 237.637 175.048 237.637 174.67ZM247.861 177.434V179.289H241.807V177.434H247.861ZM243.428 174.836H246.016V184.953C246.016 185.266 246.058 185.507 246.143 185.676C246.227 185.845 246.354 185.959 246.523 186.018C246.693 186.076 246.895 186.105 247.129 186.105C247.298 186.105 247.454 186.096 247.598 186.076C247.741 186.057 247.861 186.037 247.959 186.018L247.969 187.951C247.754 188.023 247.51 188.081 247.236 188.127C246.969 188.173 246.667 188.195 246.328 188.195C245.749 188.195 245.241 188.098 244.805 187.902C244.368 187.701 244.03 187.378 243.789 186.936C243.548 186.486 243.428 185.894 243.428 185.158V174.836ZM252.314 177.434V188H249.727V177.434H252.314ZM249.551 174.67C249.551 174.286 249.681 173.967 249.941 173.713C250.208 173.459 250.566 173.332 251.016 173.332C251.465 173.332 251.82 173.459 252.08 173.713C252.347 173.967 252.48 174.286 252.48 174.67C252.48 175.048 252.347 175.363 252.08 175.617C251.82 175.871 251.465 175.998 251.016 175.998C250.566 175.998 250.208 175.871 249.941 175.617C249.681 175.363 249.551 175.048 249.551 174.67ZM261.494 177.434H263.838V187.678C263.838 188.635 263.63 189.445 263.213 190.109C262.803 190.78 262.227 191.288 261.484 191.633C260.742 191.984 259.88 192.16 258.896 192.16C258.473 192.16 258.014 192.102 257.52 191.984C257.031 191.867 256.559 191.682 256.104 191.428C255.654 191.18 255.28 190.858 254.98 190.461L256.143 188.938C256.494 189.348 256.891 189.657 257.334 189.865C257.777 190.08 258.255 190.188 258.77 190.188C259.29 190.188 259.733 190.09 260.098 189.895C260.469 189.706 260.752 189.426 260.947 189.055C261.149 188.69 261.25 188.241 261.25 187.707V179.846L261.494 177.434ZM254.355 182.844V182.639C254.355 181.831 254.453 181.099 254.648 180.441C254.844 179.777 255.124 179.208 255.488 178.732C255.859 178.257 256.305 177.889 256.826 177.629C257.354 177.368 257.946 177.238 258.604 177.238C259.3 177.238 259.886 177.365 260.361 177.619C260.843 177.873 261.24 178.234 261.553 178.703C261.872 179.172 262.119 179.729 262.295 180.373C262.477 181.011 262.617 181.714 262.715 182.482V183.039C262.624 183.788 262.477 184.475 262.275 185.1C262.08 185.725 261.82 186.271 261.494 186.74C261.169 187.202 260.765 187.561 260.283 187.814C259.801 188.068 259.235 188.195 258.584 188.195C257.933 188.195 257.347 188.062 256.826 187.795C256.305 187.528 255.859 187.154 255.488 186.672C255.124 186.19 254.844 185.624 254.648 184.973C254.453 184.322 254.355 183.612 254.355 182.844ZM256.934 182.639V182.844C256.934 183.299 256.979 183.726 257.07 184.123C257.161 184.52 257.301 184.872 257.49 185.178C257.679 185.477 257.917 185.712 258.203 185.881C258.49 186.05 258.831 186.135 259.229 186.135C259.762 186.135 260.199 186.024 260.537 185.803C260.882 185.575 261.143 185.266 261.318 184.875C261.501 184.478 261.618 184.032 261.67 183.537V182.004C261.637 181.613 261.566 181.252 261.455 180.92C261.351 180.588 261.204 180.301 261.016 180.061C260.827 179.82 260.586 179.631 260.293 179.494C260 179.357 259.652 179.289 259.248 179.289C258.857 179.289 258.516 179.377 258.223 179.553C257.93 179.722 257.689 179.96 257.5 180.266C257.311 180.572 257.168 180.926 257.07 181.33C256.979 181.734 256.934 182.17 256.934 182.639ZM271.982 185.754V180.881C271.982 180.523 271.921 180.214 271.797 179.953C271.673 179.693 271.484 179.491 271.23 179.348C270.977 179.204 270.654 179.133 270.264 179.133C269.919 179.133 269.616 179.191 269.355 179.309C269.102 179.426 268.906 179.592 268.77 179.807C268.633 180.015 268.564 180.256 268.564 180.529H265.977C265.977 180.093 266.081 179.68 266.289 179.289C266.497 178.892 266.794 178.54 267.178 178.234C267.568 177.922 268.034 177.678 268.574 177.502C269.121 177.326 269.733 177.238 270.41 177.238C271.211 177.238 271.924 177.375 272.549 177.648C273.18 177.915 273.675 178.319 274.033 178.859C274.398 179.4 274.58 180.08 274.58 180.9V185.51C274.58 186.037 274.613 186.49 274.678 186.867C274.749 187.238 274.854 187.561 274.99 187.834V188H272.363C272.24 187.733 272.145 187.395 272.08 186.984C272.015 186.568 271.982 186.158 271.982 185.754ZM272.344 181.564L272.363 183.098H270.732C270.329 183.098 269.974 183.14 269.668 183.225C269.362 183.303 269.111 183.42 268.916 183.576C268.721 183.726 268.574 183.908 268.477 184.123C268.379 184.331 268.33 184.569 268.33 184.836C268.33 185.096 268.389 185.331 268.506 185.539C268.63 185.747 268.805 185.913 269.033 186.037C269.268 186.154 269.541 186.213 269.854 186.213C270.309 186.213 270.706 186.122 271.045 185.939C271.383 185.751 271.647 185.523 271.836 185.256C272.025 184.989 272.126 184.735 272.139 184.494L272.881 185.607C272.79 185.874 272.653 186.158 272.471 186.457C272.288 186.757 272.054 187.036 271.768 187.297C271.481 187.557 271.136 187.772 270.732 187.941C270.329 188.111 269.86 188.195 269.326 188.195C268.643 188.195 268.031 188.059 267.49 187.785C266.95 187.512 266.523 187.137 266.211 186.662C265.898 186.187 265.742 185.646 265.742 185.041C265.742 184.481 265.846 183.986 266.055 183.557C266.263 183.127 266.572 182.766 266.982 182.473C267.393 182.173 267.9 181.949 268.506 181.799C269.118 181.643 269.818 181.564 270.605 181.564H272.344ZM281.904 177.434V179.289H275.85V177.434H281.904ZM277.471 174.836H280.059V184.953C280.059 185.266 280.101 185.507 280.186 185.676C280.27 185.845 280.397 185.959 280.566 186.018C280.736 186.076 280.938 186.105 281.172 186.105C281.341 186.105 281.497 186.096 281.641 186.076C281.784 186.057 281.904 186.037 282.002 186.018L282.012 187.951C281.797 188.023 281.553 188.081 281.279 188.127C281.012 188.173 280.71 188.195 280.371 188.195C279.792 188.195 279.284 188.098 278.848 187.902C278.411 187.701 278.073 187.378 277.832 186.936C277.591 186.486 277.471 185.894 277.471 185.158V174.836ZM288.369 188.195C287.568 188.195 286.849 188.065 286.211 187.805C285.573 187.544 285.029 187.183 284.58 186.721C284.137 186.252 283.796 185.708 283.555 185.09C283.32 184.465 283.203 183.794 283.203 183.078V182.688C283.203 181.874 283.32 181.135 283.555 180.471C283.789 179.8 284.121 179.224 284.551 178.742C284.98 178.26 285.495 177.889 286.094 177.629C286.693 177.368 287.354 177.238 288.076 177.238C288.825 177.238 289.486 177.365 290.059 177.619C290.632 177.867 291.11 178.218 291.494 178.674C291.878 179.13 292.168 179.676 292.363 180.314C292.559 180.946 292.656 181.646 292.656 182.414V183.498H284.375V181.721H290.117V181.525C290.104 181.115 290.026 180.741 289.883 180.402C289.74 180.057 289.518 179.784 289.219 179.582C288.919 179.374 288.532 179.27 288.057 179.27C287.673 179.27 287.337 179.354 287.051 179.523C286.771 179.686 286.536 179.921 286.348 180.227C286.165 180.526 286.029 180.884 285.938 181.301C285.846 181.717 285.801 182.18 285.801 182.688V183.078C285.801 183.521 285.859 183.931 285.977 184.309C286.1 184.686 286.279 185.015 286.514 185.295C286.755 185.568 287.041 185.783 287.373 185.939C287.712 186.089 288.096 186.164 288.525 186.164C289.066 186.164 289.554 186.06 289.99 185.852C290.433 185.637 290.817 185.321 291.143 184.904L292.441 186.252C292.22 186.577 291.921 186.89 291.543 187.189C291.172 187.489 290.723 187.733 290.195 187.922C289.668 188.104 289.059 188.195 288.369 188.195ZM300.723 185.754V173H303.32V188H300.977L300.723 185.754ZM293.936 182.844V182.639C293.936 181.831 294.027 181.099 294.209 180.441C294.398 179.777 294.671 179.208 295.029 178.732C295.387 178.257 295.82 177.889 296.328 177.629C296.842 177.368 297.425 177.238 298.076 177.238C298.708 177.238 299.258 177.365 299.727 177.619C300.202 177.873 300.605 178.234 300.938 178.703C301.276 179.172 301.546 179.729 301.748 180.373C301.95 181.011 302.096 181.714 302.188 182.482V183.039C302.096 183.788 301.95 184.475 301.748 185.1C301.546 185.725 301.276 186.271 300.938 186.74C300.605 187.202 300.202 187.561 299.727 187.814C299.251 188.068 298.695 188.195 298.057 188.195C297.412 188.195 296.833 188.062 296.318 187.795C295.811 187.528 295.378 187.154 295.02 186.672C294.668 186.19 294.398 185.624 294.209 184.973C294.027 184.322 293.936 183.612 293.936 182.844ZM296.523 182.639V182.844C296.523 183.299 296.562 183.726 296.641 184.123C296.719 184.52 296.846 184.872 297.021 185.178C297.197 185.477 297.422 185.712 297.695 185.881C297.975 186.05 298.314 186.135 298.711 186.135C299.219 186.135 299.635 186.024 299.961 185.803C300.293 185.575 300.55 185.266 300.732 184.875C300.915 184.478 301.032 184.032 301.084 183.537V182.004C301.058 181.613 300.99 181.252 300.879 180.92C300.775 180.588 300.625 180.301 300.43 180.061C300.241 179.82 300.007 179.631 299.727 179.494C299.447 179.357 299.115 179.289 298.73 179.289C298.333 179.289 297.995 179.377 297.715 179.553C297.435 179.722 297.207 179.96 297.031 180.266C296.855 180.572 296.725 180.926 296.641 181.33C296.562 181.734 296.523 182.17 296.523 182.639ZM308.594 173.781L308.311 183.732H306.133L305.85 173.781H308.594ZM305.771 186.799C305.771 186.415 305.902 186.092 306.162 185.832C306.429 185.565 306.787 185.432 307.236 185.432C307.686 185.432 308.04 185.565 308.301 185.832C308.568 186.092 308.701 186.415 308.701 186.799C308.701 187.176 308.568 187.495 308.301 187.756C308.04 188.016 307.686 188.146 307.236 188.146C306.787 188.146 306.429 188.016 306.162 187.756C305.902 187.495 305.771 187.176 305.771 186.799Z" fill="#00AB63"/>
</g>
<defs>
<clipPath id="clip0_556_10892">
<rect width="245" height="24" fill="white" transform="translate(65 169)"/>
</clipPath>
</defs>
</svg>
