<svg width="226" height="252" viewBox="0 0 226 252" fill="none" xmlns="http://www.w3.org/2000/svg">
<path fill-rule="evenodd" clip-rule="evenodd" d="M222.159 124.711C222.162 167.674 198.995 207.3 161.555 228.374L127 248L92.446 228.552C55.0056 207.479 31.8393 167.853 31.8418 124.889V45.7895C31.8418 45.7895 31.8418 22 127 22C216.212 22 222.159 45.7895 222.159 45.7895V124.711Z" stroke="currentColor" stroke-width="6"/>
<path d="M64.7148 151.716L105.561 110.532C106.289 109.797 107.477 109.799 108.203 110.535L140.72 143.473C141.441 144.203 142.616 144.212 143.347 143.492L190.217 97.332" stroke="currentColor" stroke-width="6" stroke-linecap="round"/>
<path d="M28.2735 8.45029L30.5108 7.69646C31.3613 7.4159 32.1342 6.93859 32.7673 6.30298C33.4004 5.66738 33.8759 4.89127 34.1556 4.03723L34.9086 1.76366C34.9334 1.68701 34.9817 1.62023 35.0466 1.57287C35.1116 1.52551 35.1898 1.5 35.27 1.5C35.3503 1.5 35.4285 1.52551 35.4934 1.57287C35.5583 1.62023 35.6067 1.68701 35.6315 1.76366L36.3845 4.03723C36.6643 4.88337 37.1371 5.65218 37.765 6.28243C38.393 6.91268 39.1588 7.38695 40.0015 7.66747L42.2665 8.42251C42.3418 8.44832 42.4072 8.49714 42.4535 8.56213C42.4998 8.62712 42.5247 8.70502 42.5247 8.78493C42.5247 8.86483 42.4998 8.94273 42.4535 9.00772C42.4072 9.07271 42.3418 9.12153 42.2665 9.14734L40.0292 9.93138C39.1869 10.2127 38.4216 10.6873 37.7937 11.3174C37.1659 11.9476 36.6929 12.7159 36.4121 13.5616L35.6603 15.834C35.6355 15.9106 35.5872 15.9774 35.5223 16.0248C35.4573 16.0721 35.3791 16.0976 35.2989 16.0976C35.2186 16.0976 35.1404 16.0721 35.0755 16.0248C35.0106 15.9774 34.9622 15.9106 34.9374 15.834L34.1556 13.5894C33.8766 12.7351 33.4013 11.9588 32.7681 11.3233C32.1349 10.6878 31.3616 10.211 30.5108 9.93138L28.2446 9.17634C28.1702 9.14764 28.1066 9.09625 28.0628 9.02937C28.019 8.9625 27.9971 8.88352 28.0003 8.80353C28.0035 8.72353 28.0316 8.64655 28.0806 8.58341C28.1296 8.52027 28.197 8.47293 28.2735 8.45029Z" stroke="currentColor" stroke-width="3" stroke-linecap="round" stroke-linejoin="round"/>
<path d="M2.49727 24.1369L6.56517 22.7663C8.11147 22.2562 9.51679 21.3883 10.6679 20.2327C11.8189 19.0771 12.6835 17.666 13.1919 16.1132L14.561 11.9794C14.6061 11.84 14.694 11.7186 14.8121 11.6325C14.9301 11.5464 15.0723 11.5 15.2182 11.5C15.3641 11.5 15.5063 11.5464 15.6243 11.6325C15.7424 11.7186 15.8303 11.84 15.8754 11.9794L17.2445 16.1132C17.7534 17.6516 18.6129 19.0494 19.7546 20.1953C20.8964 21.3412 22.2888 22.2035 23.8209 22.7136L27.9392 24.0864C28.076 24.1333 28.1949 24.2221 28.2791 24.3402C28.3632 24.4584 28.4085 24.6 28.4085 24.7453C28.4085 24.8906 28.3632 25.0322 28.2791 25.1504C28.1949 25.2686 28.076 25.3573 27.9392 25.4043L23.8713 26.8298C22.3399 27.3413 20.9483 28.2042 19.8068 29.3499C18.6652 30.4956 17.8052 31.8926 17.2948 33.4302L15.9279 37.5618C15.8828 37.7011 15.7949 37.8226 15.6768 37.9087C15.5588 37.9948 15.4166 38.0412 15.2707 38.0412C15.1248 38.0412 14.9826 37.9948 14.8646 37.9087C14.7465 37.8226 14.6586 37.7011 14.6135 37.5618L13.1919 33.4807C12.6848 31.9275 11.8206 30.516 10.6693 29.3606C9.51805 28.2051 8.11206 27.3381 6.56517 26.8298L2.44478 25.457C2.30948 25.4048 2.19386 25.3114 2.11418 25.1898C2.0345 25.0682 1.99476 24.9246 2.00055 24.7791C2.00635 24.6337 2.05738 24.4937 2.14647 24.3789C2.23557 24.2641 2.35825 24.1781 2.49727 24.1369Z" stroke="currentColor" stroke-width="4" stroke-linecap="round" stroke-linejoin="round"/>
</svg>
