<svg xmlns="http://www.w3.org/2000/svg" width="30" height="28" viewBox="0 0 30 28" fill="none">
<path d="M24.75 13.7163C24.75 19.9295 19.7132 24.9663 13.5 24.9663M24.75 13.7163C24.75 7.50311 19.7132 2.46631 13.5 2.46631M24.75 13.7163H2.25M13.5 24.9663C7.2868 24.9663 2.25 19.9295 2.25 13.7163M13.5 24.9663C16.3139 21.8857 17.9131 17.8878 18 13.7163C17.9131 9.54485 16.3139 5.54696 13.5 2.46631M13.5 24.9663C10.6861 21.8857 9.0869 17.8878 9 13.7163C9.0869 9.54485 10.6861 5.54696 13.5 2.46631M2.25 13.7163C2.25 7.50311 7.2868 2.46631 13.5 2.46631" stroke="#D4D6DB" stroke-width="1.3" stroke-linecap="round" stroke-linejoin="round"/>
<circle cx="22.3047" cy="7.91187" r="7" fill="#2D3032"/>
<g clip-path="url(#clip0_5695_37)">
<path d="M24.0863 3.7886C23.9475 3.69313 23.8065 3.61086 23.6632 3.54202C23.5215 3.47395 23.3794 3.4159 23.2369 3.36799C23.0915 3.31912 22.9413 3.28429 22.7865 3.26343C22.6334 3.24281 22.4729 3.23262 22.305 3.23261L22.3036 3.23262C21.9673 3.23603 21.656 3.28203 21.3708 3.37213C21.0863 3.462 20.8042 3.60122 20.5245 3.78808C20.302 3.93491 20.0805 4.05386 19.8603 4.14549C19.6383 4.23783 19.4136 4.30933 19.1861 4.36013C18.957 4.41127 18.7215 4.4465 18.4795 4.46573C18.235 4.48515 17.9824 4.49488 17.7217 4.49488H17.5842V4.63238L17.5842 7.15691L17.5842 7.1578C17.5874 7.66482 17.6492 8.14496 17.7703 8.59769C17.8909 9.04877 18.0621 9.47505 18.2841 9.87621C18.5049 10.2753 18.7631 10.6493 19.0586 10.9981C19.3525 11.345 19.6722 11.6718 20.0175 11.9784C20.3621 12.2844 20.7228 12.5688 21.0996 12.8316C21.4743 13.0929 21.8523 13.3393 22.2336 13.571L22.3047 13.6142L22.376 13.5712C22.7608 13.3394 23.1408 13.091 23.5158 12.8262C23.8922 12.5604 24.2525 12.2763 24.5967 11.974C24.9423 11.6705 25.2621 11.3452 25.5562 10.9981C25.8518 10.6491 26.1086 10.2749 26.3263 9.87546C26.5448 9.47474 26.7158 9.04903 26.8395 8.59858C26.964 8.14526 27.0258 7.66452 27.0258 7.15691V4.63238V4.49488H26.8883C26.6276 4.49488 26.375 4.48515 26.1306 4.46573C25.8885 4.4465 25.653 4.41127 25.424 4.36013C25.1965 4.30933 24.9717 4.23783 24.7497 4.14549C24.5297 4.05397 24.3086 3.93519 24.0863 3.7886ZM24.0863 3.7886C24.0867 3.78886 24.087 3.78912 24.0874 3.78938L24.0094 3.90264M24.0863 3.7886C24.0859 3.78835 24.0855 3.78811 24.0852 3.78787L24.0094 3.90264M24.0094 3.90264C24.2386 4.05384 24.4678 4.17711 24.6969 4.27244C24.9261 4.36777 25.1585 4.44173 25.394 4.49432C25.6295 4.54692 25.8714 4.58308 26.1197 4.6028C26.3679 4.62252 26.6242 4.63238 26.8883 4.63238M24.0094 3.90264C23.8758 3.8106 23.7405 3.7317 23.6036 3.66596C23.4668 3.60022 23.3299 3.54434 23.193 3.49832C23.0562 3.4523 22.9145 3.41942 22.7681 3.3997C22.6217 3.37998 22.4673 3.37012 22.305 3.37012C21.9804 3.3734 21.6828 3.41778 21.4122 3.50325C21.1417 3.58871 20.8711 3.72184 20.6006 3.90264C20.3714 4.05384 20.1423 4.17711 19.9131 4.27244C19.6839 4.36777 19.4516 4.44173 19.216 4.49432C18.9805 4.54692 18.7386 4.58308 18.4903 4.6028C18.2421 4.62252 17.9859 4.63238 17.7217 4.63238H26.8883M26.8883 4.63238V4.76988V7.15691C26.8883 7.65327 26.8279 8.12169 26.7069 8.56217C26.586 9.00265 26.4189 9.41847 26.2056 9.80964C25.9924 10.2008 25.7409 10.5673 25.4513 10.9092C25.1616 11.2511 24.8465 11.5716 24.506 11.8707C24.1654 12.1698 23.8089 12.4509 23.4365 12.7138C23.0641 12.9768 22.687 13.2233 22.305 13.4535L26.8883 4.63238ZM24.0939 6.78907L24.1865 6.69343L24.0939 6.59778L23.7692 6.26249L23.6705 6.16047L23.5717 6.26249L22.305 7.57066L21.0383 6.26249L20.9396 6.16047L20.8408 6.26249L20.5161 6.59778L20.4235 6.69343L20.5161 6.78907L21.789 8.10361L20.5161 9.41815L20.4235 9.5138L20.5161 9.60945L20.8408 9.94474L20.9396 10.0468L21.0383 9.94474L22.305 8.63657L23.5621 9.93488L23.6609 10.0369L23.7597 9.93488L24.0844 9.59959L24.177 9.50394L24.0844 9.40829L22.8211 8.10361L24.0939 6.78907ZM21.0252 4.53491L21.0252 4.53492L21.0259 4.53441C21.2364 4.39266 21.4407 4.29237 21.6389 4.23126C21.837 4.17021 22.0583 4.13882 22.3041 4.13875C22.5538 4.14196 22.7773 4.17499 22.9759 4.23619C23.1745 4.29742 23.3774 4.39625 23.5845 4.53469L23.5853 4.53519C23.9998 4.8082 24.4302 5.01296 24.8766 5.14854C25.2807 5.27129 25.7018 5.34916 26.1397 5.38242V7.15585C26.1335 7.55895 26.0808 7.9486 25.9819 8.32509C25.8828 8.70248 25.7421 9.05863 25.5597 9.39385C25.3759 9.73162 25.1609 10.0535 24.9145 10.3595C24.6673 10.6664 24.3983 10.954 24.1072 11.2223C23.8151 11.4915 23.5105 11.7412 23.1934 11.9714C22.898 12.1859 22.6015 12.3834 22.3038 12.5639C22.0017 12.3864 21.7048 12.1893 21.4131 11.9724C21.0987 11.7386 20.7953 11.487 20.5028 11.2173C20.2118 10.9491 19.9427 10.6615 19.6955 10.3545C19.4491 10.0485 19.2341 9.72669 19.0504 9.38892C18.8677 9.05324 18.7253 8.69828 18.623 8.32379C18.5213 7.95154 18.4703 7.56272 18.4703 7.15691V5.38248C18.9111 5.34926 19.3338 5.27138 19.7382 5.14854C20.1847 5.01293 20.6137 4.80809 21.0252 4.53491Z" fill="#FF2B44" stroke="#FF2B44" stroke-width="0.275"/>
</g>
<defs>
<clipPath id="clip0_5695_37">
<rect width="11" height="11" fill="white" transform="translate(16.8047 2.91187)"/>
</clipPath>
</defs>
</svg>
