<svg width="20" height="20" viewBox="0 0 20 20" fill="none" xmlns="http://www.w3.org/2000/svg">
<path d="M16.221 6.21926C15.9421 5.94036 15.4899 5.94036 15.211 6.21926C14.9321 6.49816 14.9321 6.95035 15.211 7.22925L17.2675 9.28568H7.07251C6.93116 8.60013 6.59207 7.97102 6.09712 7.47607C5.60217 6.98113 4.97306 6.64203 4.28752 6.50069V0.714282C4.28752 0.319795 3.96773 0 3.57324 0C3.17875 0 2.85895 0.319795 2.85895 0.714283V6.50069C2.05199 6.66497 1.3266 7.10308 0.805597 7.74083C0.284595 8.37859 0 9.1768 0 10.0003C0 10.8238 0.284595 11.622 0.805597 12.2598C1.3266 12.8976 2.05199 13.3357 2.85895 13.4999V19.2856C2.85895 19.6801 3.17875 19.9999 3.57324 19.9999C3.96773 19.9999 4.28752 19.6801 4.28752 19.2856V13.4992C4.97306 13.3579 5.60217 13.0188 6.09712 12.5238C6.59207 12.0289 6.93116 11.3998 7.07251 10.7142H17.2675L15.211 12.7707C14.9321 13.0496 14.9321 13.5018 15.211 13.7807C15.4899 14.0596 15.9421 14.0596 16.221 13.7807L19.4967 10.505C19.7756 10.2261 19.7756 9.77383 19.4967 9.49488L16.221 6.21926ZM3.57324 12.1428C3.14942 12.1428 2.73512 12.0171 2.38273 11.7817C2.03035 11.5462 1.75569 11.2115 1.5935 10.82C1.43132 10.4284 1.38888 9.99758 1.47156 9.58191C1.55425 9.16624 1.75833 8.78442 2.05802 8.48473C2.3577 8.18505 2.73952 7.98097 3.15519 7.89828C3.57086 7.8156 4.00172 7.85804 4.39327 8.02022C4.78482 8.18241 5.11949 8.45707 5.35495 8.80945C5.59041 9.16184 5.71609 9.57614 5.71609 9.99996C5.71552 10.5681 5.48957 11.1128 5.08783 11.5146C4.68609 11.9163 4.14138 12.1422 3.57324 12.1428Z" fill="currentColor"/>
</svg>
