<svg width="21" height="21" viewBox="0 0 21 21" fill="none" xmlns="http://www.w3.org/2000/svg">
<path d="M10.5668 0.226564C10.4707 0.226369 10.3758 0.250672 10.289 0.297683C10.2023 0.344694 10.1259 0.413217 10.0656 0.498205L9.95121 0.594594C7.73426 -0.18528 5.20501 0.387212 3.44431 2.31499C2.70698 3.11003 2.15847 4.10397 1.84975 5.20444C1.54102 6.30491 1.4821 7.4762 1.67846 8.60948C1.65664 8.63137 1.63521 8.65377 1.6142 8.67666L0.613039 9.77199C0.419374 9.98077 0.265144 10.2322 0.159749 10.5109C0.0543537 10.7896 0 11.0897 0 11.3931C0 11.6964 0.0543537 11.9966 0.159749 12.2753C0.265144 12.554 0.419374 12.8054 0.613039 13.0142C1.12454 13.575 1.83397 13.7853 2.49327 13.6451C2.57423 14.0671 2.76316 14.4688 3.06261 14.7959C3.45716 15.2282 3.96995 15.4516 4.48659 15.4677C4.50073 16.0329 4.70507 16.5937 5.09963 17.026C5.49418 17.4583 6.00825 17.6832 6.5249 17.6978C6.53775 18.263 6.74338 18.8253 7.13793 19.2575C7.51566 19.6649 8.01046 19.903 8.53075 19.9277C9.05105 19.9524 9.5616 19.762 9.96791 19.3919L10.5295 20.0053C11.3521 20.9064 12.6861 20.9064 13.5086 20.0053C13.9019 19.5759 14.1062 19.018 14.1242 18.4543C14.6525 18.4388 15.1566 18.1998 15.5379 17.784C15.9312 17.3531 16.1355 16.7952 16.1509 16.2315C16.6733 16.2107 17.1706 15.9721 17.5479 15.5612C17.8602 15.2209 18.053 14.7988 18.1276 14.3578C18.4584 14.4237 18.7982 14.4004 19.1196 14.2898C19.4411 14.1792 19.7352 13.9844 19.9782 13.721C20.1721 13.5122 20.3265 13.2607 20.432 12.9819C20.5375 12.7031 20.5919 12.4027 20.5919 12.0992C20.5919 11.7957 20.5375 11.4953 20.432 11.2165C20.3265 10.9377 20.1721 10.6862 19.9782 10.4774L19.0529 9.4653L19.2418 8.66206C19.624 7.0199 19.4305 5.2733 18.702 3.79004C17.6276 1.59061 15.5431 0.232405 13.2888 0.232405H11.7081C11.64 0.228572 11.5719 0.226624 11.5037 0.226564H10.5668ZM13.7194 5.65356L16.8102 9.03739L16.8141 9.04031L19.0516 11.4909C19.1243 11.5693 19.1822 11.6636 19.2217 11.7682C19.2613 11.8727 19.2817 11.9854 19.2817 12.0992C19.2817 12.213 19.2613 12.3257 19.2217 12.4302C19.1822 12.5348 19.1243 12.6291 19.0516 12.7075C18.9015 12.869 18.7025 12.9591 18.4958 12.9591C18.289 12.9591 18.0901 12.869 17.9399 12.7075L16.2422 10.8498C16.1178 10.7141 15.952 10.6384 15.7795 10.6384C15.6071 10.6384 15.4413 10.7141 15.3169 10.8498L15.2989 10.8673C15.2383 10.9326 15.19 11.0111 15.157 11.0983C15.1241 11.1854 15.107 11.2792 15.107 11.3741C15.107 11.4689 15.1241 11.5628 15.157 11.6499C15.19 11.7371 15.2383 11.8156 15.2989 11.8809L16.6226 13.3296C16.9311 13.6655 16.9311 14.2117 16.6226 14.5491C16.4861 14.6961 16.3088 14.7845 16.1212 14.7991C15.9336 14.8138 15.7474 14.7538 15.5945 14.6294C15.4668 14.5246 15.3109 14.474 15.1539 14.4863C14.9968 14.4985 14.8485 14.573 14.7347 14.6966C14.6235 14.8174 14.5563 14.9814 14.5465 15.1559C14.5368 15.3304 14.5851 15.5027 14.682 15.6386C14.7973 15.8028 14.8542 16.0102 14.8414 16.2199C14.8285 16.4295 14.7469 16.626 14.6126 16.7704C14.4741 16.9196 14.2938 17.0084 14.1033 17.0213C13.9129 17.0341 13.7245 16.9701 13.5716 16.8405C13.4446 16.7323 13.288 16.6785 13.1296 16.6886C12.9711 16.6988 12.8208 16.7722 12.7054 16.896C12.5927 17.0167 12.5244 17.1813 12.5141 17.3569C12.5039 17.5324 12.5524 17.7059 12.6501 17.8424C12.7682 18.0088 12.8267 18.2196 12.8141 18.4329C12.8015 18.6462 12.7186 18.8463 12.582 18.9932C12.4299 19.1573 12.2281 19.2487 12.0184 19.2487C11.8087 19.2487 11.607 19.1573 11.4549 18.9932L10.8984 18.3842L11.1014 18.1622C11.2953 17.9534 11.4497 17.7019 11.5552 17.4231C11.6607 17.1443 11.7152 16.8439 11.7152 16.5404C11.7152 16.2369 11.6607 15.9365 11.5552 15.6577C11.4497 15.3789 11.2953 15.1274 11.1014 14.9186C10.7174 14.5003 10.2093 14.2606 9.67746 14.2468C9.66186 13.6554 9.44156 13.0949 9.06443 12.687C8.67982 12.2689 8.1713 12.0297 7.63915 12.0167C7.62355 11.4253 7.40326 10.8648 7.02612 10.4569C6.77922 10.1899 6.4799 9.99352 6.15293 9.88406C5.82597 9.7746 5.48076 9.75521 5.14589 9.82749C5.06118 9.38802 4.86293 8.9873 4.57655 8.67666C4.35702 8.4386 4.09542 8.25636 3.80913 8.14204C3.52284 8.02772 3.21842 7.98395 2.91609 8.01362C2.81484 7.15783 2.89369 6.28695 3.14614 5.47251C3.3986 4.65807 3.81747 3.92329 4.36835 3.32854C4.92502 2.72419 5.59245 2.26728 6.32279 1.99055C7.05314 1.71381 7.82832 1.62412 8.59276 1.72789L6.72282 3.29056C6.48356 3.48812 6.28202 3.73872 6.13036 4.02725C5.97871 4.31578 5.88009 4.63624 5.84045 4.96928C5.80081 5.30232 5.82098 5.64104 5.89974 5.96498C5.97851 6.28892 6.11422 6.59136 6.2987 6.85404C6.6718 7.38564 7.21089 7.7333 7.80383 7.8247C8.39676 7.9161 8.99788 7.74419 9.48211 7.34474L11.5076 5.65502H13.7181L13.7194 5.65356ZM7.48365 4.46622L10.8149 1.687H11.5037C11.5667 1.68662 11.6297 1.68857 11.6926 1.69284H13.2888C15.0932 1.69284 16.7396 2.78087 17.5788 4.49981C18.1468 5.66232 18.2959 7.01322 17.999 8.28819L17.9952 8.30279L14.4481 4.4078C14.3279 4.27076 14.1647 4.19354 13.9944 4.19312H11.2955C11.1591 4.19341 11.0263 4.24303 10.9164 4.33478L8.72128 6.16617C8.50566 6.34162 8.2392 6.41681 7.9764 6.37636C7.71361 6.33591 7.47435 6.18287 7.30758 5.94856C7.22986 5.83977 7.17256 5.71405 7.13921 5.57915C7.10586 5.44425 7.09716 5.30301 7.11366 5.16414C7.13015 5.02528 7.17149 4.89172 7.23512 4.77169C7.29875 4.65166 7.38333 4.5477 7.48365 4.46622ZM8.0517 17.0406L8.06455 17.026L9.06443 15.9307L9.07599 15.919C9.22697 15.763 9.42428 15.6776 9.62832 15.6801C9.83237 15.6825 10.0281 15.7726 10.1761 15.9321C10.2488 16.0105 10.3067 16.1048 10.3462 16.2094C10.3858 16.3139 10.4062 16.4266 10.4062 16.5404C10.4062 16.6542 10.3858 16.7669 10.3462 16.8714C10.3067 16.976 10.2488 17.0703 10.1761 17.1487L9.17495 18.244C9.02481 18.4056 8.82589 18.4956 8.61911 18.4956C8.41233 18.4956 8.21341 18.4056 8.06327 18.244C7.99154 18.1668 7.93417 18.0741 7.89458 17.9713C7.85498 17.8684 7.83396 17.7576 7.83276 17.6454C7.83156 17.5332 7.85021 17.4218 7.8876 17.3179C7.92499 17.214 7.98035 17.1197 8.05041 17.0406H8.0517ZM8.15066 14.9054L8.13781 14.9186L7.13793 16.0139L7.12508 16.0271C6.97402 16.1824 6.77689 16.2673 6.57314 16.2646C6.3694 16.2618 6.17407 16.1718 6.02624 16.0125C5.95437 15.935 5.89698 15.8418 5.85748 15.7385C5.81798 15.6353 5.79719 15.524 5.79635 15.4115C5.79551 15.2989 5.81464 15.1873 5.85259 15.0832C5.89054 14.9792 5.94654 14.885 6.01725 14.8061L6.02624 14.7959L7.02612 13.7006L7.03512 13.6904C7.18592 13.5331 7.38358 13.4467 7.58823 13.4486C7.79288 13.4505 7.98928 13.5406 8.13781 13.7006C8.20973 13.7778 8.26727 13.8706 8.30698 13.9736C8.34669 14.0765 8.36777 14.1875 8.36897 14.2999C8.37017 14.4123 8.35146 14.5239 8.31396 14.6279C8.27645 14.7319 8.22092 14.8263 8.15066 14.9054ZM6.10079 12.687L5.09963 13.7824L5.09063 13.7926C4.93983 13.9498 4.74216 14.0362 4.53751 14.0343C4.33286 14.0324 4.13646 13.9424 3.98794 13.7824C3.91526 13.704 3.85737 13.6097 3.81781 13.5051C3.77826 13.4006 3.75786 13.2879 3.75786 13.1741C3.75786 13.0603 3.77826 12.9476 3.81781 12.843C3.85737 12.7385 3.91526 12.6441 3.98794 12.5658L4.98781 11.4705C5.13802 11.3085 5.33721 11.2182 5.5443 11.2182C5.75139 11.2182 5.95058 11.3085 6.10079 11.4705C6.17286 11.548 6.23042 11.6412 6.27004 11.7446C6.30965 11.848 6.3305 11.9594 6.33134 12.0722C6.33218 12.185 6.31299 12.2968 6.27492 12.4009C6.23685 12.505 6.18069 12.5994 6.10978 12.6783L6.10079 12.687ZM3.65122 10.9068L2.65135 12.0021C2.50129 12.1644 2.30204 12.2549 2.09486 12.2549C1.88768 12.2549 1.68843 12.1644 1.53837 12.0021C1.46549 11.9237 1.40743 11.8293 1.36775 11.7246C1.32808 11.6199 1.30761 11.5071 1.30761 11.3931C1.30761 11.2791 1.32808 11.1663 1.36775 11.0616C1.40743 10.9568 1.46549 10.8624 1.53837 10.7841L2.53953 9.68875C2.68968 9.52718 2.8886 9.43713 3.09538 9.43713C3.30216 9.43713 3.50108 9.52718 3.65122 9.68875C3.72411 9.76709 3.78216 9.86151 3.82184 9.96622C3.86152 10.0709 3.88198 10.1837 3.88198 10.2978C3.88198 10.4118 3.86152 10.5246 3.82184 10.6293C3.78216 10.734 3.72411 10.8284 3.65122 10.9068Z" fill="currentColor"/>
</svg>
