<svg width="24" height="24" xmlns="http://www.w3.org/2000/svg" fill="none"><path id="svg_1" fill="currentColor" d="m22,12.00002c0,5.5228 -4.4772,10 -10,10c-5.52285,0 -10,-4.4772 -10,-10c0,-5.52289 4.47715,-10.00005 10,-10.00005c5.5228,0 10,4.47716 10,10.00005zm-11.0556,0.9343c-0.2257,0.3628 -0.3415,0.9343 -0.3472,1.7157l0,0.0014l2.4357,0c0,-0.4643 0.0529,-0.8271 0.1586,-1.0928c0.1057,-0.2658 0.3286,-0.5286 0.67,-0.7915c0.6243,-0.4071 1.1443,-0.9114 1.56,-1.5143c0.4157,-0.6028 0.6243,-1.2585 0.6243,-1.9671c0,-1.08857 -0.3543,-1.95142 -1.0657,-2.58428c-0.7114,-0.63286 -1.6929,-0.95 -2.9429,-0.95c-1.1614,0 -2.1028,0.28428 -2.82569,0.85428c-0.72286,0.57 -1.07571,1.39 -1.05857,2.46143l0.01571,0.05l2.37715,0c0.0057,-0.47428 0.1529,-0.83428 0.44,-1.08c0.2871,-0.24571 0.6371,-0.36857 1.05,-0.36857c0.5029,0 0.89,0.14571 1.16,0.43571c0.27,0.29001 0.4057,0.69286 0.4057,1.20572c0,0.46281 -0.1186,0.88281 -0.3557,1.25571c-0.2371,0.3729 -0.5543,0.7214 -0.95,1.0457c-0.6743,0.5186 -1.1257,0.96 -1.3514,1.3229zm-0.3557,5.1814l2.46,0l0.0014,0l0,-2.0929l-2.4614,0l0,2.0929z" clip-rule="evenodd" fill-rule="evenodd"/></svg>