<svg xmlns="http://www.w3.org/2000/svg" width="20" height="20" viewBox="0 0 20 20" fill="none">
<path d="M17.078 17.0804C12.1347 22.0327 3.73567 20.4521 0.890189 14.107C-2.32467 6.93631 3.62615 -0.980443 11.3999 0.0994295C19.5352 1.22997 22.8894 11.2578 17.077 17.0804H17.078ZM9.38481 1.49621C3.1602 1.93233 -0.474805 8.76126 2.57976 14.2063C5.56064 19.5193 13.1512 20.0488 16.8161 15.159C21.2118 9.29474 16.6976 0.983594 9.38382 1.49621H9.38481Z" fill="var(--text-primary)"/>
<path d="M9.58301 3.43239C10.4442 3.37477 11.8351 3.55459 12.6077 3.95395C13.0876 4.20231 13.2777 4.81229 12.8387 5.19476C12.3598 5.61201 11.7266 5.15105 11.182 5.02886C6.25067 3.91918 2.87353 9.77752 6.23773 13.4821C6.4946 13.7652 7.31499 14.3126 7.38269 14.5709C7.53701 15.156 7.10889 15.6796 6.49858 15.5524C5.88826 15.4252 4.63378 13.8655 4.31817 13.3172C1.88388 9.09601 4.72837 3.75526 9.58301 3.43339V3.43239Z" fill="var(--text-primary)"/>
<path d="M13.9508 5.3126C14.7164 5.13477 15.2112 6.00503 14.6627 6.56731L12.0512 9.02211C12.087 9.40956 12.2523 9.76521 12.2204 10.1795C12.0651 12.1852 9.42272 12.9393 8.23096 11.2971C7.086 9.71951 8.39623 7.62235 10.3088 7.83594C10.4452 7.85084 10.9311 8.03264 10.9829 8.00681L13.5675 5.57387C13.6899 5.50532 13.8164 5.34339 13.9508 5.3126ZM9.87772 9.27941C8.73873 9.51585 9.46652 11.3289 10.4552 10.5997C11.0635 10.1507 10.6135 9.12642 9.87772 9.27941Z" fill="var(--text-primary)"/>
<path d="M15.2937 7.09115C16.0952 6.95405 16.2983 7.9316 16.4247 8.51674C16.9584 10.9745 16.1659 13.4035 14.2642 15.0367C13.8341 15.4063 13.1093 15.9288 12.713 15.1947C12.2999 14.4287 13.1312 14.1168 13.5683 13.6975C14.9263 12.3961 15.4231 10.4162 14.9442 8.60515C14.8616 8.29222 14.6744 8.03293 14.7083 7.69814C14.7371 7.41203 15.0139 7.13784 15.2927 7.09015L15.2937 7.09115Z" fill="var(--text-primary)"/>
</svg>