<svg width="17" height="16" viewBox="0 0 17 16" fill="none" xmlns="http://www.w3.org/2000/svg">
<path d="M16 8C16 12.5 12.7075 15.5 8.6455 15.5C5.344 15.5 2.68 13.7487 1.75 11M1 8C1 3.5 4.2925 0.5 8.3545 0.5C11.6567 0.5 14.32 2.25125 15.25 5" stroke="currentColor" stroke-width="0.5" stroke-linecap="round" stroke-linejoin="round"/>
<path d="M4.75 11.75L1.75 11L1 14M12.25 4.25L15.25 5L16 2" stroke="currentColor" stroke-width="0.5" stroke-linecap="round" stroke-linejoin="round"/>
<path d="M8.70117 11.0625C9.5134 11.0625 10.2924 10.7398 10.8667 10.1655C11.441 9.59118 11.7637 8.81223 11.7637 8C11.7637 7.18777 11.441 6.40882 10.8667 5.83449C10.2924 5.26016 9.5134 4.9375 8.70117 4.9375V11.0625ZM8.70117 11.5C7.77291 11.5 6.88268 11.1313 6.2263 10.4749C5.56992 9.8185 5.20117 8.92826 5.20117 8C5.20117 7.07174 5.56992 6.1815 6.2263 5.52513C6.88268 4.86875 7.77291 4.5 8.70117 4.5C9.62943 4.5 10.5197 4.86875 11.176 5.52513C11.8324 6.1815 12.2012 7.07174 12.2012 8C12.2012 8.92826 11.8324 9.8185 11.176 10.4749C10.5197 11.1313 9.62943 11.5 8.70117 11.5Z" fill="currentColor"/>
</svg>
