<svg xmlns="http://www.w3.org/2000/svg" width="12" height="13" viewBox="0 0 12 13" fill="none">
<path d="M6.51429 2.86635C6.51429 2.72995 6.4601 2.59914 6.36366 2.5027C6.26721 2.40625 6.1364 2.35206 6 2.35206C5.8636 2.35206 5.73279 2.40625 5.63635 2.5027C5.5399 2.59914 5.48571 2.72995 5.48571 2.86635V6.29492C5.48568 6.38212 5.50781 6.46789 5.55003 6.54418C5.59226 6.62046 5.65318 6.68477 5.72709 6.73104L7.78423 8.01675C7.89989 8.08913 8.03957 8.1126 8.17254 8.082C8.23838 8.06684 8.30059 8.03887 8.35562 7.99967C8.41065 7.96047 8.45742 7.91082 8.49326 7.85355C8.5291 7.79628 8.55331 7.73251 8.5645 7.66588C8.5757 7.59926 8.57366 7.53108 8.5585 7.46524C8.54335 7.3994 8.51537 7.33719 8.47618 7.28216C8.43698 7.22713 8.38733 7.18036 8.33006 7.14452L6.51429 6.00966V2.86635Z" fill="currentColor"/>
<path fill-rule="evenodd" clip-rule="evenodd" d="M6 0.294922C4.4087 0.294922 2.88258 0.927063 1.75736 2.05228C0.632141 3.1775 0 4.70362 0 6.29492C0 7.88622 0.632141 9.41234 1.75736 10.5376C2.88258 11.6628 4.4087 12.2949 6 12.2949C7.5913 12.2949 9.11742 11.6628 10.2426 10.5376C11.3679 9.41234 12 7.88622 12 6.29492C12 4.70362 11.3679 3.1775 10.2426 2.05228C9.11742 0.927063 7.5913 0.294922 6 0.294922ZM1.02857 6.29492C1.02857 5.64207 1.15716 4.9956 1.407 4.39244C1.65684 3.78928 2.02303 3.24123 2.48467 2.77959C2.94631 2.31795 3.49435 1.95176 4.09752 1.70192C4.70068 1.45208 5.34714 1.32349 6 1.32349C6.65286 1.32349 7.29932 1.45208 7.90248 1.70192C8.50565 1.95176 9.05369 2.31795 9.51533 2.77959C9.97697 3.24123 10.3432 3.78928 10.593 4.39244C10.8428 4.9956 10.9714 5.64207 10.9714 6.29492C10.9714 7.61343 10.4477 8.87793 9.51533 9.81025C8.58301 10.7426 7.31851 11.2664 6 11.2664C4.6815 11.2664 3.41699 10.7426 2.48467 9.81025C1.55235 8.87793 1.02857 7.61343 1.02857 6.29492Z" fill="currentColor"/>
</svg>