<svg width="14" height="14" viewBox="0 0 14 14" fill="none" xmlns="http://www.w3.org/2000/svg">
<path d="M6.03198 5.53027L7.3896 5.44004L7.72183 5.75996L7.20503 9.46777L7.74233 9.5498L7.6603 9.98047L6.30679 10.0707L5.97456 9.75078L6.48726 6.04297L5.94995 5.96094L6.03198 5.53027ZM6.75386 4.24648C6.75386 4.04414 6.79351 3.86914 6.8728 3.72148C6.9521 3.57383 7.04644 3.5 7.15581 3.5C7.35542 3.5 7.52905 3.54102 7.67671 3.62305C7.8271 3.70234 7.90229 3.79531 7.90229 3.90195C7.90229 4.10977 7.86265 4.28613 7.78335 4.43105C7.70405 4.57598 7.60972 4.64844 7.50034 4.64844C7.29253 4.64844 7.11616 4.61016 6.97124 4.53359C6.82632 4.4543 6.75386 4.35859 6.75386 4.24648Z" fill="currentColor" fill-opacity="1"/>
<path fill-rule="evenodd" clip-rule="evenodd" d="M7 13.3C10.4794 13.3 13.3 10.4794 13.3 7C13.3 3.52061 10.4794 0.7 7 0.7C3.52061 0.7 0.7 3.52061 0.7 7C0.7 10.4794 3.52061 13.3 7 13.3ZM7 14C10.866 14 14 10.866 14 7C14 3.13401 10.866 0 7 0C3.13401 0 0 3.13401 0 7C0 10.866 3.13401 14 7 14Z" fill="currentColor" fill-opacity="1"/>
</svg>