<svg width="29" height="28" viewBox="0 0 29 28" fill="none" xmlns="http://www.w3.org/2000/svg">
<path fill-rule="evenodd" clip-rule="evenodd" d="M14.664 12.4692C14.4358 11.5641 13.1864 10.0439 7.3494 10.0439C4.59918 10.0439 2.60323 10.3457 1.41573 10.9413C0.104439 11.5989 0 12.4886 0 12.7516V17.8962C0.00613803 21.1036 1.73824 24.0594 4.53342 25.6324L6.78079 26.8973C7.13388 27.0957 7.56491 27.0957 7.91801 26.8973L10.1654 25.6324C12.9606 24.0594 14.6927 21.1036 14.6988 17.8962V12.7516C14.6988 12.6564 14.6871 12.5616 14.664 12.4692ZM13.5375 17.8871C13.5377 20.6814 12.031 23.2586 9.59593 24.6292L7.34856 25.9057L5.10119 24.6408C2.66614 23.2702 1.15943 20.693 1.1596 17.8987V12.7541C1.1596 12.7541 1.1596 11.2069 7.34856 11.2069C13.1507 11.2069 13.5375 12.7541 13.5375 12.7541V17.8871Z" fill="currentColor"/>
<path d="M13.7054 14.8945H10.4033M13.7054 16.7107H10.4033M13.7054 18.5268H10.4033" stroke="currentColor" stroke-width="0.801003" stroke-linecap="round"/>
<path d="M6.24316 7.32882C6.38948 6.0092 6.93729 4.7536 7.82436 3.70469C8.71143 2.65578 9.90219 1.85562 11.2613 1.39513C12.6205 0.934638 14.0935 0.832287 15.513 1.0997C16.9325 1.36712 18.2416 1.99358 19.2915 2.9079C20.3415 3.82222 21.0901 4.98774 21.4524 6.27202H22.6727C23.9569 6.27202 25.1885 6.73891 26.0966 7.57C27.0047 8.40108 27.5148 9.52828 27.5148 10.7036C27.5148 11.8789 27.0047 13.0061 26.0966 13.8372C25.1885 14.6683 23.9569 15.1352 22.6727 15.1352H17.9808" stroke="url(#paint0_linear_1538_299657)" stroke-width="1.36138" stroke-linecap="round" stroke-linejoin="round"/>
<defs>
<linearGradient id="paint0_linear_1538_299657" x1="16.861" y1="0.954102" x2="16.861" y2="15.1352" gradientUnits="userSpaceOnUse">
<stop stop-color="#718F9D"/>
<stop offset="1" stop-color="#7A9CFF" stop-opacity="0.58"/>
</linearGradient>
</defs>
</svg>
