<svg width="32" height="31" viewBox="0 0 32 31" fill="none" xmlns="http://www.w3.org/2000/svg">
<path fill-rule="evenodd" clip-rule="evenodd" d="M16.5272 13.8741C16.27 12.8539 14.8618 11.1406 8.28323 11.1406C5.18356 11.1406 2.93401 11.4807 1.59561 12.1521C0.117709 12.8932 0 13.8959 0 14.1923V19.9906C0.00691794 23.6055 1.9591 26.9369 5.10944 28.7098L7.64237 30.1354C8.04033 30.3591 8.52613 30.3591 8.92408 30.1354L11.457 28.7098C14.6074 26.9369 16.5595 23.6055 16.5665 19.9906V14.1923C16.5665 14.085 16.5533 13.9782 16.5272 13.8741ZM15.2554 19.9782C15.2556 23.1276 13.5574 26.0323 10.813 27.577L8.28003 29.0157L5.74711 27.5901C3.00265 26.0453 1.3045 23.1407 1.30469 19.9913V14.1931C1.30469 14.1931 1.30469 12.4492 8.28003 12.4492C14.8194 12.4492 15.2554 14.1931 15.2554 14.1931V19.9782Z" fill="currentColor"/>
<path d="M15.4443 16.6094H11.7227M15.4443 18.6563H11.7227M15.4443 20.7031H11.7227" stroke="currentColor" stroke-width="0.770105" stroke-linecap="round"/>
<path d="M8.0625 8.19235C8.22105 6.70348 8.8147 5.28683 9.77598 4.10338C10.7373 2.91993 12.0276 2.01714 13.5005 1.49759C14.9733 0.97804 16.5695 0.862561 18.1078 1.16428C19.6461 1.46599 21.0647 2.1728 22.2025 3.2044C23.3402 4.23599 24.1515 5.551 24.5441 7H25.8664C27.2581 7 28.5927 7.52678 29.5768 8.46447C30.5608 9.40215 31.1137 10.6739 31.1137 12C31.1137 13.3261 30.5608 14.5979 29.5768 15.5355C28.5927 16.4732 27.2581 17 25.8664 17H20.7821" stroke="url(#paint0_linear_215_15229)" stroke-width="1.6301" stroke-linecap="round" stroke-linejoin="round"/>
<defs>
<linearGradient id="paint0_linear_215_15229" x1="19.5685" y1="1" x2="19.5685" y2="17" gradientUnits="userSpaceOnUse">
<stop stop-color="#718F9D"/>
<stop offset="1" stop-color="#7A9CFF" stop-opacity="0.58"/>
</linearGradient>
</defs>
</svg>
