<svg width="247" height="233" viewBox="0 0 247 233" fill="none" xmlns="http://www.w3.org/2000/svg">
<path fill-rule="evenodd" clip-rule="evenodd" d="M127.467 105.943C125.483 98.0755 114.623 84.8616 63.8848 84.8616C39.9784 84.8616 22.6287 87.4842 12.3062 92.6622C0.907836 98.3781 0 106.111 0 108.398V153.117C0.0533549 180.997 15.1096 206.69 39.4068 220.363L58.9421 231.358C62.0114 233.083 65.7581 233.083 68.8274 231.358L88.3627 220.363C112.66 206.69 127.716 180.997 127.77 153.117V108.398C127.77 107.57 127.668 106.746 127.467 105.943ZM120 152.769C120.001 178.115 106.334 201.493 84.246 213.925L63.8602 225.504L43.4744 214.031C21.3861 201.598 7.71888 178.22 7.72037 152.874V106.208C7.72037 106.208 7.72037 92.1731 63.8602 92.1731C116.491 92.1731 120 106.208 120 106.208V152.769Z" fill="#D4D6DB"/>
<path d="M120.114 127.038H91.4111M120.114 142.825H91.4111M120.114 158.611H91.4111" stroke="#D4D6DB" stroke-width="5.93945" stroke-linecap="round"/>
<path d="M62.1799 62.1223C63.4028 50.6393 67.9813 39.7135 75.3952 30.5862C82.8091 21.4588 92.7611 14.4961 104.12 10.489C115.48 6.482 127.791 5.59137 139.655 7.91834C151.519 10.2453 162.46 15.6966 171.235 23.6527C180.01 31.6089 186.267 41.7509 189.295 52.9263H199.494C210.227 52.9263 220.52 56.9891 228.11 64.2209C235.699 71.4528 239.963 81.2613 239.963 91.4887C239.963 101.716 235.699 111.525 228.11 118.756C220.52 125.988 210.227 130.051 199.494 130.051H160.28" stroke="url(#paint0_linear_345_4642)" stroke-width="12.5721" stroke-linecap="round" stroke-linejoin="round"/>
<defs>
<linearGradient id="paint0_linear_345_4642" x1="150.921" y1="6.65137" x2="150.921" y2="130.051" gradientUnits="userSpaceOnUse">
<stop stop-color="#718F9D"/>
<stop offset="1" stop-color="#7A9CFF" stop-opacity="0.58"/>
</linearGradient>
</defs>
</svg>
