<svg width="32" height="32" viewBox="0 0 32 32" fill="none" xmlns="http://www.w3.org/2000/svg">
<path fill-rule="evenodd" clip-rule="evenodd" d="M16.664 15.5151C16.4358 14.61 15.1864 13.0898 9.3494 13.0898C6.59918 13.0898 4.60323 13.3916 3.41573 13.9872C2.10444 14.6448 2 15.5345 2 15.7975V20.9421C2.00614 24.1495 3.73824 27.1053 6.53342 28.6783L8.78079 29.9432C9.13388 30.1416 9.56491 30.1416 9.91801 29.9432L12.1654 28.6783C14.9606 27.1053 16.6927 24.1495 16.6988 20.9421V15.7975C16.6988 15.7023 16.6871 15.6075 16.664 15.5151ZM15.5371 20.9331C15.5373 23.7274 14.0306 26.3047 11.5955 27.6753L9.34814 28.9517L7.10078 27.6869C4.66572 26.3163 3.15902 23.739 3.15918 20.9447V15.8002C3.15918 15.8002 3.15918 14.2529 9.34814 14.2529C15.1503 14.2529 15.5371 15.8002 15.5371 15.8002V20.9331Z" fill="currentColor"/>
<path d="M15.7054 17.9404H12.4033M15.7054 19.7566H12.4033M15.7054 21.5727H12.4033" stroke="currentColor" stroke-width="0.801003" stroke-linecap="round"/>
<path d="M8 10.2933C8.15132 8.99054 8.7179 7.75098 9.63534 6.71546C10.5528 5.67994 11.7843 4.89 13.19 4.43539C14.5957 3.98079 16.1191 3.87974 17.5872 4.14374C19.0553 4.40774 20.4093 5.0262 21.4951 5.92885C22.581 6.83149 23.3553 7.98212 23.7301 9.25H24.9921C26.3202 9.25 27.594 9.71094 28.5332 10.5314C29.4724 11.3519 30 12.4647 30 13.625C30 14.7853 29.4724 15.8981 28.5332 16.7186C27.594 17.5391 26.3202 18 24.9921 18H19.5" stroke="url(#paint0_linear_2442_166636)" stroke-width="1.36138" stroke-linecap="round" stroke-linejoin="round"/>
<defs>
<linearGradient id="paint0_linear_2442_166636" x1="18.9813" y1="4" x2="18.9813" y2="18" gradientUnits="userSpaceOnUse">
<stop stop-color="#718F9D"/>
<stop offset="1" stop-color="#7A9CFF" stop-opacity="0.58"/>
</linearGradient>
</defs>
</svg>
