<svg width="16" height="16" viewBox="0 0 16 16" fill="none" xmlns="http://www.w3.org/2000/svg">
<path id="svg_1" fill="currentColor" d="m12.21872,5.65626c-0.54,0.0007 -1.0633,0.18757 -1.4816,0.52912c-0.41833,0.34155 -0.70609,0.81689 -0.81479,1.34588l-3.84422,0c-0.11616,-0.56909 -0.43949,-1.07477 -0.90731,-1.419c-0.46781,-0.34424 -1.04678,-0.50251 -1.62465,-0.44414c-0.57788,0.05838 -1.11349,0.32925 -1.50301,0.76009c-0.38951,0.43085 -0.60517,0.99098 -0.60517,1.5718c0,0.58081 0.21566,1.14094 0.60517,1.57179c0.38952,0.43085 0.92513,0.70175 1.50301,0.76005c0.57787,0.0584 1.15684,-0.0999 1.62465,-0.4441c0.46782,-0.34423 0.79115,-0.84991 0.90731,-1.41899l3.84375,0c0.08869,0.43449 0.29883,0.8349 0.60596,1.15474c0.3072,0.31985 0.6988,0.54595 1.1294,0.65215c0.4305,0.1061 0.8824,0.0879 1.303,-0.0524c0.4207,-0.1404 0.7928,-0.39727 1.0733,-0.74074c0.2805,-0.34347 0.4578,-0.75947 0.5114,-1.19968c0.0535,-0.44021 -0.019,-0.88657 -0.209,-1.28723c-0.1901,-0.40067 -0.4899,-0.7392 -0.8646,-0.97628c-0.3748,-0.23708 -0.8091,-0.36297 -1.2526,-0.36306zm0,3.75c-0.2781,0 -0.55,-0.08248 -0.7813,-0.237c-0.2312,-0.15452 -0.4115,-0.37415 -0.5179,-0.63111c-0.1064,-0.25695 -0.1343,-0.5397 -0.08,-0.81249c0.0542,-0.27279 0.1882,-0.52336 0.3848,-0.72002c0.1967,-0.19667 0.4473,-0.3306 0.7201,-0.38486c0.2728,-0.05426 0.5555,-0.02642 0.8125,0.08002c0.2569,0.10644 0.4766,0.28668 0.6311,0.51793c0.1545,0.23126 0.237,0.50315 0.237,0.78128c-0.0004,0.37284 -0.1487,0.73031 -0.4123,0.99395c-0.2637,0.26365 -0.6211,0.41192 -0.994,0.4123z"/>
</svg>
