<svg width="14" height="14" viewBox="0 0 14 14" fill="none" xmlns="http://www.w3.org/2000/svg">
<g clip-path="url(#clip0_702_143195)">
<path fill-rule="evenodd" clip-rule="evenodd" d="M1.66699 2.60449H11.667C11.7499 2.60449 11.8294 2.63742 11.888 2.69602C11.9466 2.75463 11.9795 2.83411 11.9795 2.91699V6.01608C11.8768 6.00545 11.7725 6 11.667 6C11.5615 6 11.4572 6.00545 11.3545 6.01608V5.72949H9.47949V6.94698C9.14461 7.30365 8.89597 7.74225 8.76686 8.22949H6.97949V10.1045H8.87685C8.96505 10.3271 9.07914 10.5367 9.21539 10.7295H1.66699C1.58411 10.7295 1.50463 10.6966 1.44602 10.638C1.38742 10.5794 1.35449 10.4999 1.35449 10.417V2.91699C1.35449 2.83411 1.38742 2.75463 1.44602 2.69602C1.50463 2.63742 1.58411 2.60449 1.66699 2.60449ZM4.47949 5.72949V7.60449H8.85449V5.72949H4.47949ZM1.97949 5.72949V7.60449H3.85449V5.72949H1.97949ZM6.97949 5.10449H11.3545V3.22949H6.97949V5.10449ZM6.35449 5.10449V3.22949H1.97949V5.10449H6.35449ZM6.35449 8.22949H1.97949V10.1045H6.35449V8.22949Z" fill="currentColor"/>
<path d="M12.4861 9.54862C12.4467 9.81137 12.324 10.0546 12.1361 10.2424C11.9483 10.4303 11.7051 10.553 11.4423 10.5924H11.4173C11.3755 10.5921 11.3353 10.576 11.3048 10.5475C11.2742 10.5189 11.2555 10.4799 11.2524 10.4382C11.2492 10.3965 11.2619 10.3552 11.2878 10.3224C11.3137 10.2896 11.351 10.2677 11.3923 10.2611C11.5839 10.23 11.7607 10.1394 11.898 10.0022C12.0352 9.86496 12.1258 9.68807 12.1569 9.49653C12.1592 9.47408 12.166 9.45234 12.177 9.43261C12.188 9.41288 12.2028 9.39559 12.2207 9.38177C12.2385 9.36796 12.259 9.35791 12.2808 9.35224C12.3026 9.34657 12.3254 9.34539 12.3477 9.34878C12.37 9.35217 12.3914 9.36005 12.4106 9.37195C12.4298 9.38386 12.4463 9.39953 12.4593 9.41802C12.4722 9.43651 12.4812 9.45743 12.4859 9.47952C12.4905 9.50162 12.4905 9.52441 12.4861 9.54653V9.54862ZM13.1673 9.35695C13.1673 9.86528 12.9654 10.3528 12.6059 10.7122C12.2465 11.0717 11.759 11.2736 11.2507 11.2736C10.7423 11.2736 10.2548 11.0717 9.89536 10.7122C9.53592 10.3528 9.33398 9.86528 9.33398 9.35695C9.33398 8.8757 9.54023 8.32153 9.94648 7.70903C9.95867 7.69082 9.97432 7.67519 9.99256 7.66304C10.0108 7.65088 10.0312 7.64244 10.0527 7.6382C10.0961 7.62987 10.1409 7.63884 10.1777 7.6632L10.8486 8.11112L11.4923 6.76112C11.5038 6.73701 11.521 6.71606 11.5424 6.70009C11.5639 6.68412 11.5888 6.67361 11.6152 6.66945C11.6414 6.6649 11.6683 6.66669 11.6937 6.67466C11.7191 6.68263 11.7422 6.69656 11.7611 6.71528C12.0673 7.02153 12.4194 7.39445 12.6902 7.82778C13.0111 8.3382 13.1673 8.8382 13.1673 9.35695ZM12.834 9.35695C12.834 8.46945 12.3048 7.75695 11.6902 7.11945L11.0673 8.42778C11.0573 8.44964 11.0426 8.46901 11.0243 8.48451C11.0059 8.5 10.9843 8.51122 10.9611 8.51737C10.9383 8.52343 10.9145 8.5247 10.8912 8.52112C10.8679 8.51753 10.8456 8.50916 10.8257 8.49653L10.134 8.03403C9.82357 8.53403 9.66732 8.97778 9.66732 9.35695C9.66732 9.77687 9.83413 10.1796 10.1311 10.4765C10.428 10.7735 10.8307 10.9403 11.2507 10.9403C11.6706 10.9403 12.0733 10.7735 12.3702 10.4765C12.6672 10.1796 12.834 9.77687 12.834 9.35695Z" fill="currentColor"/>
</g>
</svg>
