<svg width="22" height="26" viewBox="0 0 22 26" fill="none" xmlns="http://www.w3.org/2000/svg">
<path d="M8.64 6.15285C8.18 6.15285 7.74 6.33285 7.42 6.66285C7.09 6.99285 6.92 7.42285 6.92 7.88285C6.92 8.34285 7.1 8.78285 7.42 9.10285C7.74 9.42285 8.18 9.61285 8.64 9.61285C9.59 9.61285 10.36 8.83285 10.36 7.88285C10.36 6.93285 9.59 6.15285 8.64 6.15285ZM8.64 8.76285C8.41 8.76285 8.19 8.67285 8.03 8.50285C7.86 8.34285 7.77 8.12285 7.77 7.88285C7.77 7.64285 7.86 7.43285 8.02 7.26285C8.19 7.09285 8.41 7.00285 8.64 7.00285C9.12 7.00285 9.51 7.40285 9.51 7.88285C9.51 8.36285 9.12 8.76285 8.64 8.76285ZM4.3 6.15285C3.35 6.15285 2.58 6.93285 2.58 7.89285C2.58 8.35285 2.77 8.78285 3.09 9.11285C3.42 9.43285 3.85 9.61285 4.31 9.61285C5.26 9.61285 6.03 8.83285 6.03 7.87285C6.03 6.91285 5.26 6.16285 4.3 6.15285ZM4.31 8.76285C4.08 8.80285 3.86 8.67285 3.69 8.51285C3.53 8.34285 3.44 8.12285 3.43 7.88285C3.43 7.40285 3.82 7.01285 4.31 7.00285C4.79 7.01285 5.18 7.40285 5.18 7.88285C5.18 8.36285 4.79 8.76285 4.31 8.76285ZM13.4 16.5829H12.1C11.86 16.5829 11.67 16.7729 11.67 17.0129C11.67 17.2529 11.86 17.4329 12.1 17.4329H13.4C13.63 17.4329 13.83 17.2429 13.83 17.0129C13.83 16.7829 13.63 16.5829 13.4 16.5829ZM8.64 6.15285C8.18 6.15285 7.74 6.33285 7.42 6.66285C7.09 6.99285 6.92 7.42285 6.92 7.88285C6.92 8.34285 7.1 8.78285 7.42 9.10285C7.74 9.42285 8.18 9.61285 8.64 9.61285C9.59 9.61285 10.36 8.83285 10.36 7.88285C10.36 6.93285 9.59 6.15285 8.64 6.15285ZM8.64 8.76285C8.41 8.76285 8.19 8.67285 8.03 8.50285C7.86 8.34285 7.77 8.12285 7.77 7.88285C7.77 7.64285 7.86 7.43285 8.02 7.26285C8.19 7.09285 8.41 7.00285 8.64 7.00285C9.12 7.00285 9.51 7.40285 9.51 7.88285C9.51 8.36285 9.12 8.76285 8.64 8.76285ZM4.3 6.15285C3.35 6.15285 2.58 6.93285 2.58 7.89285C2.58 8.35285 2.77 8.78285 3.09 9.11285C3.42 9.43285 3.85 9.61285 4.31 9.61285C5.26 9.61285 6.03 8.83285 6.03 7.87285C6.03 6.91285 5.26 6.16285 4.3 6.15285ZM4.31 8.76285C4.08 8.80285 3.86 8.67285 3.69 8.51285C3.53 8.34285 3.44 8.12285 3.43 7.88285C3.43 7.40285 3.82 7.01285 4.31 7.00285C4.79 7.01285 5.18 7.40285 5.18 7.88285C5.18 8.36285 4.79 8.76285 4.31 8.76285ZM4.3 6.15285C3.35 6.15285 2.58 6.93285 2.58 7.89285C2.58 8.35285 2.77 8.78285 3.09 9.11285C3.42 9.43285 3.85 9.61285 4.31 9.61285C5.26 9.61285 6.03 8.83285 6.03 7.87285C6.03 6.91285 5.26 6.16285 4.3 6.15285ZM4.31 8.76285C4.08 8.80285 3.86 8.67285 3.69 8.51285C3.53 8.34285 3.44 8.12285 3.43 7.88285C3.43 7.40285 3.82 7.01285 4.31 7.00285C4.79 7.01285 5.18 7.40285 5.18 7.88285C5.18 8.36285 4.79 8.76285 4.31 8.76285ZM8.64 6.15285C8.18 6.15285 7.74 6.33285 7.42 6.66285C7.09 6.99285 6.92 7.42285 6.92 7.88285C6.92 8.34285 7.1 8.78285 7.42 9.10285C7.74 9.42285 8.18 9.61285 8.64 9.61285C9.59 9.61285 10.36 8.83285 10.36 7.88285C10.36 6.93285 9.59 6.15285 8.64 6.15285ZM8.64 8.76285C8.41 8.76285 8.19 8.67285 8.03 8.50285C7.86 8.34285 7.77 8.12285 7.77 7.88285C7.77 7.64285 7.86 7.43285 8.02 7.26285C8.19 7.09285 8.41 7.00285 8.64 7.00285C9.12 7.00285 9.51 7.40285 9.51 7.88285C9.51 8.36285 9.12 8.76285 8.64 8.76285ZM12.42 20.9229H5.27L1.46 19.2229C1.25 19.1229 0.99 19.2229 0.9 19.4329C0.8 19.6529 0.9 19.9029 1.11 19.9929L5.01 21.7329C5.01 21.7329 5.12 21.7729 5.18 21.7729H12.52C12.46 21.5029 12.43 21.2129 12.42 20.9229ZM8.64 6.15285C8.18 6.15285 7.74 6.33285 7.42 6.66285C7.09 6.99285 6.92 7.42285 6.92 7.88285C6.92 8.34285 7.1 8.78285 7.42 9.10285C7.74 9.42285 8.18 9.61285 8.64 9.61285C9.59 9.61285 10.36 8.83285 10.36 7.88285C10.36 6.93285 9.59 6.15285 8.64 6.15285ZM8.64 8.76285C8.41 8.76285 8.19 8.67285 8.03 8.50285C7.86 8.34285 7.77 8.12285 7.77 7.88285C7.77 7.64285 7.86 7.43285 8.02 7.26285C8.19 7.09285 8.41 7.00285 8.64 7.00285C9.12 7.00285 9.51 7.40285 9.51 7.88285C9.51 8.36285 9.12 8.76285 8.64 8.76285ZM4.3 6.15285C3.35 6.15285 2.58 6.93285 2.58 7.89285C2.58 8.35285 2.77 8.78285 3.09 9.11285C3.42 9.43285 3.85 9.61285 4.31 9.61285C5.26 9.61285 6.03 8.83285 6.03 7.87285C6.03 6.91285 5.26 6.16285 4.3 6.15285ZM4.31 8.76285C4.08 8.80285 3.86 8.67285 3.69 8.51285C3.53 8.34285 3.44 8.12285 3.43 7.88285C3.43 7.40285 3.82 7.01285 4.31 7.00285C4.79 7.01285 5.18 7.40285 5.18 7.88285C5.18 8.36285 4.79 8.76285 4.31 8.76285ZM4.3 6.15285C3.35 6.15285 2.58 6.93285 2.58 7.89285C2.58 8.35285 2.77 8.78285 3.09 9.11285C3.42 9.43285 3.85 9.61285 4.31 9.61285C5.26 9.61285 6.03 8.83285 6.03 7.87285C6.03 6.91285 5.26 6.16285 4.3 6.15285ZM4.31 8.76285C4.08 8.80285 3.86 8.67285 3.69 8.51285C3.53 8.34285 3.44 8.12285 3.43 7.88285C3.43 7.40285 3.82 7.01285 4.31 7.00285C4.79 7.01285 5.18 7.40285 5.18 7.88285C5.18 8.36285 4.79 8.76285 4.31 8.76285ZM8.64 6.15285C8.18 6.15285 7.74 6.33285 7.42 6.66285C7.09 6.99285 6.92 7.42285 6.92 7.88285C6.92 8.34285 7.1 8.78285 7.42 9.10285C7.74 9.42285 8.18 9.61285 8.64 9.61285C9.59 9.61285 10.36 8.83285 10.36 7.88285C10.36 6.93285 9.59 6.15285 8.64 6.15285ZM8.64 8.76285C8.41 8.76285 8.19 8.67285 8.03 8.50285C7.86 8.34285 7.77 8.12285 7.77 7.88285C7.77 7.64285 7.86 7.43285 8.02 7.26285C8.19 7.09285 8.41 7.00285 8.64 7.00285C9.12 7.00285 9.51 7.40285 9.51 7.88285C9.51 8.36285 9.12 8.76285 8.64 8.76285ZM8.64 6.15285C8.18 6.15285 7.74 6.33285 7.42 6.66285C7.09 6.99285 6.92 7.42285 6.92 7.88285C6.92 8.34285 7.1 8.78285 7.42 9.10285C7.74 9.42285 8.18 9.61285 8.64 9.61285C9.59 9.61285 10.36 8.83285 10.36 7.88285C10.36 6.93285 9.59 6.15285 8.64 6.15285ZM8.64 8.76285C8.41 8.76285 8.19 8.67285 8.03 8.50285C7.86 8.34285 7.77 8.12285 7.77 7.88285C7.77 7.64285 7.86 7.43285 8.02 7.26285C8.19 7.09285 8.41 7.00285 8.64 7.00285C9.12 7.00285 9.51 7.40285 9.51 7.88285C9.51 8.36285 9.12 8.76285 8.64 8.76285ZM4.3 6.15285C3.35 6.15285 2.58 6.93285 2.58 7.89285C2.58 8.35285 2.77 8.78285 3.09 9.11285C3.42 9.43285 3.85 9.61285 4.31 9.61285C5.26 9.61285 6.03 8.83285 6.03 7.87285C6.03 6.91285 5.26 6.16285 4.3 6.15285ZM4.31 8.76285C4.08 8.80285 3.86 8.67285 3.69 8.51285C3.53 8.34285 3.44 8.12285 3.43 7.88285C3.43 7.40285 3.82 7.01285 4.31 7.00285C4.79 7.01285 5.18 7.40285 5.18 7.88285C5.18 8.36285 4.79 8.76285 4.31 8.76285ZM4.3 6.15285C3.35 6.15285 2.58 6.93285 2.58 7.89285C2.58 8.35285 2.77 8.78285 3.09 9.11285C3.42 9.43285 3.85 9.61285 4.31 9.61285C5.26 9.61285 6.03 8.83285 6.03 7.87285C6.03 6.91285 5.26 6.16285 4.3 6.15285ZM4.31 8.76285C4.08 8.80285 3.86 8.67285 3.69 8.51285C3.53 8.34285 3.44 8.12285 3.43 7.88285C3.43 7.40285 3.82 7.01285 4.31 7.00285C4.79 7.01285 5.18 7.40285 5.18 7.88285C5.18 8.36285 4.79 8.76285 4.31 8.76285ZM8.64 6.15285C8.18 6.15285 7.74 6.33285 7.42 6.66285C7.09 6.99285 6.92 7.42285 6.92 7.88285C6.92 8.34285 7.1 8.78285 7.42 9.10285C7.74 9.42285 8.18 9.61285 8.64 9.61285C9.59 9.61285 10.36 8.83285 10.36 7.88285C10.36 6.93285 9.59 6.15285 8.64 6.15285ZM8.64 8.76285C8.41 8.76285 8.19 8.67285 8.03 8.50285C7.86 8.34285 7.77 8.12285 7.77 7.88285C7.77 7.64285 7.86 7.43285 8.02 7.26285C8.19 7.09285 8.41 7.00285 8.64 7.00285C9.12 7.00285 9.51 7.40285 9.51 7.88285C9.51 8.36285 9.12 8.76285 8.64 8.76285ZM8.64 6.15285C8.18 6.15285 7.74 6.33285 7.42 6.66285C7.09 6.99285 6.92 7.42285 6.92 7.88285C6.92 8.34285 7.1 8.78285 7.42 9.10285C7.74 9.42285 8.18 9.61285 8.64 9.61285C9.59 9.61285 10.36 8.83285 10.36 7.88285C10.36 6.93285 9.59 6.15285 8.64 6.15285ZM8.64 8.76285C8.41 8.76285 8.19 8.67285 8.03 8.50285C7.86 8.34285 7.77 8.12285 7.77 7.88285C7.77 7.64285 7.86 7.43285 8.02 7.26285C8.19 7.09285 8.41 7.00285 8.64 7.00285C9.12 7.00285 9.51 7.40285 9.51 7.88285C9.51 8.36285 9.12 8.76285 8.64 8.76285ZM4.3 6.15285C3.35 6.15285 2.58 6.93285 2.58 7.89285C2.58 8.35285 2.77 8.78285 3.09 9.11285C3.42 9.43285 3.85 9.61285 4.31 9.61285C5.26 9.61285 6.03 8.83285 6.03 7.87285C6.03 6.91285 5.26 6.16285 4.3 6.15285ZM4.31 8.76285C4.08 8.80285 3.86 8.67285 3.69 8.51285C3.53 8.34285 3.44 8.12285 3.43 7.88285C3.43 7.40285 3.82 7.01285 4.31 7.00285C4.79 7.01285 5.18 7.40285 5.18 7.88285C5.18 8.36285 4.79 8.76285 4.31 8.76285ZM4.3 6.15285C3.35 6.15285 2.58 6.93285 2.58 7.89285C2.58 8.35285 2.77 8.78285 3.09 9.11285C3.42 9.43285 3.85 9.61285 4.31 9.61285C5.26 9.61285 6.03 8.83285 6.03 7.87285C6.03 6.91285 5.26 6.16285 4.3 6.15285ZM4.31 8.76285C4.08 8.80285 3.86 8.67285 3.69 8.51285C3.53 8.34285 3.44 8.12285 3.43 7.88285C3.43 7.40285 3.82 7.01285 4.31 7.00285C4.79 7.01285 5.18 7.40285 5.18 7.88285C5.18 8.36285 4.79 8.76285 4.31 8.76285ZM8.64 6.15285C8.18 6.15285 7.74 6.33285 7.42 6.66285C7.09 6.99285 6.92 7.42285 6.92 7.88285C6.92 8.34285 7.1 8.78285 7.42 9.10285C7.74 9.42285 8.18 9.61285 8.64 9.61285C9.59 9.61285 10.36 8.83285 10.36 7.88285C10.36 6.93285 9.59 6.15285 8.64 6.15285ZM8.64 8.76285C8.41 8.76285 8.19 8.67285 8.03 8.50285C7.86 8.34285 7.77 8.12285 7.77 7.88285C7.77 7.64285 7.86 7.43285 8.02 7.26285C8.19 7.09285 8.41 7.00285 8.64 7.00285C9.12 7.00285 9.51 7.40285 9.51 7.88285C9.51 8.36285 9.12 8.76285 8.64 8.76285ZM8.64 6.15285C8.18 6.15285 7.74 6.33285 7.42 6.66285C7.09 6.99285 6.92 7.42285 6.92 7.88285C6.92 8.34285 7.1 8.78285 7.42 9.10285C7.74 9.42285 8.18 9.61285 8.64 9.61285C9.59 9.61285 10.36 8.83285 10.36 7.88285C10.36 6.93285 9.59 6.15285 8.64 6.15285ZM8.64 8.76285C8.41 8.76285 8.19 8.67285 8.03 8.50285C7.86 8.34285 7.77 8.12285 7.77 7.88285C7.77 7.64285 7.86 7.43285 8.02 7.26285C8.19 7.09285 8.41 7.00285 8.64 7.00285C9.12 7.00285 9.51 7.40285 9.51 7.88285C9.51 8.36285 9.12 8.76285 8.64 8.76285ZM4.3 6.15285C3.35 6.15285 2.58 6.93285 2.58 7.89285C2.58 8.35285 2.77 8.78285 3.09 9.11285C3.42 9.43285 3.85 9.61285 4.31 9.61285C5.26 9.61285 6.03 8.83285 6.03 7.87285C6.03 6.91285 5.26 6.16285 4.3 6.15285ZM4.31 8.76285C4.08 8.80285 3.86 8.67285 3.69 8.51285C3.53 8.34285 3.44 8.12285 3.43 7.88285C3.43 7.40285 3.82 7.01285 4.31 7.00285C4.79 7.01285 5.18 7.40285 5.18 7.88285C5.18 8.36285 4.79 8.76285 4.31 8.76285ZM4.3 6.15285C3.35 6.15285 2.58 6.93285 2.58 7.89285C2.58 8.35285 2.77 8.78285 3.09 9.11285C3.42 9.43285 3.85 9.61285 4.31 9.61285C5.26 9.61285 6.03 8.83285 6.03 7.87285C6.03 6.91285 5.26 6.16285 4.3 6.15285ZM4.31 8.76285C4.08 8.80285 3.86 8.67285 3.69 8.51285C3.53 8.34285 3.44 8.12285 3.43 7.88285C3.43 7.40285 3.82 7.01285 4.31 7.00285C4.79 7.01285 5.18 7.40285 5.18 7.88285C5.18 8.36285 4.79 8.76285 4.31 8.76285ZM8.64 6.15285C8.18 6.15285 7.74 6.33285 7.42 6.66285C7.09 6.99285 6.92 7.42285 6.92 7.88285C6.92 8.34285 7.1 8.78285 7.42 9.10285C7.74 9.42285 8.18 9.61285 8.64 9.61285C9.59 9.61285 10.36 8.83285 10.36 7.88285C10.36 6.93285 9.59 6.15285 8.64 6.15285ZM8.64 8.76285C8.41 8.76285 8.19 8.67285 8.03 8.50285C7.86 8.34285 7.77 8.12285 7.77 7.88285C7.77 7.64285 7.86 7.43285 8.02 7.26285C8.19 7.09285 8.41 7.00285 8.64 7.00285C9.12 7.00285 9.51 7.40285 9.51 7.88285C9.51 8.36285 9.12 8.76285 8.64 8.76285ZM8.64 6.15285C8.18 6.15285 7.74 6.33285 7.42 6.66285C7.09 6.99285 6.92 7.42285 6.92 7.88285C6.92 8.34285 7.1 8.78285 7.42 9.10285C7.74 9.42285 8.18 9.61285 8.64 9.61285C9.59 9.61285 10.36 8.83285 10.36 7.88285C10.36 6.93285 9.59 6.15285 8.64 6.15285ZM8.64 8.76285C8.41 8.76285 8.19 8.67285 8.03 8.50285C7.86 8.34285 7.77 8.12285 7.77 7.88285C7.77 7.64285 7.86 7.43285 8.02 7.26285C8.19 7.09285 8.41 7.00285 8.64 7.00285C9.12 7.00285 9.51 7.40285 9.51 7.88285C9.51 8.36285 9.12 8.76285 8.64 8.76285ZM4.3 6.15285C3.35 6.15285 2.58 6.93285 2.58 7.89285C2.58 8.35285 2.77 8.78285 3.09 9.11285C3.42 9.43285 3.85 9.61285 4.31 9.61285C5.26 9.61285 6.03 8.83285 6.03 7.87285C6.03 6.91285 5.26 6.16285 4.3 6.15285ZM4.31 8.76285C4.08 8.80285 3.86 8.67285 3.69 8.51285C3.53 8.34285 3.44 8.12285 3.43 7.88285C3.43 7.40285 3.82 7.01285 4.31 7.00285C4.79 7.01285 5.18 7.40285 5.18 7.88285C5.18 8.36285 4.79 8.76285 4.31 8.76285ZM19.51 12.7729C19.36 12.7029 19.19 12.6629 19.01 12.6629H8.36C7.82 12.6629 7.35 12.9829 7.16 13.4829L4.95 19.0329L1.38 17.4029C1.16 17.3029 1.06 17.0329 1.16 16.8129L2.31 14.2229C2.38 14.0629 2.54 13.9629 2.71 13.9629H4.31C4.55 13.9629 4.74 13.7729 4.74 13.5329V12.2229H11.66C11.9 12.2229 12.09 12.0229 12.09 11.7929V9.97285C12.59 9.79285 12.95 9.31285 12.95 8.74285V7.44285C12.95 6.88285 12.59 6.40285 12.09 6.22285V5.70285C12.09 4.51285 11.12 3.54285 9.93 3.54285H6.9V1.34285C6.9 1.11285 6.71 0.922852 6.48 0.922852C6.25 0.922852 6.05 1.11285 6.05 1.34285V3.54285H3.02C1.83 3.54285 0.86 4.51285 0.86 5.70285V6.22285C0.36 6.40285 0 6.88285 0 7.45285V8.75285C0 9.31285 0.36 9.79285 0.86 9.97285V11.7929C0.86 12.0229 1.05 12.2229 1.29 12.2229H3.89V13.1029H2.71C2.2 13.1029 1.74 13.4129 1.54 13.8729L0.38 16.4729C0.1 17.1129 0.39 17.8829 1.03 18.1729L5 19.9929C5.11 20.0429 5.23 20.0429 5.34 20.0029C5.45 19.9629 5.53 19.8729 5.58 19.7629L7.95 13.7929C8.02 13.6229 8.18 13.5229 8.36 13.5229H19.01C19.07 13.5229 19.13 13.5329 19.18 13.5529C19.41 13.6429 19.51 13.9129 19.42 14.1329L18.39 16.5929C18.66 16.6829 18.92 16.8029 19.16 16.9429L20.2 14.4629C20.48 13.8029 20.17 13.0429 19.51 12.7729ZM1.71 11.3629V9.62285C1.71 9.38285 1.52 9.19285 1.29 9.19285C1.06 9.19285 0.85 8.99285 0.85 8.75285V7.45285C0.85 7.20285 1.05 7.00285 1.29 7.00285C1.53 7.00285 1.71 6.81285 1.71 6.58285V5.70285C1.71 4.98285 2.3 4.39285 3.02 4.39285H9.93C10.65 4.39285 11.24 4.98285 11.24 5.70285V6.58285C11.24 6.81285 11.43 7.00285 11.66 7.00285C11.89 7.00285 12.1 7.20285 12.1 7.44285V8.74285C12.1 8.99285 11.91 9.19285 11.66 9.19285C11.43 9.19285 11.24 9.38285 11.24 9.61285V11.3629H1.71ZM8.64 6.15285C8.18 6.15285 7.74 6.33285 7.42 6.66285C7.09 6.99285 6.92 7.42285 6.92 7.88285C6.92 8.34285 7.1 8.78285 7.42 9.10285C7.74 9.42285 8.18 9.61285 8.64 9.61285C9.59 9.61285 10.36 8.83285 10.36 7.88285C10.36 6.93285 9.59 6.15285 8.64 6.15285ZM8.64 8.76285C8.41 8.76285 8.19 8.67285 8.03 8.50285C7.86 8.34285 7.77 8.12285 7.77 7.88285C7.77 7.64285 7.86 7.43285 8.02 7.26285C8.19 7.09285 8.41 7.00285 8.64 7.00285C9.12 7.00285 9.51 7.40285 9.51 7.88285C9.51 8.36285 9.12 8.76285 8.64 8.76285ZM4.3 6.15285C3.35 6.15285 2.58 6.93285 2.58 7.89285C2.58 8.35285 2.77 8.78285 3.09 9.11285C3.42 9.43285 3.85 9.61285 4.31 9.61285C5.26 9.61285 6.03 8.83285 6.03 7.87285C6.03 6.91285 5.26 6.16285 4.3 6.15285ZM4.31 8.76285C4.08 8.80285 3.86 8.67285 3.69 8.51285C3.53 8.34285 3.44 8.12285 3.43 7.88285C3.43 7.40285 3.82 7.01285 4.31 7.00285C4.79 7.01285 5.18 7.40285 5.18 7.88285C5.18 8.36285 4.79 8.76285 4.31 8.76285ZM4.3 6.15285C3.35 6.15285 2.58 6.93285 2.58 7.89285C2.58 8.35285 2.77 8.78285 3.09 9.11285C3.42 9.43285 3.85 9.61285 4.31 9.61285C5.26 9.61285 6.03 8.83285 6.03 7.87285C6.03 6.91285 5.26 6.16285 4.3 6.15285ZM4.31 8.76285C4.08 8.80285 3.86 8.67285 3.69 8.51285C3.53 8.34285 3.44 8.12285 3.43 7.88285C3.43 7.40285 3.82 7.01285 4.31 7.00285C4.79 7.01285 5.18 7.40285 5.18 7.88285C5.18 8.36285 4.79 8.76285 4.31 8.76285ZM8.64 6.15285C8.18 6.15285 7.74 6.33285 7.42 6.66285C7.09 6.99285 6.92 7.42285 6.92 7.88285C6.92 8.34285 7.1 8.78285 7.42 9.10285C7.74 9.42285 8.18 9.61285 8.64 9.61285C9.59 9.61285 10.36 8.83285 10.36 7.88285C10.36 6.93285 9.59 6.15285 8.64 6.15285ZM8.64 8.76285C8.41 8.76285 8.19 8.67285 8.03 8.50285C7.86 8.34285 7.77 8.12285 7.77 7.88285C7.77 7.64285 7.86 7.43285 8.02 7.26285C8.19 7.09285 8.41 7.00285 8.64 7.00285C9.12 7.00285 9.51 7.40285 9.51 7.88285C9.51 8.36285 9.12 8.76285 8.64 8.76285ZM8.64 6.15285C8.18 6.15285 7.74 6.33285 7.42 6.66285C7.09 6.99285 6.92 7.42285 6.92 7.88285C6.92 8.34285 7.1 8.78285 7.42 9.10285C7.74 9.42285 8.18 9.61285 8.64 9.61285C9.59 9.61285 10.36 8.83285 10.36 7.88285C10.36 6.93285 9.59 6.15285 8.64 6.15285ZM8.64 8.76285C8.41 8.76285 8.19 8.67285 8.03 8.50285C7.86 8.34285 7.77 8.12285 7.77 7.88285C7.77 7.64285 7.86 7.43285 8.02 7.26285C8.19 7.09285 8.41 7.00285 8.64 7.00285C9.12 7.00285 9.51 7.40285 9.51 7.88285C9.51 8.36285 9.12 8.76285 8.64 8.76285ZM4.3 6.15285C3.35 6.15285 2.58 6.93285 2.58 7.89285C2.58 8.35285 2.77 8.78285 3.09 9.11285C3.42 9.43285 3.85 9.61285 4.31 9.61285C5.26 9.61285 6.03 8.83285 6.03 7.87285C6.03 6.91285 5.26 6.16285 4.3 6.15285ZM4.31 8.76285C4.08 8.80285 3.86 8.67285 3.69 8.51285C3.53 8.34285 3.44 8.12285 3.43 7.88285C3.43 7.40285 3.82 7.01285 4.31 7.00285C4.79 7.01285 5.18 7.40285 5.18 7.88285C5.18 8.36285 4.79 8.76285 4.31 8.76285ZM4.3 6.15285C3.35 6.15285 2.58 6.93285 2.58 7.89285C2.58 8.35285 2.77 8.78285 3.09 9.11285C3.42 9.43285 3.85 9.61285 4.31 9.61285C5.26 9.61285 6.03 8.83285 6.03 7.87285C6.03 6.91285 5.26 6.16285 4.3 6.15285ZM4.31 8.76285C4.08 8.80285 3.86 8.67285 3.69 8.51285C3.53 8.34285 3.44 8.12285 3.43 7.88285C3.43 7.40285 3.82 7.01285 4.31 7.00285C4.79 7.01285 5.18 7.40285 5.18 7.88285C5.18 8.36285 4.79 8.76285 4.31 8.76285ZM8.64 6.15285C8.18 6.15285 7.74 6.33285 7.42 6.66285C7.09 6.99285 6.92 7.42285 6.92 7.88285C6.92 8.34285 7.1 8.78285 7.42 9.10285C7.74 9.42285 8.18 9.61285 8.64 9.61285C9.59 9.61285 10.36 8.83285 10.36 7.88285C10.36 6.93285 9.59 6.15285 8.64 6.15285ZM8.64 8.76285C8.41 8.76285 8.19 8.67285 8.03 8.50285C7.86 8.34285 7.77 8.12285 7.77 7.88285C7.77 7.64285 7.86 7.43285 8.02 7.26285C8.19 7.09285 8.41 7.00285 8.64 7.00285C9.12 7.00285 9.51 7.40285 9.51 7.88285C9.51 8.36285 9.12 8.76285 8.64 8.76285ZM8.64 6.15285C8.18 6.15285 7.74 6.33285 7.42 6.66285C7.09 6.99285 6.92 7.42285 6.92 7.88285C6.92 8.34285 7.1 8.78285 7.42 9.10285C7.74 9.42285 8.18 9.61285 8.64 9.61285C9.59 9.61285 10.36 8.83285 10.36 7.88285C10.36 6.93285 9.59 6.15285 8.64 6.15285ZM8.64 8.76285C8.41 8.76285 8.19 8.67285 8.03 8.50285C7.86 8.34285 7.77 8.12285 7.77 7.88285C7.77 7.64285 7.86 7.43285 8.02 7.26285C8.19 7.09285 8.41 7.00285 8.64 7.00285C9.12 7.00285 9.51 7.40285 9.51 7.88285C9.51 8.36285 9.12 8.76285 8.64 8.76285ZM4.3 6.15285C3.35 6.15285 2.58 6.93285 2.58 7.89285C2.58 8.35285 2.77 8.78285 3.09 9.11285C3.42 9.43285 3.85 9.61285 4.31 9.61285C5.26 9.61285 6.03 8.83285 6.03 7.87285C6.03 6.91285 5.26 6.16285 4.3 6.15285ZM4.31 8.76285C4.08 8.80285 3.86 8.67285 3.69 8.51285C3.53 8.34285 3.44 8.12285 3.43 7.88285C3.43 7.40285 3.82 7.01285 4.31 7.00285C4.79 7.01285 5.18 7.40285 5.18 7.88285C5.18 8.36285 4.79 8.76285 4.31 8.76285ZM4.3 6.15285C3.35 6.15285 2.58 6.93285 2.58 7.89285C2.58 8.35285 2.77 8.78285 3.09 9.11285C3.42 9.43285 3.85 9.61285 4.31 9.61285C5.26 9.61285 6.03 8.83285 6.03 7.87285C6.03 6.91285 5.26 6.16285 4.3 6.15285ZM4.31 8.76285C4.08 8.80285 3.86 8.67285 3.69 8.51285C3.53 8.34285 3.44 8.12285 3.43 7.88285C3.43 7.40285 3.82 7.01285 4.31 7.00285C4.79 7.01285 5.18 7.40285 5.18 7.88285C5.18 8.36285 4.79 8.76285 4.31 8.76285ZM8.64 6.15285C8.18 6.15285 7.74 6.33285 7.42 6.66285C7.09 6.99285 6.92 7.42285 6.92 7.88285C6.92 8.34285 7.1 8.78285 7.42 9.10285C7.74 9.42285 8.18 9.61285 8.64 9.61285C9.59 9.61285 10.36 8.83285 10.36 7.88285C10.36 6.93285 9.59 6.15285 8.64 6.15285ZM8.64 8.76285C8.41 8.76285 8.19 8.67285 8.03 8.50285C7.86 8.34285 7.77 8.12285 7.77 7.88285C7.77 7.64285 7.86 7.43285 8.02 7.26285C8.19 7.09285 8.41 7.00285 8.64 7.00285C9.12 7.00285 9.51 7.40285 9.51 7.88285C9.51 8.36285 9.12 8.76285 8.64 8.76285ZM8.64 6.15285C8.18 6.15285 7.74 6.33285 7.42 6.66285C7.09 6.99285 6.92 7.42285 6.92 7.88285C6.92 8.34285 7.1 8.78285 7.42 9.10285C7.74 9.42285 8.18 9.61285 8.64 9.61285C9.59 9.61285 10.36 8.83285 10.36 7.88285C10.36 6.93285 9.59 6.15285 8.64 6.15285ZM8.64 8.76285C8.41 8.76285 8.19 8.67285 8.03 8.50285C7.86 8.34285 7.77 8.12285 7.77 7.88285C7.77 7.64285 7.86 7.43285 8.02 7.26285C8.19 7.09285 8.41 7.00285 8.64 7.00285C9.12 7.00285 9.51 7.40285 9.51 7.88285C9.51 8.36285 9.12 8.76285 8.64 8.76285ZM4.3 6.15285C3.35 6.15285 2.58 6.93285 2.58 7.89285C2.58 8.35285 2.77 8.78285 3.09 9.11285C3.42 9.43285 3.85 9.61285 4.31 9.61285C5.26 9.61285 6.03 8.83285 6.03 7.87285C6.03 6.91285 5.26 6.16285 4.3 6.15285ZM4.31 8.76285C4.08 8.80285 3.86 8.67285 3.69 8.51285C3.53 8.34285 3.44 8.12285 3.43 7.88285C3.43 7.40285 3.82 7.01285 4.31 7.00285C4.79 7.01285 5.18 7.40285 5.18 7.88285C5.18 8.36285 4.79 8.76285 4.31 8.76285ZM4.3 6.15285C3.35 6.15285 2.58 6.93285 2.58 7.89285C2.58 8.35285 2.77 8.78285 3.09 9.11285C3.42 9.43285 3.85 9.61285 4.31 9.61285C5.26 9.61285 6.03 8.83285 6.03 7.87285C6.03 6.91285 5.26 6.16285 4.3 6.15285ZM4.31 8.76285C4.08 8.80285 3.86 8.67285 3.69 8.51285C3.53 8.34285 3.44 8.12285 3.43 7.88285C3.43 7.40285 3.82 7.01285 4.31 7.00285C4.79 7.01285 5.18 7.40285 5.18 7.88285C5.18 8.36285 4.79 8.76285 4.31 8.76285ZM8.64 6.15285C8.18 6.15285 7.74 6.33285 7.42 6.66285C7.09 6.99285 6.92 7.42285 6.92 7.88285C6.92 8.34285 7.1 8.78285 7.42 9.10285C7.74 9.42285 8.18 9.61285 8.64 9.61285C9.59 9.61285 10.36 8.83285 10.36 7.88285C10.36 6.93285 9.59 6.15285 8.64 6.15285ZM8.64 8.76285C8.41 8.76285 8.19 8.67285 8.03 8.50285C7.86 8.34285 7.77 8.12285 7.77 7.88285C7.77 7.64285 7.86 7.43285 8.02 7.26285C8.19 7.09285 8.41 7.00285 8.64 7.00285C9.12 7.00285 9.51 7.40285 9.51 7.88285C9.51 8.36285 9.12 8.76285 8.64 8.76285ZM8.64 6.15285C8.18 6.15285 7.74 6.33285 7.42 6.66285C7.09 6.99285 6.92 7.42285 6.92 7.88285C6.92 8.34285 7.1 8.78285 7.42 9.10285C7.74 9.42285 8.18 9.61285 8.64 9.61285C9.59 9.61285 10.36 8.83285 10.36 7.88285C10.36 6.93285 9.59 6.15285 8.64 6.15285ZM8.64 8.76285C8.41 8.76285 8.19 8.67285 8.03 8.50285C7.86 8.34285 7.77 8.12285 7.77 7.88285C7.77 7.64285 7.86 7.43285 8.02 7.26285C8.19 7.09285 8.41 7.00285 8.64 7.00285C9.12 7.00285 9.51 7.40285 9.51 7.88285C9.51 8.36285 9.12 8.76285 8.64 8.76285ZM4.3 6.15285C3.35 6.15285 2.58 6.93285 2.58 7.89285C2.58 8.35285 2.77 8.78285 3.09 9.11285C3.42 9.43285 3.85 9.61285 4.31 9.61285C5.26 9.61285 6.03 8.83285 6.03 7.87285C6.03 6.91285 5.26 6.16285 4.3 6.15285ZM4.31 8.76285C4.08 8.80285 3.86 8.67285 3.69 8.51285C3.53 8.34285 3.44 8.12285 3.43 7.88285C3.43 7.40285 3.82 7.01285 4.31 7.00285C4.79 7.01285 5.18 7.40285 5.18 7.88285C5.18 8.36285 4.79 8.76285 4.31 8.76285ZM4.3 6.15285C3.35 6.15285 2.58 6.93285 2.58 7.89285C2.58 8.35285 2.77 8.78285 3.09 9.11285C3.42 9.43285 3.85 9.61285 4.31 9.61285C5.26 9.61285 6.03 8.83285 6.03 7.87285C6.03 6.91285 5.26 6.16285 4.3 6.15285ZM4.31 8.76285C4.08 8.80285 3.86 8.67285 3.69 8.51285C3.53 8.34285 3.44 8.12285 3.43 7.88285C3.43 7.40285 3.82 7.01285 4.31 7.00285C4.79 7.01285 5.18 7.40285 5.18 7.88285C5.18 8.36285 4.79 8.76285 4.31 8.76285ZM8.64 6.15285C8.18 6.15285 7.74 6.33285 7.42 6.66285C7.09 6.99285 6.92 7.42285 6.92 7.88285C6.92 8.34285 7.1 8.78285 7.42 9.10285C7.74 9.42285 8.18 9.61285 8.64 9.61285C9.59 9.61285 10.36 8.83285 10.36 7.88285C10.36 6.93285 9.59 6.15285 8.64 6.15285ZM8.64 8.76285C8.41 8.76285 8.19 8.67285 8.03 8.50285C7.86 8.34285 7.77 8.12285 7.77 7.88285C7.77 7.64285 7.86 7.43285 8.02 7.26285C8.19 7.09285 8.41 7.00285 8.64 7.00285C9.12 7.00285 9.51 7.40285 9.51 7.88285C9.51 8.36285 9.12 8.76285 8.64 8.76285ZM8.64 6.15285C8.18 6.15285 7.74 6.33285 7.42 6.66285C7.09 6.99285 6.92 7.42285 6.92 7.88285C6.92 8.34285 7.1 8.78285 7.42 9.10285C7.74 9.42285 8.18 9.61285 8.64 9.61285C9.59 9.61285 10.36 8.83285 10.36 7.88285C10.36 6.93285 9.59 6.15285 8.64 6.15285ZM8.64 8.76285C8.41 8.76285 8.19 8.67285 8.03 8.50285C7.86 8.34285 7.77 8.12285 7.77 7.88285C7.77 7.64285 7.86 7.43285 8.02 7.26285C8.19 7.09285 8.41 7.00285 8.64 7.00285C9.12 7.00285 9.51 7.40285 9.51 7.88285C9.51 8.36285 9.12 8.76285 8.64 8.76285ZM4.3 6.15285C3.35 6.15285 2.58 6.93285 2.58 7.89285C2.58 8.35285 2.77 8.78285 3.09 9.11285C3.42 9.43285 3.85 9.61285 4.31 9.61285C5.26 9.61285 6.03 8.83285 6.03 7.87285C6.03 6.91285 5.26 6.16285 4.3 6.15285ZM4.31 8.76285C4.08 8.80285 3.86 8.67285 3.69 8.51285C3.53 8.34285 3.44 8.12285 3.43 7.88285C3.43 7.40285 3.82 7.01285 4.31 7.00285C4.79 7.01285 5.18 7.40285 5.18 7.88285C5.18 8.36285 4.79 8.76285 4.31 8.76285Z" fill="currentColor"/>
<path d="M18.97 17.4029C18.72 17.2729 18.46 17.1729 18.18 17.0929C17.83 16.9929 17.47 16.9429 17.09 16.9429C14.88 16.9429 13.07 18.7229 13.02 20.9229V21.0129C13.02 21.2729 13.04 21.5229 13.09 21.7729C13.45 23.6529 15.11 25.0829 17.09 25.0829C19.33 25.0829 21.16 23.2529 21.16 21.0129C21.16 19.4529 20.27 18.0829 18.97 17.4029ZM17.09 24.2829C15.55 24.2829 14.25 23.2129 13.92 21.7729C13.85 21.5329 13.82 21.2729 13.82 21.0129C13.82 20.9829 13.82 20.9529 13.83 20.9229C13.87 19.1629 15.32 17.7429 17.09 17.7429C17.36 17.7429 17.62 17.7729 17.87 17.8429C18.15 17.9029 18.41 18.0129 18.66 18.1429C19.67 18.7029 20.36 19.7829 20.36 21.0129C20.36 22.8129 18.89 24.2829 17.09 24.2829Z" fill="currentColor"/>
<path d="M19.62 19.9729C19.62 20.0729 19.58 20.1729 19.51 20.2429L17.2 22.5529C17 22.7628 16.72 22.8729 16.42 22.8729H16.41C16.11 22.8729 15.83 22.7529 15.64 22.5529L14.87 21.7729L14.54 21.4329C14.47 21.3629 14.43 21.2629 14.43 21.1529C14.43 21.0629 14.46 20.9829 14.52 20.9229C14.52 20.9029 14.54 20.8929 14.55 20.8829C14.69 20.7429 14.93 20.7329 15.09 20.8929L15.12 20.9229L15.96 21.7729L16.19 22.0029C16.25 22.0729 16.33 22.1029 16.43 22.1029C16.51 22.1029 16.59 22.0729 16.65 22.0129L18.96 19.7029C19.1 19.5529 19.37 19.5529 19.51 19.7029C19.58 19.7729 19.62 19.8729 19.62 19.9729Z" fill="currentColor"/>
</svg>