<svg width="16" height="16" viewBox="0 0 16 16" fill="none" xmlns="http://www.w3.org/2000/svg">
<g clip-path="url(#clip0_749_6522)">
<path d="M7.8418 3.3125C8.42285 3.3125 8.96973 3.42236 9.48242 3.64209C9.99512 3.86182 10.4419 4.16455 10.8228 4.55029C11.2036 4.93604 11.5039 5.38281 11.7236 5.89062C11.9434 6.39844 12.0557 6.94531 12.0605 7.53125C12.0605 7.83887 12.041 8.12695 12.002 8.39551C11.9629 8.66406 11.9019 8.92041 11.8188 9.16455C11.7358 9.40869 11.6284 9.65039 11.4966 9.88965C11.3647 10.1289 11.2085 10.373 11.0278 10.6221C10.8862 10.8174 10.7617 10.9932 10.6543 11.1494C10.5469 11.3057 10.459 11.4619 10.3906 11.6182C10.3223 11.7744 10.271 11.9453 10.2368 12.1309C10.2026 12.3164 10.1855 12.5337 10.1855 12.7827V14.0938C10.1855 14.2891 10.1489 14.4722 10.0757 14.6431C10.0024 14.814 9.90234 14.9629 9.77539 15.0898C9.64844 15.2168 9.49951 15.3169 9.32861 15.3901C9.15771 15.4634 8.97461 15.5 8.7793 15.5H6.9043C6.70898 15.5 6.52588 15.4634 6.35498 15.3901C6.18408 15.3169 6.03516 15.2168 5.9082 15.0898C5.78125 14.9629 5.68115 14.814 5.60791 14.6431C5.53467 14.4722 5.49805 14.2891 5.49805 14.0938V12.7754C5.49805 12.5264 5.48096 12.3115 5.44678 12.1309C5.4126 11.9502 5.36133 11.7817 5.29297 11.6255C5.22461 11.4692 5.13672 11.3105 5.0293 11.1494C4.92188 10.9883 4.79736 10.8125 4.65576 10.6221C4.4751 10.373 4.32129 10.1313 4.19434 9.89697C4.06738 9.6626 3.95996 9.4209 3.87207 9.17188C3.78418 8.92285 3.7207 8.66406 3.68164 8.39551C3.64258 8.12695 3.62305 7.83887 3.62305 7.53125C3.62305 6.9502 3.73291 6.40332 3.95264 5.89062C4.17236 5.37793 4.4751 4.93115 4.86084 4.55029C5.24658 4.16943 5.69336 3.86914 6.20117 3.64941C6.70898 3.42969 7.25586 3.31738 7.8418 3.3125ZM9.24805 14.0938V13.625H6.43555V14.0938C6.43555 14.2207 6.48193 14.3306 6.57471 14.4233C6.66748 14.5161 6.77734 14.5625 6.9043 14.5625H8.7793C8.90625 14.5625 9.01611 14.5161 9.10889 14.4233C9.20166 14.3306 9.24805 14.2207 9.24805 14.0938ZM11.123 7.53125C11.123 7.07715 11.0376 6.65234 10.8667 6.25684C10.6958 5.86133 10.4614 5.51221 10.1636 5.20947C9.86572 4.90674 9.51904 4.67236 9.12354 4.50635C8.72803 4.34033 8.30078 4.25488 7.8418 4.25C7.3877 4.25 6.96289 4.33545 6.56738 4.50635C6.17188 4.67725 5.82275 4.91162 5.52002 5.20947C5.21729 5.50732 4.98291 5.854 4.81689 6.24951C4.65088 6.64502 4.56543 7.07227 4.56055 7.53125C4.56055 7.96582 4.60449 8.33936 4.69238 8.65186C4.78027 8.96436 4.89502 9.24268 5.03662 9.48682C5.17822 9.73096 5.32715 9.96045 5.4834 10.1753C5.63965 10.3901 5.78857 10.6147 5.93018 10.8491C6.07178 11.0835 6.18896 11.3472 6.28174 11.6401C6.37451 11.9331 6.42578 12.2822 6.43555 12.6875H9.24805C9.25293 12.2822 9.30176 11.9355 9.39453 11.6475C9.4873 11.3594 9.60449 11.0957 9.74609 10.8564C9.8877 10.6172 10.0366 10.3926 10.1929 10.1826C10.3491 9.97266 10.498 9.74316 10.6396 9.49414C10.7812 9.24512 10.896 8.96436 10.9839 8.65186C11.0718 8.33936 11.1182 7.96582 11.123 7.53125ZM7.8418 2.375C7.71484 2.375 7.60498 2.32861 7.51221 2.23584C7.41943 2.14307 7.37305 2.0332 7.37305 1.90625V0.96875C7.37305 0.841797 7.41943 0.731934 7.51221 0.63916C7.60498 0.546387 7.71484 0.5 7.8418 0.5C7.96875 0.5 8.07861 0.546387 8.17139 0.63916C8.26416 0.731934 8.31055 0.841797 8.31055 0.96875V1.90625C8.31055 2.0332 8.26416 2.14307 8.17139 2.23584C8.07861 2.32861 7.96875 2.375 7.8418 2.375ZM2.2168 7.29688H1.2793C1.15234 7.29688 1.04248 7.25049 0.949707 7.15771C0.856934 7.06494 0.810547 6.95508 0.810547 6.82812C0.810547 6.70117 0.856934 6.59131 0.949707 6.49854C1.04248 6.40576 1.15234 6.35938 1.2793 6.35938H2.2168C2.34375 6.35938 2.45361 6.40576 2.54639 6.49854C2.63916 6.59131 2.68555 6.70117 2.68555 6.82812C2.68555 6.95508 2.63916 7.06494 2.54639 7.15771C2.45361 7.25049 2.34375 7.29688 2.2168 7.29688ZM2.60498 9.2085C2.73193 9.2085 2.8418 9.25488 2.93457 9.34766C3.02734 9.44043 3.07373 9.55273 3.07373 9.68457C3.07373 9.78223 3.04688 9.86768 2.99316 9.94092C2.93945 10.0142 2.86621 10.0728 2.77344 10.1167C2.71973 10.1411 2.64648 10.1729 2.55371 10.2119C2.46094 10.251 2.36084 10.2925 2.25342 10.3364C2.146 10.3804 2.04834 10.417 1.96045 10.4463C1.87256 10.4756 1.79443 10.4927 1.72607 10.4976C1.59912 10.4976 1.48926 10.4512 1.39648 10.3584C1.30371 10.2656 1.25732 10.1533 1.25732 10.0215C1.25732 9.92383 1.28418 9.83838 1.33789 9.76514C1.3916 9.69189 1.46484 9.6333 1.55762 9.58936C1.61133 9.56982 1.68457 9.53809 1.77734 9.49414C1.87012 9.4502 1.97021 9.40869 2.07764 9.36963C2.18506 9.33057 2.28271 9.29395 2.37061 9.25977C2.4585 9.22559 2.53662 9.2085 2.60498 9.2085ZM3.71826 4.48438C3.71826 4.61133 3.67188 4.72119 3.5791 4.81396C3.48633 4.90674 3.37646 4.95312 3.24951 4.95312C3.16162 4.95312 3.08105 4.93115 3.00781 4.88721L2.20947 4.39648C2.14111 4.35254 2.0874 4.29639 2.04834 4.22803C2.00928 4.15967 1.9873 4.08154 1.98242 3.99365C1.98242 3.8667 2.02881 3.75684 2.12158 3.66406C2.21436 3.57129 2.32422 3.5249 2.45117 3.5249C2.5293 3.5249 2.60986 3.54932 2.69287 3.59814L3.49854 4.08154C3.56689 4.12061 3.62061 4.17676 3.65967 4.25C3.69873 4.32324 3.71826 4.40137 3.71826 4.48438ZM4.32617 1.78906C4.32617 1.66211 4.37256 1.55225 4.46533 1.45947C4.55811 1.3667 4.66797 1.32031 4.79492 1.32031C4.87793 1.32031 4.95605 1.34229 5.0293 1.38623C5.10254 1.43018 5.16113 1.48877 5.20508 1.56201L5.65918 2.38232C5.69824 2.45068 5.71777 2.52393 5.71777 2.60205C5.71777 2.73389 5.67139 2.84619 5.57861 2.93896C5.48584 3.03174 5.37598 3.07812 5.24902 3.07812C5.16602 3.07812 5.08789 3.05615 5.01465 3.01221C4.94141 2.96826 4.88281 2.90967 4.83887 2.83643L4.38477 2.01611C4.3457 1.94775 4.32617 1.87207 4.32617 1.78906ZM14.4043 6.35938C14.5312 6.35938 14.6411 6.40576 14.7339 6.49854C14.8267 6.59131 14.873 6.70117 14.873 6.82812C14.873 6.95508 14.8267 7.06494 14.7339 7.15771C14.6411 7.25049 14.5312 7.29688 14.4043 7.29688H13.4668C13.3398 7.29688 13.23 7.25049 13.1372 7.15771C13.0444 7.06494 12.998 6.95508 12.998 6.82812C12.998 6.70117 13.0444 6.59131 13.1372 6.49854C13.23 6.40576 13.3398 6.35938 13.4668 6.35938H14.4043ZM14.4189 10.0288C14.4189 10.1558 14.3726 10.2656 14.2798 10.3584C14.187 10.4512 14.0771 10.4976 13.9502 10.4976C13.8965 10.4976 13.8232 10.4829 13.7305 10.4536C13.6377 10.4243 13.5376 10.3853 13.4302 10.3364C13.3228 10.2876 13.2251 10.2461 13.1372 10.2119C13.0493 10.1777 12.9736 10.1436 12.9102 10.1094C12.8223 10.0703 12.7515 10.0117 12.6978 9.93359C12.644 9.85547 12.6147 9.76758 12.6099 9.66992C12.6099 9.53809 12.6562 9.42822 12.749 9.34033C12.8418 9.25244 12.9541 9.20605 13.0859 9.20117C13.1445 9.20117 13.2202 9.21826 13.313 9.25244C13.4058 9.28662 13.5034 9.32568 13.606 9.36963C13.7085 9.41357 13.8062 9.45752 13.8989 9.50146C13.9917 9.54541 14.0674 9.57715 14.126 9.59668C14.2139 9.63574 14.2847 9.69189 14.3384 9.76514C14.3921 9.83838 14.4189 9.92627 14.4189 10.0288ZM12.4341 4.95312C12.3071 4.95312 12.1973 4.90674 12.1045 4.81396C12.0117 4.72119 11.9653 4.61133 11.9653 4.48438C11.9653 4.40137 11.9849 4.32324 12.0239 4.25C12.063 4.17676 12.1167 4.12061 12.1851 4.08154L12.9907 3.59814C13.0737 3.54932 13.1543 3.5249 13.2324 3.5249C13.3594 3.5249 13.4692 3.57129 13.562 3.66406C13.6548 3.75684 13.7012 3.8667 13.7012 3.99365C13.7012 4.07666 13.6816 4.15234 13.6426 4.2207C13.6035 4.28906 13.5474 4.34766 13.4741 4.39648L12.6758 4.88721C12.6025 4.93115 12.522 4.95312 12.4341 4.95312ZM9.96582 2.60205C9.96582 2.52393 9.98535 2.45068 10.0244 2.38232L10.4785 1.56201C10.5176 1.48877 10.5737 1.43018 10.647 1.38623C10.7202 1.34229 10.8008 1.32031 10.8887 1.32031C11.0156 1.32031 11.1255 1.3667 11.2183 1.45947C11.311 1.55225 11.3574 1.66211 11.3574 1.78906C11.3574 1.87207 11.3379 1.94775 11.2988 2.01611L10.8447 2.83643C10.8057 2.90967 10.7495 2.96826 10.6763 3.01221C10.603 3.05615 10.5225 3.07812 10.4346 3.07812C10.3076 3.07812 10.1978 3.03174 10.105 2.93896C10.0122 2.84619 9.96582 2.73389 9.96582 2.60205Z" fill="currentColor"/>
</g>
<defs>
<clipPath id="clip0_749_6522">
<rect width="15" height="15" fill="white" transform="translate(0.810547 0.5)"/>
</clipPath>
</defs>
</svg>
