<svg width="14" height="19" viewBox="0 0 14 19" fill="none" xmlns="http://www.w3.org/2000/svg">
<rect x="0.925" y="0.925" width="12.15" height="17.15" rx="1.575" stroke="currentColor" stroke-width="0.85"/>
<path d="M3 4H9" stroke="currentColor" stroke-width="0.8" stroke-linecap="round"/>
<circle cx="0.5" cy="0.5" r="0.5" transform="matrix(1 0 0 -1 10.5 4.5)" fill="currentColor"/>
<circle cx="0.5" cy="0.5" r="0.5" transform="matrix(1 0 0 -1 10.5 4.5)" stroke="currentColor"/>
<path d="M3 7H9" stroke="currentColor" stroke-width="0.8" stroke-linecap="round"/>
<circle cx="0.5" cy="0.5" r="0.5" transform="matrix(1 0 0 -1 10.5 7.5)" fill="currentColor"/>
<circle cx="0.5" cy="0.5" r="0.5" transform="matrix(1 0 0 -1 10.5 7.5)" stroke="currentColor"/>
<path d="M3 10H9" stroke="currentColor" stroke-width="0.8" stroke-linecap="round"/>
<circle cx="0.5" cy="0.5" r="0.5" transform="matrix(1 0 0 -1 10.5 10.5)" fill="currentColor"/>
<circle cx="0.5" cy="0.5" r="0.5" transform="matrix(1 0 0 -1 10.5 10.5)" stroke="currentColor"/>
<path d="M4.74064 16.5C4.69598 16.5 4.65538 16.4898 4.61884 16.4695C4.58231 16.4493 4.55389 16.4224 4.53359 16.3889C4.51329 16.3554 4.50217 16.3193 4.50022 16.2804C4.49827 16.2416 4.50939 16.2037 4.53359 16.1667L6.78674 12.6111C6.8111 12.5741 6.8426 12.5463 6.88125 12.5278C6.9199 12.5093 6.95944 12.5 6.99988 12.5C7.04031 12.5 7.07994 12.5093 7.11875 12.5278C7.15756 12.5463 7.18898 12.5741 7.21302 12.6111L9.46617 16.1667C9.49053 16.2037 9.50173 16.2417 9.49978 16.2807C9.49783 16.3196 9.48663 16.3557 9.46617 16.3889C9.44571 16.4221 9.41729 16.449 9.38091 16.4695C9.34454 16.4901 9.30394 16.5003 9.25912 16.5H4.74064ZM6.99988 15.8333C7.06889 15.8333 7.12679 15.812 7.17355 15.7693C7.22032 15.7267 7.24363 15.6739 7.24346 15.6111C7.2433 15.5483 7.21992 15.4956 7.17331 15.4529C7.1267 15.4102 7.06889 15.3889 6.99988 15.3889C6.93086 15.3889 6.87305 15.4102 6.82645 15.4529C6.77984 15.4956 6.75646 15.5483 6.75629 15.6111C6.75613 15.6739 6.77952 15.7267 6.82645 15.7696C6.87338 15.8124 6.93119 15.8336 6.99988 15.8333ZM6.99988 15.1667C7.06889 15.1667 7.12679 15.1453 7.17355 15.1027C7.22032 15.06 7.24363 15.0073 7.24346 14.9444V14.2778C7.24346 14.2148 7.22008 14.1621 7.17331 14.1196C7.12654 14.077 7.06873 14.0557 6.99988 14.0556C6.93103 14.0554 6.87322 14.0767 6.82645 14.1196C6.77968 14.1624 6.75629 14.2151 6.75629 14.2778V14.9444C6.75629 15.0074 6.77968 15.0602 6.82645 15.1029C6.87322 15.1456 6.93103 15.1668 6.99988 15.1667Z" fill="currentColor"/>
</svg>
