<svg xmlns="http://www.w3.org/2000/svg" width="16" height="15" viewBox="0 0 16 15" fill="none">
<path d="M3.2886 10.8047C2.08194 11.1667 1.33594 11.6667 1.33594 12.219C1.33594 13.3237 4.3206 14.219 8.0026 14.219C11.6846 14.219 14.6693 13.3237 14.6693 12.219C14.6693 11.6667 13.9229 11.1667 12.7166 10.8047" stroke="currentColor" stroke-width="1.33333" stroke-linecap="round" stroke-linejoin="round"/>
<path d="M8.0013 11.5521C8.0013 11.5521 12.3346 8.72008 12.3346 5.44608C12.3346 3.11142 10.3946 1.21875 8.0013 1.21875C5.60797 1.21875 3.66797 3.11142 3.66797 5.44608C3.66797 8.72008 8.0013 11.5521 8.0013 11.5521Z" stroke="currentColor" stroke-width="1.33333" stroke-linejoin="round"/>
<path d="M8.0026 7.22005C8.44463 7.22005 8.86855 7.04446 9.18112 6.7319C9.49368 6.41934 9.66927 5.99541 9.66927 5.55339C9.66927 5.11136 9.49368 4.68743 9.18112 4.37487C8.86855 4.06231 8.44463 3.88672 8.0026 3.88672C7.56058 3.88672 7.13665 4.06231 6.82409 4.37487C6.51153 4.68743 6.33594 5.11136 6.33594 5.55339C6.33594 5.99541 6.51153 6.41934 6.82409 6.7319C7.13665 7.04446 7.56058 7.22005 8.0026 7.22005Z" stroke="currentColor" stroke-width="1.33333" stroke-linejoin="round"/>
</svg>