<svg width="23.999999999999996" height="23.999999999999996" xmlns="http://www.w3.org/2000/svg" fill="none">
   <path id="svg_1" fill="currentColor" d="m11.99999,5.0625c-1.91267,0 -3.46875,1.55608 -3.46875,3.46875l0,2.08125l-0.69375,0c-0.76521,0 -1.3875,0.62229 -1.3875,1.3875l0,5.55c0,0.7652 0.62229,1.3875 1.3875,1.3875l8.32501,0c0.7652,0 1.3875,-0.6223 1.3875,-1.3875l0,-5.55c0,-0.76521 -0.6223,-1.3875 -1.3875,-1.3875l-0.69376,0l0,-2.08125c0,-1.91267 -1.55608,-3.46875 -3.46875,-3.46875zm4.16251,6.9375l0.0014,5.55l-8.32641,0l0,-5.55l8.32501,0zm-6.24376,-1.3875l0,-2.08125c0,-1.14746 0.93379,-2.08125 2.08125,-2.08125c1.14746,0 2.08125,0.93379 2.08125,2.08125l0,2.08125l-4.1625,0z"/>
   <path id="svg_2" fill="currentColor" d="m16.1625,12l0.0014,5.55l-8.32641,0l0,-5.55l8.32501,0z"/>
</svg>