<svg width="24" height="24" xmlns="http://www.w3.org/2000/svg" fill="none">
  <path id="svg_1" fill="currentColor" d="m14.97707,8.82292c0.11046,0 0.2,-0.08955 0.2,-0.2l0,-0.43542c0,-1.75184 -1.42524,-2.54167 -3.17708,-2.54167c-1.75185,0 -3.17709,1.42524 -3.17709,3.17709l0,1.90625l-0.63541,0c-0.70087,0 -1.27084,0.56997 -1.27084,1.27083l0,5.08336c0,0.7008 0.56997,1.2708 1.27084,1.2708l7.625,0c0.70087,0 1.27087,-0.57 1.27087,-1.2708l0,-5.08336c0,-0.70086 -0.57,-1.27083 -1.27087,-1.27083l-5.71875,0l0,-1.90625c0,-1.05098 0.85527,-1.90625 1.90625,-1.90625c1.05097,0 1.90625,0.21985 1.90625,1.27083l0,0.43542c0,0.11045 0.08954,0.2 0.2,0.2l0.87083,0zm0.83542,3.17708l0.00127,5.08336l-7.62627,0l0,-5.08336l7.625,0z"/>
</svg>
