<svg width="14" height="15" viewBox="0 0 14 15" fill="none" xmlns="http://www.w3.org/2000/svg">
<g clip-path="url(#clip0_3280_75094)">
<path d="M5.42113 10.7763C5.42113 10.7763 4.96332 11.0425 5.74695 11.1326C6.69631 11.2408 7.18149 11.2253 8.2277 11.0273C8.2277 11.0273 8.50277 11.1998 8.88686 11.3492C6.54161 12.3541 3.57902 11.2909 5.42113 10.7763ZM5.13454 9.46484C5.13454 9.46484 4.62106 9.84489 5.40528 9.92598C6.4194 10.0306 7.22027 10.0391 8.6061 9.77233C8.6061 9.77233 8.79779 9.96662 9.09918 10.0729C6.26359 10.9019 3.10525 10.1383 5.13454 9.46484Z" fill="#5382A1"/>
<path d="M7.55494 7.23994C8.13284 7.90515 7.40312 8.50376 7.40312 8.50376C7.40312 8.50376 8.87043 7.74641 8.19656 6.79799C7.56719 5.9136 7.08451 5.47411 9.69742 3.95898C9.69742 3.95898 5.59604 4.98315 7.55494 7.23991" fill="#E76F00"/>
<path d="M10.656 11.7463C10.656 11.7463 10.9948 12.0253 10.2829 12.2413C8.92914 12.6513 4.6485 12.7751 3.45934 12.2576C3.03188 12.0717 3.83351 11.8137 4.08566 11.7595C4.34862 11.7025 4.49892 11.7131 4.49892 11.7131C4.02353 11.3783 1.4262 12.3706 3.17962 12.6548C7.9614 13.4301 11.8963 12.3056 10.656 11.7463ZM5.64489 8.10596C5.64489 8.10596 3.46753 8.62307 4.87386 8.8108C5.46764 8.89029 6.65135 8.87233 7.75396 8.77994C8.65508 8.70398 9.5599 8.54236 9.5599 8.54236C9.5599 8.54236 9.24216 8.67842 9.01229 8.83536C6.80117 9.4168 2.52968 9.14632 3.75939 8.55155C4.79935 8.04894 5.64493 8.10596 5.64493 8.10596M9.55092 10.2889C11.7987 9.1211 10.7594 7.99886 10.034 8.15007C9.8562 8.18705 9.77694 8.21909 9.77694 8.21909C9.77694 8.21909 9.84295 8.11574 9.969 8.071C11.404 7.56655 12.5077 9.55876 9.50575 10.3478C9.50575 10.3478 9.54054 10.3167 9.55092 10.2889Z" fill="#5382A1"/>
<path d="M8.19272 1.51273C8.19272 1.51273 9.43755 2.75782 7.01206 4.6723C5.0671 6.20809 6.56854 7.08375 7.01126 8.08422C5.87594 7.06006 5.04275 6.15846 5.60174 5.31937C6.42213 4.08756 8.69496 3.49037 8.19272 1.5127" fill="#E76F00"/>
<path d="M5.86172 13.4538C8.01925 13.5919 11.3324 13.3772 11.4108 12.3564C11.4108 12.3564 11.26 12.7434 9.62775 13.0507C7.78626 13.3972 5.51506 13.3567 4.16797 13.1347C4.168 13.1347 4.44373 13.3629 5.86176 13.4538" fill="#5382A1"/>
</g>
<defs>
<clipPath id="clip0_3280_75094">
<rect width="8.88" height="12" fill="white" transform="translate(2.56006 1.5)"/>
</clipPath>
</defs>
</svg>
