<svg width="29" height="21" viewBox="0 0 29 21" fill="none" xmlns="http://www.w3.org/2000/svg">
<g clip-path="url(#clip0_627_62624)">
<path d="M12.3117 2.68387C13.226 1.72898 14.4989 1.13676 15.9067 1.13676C17.7782 1.13676 19.411 2.18276 20.2804 3.73554C21.0581 3.38733 21.9006 3.20785 22.7524 3.20887C26.1278 3.20887 28.8642 5.97554 28.8642 9.38832C28.8642 12.8015 26.1278 15.5683 22.7524 15.5683C22.3481 15.5685 21.9448 15.5282 21.5485 15.448C20.7828 16.817 19.3237 17.7419 17.6489 17.7419C16.9717 17.7427 16.3031 17.5885 15.6944 17.291C14.9182 19.121 13.1097 20.4042 11.002 20.4042C8.80709 20.4042 6.93655 19.0121 6.21845 17.0598C5.90473 17.1266 5.5796 17.1614 5.24605 17.1614C2.6328 17.1614 0.514172 15.0161 0.514172 12.3692C0.51229 11.5304 0.729765 10.7057 1.14492 9.97735C1.56008 9.24901 2.15843 8.64244 2.88033 8.21809C2.58058 7.52645 2.42632 6.78029 2.42716 6.0262C2.42716 2.9822 4.89265 0.514648 7.93379 0.514648C9.71919 0.514648 11.3059 1.36554 12.3118 2.68387" fill="#00A1E0"/>
<path d="M4.62017 10.8282C4.60243 10.8748 4.6266 10.8845 4.63236 10.8927C4.68557 10.9315 4.73967 10.9593 4.79421 10.9905C5.08342 11.1443 5.35634 11.1893 5.6419 11.1893C6.22343 11.1893 6.58448 10.8793 6.58448 10.3801V10.3705C6.58448 9.90901 6.17699 9.74134 5.79454 9.62046L5.74488 9.60412C5.45655 9.51023 5.2078 9.42934 5.2078 9.23901V9.22901C5.2078 9.06623 5.35313 8.94634 5.57849 8.94634C5.82891 8.94634 6.1261 9.02968 6.31755 9.13579C6.31755 9.13579 6.37364 9.17223 6.39426 9.11757C6.40557 9.08846 6.50245 8.82701 6.51265 8.79868C6.52351 8.7679 6.50411 8.74523 6.48438 8.73312C6.26589 8.59979 5.96382 8.50879 5.65121 8.50879L5.59301 8.50923C5.06081 8.50923 4.68923 8.83146 4.68923 9.29334V9.30301C4.68923 9.79001 5.09916 9.94779 5.48316 10.0579L5.54501 10.077C5.82481 10.1631 6.06602 10.2372 6.06602 10.4348V10.4445C6.06602 10.625 5.90928 10.7595 5.65642 10.7595C5.55832 10.7595 5.24538 10.7575 4.90728 10.5432C4.86648 10.5193 4.84265 10.502 4.81117 10.483C4.79454 10.4725 4.75308 10.4541 4.7349 10.5092L4.62017 10.8282ZM13.1337 10.8282C13.1159 10.8748 13.1401 10.8845 13.1459 10.8927C13.1991 10.9315 13.2532 10.9593 13.3077 10.9905C13.5968 11.1443 13.8699 11.1893 14.1554 11.1893C14.7369 11.1893 15.098 10.8793 15.098 10.3801V10.3705C15.098 9.90901 14.6905 9.74134 14.3081 9.62046L14.2584 9.60412C13.9701 9.51023 13.7212 9.42934 13.7212 9.23901V9.22901C13.7212 9.06623 13.8666 8.94634 14.092 8.94634C14.3424 8.94634 14.6396 9.02968 14.8311 9.13579C14.8311 9.13579 14.8872 9.17223 14.9078 9.11757C14.9191 9.08846 15.016 8.82701 15.0261 8.79868C15.037 8.7679 15.0176 8.74523 14.9978 8.73312C14.7794 8.59979 14.4772 8.50879 14.1647 8.50879L14.1065 8.50923C13.5742 8.50923 13.2027 8.83146 13.2027 9.29334V9.30301C13.2027 9.79001 13.6126 9.94779 13.9967 10.0579L14.0584 10.077C14.3383 10.1631 14.5799 10.2372 14.5799 10.4348V10.4445C14.5799 10.625 14.4227 10.7595 14.1699 10.7595C13.9046 10.7614 13.6445 10.6863 13.4208 10.5432C13.38 10.5193 13.3557 10.5028 13.3251 10.483C13.3146 10.4761 13.2653 10.457 13.2483 10.5092L13.1337 10.8282ZM18.9456 9.85057C18.9456 10.1328 18.893 10.355 18.7897 10.512C18.6875 10.6676 18.5329 10.7431 18.3172 10.7431C18.1011 10.7431 17.9473 10.6679 17.8467 10.512C17.7449 10.3553 17.6933 10.1328 17.6933 9.85057C17.6933 9.5689 17.7449 9.34701 17.8467 9.19168C17.9473 9.03779 18.1011 8.9629 18.3172 8.9629C18.5329 8.9629 18.6874 9.03779 18.7901 9.19157C18.8932 9.34712 18.9456 9.5689 18.9456 9.85057ZM19.431 9.32757C19.3834 9.16612 19.3091 9.02368 19.2101 8.90501C19.1111 8.78601 18.9859 8.69057 18.8373 8.6209C18.6891 8.55168 18.5138 8.51646 18.3172 8.51646C18.1201 8.51646 17.9448 8.55168 17.7966 8.6209C17.6481 8.69046 17.5228 8.78601 17.4235 8.90501C17.3249 9.02401 17.2505 9.16657 17.2025 9.32757C17.1553 9.48834 17.1316 9.66401 17.1316 9.85057C17.1316 10.0372 17.1553 10.2133 17.2025 10.3736C17.2507 10.5347 17.3245 10.6771 17.4239 10.7962C17.5253 10.9172 17.6527 11.0135 17.7966 11.0779C17.9451 11.1456 18.1201 11.1799 18.3172 11.1799C18.5138 11.1799 18.6887 11.1455 18.8373 11.0779C18.9812 11.0135 19.1087 10.9172 19.2101 10.7962C19.3091 10.6776 19.3834 10.5351 19.431 10.3736C19.4787 10.2129 19.5025 10.0369 19.5025 9.85057C19.5025 9.66446 19.4787 9.48834 19.431 9.32757ZM23.4172 10.6679C23.4011 10.6206 23.3554 10.6383 23.3554 10.6383C23.2848 10.6655 23.2097 10.6906 23.1297 10.7031C23.0416 10.7162 22.9527 10.7226 22.8636 10.7221C22.6286 10.7221 22.4419 10.6521 22.3082 10.5137C22.1742 10.3752 22.099 10.1515 22.0998 9.84857C22.1007 9.57301 22.167 9.36568 22.286 9.20779C22.4044 9.05079 22.5845 8.97023 22.8248 8.97023C23.0251 8.97023 23.1777 8.99323 23.3377 9.0439C23.3377 9.0439 23.3761 9.06057 23.3942 9.01023C23.4366 8.89212 23.4682 8.80746 23.5134 8.67757C23.5263 8.64068 23.4948 8.6249 23.4835 8.62046C23.4205 8.59579 23.2719 8.55568 23.1596 8.53868C23.0546 8.52257 22.9319 8.51401 22.7953 8.51401C22.5913 8.51401 22.4096 8.54879 22.2541 8.61846C22.099 8.68768 21.9674 8.78323 21.8632 8.90223C21.759 9.02112 21.6799 9.16368 21.627 9.32479C21.5745 9.48546 21.5479 9.66201 21.5479 9.84857C21.5479 10.2521 21.6565 10.5785 21.8709 10.8172C22.0857 11.0569 22.4085 11.1787 22.8292 11.1787C23.078 11.1787 23.3333 11.1281 23.5165 11.0557C23.5165 11.0557 23.5518 11.0387 23.5365 10.9978L23.4172 10.6678V10.6679ZM24.2667 9.58034C24.2896 9.42368 24.3328 9.29334 24.3995 9.19179C24.5 9.03757 24.6534 8.9529 24.8691 8.9529C25.0847 8.9529 25.2273 9.0379 25.3295 9.19179C25.3974 9.29334 25.4268 9.42934 25.4385 9.58034H24.2667ZM25.901 9.2359C25.8597 9.08001 25.7575 8.92257 25.6906 8.85057C25.5847 8.73634 25.4814 8.65657 25.3787 8.61212C25.2298 8.54882 25.0696 8.51632 24.9078 8.51657C24.7027 8.51657 24.5165 8.55101 24.3655 8.62212C24.2141 8.69346 24.0868 8.79057 23.9871 8.91168C23.8873 9.03223 23.8123 9.17601 23.7646 9.33912C23.7165 9.50134 23.6923 9.67834 23.6923 9.8649C23.6923 10.0548 23.7174 10.2316 23.767 10.3907C23.817 10.551 23.8971 10.6923 24.0054 10.8092C24.1131 10.927 24.252 11.0193 24.4184 11.0837C24.5836 11.1477 24.7842 11.1809 25.0148 11.1805C25.4894 11.1788 25.7394 11.0728 25.8423 11.0157C25.8605 11.0057 25.8779 10.9878 25.8561 10.9368L25.7486 10.6352C25.7326 10.5902 25.6869 10.6069 25.6869 10.6069C25.5694 10.6506 25.4022 10.7291 25.0125 10.7283C24.7576 10.7279 24.5686 10.6526 24.4503 10.5348C24.3287 10.4142 24.2694 10.237 24.2589 9.98679L25.9022 9.98834C25.9022 9.98834 25.9454 9.98757 25.9498 9.94546C25.9514 9.92768 26.0064 9.60701 25.901 9.2359ZM11.1065 9.58034C11.1299 9.42368 11.1727 9.29334 11.2394 9.19179C11.34 9.03757 11.4934 8.9529 11.709 8.9529C11.9247 8.9529 12.0673 9.0379 12.1698 9.19179C12.2373 9.29334 12.2668 9.42934 12.2784 9.58034H11.1065ZM12.7405 9.2359C12.6992 9.08001 12.5975 8.92257 12.5304 8.85057C12.4247 8.73634 12.3212 8.65657 12.2187 8.61212C12.0697 8.54882 11.9096 8.51632 11.7478 8.51657C11.543 8.51657 11.3565 8.55101 11.2055 8.62212C11.054 8.69346 10.9268 8.79057 10.827 8.91168C10.7273 9.03223 10.6522 9.17601 10.6046 9.33912C10.5569 9.50134 10.5323 9.67834 10.5323 9.8649C10.5323 10.0548 10.5572 10.2316 10.607 10.3907C10.657 10.551 10.737 10.6923 10.8452 10.8092C10.9531 10.927 11.092 11.0193 11.2584 11.0837C11.4235 11.1477 11.6242 11.1809 11.8548 11.1805C12.3293 11.1788 12.5793 11.0728 12.6823 11.0157C12.7005 11.0057 12.7178 10.9878 12.696 10.9368L12.5891 10.6352C12.5724 10.5902 12.5269 10.6069 12.5269 10.6069C12.4094 10.6506 12.2425 10.7291 11.852 10.7283C11.5976 10.7279 11.4086 10.6526 11.2903 10.5348C11.1687 10.4142 11.1093 10.237 11.0989 9.98679L12.742 9.98834C12.742 9.98834 12.7853 9.98757 12.7897 9.94546C12.7914 9.92768 12.8462 9.60701 12.7405 9.2359ZM7.55467 10.6588C7.49037 10.6075 7.4815 10.5945 7.45978 10.5612C7.42741 10.5107 7.41089 10.4386 7.41089 10.3471C7.41089 10.2022 7.45856 10.0982 7.55744 10.0282C7.55633 10.0286 7.69878 9.90468 8.03411 9.90912C8.26945 9.91246 8.47985 9.94723 8.47985 9.94723V10.6961H8.48029C8.48029 10.6961 8.27144 10.741 8.03644 10.7551C7.70199 10.7753 7.55345 10.6585 7.55467 10.6588ZM8.20848 9.50157C8.14186 9.49668 8.0555 9.49379 7.95208 9.49379C7.81107 9.49379 7.67494 9.51157 7.54746 9.54601C7.42437 9.57802 7.30806 9.63207 7.20415 9.70557C7.10493 9.77651 7.02337 9.86944 6.96582 9.97712C6.90773 10.0857 6.87824 10.2136 6.87824 10.3568C6.87824 10.5026 6.90318 10.6292 6.95329 10.7329C7.00214 10.8354 7.0759 10.9239 7.16779 10.9903C7.25902 11.0571 7.37176 11.1061 7.50257 11.1357C7.63138 11.1652 7.77748 11.1801 7.93744 11.1801C8.10594 11.1801 8.27388 11.1665 8.43661 11.1385C8.57511 11.1145 8.71312 11.0878 8.85054 11.0583C8.90508 11.0453 8.96572 11.0288 8.96572 11.0288C9.00651 11.0187 9.00318 10.9749 9.00318 10.9749L9.00241 9.46879C9.00241 9.13846 8.91439 8.89357 8.74113 8.74179C8.56875 8.59034 8.31468 8.5139 7.98633 8.5139C7.86328 8.5139 7.66486 8.5309 7.54624 8.55479C7.54624 8.55479 7.18708 8.62434 7.03931 8.74012C7.03931 8.74012 7.00705 8.76034 7.02479 8.80568L7.14119 9.11901C7.1556 9.15946 7.19484 9.14568 7.19484 9.14568C7.19484 9.14568 7.20737 9.1409 7.22189 9.13234C7.53804 8.9599 7.93789 8.96523 7.93789 8.96523C8.11558 8.96523 8.25204 9.00079 8.34416 9.07168C8.43384 9.14046 8.4794 9.24446 8.4794 9.4639V9.53346C8.33807 9.51323 8.20848 9.50157 8.20848 9.50157ZM21.4621 8.65279C21.4644 8.6473 21.4657 8.64138 21.4657 8.63539C21.4657 8.62941 21.4646 8.62348 21.4623 8.61796C21.46 8.61244 21.4566 8.60744 21.4523 8.60327C21.448 8.5991 21.4429 8.59583 21.4373 8.59368C21.4095 8.58279 21.2697 8.55323 21.1619 8.54634C20.9556 8.53379 20.8408 8.56857 20.7383 8.61479C20.6365 8.6609 20.5235 8.73534 20.4604 8.82001V8.61957C20.4604 8.59168 20.4407 8.56946 20.4132 8.56946H19.9919C19.9646 8.56946 19.9447 8.59168 19.9447 8.61957V11.0762C19.9447 11.1038 19.9673 11.1265 19.9948 11.1265H20.4265C20.433 11.1264 20.4395 11.1251 20.4456 11.1226C20.4516 11.12 20.4571 11.1163 20.4617 11.1117C20.4663 11.107 20.47 11.1015 20.4724 11.0954C20.4749 11.0893 20.4762 11.0828 20.4761 11.0762V9.8489C20.4761 9.68423 20.4943 9.51979 20.5307 9.41668C20.5662 9.31457 20.6147 9.2329 20.6745 9.17412C20.7315 9.11779 20.8012 9.07589 20.8777 9.0519C20.9539 9.02846 21.0384 9.02079 21.0981 9.02079C21.1842 9.02079 21.2786 9.04301 21.2786 9.04301C21.3101 9.04668 21.3279 9.02723 21.3385 8.99857C21.3666 8.92323 21.4467 8.69768 21.462 8.65279" fill="white"/>
<path d="M17.4099 7.51485C17.3565 7.49869 17.3023 7.4857 17.2474 7.47596C17.1737 7.46384 17.099 7.45819 17.0242 7.45907C16.7269 7.45907 16.4927 7.54319 16.3284 7.70919C16.1647 7.8743 16.0537 8.12574 15.998 8.45641L15.9777 8.56774H15.6046C15.6046 8.56774 15.5594 8.56607 15.5497 8.61552L15.4888 8.95841C15.4843 8.99074 15.4984 9.01141 15.542 9.01141H15.9051L15.5368 11.0725C15.5082 11.2385 15.475 11.375 15.4382 11.4785C15.4023 11.5805 15.3673 11.6571 15.3236 11.713C15.2815 11.7663 15.242 11.8061 15.1733 11.8291C15.1167 11.8482 15.0513 11.8571 14.9798 11.8571C14.9403 11.8571 14.8874 11.8505 14.8483 11.8425C14.8176 11.8365 14.7877 11.8268 14.7594 11.8136C14.7594 11.8136 14.717 11.7975 14.7 11.8401C14.6867 11.8753 14.5897 12.142 14.5781 12.1749C14.5668 12.2076 14.5829 12.2331 14.6035 12.2407C14.6519 12.2577 14.6879 12.2691 14.7537 12.2849C14.845 12.3064 14.9222 12.3075 14.9945 12.3075C15.1455 12.3075 15.2836 12.2861 15.3979 12.2449C15.5126 12.2032 15.6127 12.1306 15.7016 12.0326C15.7973 11.9266 15.8575 11.8157 15.9148 11.664C15.9718 11.5142 16.0206 11.328 16.0593 11.1111L16.4297 9.01141H16.9709C16.9709 9.01141 17.0164 9.01296 17.0257 8.96319L17.0872 8.62074C17.0911 8.58796 17.0775 8.56774 17.0334 8.56774H16.508C16.5108 8.55596 16.5347 8.37063 16.5949 8.19619C16.6207 8.12207 16.6691 8.06174 16.7099 8.02052C16.7484 7.98131 16.7956 7.95186 16.8477 7.93463C16.8998 7.91763 16.9591 7.90952 17.0242 7.90952C17.0734 7.90952 17.1223 7.91519 17.159 7.92285C17.21 7.93385 17.2297 7.93952 17.243 7.94352C17.2968 7.95974 17.304 7.94396 17.3145 7.91796L17.4401 7.57241C17.4531 7.53519 17.4212 7.5193 17.4099 7.51485ZM10.0689 11.0771C10.0689 11.1045 10.0491 11.1269 10.0217 11.1269H9.58595C9.55846 11.1269 9.53906 11.1046 9.53906 11.0771V7.56185C9.53906 7.53441 9.55846 7.51207 9.58595 7.51207H10.0216C10.0491 7.51207 10.0689 7.5343 10.0689 7.56185V11.0771Z" fill="white"/>
</g>
<defs>
<clipPath id="clip0_627_62624">
<rect width="28.3784" height="20" fill="white" transform="translate(0.5 0.5)"/>
</clipPath>
</defs>
</svg>
