<svg width="21" height="21" viewBox="0 0 21 21" fill="none" xmlns="http://www.w3.org/2000/svg">
<g clip-path="url(#clip0_627_62635)">
<path d="M8.23398 1.83298C7.7504 2.19891 7.32113 2.63155 6.95898 3.11798L7.45899 4.06173C7.78333 3.59085 8.14002 3.14311 8.52649 2.72173C8.55399 2.6911 8.56898 2.67673 8.56898 2.67673L8.52649 2.72173C8.15936 3.14878 7.82508 3.60299 7.52648 4.08048C8.17835 4.03409 8.82735 3.95378 9.47086 3.83985C9.5438 3.57986 9.56478 3.30805 9.5326 3.03994C9.50043 2.77184 9.41574 2.5127 9.28336 2.27735C9.28336 2.27735 8.80086 1.49985 8.23398 1.83298Z" fill="url(#paint0_linear_627_62635)"/>
<path d="M6.5543 9.76074L6.35742 9.79512L6.45805 9.77949L6.5543 9.76074Z" fill="#BE202E"/>
<path opacity="0.35" d="M6.5543 9.76074L6.35742 9.79512L6.45805 9.77949L6.5543 9.76074Z" fill="#BE202E"/>
<path d="M6.7207 8.93703L6.75195 8.93266C6.79445 8.92641 6.83633 8.91891 6.87695 8.91016L6.72195 8.93641L6.7207 8.93703Z" fill="#BE202E"/>
<path opacity="0.35" d="M6.7207 8.93703L6.75195 8.93266C6.79445 8.92641 6.83633 8.91891 6.87695 8.91016L6.72195 8.93641L6.7207 8.93703Z" fill="#BE202E"/>
<path d="M5.98523 6.50031C6.13732 6.21615 6.29128 5.93865 6.44711 5.66781C6.60878 5.38698 6.77211 5.1151 6.93711 4.85219L6.96586 4.80531C7.12919 4.54698 7.29378 4.29885 7.45961 4.06094L6.95961 3.11719L6.84586 3.25781C6.70148 3.43781 6.55211 3.63281 6.39836 3.83594C6.03703 4.32056 5.69102 4.81643 5.36086 5.32281C5.21365 5.54795 5.06947 5.77505 4.92836 6.00406L4.91211 6.03031L5.56273 7.31281C5.7019 7.03948 5.84273 6.76865 5.98523 6.50031Z" fill="url(#paint1_linear_627_62635)"/>
<path d="M3.01977 13.7447C2.93352 13.9814 2.84706 14.2229 2.76039 14.4691L2.75664 14.4797L2.71977 14.5841C2.66164 14.7504 2.61039 14.8966 2.49414 15.2397C2.71115 15.3802 2.882 15.5815 2.98539 15.8185C2.9713 15.5427 2.84915 15.2836 2.64539 15.0972C3.0553 15.1636 3.47558 15.1159 3.86019 14.9594C4.24481 14.8028 4.57894 14.5435 4.82602 14.2097C4.86449 14.1468 4.89894 14.0814 4.92914 14.0141C4.82595 14.1417 4.69007 14.2389 4.53597 14.2954C4.38188 14.3519 4.21535 14.3655 4.05414 14.3347C4.58501 14.1388 5.03512 13.7709 5.33289 13.2897C5.40636 13.1704 5.47476 13.048 5.53789 12.9229C5.29672 13.1878 4.9907 13.3853 4.64998 13.496C4.30926 13.6067 3.94558 13.6267 3.59477 13.5541L3.06852 13.6116C3.05039 13.656 3.03602 13.7004 3.01977 13.7447Z" fill="url(#paint2_linear_627_62635)"/>
<path d="M3.26523 12.5662C3.37898 12.272 3.49607 11.9749 3.61648 11.6749C3.73148 11.3874 3.84961 11.0985 3.97086 10.808C4.09211 10.5176 4.21586 10.226 4.34211 9.93305C4.47044 9.6368 4.60148 9.34117 4.73523 9.04617C4.86898 8.75117 5.00336 8.4618 5.13836 8.17805C5.18753 8.07471 5.23711 7.97159 5.28711 7.86867C5.37336 7.69117 5.46023 7.51513 5.54773 7.34055C5.55228 7.33105 5.55707 7.32167 5.56211 7.31242L4.91086 6.0293L4.87898 6.08117C4.72773 6.33117 4.57648 6.58117 4.42836 6.84117C4.28023 7.10117 4.13148 7.36867 3.99086 7.63867C3.86961 7.86659 3.75128 8.09576 3.63586 8.32617L3.56711 8.4668C3.42523 8.75867 3.29711 9.04055 3.18148 9.3118C3.05023 9.61888 2.9344 9.9118 2.83398 10.1905C2.76711 10.3737 2.70898 10.5505 2.65148 10.7199C2.60586 10.8649 2.56273 11.0099 2.52148 11.1574C2.42398 11.4983 2.34065 11.838 2.27148 12.1768L2.92523 13.4674C3.0119 13.2366 3.10065 13.0024 3.19148 12.7649L3.26523 12.5662Z" fill="url(#paint3_linear_627_62635)"/>
<path d="M2.25953 12.2221C2.1774 12.6294 2.12062 13.0415 2.08953 13.4559C2.08953 13.4702 2.08953 13.4846 2.08641 13.499C1.87992 13.2385 1.6253 13.0202 1.33641 12.8559C1.72033 13.3451 1.97251 13.9246 2.06891 14.539C1.7853 14.5641 1.50003 14.5154 1.24078 14.3977C1.4364 14.5978 1.67931 14.7452 1.94703 14.8265C1.58102 14.8964 1.24131 15.0657 0.965156 15.3159C1.32437 15.1346 1.7281 15.0604 2.12828 15.1021C1.64929 16.4745 1.20146 17.8576 0.785156 19.2502C0.847333 19.2325 0.904148 19.1997 0.950507 19.1547C0.996867 19.1096 1.03132 19.0538 1.05078 18.9921C1.13078 18.7234 1.66078 16.9602 2.49203 14.6427L2.56391 14.444L2.58391 14.3884C2.67182 14.1454 2.76286 13.8975 2.85703 13.6446L2.91953 13.4715V13.4684L2.26891 12.1777C2.26578 12.1921 2.26203 12.2071 2.25953 12.2221Z" fill="url(#paint4_linear_627_62635)"/>
<path d="M5.66414 7.4241L5.60789 7.53973L5.43664 7.89598C5.37414 8.02723 5.31164 8.1616 5.24914 8.2991C5.21664 8.36848 5.18664 8.43785 5.15227 8.50848C5.05477 8.72014 4.95602 8.93869 4.85602 9.1641C4.73102 9.4416 4.60602 9.72994 4.48102 10.0291C4.35977 10.3145 4.23685 10.6099 4.11227 10.9154C3.99393 11.207 3.87414 11.5062 3.75289 11.8129C3.64497 12.0883 3.53602 12.371 3.42602 12.661C3.42053 12.675 3.41532 12.6892 3.41039 12.7035C3.30122 12.9922 3.19102 13.2885 3.07977 13.5922L3.07227 13.6129L3.59852 13.5554L3.56727 13.5497C4.33789 13.3929 5.03973 12.9979 5.57352 12.4204C5.83938 12.131 6.07015 11.8113 6.26102 11.4679C6.42691 11.1716 6.57428 10.8654 6.70227 10.551C6.82414 10.256 6.94102 9.93723 7.05352 9.59098C6.89796 9.67033 6.73225 9.72795 6.56102 9.76223C6.52914 9.7691 6.49852 9.77535 6.46352 9.78098C6.42852 9.7866 6.39664 9.79223 6.36289 9.7966C6.91075 9.57144 7.3502 9.14297 7.58914 8.60098C7.37495 8.74701 7.13546 8.85192 6.88289 8.91035C6.84153 8.91947 6.79983 8.92698 6.75789 8.93285L6.72664 8.93723C6.91307 8.86198 7.08926 8.76349 7.25102 8.6441C7.36254 8.56176 7.46314 8.46557 7.55039 8.35785C7.61028 8.28628 7.6652 8.21068 7.71477 8.1316C7.73039 8.1066 7.74602 8.0816 7.76102 8.05535L7.81727 7.9441C7.89914 7.7791 7.96477 7.6316 8.01664 7.50285C8.04289 7.44035 8.06539 7.37785 8.08477 7.32285L8.10727 7.26035C8.12789 7.19785 8.14477 7.14348 8.15789 7.09473C8.1739 7.03818 8.18684 6.9808 8.19664 6.92285C8.17498 6.93995 8.15222 6.95561 8.12852 6.96973C7.9009 7.0903 7.65587 7.17464 7.40227 7.21973L7.88539 7.1666L7.40227 7.21973H7.39102L7.31664 7.2316L7.32977 7.22598L5.67664 7.40723L5.66414 7.4241Z" fill="url(#paint5_linear_627_62635)"/>
<path d="M7.52508 4.08117C7.35975 4.33532 7.19972 4.59288 7.04508 4.85367L7.01758 4.89992C6.86841 5.14992 6.71029 5.42638 6.5432 5.7293C6.39904 5.99013 6.24925 6.27076 6.09383 6.57117C5.958 6.83326 5.81799 7.11159 5.67383 7.40617L7.32695 7.22492C7.6919 7.0809 8.00671 6.83322 8.23258 6.51242C8.2882 6.43242 8.34383 6.34867 8.39945 6.26242C8.56945 5.99742 8.7357 5.70555 8.88445 5.41555C9.0205 5.15232 9.14315 4.8824 9.25195 4.6068C9.30838 4.46371 9.35699 4.31766 9.39758 4.1693C9.42758 4.0543 9.45133 3.94555 9.46945 3.8418C8.82592 3.95525 8.17691 4.03515 7.52508 4.08117Z" fill="url(#paint6_linear_627_62635)"/>
<path d="M6.71875 8.93699L6.75 8.93262L6.71875 8.93699Z" fill="#BE202E"/>
<path opacity="0.35" d="M6.71875 8.93699L6.75 8.93262L6.71875 8.93699Z" fill="#BE202E"/>
<path d="M6.71875 8.93699L6.75 8.93262L6.71875 8.93699Z" fill="url(#paint7_linear_627_62635)"/>
</g>
<defs>
<linearGradient id="paint0_linear_627_62635" x1="5.98465" y1="2.05698" x2="9.64907" y2="1.03998" gradientUnits="userSpaceOnUse">
<stop stop-color="#F69923"/>
<stop offset="0.312" stop-color="#F79A23"/>
<stop offset="0.838" stop-color="#E97826"/>
</linearGradient>
<linearGradient id="paint1_linear_627_62635" x1="-2.04406" y1="18.498" x2="5.41691" y2="2.51976" gradientUnits="userSpaceOnUse">
<stop offset="0.323" stop-color="#9E2064"/>
<stop offset="0.63" stop-color="#C92037"/>
<stop offset="0.751" stop-color="#CD2335"/>
<stop offset="1" stop-color="#E97826"/>
</linearGradient>
<linearGradient id="paint2_linear_627_62635" x1="0.458709" y1="17.3172" x2="4.90462" y2="7.79596" gradientUnits="userSpaceOnUse">
<stop stop-color="#282662"/>
<stop offset="0.095" stop-color="#662E8D"/>
<stop offset="0.788" stop-color="#9F2064"/>
<stop offset="0.949" stop-color="#CD2032"/>
</linearGradient>
<linearGradient id="paint3_linear_627_62635" x1="-1.77569" y1="17.5302" x2="5.68529" y2="1.55197" gradientUnits="userSpaceOnUse">
<stop offset="0.323" stop-color="#9E2064"/>
<stop offset="0.63" stop-color="#C92037"/>
<stop offset="0.751" stop-color="#CD2335"/>
<stop offset="1" stop-color="#E97826"/>
</linearGradient>
<linearGradient id="paint4_linear_627_62635" x1="-1.01494" y1="16.4669" x2="2.90608" y2="8.06979" gradientUnits="userSpaceOnUse">
<stop stop-color="#282662"/>
<stop offset="0.095" stop-color="#662E8D"/>
<stop offset="0.788" stop-color="#9F2064"/>
<stop offset="0.949" stop-color="#CD2032"/>
</linearGradient>
<linearGradient id="paint5_linear_627_62635" x1="-0.119544" y1="18.3033" x2="7.34143" y2="2.32508" gradientUnits="userSpaceOnUse">
<stop offset="0.323" stop-color="#9E2064"/>
<stop offset="0.63" stop-color="#C92037"/>
<stop offset="0.751" stop-color="#CD2335"/>
<stop offset="1" stop-color="#E97826"/>
</linearGradient>
<linearGradient id="paint6_linear_627_62635" x1="-0.664993" y1="19.2562" x2="6.79625" y2="3.27733" gradientUnits="userSpaceOnUse">
<stop offset="0.323" stop-color="#9E2064"/>
<stop offset="0.63" stop-color="#C92037"/>
<stop offset="0.751" stop-color="#CD2335"/>
<stop offset="1" stop-color="#E97826"/>
</linearGradient>
<linearGradient id="paint7_linear_627_62635" x1="0.314156" y1="18.5058" x2="7.77497" y2="2.52744" gradientUnits="userSpaceOnUse">
<stop offset="0.323" stop-color="#9E2064"/>
<stop offset="0.63" stop-color="#C92037"/>
<stop offset="0.751" stop-color="#CD2335"/>
<stop offset="1" stop-color="#E97826"/>
</linearGradient>
<clipPath id="clip0_627_62635">
<rect width="20" height="20" fill="white" transform="translate(0.5 0.5)"/>
</clipPath>
</defs>
</svg>
