<svg width="15" height="17" viewBox="0 0 15 17" fill="none" xmlns="http://www.w3.org/2000/svg">
<g clip-path="url(#clip0_627_62630)">
<path d="M0.612935 12.4966C0.685512 12.6256 0.790364 12.7225 0.919464 12.795L7.13043 16.3765C7.38858 16.5297 7.70313 16.5297 7.9532 16.3765L14.1642 12.795C14.4224 12.6499 14.5756 12.3756 14.5756 12.0771V4.9143C14.5756 4.61585 14.4224 4.34159 14.1642 4.19644L7.9532 0.614969C7.69511 0.461677 7.3805 0.461677 7.13043 0.614969L0.919519 4.19644C0.653237 4.34159 0.5 4.61585 0.5 4.9143V12.0852C0.5 12.2304 0.532275 12.3675 0.612935 12.4966Z" fill="#009639"/>
<path d="M5.54924 11.2301C5.54969 11.3351 5.52933 11.4392 5.48936 11.5362C5.44938 11.6333 5.39058 11.7215 5.31633 11.7958C5.24209 11.87 5.15388 11.9288 5.0568 11.9688C4.95971 12.0088 4.85567 12.0291 4.75067 12.0287C4.64568 12.0291 4.54165 12.0088 4.44456 11.9688C4.34748 11.9288 4.25928 11.87 4.18504 11.7958C4.11081 11.7215 4.05201 11.6333 4.01203 11.5362C3.97206 11.4391 3.95171 11.3351 3.95216 11.2301V5.75317C3.95216 5.32562 4.33126 4.97879 4.85552 4.97879C5.23468 4.97879 5.67834 5.13203 5.94451 5.46275L6.18644 5.75317L9.52593 9.74591V5.76928C9.52548 5.66429 9.54584 5.56024 9.58581 5.46316C9.62579 5.36607 9.68459 5.27786 9.75884 5.20362C9.83308 5.12937 9.92129 5.07057 10.0184 5.03059C10.1155 4.99062 10.2195 4.97027 10.3245 4.97071C10.4295 4.97027 10.5335 4.99063 10.6306 5.03061C10.7277 5.07059 10.8159 5.12939 10.8901 5.20364C10.9644 5.27788 11.0232 5.36609 11.0631 5.46317C11.1031 5.56025 11.1235 5.66429 11.123 5.76928V11.2463C11.123 11.6738 10.7439 12.0206 10.2196 12.0206C9.84049 12.0206 9.39683 11.8674 9.13066 11.5366L5.54924 7.26151V11.2301Z" fill="white"/>
</g>
<defs>
<clipPath id="clip0_627_62630">
<rect width="14.0756" height="16" fill="white" transform="translate(0.5 0.5)"/>
</clipPath>
</defs>
</svg>
