<svg width="21" height="21" viewBox="0 0 21 21" fill="none" xmlns="http://www.w3.org/2000/svg">
<g clip-path="url(#clip0_627_62616)">
<path d="M7.97493 14.0005C11.8659 14.0005 15.0202 12.3411 15.0202 10.2942C15.0202 8.24726 11.8659 6.58789 7.97493 6.58789C4.08395 6.58789 0.929688 8.24726 0.929688 10.2942C0.929688 12.3411 4.08395 14.0005 7.97493 14.0005Z" fill="url(#paint0_radial_627_62616)"/>
<path d="M7.97359 13.7253C11.7125 13.7253 14.7436 12.1892 14.7436 10.2943C14.7436 8.39941 11.7125 6.86328 7.97359 6.86328C4.23463 6.86328 1.20361 8.39941 1.20361 10.2943C1.20361 12.1892 4.23463 13.7253 7.97359 13.7253Z" fill="#6280B6"/>
<path d="M9.34475 11.4013L9.6804 9.6732C9.72822 9.52531 9.73609 9.3674 9.70322 9.21548C9.67034 9.06357 9.59789 8.92304 9.4932 8.80815C9.20099 8.60065 8.84319 8.50673 8.48674 8.54395H7.90651L8.07308 7.68846C8.07612 7.67253 8.0756 7.65613 8.07157 7.64042C8.06754 7.62471 8.06009 7.61009 8.04975 7.59759C8.03942 7.5851 8.02646 7.57503 8.01179 7.56812C7.99712 7.56121 7.9811 7.55763 7.96489 7.55762H7.15972C7.13415 7.55761 7.10938 7.56649 7.08964 7.58274C7.0699 7.59899 7.05643 7.6216 7.05152 7.64669L6.69473 9.48147C6.66727 9.2853 6.58394 9.10117 6.45469 8.95106C6.31078 8.80694 6.13717 8.69594 5.94596 8.62581C5.75475 8.55567 5.55055 8.52808 5.34758 8.54496H3.79662C3.77105 8.54495 3.74628 8.55383 3.72654 8.57008C3.7068 8.58633 3.69333 8.60894 3.68843 8.63403L2.96679 12.3479C2.96376 12.3638 2.96427 12.3802 2.96831 12.3959C2.97234 12.4116 2.97979 12.4262 2.99012 12.4387C3.00045 12.4512 3.01342 12.4613 3.02809 12.4682C3.04276 12.4751 3.05877 12.4787 3.07499 12.4787H3.88167C3.90723 12.4787 3.93201 12.4698 3.95175 12.4536C3.97148 12.4373 3.98496 12.4147 3.98986 12.3896L4.16448 11.4914H4.76836C5.03499 11.4985 5.30112 11.4646 5.55743 11.3907C5.77353 11.3192 5.97116 11.2008 6.13614 11.044C6.27135 10.9208 6.38677 10.7776 6.47834 10.6193L6.33391 11.3615C6.33088 11.3775 6.33139 11.3939 6.33543 11.4096C6.33946 11.4253 6.34691 11.4399 6.35724 11.4524C6.36758 11.4649 6.38054 11.475 6.39521 11.4819C6.40988 11.4888 6.42589 11.4924 6.44211 11.4924H7.24728C7.27285 11.4924 7.29762 11.4835 7.31736 11.4673C7.3371 11.451 7.35057 11.4284 7.35547 11.4033L7.75152 9.36472H8.30205C8.53656 9.36472 8.60399 9.41152 8.62412 9.43165C8.64425 9.45178 8.67444 9.51468 8.6367 9.71799L8.31715 11.361C8.31411 11.377 8.31463 11.3934 8.31866 11.4091C8.32269 11.4248 8.33014 11.4394 8.34048 11.4519C8.35081 11.4644 8.36377 11.4745 8.37844 11.4814C8.39311 11.4883 8.40913 11.4919 8.42534 11.4919H9.24058C9.26566 11.4909 9.28966 11.4814 9.3086 11.4649C9.32754 11.4484 9.3403 11.426 9.34475 11.4013ZM5.62335 9.97514C5.59874 10.1864 5.49845 10.3816 5.34104 10.5247C5.14331 10.6477 4.91145 10.7043 4.67929 10.6862H4.32099L4.58015 9.35214H5.04363C5.38432 9.35214 5.5212 9.42511 5.57655 9.486C5.61878 9.55948 5.6448 9.64114 5.65287 9.72551C5.66094 9.80987 5.65088 9.89499 5.62335 9.97514ZM12.7773 8.95157C12.6334 8.80745 12.4598 8.69645 12.2686 8.62631C12.0774 8.55617 11.8731 8.52858 11.6702 8.54546H10.1147C10.0891 8.54545 10.0644 8.55433 10.0446 8.57058C10.0249 8.58683 10.0114 8.60944 10.0065 8.63453L9.28486 12.3484C9.28183 12.3643 9.28234 12.3807 9.28638 12.3964C9.29041 12.4121 9.29786 12.4267 9.30819 12.4392C9.31852 12.4517 9.33149 12.4618 9.34616 12.4687C9.36083 12.4756 9.37684 12.4792 9.39306 12.4792H10.2023C10.2278 12.4792 10.2526 12.4703 10.2723 12.4541C10.2921 12.4378 10.3055 12.4152 10.3104 12.3901L10.4851 11.4919H11.0889C11.3556 11.499 11.6217 11.4651 11.878 11.3912C12.0941 11.3197 12.2917 11.2013 12.4567 11.0445C12.7393 10.7899 12.9297 10.4489 12.9982 10.0748C13.0524 9.88338 13.0606 9.68191 13.0222 9.48673C12.9838 9.29156 12.8999 9.10821 12.7773 8.95157ZM11.9384 9.97514C11.9138 10.1864 11.8135 10.3816 11.6561 10.5247C11.4579 10.6478 11.2254 10.7042 10.9928 10.6857H10.6355L10.8947 9.35164H11.3582C11.6989 9.35164 11.8357 9.42461 11.8911 9.4855C11.9335 9.55901 11.9596 9.64074 11.9678 9.72519C11.9759 9.80965 11.9659 9.89488 11.9384 9.97514Z" fill="white"/>
<path d="M5.04684 9.24107C5.15542 9.2274 5.26563 9.2354 5.3711 9.26459C5.47656 9.29379 5.5752 9.3436 5.66129 9.41116C5.71684 9.49669 5.75227 9.5937 5.76491 9.6949C5.77754 9.7961 5.76707 9.89885 5.73425 9.99541C5.70549 10.2332 5.59054 10.4522 5.41118 10.6109C5.19486 10.7502 4.93915 10.8155 4.6825 10.7971H4.19034L4.49228 9.24258L5.04684 9.24107ZM3.07568 12.3692H3.88488L4.07661 11.3818H4.76956C5.02462 11.3888 5.27923 11.3564 5.52441 11.2857C5.72562 11.2193 5.90955 11.1089 6.06287 10.9626C6.32824 10.7239 6.50699 10.4039 6.57113 10.0528C6.62191 9.87817 6.63083 9.69404 6.59717 9.51533C6.56351 9.33662 6.48821 9.16836 6.37738 9.02418C6.24375 8.892 6.08289 8.79056 5.90601 8.72694C5.72914 8.66331 5.54052 8.63904 5.35331 8.65581H3.79983L3.07568 12.3692ZM7.16494 7.66797H7.97011L7.77536 8.65531H8.49045C8.81889 8.62094 9.14885 8.70441 9.42143 8.89082C9.51165 8.99337 9.57332 9.11783 9.60026 9.25173C9.6272 9.38563 9.61846 9.52426 9.57492 9.65372L9.23926 11.3818H8.42453L8.74408 9.73877C8.76634 9.67605 8.77427 9.60915 8.76731 9.54298C8.76034 9.4768 8.73865 9.41301 8.70382 9.35631C8.58729 9.27283 8.44335 9.23684 8.30124 9.25566H7.65962L7.24596 11.3833H6.44079L7.16494 7.66797ZM11.3619 9.24107C11.4705 9.2274 11.5807 9.2354 11.6861 9.26459C11.7916 9.29379 11.8902 9.3436 11.9763 9.41116C12.0319 9.49669 12.0673 9.5937 12.08 9.6949C12.0926 9.7961 12.0821 9.89885 12.0493 9.99541C12.0205 10.2332 11.9056 10.4522 11.7262 10.6109C11.5095 10.7505 11.2532 10.8159 10.996 10.7971H10.5039L10.8058 9.24258L11.3619 9.24107ZM9.39073 12.3692H10.1999L10.3917 11.3818H11.0846C11.3397 11.3888 11.5943 11.3564 11.8395 11.2857C12.0407 11.2193 12.2246 11.1089 12.3779 10.9626C12.6433 10.7239 12.822 10.4039 12.8862 10.0528C12.937 9.87817 12.9459 9.69404 12.9122 9.51533C12.8786 9.33662 12.8033 9.16836 12.6924 9.02418C12.5588 8.892 12.3979 8.79056 12.2211 8.72694C12.0442 8.66331 11.8556 8.63904 11.6684 8.65581H10.1124L9.39073 12.3692Z" fill="#000004"/>
</g>
<defs>
<radialGradient id="paint0_radial_627_62616" cx="0" cy="0" r="1" gradientUnits="userSpaceOnUse" gradientTransform="translate(5.15985 7.89126) scale(9.25141)">
<stop stop-color="white"/>
<stop offset="0.5" stop-color="#4C6B96"/>
<stop offset="1" stop-color="#231F20"/>
</radialGradient>
<clipPath id="clip0_627_62616">
<rect width="20" height="20" fill="white" transform="translate(0.5 0.5)"/>
</clipPath>
</defs>
</svg>
