<svg width="16" height="21" viewBox="0 0 16 21" fill="none" xmlns="http://www.w3.org/2000/svg">
<g clip-path="url(#clip0_627_62608)">
<path d="M5.27252 15.9612C5.27252 15.9612 4.50951 16.4048 5.81555 16.5549C7.39783 16.7354 8.20645 16.7096 9.95013 16.3796C9.95013 16.3796 10.4086 16.667 11.0487 16.9159C7.13998 18.5909 2.20233 16.8189 5.27252 15.9612ZM4.79488 13.7754C4.79488 13.7754 3.93908 14.4088 5.2461 14.5439C6.93631 14.7183 8.27108 14.7326 10.5808 14.2879C10.5808 14.2879 10.9003 14.6117 11.4026 14.7888C6.67661 16.1705 1.41273 14.8978 4.79488 13.7754Z" fill="#5382A1"/>
<path d="M8.82188 10.0669C9.78504 11.1756 8.56883 12.1733 8.56883 12.1733C8.56883 12.1733 11.0144 10.911 9.89124 9.33031C8.84229 7.85632 8.03783 7.12384 12.3927 4.59863C12.3927 4.59863 5.55703 6.30557 8.82188 10.0668" fill="#E76F00"/>
<path d="M13.9913 17.5774C13.9913 17.5774 14.5559 18.0426 13.3694 18.4025C11.1132 19.0859 3.97878 19.2922 1.99685 18.4297C1.28442 18.1199 2.62047 17.6898 3.04071 17.5995C3.47899 17.5045 3.72949 17.5222 3.72949 17.5222C2.93717 16.9641 -1.39172 18.618 1.53065 19.0916C9.50027 20.3838 16.0585 18.5097 13.9913 17.5774ZM5.63944 11.5103C5.63944 11.5103 2.01049 12.3721 4.35438 12.685C5.34402 12.8175 7.31687 12.7875 9.15455 12.6336C10.6564 12.507 12.1644 12.2376 12.1644 12.2376C12.1644 12.2376 11.6349 12.4644 11.2518 12.7259C7.56656 13.695 0.447414 13.2442 2.49693 12.2529C4.2302 11.4152 5.6395 11.5103 5.6395 11.5103M12.1495 15.1485C15.8957 13.2022 14.1636 11.3318 12.9546 11.5838C12.6583 11.6454 12.5262 11.6988 12.5262 11.6988C12.5262 11.6988 12.6362 11.5266 12.8463 11.452C15.238 10.6112 17.0774 13.9316 12.0742 15.2466C12.0742 15.2467 12.1322 15.1949 12.1495 15.1485Z" fill="#5382A1"/>
<path d="M9.89102 0.521542C9.89102 0.521542 11.9657 2.59669 7.92326 5.7875C4.68165 8.34715 7.18407 9.80657 7.92193 11.474C6.02972 9.76709 4.64107 8.26443 5.57272 6.86593C6.94004 4.81293 10.7281 3.81761 9.89102 0.521484" fill="#E76F00"/>
<path d="M6.0075 20.4227C9.60338 20.6528 15.1252 20.295 15.256 18.5938C15.256 18.5938 15.0046 19.2387 12.2842 19.7509C9.21505 20.3283 5.42972 20.2609 3.18457 19.8908C3.18463 19.8908 3.64418 20.2711 6.00755 20.4227" fill="#5382A1"/>
</g>
<defs>
<clipPath id="clip0_627_62608">
<rect width="14.8" height="20" fill="white" transform="translate(0.5 0.5)"/>
</clipPath>
</defs>
</svg>
