<svg width="14" height="15" viewBox="0 0 14 15" fill="none" xmlns="http://www.w3.org/2000/svg">
<path d="M9.1033 1.5569C8.7717 1.80783 8.47734 2.1045 8.229 2.43805L8.57187 3.08521C8.79428 2.76232 9.03887 2.45529 9.30388 2.16634C9.32273 2.14534 9.33302 2.13548 9.33302 2.13548L9.30388 2.16634C9.05213 2.45917 8.8229 2.77064 8.61815 3.09806C9.06515 3.06626 9.51019 3.01118 9.95146 2.93306C10.0015 2.75478 10.0159 2.56839 9.9938 2.38454C9.97174 2.2007 9.91366 2.023 9.82288 1.86162C9.82288 1.86162 9.49202 1.32847 9.1033 1.5569Z" fill="url(#paint0_linear_3280_75127)"/>
<path d="M7.95434 6.99414L7.81934 7.01771L7.88834 7.007L7.95434 6.99414Z" fill="#BE202E"/>
<path opacity="0.35" d="M7.95434 6.99414L7.81934 7.01771L7.88834 7.007L7.95434 6.99414Z" fill="#BE202E"/>
<path d="M8.06787 6.42859L8.0893 6.42559C8.11844 6.4213 8.14716 6.41616 8.17502 6.41016L8.06873 6.42816L8.06787 6.42859Z" fill="#BE202E"/>
<path opacity="0.35" d="M8.06787 6.42859L8.0893 6.42559C8.11844 6.4213 8.14716 6.41616 8.17502 6.41016L8.06873 6.42816L8.06787 6.42859Z" fill="#BE202E"/>
<path d="M7.56448 4.75739C7.66877 4.56253 7.77434 4.37224 7.8812 4.18653C7.99206 3.99395 8.10406 3.80752 8.2172 3.62723L8.23692 3.59509C8.34892 3.41794 8.46178 3.2478 8.5755 3.08465L8.23263 2.4375L8.15463 2.53393C8.05563 2.65736 7.9532 2.79108 7.84777 2.93036C7.6 3.26268 7.36273 3.60272 7.13633 3.94995C7.03539 4.10433 6.93652 4.26006 6.83976 4.4171L6.82861 4.4351L7.27476 5.31454C7.37019 5.12711 7.46676 4.94139 7.56448 4.75739Z" fill="url(#paint1_linear_3280_75127)"/>
<path d="M5.52791 9.72569C5.46877 9.88798 5.40948 10.0536 5.35005 10.2224L5.34748 10.2297L5.3222 10.3013C5.28234 10.4153 5.2472 10.5156 5.16748 10.7508C5.31629 10.8472 5.43345 10.9852 5.50434 11.1477C5.49468 10.9586 5.41092 10.7809 5.2712 10.6531C5.55228 10.6986 5.84047 10.6659 6.10422 10.5586C6.36796 10.4512 6.59708 10.2734 6.7665 10.0446C6.79289 10.0014 6.81651 9.95657 6.83722 9.91041C6.76646 9.99791 6.67328 10.0646 6.56761 10.1033C6.46195 10.142 6.34776 10.1513 6.23721 10.1303C6.60124 9.99589 6.90989 9.74366 7.11408 9.41368C7.16446 9.33184 7.21136 9.24791 7.25465 9.16211C7.08928 9.34377 6.87943 9.47922 6.64579 9.55512C6.41215 9.63102 6.16277 9.64476 5.92221 9.59497L5.56134 9.6344C5.54891 9.66483 5.53906 9.69526 5.52791 9.72569Z" fill="url(#paint2_linear_3280_75127)"/>
<path d="M5.69609 8.91609C5.77409 8.71437 5.85437 8.51065 5.93695 8.30493C6.01581 8.10779 6.09681 7.90964 6.17995 7.7105C6.2631 7.51135 6.34795 7.31135 6.43453 7.11049C6.52253 6.90734 6.61239 6.70463 6.7041 6.50234C6.79582 6.30005 6.88796 6.10162 6.98053 5.90704C7.01425 5.83619 7.04825 5.76547 7.08254 5.6949C7.14168 5.57318 7.20125 5.45247 7.26125 5.33275C7.26437 5.32624 7.26765 5.3198 7.27111 5.31346L6.82453 4.43359L6.80267 4.46917C6.69896 4.6406 6.59524 4.81203 6.49367 4.99032C6.3921 5.1686 6.2901 5.35204 6.19367 5.53718C6.11052 5.69347 6.02938 5.85061 5.95023 6.00862L5.90309 6.10505C5.8058 6.30519 5.71794 6.49848 5.63866 6.68448C5.54866 6.89506 5.46923 7.09592 5.40037 7.28706C5.35451 7.41264 5.31465 7.53392 5.27522 7.65007C5.24394 7.7495 5.21437 7.84893 5.18608 7.95007C5.11922 8.18379 5.06208 8.41679 5.01465 8.64908L5.46294 9.5341C5.52237 9.37581 5.58323 9.21523 5.64551 9.05237L5.69609 8.91609Z" fill="url(#paint3_linear_3280_75127)"/>
<path d="M5.0076 8.68082C4.95128 8.96014 4.91234 9.24269 4.89102 9.52683C4.89102 9.53669 4.89102 9.54655 4.88888 9.5564C4.74729 9.37781 4.57269 9.22809 4.37459 9.1154C4.63785 9.4509 4.81078 9.84825 4.87688 10.2696C4.68241 10.2868 4.48679 10.2534 4.30902 10.1727C4.44316 10.3099 4.60972 10.411 4.79331 10.4667C4.54232 10.5146 4.30938 10.6307 4.12001 10.8023C4.36634 10.678 4.64318 10.6271 4.9176 10.6557C4.58914 11.5968 4.28205 12.5452 3.99658 13.5002C4.03922 13.488 4.07818 13.4655 4.10997 13.4346C4.14176 13.4037 4.16538 13.3654 4.17873 13.3232C4.23359 13.1389 4.59702 11.9299 5.16703 10.3407L5.21631 10.2044L5.23003 10.1663C5.29032 9.9997 5.35274 9.82969 5.41732 9.65626L5.46017 9.53755V9.5354L5.01403 8.65039C5.01188 8.66025 5.00931 8.67053 5.0076 8.68082Z" fill="url(#paint4_linear_3280_75127)"/>
<path d="M7.34274 5.39059L7.30417 5.46988L7.18674 5.71417C7.14388 5.80417 7.10102 5.89632 7.05817 5.9906C7.03588 6.03817 7.01531 6.08575 6.99174 6.13418C6.92488 6.27932 6.85716 6.42918 6.78859 6.58375C6.70287 6.77404 6.61716 6.97176 6.53144 7.17691C6.4483 7.37262 6.36401 7.5752 6.27858 7.78463C6.19744 7.98463 6.11529 8.18978 6.03215 8.40007C5.95815 8.58893 5.88343 8.78279 5.808 8.98165C5.80424 8.99129 5.80067 9.00101 5.79729 9.01079C5.72243 9.20879 5.64686 9.41194 5.57057 9.62023L5.56543 9.63437L5.92629 9.59494L5.90486 9.59108C6.4333 9.48358 6.91457 9.21266 7.2806 8.81664C7.46291 8.61825 7.62115 8.39901 7.75203 8.16349C7.86579 7.96037 7.96684 7.7504 8.05461 7.53477C8.13818 7.33248 8.21833 7.1139 8.29547 6.87647C8.1888 6.93089 8.07517 6.9704 7.95775 6.9939C7.93589 6.99862 7.91489 7.0029 7.89089 7.00676C7.86689 7.01062 7.84503 7.01447 7.82189 7.01747C8.19757 6.86308 8.49891 6.56926 8.66276 6.19761C8.51588 6.29774 8.35166 6.36968 8.17847 6.40975C8.15011 6.41601 8.12151 6.42115 8.09275 6.42518L8.07132 6.42818C8.19916 6.37658 8.31998 6.30905 8.4309 6.22718C8.50737 6.17072 8.57636 6.10476 8.63619 6.03089C8.67726 5.98181 8.71492 5.92997 8.7489 5.87574C8.75962 5.8586 8.77033 5.84146 8.78062 5.82346L8.81919 5.74717C8.87534 5.63403 8.92034 5.53288 8.95591 5.4446C8.97391 5.40174 8.98934 5.35888 9.00262 5.32116L9.01805 5.27831C9.03219 5.23545 9.04377 5.19816 9.05277 5.16473C9.06374 5.12596 9.07261 5.08661 9.07934 5.04688C9.06449 5.0586 9.04888 5.06934 9.03262 5.07902C8.87654 5.1617 8.70852 5.21954 8.53462 5.25045L8.86591 5.21402L8.53462 5.25045H8.5269L8.4759 5.25859L8.4849 5.25474L7.35131 5.37902L7.34274 5.39059Z" fill="url(#paint5_linear_3280_75127)"/>
<path d="M8.61808 3.09872C8.50471 3.27299 8.39497 3.44961 8.28893 3.62844L8.27007 3.66015C8.16779 3.83158 8.05936 4.02116 7.94478 4.22887C7.84593 4.40773 7.74321 4.60017 7.63664 4.80617C7.54349 4.98589 7.44749 5.17675 7.34863 5.37875L8.48222 5.25446C8.73247 5.1557 8.94835 4.98586 9.10323 4.76588C9.14137 4.71102 9.17952 4.65359 9.21766 4.59445C9.33423 4.41273 9.44824 4.21259 9.55024 4.01373C9.64352 3.83323 9.72763 3.64814 9.80224 3.45915C9.84093 3.36103 9.87427 3.26088 9.9021 3.15914C9.92267 3.08029 9.93896 3.00571 9.95138 2.93457C9.5101 3.01236 9.06506 3.06715 8.61808 3.09872Z" fill="url(#paint6_linear_3280_75127)"/>
<path d="M8.06445 6.42878L8.08588 6.42578L8.06445 6.42878Z" fill="#BE202E"/>
<path opacity="0.35" d="M8.06445 6.42878L8.08588 6.42578L8.06445 6.42878Z" fill="#BE202E"/>
<path d="M8.06445 6.42878L8.08588 6.42578L8.06445 6.42878Z" fill="url(#paint7_linear_3280_75127)"/>
<defs>
<linearGradient id="paint0_linear_3280_75127" x1="7.56088" y1="1.7105" x2="10.0737" y2="1.01312" gradientUnits="userSpaceOnUse">
<stop stop-color="#F69923"/>
<stop offset="0.312" stop-color="#F79A23"/>
<stop offset="0.838" stop-color="#E97826"/>
</linearGradient>
<linearGradient id="paint1_linear_3280_75127" x1="2.0586" y1="12.9845" x2="7.17477" y2="2.02783" gradientUnits="userSpaceOnUse">
<stop offset="0.323" stop-color="#9E2064"/>
<stop offset="0.63" stop-color="#C92037"/>
<stop offset="0.751" stop-color="#CD2335"/>
<stop offset="1" stop-color="#E97826"/>
</linearGradient>
<linearGradient id="paint2_linear_3280_75127" x1="3.77174" y1="12.1754" x2="6.8204" y2="5.64647" gradientUnits="userSpaceOnUse">
<stop stop-color="#282662"/>
<stop offset="0.095" stop-color="#662E8D"/>
<stop offset="0.788" stop-color="#9F2064"/>
<stop offset="0.949" stop-color="#CD2032"/>
</linearGradient>
<linearGradient id="paint3_linear_3280_75127" x1="2.2394" y1="12.3201" x2="7.35557" y2="1.36338" gradientUnits="userSpaceOnUse">
<stop offset="0.323" stop-color="#9E2064"/>
<stop offset="0.63" stop-color="#C92037"/>
<stop offset="0.751" stop-color="#CD2335"/>
<stop offset="1" stop-color="#E97826"/>
</linearGradient>
<linearGradient id="paint4_linear_3280_75127" x1="2.76222" y1="11.5916" x2="5.45095" y2="5.83347" gradientUnits="userSpaceOnUse">
<stop stop-color="#282662"/>
<stop offset="0.095" stop-color="#662E8D"/>
<stop offset="0.788" stop-color="#9F2064"/>
<stop offset="0.949" stop-color="#CD2032"/>
</linearGradient>
<linearGradient id="paint5_linear_3280_75127" x1="3.37673" y1="12.8508" x2="8.4929" y2="1.89407" gradientUnits="userSpaceOnUse">
<stop offset="0.323" stop-color="#9E2064"/>
<stop offset="0.63" stop-color="#C92037"/>
<stop offset="0.751" stop-color="#CD2335"/>
<stop offset="1" stop-color="#E97826"/>
</linearGradient>
<linearGradient id="paint6_linear_3280_75127" x1="3.00195" y1="13.5046" x2="8.1183" y2="2.5475" gradientUnits="userSpaceOnUse">
<stop offset="0.323" stop-color="#9E2064"/>
<stop offset="0.63" stop-color="#C92037"/>
<stop offset="0.751" stop-color="#CD2335"/>
<stop offset="1" stop-color="#E97826"/>
</linearGradient>
<linearGradient id="paint7_linear_3280_75127" x1="3.67267" y1="12.9903" x2="8.78873" y2="2.03359" gradientUnits="userSpaceOnUse">
<stop offset="0.323" stop-color="#9E2064"/>
<stop offset="0.63" stop-color="#C92037"/>
<stop offset="0.751" stop-color="#CD2335"/>
<stop offset="1" stop-color="#E97826"/>
</linearGradient>
</defs>
</svg>
