<svg width="14" height="15" viewBox="0 0 14 15" fill="none" xmlns="http://www.w3.org/2000/svg">
<g clip-path="url(#clip0_3280_75120)">
<path d="M5.99503 4.19461C6.38165 3.79083 6.91992 3.54041 7.51518 3.54041C8.30657 3.54041 8.99699 3.98272 9.36464 4.63932C9.69352 4.49208 10.0497 4.41618 10.4099 4.41661C11.8372 4.41661 12.9944 5.58652 12.9944 7.02964C12.9944 8.47294 11.8372 9.64289 10.4099 9.64289C10.239 9.64299 10.0685 9.62594 9.90089 9.59201C9.57707 10.1709 8.9601 10.562 8.25192 10.562C7.96552 10.5624 7.68283 10.4971 7.42542 10.3713C7.0972 11.1452 6.33248 11.6878 5.4412 11.6878C4.51307 11.6878 3.7221 11.0991 3.41845 10.2736C3.28579 10.3018 3.14831 10.3166 3.00726 10.3166C1.90223 10.3166 1.00635 9.40938 1.00635 8.29013C1.00556 7.93542 1.09752 7.5867 1.27307 7.27871C1.44862 6.97073 1.70164 6.71424 2.0069 6.5348C1.88015 6.24233 1.81492 5.92681 1.81527 5.60794C1.81527 4.32077 2.85782 3.27734 4.14379 3.27734C4.89876 3.27734 5.56973 3.63715 5.99507 4.19461" fill="#00A1E0"/>
<path d="M2.74636 7.639C2.73886 7.65868 2.74908 7.66277 2.75151 7.66625C2.77401 7.68265 2.79689 7.69444 2.81995 7.70759C2.94225 7.77267 3.05765 7.7917 3.1784 7.7917C3.42431 7.7917 3.57698 7.66061 3.57698 7.44951V7.44542C3.57698 7.2503 3.40467 7.1794 3.24295 7.12828L3.22195 7.12137C3.10003 7.08167 2.99484 7.04747 2.99484 6.96698V6.96275C2.99484 6.89392 3.05629 6.84323 3.15159 6.84323C3.25748 6.84323 3.38315 6.87846 3.46411 6.92333C3.46411 6.92333 3.48783 6.93875 3.49654 6.91563C3.50133 6.90332 3.54229 6.79277 3.54661 6.78078C3.5512 6.76777 3.543 6.75819 3.53465 6.75306C3.44226 6.69668 3.31453 6.6582 3.18234 6.6582L3.15773 6.65839C2.93269 6.65839 2.77556 6.79464 2.77556 6.98996V6.99405C2.77556 7.19998 2.9489 7.26669 3.11128 7.31326L3.13744 7.32134C3.25575 7.35775 3.35775 7.38909 3.35775 7.47263V7.47671C3.35775 7.55306 3.29147 7.60991 3.18454 7.60991C3.14306 7.60991 3.01073 7.60907 2.86776 7.51848C2.85051 7.50838 2.84044 7.50105 2.82712 7.49302C2.82009 7.48855 2.80256 7.4808 2.79487 7.50411L2.74636 7.639ZM6.34636 7.639C6.33886 7.65868 6.34908 7.66277 6.35151 7.66625C6.37401 7.68265 6.39689 7.69444 6.41995 7.70759C6.5422 7.77267 6.65765 7.7917 6.7784 7.7917C7.02431 7.7917 7.17698 7.66061 7.17698 7.44951V7.44542C7.17698 7.2503 7.00467 7.1794 6.84295 7.12828L6.82195 7.12137C6.70003 7.08167 6.59479 7.04747 6.59479 6.96698V6.96275C6.59479 6.89392 6.65629 6.84323 6.75159 6.84323C6.85748 6.84323 6.98315 6.87846 7.06411 6.92333C7.06411 6.92333 7.08783 6.93875 7.09654 6.91563C7.10133 6.90332 7.14229 6.79277 7.14656 6.78078C7.1512 6.76777 7.143 6.75819 7.13461 6.75306C7.04226 6.69668 6.91448 6.6582 6.78234 6.6582L6.75773 6.65839C6.53264 6.65839 6.37556 6.79464 6.37556 6.98996V6.99405C6.37556 7.19998 6.54886 7.26669 6.71128 7.31326L6.73739 7.32134C6.85575 7.35775 6.95789 7.38909 6.95789 7.47263V7.47671C6.95789 7.55306 6.89142 7.60991 6.78454 7.60991C6.67236 7.61072 6.56234 7.57896 6.46776 7.51848C6.45051 7.50838 6.44025 7.50138 6.42731 7.49302C6.42286 7.4901 6.402 7.48202 6.39483 7.50411L6.34636 7.639ZM8.80397 7.22558C8.80397 7.34492 8.78175 7.43889 8.73806 7.50528C8.69484 7.57106 8.62945 7.60301 8.53823 7.60301C8.44687 7.60301 8.38181 7.5712 8.33929 7.50528C8.29626 7.43903 8.27442 7.34492 8.27442 7.22558C8.27442 7.10648 8.29626 7.01265 8.33929 6.94697C8.38181 6.88189 8.44687 6.85023 8.53823 6.85023C8.62945 6.85023 8.69479 6.88189 8.7382 6.94692C8.78179 7.0127 8.80397 7.10648 8.80397 7.22558ZM9.00923 7.00443C8.98908 6.93616 8.95767 6.87593 8.91581 6.82575C8.87395 6.77543 8.82103 6.73507 8.75817 6.70561C8.6955 6.67634 8.62139 6.66145 8.53823 6.66145C8.45489 6.66145 8.38078 6.67634 8.31811 6.70561C8.25529 6.73502 8.20233 6.77543 8.16033 6.82575C8.11865 6.87607 8.0872 6.93635 8.0669 7.00443C8.04694 7.07241 8.0369 7.1467 8.0369 7.22558C8.0369 7.30452 8.04694 7.37899 8.0669 7.44674C8.08725 7.51486 8.11847 7.5751 8.16051 7.62547C8.20338 7.6766 8.25726 7.71733 8.31811 7.74457C8.38092 7.77318 8.45489 7.7877 8.53823 7.7877C8.62139 7.7877 8.69536 7.77314 8.75817 7.74457C8.81903 7.71733 8.87293 7.67661 8.91581 7.62547C8.95767 7.57529 8.98908 7.51505 9.00923 7.44674C9.02939 7.3788 9.03947 7.30438 9.03947 7.22558C9.03947 7.14688 9.02939 7.07241 9.00923 7.00443ZM10.6948 7.5712C10.688 7.55118 10.6687 7.5587 10.6687 7.5587C10.6388 7.57017 10.6071 7.58078 10.5733 7.58609C10.536 7.59163 10.4984 7.59432 10.4607 7.59413C10.3613 7.59413 10.2824 7.56453 10.2259 7.50598C10.1692 7.44744 10.1374 7.35282 10.1377 7.22474C10.1381 7.10822 10.1662 7.02054 10.2165 6.95378C10.2666 6.88739 10.3427 6.85333 10.4443 6.85333C10.529 6.85333 10.5936 6.86305 10.6612 6.88448C10.6612 6.88448 10.6774 6.89153 10.6851 6.87024C10.703 6.8203 10.7164 6.7845 10.7355 6.72957C10.7409 6.71397 10.7276 6.7073 10.7228 6.70542C10.6962 6.69499 10.6334 6.67803 10.5859 6.67084C10.5415 6.66403 10.4896 6.66041 10.4318 6.66041C10.3456 6.66041 10.2688 6.67512 10.203 6.70458C10.1374 6.73385 10.0818 6.77425 10.0377 6.82457C9.99365 6.87485 9.96019 6.93513 9.93783 7.00325C9.91561 7.07119 9.90436 7.14585 9.90436 7.22474C9.90436 7.39538 9.95029 7.53338 10.041 7.63435C10.1318 7.73569 10.2683 7.78718 10.4462 7.78718C10.5514 7.78718 10.6593 7.76581 10.7368 7.73517C10.7368 7.73517 10.7517 7.72798 10.7452 7.71069L10.6948 7.57115V7.5712ZM11.054 7.11132C11.0637 7.04507 11.082 6.98996 11.1102 6.94701C11.1527 6.8818 11.2176 6.846 11.3088 6.846C11.4 6.846 11.4602 6.88194 11.5035 6.94701C11.5321 6.98996 11.5446 7.04747 11.5495 7.11132H11.054ZM11.7451 6.96567C11.7277 6.89975 11.6844 6.83317 11.6561 6.80273C11.6114 6.75443 11.5677 6.72069 11.5243 6.7019C11.4613 6.67513 11.3935 6.66139 11.3251 6.66149C11.2384 6.66149 11.1597 6.67606 11.0958 6.70613C11.0318 6.73629 10.978 6.77735 10.9358 6.82857C10.8936 6.87955 10.8619 6.94034 10.8417 7.00932C10.8214 7.07791 10.8112 7.15276 10.8112 7.23164C10.8112 7.31194 10.8217 7.38669 10.8427 7.45397C10.8639 7.52177 10.8977 7.58154 10.9435 7.63096C10.9891 7.68077 11.0478 7.71981 11.1182 7.74701C11.188 7.77408 11.2729 7.78812 11.3704 7.78794C11.571 7.78723 11.6768 7.74241 11.7203 7.71826C11.728 7.71403 11.7353 7.70647 11.7261 7.6849L11.6807 7.55739C11.6739 7.53836 11.6546 7.5454 11.6546 7.5454C11.6049 7.56387 11.5342 7.59709 11.3694 7.59676C11.2616 7.59657 11.1817 7.56471 11.1317 7.51491C11.0803 7.46393 11.0552 7.38899 11.0507 7.28319L11.7456 7.28384C11.7456 7.28384 11.7639 7.28351 11.7658 7.26571C11.7664 7.25819 11.7897 7.12259 11.7451 6.96567ZM5.48915 7.11132C5.49904 7.04507 5.51714 6.98996 5.54536 6.94701C5.58787 6.8818 5.65275 6.846 5.74392 6.846C5.83514 6.846 5.89542 6.88194 5.93878 6.94701C5.96733 6.98996 5.97979 7.04747 5.98472 7.11132H5.48915ZM6.18009 6.96567C6.16265 6.89975 6.11962 6.83317 6.09126 6.80273C6.04654 6.75443 6.00281 6.72069 5.95945 6.7019C5.89647 6.67513 5.82874 6.66139 5.76033 6.66149C5.67375 6.66149 5.59486 6.67606 5.53101 6.70613C5.46693 6.73629 5.41317 6.77735 5.37098 6.82857C5.32879 6.87955 5.29706 6.94034 5.2769 7.00932C5.25675 7.07791 5.24634 7.15276 5.24634 7.23164C5.24634 7.31194 5.25689 7.38669 5.27794 7.45397C5.29908 7.52177 5.33292 7.58154 5.37867 7.63096C5.42428 7.68077 5.48301 7.71981 5.55337 7.74701C5.62322 7.77408 5.70806 7.78812 5.80556 7.78794C6.00623 7.78723 6.11194 7.74241 6.15548 7.71826C6.16317 7.71403 6.17048 7.70647 6.16129 7.6849L6.11606 7.55739C6.10903 7.53836 6.08976 7.5454 6.08976 7.5454C6.04008 7.56387 5.96953 7.59709 5.80439 7.59676C5.69681 7.59657 5.61689 7.56471 5.56687 7.51491C5.51545 7.46393 5.49033 7.38899 5.48592 7.28319L6.18075 7.28384C6.18075 7.28384 6.19903 7.28351 6.2009 7.26571C6.20161 7.25819 6.22481 7.12259 6.18009 6.96567ZM3.98723 7.56735C3.96004 7.54564 3.95629 7.54014 3.94711 7.52609C3.93342 7.50472 3.92644 7.47422 3.92644 7.43556C3.92644 7.37429 3.94659 7.33031 3.9884 7.30071C3.98794 7.30085 4.04817 7.24846 4.18997 7.25034C4.28948 7.25175 4.37845 7.26646 4.37845 7.26646V7.58313H4.37864C4.37864 7.58313 4.29033 7.60211 4.19095 7.60808C4.04953 7.61663 3.98672 7.56721 3.98723 7.56735ZM4.2637 7.07801C4.23553 7.07594 4.19901 7.07472 4.15528 7.07472C4.09565 7.07472 4.03809 7.08223 3.98419 7.0968C3.93213 7.11033 3.88295 7.13319 3.83901 7.16427C3.79706 7.19427 3.76257 7.23356 3.73823 7.2791C3.71367 7.325 3.7012 7.37908 3.7012 7.43964C3.7012 7.50129 3.71175 7.55485 3.73294 7.59868C3.75359 7.64202 3.78478 7.67945 3.82364 7.70755C3.86222 7.73578 3.90989 7.7565 3.9652 7.769C4.01967 7.7815 4.08145 7.7878 4.14909 7.7878C4.22034 7.7878 4.29136 7.78202 4.36017 7.77018C4.41873 7.76007 4.47709 7.74877 4.5352 7.7363C4.55826 7.7308 4.5839 7.7238 4.5839 7.7238C4.60115 7.71953 4.59975 7.70102 4.59975 7.70102L4.59942 7.06415C4.59942 6.92446 4.5622 6.82091 4.48894 6.75673C4.41604 6.69269 4.30861 6.66036 4.16976 6.66036C4.11773 6.66036 4.03383 6.66755 3.98367 6.67765C3.98367 6.67765 3.83179 6.70707 3.76931 6.75602C3.76931 6.75602 3.75567 6.76458 3.76317 6.78374L3.81239 6.91624C3.81848 6.93334 3.83508 6.92752 3.83508 6.92752C3.83508 6.92752 3.84037 6.9255 3.84651 6.92188C3.9802 6.84896 4.14928 6.85121 4.14928 6.85121C4.22442 6.85121 4.28212 6.86625 4.32108 6.89622C4.359 6.92531 4.37826 6.96929 4.37826 7.06208V7.09149C4.3185 7.08294 4.2637 7.07801 4.2637 7.07801ZM9.86808 6.71909C9.86908 6.71677 9.8696 6.71427 9.86962 6.71174C9.86963 6.70921 9.86914 6.7067 9.86816 6.70437C9.86718 6.70203 9.86575 6.69992 9.86394 6.69815C9.86213 6.69639 9.85998 6.69501 9.85762 6.6941C9.84586 6.68949 9.78675 6.677 9.74114 6.67408C9.6539 6.66877 9.60539 6.68348 9.56203 6.70303C9.519 6.72252 9.47118 6.754 9.44451 6.78981V6.70505C9.44451 6.69325 9.43617 6.68386 9.42454 6.68386H9.24642C9.23484 6.68386 9.22645 6.69325 9.22645 6.70505V7.74387C9.22645 7.75552 9.23601 7.7651 9.24764 7.7651H9.43017C9.43294 7.76509 9.43568 7.76453 9.43823 7.76346C9.44079 7.76238 9.44311 7.76082 9.44506 7.75884C9.44701 7.75687 9.44855 7.75453 9.4496 7.75196C9.45065 7.74939 9.45118 7.74664 9.45117 7.74387V7.22488C9.45117 7.15525 9.45886 7.08571 9.47423 7.04211C9.48923 6.99893 9.50976 6.9644 9.53503 6.93954C9.55917 6.91572 9.58862 6.89801 9.62095 6.88786C9.6532 6.87795 9.68892 6.87471 9.71419 6.87471C9.75056 6.87471 9.7905 6.8841 9.7905 6.8841C9.80381 6.88565 9.81136 6.87743 9.81581 6.86531C9.82772 6.83345 9.86156 6.73808 9.86803 6.71909" fill="white"/>
<path d="M8.15341 6.23749C8.13087 6.23066 8.10794 6.22517 8.08474 6.22105C8.05354 6.21592 8.02195 6.21353 7.99034 6.21391C7.86462 6.21391 7.76557 6.24947 7.6961 6.31967C7.62691 6.38948 7.57995 6.49581 7.55641 6.63563L7.54784 6.68271H7.39005C7.39005 6.68271 7.37093 6.68201 7.36685 6.70292L7.34107 6.84791C7.3392 6.86158 7.34515 6.87032 7.36357 6.87032H7.51713L7.36137 7.74188C7.34927 7.81207 7.33526 7.86977 7.31969 7.91356C7.30451 7.95669 7.2897 7.98906 7.27123 8.01269C7.25341 8.03525 7.23673 8.05207 7.20766 8.06179C7.18376 8.06987 7.1561 8.07363 7.12587 8.07363C7.10913 8.07363 7.08677 8.07086 7.07023 8.06748C7.05725 8.06493 7.04463 8.06083 7.03263 8.05526C7.03263 8.05526 7.01473 8.04845 7.00755 8.06644C7.00193 8.08134 6.96091 8.1941 6.95599 8.20801C6.95121 8.22187 6.95801 8.23263 6.96673 8.23587C6.98721 8.24306 7.0024 8.24785 7.03024 8.25452C7.06887 8.26363 7.10149 8.2641 7.13205 8.2641C7.1959 8.2641 7.2543 8.25504 7.30263 8.23761C7.35115 8.21999 7.39348 8.18931 7.43107 8.14787C7.47152 8.10304 7.49698 8.05615 7.52121 7.99197C7.54531 7.92864 7.56598 7.84989 7.58234 7.75818L7.73895 6.87032H7.96779C7.96779 6.87032 7.98705 6.87098 7.99099 6.84993L8.01696 6.70512C8.01865 6.69126 8.01288 6.68271 7.99423 6.68271H7.77204C7.77326 6.67773 7.78334 6.59936 7.80879 6.5256C7.81971 6.49426 7.8402 6.46875 7.85745 6.45132C7.87371 6.43474 7.89368 6.42228 7.91571 6.415C7.93774 6.40781 7.96282 6.40438 7.99034 6.40438C8.01115 6.40438 8.03182 6.40678 8.04734 6.41002C8.0689 6.41467 8.07724 6.41706 8.08287 6.41876C8.1056 6.42562 8.10865 6.41894 8.1131 6.40795L8.16621 6.26183C8.1717 6.24609 8.1582 6.23937 8.15341 6.23749ZM5.04926 7.7438C5.04926 7.75541 5.04087 7.76485 5.02929 7.76485H4.84502C4.8334 7.76485 4.8252 7.75545 4.8252 7.7438V6.25737C4.8252 6.24576 4.8334 6.23632 4.84502 6.23632H5.02924C5.04087 6.23632 5.04926 6.24571 5.04926 6.25737V7.7438Z" fill="white"/>
</g>
<defs>
<clipPath id="clip0_3280_75120">
<rect width="12" height="8.45714" fill="white" transform="translate(1 3.27148)"/>
</clipPath>
</defs>
</svg>
