<svg width="14" height="15" viewBox="0 0 14 15" fill="none" xmlns="http://www.w3.org/2000/svg">
<g clip-path="url(#clip0_3280_75088)">
<path d="M1.80638 10.4974C1.86081 10.5942 1.93945 10.6668 2.03628 10.7213L6.6945 13.4073C6.88811 13.5223 7.12403 13.5223 7.31158 13.4073L11.9698 10.7213C12.1635 10.6124 12.2784 10.4067 12.2784 10.1828V4.81072C12.2784 4.58689 12.1635 4.3812 11.9698 4.27233L7.31158 1.58623C7.11801 1.47126 6.88205 1.47126 6.6945 1.58623L2.03632 4.27233C1.83661 4.3812 1.72168 4.58689 1.72168 4.81072V10.1889C1.72168 10.2978 1.74589 10.4007 1.80638 10.4974Z" fill="#009639"/>
<path d="M5.50885 9.5471C5.50919 9.62585 5.49392 9.70388 5.46394 9.77669C5.43396 9.84951 5.38986 9.91567 5.33418 9.97135C5.27849 10.027 5.21234 10.0711 5.13952 10.1011C5.0667 10.1311 4.98867 10.1464 4.90993 10.146C4.83119 10.1464 4.75316 10.1311 4.68035 10.1011C4.60754 10.0711 4.54138 10.027 4.48571 9.97133C4.43003 9.91565 4.38593 9.8495 4.35595 9.77668C4.32597 9.70387 4.31071 9.62584 4.31104 9.5471V5.43939C4.31104 5.11873 4.59537 4.85861 4.98857 4.85861C5.27294 4.85861 5.60568 4.97353 5.80531 5.22158L5.98675 5.43939L8.49137 8.43395V5.45147C8.49104 5.37273 8.5063 5.29469 8.53628 5.22188C8.56626 5.14906 8.61037 5.08291 8.66605 5.02722C8.72173 4.97154 8.78789 4.92744 8.86071 4.89746C8.93352 4.86748 9.01155 4.85221 9.0903 4.85254C9.16904 4.85222 9.24707 4.86749 9.31988 4.89747C9.39269 4.92745 9.45884 4.97156 9.51452 5.02724C9.5702 5.08292 9.6143 5.14908 9.64428 5.22189C9.67425 5.2947 9.68952 5.37273 9.68919 5.45147V9.55922C9.68919 9.87984 9.40486 10.14 9.01166 10.14C8.72729 10.14 8.39455 10.025 8.19492 9.777L5.50885 6.57065V9.5471Z" fill="white"/>
</g>
<defs>
<clipPath id="clip0_3280_75088">
<rect width="10.5567" height="12" fill="white" transform="translate(1.72168 1.5)"/>
</clipPath>
</defs>
</svg>
