<svg width="14" height="15" viewBox="0 0 14 15" fill="none" xmlns="http://www.w3.org/2000/svg">
<path d="M7 10.6566C10.3137 10.6566 13 9.24343 13 7.50018C13 5.75693 10.3137 4.34375 7 4.34375C3.68629 4.34375 1 5.75693 1 7.50018C1 9.24343 3.68629 10.6566 7 10.6566Z" fill="url(#paint0_radial_3280_75112)"/>
<path d="M6.99848 10.4221C10.1827 10.4221 12.7641 9.1139 12.7641 7.50013C12.7641 5.88635 10.1827 4.57812 6.99848 4.57812C3.81424 4.57812 1.23291 5.88635 1.23291 7.50013C1.23291 9.1139 3.81424 10.4221 6.99848 10.4221Z" fill="#6280B6"/>
<path d="M8.16628 8.44335L8.45214 6.97164C8.49287 6.84568 8.49957 6.7112 8.47157 6.58182C8.44357 6.45245 8.38187 6.33277 8.29271 6.23492C8.04385 6.05821 7.73914 5.97822 7.43557 6.00992H6.94143L7.08328 5.28135C7.08587 5.26778 7.08543 5.25382 7.082 5.24044C7.07856 5.22706 7.07222 5.21461 7.06342 5.20397C7.05462 5.19332 7.04358 5.18476 7.03108 5.17887C7.01859 5.17299 7.00495 5.16993 6.99114 5.16992H6.30543C6.28365 5.16992 6.26256 5.17748 6.24575 5.19132C6.22894 5.20516 6.21746 5.22441 6.21328 5.24578L5.90943 6.80835C5.88604 6.64128 5.81508 6.48447 5.705 6.35664C5.58244 6.2339 5.43459 6.13937 5.27175 6.07963C5.10891 6.0199 4.935 5.9964 4.76214 6.01078H3.44128C3.41951 6.01077 3.39841 6.01834 3.3816 6.03218C3.36479 6.04601 3.35332 6.06527 3.34914 6.08664L2.73457 9.24949C2.73198 9.26306 2.73242 9.27703 2.73586 9.2904C2.73929 9.30378 2.74564 9.31623 2.75444 9.32688C2.76324 9.33752 2.77428 9.34609 2.78677 9.35197C2.79926 9.35786 2.8129 9.36091 2.82671 9.36092H3.51371C3.53549 9.36093 3.55658 9.35336 3.57339 9.33953C3.5902 9.32569 3.60168 9.30643 3.60586 9.28506L3.75457 8.52006H4.26886C4.49593 8.52613 4.72258 8.49722 4.94086 8.43435C5.1249 8.37346 5.2932 8.27262 5.43371 8.13906C5.54886 8.03418 5.64715 7.91217 5.72514 7.77735L5.60214 8.40949C5.59956 8.42306 5.6 8.43703 5.60343 8.4504C5.60686 8.46378 5.61321 8.47623 5.62201 8.48688C5.63081 8.49752 5.64185 8.50609 5.65434 8.51197C5.66684 8.51786 5.68047 8.52091 5.69428 8.52092H6.38C6.40177 8.52093 6.42287 8.51336 6.43968 8.49953C6.45649 8.48569 6.46797 8.46643 6.47214 8.44506L6.80943 6.70892H7.27828C7.478 6.70892 7.53543 6.74878 7.55257 6.76592C7.56971 6.78306 7.59543 6.83664 7.56328 7.00978L7.29114 8.40907C7.28856 8.42263 7.289 8.4366 7.29243 8.44998C7.29586 8.46335 7.30221 8.47581 7.31101 8.48645C7.31981 8.49709 7.33085 8.50566 7.34334 8.51154C7.35584 8.51743 7.36947 8.52048 7.38328 8.52049H8.07757C8.09893 8.51966 8.11937 8.51156 8.1355 8.49753C8.15163 8.4835 8.16249 8.46439 8.16628 8.44335ZM4.997 7.22878C4.97604 7.40871 4.89063 7.57495 4.75657 7.69678C4.58817 7.80153 4.39072 7.84973 4.193 7.83435H3.88786L4.10857 6.69821H4.50328C4.79343 6.69821 4.91 6.76035 4.95714 6.81221C4.9931 6.87479 5.01526 6.94433 5.02214 7.01618C5.02901 7.08803 5.02044 7.16052 4.997 7.22878ZM11.0896 6.35706C10.967 6.23433 10.8192 6.13979 10.6563 6.08006C10.4935 6.02033 10.3196 5.99683 10.1467 6.01121H8.822C8.80022 6.0112 8.77913 6.01876 8.76232 6.0326C8.74551 6.04644 8.73403 6.0657 8.72986 6.08706L8.11528 9.24992C8.1127 9.26349 8.11314 9.27746 8.11657 9.29083C8.12001 9.30421 8.12635 9.31666 8.13515 9.32731C8.14395 9.33795 8.15499 9.34652 8.16749 9.3524C8.17998 9.35829 8.19362 9.36134 8.20743 9.36135H8.89657C8.91834 9.36136 8.93944 9.35379 8.95625 9.33995C8.97306 9.32612 8.98454 9.30686 8.98871 9.28549L9.13743 8.52049H9.65171C9.87878 8.52656 10.1054 8.49765 10.3237 8.43478C10.5078 8.37389 10.6761 8.27305 10.8166 8.13949C11.0572 7.92263 11.2193 7.63226 11.2777 7.31364C11.3238 7.15063 11.3308 6.97905 11.2981 6.81283C11.2654 6.64662 11.194 6.49046 11.0896 6.35706ZM10.3751 7.22878C10.3542 7.40871 10.2688 7.57495 10.1347 7.69678C9.9659 7.80164 9.76796 7.8497 9.56986 7.83392H9.26557L9.48628 6.69778H9.881C10.1711 6.69778 10.2877 6.75992 10.3349 6.81178C10.3709 6.87438 10.3932 6.94399 10.4002 7.01592C10.4071 7.08784 10.3986 7.16042 10.3751 7.22878Z" fill="white"/>
<path d="M4.50635 6.60339C4.59882 6.59175 4.69268 6.59855 4.7825 6.62342C4.87232 6.64828 4.95632 6.69071 5.02964 6.74824C5.07695 6.82108 5.10712 6.9037 5.11788 6.98989C5.12865 7.07607 5.11972 7.16358 5.09178 7.24581C5.06728 7.44831 4.96939 7.63479 4.81664 7.76996C4.63241 7.88862 4.41464 7.94426 4.19607 7.92853H3.77692L4.03407 6.60467L4.50635 6.60339ZM2.82764 9.26739H3.51678L3.68007 8.42653H4.27021C4.48743 8.43246 4.70426 8.40485 4.91307 8.34467C5.08443 8.28809 5.24107 8.19411 5.37164 8.06953C5.59764 7.86622 5.74987 7.59372 5.80449 7.29467C5.84774 7.14596 5.85534 6.98915 5.82667 6.83696C5.79801 6.68476 5.73388 6.54146 5.63949 6.41867C5.52568 6.3061 5.38869 6.21971 5.23806 6.16553C5.08743 6.11135 4.92679 6.09068 4.76735 6.10496H3.44435L2.82764 9.26739ZM6.31021 5.26367H6.99592L6.83007 6.10453H7.43907C7.71877 6.07526 7.99978 6.14634 8.23192 6.3051C8.30876 6.39243 8.36128 6.49843 8.38422 6.61247C8.40716 6.7265 8.39972 6.84456 8.36264 6.95481L8.07678 8.42653H7.38292L7.65507 7.02724C7.67402 6.97383 7.68078 6.91686 7.67485 6.8605C7.66891 6.80414 7.65044 6.74982 7.62078 6.70153C7.52154 6.63043 7.39895 6.59979 7.27792 6.61582H6.73149L6.37921 8.42782H5.69349L6.31021 5.26367ZM9.88449 6.60339C9.97696 6.59175 10.0708 6.59855 10.1606 6.62342C10.2505 6.64828 10.3345 6.69071 10.4078 6.74824C10.4551 6.82108 10.4853 6.9037 10.496 6.98989C10.5068 7.07607 10.4979 7.16358 10.4699 7.24581C10.4454 7.44831 10.3475 7.63479 10.1948 7.76996C10.0102 7.88889 9.79192 7.94455 9.57292 7.92853H9.15378L9.41092 6.60467L9.88449 6.60339ZM8.20578 9.26739H8.89492L9.05821 8.42653H9.64835C9.86557 8.43246 10.0824 8.40485 10.2912 8.34467C10.4626 8.28809 10.6192 8.19411 10.7498 8.06953C10.9758 7.86622 11.128 7.59372 11.1826 7.29467C11.2259 7.14596 11.2335 6.98915 11.2048 6.83696C11.1762 6.68476 11.112 6.54146 11.0176 6.41867C10.9038 6.3061 10.7668 6.21971 10.6162 6.16553C10.4656 6.11135 10.3049 6.09068 10.1455 6.10496H8.82035L8.20578 9.26739Z" fill="#000004"/>
<defs>
<radialGradient id="paint0_radial_3280_75112" cx="0" cy="0" r="1" gradientUnits="userSpaceOnUse" gradientTransform="translate(4.60257 5.45375) scale(7.87886)">
<stop stop-color="white"/>
<stop offset="0.5" stop-color="#4C6B96"/>
<stop offset="1" stop-color="#231F20"/>
</radialGradient>
</defs>
</svg>
