<svg width="24" height="24" viewBox="0 0 24 24" fill="none" xmlns="http://www.w3.org/2000/svg">
<path d="M20.27 7.79572L16.66 9.67172L12.268 11.9077C12.186 11.9534 12.0938 11.9774 12 11.9774C11.9061 11.9774 11.8139 11.9534 11.732 11.9077L7.34097 9.67172L3.72997 7.79572C3.63197 7.74613 3.54965 7.67035 3.49214 7.57678C3.43462 7.48322 3.40417 7.37555 3.40417 7.26572C3.40417 7.1559 3.43462 7.04822 3.49214 6.95466C3.54965 6.8611 3.63197 6.78531 3.72997 6.73572L11.744 2.81072C11.8234 2.77079 11.9111 2.75 12 2.75C12.0889 2.75 12.1765 2.77079 12.256 2.81072L20.27 6.73572C20.368 6.78531 20.4503 6.8611 20.5078 6.95466C20.5653 7.04822 20.5958 7.1559 20.5958 7.26572C20.5958 7.37555 20.5653 7.48322 20.5078 7.57678C20.4503 7.67035 20.368 7.74613 20.27 7.79572Z" stroke="currentColor" stroke-width="1.5" stroke-linecap="round" stroke-linejoin="round"/>
<path d="M7.33997 9.67188L3.72997 11.3949C3.63197 11.4445 3.54965 11.5203 3.49214 11.6138C3.43462 11.7074 3.40417 11.815 3.40417 11.9249C3.40417 12.0347 3.43462 12.1424 3.49214 12.2359C3.54965 12.3295 3.63197 12.4053 3.72997 12.4549L7.33997 14.3309L11.732 16.5669C11.8139 16.6126 11.9061 16.6366 12 16.6366C12.0938 16.6366 12.186 16.6126 12.268 16.5669L16.659 14.3309L20.27 12.4559C20.3569 12.4028 20.4287 12.3283 20.4785 12.2396C20.5283 12.1508 20.5545 12.0507 20.5545 11.9489C20.5545 11.8471 20.5283 11.747 20.4785 11.6582C20.4287 11.5694 20.3569 11.4949 20.27 11.4419L16.66 9.67188" stroke="currentColor" stroke-width="1.5" stroke-linecap="round" stroke-linejoin="round"/>
<path d="M7.33997 14.3301L3.72997 16.0551C3.63197 16.1047 3.54965 16.1805 3.49214 16.274C3.43462 16.3676 3.40417 16.4753 3.40417 16.5851C3.40417 16.6949 3.43462 16.8026 3.49214 16.8961C3.54965 16.9897 3.63197 17.0655 3.72997 17.1151L11.732 21.1801C11.8139 21.2258 11.9061 21.2498 12 21.2498C12.0938 21.2498 12.186 21.2258 12.268 21.1801L20.27 17.1151C20.3569 17.062 20.4287 16.9875 20.4785 16.8988C20.5283 16.81 20.5545 16.7099 20.5545 16.6081C20.5545 16.5063 20.5283 16.4062 20.4785 16.3174C20.4287 16.2286 20.3569 16.1541 20.27 16.1011L16.66 14.3311" stroke="currentColor" stroke-width="1.5" stroke-linecap="round" stroke-linejoin="round"/>
</svg>
