<svg width="22" height="22" viewBox="0 0 22 22" fill="none" xmlns="http://www.w3.org/2000/svg">
<path d="M14.0004 8.09281C13.9105 8.09237 13.8196 8.09633 13.7276 8.10447C12.7062 8.09941 11.7637 8.62631 11.1316 9.40467H14.5766C14.5637 8.98157 14.5342 8.55914 14.4882 8.13835C14.3272 8.10923 14.164 8.094 14.0004 8.09281V8.09281ZM15.5167 8.53501C15.5387 8.82145 15.5556 9.11097 15.5635 9.40467H16.4587C16.1978 9.05795 15.8801 8.75941 15.5167 8.53501ZM10.5557 10.3947C10.4852 10.5811 10.4315 10.7735 10.3953 10.9695V12.3225C10.4771 12.7685 10.6613 13.1695 10.9167 13.518C12.0237 13.5814 13.0771 13.7468 14.0477 14.0003C14.3498 12.9121 14.5381 11.6903 14.5766 10.3947H10.5557V10.3947ZM10.3953 12.3228C10.3871 12.2779 10.3825 12.2317 10.3764 12.1861C10.3825 12.2317 10.3871 12.2779 10.3953 12.3225V12.3228ZM15.564 10.3947C15.5257 11.7851 15.3281 13.1007 14.9977 14.2852C15.2142 14.3596 15.4285 14.4401 15.6405 14.5265C15.8727 14.3828 16.0834 14.2068 16.2662 14.004C17.3191 13.0637 17.4599 11.6201 17.0004 10.3947H15.564V10.3947ZM10.3429 11.3928C10.3407 11.4324 10.3403 11.472 10.3398 11.5118C10.3405 11.4722 10.3405 11.4324 10.3429 11.393V11.3928ZM12.3964 14.6717C12.8184 14.8531 13.2688 14.9595 13.7274 14.9859C13.7325 14.9727 13.7377 14.9603 13.7426 14.9471C13.2984 14.8341 12.8491 14.7421 12.3962 14.6717H12.3964Z" fill="currentColor"/>
<path d="M14.5484 6.04893C13.1356 5.85753 11.6499 6.20337 10.43 7.13243C7.99019 8.99012 7.51565 12.493 9.37355 14.9328C11.1127 17.2164 14.2884 17.767 16.6886 16.3049L17.1468 16.9068C17.1022 17.0106 17.0812 17.1134 17.0852 17.2081C17.0893 17.3029 17.1182 17.3873 17.1701 17.4555L20.4966 21.8236C20.5916 21.9485 20.7575 22.0113 20.9577 21.9983C21.1579 21.9854 21.376 21.8977 21.564 21.7545C21.6571 21.6836 21.7401 21.6012 21.8081 21.5121C21.8762 21.4229 21.9279 21.3287 21.9605 21.2348C21.9931 21.1409 22.0058 21.0492 21.9979 20.965C21.9901 20.8807 21.9618 20.8055 21.9147 20.7436L18.5883 16.3755C18.5363 16.3074 18.4626 16.257 18.3724 16.228C18.2821 16.1989 18.1774 16.1918 18.0655 16.2072L17.6071 15.6051C19.6553 13.6801 19.9692 10.4725 18.2303 8.18888C17.3013 6.96875 15.9612 6.24033 14.5484 6.04893V6.04893ZM14.3834 7.26707C14.9472 7.34319 15.4904 7.53001 15.9817 7.81681C16.473 8.1036 16.9028 8.4847 17.2463 8.9382C17.5919 9.39004 17.8448 9.90569 17.9906 10.4556C18.1364 11.0054 18.1722 11.5787 18.0958 12.1424C18.0195 12.7061 17.8325 13.2492 17.5457 13.7405C17.2589 14.2317 16.8779 14.6615 16.4246 15.0051C15.9727 15.3507 15.4571 15.6037 14.9073 15.7494C14.3574 15.8952 13.7842 15.9309 13.2205 15.8546C12.6568 15.7782 12.1137 15.5913 11.6225 15.3045C11.1312 15.0177 10.7015 14.6368 10.3578 14.1834C10.0122 13.7316 9.7593 13.216 9.61351 12.6662C9.46772 12.1163 9.43197 11.5431 9.50829 10.9794C9.58462 10.4157 9.77153 9.87268 10.0583 9.38141C10.3451 8.89015 10.726 8.46036 11.1793 8.11672C11.631 7.77088 12.1466 7.51777 12.6965 7.37195C13.2464 7.22614 13.8197 7.1905 14.3834 7.26707V7.26707Z" fill="currentColor"/>
<path d="M9.90002 0C4.43829 0 0 4.43829 0 9.90002C0 15.3617 4.43829 19.8 9.90002 19.8C12.2809 19.8 14.4666 18.9566 16.1751 17.5527C15.3584 17.9012 14.4833 18.0405 13.6125 18C13.3963 18.0992 13.1769 18.1932 12.9516 18.275C13.0401 18.1775 13.1261 18.0748 13.2108 17.9696C12.8314 17.9276 12.4563 17.8531 12.0897 17.747C11.5617 18.2884 10.9866 18.6332 10.395 18.7568V17.0023C10.0432 16.7879 9.71183 16.5416 9.40502 16.2666V18.7568C8.39521 18.5456 7.43381 17.6953 6.67173 16.3115C6.44469 15.8988 6.23899 15.4412 6.05793 14.9475C6.72276 14.7783 7.39854 14.6556 8.08039 14.5801C7.96422 14.3617 7.86257 14.136 7.77613 13.9042C7.73719 13.814 7.70331 13.723 7.66943 13.6319C7.02336 13.7143 6.38313 13.8375 5.75257 14.0006C5.45051 12.9125 5.26219 11.6906 5.22369 10.395H7.45757C7.52843 10.058 7.6253 9.72704 7.74731 9.40502H5.22391C5.26219 8.10877 5.45051 6.88667 5.75301 5.79811C6.87479 6.09027 8.10701 6.26561 9.40502 6.30147V6.87677C10.4637 5.84563 11.8479 5.16583 13.3782 5.12183C14.0835 5.09521 14.793 5.15637 15.4753 5.34095C15.9264 5.16802 16.3653 4.96494 16.7891 4.73309C16.8784 4.68381 16.9647 4.63189 17.0509 4.58041C17.5827 5.29523 18.0039 6.08595 18.3005 6.92605C18.9418 7.58011 19.4419 8.37827 19.7739 9.24222C19.434 4.08695 15.1402 0 9.90002 0ZM9.40502 1.04324V5.31345C8.21041 5.27825 7.07961 5.11457 6.05771 4.85255C6.23899 4.35887 6.44469 3.90127 6.67173 3.48855C7.43381 2.10474 8.39543 1.25444 9.40502 1.04324ZM10.395 1.04324C11.4048 1.25444 12.3662 2.10474 13.1283 3.48855C13.3553 3.90127 13.561 4.35887 13.7421 4.85255C12.7202 5.11457 11.5896 5.27803 10.395 5.31345V1.04324ZM6.84839 1.52504C6.46141 1.95184 6.11139 2.45322 5.80427 3.01093C5.54159 3.48789 5.30839 4.01061 5.10555 4.56941C4.51441 4.36745 3.97079 4.13095 3.48855 3.86541C3.45555 3.84737 3.42475 3.82889 3.39241 3.81041C4.34869 2.78748 5.53273 2.0045 6.84839 1.52504V1.52504ZM12.9516 1.52504C14.2674 2.00447 15.4515 2.78745 16.4078 3.81041C16.3753 3.82889 16.3445 3.84737 16.3115 3.86541C15.829 4.13117 15.2854 4.36789 14.694 4.56963C14.4916 4.01083 14.2584 3.48789 13.9958 3.01093C13.6886 2.45322 13.3386 1.95184 12.9516 1.52504V1.52504ZM2.74912 4.58041C2.83536 4.63189 2.9216 4.68381 3.01093 4.73309C3.55345 5.03185 4.15427 5.29343 4.80129 5.51387C4.46997 6.69835 4.27109 8.01395 4.23281 9.40502H1.00408C1.09777 7.66002 1.70485 5.98158 2.74912 4.58041V4.58041ZM1.00408 10.395H4.23281C4.27109 11.7859 4.46997 13.1015 4.80129 14.2859C4.15449 14.5066 3.55345 14.7682 3.01093 15.0669C2.9228 15.1162 2.83552 15.167 2.74912 15.2192C1.70485 13.8182 1.09776 12.1399 1.00408 10.395V10.395ZM5.10555 15.2306C5.30839 15.7894 5.54159 16.3122 5.80427 16.7891C6.11139 17.3468 6.46141 17.8482 6.84839 18.275C5.53265 17.7956 4.34853 17.0126 3.39219 15.9896C3.42475 15.9711 3.45555 15.9527 3.48855 15.9346C3.97079 15.6691 4.51441 15.4326 5.10555 15.2306V15.2306Z" fill="currentColor"/>
</svg>
