<svg width="160" height="160" viewBox="0 0 160 160" fill="none" xmlns="http://www.w3.org/2000/svg">
<path d="M102.685 102.672L92.5845 92.5735M55.8779 25.5065C57.7751 25.5002 59.6639 25.76 61.4904 26.2795C63.2358 26.7657 64.9003 27.5158 66.4234 28.5008C67.9091 29.4587 69.2182 30.6701 70.2925 32.0769C71.3668 33.5211 72.1605 35.1564 72.6302 36.8935C73.1767 38.9506 73.2951 41.0992 72.9813 43.2062C72.6967 44.9392 72.0941 46.6036 71.2048 48.1164C70.4214 49.4483 69.4718 50.6743 68.3746 51.7631C67.5289 52.6068 66.6228 53.3881 65.6628 54.1008C64.5241 54.9403 63.4499 55.8629 62.4483 56.8603C60.9958 57.9346 59.9382 59.4597 59.4437 61.1968C59.1631 62.213 59.0468 63.2083 58.8951 63.9086C58.4027 66.5683 56.1148 68.5195 53.4114 68.5839C50.4109 68.5714 47.9735 66.161 47.9299 63.1605C47.9922 60.0311 48.7487 56.9537 50.1388 54.1485C51.8988 51.6613 54.0327 49.4608 56.4618 47.6239L57.8062 46.4561C58.4026 45.9802 58.9574 45.4566 59.4665 44.8893C59.9984 44.3096 60.4432 43.6551 60.7881 42.9486C61.131 42.2816 61.2265 41.5169 61.0561 40.7854C60.7922 39.8857 60.2831 39.0753 59.5849 38.4478C59.1506 38.0239 58.6208 37.7122 58.0411 37.5356C57.3533 37.3402 56.6405 37.2467 55.9257 37.255C54.2676 37.2696 52.6489 37.7475 51.2484 38.6348C49.852 39.4659 48.6136 40.5382 47.5912 41.8036C46.519 43.2333 44.8524 44.0935 43.0654 44.1413C40.0109 44.1351 37.5319 41.6665 37.5132 38.6119C37.5299 37.2405 38.0411 35.921 38.9512 34.8945C39.4062 34.346 39.851 33.7247 40.3891 33.1283C41.5819 31.7922 42.9096 30.5807 44.3517 29.5168C45.9143 28.3324 47.639 27.3808 49.4717 26.6888C51.5205 25.9158 53.6899 25.521 55.8779 25.519V25.5065ZM53.7751 74.8509C57.4801 74.8447 60.4888 77.8431 60.495 81.548C60.5013 85.255 57.5029 88.2639 53.798 88.2701C50.091 88.2764 47.0822 85.2779 47.0759 81.573C47.0759 81.5646 47.0759 81.5563 47.0759 81.548C47.0697 77.8556 50.0577 74.8571 53.7502 74.8509C53.7585 74.8509 53.7668 74.8509 53.7751 74.8509ZM107.77 97.6228L156.142 145.995C157.484 147.333 158.241 149.151 158.247 151.046C158.234 154.998 155.034 158.198 151.082 158.211C149.187 158.205 147.369 157.448 146.031 156.108L97.6587 107.734L107.77 97.6228ZM54.7559 1.78906C25.4967 1.80777 1.79381 25.5439 1.81251 54.8031C1.83121 84.0623 25.5673 107.765 54.8265 107.746C84.0858 107.726 107.789 83.9917 107.77 54.7324C107.77 54.7283 107.77 54.7242 107.77 54.72C107.764 25.4816 84.0546 1.78283 54.8141 1.78906C54.7954 1.78906 54.7767 1.78906 54.7559 1.78906Z" stroke="url(#paint0_linear_1605_92368)" stroke-width="3.50697" stroke-linecap="round" stroke-linejoin="round"/>
<defs>
<linearGradient id="paint0_linear_1605_92368" x1="47.9985" y1="125.409" x2="125.409" y2="47.9875" gradientUnits="userSpaceOnUse">
<stop stop-color="#C6192E"/>
<stop offset="0.1" stop-color="#C6192E"/>
<stop offset="0.11" stop-color="#C31B30"/>
<stop offset="0.47" stop-color="#765167"/>
<stop offset="0.72" stop-color="#46738A"/>
<stop offset="0.85" stop-color="#348097"/>
<stop offset="1" stop-color="#348097"/>
</linearGradient>
</defs>
</svg>
