<svg width="21" height="20" viewBox="0 0 21 20" fill="none" xmlns="http://www.w3.org/2000/svg">
<path d="M10.25 18.75C12.5706 18.75 14.7962 17.8281 16.4372 16.1872C18.0781 14.5462 19 12.3206 19 10C19 7.67936 18.0781 5.45376 16.4372 3.81282C14.7962 2.17187 12.5706 1.25 10.25 1.25V18.75ZM10.25 20C7.59784 20 5.0543 18.9464 3.17893 17.0711C1.30357 15.1957 0.25 12.6522 0.25 10C0.25 7.34784 1.30357 4.8043 3.17893 2.92893C5.0543 1.05357 7.59784 0 10.25 0C12.9022 0 15.4457 1.05357 17.3211 2.92893C19.1964 4.8043 20.25 7.34784 20.25 10C20.25 12.6522 19.1964 15.1957 17.3211 17.0711C15.4457 18.9464 12.9022 20 10.25 20Z" fill="currentColor"/>
</svg>
