<svg width="24" height="24" viewBox="0 0 30 29" fill="none" xmlns="http://www.w3.org/2000/svg">
<g clip-path="url(#clip0_1744_91765)">
<path d="M24.7836 3.04265C24.9349 3.16129 25.0329 3.33516 25.056 3.52602C25.0791 3.71689 25.0255 3.90912 24.9069 4.06043L23.4901 5.8629C23.3712 6.01433 23.197 6.11233 23.0059 6.13534C22.8148 6.15836 22.6223 6.10451 22.4709 5.98564C22.3195 5.86677 22.2215 5.69262 22.1985 5.50149C22.1754 5.31036 22.2293 5.11792 22.3482 4.9665L23.765 3.16403C23.8239 3.08913 23.8969 3.02657 23.98 2.97993C24.0631 2.93329 24.1545 2.90348 24.2491 2.89221C24.3438 2.88093 24.4397 2.88842 24.5314 2.91423C24.6231 2.94005 24.7088 2.98369 24.7836 3.04265ZM28.9345 7.34761C29.0206 7.30689 29.0979 7.24961 29.1618 7.17903C29.2258 7.10845 29.2753 7.02596 29.3074 6.93628C29.3395 6.84659 29.3536 6.75145 29.3489 6.65631C29.3443 6.56116 29.3209 6.46786 29.2802 6.38174C29.2395 6.29562 29.1822 6.21837 29.1116 6.15439C29.041 6.09041 28.9585 6.04095 28.8688 6.00885C28.7792 5.97675 28.684 5.96263 28.5889 5.96729C28.4937 5.97196 28.4004 5.99532 28.3143 6.03604L24.6054 7.78654C24.435 7.87065 24.3043 8.01836 24.2417 8.19784C24.1791 8.37733 24.1895 8.57424 24.2706 8.74615C24.3517 8.91806 24.4971 9.05123 24.6755 9.11697C24.8539 9.18271 25.0509 9.17576 25.2242 9.09762L28.9331 7.34712L28.9345 7.34761ZM14.8046 2.72879C15.1388 2.39614 15.5491 2.15001 15.9999 2.01172C16.4508 1.87344 16.9285 1.84718 17.3918 1.93521C17.855 2.02324 18.2898 2.22291 18.6585 2.51692C19.0272 2.81093 19.3186 3.1904 19.5075 3.62246L25.0804 16.374C25.2663 16.7995 25.3475 17.2634 25.3168 17.7267C25.2862 18.1901 25.1448 18.6393 24.9045 19.0366C24.6641 19.4339 24.3319 19.7677 23.9357 20.0099C23.5395 20.2521 23.091 20.3956 22.6278 20.4284L16.4044 20.8702C16.3488 21.652 16.113 22.4104 15.7155 23.086C15.3181 23.7615 14.7697 24.336 14.1133 24.7644C13.4569 25.1927 12.7103 25.4635 11.9318 25.5553C11.1534 25.6472 10.3643 25.5577 9.62623 25.2938C8.81292 25.0026 8.08748 24.5084 7.51869 23.8582C6.9499 23.208 6.55661 22.4233 6.3761 21.5785L4.47929 21.713C4.04346 21.7437 3.60848 21.6424 3.23102 21.4224C2.85356 21.2024 2.55111 20.8737 2.36308 20.4794L1.28765 18.2296C1.09323 17.8227 1.03009 17.3655 1.10696 16.9211C1.18384 16.4767 1.39694 16.0673 1.71677 15.7493L14.8046 2.72879ZM7.84341 21.4732C8.06442 22.2824 8.55921 22.9899 9.24344 23.4751C9.92767 23.9603 10.759 24.1932 11.5957 24.1341C12.4324 24.075 13.2228 23.7275 13.832 23.151C14.4412 22.5744 14.8317 21.8044 14.9368 20.9722L7.84341 21.4732ZM26.2273 11.2228C26.0463 11.1579 25.8469 11.1675 25.673 11.2496C25.4991 11.3317 25.365 11.4794 25.3001 11.6604C25.2351 11.8414 25.2448 12.0408 25.3268 12.2147C25.4089 12.3886 25.5567 12.5227 25.7377 12.5877L27.7849 13.322C27.9659 13.387 28.1653 13.3773 28.3392 13.2953C28.5131 13.2132 28.6472 13.0654 28.7122 12.8844C28.7771 12.7034 28.7675 12.5041 28.6854 12.3302C28.6033 12.1563 28.4555 12.0221 28.2745 11.9572L26.2273 11.2228Z" fill="none" fill-opacity="0.25" class="megaphoneFill"/>
<g clip-path="url(#clip1_1744_91765)">
<path d="M24.7836 3.04265C24.9349 3.16129 25.0329 3.33516 25.056 3.52602C25.0791 3.71689 25.0255 3.90912 24.9069 4.06043L23.4901 5.8629C23.3712 6.01433 23.197 6.11233 23.0059 6.13534C22.8148 6.15836 22.6223 6.10451 22.4709 5.98564C22.3195 5.86677 22.2215 5.69262 22.1985 5.50149C22.1754 5.31036 22.2293 5.11792 22.3482 4.9665L23.765 3.16403C23.8239 3.08913 23.8969 3.02657 23.98 2.97993C24.0631 2.93329 24.1545 2.90348 24.2491 2.89221C24.3438 2.88093 24.4397 2.88842 24.5314 2.91423C24.6231 2.94005 24.7088 2.98369 24.7836 3.04265ZM28.9345 7.34761C29.0206 7.30689 29.0979 7.24961 29.1618 7.17903C29.2258 7.10845 29.2753 7.02596 29.3074 6.93628C29.3395 6.84659 29.3536 6.75145 29.3489 6.65631C29.3443 6.56116 29.3209 6.46786 29.2802 6.38174C29.2395 6.29562 29.1822 6.21837 29.1116 6.15439C29.041 6.09041 28.9585 6.04095 28.8688 6.00885C28.7792 5.97675 28.684 5.96263 28.5889 5.96729C28.4937 5.97196 28.4004 5.99532 28.3143 6.03604L24.6054 7.78654C24.435 7.87065 24.3043 8.01836 24.2417 8.19784C24.1791 8.37733 24.1895 8.57424 24.2706 8.74615C24.3517 8.91806 24.4971 9.05123 24.6755 9.11697C24.8539 9.18271 25.0509 9.17576 25.2242 9.09762L28.9331 7.34712L28.9345 7.34761ZM14.8046 2.72879C15.1388 2.39614 15.5491 2.15001 15.9999 2.01172C16.4508 1.87344 16.9285 1.84718 17.3918 1.93521C17.855 2.02324 18.2898 2.22291 18.6585 2.51692C19.0272 2.81093 19.3186 3.1904 19.5075 3.62246L25.0804 16.374C25.2663 16.7995 25.3475 17.2634 25.3168 17.7267C25.2862 18.1901 25.1448 18.6393 24.9045 19.0366C24.6641 19.4339 24.3319 19.7677 23.9357 20.0099C23.5395 20.2521 23.091 20.3956 22.6278 20.4284L16.4044 20.8702C16.3488 21.652 16.113 22.4104 15.7155 23.086C15.3181 23.7615 14.7697 24.336 14.1133 24.7644C13.4569 25.1927 12.7103 25.4635 11.9318 25.5553C11.1534 25.6472 10.3643 25.5577 9.62623 25.2938C8.81292 25.0026 8.08748 24.5084 7.51869 23.8582C6.9499 23.208 6.55661 22.4233 6.3761 21.5785L4.47929 21.713C4.04346 21.7437 3.60848 21.6424 3.23102 21.4224C2.85356 21.2024 2.55111 20.8737 2.36308 20.4794L1.28765 18.2296C1.09323 17.8227 1.03009 17.3655 1.10696 16.9211C1.18384 16.4767 1.39694 16.0673 1.71677 15.7493L14.8046 2.72879ZM7.84341 21.4732C8.06442 22.2824 8.55921 22.9899 9.24344 23.4751C9.92767 23.9603 10.759 24.1932 11.5957 24.1341C12.4324 24.075 13.2228 23.7275 13.832 23.151C14.4412 22.5744 14.8317 21.8044 14.9368 20.9722L7.84341 21.4732ZM18.1789 4.20417C18.0844 3.98828 17.9388 3.79867 17.7546 3.65174C17.5703 3.50481 17.353 3.405 17.1215 3.36095C16.89 3.3169 16.6513 3.32994 16.426 3.39893C16.2007 3.46792 15.9955 3.59079 15.8284 3.7569L2.73919 16.777C2.63299 16.883 2.56229 17.0193 2.53684 17.1671C2.51139 17.315 2.53244 17.4671 2.59709 17.6025L3.67204 19.8536C3.73486 19.9848 3.83566 20.094 3.96135 20.1671C4.08704 20.2402 4.23181 20.2738 4.37685 20.2636L22.5239 18.9831C22.7554 18.9668 22.9797 18.8952 23.1778 18.7742C23.3759 18.6533 23.542 18.4865 23.6623 18.288C23.7826 18.0895 23.8534 17.865 23.8689 17.6334C23.8844 17.4018 23.8441 17.1699 23.7513 16.9571L18.1784 4.20554L18.1789 4.20417ZM26.2273 11.2228C26.0463 11.1579 25.8469 11.1675 25.673 11.2496C25.4991 11.3317 25.365 11.4794 25.3001 11.6604C25.2351 11.8414 25.2448 12.0408 25.3268 12.2147C25.4089 12.3886 25.5567 12.5227 25.7377 12.5877L27.7849 13.322C27.9659 13.387 28.1653 13.3773 28.3392 13.2953C28.5131 13.2132 28.6472 13.0654 28.7122 12.8844C28.7771 12.7034 28.7675 12.5041 28.6854 12.3302C28.6033 12.1563 28.4555 12.0221 28.2745 11.9572L26.2273 11.2228Z" fill="currentColor" class="megaphoneBorder"/>
</g>
</g>
<defs>
<clipPath id="clip0_1744_91765">
<rect width="30" height="29" fill="white"/>
</clipPath>
<clipPath id="clip1_1744_91765">
<rect width="30" height="29" fill="white"/>
</clipPath>
</defs>
</svg>
