<svg width="30" height="30" viewBox="0 0 30 30" fill="none" xmlns="http://www.w3.org/2000/svg">
<path d="M21.8531 7.36637C21.9636 7.45297 22.0351 7.5799 22.052 7.71924C22.0688 7.85858 22.0297 7.99891 21.9431 8.10937L20.9088 9.42522C20.822 9.53576 20.6949 9.6073 20.5553 9.62411C20.4158 9.64091 20.2753 9.6016 20.1648 9.51482C20.0542 9.42804 19.9827 9.30091 19.9659 9.16138C19.9491 9.02185 19.9884 8.88136 20.0752 8.77082L21.1095 7.45497C21.1525 7.4003 21.2058 7.35463 21.2665 7.32058C21.3271 7.28653 21.3939 7.26477 21.4629 7.25654C21.532 7.24831 21.602 7.25377 21.669 7.27262C21.7359 7.29146 21.7985 7.32332 21.8531 7.36637ZM24.8833 10.5091C24.9462 10.4794 25.0026 10.4375 25.0493 10.386C25.096 10.3345 25.1321 10.2743 25.1556 10.2088C25.179 10.1433 25.1893 10.0739 25.1859 10.0044C25.1825 9.93496 25.1654 9.86685 25.1357 9.80398C25.106 9.74111 25.0642 9.68472 25.0126 9.63801C24.9611 9.5913 24.9009 9.5552 24.8354 9.53176C24.77 9.50833 24.7005 9.49802 24.631 9.50142C24.5616 9.50483 24.4935 9.52188 24.4306 9.55161L21.723 10.8295C21.5986 10.8909 21.5032 10.9988 21.4575 11.1298C21.4118 11.2608 21.4194 11.4046 21.4786 11.5301C21.5378 11.6556 21.644 11.7528 21.7742 11.8008C21.9044 11.8488 22.0483 11.8437 22.1748 11.7866L24.8823 10.5087L24.8833 10.5091ZM14.5682 7.13724C14.8122 6.8944 15.1117 6.71471 15.4408 6.61376C15.7699 6.51281 16.1187 6.49364 16.4569 6.55791C16.7951 6.62217 17.1125 6.76794 17.3816 6.98257C17.6508 7.1972 17.8635 7.47423 18.0014 7.78964L22.0697 17.0986C22.2055 17.4092 22.2647 17.7479 22.2424 18.0861C22.22 18.4244 22.1168 18.7523 21.9413 19.0423C21.7659 19.3324 21.5233 19.5761 21.2341 19.7529C20.9449 19.9297 20.6174 20.0344 20.2793 20.0584L15.7361 20.3809C15.6955 20.9517 15.5234 21.5053 15.2332 21.9985C14.943 22.4917 14.5427 22.911 14.0635 23.2237C13.5843 23.5365 13.0393 23.7341 12.471 23.8012C11.9027 23.8682 11.3267 23.8029 10.7878 23.6103C10.1941 23.3976 9.66452 23.0369 9.24929 22.5622C8.83406 22.0876 8.54695 21.5147 8.41517 20.898L7.03046 20.9961C6.71229 21.0186 6.39474 20.9447 6.11919 20.784C5.84363 20.6234 5.62284 20.3835 5.48557 20.0956L4.70048 18.4532C4.55855 18.1562 4.51245 17.8224 4.56858 17.498C4.6247 17.1736 4.78027 16.8747 5.01375 16.6426L14.5682 7.13724ZM9.48634 20.8211C9.64769 21.4118 10.0089 21.9283 10.5084 22.2825C11.0079 22.6367 11.6148 22.8068 12.2256 22.7636C12.8364 22.7205 13.4134 22.4668 13.8582 22.0459C14.3029 21.625 14.5879 21.0629 14.6647 20.4554L9.48634 20.8211ZM17.0315 8.21431C16.9626 8.0567 16.8562 7.91828 16.7217 7.81102C16.5872 7.70376 16.4286 7.63089 16.2596 7.59873C16.0906 7.56658 15.9163 7.57609 15.7518 7.62646C15.5873 7.67682 15.4376 7.76652 15.3156 7.88779L5.76014 17.3928C5.68261 17.4701 5.631 17.5696 5.61242 17.6776C5.59384 17.7855 5.60921 17.8966 5.65641 17.9954L6.44114 19.6388C6.487 19.7345 6.56059 19.8143 6.65235 19.8676C6.7441 19.921 6.84979 19.9455 6.95567 19.9381L20.2034 19.0033C20.3725 18.9914 20.5362 18.9391 20.6808 18.8508C20.8254 18.7625 20.9467 18.6408 21.0345 18.4958C21.1223 18.3509 21.174 18.187 21.1854 18.018C21.1967 17.8489 21.1672 17.6796 21.0995 17.5243L17.0312 8.2153L17.0315 8.21431ZM22.907 13.3381C22.7749 13.2907 22.6293 13.2977 22.5024 13.3576C22.3755 13.4175 22.2775 13.5254 22.2301 13.6576C22.1827 13.7897 22.1898 13.9352 22.2497 14.0622C22.3096 14.1891 22.4175 14.2871 22.5496 14.3344L24.0442 14.8706C24.1763 14.918 24.3218 14.9109 24.4488 14.851C24.5757 14.7911 24.6737 14.6832 24.721 14.5511C24.7684 14.419 24.7614 14.2734 24.7015 14.1465C24.6416 14.0195 24.5337 13.9216 24.4016 13.8742L22.907 13.3381Z" fill="currentColor"/>
<path d="M17.0315 8.21431C16.9626 8.0567 16.8562 7.91828 16.7217 7.81102C16.5872 7.70376 16.4286 7.63089 16.2596 7.59873C16.0906 7.56658 15.9163 7.57609 15.7518 7.62646C15.5873 7.67682 15.4376 7.76652 15.3156 7.88779L5.76014 17.3928C5.68261 17.4701 5.631 17.5696 5.61242 17.6776C5.59384 17.7855 5.60921 17.8966 5.65641 17.9954L6.44114 19.6388C6.487 19.7345 6.56059 19.8143 6.65235 19.8676C6.7441 19.921 6.84979 19.9455 6.95567 19.9381L20.2034 19.0033C20.3725 18.9914 20.5362 18.9391 20.6808 18.8508C20.8254 18.7625 20.9467 18.6408 21.0345 18.4958C21.1223 18.3509 21.174 18.187 21.1854 18.018C21.1967 17.8489 21.1672 17.6796 21.0995 17.5243L17.0312 8.2153L17.0315 8.21431Z" fill="currentColor"/>
</svg>
