<svg width="18" height="18" viewBox="0 0 18 18" fill="none" xmlns="http://www.w3.org/2000/svg">
<path d="M8.497 8.50028H8.503M11.4932 8.50028H11.5M5.5 8.50028H5.50675M8.5 1C4.3585 1 1 4.21328 1 8.17553C1 10.079 1.77475 11.8093 3.03925 13.0925C3.3175 13.3753 3.5035 13.7615 3.4285 14.159C3.30641 14.8044 3.02631 15.4094 2.61325 15.92C3.6946 16.1176 4.81101 15.944 5.78125 15.4273C6.12175 15.2465 6.292 15.1558 6.41275 15.1378C6.5335 15.1198 6.70525 15.1513 7.04875 15.2158C7.52725 15.3058 8.01325 15.3508 8.5 15.3508C12.6415 15.3508 16 12.1378 16 8.17553C16 8.03253 15.9957 7.89078 15.9872 7.75028C15.9082 5.50628 14 1.0072 8.5 1Z" stroke="currentColor" stroke-width="1.125" stroke-linecap="round" stroke-linejoin="round"/>
</svg>
