<svg xmlns="http://www.w3.org/2000/svg" width="36" height="36" viewBox="0 0 36 36" fill="none">
  <path
    d="M20.4229 10.7109H15.7279C15.11 10.7109 14.4981 10.8327 13.9272 11.0692C13.3563 11.3057 12.8376 11.6523 12.4007 12.0894C11.9637 12.5264 11.6172 13.0452 11.3808 13.6161C11.1444 14.1871 11.0228 14.799 11.0229 15.4169V20.1119C11.0229 21.3598 11.5187 22.5565 12.401 23.4389C13.2834 24.3212 14.4801 24.8169 15.7279 24.8169H20.4229C21.6708 24.8169 22.8675 24.3212 23.7499 23.4389C24.6322 22.5565 25.1279 21.3598 25.1279 20.1119V15.4169C25.1281 14.799 25.0065 14.1871 24.7701 13.6161C24.5337 13.0452 24.1872 12.5264 23.7502 12.0894C23.3133 11.6523 22.7946 11.3057 22.2237 11.0692C21.6528 10.8327 21.0409 10.7109 20.4229 10.7109Z"
    stroke="var(--text-primary)"
    stroke-width="1.5"
    stroke-linecap="round"
  />
  <path
    d="M28 14.74H25.078M11.073 14.74H8M28 21.25H24.987M11.164 21.25H8M21.26 28V24.746M21.26 10.78V8M14.74 28V24.715M14.74 10.811V8M19.314 14.044H16.838C16.5121 14.0437 16.1893 14.1077 15.8881 14.2323C15.5869 14.3569 15.3132 14.5396 15.0827 14.77C14.8522 15.0004 14.6694 15.274 14.5447 15.5752C14.42 15.8763 14.3559 16.1991 14.356 16.525V19.001C14.3557 19.327 14.4198 19.6499 14.5444 19.9511C14.669 20.2524 14.8518 20.5261 15.0824 20.7566C15.3129 20.9872 15.5866 21.17 15.8879 21.2946C16.1891 21.4192 16.512 21.4833 16.838 21.483H19.314C19.6398 21.483 19.9625 21.4188 20.2635 21.294C20.5645 21.1693 20.838 20.9864 21.0683 20.7559C21.2986 20.5254 21.4813 20.2518 21.6058 19.9507C21.7303 19.6496 21.7943 19.3268 21.794 19.001V16.525C21.7941 16.1992 21.7301 15.8766 21.6055 15.5756C21.4809 15.2746 21.2983 15.0011 21.068 14.7707C20.8377 14.5403 20.5642 14.3576 20.2633 14.2329C19.9623 14.1082 19.6398 14.044 19.314 14.044Z"
    stroke="var(--text-primary)"
    stroke-width="1.5"
    stroke-linecap="round"
  />
</svg>
