<svg width="24" height="24" viewBox="0 0 24 24" fill="none" xmlns="http://www.w3.org/2000/svg">
    <path
        d="M17.0311 0.849609C18.5843 0.849609 19.8484 2.11006 19.8484 3.66016C19.8484 5.21033 18.5843 6.4707 17.0311 6.4707C16.6629 6.47067 16.3127 6.39543 15.9901 6.2666L14.0486 8.73047C14.9054 9.64788 15.4315 10.8772 15.4315 12.2275C15.4314 12.9144 15.2932 13.5694 15.0467 14.1689L16.2996 14.9238C16.9709 14.2219 17.917 13.7822 18.9647 13.7822C20.9963 13.7823 22.6499 15.4309 22.6502 17.458C22.6502 19.4854 20.9964 21.1347 18.9647 21.1348C17.174 21.1348 15.678 19.8542 15.3475 18.1631C15.303 17.9352 15.2791 17.6991 15.2791 17.458C15.2792 17.0474 15.3501 16.6532 15.4754 16.2842L14.2215 15.5283C13.2765 16.6483 11.8627 17.3632 10.283 17.3633C9.40911 17.3633 8.58591 17.1427 7.86407 16.7578L6.42657 18.6641C6.67362 18.9947 6.85029 19.3808 6.93243 19.8008C6.96643 19.975 6.98517 20.1555 6.98517 20.3398C6.98506 21.8898 5.72082 23.1501 4.16779 23.1504C2.61449 23.1504 1.34944 21.89 1.34943 20.3398C1.34943 18.7897 2.61451 17.5293 4.16779 17.5293C4.5141 17.5294 4.84516 17.5952 5.15216 17.71L6.59064 15.8018C5.69017 14.8768 5.13365 13.6163 5.13361 12.2275C5.13361 11.2212 5.42705 10.2826 5.93048 9.48926L4.8338 8.5332C4.49681 8.7201 4.11014 8.82905 3.69806 8.8291C2.40362 8.8291 1.34943 7.77825 1.34943 6.48633C1.34966 5.19459 2.40377 4.14453 3.69806 4.14453C4.82529 4.14468 5.76863 4.94143 5.99396 6C6.02737 6.15692 6.04568 6.31951 6.04572 6.48633C6.04572 6.78588 5.98499 7.07143 5.88165 7.33496L6.97833 8.29199C7.87298 7.54341 9.02546 7.09093 10.282 7.09082C11.1949 7.09082 12.0524 7.33167 12.7967 7.74902L14.7361 5.28613C14.5168 4.97904 14.3565 4.62677 14.2752 4.24512V4.24414C14.2352 4.05585 14.2137 3.86037 14.2137 3.66016C14.2138 2.11019 15.478 0.849775 17.0311 0.849609ZM4.16681 19.1191C3.49151 19.1194 2.9422 19.6673 2.9422 20.3398C2.94233 21.0123 3.49163 21.5603 4.16681 21.5605C4.84217 21.5605 5.39124 21.0125 5.39142 20.3398C5.39142 19.6671 4.84226 19.1191 4.16681 19.1191ZM18.9647 15.3721C17.8108 15.3721 16.8721 16.3083 16.8719 17.458C16.8719 18.608 17.8106 19.5449 18.9647 19.5449C20.1186 19.5448 21.0565 18.6079 21.0565 17.458C21.0562 16.3083 20.1185 15.3722 18.9647 15.3721ZM10.282 8.68066C8.32104 8.68091 6.72638 10.2726 6.72638 12.2275C6.72654 14.1823 8.32105 15.7732 10.282 15.7734C12.2432 15.7734 13.8385 14.1825 13.8387 12.2275C13.8387 10.2725 12.2433 8.68066 10.282 8.68066ZM3.69806 5.73438C3.2816 5.73438 2.94336 6.07201 2.94318 6.48633C2.94318 6.90078 3.28146 7.23926 3.69806 7.23926C4.1145 7.23906 4.45298 6.90064 4.45294 6.48633C4.45276 6.07216 4.11435 5.73457 3.69806 5.73438ZM17.0311 2.43945C16.3558 2.43962 15.8066 2.98766 15.8065 3.66016C15.8065 4.33275 16.3557 4.88069 17.0311 4.88086C17.7066 4.88086 18.2557 4.33289 18.2557 3.66016C18.2556 2.98752 17.7065 2.43945 17.0311 2.43945Z"
        fill="currentColor" stroke="currentColor" stroke-width="0.3" />
</svg>