<svg xmlns="http://www.w3.org/2000/svg" width="11" height="11" viewBox="0 0 11 11" fill="none">
  <path opacity="0.9" d="M0.0473833 8.87613C0.123985 8.64545 0.289088 8.45464 0.50638 8.34566C0.723672 8.23668 0.975357 8.21847 1.20608 8.29502L3.95615 9.2116C4.18712 9.28841 4.3781 9.45382 4.4871 9.67144C4.59609 9.88905 4.61416 10.141 4.53733 10.372C4.46051 10.6029 4.29508 10.7939 4.07744 10.9029C3.85979 11.0118 3.60777 11.0299 3.3768 10.9531L0.626732 10.0365C0.512451 9.99842 0.406802 9.93817 0.315824 9.85922C0.224846 9.78026 0.150324 9.68415 0.0965184 9.57639C0.0427127 9.46862 0.0106788 9.3513 0.00224778 9.23115C-0.00618321 9.11099 0.00915424 8.99035 0.0473833 8.87613ZM3.3988 2.09896C3.31357 2.01386 3.21241 1.94638 3.1011 1.90038C2.98979 1.85437 2.8705 1.83073 2.75005 1.83081C2.62961 1.8309 2.51035 1.8547 2.39911 1.90087C2.28786 1.94703 2.1868 2.01466 2.10169 2.09988C2.01658 2.1851 1.94909 2.28624 1.90307 2.39754C1.85706 2.50884 1.83342 2.62811 1.8335 2.74855C1.83359 2.86898 1.8574 2.98822 1.90357 3.09945C1.94974 3.21068 2.01737 3.31173 2.1026 3.39683L5.76936 7.06314C5.94225 7.2301 6.17381 7.32249 6.41417 7.3204C6.65452 7.31831 6.88444 7.22192 7.0544 7.05198C7.22436 6.88203 7.32077 6.65214 7.32286 6.41182C7.32495 6.1715 7.23255 5.93997 7.06557 5.7671L3.3988 2.10079L3.3988 2.09896ZM9.16662 3.66631C9.16662 3.9094 9.2632 4.14253 9.43511 4.31443C9.60703 4.48632 9.84019 4.58288 10.0833 4.58288C10.3264 4.58288 10.5596 4.48632 10.7315 4.31443C10.9034 4.14253 11 3.9094 11 3.66631L11 0.916579C11 0.673487 10.9034 0.44035 10.7315 0.268459C10.5596 0.0965676 10.3264 5.02292e-07 10.0833 5.12919e-07C9.84019 5.23546e-07 9.60703 0.0965677 9.43511 0.268459C9.2632 0.44035 9.16662 0.673487 9.16662 0.916579L9.16662 3.66631Z" fill="#D4D6DB"/>
</svg>
