<svg width="11" height="12" viewBox="0 0 11 12" fill="none" xmlns="http://www.w3.org/2000/svg">
<path d="M3.29167 8.74967L5.12586 6.91634M5.12586 6.91634L6.95833 5.08301M5.12586 6.91634L3.29167 5.08301M5.12586 6.91634L6.95747 8.74967M7.13413 0.5V2.7C7.13413 2.80297 7.17503 2.90172 7.24784 2.97452C7.32065 3.04733 7.4194 3.08823 7.52237 3.08823H9.21714M8.77857 11.5C9.00779 11.5 9.22763 11.3977 9.38971 11.2157C9.5518 11.0337 9.64286 10.7868 9.64286 10.5294V2.92582C9.64289 2.87475 9.63395 2.82417 9.61655 2.77698C9.59915 2.72979 9.57363 2.68692 9.54145 2.65082L7.7276 0.613884C7.69539 0.577668 7.65712 0.548962 7.615 0.529417C7.57287 0.509873 7.52772 0.499876 7.48214 0.500001H1.86429C1.63506 0.500001 1.41523 0.602259 1.25314 0.78428C1.09106 0.9663 1 1.21317 1 1.47059V10.5C1 11.0523 1.44771 11.5 2 11.5H8.77857Z" stroke="currentColor" stroke-width="0.8" stroke-linecap="round" stroke-linejoin="round"/>
</svg>
