<svg width="327" height="280" viewBox="0 0 327 280" fill="none" xmlns="http://www.w3.org/2000/svg">
<g clip-path="url(#clip0_3665_76077)">
<mask id="mask0_3665_76077" style="mask-type:luminance" maskUnits="userSpaceOnUse" x="92" y="0" width="136" height="99">
<path d="M227.601 0.386719H92.5576V98.3954H227.601V0.386719Z" fill="white"/>
</mask>
<g mask="url(#mask0_3665_76077)">
<path d="M94.2559 2.0314V35.1619C94.2559 39.2897 98.5573 41.5708 100.821 41.5708C105.802 41.5708 106.141 34.4015 114.518 34.4015C131.271 34.4015 131.271 64.3819 114.518 64.3819C106.141 64.3819 105.689 57.2127 100.821 57.2127C98.5573 57.2127 94.2559 59.6025 94.2559 63.6215V96.7521H128.781C133.082 96.7521 135.459 92.6243 135.459 90.4519C135.459 85.6723 127.988 85.3465 127.988 77.1997C127.988 61.1232 159.231 61.1232 159.231 77.1997C159.231 85.2379 151.76 85.6723 151.76 90.4519C151.76 92.6243 154.25 96.7521 158.438 96.7521H192.963V63.7302C192.963 59.6025 197.265 57.3213 199.529 57.3213C204.509 57.3213 204.849 64.4906 213.339 64.4906C230.092 64.4906 230.092 34.5102 213.339 34.5102C204.962 34.5102 204.509 41.6795 199.529 41.6795C197.265 41.6795 192.963 39.3983 192.963 35.2706V2.0314H158.551C154.25 2.0314 140.354 2.0314 140.354 2.0314L139.131 2.03134L137.817 2.03125C137.029 2.0314 136.064 2.03134 136.064 2.03134C136.064 2.03134 133.082 2.0314 128.894 2.0314H94.2559Z" fill="#3C7A91" stroke="#999999" stroke-width="0.758671" stroke-miterlimit="10"/>
</g>
</g>
<g clip-path="url(#clip1_3665_76077)">
<path fill-rule="evenodd" clip-rule="evenodd" d="M40.5107 163.081C42.7854 167.317 46.118 168.544 48.8851 169.267C49.2915 169.373 49.6634 169.464 50.0086 169.549C50.8839 169.764 51.5874 169.936 52.2445 170.203C53.0524 170.53 53.5489 170.917 53.8801 171.533C54.1033 171.949 54.2527 173.103 53.7471 174.537C53.2712 175.886 52.3018 177.201 50.7468 177.977L50.7541 177.99L20.5966 193.042L19.0808 193.798L19.8823 195.291L35.349 224.093C36.6209 226.462 38.8533 227.614 40.9287 228.028C42.9476 228.432 45.0786 228.194 46.4885 227.491C48.012 226.73 48.8796 225.594 49.4462 224.384C49.8405 223.541 50.1258 222.559 50.379 221.688L50.379 221.688L50.3795 221.686C50.4576 221.417 50.5326 221.159 50.6068 220.919C50.9491 219.811 51.3421 218.792 52.0193 217.849C52.6843 216.924 53.6753 216.001 55.305 215.187C58.5141 213.586 61.6084 213.792 64.3268 215.091C67.1004 216.416 69.5322 218.912 71.1441 221.914C72.7561 224.916 73.4667 228.271 72.9879 231.22C72.5186 234.109 70.9074 236.664 67.6983 238.266C64.5434 239.841 62.2693 239.374 60.0872 238.672C59.8293 238.59 59.5544 238.496 59.2683 238.399C58.3912 238.1 57.4086 237.766 56.4896 237.592C55.1509 237.338 53.6949 237.352 52.1879 238.104C50.7609 238.816 49.3476 240.394 48.5379 242.215C47.7073 244.083 47.3845 246.506 48.6352 248.835L48.6405 248.844L64.0797 277.145L64.8858 278.622L66.3916 277.871L93.9443 264.119L99.1652 261.514L104.493 258.854L109.511 256.35L115.761 253.23L115.762 253.23L115.762 253.23L115.762 253.23L115.762 253.23L115.763 253.23L115.763 253.229L115.764 253.229L115.765 253.229L115.766 253.228L115.767 253.228L115.767 253.227L115.769 253.227L115.77 253.226L115.771 253.226L115.772 253.225L115.774 253.224L115.775 253.224L115.777 253.223L115.778 253.222L115.78 253.221L115.782 253.22L115.783 253.219L115.785 253.218L115.787 253.217L115.79 253.216L115.792 253.215L115.794 253.214L115.796 253.213L115.799 253.212L115.801 253.211L115.804 253.209L115.807 253.208L115.809 253.207L115.812 253.205L115.815 253.204L115.818 253.202L115.821 253.201L115.824 253.199L115.827 253.197L115.831 253.196L115.834 253.194L115.838 253.192L115.841 253.191L115.845 253.189L115.848 253.187L115.852 253.185L115.856 253.183L115.86 253.181L115.864 253.179L115.868 253.177L115.872 253.175L115.876 253.173L115.881 253.171L115.885 253.169L115.889 253.167L115.894 253.164L115.899 253.162L115.903 253.16L115.908 253.157L115.913 253.155L115.918 253.152L115.923 253.15L115.928 253.147L115.933 253.145L115.938 253.142L115.943 253.14L115.949 253.137L115.954 253.134L115.96 253.132L115.965 253.129L115.971 253.126L115.977 253.123L115.982 253.12L115.988 253.117L115.994 253.114L116 253.111L116.006 253.108L116.012 253.105L116.018 253.102L116.025 253.099L116.031 253.096L116.038 253.093L116.044 253.089L116.051 253.086L116.057 253.083L116.064 253.079L116.071 253.076L116.078 253.073L116.085 253.069L116.092 253.066L116.099 253.062L116.106 253.059L116.113 253.055L116.12 253.051L116.128 253.048L116.135 253.044L116.142 253.04L116.15 253.037L116.158 253.033L116.165 253.029L116.173 253.025L116.181 253.021L116.189 253.017L116.197 253.013L116.205 253.009L116.213 253.005L116.221 253.001L116.229 252.997L116.237 252.993L116.246 252.989L116.254 252.984L116.263 252.98L116.271 252.976L116.28 252.972L116.289 252.967L116.297 252.963L116.306 252.959L116.315 252.954L116.324 252.95L116.333 252.945L116.342 252.941L116.351 252.936L116.36 252.931L116.37 252.927L116.379 252.922L116.388 252.917L116.398 252.913L116.407 252.908L116.417 252.903L116.427 252.898L116.436 252.894L116.446 252.889L116.456 252.884L116.466 252.879L116.476 252.874L116.486 252.869L116.496 252.864L116.506 252.859L116.516 252.854L116.527 252.848L116.537 252.843L116.547 252.838L116.558 252.833L116.568 252.828L116.579 252.822L116.59 252.817L116.6 252.812L116.611 252.806L116.622 252.801L116.633 252.796L116.644 252.79L116.655 252.785L116.666 252.779L116.677 252.773L116.688 252.768L116.699 252.762L116.711 252.757L116.722 252.751L116.734 252.745L116.745 252.74L116.757 252.734L116.768 252.728L116.78 252.722L116.791 252.716L116.803 252.71L116.815 252.705L116.827 252.699L116.839 252.693L116.851 252.687L116.863 252.681L116.875 252.675L116.887 252.669L116.899 252.662L116.912 252.656L116.924 252.65L116.936 252.644L116.949 252.638L116.961 252.632L116.974 252.625L116.987 252.619L116.999 252.613L117.012 252.606L117.025 252.6L117.038 252.594L117.05 252.587L117.063 252.581L117.076 252.574L117.089 252.568L117.102 252.561L117.116 252.555L117.129 252.548L117.142 252.541L117.155 252.535L117.169 252.528L117.182 252.521L117.196 252.515L117.209 252.508L117.223 252.501L117.236 252.494L117.25 252.487L117.264 252.481L117.278 252.474L117.291 252.467L117.305 252.46L117.319 252.453L117.333 252.446L117.347 252.439L117.361 252.432L117.375 252.425L117.39 252.418L117.404 252.411L117.418 252.404L117.433 252.396L117.447 252.389L117.461 252.382L117.476 252.375L117.49 252.368L117.505 252.36L117.52 252.353L117.534 252.346L117.549 252.338L117.564 252.331L117.579 252.324L117.593 252.316L117.608 252.309L117.623 252.301L117.638 252.294L117.653 252.286L117.669 252.279L117.684 252.271L117.699 252.263L117.714 252.256L117.729 252.248L117.745 252.241L117.76 252.233L117.776 252.225L117.791 252.217L117.807 252.21L117.822 252.202L117.838 252.194L117.853 252.186L117.869 252.179L117.885 252.171L117.901 252.163L117.916 252.155L117.932 252.147L117.948 252.139L117.964 252.131L117.98 252.123L117.996 252.115L118.012 252.107L118.029 252.099L118.045 252.091L118.061 252.083L118.077 252.075L118.094 252.066L118.11 252.058L118.126 252.05L118.143 252.042L118.159 252.034L118.176 252.025L118.192 252.017L118.209 252.009L118.226 252.001L118.242 251.992L118.259 251.984L118.276 251.976L118.293 251.967L118.309 251.959L118.326 251.95L118.343 251.942L118.36 251.933L118.377 251.925L118.394 251.916L118.411 251.908L118.429 251.899L118.446 251.891L118.463 251.882L118.48 251.874L118.497 251.865L118.515 251.856L118.532 251.848L118.55 251.839L118.567 251.83L118.584 251.821L118.602 251.813L118.62 251.804L118.637 251.795L118.655 251.786L118.672 251.778L118.69 251.769L118.708 251.76L118.726 251.751L118.743 251.742L118.761 251.733L118.779 251.724L118.797 251.715L118.815 251.706L118.833 251.697L118.851 251.688L118.869 251.679L118.887 251.67L118.905 251.661L118.924 251.652L118.942 251.643L118.96 251.634L118.978 251.625L118.997 251.616L119.015 251.607L119.033 251.597L119.052 251.588L119.07 251.579L119.089 251.57L119.107 251.561L119.126 251.551L119.144 251.542L119.163 251.533L119.181 251.524L119.2 251.514L119.219 251.505L119.237 251.496L119.256 251.486L119.275 251.477L119.294 251.467L119.313 251.458L119.332 251.449L119.35 251.439L119.369 251.43L119.388 251.42L119.407 251.411L119.426 251.401L119.446 251.392L119.465 251.382L119.484 251.373L119.503 251.363L119.522 251.353L119.541 251.344L119.561 251.334L119.58 251.325L119.599 251.315L119.618 251.305L119.638 251.296L119.657 251.286L119.677 251.276L119.696 251.267L119.716 251.257L119.735 251.247L119.755 251.237L119.774 251.228L119.794 251.218L119.813 251.208L119.833 251.198L119.853 251.189L119.872 251.179L119.892 251.169L119.912 251.159L119.932 251.149L119.951 251.139L119.971 251.129L119.991 251.119L120.011 251.11L120.031 251.1L120.051 251.09L120.071 251.08L120.091 251.07L120.111 251.06L120.131 251.05L120.151 251.04L120.171 251.03L120.191 251.02L120.211 251.01L120.231 251L120.251 250.99L120.271 250.98L120.292 250.969L120.312 250.959L120.332 250.949L120.352 250.939L120.373 250.929L120.393 250.919L120.413 250.909L120.434 250.899L120.454 250.888L120.474 250.878L120.495 250.868L120.515 250.858L120.536 250.848L120.556 250.837L120.577 250.827L120.597 250.817L120.618 250.807L120.638 250.796L120.659 250.786L120.68 250.776L120.7 250.766L120.721 250.755L120.741 250.745L120.762 250.735L120.783 250.724L120.804 250.714L120.824 250.704L120.845 250.693L120.866 250.683L120.887 250.672L120.908 250.662L120.928 250.652L120.949 250.641L120.97 250.631L120.991 250.62L121.012 250.61L121.033 250.6L121.054 250.589L121.075 250.579L121.096 250.568L121.117 250.558L121.138 250.547L121.159 250.537L121.18 250.526L121.201 250.516L121.222 250.505L121.243 250.495L121.264 250.484L121.285 250.474L121.306 250.463L121.327 250.452L121.349 250.442L121.37 250.431L121.391 250.421L121.412 250.41L121.433 250.4L121.455 250.389L121.476 250.378L121.497 250.368L121.518 250.357L121.54 250.347L121.561 250.336L121.582 250.325L121.603 250.315L121.625 250.304L121.646 250.293L121.668 250.283L121.689 250.272L121.71 250.261L121.732 250.251L121.753 250.24L121.774 250.229L121.796 250.219L121.817 250.208L121.839 250.197L121.86 250.187L121.882 250.176L121.903 250.165L121.925 250.154L121.946 250.144L121.968 250.133L121.989 250.122L122.011 250.111L122.032 250.101L122.054 250.09L122.075 250.079L122.097 250.068L122.118 250.058L122.14 250.047L122.162 250.036L122.183 250.025L122.205 250.015L122.226 250.004L122.248 249.993L122.27 249.982L122.291 249.971L122.313 249.961L122.335 249.95L122.356 249.939L122.378 249.928L122.4 249.917L122.421 249.907L122.443 249.896L122.465 249.885L122.486 249.874L122.508 249.863L122.53 249.852L122.551 249.842L122.573 249.831L122.595 249.82L122.617 249.809L122.638 249.798L122.66 249.787L122.682 249.776L122.704 249.766L122.725 249.755L122.747 249.744L122.769 249.733L122.791 249.722L122.812 249.711L122.834 249.7L122.856 249.69L122.878 249.679L122.899 249.668L122.921 249.657L122.943 249.646L122.965 249.635L122.987 249.624L123.008 249.614L123.03 249.603L123.052 249.592L123.074 249.581L123.095 249.57L123.117 249.559L123.139 249.548L123.161 249.537L123.183 249.527L123.19 249.523L153.669 234.125L155.167 233.368L154.379 231.886L139.378 203.673L139.375 203.667C138.719 202.447 138.821 201.13 139.372 199.91C139.947 198.64 140.898 197.734 141.499 197.434C142.187 197.091 142.838 197.05 143.65 197.2C144.311 197.323 144.946 197.539 145.742 197.809L145.743 197.809C146.071 197.921 146.426 198.041 146.823 198.169C148.09 198.577 149.593 198.978 151.332 198.986C153.091 198.994 154.998 198.6 157.11 197.546C161.339 195.435 163.558 191.947 164.183 188.094C164.8 184.299 163.871 180.21 161.984 176.696C160.097 173.182 157.17 170.091 153.6 168.385C149.975 166.653 145.74 166.386 141.511 168.497C137.226 170.635 135.898 173.649 135.084 176.21C134.965 176.584 134.863 176.925 134.768 177.241C134.528 178.04 134.336 178.677 134.051 179.278C133.701 180.012 133.283 180.507 132.593 180.851C131.993 181.15 130.676 181.377 129.268 181.095C127.917 180.825 126.743 180.145 126.088 178.925L110.571 150.028L109.769 148.536L108.254 149.292L77.7037 164.54L77.6963 164.526C76.2055 165.27 75.0896 165.077 74.2318 164.622C73.2756 164.116 72.5189 163.206 72.106 162.437C71.7759 161.822 71.7375 161.217 71.9284 160.403C72.0831 159.744 72.3407 159.106 72.662 158.31L72.6623 158.309C72.794 157.983 72.9364 157.631 73.0868 157.239C73.5684 155.985 74.0545 154.492 74.1119 152.768C74.1701 151.017 73.7842 149.118 72.6649 147.033C70.4148 142.843 66.5856 140.764 62.4092 140.261C58.2939 139.765 53.8264 140.782 49.9587 142.713C46.0909 144.643 42.6506 147.573 40.695 151.099C38.7103 154.677 38.2606 158.891 40.5107 163.081ZM79.2898 167.516C76.7746 168.768 74.4652 168.526 72.6365 167.557C70.9039 166.64 69.7116 165.136 69.0745 163.95C68.2496 162.414 68.2726 160.935 68.5851 159.603C68.8013 158.681 69.1979 157.7 69.5527 156.823L69.5529 156.822C69.6664 156.542 69.7756 156.271 69.8733 156.017C70.3124 154.874 70.6453 153.782 70.6845 152.602C70.7229 151.45 70.483 150.128 69.6335 148.546C67.9984 145.501 65.2735 143.971 62.0468 143.582C58.759 143.186 54.9745 143.994 51.5616 145.697C48.1486 147.401 45.2795 149.914 43.7171 152.73C42.1838 155.495 41.9071 158.524 43.5421 161.568C45.1526 164.567 47.3497 165.416 49.7184 166.035C49.9866 166.105 50.2735 166.175 50.5711 166.248L50.5713 166.248L50.5713 166.248C51.5288 166.483 52.5974 166.744 53.5127 167.115C54.8212 167.645 56.0876 168.486 56.9115 170.02C57.7383 171.56 57.67 173.751 56.9917 175.675C56.3425 177.515 55.0447 179.396 52.9412 180.64L52.9599 180.674L23.7152 195.27L38.3805 222.58C39.0356 223.8 40.2091 224.48 41.5606 224.75C42.9684 225.032 44.2851 224.806 44.8856 224.506C45.5737 224.162 45.9841 223.673 46.323 222.95C46.6015 222.355 46.785 221.725 47.0158 220.932L47.0159 220.932L47.016 220.931C47.1076 220.617 47.2067 220.277 47.3221 219.903C47.7011 218.676 48.218 217.264 49.2002 215.897C50.1946 214.513 51.6125 213.245 53.7021 212.202C57.9319 210.091 62.1662 210.358 65.7914 212.09C69.3616 213.796 72.2885 216.887 74.1756 220.401C76.0627 223.915 76.9914 228.004 76.375 231.799C75.7492 235.652 73.5309 239.14 69.3012 241.251C65.0173 243.389 61.6975 242.696 59.0648 241.849C58.6618 241.719 58.3009 241.597 57.9681 241.484L57.9671 241.483L57.967 241.483C57.1776 241.215 56.5468 241.001 55.8912 240.876C55.0787 240.722 54.4451 240.762 53.7908 241.089C53.2073 241.38 52.2633 242.296 51.6874 243.592C51.133 244.838 51.0413 246.153 51.6643 247.317L51.6667 247.322L66.2944 274.134L92.3415 261.134L97.5623 258.529L102.891 255.869L107.908 253.365L114.159 250.246L114.159 250.245L114.159 250.245L114.159 250.245L114.16 250.245L114.16 250.245L114.161 250.245L114.161 250.244L114.162 250.244L114.163 250.243L114.164 250.243L114.165 250.243L114.166 250.242L114.167 250.241L114.168 250.241L114.169 250.24L114.171 250.24L114.172 250.239L114.174 250.238L114.175 250.237L114.177 250.236L114.179 250.235L114.181 250.235L114.183 250.234L114.185 250.233L114.187 250.231L114.189 250.23L114.191 250.229L114.193 250.228L114.196 250.227L114.198 250.226L114.201 250.224L114.204 250.223L114.206 250.222L114.209 250.22L114.212 250.219L114.215 250.217L114.218 250.216L114.221 250.214L114.225 250.213L114.228 250.211L114.231 250.209L114.235 250.208L114.238 250.206L114.242 250.204L114.246 250.202L114.249 250.2L114.253 250.198L114.257 250.196L114.261 250.194L114.265 250.192L114.269 250.19L114.273 250.188L114.278 250.186L114.282 250.184L114.287 250.182L114.291 250.179L114.296 250.177L114.3 250.175L114.305 250.172L114.31 250.17L114.315 250.168L114.32 250.165L114.325 250.163L114.33 250.16L114.335 250.157L114.34 250.155L114.346 250.152L114.351 250.149L114.357 250.147L114.362 250.144L114.368 250.141L114.374 250.138L114.379 250.135L114.385 250.132L114.391 250.129L114.397 250.126L114.403 250.123L114.409 250.12L114.416 250.117L114.422 250.114L114.428 250.111L114.435 250.108L114.441 250.104L114.448 250.101L114.454 250.098L114.461 250.095L114.468 250.091L114.475 250.088L114.482 250.084L114.489 250.081L114.496 250.077L114.503 250.074L114.51 250.07L114.517 250.066L114.525 250.063L114.532 250.059L114.54 250.055L114.547 250.052L114.555 250.048L114.562 250.044L114.57 250.04L114.578 250.036L114.586 250.032L114.594 250.028L114.602 250.024L114.61 250.02L114.618 250.016L114.626 250.012L114.635 250.008L114.643 250.004L114.651 250L114.66 249.995L114.668 249.991L114.677 249.987L114.686 249.982L114.694 249.978L114.703 249.974L114.712 249.969L114.721 249.965L114.73 249.96L114.739 249.956L114.748 249.951L114.758 249.947L114.767 249.942L114.776 249.937L114.786 249.933L114.795 249.928L114.805 249.923L114.814 249.918L114.824 249.913L114.834 249.909L114.843 249.904L114.853 249.899L114.863 249.894L114.873 249.889L114.883 249.884L114.893 249.879L114.903 249.874L114.914 249.869L114.924 249.864L114.934 249.858L114.945 249.853L114.955 249.848L114.966 249.843L114.976 249.837L114.987 249.832L114.997 249.827L115.008 249.821L115.019 249.816L115.03 249.811L115.041 249.805L115.052 249.8L115.063 249.794L115.074 249.789L115.085 249.783L115.097 249.777L115.108 249.772L115.119 249.766L115.131 249.76L115.142 249.755L115.154 249.749L115.165 249.743L115.177 249.737L115.189 249.731L115.2 249.726L115.212 249.72L115.224 249.714L115.236 249.708L115.248 249.702L115.26 249.696L115.272 249.69L115.284 249.684L115.297 249.678L115.309 249.671L115.321 249.665L115.334 249.659L115.346 249.653L115.358 249.647L115.371 249.64L115.384 249.634L115.396 249.628L115.409 249.621L115.422 249.615L115.435 249.609L115.448 249.602L115.46 249.596L115.473 249.589L115.487 249.583L115.5 249.576L115.513 249.57L115.526 249.563L115.539 249.556L115.553 249.55L115.566 249.543L115.579 249.536L115.593 249.53L115.606 249.523L115.62 249.516L115.634 249.509L115.647 249.503L115.661 249.496L115.675 249.489L115.689 249.482L115.702 249.475L115.716 249.468L115.73 249.461L115.744 249.454L115.758 249.447L115.773 249.44L115.787 249.433L115.801 249.426L115.815 249.419L115.83 249.412L115.844 249.404L115.858 249.397L115.873 249.39L115.887 249.383L115.902 249.375L115.917 249.368L115.931 249.361L115.946 249.353L115.961 249.346L115.976 249.339L115.991 249.331L116.005 249.324L116.02 249.316L116.035 249.309L116.051 249.301L116.066 249.294L116.081 249.286L116.096 249.279L116.111 249.271L116.127 249.263L116.142 249.256L116.157 249.248L116.173 249.24L116.188 249.233L116.204 249.225L116.219 249.217L116.235 249.209L116.251 249.201L116.266 249.194L116.282 249.186L116.298 249.178L116.314 249.17L116.329 249.162L116.345 249.154L116.361 249.146L116.377 249.138L116.393 249.13L116.41 249.122L116.426 249.114L116.442 249.106L116.458 249.098L116.474 249.09L116.491 249.082L116.507 249.073L116.523 249.065L116.54 249.057L116.556 249.049L116.573 249.041L116.589 249.032L116.606 249.024L116.623 249.016L116.639 249.007L116.656 248.999L116.673 248.991L116.69 248.982L116.707 248.974L116.723 248.965L116.74 248.957L116.757 248.948L116.774 248.94L116.791 248.931L116.809 248.923L116.826 248.914L116.843 248.906L116.86 248.897L116.877 248.889L116.895 248.88L116.912 248.871L116.929 248.863L116.947 248.854L116.964 248.845L116.982 248.837L116.999 248.828L117.017 248.819L117.034 248.81L117.052 248.801L117.07 248.793L117.087 248.784L117.105 248.775L117.123 248.766L117.141 248.757L117.158 248.748L117.176 248.739L117.194 248.73L117.212 248.721L117.23 248.713L117.248 248.704L117.266 248.694L117.284 248.685L117.302 248.676L117.321 248.667L117.339 248.658L117.357 248.649L117.375 248.64L117.394 248.631L117.412 248.622L117.43 248.613L117.449 248.603L117.467 248.594L117.486 248.585L117.504 248.576L117.523 248.567L117.541 248.557L117.56 248.548L117.578 248.539L117.597 248.529L117.616 248.52L117.635 248.511L117.653 248.501L117.672 248.492L117.691 248.483L117.71 248.473L117.729 248.464L117.748 248.454L117.767 248.445L117.786 248.435L117.805 248.426L117.824 248.416L117.843 248.407L117.862 248.397L117.881 248.388L117.9 248.378L117.919 248.369L117.938 248.359L117.958 248.349L117.977 248.34L117.996 248.33L118.016 248.321L118.035 248.311L118.054 248.301L118.074 248.291L118.093 248.282L118.113 248.272L118.132 248.262L118.152 248.253L118.171 248.243L118.191 248.233L118.21 248.223L118.23 248.213L118.25 248.204L118.269 248.194L118.289 248.184L118.309 248.174L118.329 248.164L118.348 248.154L118.368 248.144L118.388 248.135L118.408 248.125L118.428 248.115L118.448 248.105L118.468 248.095L118.488 248.085L118.508 248.075L118.528 248.065L118.548 248.055L118.568 248.045L118.588 248.035L118.608 248.025L118.628 248.015L118.648 248.005L118.668 247.995L118.689 247.985L118.709 247.974L118.729 247.964L118.749 247.954L118.77 247.944L118.79 247.934L118.81 247.924L118.831 247.914L118.851 247.904L118.871 247.893L118.892 247.883L118.912 247.873L118.933 247.863L118.953 247.852L118.974 247.842L118.994 247.832L119.015 247.822L119.035 247.811L119.056 247.801L119.077 247.791L119.097 247.781L119.118 247.77L119.139 247.76L119.159 247.75L119.18 247.739L119.201 247.729L119.221 247.719L119.242 247.708L119.263 247.698L119.284 247.688L119.305 247.677L119.325 247.667L119.346 247.656L119.367 247.646L119.388 247.635L119.409 247.625L119.43 247.615L119.451 247.604L119.472 247.594L119.493 247.583L119.514 247.573L119.535 247.562L119.556 247.552L119.577 247.541L119.598 247.531L119.619 247.52L119.64 247.51L119.661 247.499L119.682 247.489L119.703 247.478L119.724 247.468L119.746 247.457L119.767 247.446L119.788 247.436L119.809 247.425L119.83 247.415L119.852 247.404L119.873 247.394L119.894 247.383L119.915 247.372L119.937 247.362L119.958 247.351L119.979 247.34L120.001 247.33L120.022 247.319L120.043 247.308L120.065 247.298L120.086 247.287L120.107 247.276L120.129 247.266L120.15 247.255L120.172 247.244L120.193 247.234L120.214 247.223L120.236 247.212L120.257 247.202L120.279 247.191L120.3 247.18L120.322 247.169L120.343 247.159L120.365 247.148L120.386 247.137L120.408 247.127L120.429 247.116L120.451 247.105L120.472 247.094L120.494 247.084L120.516 247.073L120.537 247.062L120.559 247.051L120.58 247.04L120.602 247.03L120.624 247.019L120.645 247.008L120.667 246.997L120.688 246.986L120.71 246.976L120.732 246.965L120.753 246.954L120.775 246.943L120.797 246.932L120.818 246.922L120.84 246.911L120.862 246.9L120.883 246.889L120.905 246.878L120.927 246.867L120.949 246.857L120.97 246.846L120.992 246.835L121.014 246.824L121.035 246.813L121.057 246.802L121.079 246.792L121.101 246.781L121.122 246.77L121.144 246.759L121.166 246.748L121.188 246.737L121.209 246.726L121.231 246.716L121.253 246.705L121.275 246.694L121.297 246.683L121.318 246.672L121.34 246.661L121.362 246.65L121.384 246.64L121.405 246.629L121.427 246.618L121.449 246.607L121.471 246.596L121.493 246.585L121.514 246.574L121.536 246.563L121.558 246.553L121.575 246.544L121.58 246.542L150.553 231.904L136.343 205.18L136.341 205.177C135.071 202.809 135.384 200.388 136.231 198.515C137.055 196.693 138.486 195.153 139.896 194.449C141.419 193.689 142.883 193.662 144.235 193.913C145.167 194.087 146.159 194.424 147.04 194.723L147.041 194.724C147.322 194.819 147.592 194.911 147.845 194.992C148.985 195.359 150.084 195.634 151.288 195.64C152.473 195.645 153.848 195.388 155.507 194.561C158.716 192.959 160.327 190.404 160.796 187.514C161.275 184.566 160.564 181.211 158.952 178.209C157.34 175.207 154.909 172.711 152.135 171.386C149.417 170.087 146.322 169.881 143.113 171.482C139.959 173.057 139.04 175.116 138.361 177.252C138.283 177.495 138.205 177.756 138.124 178.028L138.124 178.028C137.861 178.903 137.567 179.886 137.165 180.73C136.59 181.939 135.718 183.076 134.196 183.836C132.786 184.539 130.655 184.777 128.637 184.373C126.561 183.959 124.329 182.807 123.057 180.438L108.341 153.034L79.2972 167.529L79.2898 167.516Z" fill="url(#paint0_linear_3665_76077)"/>
</g>
<g clip-path="url(#clip2_3665_76077)">
<mask id="mask1_3665_76077" style="mask-type:luminance" maskUnits="userSpaceOnUse" x="188" y="61" width="108" height="135">
<path d="M190.582 63.89L191.722 193.461L293.982 192.625L292.842 63.0541L190.582 63.89Z" fill="white" stroke="white" stroke-width="3.38805" stroke-miterlimit="10"/>
</mask>
<g mask="url(#mask1_3665_76077)">
<path d="M193.461 191.284L227.602 191.284C231.908 191.248 236.706 191.291 236.706 191.291L239.74 191.291L243.535 191.291L250.361 191.291C250.361 191.291 253.491 191.325 257.685 191.291L292.252 191.008L291.961 157.883C291.925 153.755 287.598 151.51 285.331 151.528C280.344 151.569 280.067 158.74 271.567 158.81C254.793 158.947 254.53 128.971 271.304 128.834C279.69 128.765 280.207 135.93 285.194 135.889C287.46 135.87 291.746 133.446 291.711 129.427L291.419 96.3012L256.965 96.5828C252.658 96.6181 250.242 92.5103 250.223 90.3382C250.181 85.5594 257.658 85.1724 257.586 77.0267C257.445 60.9527 226.164 61.2084 226.306 77.2824C226.376 85.3196 233.86 85.6928 233.902 90.4716C233.921 92.6437 231.578 96.7904 227.271 96.8256L192.59 97.1091L192.88 130.126C192.917 134.254 197.243 136.499 199.51 136.481C204.384 136.441 204.774 129.269 213.161 129.2C229.935 129.063 230.198 159.039 213.424 159.176C205.038 159.245 204.521 152.08 199.648 152.12C197.381 152.139 193.095 154.563 193.131 158.582L193.461 191.284Z" fill="#3C7A91" fill-opacity="0.7" stroke="#999999" stroke-width="0.758671" stroke-miterlimit="10"/>
</g>
</g>
<g clip-path="url(#clip3_3665_76077)">
<mask id="mask2_3665_76077" style="mask-type:luminance" maskUnits="userSpaceOnUse" x="191" y="0" width="136" height="99">
<path d="M326.229 0.386719L191.186 0.386719V98.3954L326.229 98.3954V0.386719Z" fill="white"/>
</mask>
<g mask="url(#mask2_3665_76077)">
<path d="M192.884 2.03125V35.1617C192.884 39.2895 197.185 41.5706 199.449 41.5706C204.43 41.5706 204.769 34.4014 213.146 34.4014C229.899 34.4014 229.899 64.3818 213.146 64.3818C204.769 64.3818 204.317 57.2125 199.449 57.2125C197.185 57.2125 192.884 59.6023 192.884 63.6214V96.752H227.409C231.71 96.752 234.087 92.6242 234.087 90.4518C234.087 85.6722 226.616 85.3464 226.616 77.1996C226.616 61.1231 257.859 61.1231 257.859 77.1996C257.859 85.2377 250.388 85.6722 250.388 90.4518C250.388 92.6242 252.878 96.752 257.066 96.752H291.591V63.7301C291.591 59.6023 295.893 57.3212 298.156 57.3212C303.137 57.3212 303.477 64.4905 311.966 64.4905C328.719 64.4905 328.719 34.5101 311.966 34.5101C303.59 34.5101 303.137 41.6793 298.156 41.6793C295.893 41.6793 291.591 39.3982 291.591 35.2704V2.03125L257.179 2.03125C252.878 2.03125 248.845 2.03125 248.845 2.03125L244.293 2.03125H238.982L234.43 2.03125C234.43 2.03125 231.71 2.03125 227.522 2.03125L192.884 2.03125Z" fill="#3C7A91" fill-opacity="0.85" stroke="#999999" stroke-width="0.758671" stroke-miterlimit="10"/>
</g>
</g>
<defs>
<linearGradient id="paint0_linear_3665_76077" x1="64.1826" y1="281.44" x2="130.689" y2="134.484" gradientUnits="userSpaceOnUse">
<stop stop-color="#C6192E"/>
<stop offset="0.1" stop-color="#C6192E"/>
<stop offset="0.9" stop-color="#348097"/>
<stop offset="1" stop-color="#348097"/>
</linearGradient>
<clipPath id="clip0_3665_76077">
<rect width="135.043" height="98.0086" fill="white" transform="translate(92.5576 0.386719)"/>
</clipPath>
<clipPath id="clip1_3665_76077">
<rect width="134.032" height="137.129" fill="white" transform="matrix(0.89475 -0.446568 0.473101 0.881008 0 158.25)"/>
</clipPath>
<clipPath id="clip2_3665_76077">
<rect width="129.576" height="102.264" fill="white" transform="matrix(-0.00879557 -0.999961 0.999967 -0.00817482 191.722 193.461)"/>
</clipPath>
<clipPath id="clip3_3665_76077">
<rect width="135.043" height="98.0086" fill="white" transform="translate(191.186 0.386719)"/>
</clipPath>
</defs>
</svg>
