<svg xmlns="http://www.w3.org/2000/svg" width="161" height="161" viewBox="0 0 161 161" fill="none">
<g clip-path="url(#clip0_450_3060)">
<mask id="mask0_450_3060" style="mask-type:luminance" maskUnits="userSpaceOnUse" x="0" y="0" width="161" height="161">
<path d="M160.5 0.5H0.5V160.5H160.5V0.5Z" fill="white"/>
</mask>
<g mask="url(#mask0_450_3060)">
<path d="M103.185 103.173L93.084 93.074M56.3774 26.007C58.2746 26.0007 60.1634 26.2605 61.9899 26.78C63.7353 27.2662 65.3998 28.0163 66.9229 29.0013C68.4086 29.9592 69.7177 31.1706 70.792 32.5774C71.8663 34.0215 72.6601 35.6568 73.1297 37.394C73.6762 39.4511 73.7946 41.5997 73.4809 43.7067C73.1962 45.4397 72.5936 47.1041 71.7043 48.6169C70.9209 49.9488 69.9713 51.1748 68.8741 52.2636C68.0284 53.1073 67.1223 53.8886 66.1623 54.6013C65.0236 55.4408 63.9494 56.3634 62.9478 57.3608C61.4953 58.4351 60.4377 59.9602 59.9432 61.6973C59.6626 62.7134 59.5463 63.7088 59.3946 64.4091C58.9022 67.0688 56.6143 69.02 53.9109 69.0844C50.9104 69.0719 48.473 66.6615 48.4294 63.661C48.4917 60.5316 49.2482 57.4542 50.6383 54.649C52.3983 52.1618 54.5323 49.9613 56.9613 48.1244L58.3057 46.9566C58.9021 46.4807 59.4569 45.9571 59.966 45.3898C60.4979 44.8101 60.9427 44.1556 61.2876 43.4491C61.6305 42.782 61.726 42.0173 61.5556 41.2859C61.2917 40.3862 60.7826 39.5758 60.0844 38.9482C59.6502 38.5244 59.1203 38.2127 58.5406 38.0361C57.8528 37.8407 57.1401 37.7472 56.4253 37.7555C54.7671 37.7701 53.1484 38.248 51.7479 39.1353C50.3515 39.9664 49.1131 41.0387 48.0907 42.3041C47.0185 43.7337 45.352 44.594 43.5649 44.6418C40.5104 44.6356 38.0314 42.167 38.0127 39.1124C38.0294 37.741 38.5406 36.4215 39.4507 35.395C39.9058 34.8465 40.3505 34.2251 40.8887 33.6288C42.0814 32.2927 43.4091 31.0812 44.8512 30.0173C46.4138 28.8329 48.1385 27.8812 49.9712 27.1893C52.02 26.4163 54.1894 26.0215 56.3774 26.0195V26.007ZM54.2747 75.3514C57.9796 75.3452 60.9883 78.3436 60.9946 82.0485C61.0008 85.7555 58.0024 88.7644 54.2975 88.7706C50.5905 88.7769 47.5817 85.7784 47.5754 82.0734C47.5754 82.0651 47.5754 82.0568 47.5754 82.0485C47.5692 78.3561 50.5572 75.3576 54.2497 75.3514C54.258 75.3514 54.2663 75.3514 54.2747 75.3514ZM108.269 98.1233L156.641 146.495C157.984 147.833 158.74 149.652 158.746 151.547C158.734 155.499 155.534 158.699 151.582 158.711C149.687 158.705 147.868 157.949 146.53 156.609L98.1582 108.234L108.269 98.1233ZM55.2554 2.28955C25.9962 2.30825 2.29332 26.0444 2.31202 55.3036C2.33072 84.5628 26.0668 108.266 55.3261 108.247C84.5853 108.226 108.288 84.4922 108.269 55.2329C108.269 55.2288 108.269 55.2247 108.269 55.2205C108.263 25.9821 84.5541 2.28332 55.3136 2.28955C55.2949 2.28955 55.2762 2.28955 55.2554 2.28955Z" stroke="url(#paint0_linear_450_3060)" stroke-width="3.50697" stroke-linecap="round" stroke-linejoin="round"/>
</g>
</g>
<defs>
<linearGradient id="paint0_linear_450_3060" x1="48.498" y1="125.909" x2="125.909" y2="48.488" gradientUnits="userSpaceOnUse">
<stop stop-color="#C6192E"/>
<stop offset="0.1" stop-color="#C6192E"/>
<stop offset="0.11" stop-color="#C31B30"/>
<stop offset="0.47" stop-color="#765167"/>
<stop offset="0.72" stop-color="#46738A"/>
<stop offset="0.85" stop-color="#348097"/>
<stop offset="1" stop-color="#348097"/>
</linearGradient>
<clipPath id="clip0_450_3060">
<rect width="160" height="160" fill="white" transform="translate(0.5 0.5)"/>
</clipPath>
</defs>
</svg>