<svg width="19" height="19" viewBox="0 0 19 19" fill="none" xmlns="http://www.w3.org/2000/svg">
<g clip-path="url(#clip0_901_11029)">
<mask id="path-1-outside-1_901_11029" maskUnits="userSpaceOnUse" x="0.569824" y="1.78418" width="18" height="16" fill="currentColor">
<rect fill="currentColor" x="0.569824" y="1.78418" width="18" height="16"/>
<path d="M15.6045 16.7842L9.90307 11.0828H9.1158C8.81663 11.7913 8.34165 12.3613 7.69084 12.7927C7.04003 13.2241 6.31181 13.4399 5.50617 13.4399C4.41606 13.4399 3.48761 13.0565 2.72081 12.2897C1.95401 11.5229 1.57035 10.5941 1.56982 9.50352C1.56982 8.58714 1.85114 7.77809 2.41378 7.07637C2.97641 6.37517 3.69283 5.93063 4.56302 5.74274L2.16185 3.34157L2.72396 2.78418L16.1619 16.2268L15.6045 16.7842ZM16.361 7.92898L17.9356 9.50352L15.4084 11.9999L13.8481 10.686L13.2734 11.1103L12.9703 10.8072L14.0905 10.0034L15.3714 10.96L16.8326 9.50352L16.0453 8.71625H10.8793L10.092 7.92898H16.361ZM5.50617 12.6526C6.17535 12.6526 6.79178 12.4521 7.35546 12.0511C7.91915 11.6496 8.30412 11.0946 8.51039 10.386H9.20633L8.14982 9.32953L7.21769 8.39741L6.28635 7.46528L5.22905 6.40955C4.35938 6.46414 3.66317 6.80607 3.14043 7.43536C2.6182 8.06465 2.35709 8.75404 2.35709 9.50352C2.35709 10.3695 2.66544 11.1109 3.28213 11.7276C3.89883 12.3442 4.64017 12.6526 5.50617 12.6526ZM5.50617 10.4719C5.23482 10.4719 5.00547 10.3784 4.8181 10.1916C4.63073 10.0047 4.53704 9.77539 4.53704 9.50352C4.53704 9.23165 4.63073 9.00229 4.8181 8.81545C5.00547 8.6286 5.23482 8.53492 5.50617 8.53439C5.77751 8.53387 6.00687 8.62755 6.19424 8.81545C6.38161 9.00334 6.4753 9.2327 6.4753 9.50352C6.4753 9.77434 6.38161 10.0037 6.19424 10.1916C6.00687 10.3795 5.77751 10.4732 5.50617 10.4726"/>
</mask>
<path d="M15.6045 16.7842L9.90307 11.0828H9.1158C8.81663 11.7913 8.34165 12.3613 7.69084 12.7927C7.04003 13.2241 6.31181 13.4399 5.50617 13.4399C4.41606 13.4399 3.48761 13.0565 2.72081 12.2897C1.95401 11.5229 1.57035 10.5941 1.56982 9.50352C1.56982 8.58714 1.85114 7.77809 2.41378 7.07637C2.97641 6.37517 3.69283 5.93063 4.56302 5.74274L2.16185 3.34157L2.72396 2.78418L16.1619 16.2268L15.6045 16.7842ZM16.361 7.92898L17.9356 9.50352L15.4084 11.9999L13.8481 10.686L13.2734 11.1103L12.9703 10.8072L14.0905 10.0034L15.3714 10.96L16.8326 9.50352L16.0453 8.71625H10.8793L10.092 7.92898H16.361ZM5.50617 12.6526C6.17535 12.6526 6.79178 12.4521 7.35546 12.0511C7.91915 11.6496 8.30412 11.0946 8.51039 10.386H9.20633L8.14982 9.32953L7.21769 8.39741L6.28635 7.46528L5.22905 6.40955C4.35938 6.46414 3.66317 6.80607 3.14043 7.43536C2.6182 8.06465 2.35709 8.75404 2.35709 9.50352C2.35709 10.3695 2.66544 11.1109 3.28213 11.7276C3.89883 12.3442 4.64017 12.6526 5.50617 12.6526ZM5.50617 10.4719C5.23482 10.4719 5.00547 10.3784 4.8181 10.1916C4.63073 10.0047 4.53704 9.77539 4.53704 9.50352C4.53704 9.23165 4.63073 9.00229 4.8181 8.81545C5.00547 8.6286 5.23482 8.53492 5.50617 8.53439C5.77751 8.53387 6.00687 8.62755 6.19424 8.81545C6.38161 9.00334 6.4753 9.2327 6.4753 9.50352C6.4753 9.77434 6.38161 10.0037 6.19424 10.1916C6.00687 10.3795 5.77751 10.4732 5.50617 10.4726" fill="currentColor"/>
<path d="M15.6045 16.7842L15.5338 16.8549L15.6045 16.9256L15.6752 16.8549L15.6045 16.7842ZM9.90307 11.0828L9.97378 11.0121L9.94449 10.9828H9.90307V11.0828ZM9.1158 11.0828V10.9828H9.04947L9.02367 11.0439L9.1158 11.0828ZM1.56982 9.50352H1.46982L1.46982 9.50357L1.56982 9.50352ZM2.41378 7.07637L2.33578 7.01379L2.33576 7.01381L2.41378 7.07637ZM4.56302 5.74274L4.58413 5.84048L4.76347 5.80176L4.63373 5.67203L4.56302 5.74274ZM2.16185 3.34157L2.09144 3.27056L2.02013 3.34127L2.09114 3.41228L2.16185 3.34157ZM2.72396 2.78418L2.79468 2.71348L2.72427 2.64304L2.65355 2.71317L2.72396 2.78418ZM16.1619 16.2268L16.2326 16.2975L16.3033 16.2268L16.2326 16.1561L16.1619 16.2268ZM16.361 7.92898L16.4317 7.85827L16.4025 7.82898H16.361V7.92898ZM17.9356 9.50352L18.0058 9.57466L18.0774 9.50395L18.0063 9.43281L17.9356 9.50352ZM15.4084 11.9999L15.344 12.0764L15.4138 12.1352L15.4787 12.0711L15.4084 11.9999ZM13.8481 10.686L13.9125 10.6095L13.8521 10.5587L13.7887 10.6055L13.8481 10.686ZM13.2734 11.1103L13.2027 11.181L13.2635 11.2419L13.3328 11.1908L13.2734 11.1103ZM12.9703 10.8072L12.912 10.726L12.8163 10.7947L12.8996 10.8779L12.9703 10.8072ZM14.0905 10.0034L14.1504 9.92331L14.0917 9.87951L14.0323 9.92218L14.0905 10.0034ZM15.3714 10.96L15.3116 11.0401L15.3808 11.0918L15.442 11.0308L15.3714 10.96ZM16.8326 9.50352L16.9032 9.57434L16.9741 9.50363L16.9033 9.43281L16.8326 9.50352ZM16.0453 8.71625L16.116 8.64554L16.0868 8.61625H16.0453V8.71625ZM10.8793 8.71625L10.8086 8.78696L10.8379 8.81625H10.8793V8.71625ZM10.092 7.92898V7.82898H9.85059L10.0213 7.99969L10.092 7.92898ZM5.50617 12.6526V12.7526V12.6526ZM7.35546 12.0511L7.41343 12.1326L7.41348 12.1326L7.35546 12.0511ZM8.51039 10.386V10.286H8.43535L8.41437 10.3581L8.51039 10.386ZM9.20633 10.386V10.486H9.44775L9.27704 10.3153L9.20633 10.386ZM7.21769 8.39741L7.14695 8.46809L7.14698 8.46812L7.21769 8.39741ZM6.28635 7.46528L6.35709 7.3946L6.35701 7.39452L6.28635 7.46528ZM5.22905 6.40955L5.29971 6.33879L5.2678 6.30692L5.22279 6.30975L5.22905 6.40955ZM3.14043 7.43536L3.0635 7.37147L3.06347 7.3715L3.14043 7.43536ZM15.6752 16.7135L9.97378 11.0121L9.83235 11.1535L15.5338 16.8549L15.6752 16.7135ZM9.90307 10.9828H9.1158V11.1828H9.90307V10.9828ZM9.02367 11.0439C8.73228 11.734 8.27027 12.2886 7.63559 12.7094L7.74609 12.8761C8.41303 12.434 8.90098 11.8486 9.20792 11.1217L9.02367 11.0439ZM7.63559 12.7094C7.0017 13.1296 6.29282 13.3399 5.50617 13.3399V13.5399C6.3308 13.5399 7.07836 13.3187 7.74609 12.8761L7.63559 12.7094ZM5.50617 13.3399C4.44243 13.3399 3.53946 12.9669 2.79152 12.219L2.6501 12.3604C3.43576 13.146 4.3897 13.5399 5.50617 13.5399V13.3399ZM2.79152 12.219C2.04358 11.471 1.67034 10.5678 1.66982 9.50347L1.46982 9.50357C1.47036 10.6205 1.86444 11.5747 2.6501 12.3604L2.79152 12.219ZM1.66982 9.50352C1.66982 8.60942 1.94368 7.82254 2.4918 7.13892L2.33576 7.01381C1.75861 7.73364 1.46982 8.56486 1.46982 9.50352H1.66982ZM2.49177 7.13895C3.0402 6.45547 3.73661 6.02348 4.58413 5.84048L4.54191 5.64499C3.64904 5.83778 2.91263 6.29488 2.33578 7.01379L2.49177 7.13895ZM4.63373 5.67203L2.23256 3.27086L2.09114 3.41228L4.49231 5.81345L4.63373 5.67203ZM2.23226 3.41257L2.79437 2.85519L2.65355 2.71317L2.09144 3.27056L2.23226 3.41257ZM2.65324 2.85488L16.0911 16.2975L16.2326 16.1561L2.79468 2.71348L2.65324 2.85488ZM16.0911 16.1561L15.5338 16.7135L15.6752 16.8549L16.2326 16.2975L16.0911 16.1561ZM16.2903 7.99969L17.8649 9.57423L18.0063 9.43281L16.4317 7.85827L16.2903 7.99969ZM17.8653 9.43238L15.3382 11.9288L15.4787 12.0711L18.0058 9.57466L17.8653 9.43238ZM15.4728 11.9235L13.9125 10.6095L13.7837 10.7625L15.344 12.0764L15.4728 11.9235ZM13.7887 10.6055L13.214 11.0299L13.3328 11.1908L13.9075 10.7664L13.7887 10.6055ZM13.3441 11.0396L13.041 10.7365L12.8996 10.8779L13.2027 11.181L13.3441 11.0396ZM13.0286 10.8885L14.1488 10.0847L14.0323 9.92218L12.912 10.726L13.0286 10.8885ZM14.0307 10.0836L15.3116 11.0401L15.4313 10.8798L14.1504 9.92331L14.0307 10.0836ZM15.442 11.0308L16.9032 9.57434L16.762 9.43269L15.3008 10.8891L15.442 11.0308ZM16.9033 9.43281L16.116 8.64554L15.9746 8.78696L16.7619 9.57423L16.9033 9.43281ZM16.0453 8.61625H10.8793V8.81625H16.0453V8.61625ZM10.95 8.64554L10.1627 7.85827L10.0213 7.99969L10.8086 8.78696L10.95 8.64554ZM10.092 8.02898H16.361V7.82898H10.092V8.02898ZM5.50617 12.7526C6.19686 12.7526 6.83342 12.5452 7.41343 12.1326L7.2975 11.9696C6.75013 12.359 6.15384 12.5526 5.50617 12.5526V12.7526ZM7.41348 12.1326C7.99675 11.7171 8.3943 11.1426 8.6064 10.414L8.41437 10.3581C8.21395 11.0466 7.84155 11.5821 7.29745 11.9697L7.41348 12.1326ZM8.51039 10.486H9.20633V10.286H8.51039V10.486ZM9.27704 10.3153L8.22053 9.25882L8.07911 9.40024L9.13562 10.4568L9.27704 10.3153ZM8.22053 9.25882L7.2884 8.3267L7.14698 8.46812L8.07911 9.40024L8.22053 9.25882ZM7.28843 8.32673L6.35709 7.3946L6.21561 7.53596L7.14695 8.46809L7.28843 8.32673ZM6.35701 7.39452L5.29971 6.33879L5.15839 6.48032L6.21569 7.53604L6.35701 7.39452ZM5.22279 6.30975C4.32763 6.36593 3.6051 6.71949 3.0635 7.37147L3.21735 7.49926C3.72125 6.89266 4.39113 6.56234 5.23531 6.50936L5.22279 6.30975ZM3.06347 7.3715C2.52781 8.01699 2.25709 8.72854 2.25709 9.50352H2.45709C2.45709 8.77954 2.7086 8.11232 3.21738 7.49922L3.06347 7.3715ZM2.25709 9.50352C2.25709 10.3962 2.57613 11.163 3.21142 11.7983L3.35284 11.6568C2.75475 11.0588 2.45709 10.3428 2.45709 9.50352H2.25709ZM3.21142 11.7983C3.84672 12.4336 4.61344 12.7526 5.50617 12.7526V12.5526C4.66691 12.5526 3.95093 12.2549 3.35284 11.6568L3.21142 11.7983ZM5.50617 10.3719C5.26054 10.3719 5.0568 10.2884 4.88871 10.1208L4.74748 10.2624C4.95413 10.4685 5.2091 10.5719 5.50617 10.5719V10.3719ZM4.88871 10.1208C4.72072 9.95327 4.63704 9.74963 4.63704 9.50352H4.43704C4.43704 9.80114 4.54073 10.0562 4.74748 10.2624L4.88871 10.1208ZM4.63704 9.50352C4.63704 9.2574 4.72072 9.05377 4.88871 8.88626L4.74748 8.74464C4.54073 8.95081 4.43704 9.20589 4.43704 9.50352H4.63704ZM4.88871 8.88626C5.05685 8.71858 5.26067 8.63487 5.50636 8.63439L5.50598 8.43439C5.20898 8.43497 4.95408 8.53862 4.74748 8.74464L4.88871 8.88626ZM5.50636 8.63439C5.75175 8.63392 5.95534 8.7175 6.12343 8.88606L6.26505 8.74483C6.0584 8.53761 5.80328 8.43382 5.50598 8.43439L5.50636 8.63439ZM6.12343 8.88606C6.29168 9.05478 6.3753 9.25856 6.3753 9.50352H6.5753C6.5753 9.20684 6.47154 8.9519 6.26505 8.74483L6.12343 8.88606ZM6.3753 9.50352C6.3753 9.74848 6.29168 9.95226 6.12343 10.121L6.26505 10.2622C6.47154 10.0551 6.5753 9.8002 6.5753 9.50352H6.3753ZM6.12343 10.121C5.95534 10.2895 5.75175 10.3731 5.50636 10.3726L5.50598 10.5726C5.80328 10.5732 6.0584 10.4694 6.26505 10.2622L6.12343 10.121Z" fill="currentColor" mask="url(#path-1-outside-1_901_11029)"/>
</g>
<defs>
<clipPath id="clip0_901_11029">
<rect width="18" height="18" fill="white" transform="translate(0.457031 0.516602)"/>
</clipPath>
</defs>
</svg>
