<svg width="19" height="18" viewBox="0 0 18 18" fill="none" xmlns="http://www.w3.org/2000/svg">
<path d="M15.9961 0.25H3.49648C2.11563 0.25 0.996406 1.36914 0.996328 2.75L0.996094 15.2148C0.996016 16.6289 2.11523 17.75 3.49609 17.75H12.5625C13.557 17.75 14.5109 17.3547 15.2145 16.6516L17.3973 14.4684C18.1016 13.7305 18.4961 12.8125 18.4961 11.8164V2.75C18.4961 1.375 17.3711 0.25 15.9961 0.25ZM3.0543 15.6914C2.98594 15.625 2.87109 15.4766 2.87109 15.25L2.87188 2.78516C2.87188 2.40547 3.15234 2.125 3.49687 2.125H15.9961C16.3349 2.125 16.6211 2.41125 16.6211 2.75V10.25H13.1836C11.9766 10.25 10.9961 11.2305 10.9961 12.4375V15.875H3.49609C3.2707 15.875 3.12266 15.7617 3.0543 15.6914ZM13.8906 15.3242C13.6094 15.6055 13.2539 15.7812 12.8711 15.8438V12.4375C12.8711 12.2654 13.0115 12.125 13.1836 12.125H16.591C16.5279 12.5083 16.3521 12.8625 16.0719 13.1426L13.8906 15.3242Z" fill="currentColor"/>
</svg>
