<svg width="24" height="24" viewBox="0 0 24 24" fill="none" xmlns="http://www.w3.org/2000/svg">
<path d="M10.2553 3.90956L2.25321 17.2685C2.08823 17.5542 2.00093 17.8781 2.00001 18.208C1.99908 18.538 2.08457 18.8624 2.24795 19.149C2.41133 19.4357 2.64692 19.6745 2.93127 19.8418C3.21563 20.0092 3.53884 20.0991 3.86875 20.1027H19.873C20.2029 20.0991 20.5261 20.0092 20.8104 19.8418C21.0948 19.6745 21.3304 19.4357 21.4938 19.149C21.6572 18.8624 21.7426 18.538 21.7417 18.208C21.7408 17.8781 21.6535 17.5542 21.4885 17.2685L13.4864 3.90956C13.318 3.6319 13.0808 3.40234 12.7979 3.24302C12.5149 3.0837 12.1956 3 11.8709 3C11.5461 3 11.2268 3.0837 10.9439 3.24302C10.6609 3.40234 10.4237 3.6319 10.2553 3.90956V3.90956Z" stroke="currentColor" stroke-width="1.88952" stroke-linecap="round" stroke-linejoin="round"/>
<path d="M11.8721 8.76562V12.5447" stroke="currentColor" stroke-width="1.88952" stroke-linecap="round" stroke-linejoin="round"/>
<path d="M11.8721 16.3237H11.8821" stroke="currentColor" stroke-width="1.88952" stroke-linecap="round" stroke-linejoin="round"/>
</svg>
