<svg width="24" height="24" viewBox="0 0 24 24" fill="none" xmlns="http://www.w3.org/2000/svg">
<path d="M2 2L22 22" stroke="currentColor" stroke-width="2" stroke-linecap="round" stroke-linejoin="round"/>
<path d="M10 5C11.33 5.19794 12.5748 5.77474 13.5856 6.66142C14.5964 7.54811 15.3305 8.70716 15.7 10H17.5C18.2632 10.0053 19.0126 10.2046 19.6776 10.5792C20.3426 10.9538 20.9014 11.4914 21.3014 12.1415C21.7014 12.7915 21.9295 13.5326 21.9643 14.295C21.999 15.0575 21.8392 15.8163 21.5 16.5" stroke="currentColor" stroke-width="2" stroke-linecap="round" stroke-linejoin="round"/>
<path d="M18.7995 18.7998C18.3995 18.9998 17.9995 18.9998 17.4995 18.9998H8.99955C7.43836 18.9888 5.92565 18.4562 4.70193 17.4867C3.4782 16.5172 2.61371 15.1665 2.24588 13.6492C1.87806 12.1319 2.02802 10.5352 2.67192 9.11294C3.31582 7.69068 4.41671 6.5245 5.79955 5.7998" stroke="currentColor" stroke-width="2" stroke-linecap="round" stroke-linejoin="round"/>
</svg>
