<svg width="24" height="24" viewBox="0 0 24 24" fill="none" xmlns="http://www.w3.org/2000/svg">
<path d="M20.0892 3.00768C19.7835 3.0363 19.4869 3.127 19.2174 3.27424L15.5607 5.21148L10.6207 4.00032L10.3301 3.92826L10.0396 4.07316L8.36887 5.04178L7.37623 5.62295L8.29603 6.32501L10.403 7.92362L7.76368 9.32851L4.92988 8.04451L4.59125 7.8996L4.25185 8.0693L2.89578 8.79538L2 9.27969L2.67803 10.0065L6.86713 14.5102L7.25457 14.9705L7.7877 14.6799L11.7831 12.549L10.9841 16.9558L10.7176 18.3607L12.0496 17.8036L14.0349 16.9558L14.3255 16.8349L14.4472 16.5443L17.3282 9.54625L21.3964 7.36647C22.5169 6.76438 22.9679 5.33857 22.3651 4.21884C22.2195 3.95151 22.0228 3.7155 21.7859 3.52429C21.5491 3.33309 21.277 3.19045 20.985 3.10454C20.6951 3.01641 20.3912 2.98355 20.0892 3.00768V3.00768ZM20.2341 4.55747C20.331 4.55127 20.4309 4.55437 20.5247 4.58227C20.6714 4.62317 20.8024 4.70727 20.9006 4.82364C20.9988 4.94001 21.0598 5.08325 21.0755 5.23473C21.0912 5.38621 21.061 5.53891 20.9887 5.67297C20.9165 5.80703 20.8055 5.91623 20.6704 5.98638L16.3356 8.33509L16.093 8.45598L15.9962 8.72254L13.1151 15.6486L12.7757 15.7935L13.5994 11.2169L13.89 9.64312L12.4851 10.394L7.59398 13.0333L4.51841 9.69116L4.6393 9.61832L7.47309 10.8783L7.83575 11.0472L8.15035 10.8535L19.9443 4.63031C20.0344 4.58505 20.1333 4.56018 20.2341 4.55747V4.55747ZM10.5239 5.57491L13.5026 6.30099L11.904 7.1247L10.1604 5.79266L10.5239 5.57491ZM2.48431 19.4502V21H22.6316V19.4502H2.48431Z" fill="currentColor"/>
</svg>
