<svg width="13" height="13" viewBox="0 0 13 13" fill="none" xmlns="http://www.w3.org/2000/svg">
<path d="M2.70833 11.375C2.41042 11.375 2.15529 11.2688 1.94296 11.0565C1.73063 10.8442 1.62464 10.5892 1.625 10.2917V2.70833C1.625 2.41042 1.73117 2.15529 1.9435 1.94296C2.15583 1.73063 2.41078 1.62464 2.70833 1.625H6.22917C6.37875 1.625 6.5 1.74626 6.5 1.89583V2.4375C6.5 2.58708 6.37875 2.70833 6.22917 2.70833H2.70833V10.2917H10.2917V6.77083C10.2917 6.62126 10.4129 6.5 10.5625 6.5H11.1042C11.2537 6.5 11.375 6.62126 11.375 6.77083V10.2917C11.375 10.5896 11.2688 10.8447 11.0565 11.057C10.8442 11.2694 10.5892 11.3754 10.2917 11.375H2.70833Z" fill="currentColor" />
<path d="M5.44594 8.31266C5.34017 8.41843 5.16869 8.41843 5.06292 8.31266L4.6876 7.93734C4.58183 7.83157 4.58183 7.66009 4.6876 7.55433L9.53359 2.70833H7.85443C7.70485 2.70833 7.58359 2.58708 7.58359 2.4375V1.89583C7.58359 1.74626 7.70485 1.625 7.85443 1.625H11.1044C11.254 1.625 11.3753 1.74626 11.3753 1.89583V5.14583C11.3753 5.29541 11.254 5.41667 11.1044 5.41667H10.5628C10.4132 5.41667 10.2919 5.29541 10.2919 5.14583V3.46667L5.44594 8.31266Z" fill="currentColor" />
</svg>
