<svg width="13" height="12" viewBox="0 0 13 12" fill="none" xmlns="http://www.w3.org/2000/svg">
<path d="M6.39233 12C3.07853 12 0.392334 9.3138 0.392334 6C0.392334 2.6862 3.07853 0 6.39233 0C9.70613 0 12.3923 2.6862 12.3923 6C12.3923 9.3138 9.70613 12 6.39233 12ZM6.39233 10.8C7.66537 10.8 8.88627 10.2943 9.78645 9.39411C10.6866 8.49394 11.1923 7.27304 11.1923 6C11.1923 4.72696 10.6866 3.50606 9.78645 2.60589C8.88627 1.70571 7.66537 1.2 6.39233 1.2C5.11929 1.2 3.8984 1.70571 2.99822 2.60589C2.09805 3.50606 1.59233 4.72696 1.59233 6C1.59233 7.27304 2.09805 8.49394 2.99822 9.39411C3.8984 10.2943 5.11929 10.8 6.39233 10.8ZM5.79233 6.4752C5.47649 6.33736 5.21775 6.09496 5.0596 5.78878C4.90146 5.4826 4.85357 5.1313 4.92397 4.79396C4.99438 4.45662 5.1788 4.15381 5.44621 3.93645C5.71362 3.71908 6.04772 3.60043 6.39233 3.60043C6.73694 3.60043 7.07105 3.71908 7.33846 3.93645C7.60587 4.15381 7.79029 4.45662 7.86069 4.79396C7.9311 5.1313 7.88321 5.4826 7.72506 5.78878C7.56692 6.09496 7.30817 6.33736 6.99233 6.4752L7.33846 8.4H5.44621L5.79233 6.4752Z" fill="currentColor"/>
</svg>
