<?xml version="1.0" encoding="utf-8"?>
<svg width="24" height="24" viewBox="0 0 24 24" fill="none" xmlns="http://www.w3.org/2000/svg">
  <path d="M 21 16 L 21 4 L 3 4 L 3 16 L 21 16 Z M 21 2 C 21.53 2 22.039 2.211 22.414 2.586 C 22.789 2.961 23 3.47 23 4 L 23 16 C 23 16.53 22.789 17.039 22.414 17.414 C 22.039 17.789 21.53 18 21 18 L 14 18 L 14 20 L 16 20 L 16 22 L 8 22 L 8 20 L 10 20 L 10 18 L 3 18 C 2.47 18 1.961 17.789 1.586 17.414 C 1.211 17.039 1 16.53 1 16 L 1 4 C 1 2.89 1.89 2 3 2 L 21 2 Z M 5 6 L 14 6 L 14 11 L 5 11 L 5 6 Z M 15 6 L 19 6 L 19 8 L 15 8 L 15 6 Z M 19 9 L 19 14 L 15 14 L 15 9 L 19 9 Z M 5 12 L 9 12 L 9 14 L 5 14 L 5 12 Z M 10 12 L 14 12 L 14 14 L 10 14 L 10 12 Z" fill="currentColor"/>
</svg>