<svg width="22" height="23" viewBox="0 0 22 23" fill="none" xmlns="http://www.w3.org/2000/svg">
<path fill-rule="evenodd" clip-rule="evenodd" d="M8.2004 11.0769C8.38643 10.9742 8.61357 10.9742 8.7996 11.0769L13.6885 13.7769C13.8809 13.8832 14 14.0831 14 14.2999V19.6999C14 19.9166 13.8809 20.1166 13.6885 20.2228L8.7996 22.9228C8.61357 23.0256 8.38643 23.0256 8.2004 22.9228L3.31151 20.2228C3.11908 20.1166 3 19.9166 3 19.6999V14.2999C3 14.0831 3.11908 13.8832 3.31151 13.7769L8.2004 11.0769ZM4.22222 15.3258L7.88889 17.3508V21.374L4.22222 19.349V15.3258ZM9.11111 21.374L12.7778 19.349V15.3258L9.11111 17.3508V21.374ZM8.5 16.3115L12.1424 14.2999L8.5 12.2883L4.85761 14.2999L8.5 16.3115Z" fill="currentColor"/>
<path d="M17.5 18.4999V13.9999M17.5 13.9999L19 15.4999M17.5 13.9999L16 15.4999" stroke="currentColor" stroke-linecap="round" stroke-linejoin="round"/>
<path d="M1.5 11.4999L10 3.49988L17 7.49988L20.5 5.49988" stroke="currentColor" stroke-width="1.5" stroke-linecap="round" stroke-linejoin="round"/>
<circle cx="9.5" cy="3.49988" r="2.75" fill="currentColor" stroke="#F5F6F8" stroke-width="0.5"/>
</svg>
