<svg width="31" height="31" viewBox="0 0 31 31" fill="none" xmlns="http://www.w3.org/2000/svg">
<path d="M22.5541 15.6019V10.2439C22.5542 10.1763 22.5409 10.1093 22.515 10.0468C22.4891 9.98426 22.4511 9.92747 22.4033 9.87966L19.705 7.18137C19.6086 7.0849 19.4779 7.03064 19.3416 7.03052H9.35413C9.21773 7.03052 9.08692 7.0847 8.99047 7.18115C8.89403 7.2776 8.83984 7.40841 8.83984 7.5448V23.6591C8.83984 23.7955 8.89403 23.9263 8.99047 24.0227C9.08692 24.1192 9.21773 24.1734 9.35413 24.1734H16.5541M12.2684 13.8877H19.1256M12.2684 10.4591H15.697M12.2684 17.3162H14.8398" stroke="currentColor" stroke-linecap="round" stroke-linejoin="round"/>
<path d="M19.125 7.03052V9.9448C19.125 10.0812 19.1792 10.212 19.2756 10.3085C19.3721 10.4049 19.5029 10.4591 19.6393 10.4591H22.5536M22.5467 18.2805L24.7376 18.8368C24.9656 18.8951 25.1259 19.1025 25.119 19.3374C24.9716 24.2728 22.125 25.0305 22.125 25.0305C22.125 25.0305 19.2784 24.2728 19.131 19.3374C19.1287 19.2231 19.1651 19.1114 19.2344 19.0205C19.3036 18.9296 19.4016 18.8649 19.5124 18.8368L21.7033 18.2805C21.9801 18.2102 22.2699 18.2102 22.5467 18.2805Z" stroke="currentColor" stroke-linecap="round" stroke-linejoin="round"/>
</svg>
