<svg width="20" height="20" viewBox="0 0 20 20" fill="none" xmlns="http://www.w3.org/2000/svg">
<path fill-rule="evenodd" clip-rule="evenodd" d="M9.20124 5.99895C10.2521 5.88839 11.3053 6.10216 12.2832 6.62043C13.2605 7.13839 14.1339 7.94513 14.8446 8.97334C15.1236 9.37684 15.0822 9.98042 14.7521 10.3215C14.4221 10.6625 13.9285 10.6119 13.6496 10.2084C13.0861 9.39325 12.4055 8.7705 11.6609 8.37584C10.9169 7.98149 10.1232 7.82223 9.33538 7.90513C8.54732 7.98804 7.77677 8.31203 7.0792 8.86162C6.38108 9.41165 5.77177 10.1755 5.30065 11.1057C5.07316 11.5549 4.59094 11.6935 4.22359 11.4154C3.85624 11.1372 3.74286 10.5476 3.97035 10.0984C4.55709 8.93994 5.32755 7.96568 6.23166 7.25336C7.13633 6.5406 8.15057 6.10949 9.20124 5.99895Z" fill="currentColor"/>
<path fill-rule="evenodd" clip-rule="evenodd" d="M4.69157 2.9572C6.32468 2.00237 8.14596 1.5 10 1.5C11.854 1.5 13.6753 2.00237 15.3084 2.9572C16.9407 3.91154 18.3338 5.2876 19.3768 6.96033C19.6157 7.34339 19.4967 7.84626 19.111 8.08351C18.7254 8.32077 18.2191 8.20256 17.9803 7.8195C17.0691 6.35821 15.8643 5.1756 14.4751 4.3634C13.0868 3.55169 11.5521 3.13171 10 3.13171C8.44787 3.13171 6.91318 3.55169 5.52486 4.3634C4.13569 5.1756 2.93092 6.35821 2.01975 7.8195C1.78089 8.20256 1.27464 8.32077 0.888989 8.08351C0.503342 7.84626 0.384343 7.34339 0.623197 6.96033C1.66621 5.2876 3.0593 3.91154 4.69157 2.9572Z" fill="currentColor"/>
<path fill-rule="evenodd" clip-rule="evenodd" d="M19.3175 7.39984C19.5607 7.69328 19.5607 8.10517 19.3175 8.39861L12.2065 16.9785C12.1766 17.0145 12.1439 17.0478 12.1087 17.0781C11.7945 17.4409 11.4074 17.7383 10.9669 17.9452C10.476 18.1757 9.9361 18.2856 9.39036 18.2613C8.84475 18.237 8.31756 18.0797 7.84985 17.8083C7.38284 17.5373 6.99 17.1615 6.69499 16.717C6.40012 16.2726 6.20849 15.7682 6.12942 15.243C6.05036 14.7178 6.08503 14.1801 6.23186 13.6694C6.37869 13.1586 6.63541 12.6831 6.98891 12.2818C7.34105 11.8821 7.78167 11.5648 8.28211 11.3626L18.2896 7.15841C18.6504 7.00683 19.0743 7.1064 19.3175 7.39984ZM10.9415 15.8704L15.8358 9.96506L8.96324 12.8523C8.72531 12.9478 8.50094 13.1042 8.31245 13.3182C8.12367 13.5325 7.97771 13.797 7.89239 14.0937C7.80707 14.3905 7.78632 14.7063 7.8328 15.015C7.87928 15.3238 7.99084 15.6115 8.1535 15.8566C8.31601 16.1015 8.52285 16.2941 8.75159 16.4268C8.97962 16.5592 9.22572 16.6301 9.47151 16.641C9.71717 16.652 9.96569 16.6032 10.1997 16.4932C10.4345 16.383 10.6526 16.2119 10.8314 15.9852C10.8644 15.9433 10.9014 15.9049 10.9415 15.8704Z" fill="currentColor"/>
</svg>
