<svg width="24" height="24" viewBox="0 0 24 24" fill="none" xmlns="http://www.w3.org/2000/svg">
<path d="M12 3C9.238 3 7 5.238 7 8C7 8.26522 7.10536 8.51957 7.29289 8.70711C7.48043 8.89464 7.73478 9 8 9C8.26522 9 8.51957 8.89464 8.70711 8.70711C8.89464 8.51957 9 8.26522 9 8C9 6.342 10.342 5 12 5C13.658 5 15 6.342 15 8C15 8.816 14.801 9.294 14.562 9.629C14.3 9.994 13.937 10.267 13.434 10.614L13.318 10.692C12.871 10.998 12.295 11.391 11.849 11.939C11.322 12.587 11 13.406 11 14.5V15C11 15.2652 11.1054 15.5196 11.2929 15.7071C11.4804 15.8946 11.7348 16 12 16C12.2652 16 12.5196 15.8946 12.7071 15.7071C12.8946 15.5196 13 15.2652 13 15V14.5C13 13.844 13.178 13.476 13.4 13.201C13.657 12.887 14.003 12.649 14.514 12.298L14.567 12.261C15.063 11.921 15.7 11.475 16.187 10.793C16.7 10.081 17 9.183 17 8C17 5.238 14.762 3 12 3Z" fill="currentColor"/>
<path d="M12 20.25C12.3315 20.25 12.6495 20.1183 12.8839 19.8839C13.1183 19.6495 13.25 19.3315 13.25 19C13.25 18.6685 13.1183 18.3505 12.8839 18.1161C12.6495 17.8817 12.3315 17.75 12 17.75C11.6685 17.75 11.3505 17.8817 11.1161 18.1161C10.8817 18.3505 10.75 18.6685 10.75 19C10.75 19.3315 10.8817 19.6495 11.1161 19.8839C11.3505 20.1183 11.6685 20.25 12 20.25Z" fill="currentColor"/>
</svg>
