<svg width="22" height="22" viewBox="0 0 22 22" fill="none" xmlns="http://www.w3.org/2000/svg">
<path d="M11.75 0.5C11.551 0.5 11.3603 0.579018 11.2196 0.71967C11.079 0.860322 11 1.05109 11 1.25V10.25C11 10.4489 11.079 10.6397 11.2196 10.7803C11.3603 10.921 11.551 11 11.75 11H20.75C20.9489 11 21.1396 10.921 21.2803 10.7803C21.4209 10.6397 21.5 10.4489 21.5 10.25C21.5 8.96961 21.2478 7.70176 20.7578 6.51884C20.2678 5.33591 19.5496 4.26108 18.6443 3.35571C17.7389 2.45034 16.664 1.73216 15.4811 1.24217C14.2982 0.752191 13.0303 0.5 11.75 0.5ZM12.5 9.5V2.033C14.4213 2.20814 16.2204 3.0511 17.5847 4.4153C18.9489 5.77951 19.7918 7.57869 19.967 9.5H12.5ZM9.49996 4.283C9.49997 4.17881 9.47826 4.07577 9.43624 3.98044C9.39422 3.8851 9.33279 3.79957 9.25588 3.72929C9.17897 3.65901 9.08826 3.60553 8.98953 3.57225C8.8908 3.53897 8.78622 3.52662 8.68246 3.536C6.97913 3.6913 5.35531 4.32875 4.00122 5.37369C2.64714 6.41864 1.61884 7.82779 1.03679 9.43611C0.454738 11.0444 0.343032 12.7853 0.714756 14.4548C1.08648 16.1243 1.92624 17.6534 3.13567 18.8628C4.34511 20.0722 5.87413 20.912 7.54365 21.2837C9.21316 21.6554 10.954 21.5437 12.5624 20.9617C14.1707 20.3796 15.5798 19.3513 16.6248 17.9972C17.6697 16.6431 18.3072 15.0193 18.4625 13.316C18.4716 13.2125 18.4591 13.1082 18.4258 13.0097C18.3926 12.9113 18.3392 12.8208 18.2691 12.7441C18.199 12.6674 18.1137 12.6061 18.0187 12.5641C17.9236 12.522 17.8209 12.5002 17.717 12.5H9.49996V4.283ZM1.99996 12.5C1.99961 10.771 2.59664 9.09502 3.69 7.75565C4.78337 6.41627 6.30591 5.4958 7.99996 5.15V13.25C7.99996 13.4489 8.07898 13.6397 8.21963 13.7803C8.36028 13.921 8.55105 14 8.74996 14H16.85C16.4736 15.817 15.4372 17.4301 13.9411 18.5277C12.4449 19.6254 10.5951 20.1296 8.74889 19.9431C6.90268 19.7566 5.19107 18.8926 3.94464 17.518C2.6982 16.1434 2.00537 14.3556 1.99996 12.5Z" fill="currentColor"/>
</svg>
