<svg width="24" height="24" xmlns="http://www.w3.org/2000/svg" fill="none">
   <path id="svg_1" fill="currentColor" d="m11.20367,5.37943l0.37928,-0.37928l0.72062,0c-0.07585,0 0.34135,0.4172 0.34135,0.4172l0,6.18221l-0.4172,0.34135l-0.64477,0l-0.37928,-0.34135l0,-6.22013z" clip-rule="evenodd" fill-rule="evenodd"/>
   <path id="svg_2" fill="currentColor" d="m9.07129,6.74811c0,0 -0.03611,0.36349 -0.10847,0.47257c-1.59091,1.01798 -2.53106,2.69029 -2.60335,4.79891c0.10847,3.12656 2.60335,5.63516 5.67678,5.63516c3.07345,0 5.56835,-2.5086 5.53225,-5.70783c0.0361,-1.96321 -1.0124,-3.70826 -2.4949,-4.72624c-0.1085,-0.21808 -0.1808,-0.43624 -0.1808,-0.43624l0.3977,-0.61807c0,0 0.1447,-0.14541 0.3977,-0.10908c1.9888,1.30881 3.2905,3.4901 3.2905,5.9623c0,3.85376 -3.1457,6.98026 -6.97856,6.98026c-3.83282,0 -7.01472,-3.1265 -6.97853,-6.98018c0,-2.50854 1.33786,-4.68991 3.25419,-6.03505c0.21694,-0.14541 0.43389,0.2545 0.43389,0.2545l0.3616,0.50899z" clip-rule="evenodd" fill-rule="evenodd"/>
</svg>