<svg width="11" height="12" viewBox="0 0 11 12" fill="none" xmlns="http://www.w3.org/2000/svg">
<path d="M4.0597 10.1885L4.05959 10.1888L4.07282 10.1923C4.24345 10.2368 4.33815 10.4135 4.29099 10.5676L4.29076 10.5675L4.28794 10.5784C4.24977 10.7255 4.1151 10.8216 3.9779 10.8216C3.96581 10.8216 3.93445 10.817 3.89224 10.8064C3.79843 10.7828 3.72095 10.7631 3.64531 10.7345L3.63794 10.7318L3.6304 10.7294C3.47599 10.6817 3.37471 10.4995 3.43354 10.3221L3.4336 10.3221L3.43537 10.3163C3.48352 10.159 3.66455 10.0599 3.8378 10.118L3.83778 10.118L3.84174 10.1193L4.0597 10.1885Z" fill="currentColor" stroke="currentColor" stroke-width="0.520833"/>
<path d="M6.16217 10.2554L6.16219 10.2556L6.171 10.2539C6.33825 10.2228 6.51473 10.3361 6.55617 10.5102C6.58614 10.6937 6.48013 10.8526 6.30705 10.8945C6.25877 10.901 6.20967 10.9097 6.16692 10.9173L6.16389 10.9178C6.11372 10.9267 6.07167 10.9341 6.03351 10.9389L6.0078 10.9421L5.98984 10.9482L5.98667 10.9483L5.97421 10.9484C5.83428 10.9484 5.68591 10.8302 5.65815 10.6626C5.63304 10.4778 5.75754 10.3152 5.93093 10.2903L5.93093 10.2903L5.93274 10.29L6.16217 10.2554Z" fill="currentColor" stroke="currentColor" stroke-width="0.520833"/>
<path d="M8.06923 9.37491L8.06925 9.37493L8.07221 9.37263C8.22158 9.2566 8.42475 9.29172 8.51279 9.41896L8.51856 9.42729L8.52496 9.43515C8.63933 9.57569 8.61222 9.78919 8.47541 9.89547L8.4753 9.89533L8.46793 9.9015C8.40889 9.95096 8.33826 10.002 8.25767 10.0598C8.1968 10.0998 8.13341 10.1175 8.07305 10.1175C7.97546 10.1175 7.87107 10.0675 7.80447 9.97468C7.69944 9.82139 7.73808 9.61674 7.87815 9.51878L7.87825 9.51891L7.88568 9.5133L8.06923 9.37491Z" fill="currentColor" stroke="currentColor" stroke-width="0.520833"/>
<path d="M5.99053 3.27344C5.91653 3.27344 5.84556 3.30283 5.79324 3.35515C5.74092 3.40747 5.71152 3.47843 5.71152 3.55242V6.45946L3.8991 7.49506C3.83672 7.53269 3.79153 7.59322 3.7732 7.66373C3.75486 7.73423 3.76483 7.80911 3.80098 7.87236C3.83712 7.93561 3.89658 7.98221 3.96663 8.00221C4.03668 8.02221 4.11178 8.01401 4.17588 7.97938L6.12891 6.86343C6.17162 6.83904 6.20711 6.8038 6.23181 6.76127C6.2565 6.71875 6.26952 6.67045 6.26953 6.62127V3.55242C6.26953 3.47843 6.24014 3.40747 6.18781 3.35515C6.13549 3.30283 6.06452 3.27344 5.99053 3.27344Z" fill="currentColor"/>
<path d="M5.99053 3.27344C5.91653 3.27344 5.84556 3.30283 5.79324 3.35515C5.74092 3.40747 5.71152 3.47843 5.71152 3.55242V6.45946L3.8991 7.49506C3.83672 7.53269 3.79153 7.59322 3.7732 7.66373C3.75486 7.73423 3.76483 7.80911 3.80098 7.87236C3.83712 7.93561 3.89658 7.98221 3.96663 8.00221C4.03668 8.02221 4.11178 8.01401 4.17588 7.97938L6.12891 6.86343C6.17162 6.83904 6.20711 6.8038 6.23181 6.76127C6.2565 6.71875 6.26952 6.67045 6.26953 6.62127V3.55242C6.26953 3.47843 6.24014 3.40747 6.18781 3.35515C6.13549 3.30283 6.06452 3.27344 5.99053 3.27344Z" stroke="currentColor"/>
<path fill-rule="evenodd" clip-rule="evenodd" d="M9.25175 1.10433C9.39041 0.963542 9.62921 1.02244 9.68651 1.21156L10.5777 4.15282C10.6358 4.34485 10.4641 4.52776 10.2688 4.48184L7.19298 3.7586C6.9952 3.7121 6.92448 3.4671 7.06706 3.32235L7.86138 2.51591C6.60426 1.74033 5.45587 1.52297 4.48857 1.65772C3.43259 1.80482 2.54974 2.37715 1.94044 3.18568C0.71576 4.8108 0.625602 7.34653 2.47282 9.13618C2.61085 9.2699 2.6108 9.48667 2.47271 9.62034C2.33463 9.75401 2.11079 9.75397 1.97276 9.62024C-0.144353 7.56911 -0.128851 4.85798 1.28077 2.98744C1.98862 2.04815 3.22215 1.21496 4.48857 1.03854C5.68542 0.871814 6.94206 1.10696 8.35798 2.01174L9.25175 1.10433Z" fill="currentColor"/>
</svg>