<svg width="30" height="30" viewBox="0 0 30 30" fill="none" xmlns="http://www.w3.org/2000/svg">
<path d="M14.3633 13.9126V4.1626H4.61328V13.9126M6.44629 12.4961L6.44629 5.99609L12.4463 5.99609L12.4463 12.4961M24.4463 8.99609C24.4463 10.5128 22.9216 11.9961 21.4049 11.9961C19.8883 11.9961 18.4463 10.5543 18.4463 9.0376C18.4463 7.52094 19.8991 5.99609 21.4049 5.99609C22.9108 5.99609 24.4463 7.49027 24.4463 8.99609ZM9.48828 17.1626L4.61328 25.8293H14.3633M11.4463 24.4961H7.44629L9.44629 20.4961M26.2799 9.0376C26.2799 6.32927 24.1133 4.1626 21.4049 4.1626C18.6966 4.1626 16.5299 6.32927 16.5299 9.0376C16.5299 11.7459 18.6966 13.9126 21.4049 13.9126C24.1133 13.9126 26.2799 11.7459 26.2799 9.0376ZM22.9463 20.4961L22.9463 17.1626H20.9463L20.9463 20.4961L17.6133 20.4961V22.4961L20.9463 22.5039L20.9463 25.8371L22.9463 25.8293L22.9463 22.4961L26.2799 22.4961V20.4961L22.9463 20.4961Z" fill="currentColor"/>
</svg>
