<svg width="15" height="14" viewBox="0 0 15 14" fill="none" xmlns="http://www.w3.org/2000/svg">
<path d="M8.3298 2.46513C8.3298 1.73575 7.75967 1 6.48592 1C5.36431 1 4.61023 1.58875 4.61023 2.46513C4.61023 2.97663 4.8121 3.20987 4.94558 3.36437C5.01616 3.44575 5.04468 3.4825 5.04468 3.51925C5.04468 3.58 5.04468 3.61675 4.84062 3.625H2.61056C1.75298 3.625 1.00037 4.32588 1.00037 5.125V6.5245C1.01426 6.8785 1.20918 7.09863 1.50943 7.09863C1.68021 7.09863 1.80674 6.9985 1.92962 6.90138C2.09419 6.772 2.28033 6.625 2.64603 6.625C3.26627 6.625 3.926 7.15075 3.926 8.125C3.926 9.11088 3.25749 9.79825 2.65737 9.79825C2.29532 9.79825 2.10589 9.63738 1.9384 9.49563C1.81296 9.38913 1.6835 9.27888 1.50906 9.27888C1.20918 9.27888 1.0139 9.499 1 9.8605V11.3988C1.00037 12.2369 1.76798 13 2.61056 13H4.85196C5.19133 12.9858 5.41039 12.7806 5.41039 12.4765C5.41039 12.2939 5.30909 12.1765 5.21949 12.073C5.09954 11.9346 4.97593 11.7918 4.97593 11.4228C4.97593 10.7605 5.56252 10.3326 6.46983 10.3326C7.37751 10.3326 7.9641 10.7605 7.9641 11.4228C7.9641 11.7918 7.84012 11.9346 7.72054 12.073C7.63094 12.1765 7.52928 12.2939 7.52928 12.4765C7.52928 12.7847 7.74321 12.985 8.09539 12.9996L9.53662 13C10.3236 13 10.8736 12.3711 10.8736 11.4708V9.727C10.8831 9.68125 10.9958 9.5065 11.1677 9.5065C11.2028 9.5065 11.2382 9.53613 11.3172 9.60812C11.4672 9.74575 11.6943 9.95388 12.1924 9.95388C12.9911 9.9535 13.8 9.32575 13.8 8.125C13.8 6.82975 13.0653 6.25 12.3372 6.25C11.8457 6.25 11.5619 6.48025 11.3739 6.6325C11.2905 6.7 11.2123 6.76375 11.1677 6.76375C10.9954 6.76375 10.8828 6.58825 10.8744 6.54962L10.8736 6.54062V5.197C10.8736 4.28613 10.3112 3.625 9.53662 3.625H8.1027L8.08807 3.62388C7.89498 3.61638 7.89498 3.58 7.89498 3.51925C7.89498 3.4825 7.92351 3.44612 7.99409 3.36437C8.12757 3.21025 8.3298 2.97663 8.3298 2.46513ZM7.72054 3.11575C7.63094 3.21925 7.52928 3.337 7.52928 3.51962C7.52928 3.72587 7.62107 3.97412 8.06723 3.9985C8.07572 3.99957 8.08427 4.00007 8.09283 4H9.53662C10.1744 4 10.5087 4.60225 10.5087 5.197V6.55937C10.5087 6.57288 10.5061 6.586 10.5087 6.59875C10.5423 6.82788 10.8166 7.13837 11.1677 7.13837C11.3395 7.13837 11.4661 7.03562 11.601 6.9265C11.7751 6.78512 11.9729 6.625 12.3372 6.625C13.0035 6.625 13.4343 7.21375 13.4343 8.125C13.4343 9.124 12.7903 9.5785 12.1924 9.5785C11.8343 9.5785 11.6954 9.45138 11.5608 9.32837C11.4599 9.23612 11.3454 9.1315 11.1677 9.1315C10.8166 9.1315 10.5419 9.44238 10.5087 9.6715C10.5061 9.68425 10.5087 9.69737 10.5087 9.71087V11.4711C10.5087 12.0452 10.2077 12.625 9.53662 12.625H8.1027C7.89498 12.6164 7.89498 12.5181 7.89498 12.4765C7.89498 12.4401 7.92351 12.4034 7.99409 12.3216C8.12757 12.1671 8.3298 11.9339 8.3298 11.4224C8.3298 10.693 7.75492 9.95725 6.46983 9.95725C5.35773 9.95725 4.61023 10.546 4.61023 11.4224C4.61023 11.9339 4.8121 12.1671 4.94594 12.3216C5.01616 12.403 5.04505 12.4397 5.04505 12.4765C5.04505 12.5185 5.04505 12.6167 4.84464 12.625H2.61056C1.98265 12.625 1.36607 12.0175 1.36607 11.3988V9.868C1.37412 9.65388 1.46883 9.65388 1.50943 9.65388C1.55185 9.65388 1.62645 9.71725 1.70581 9.78437C1.88793 9.93925 2.16404 10.1733 2.65774 10.1733C3.44656 10.1733 4.2917 9.35013 4.2917 8.125C4.2917 6.907 3.444 6.25 2.64603 6.25C2.15599 6.25 1.88573 6.463 1.70691 6.60437C1.62572 6.6685 1.5555 6.72362 1.50943 6.72362C1.4692 6.72362 1.37448 6.72363 1.36607 6.517V5.125C1.36607 4.462 2.02214 4 2.61056 4H4.84684L4.86403 3.99925C5.31567 3.982 5.41039 3.7285 5.41039 3.51925C5.41039 3.33662 5.30909 3.21925 5.21949 3.11575C5.09954 2.97738 4.97593 2.8345 4.97593 2.46513C4.97593 1.813 5.58264 1.375 6.48592 1.375C7.38373 1.375 7.9641 1.80288 7.9641 2.46513C7.9641 2.83413 7.84012 2.97738 7.72054 3.11575Z" fill="black" stroke="currentColor" stroke-width="0.5"/>
</svg>
