<svg width="6" height="10" viewBox="0 0 6 10" fill="none" xmlns="http://www.w3.org/2000/svg">
<path d="M1.4998 3.1998C1.4998 2.53793 2.03793 1.9998 2.6998 1.9998H3.2998C3.96168 1.9998 4.4998 2.53793 4.4998 3.1998V3.2673C4.4998 3.67605 4.29168 4.05668 3.94855 4.27605L3.1573 4.78418C2.92498 4.93355 2.73389 5.13886 2.60154 5.38129C2.46919 5.62371 2.39982 5.89548 2.3998 6.17168V6.1998C2.3998 6.53168 2.66793 6.7998 2.9998 6.7998C3.33168 6.7998 3.5998 6.53168 3.5998 6.1998V6.17355C3.5998 6.0198 3.67855 5.8773 3.80605 5.7948L4.5973 5.28668C5.28356 4.84418 5.6998 4.0848 5.6998 3.2673V3.1998C5.6998 1.87418 4.62543 0.799805 3.2998 0.799805H2.6998C1.37418 0.799805 0.299805 1.87418 0.299805 3.1998C0.299805 3.53168 0.56793 3.7998 0.899805 3.7998C1.23168 3.7998 1.4998 3.53168 1.4998 3.1998ZM2.9998 9.1998C3.19872 9.1998 3.38948 9.12079 3.53013 8.98013C3.67079 8.83948 3.7498 8.64872 3.7498 8.4498C3.7498 8.25089 3.67079 8.06013 3.53013 7.91947C3.38948 7.77882 3.19872 7.6998 2.9998 7.6998C2.80089 7.6998 2.61013 7.77882 2.46947 7.91947C2.32882 8.06013 2.2498 8.25089 2.2498 8.4498C2.2498 8.64872 2.32882 8.83948 2.46947 8.98013C2.61013 9.12079 2.80089 9.1998 2.9998 9.1998Z" fill="currentColor"/>
</svg>
