<svg width="14" height="14" viewBox="0 0 14 14" fill="none" xmlns="http://www.w3.org/2000/svg">
<path d="M12.7273 8.27273C12.7273 7.92127 13.0122 7.63636 13.3636 7.63636C13.7151 7.63636 14 7.92127 14 8.27273V13C14 13.5523 13.5523 14 13 14H1C0.447716 14 0 13.5523 0 13V1C0 0.447716 0.447715 0 1 0H5.72727C6.07873 0 6.36364 0.28491 6.36364 0.636364C6.36364 0.987818 6.07873 1.27273 5.72727 1.27273H1.27273V12.7273H12.7273V8.27273ZM13 0C13.5523 0 14 0.447715 14 1V5.72727C14 6.07873 13.7151 6.36364 13.3636 6.36364C13.0122 6.36364 12.7273 6.07873 12.7273 5.72727V2.17756L7.2589 7.63674C7.01151 7.88371 6.61081 7.88354 6.36364 7.63636C6.11646 7.38919 6.11629 6.98849 6.36326 6.7411L11.8224 1.27273H8.27273C7.92127 1.27273 7.63636 0.987818 7.63636 0.636364C7.63636 0.28491 7.92127 0 8.27273 0H13Z" fill="currentColor"/>
</svg>
