<svg width="24" height="24" viewBox="0 0 24 24" fill="none" xmlns="http://www.w3.org/2000/svg">
<path d="M16 6.6665L18 8.6665L16 10.6665M16 17.3332L18 15.3332L16 13.3332" stroke="currentColor" stroke-width="1.3" stroke-linecap="round" stroke-linejoin="round"/>
<path d="M6 8.66651H8C8.88406 8.66651 9.7319 9.0177 10.357 9.64282C10.9821 10.2679 11.3333 11.1158 11.3333 11.9998C11.3333 12.8839 11.6845 13.7317 12.3096 14.3569C12.9348 14.982 13.7826 15.3332 14.6667 15.3332H18M18 8.66651H14.6667C13.9453 8.66554 13.2432 8.89957 12.6667 9.33317M10 14.6665C9.42301 15.0992 8.72123 15.3332 8 15.3332H6" stroke="currentColor" stroke-width="1.3" stroke-linecap="round" stroke-linejoin="round"/>
</svg>
