<svg width="12" height="20" viewBox="0 0 12 20" fill="none" xmlns="http://www.w3.org/2000/svg">
<path fill-rule="evenodd" clip-rule="evenodd" d="M5.91366 1.42808C5.35083 1.42808 4.79352 1.53894 4.27354 1.75432C3.75356 1.9697 3.2811 2.28539 2.88312 2.68337C2.48514 3.08135 2.16945 3.55381 1.95407 4.07379C1.73869 4.59377 1.62783 5.15108 1.62783 5.71391C1.62783 6.27673 1.73869 6.83404 1.95407 7.35402C2.16945 7.874 2.48514 8.34647 2.88312 8.74445C3.2811 9.14242 3.75356 9.45811 4.27354 9.6735C4.79352 9.88888 5.35083 9.99974 5.91366 9.99974C7.05033 9.99974 8.14045 9.54819 8.9442 8.74445C9.74794 7.9407 10.1995 6.85058 10.1995 5.71391C10.1995 4.57724 9.74794 3.48712 8.9442 2.68337C8.14045 1.87962 7.05033 1.42808 5.91366 1.42808ZM0.19922 5.71391C0.199322 4.6142 0.516738 3.53788 1.11338 2.6141C1.71002 1.69032 2.56054 0.958313 3.56289 0.505922C4.56523 0.0535312 5.67682 -0.100029 6.76428 0.0636674C7.85173 0.227364 8.86886 0.701363 9.6936 1.42879C10.5183 2.15621 11.1157 3.10617 11.4139 4.16466C11.7122 5.22315 11.6987 6.34522 11.375 7.39622C11.0514 8.44722 10.4313 9.38251 9.58931 10.0899C8.74728 10.7972 7.71904 11.2466 6.62796 11.3841V19.2857C6.62796 19.4751 6.55271 19.6568 6.41875 19.7908C6.28479 19.9247 6.1031 20 5.91366 20C5.72421 20 5.54253 19.9247 5.40857 19.7908C5.27461 19.6568 5.19935 19.4751 5.19935 19.2857V11.3855C3.81784 11.2114 2.54741 10.5389 1.62671 9.49434C0.706007 8.44974 0.198394 7.10492 0.19922 5.71248V5.71391Z" fill="currentColor"/>
</svg>
