<svg width="17" height="16" viewBox="0 0 17 16" fill="none" xmlns="http://www.w3.org/2000/svg">
<path fill-rule="evenodd" clip-rule="evenodd" d="M4.29897 0.700293C4.36246 0.763623 4.41283 0.838857 4.4472 0.921684C4.48157 1.00451 4.49926 1.09331 4.49926 1.18298C4.49926 1.27266 4.48157 1.36145 4.4472 1.44428C4.41283 1.52711 4.36246 1.60234 4.29897 1.66567L2.73501 3.22827H9.95215C11.5795 3.22827 13.1402 3.87473 14.2909 5.02542C15.4416 6.17612 16.088 7.7368 16.088 9.36413C16.088 10.9915 15.4416 12.5521 14.2909 13.7028C13.1402 14.8535 11.5795 15.5 9.95215 15.5H4.49805C4.31723 15.5 4.14382 15.4282 4.01597 15.3003C3.88811 15.1725 3.81628 14.9991 3.81628 14.8182C3.81628 14.6374 3.88811 14.464 4.01597 14.3362C4.14382 14.2083 4.31723 14.1365 4.49805 14.1365H9.95215C11.2179 14.1365 12.4317 13.6337 13.3267 12.7387C14.2217 11.8437 14.7245 10.6298 14.7245 9.36413C14.7245 8.09843 14.2217 6.88457 13.3267 5.98958C12.4317 5.09459 11.2179 4.5918 9.95215 4.5918H2.73501L4.29897 6.1544C4.36236 6.21778 4.41264 6.29304 4.44695 6.37585C4.48125 6.45867 4.49891 6.54744 4.49891 6.63708C4.49891 6.72673 4.48125 6.81549 4.44695 6.89831C4.41264 6.98113 4.36236 7.05638 4.29897 7.11977C4.23558 7.18316 4.16033 7.23344 4.07751 7.26775C3.99469 7.30205 3.90593 7.31971 3.81628 7.31971C3.72664 7.31971 3.63787 7.30205 3.55505 7.26775C3.47223 7.23344 3.39698 7.18316 3.33359 7.11977L0.606543 4.39272C0.543053 4.32939 0.492681 4.25416 0.458311 4.17133C0.423942 4.0885 0.40625 3.99971 0.40625 3.91003C0.40625 3.82036 0.423942 3.73156 0.458311 3.64874C0.492681 3.56591 0.543053 3.49067 0.606543 3.42734L3.33359 0.700293C3.39692 0.636803 3.47216 0.586431 3.55499 0.552061C3.63781 0.517692 3.72661 0.5 3.81628 0.5C3.90596 0.5 3.99475 0.517692 4.07758 0.552061C4.16041 0.586431 4.23564 0.636803 4.29897 0.700293Z" fill="currentColor"/>
</svg>
