<svg width="24" height="24" viewBox="0 0 24 24" fill="none" xmlns="http://www.w3.org/2000/svg">
<path d="M9.03263 18.1357L9.03125 18.1357C7.58757 18.1357 6.4 17.0432 6.4 15.6853V7.85045C6.4 6.49249 7.58757 5.4 9.03125 5.4H14.0937C15.5374 5.4 16.725 6.49249 16.725 7.85045V11.5C16.725 11.7062 16.5471 11.8612 16.3437 11.8612C16.1404 11.8612 15.9625 11.7062 15.9625 11.5V7.85045C15.9625 6.90444 15.1313 6.12232 14.0937 6.12232H9.03125C7.99375 6.12232 7.1625 6.90444 7.1625 7.85045V15.6853C7.1625 16.6311 7.99338 17.413 9.03057 17.4134C9.03079 17.4134 9.03102 17.4134 9.03125 17.4134L9.99862 17.4L10 17.4C10.2034 17.4 10.3812 17.5549 10.3812 17.7612C10.3812 17.9671 10.2038 18.1219 10.0007 18.1223L10.0014 18.1223L9.03263 18.1357ZM9.03263 18.1357L10 18.1223L9.03263 18.1357ZM14.0937 8.01161H9.03125C8.82788 8.01161 8.65 8.16653 8.65 8.37277C8.65 8.57901 8.82788 8.73393 9.03125 8.73393H14.0937C14.2971 8.73393 14.475 8.57901 14.475 8.37277C14.475 8.16653 14.2971 8.01161 14.0937 8.01161ZM14.475 10.9844C14.475 10.7781 14.2971 10.6232 14.0937 10.6232H9.03125C8.82788 10.6232 8.65 10.7781 8.65 10.9844C8.65 11.1906 8.82788 11.3455 9.03125 11.3455H14.0937C14.2971 11.3455 14.475 11.1906 14.475 10.9844ZM9.03125 13.2348C8.82788 13.2348 8.65 13.3897 8.65 13.596C8.65 13.8022 8.82788 13.9571 9.03125 13.9571H10.1601C10.3635 13.9571 10.5413 13.8022 10.5413 13.596C10.5413 13.3897 10.3635 13.2348 10.1601 13.2348H9.03125Z" fill="currentColor" stroke="currentColor" stroke-width="0.2"/>
<path d="M11.9004 14.5L12.8679 16.274L14.6585 15.4228" stroke="currentColor" stroke-linecap="round" stroke-linejoin="round"/>
<path d="M13.1001 17.8182C13.1001 17.8182 13.4103 18.4359 13.9607 18.7853C14.5111 19.1348 15.1656 19.3042 15.8257 19.268C16.4858 19.2317 17.1156 18.9918 17.6204 18.5844C18.1251 18.177 18.4774 17.6242 18.6241 17.0092C18.7708 16.3942 18.704 15.7504 18.4338 15.1748C18.1636 14.5991 17.7045 14.1229 17.1259 13.8177C16.5473 13.5126 15.8803 13.3951 15.2256 13.483C14.5709 13.5708 13.9957 13.8049 13.5 14.5005C13.0043 15.1961 13 16.0005 13 16.0005" stroke="currentColor" stroke-linecap="round" stroke-linejoin="round"/>
</svg>
