<svg width="59" height="10" viewBox="0 0 59 10" fill="none" xmlns="http://www.w3.org/2000/svg">
<path d="M28 3L27.5 3C27.5 2.86739 27.5527 2.74021 27.6464 2.64645C27.7402 2.55268 27.8674 2.5 28 2.5L28 3ZM59 3L54 5.88675L54 0.113247L59 3ZM28 9L28.5 9C28.5 9.27614 28.2761 9.5 28 9.5L28 9ZM-2.18557e-08 8.5L1 8.5L1 9.5L2.18557e-08 9.5L-2.18557e-08 8.5ZM3 8.5L5 8.5L5 9.5L3 9.5L3 8.5ZM7 8.5L9 8.5L9 9.5L7 9.5L7 8.5ZM11 8.5L13 8.5L13 9.5L11 9.5L11 8.5ZM15 8.5L17 8.5L17 9.5L15 9.5L15 8.5ZM19 8.5L21 8.5L21 9.5L19 9.5L19 8.5ZM23 8.5L25 8.5L25 9.5L23 9.5L23 8.5ZM27 8.5L28 8.5L28 9.5L27 9.5L27 8.5ZM27.5 9L27.5 8.25L28.5 8.25L28.5 9L27.5 9ZM27.5 6.75L27.5 5.25L28.5 5.25L28.5 6.75L27.5 6.75ZM27.5 3.75L27.5 3L28.5 3L28.5 3.75L27.5 3.75ZM28 2.5L28.9687 2.5L28.9687 3.5L28 3.5L28 2.5ZM30.9062 2.5L32.8437 2.5L32.8437 3.5L30.9062 3.5L30.9062 2.5ZM34.7812 2.5L36.7187 2.5L36.7187 3.5L34.7812 3.5L34.7812 2.5ZM38.6562 2.5L40.5937 2.5L40.5937 3.5L38.6562 3.5L38.6562 2.5ZM42.5312 2.5L44.4687 2.5L44.4687 3.5L42.5312 3.5L42.5312 2.5ZM46.4062 2.5L48.3437 2.5L48.3437 3.5L46.4062 3.5L46.4062 2.5ZM50.2812 2.5L52.2187 2.5L52.2187 3.5L50.2812 3.5L50.2812 2.5ZM54.1562 2.5L56.0937 2.5L56.0937 3.5L54.1562 3.5L54.1562 2.5ZM28 3L27.5 3C27.5 2.86739 27.5527 2.74021 27.6464 2.64645C27.7402 2.55268 27.8674 2.5 28 2.5L28 3ZM59 3L54 5.88675L54 0.113247L59 3ZM28 9L28.5 9C28.5 9.27614 28.2761 9.5 28 9.5L28 9ZM-2.18557e-08 8.5L1 8.5L1 9.5L2.18557e-08 9.5L-2.18557e-08 8.5ZM3 8.5L5 8.5L5 9.5L3 9.5L3 8.5ZM7 8.5L9 8.5L9 9.5L7 9.5L7 8.5ZM11 8.5L13 8.5L13 9.5L11 9.5L11 8.5ZM15 8.5L17 8.5L17 9.5L15 9.5L15 8.5ZM19 8.5L21 8.5L21 9.5L19 9.5L19 8.5ZM23 8.5L25 8.5L25 9.5L23 9.5L23 8.5ZM27 8.5L28 8.5L28 9.5L27 9.5L27 8.5ZM27.5 9L27.5 8.25L28.5 8.25L28.5 9L27.5 9ZM27.5 6.75L27.5 5.25L28.5 5.25L28.5 6.75L27.5 6.75ZM27.5 3.75L27.5 3L28.5 3L28.5 3.75L27.5 3.75ZM28 2.5L28.9687 2.5L28.9687 3.5L28 3.5L28 2.5ZM30.9062 2.5L32.8437 2.5L32.8437 3.5L30.9062 3.5L30.9062 2.5ZM34.7812 2.5L36.7187 2.5L36.7187 3.5L34.7812 3.5L34.7812 2.5ZM38.6562 2.5L40.5937 2.5L40.5937 3.5L38.6562 3.5L38.6562 2.5ZM42.5312 2.5L44.4687 2.5L44.4687 3.5L42.5312 3.5L42.5312 2.5ZM46.4062 2.5L48.3437 2.5L48.3437 3.5L46.4062 3.5L46.4062 2.5ZM50.2812 2.5L52.2187 2.5L52.2187 3.5L50.2812 3.5L50.2812 2.5ZM54.1562 2.5L56.0937 2.5L56.0937 3.5L54.1562 3.5L54.1562 2.5Z" fill="currentColor"/>
</svg>
