<svg xmlns="http://www.w3.org/2000/svg" width="28" height="28" viewBox="0 0 28 28" fill="none">
  <g clip-path="url(#clip0_264_46458)">
    <path d="M24.5001 11.6667C20.7078 11.8866 17.0606 13.2012 14.0001 15.4513C10.9396 13.2012 7.29237 11.8866 3.50008 11.6667V15.12C2.88021 15.1212 2.2862 15.3686 1.84865 15.8077C1.4111 16.2467 1.16582 16.8416 1.16675 17.4615V18.6328C1.16675 19.9267 3.50008 21.2088 3.50008 21.2088V23.5503C6.59876 23.7496 9.58713 24.777 12.1533 26.5253C12.8012 26.975 13.4182 27.4676 14.0001 28C14.582 27.4676 15.199 26.975 15.8469 26.5253C18.413 24.777 21.4014 23.7496 24.5001 23.5503V20.9743C25.12 20.9731 25.714 20.7257 26.1515 20.2867C26.5891 19.8476 26.8343 19.2527 26.8334 18.6328V17.4615C26.8343 16.8416 26.5891 16.2467 26.1515 15.8077C25.714 15.3686 25.12 15.1212 24.5001 15.12V11.6667ZM14.0001 24.9923C11.5804 23.219 8.78678 22.0234 5.83342 21.497V14.322C8.09684 14.778 10.2458 15.6833 12.1533 16.9843C12.8012 17.434 13.4182 17.9266 14.0001 18.459C14.582 17.9266 15.199 17.434 15.8469 16.9843C17.7542 15.6828 19.9032 14.7772 22.1668 14.3208V21.497C19.2134 22.0234 16.4198 23.219 14.0001 24.9923ZM12.8334 9.33332H15.1668V10.5H12.8334V9.33332ZM12.8334 4.66666H15.1668V5.83332H12.8334V4.66666Z" fill="#6B7280" fill-opacity="0.9"/>
    <path d="M12.8333 11.6667H15.1667V12.8333H12.8333V11.6667ZM10.5 5.83332C10.8094 5.83332 11.1062 5.71041 11.3249 5.49161C11.5437 5.27282 11.6667 4.97608 11.6667 4.66666C11.6677 4.51468 11.6386 4.364 11.5809 4.22338C11.5233 4.08275 11.4383 3.955 11.3308 3.84753C11.2233 3.74006 11.0956 3.65502 10.9549 3.59736C10.8143 3.5397 10.6636 3.51057 10.5117 3.51166C10.3592 3.51089 10.2081 3.54016 10.067 3.59779C9.92584 3.65542 9.79744 3.74028 9.68911 3.84753C9.47032 4.06414 9.34653 4.35878 9.34499 4.66666C9.34344 4.97453 9.46426 5.27041 9.68086 5.4892C9.89747 5.70799 10.1921 5.83178 10.5 5.83332Z" fill="#6B7280" fill-opacity="0.9"/>
    <path d="M17.4999 5.83333C18.1443 5.83333 18.6666 5.311 18.6666 4.66667C18.6666 4.02233 18.1443 3.5 17.4999 3.5C16.8556 3.5 16.3333 4.02233 16.3333 4.66667C16.3333 5.311 16.8556 5.83333 17.4999 5.83333Z" fill="#6B7280" fill-opacity="0.9"/>
    <path d="M18.6666 9.33333H9.33325C8.40528 9.33241 7.51558 8.96336 6.8594 8.30718C6.20322 7.65101 5.83418 6.76131 5.83325 5.83333V3.5C5.83418 2.57203 6.20322 1.68233 6.8594 1.02615C7.51558 0.369973 8.40528 0.000926584 9.33325 0L18.6666 0C19.5946 0.000926584 20.4843 0.369973 21.1404 1.02615C21.7966 1.68233 22.1657 2.57203 22.1666 3.5V5.83333C22.1657 6.76131 21.7966 7.65101 21.1404 8.30718C20.4843 8.96336 19.5946 9.33241 18.6666 9.33333ZM9.33325 2.33333C9.02393 2.33364 8.72736 2.45666 8.50864 2.67538C8.28991 2.89411 8.16689 3.19068 8.16659 3.5V5.83333C8.16689 6.14266 8.28991 6.43922 8.50864 6.65795C8.72736 6.87668 9.02393 6.99969 9.33325 7H18.6666C18.9759 6.99969 19.2725 6.87668 19.4912 6.65795C19.7099 6.43922 19.8329 6.14266 19.8333 5.83333V3.5C19.8329 3.19068 19.7099 2.89411 19.4912 2.67538C19.2725 2.45666 18.9759 2.33364 18.6666 2.33333H9.33325Z" fill="#6B7280" fill-opacity="0.9"/>
  </g>
  <defs>
    <clipPath id="clip0_264_46458">
      <rect width="28" height="28" fill="white"/>
    </clipPath>
  </defs>
</svg>
