<svg width="28" height="28" viewBox="0 0 28 28" fill="none" xmlns="http://www.w3.org/2000/svg">
<g clip-path="url(#clip0_264_54216)">
<path d="M24.5 11.6667C20.7077 11.8867 17.0605 13.2013 14 15.4514C10.9394 13.2013 7.29224 11.8867 3.49996 11.6667V15.1201C2.88009 15.1213 2.28608 15.3687 1.84852 15.8078C1.41097 16.2468 1.1657 16.8417 1.16663 17.4616V18.6329C1.16663 19.9267 3.49996 21.2089 3.49996 21.2089V23.5504C6.59864 23.7497 9.587 24.7771 12.1531 26.5254C12.8011 26.975 13.4181 27.4677 14 28.0001C14.5818 27.4677 15.1988 26.975 15.8468 26.5254C18.4129 24.7771 21.4013 23.7497 24.5 23.5504V20.9744C25.1198 20.9732 25.7138 20.7258 26.1514 20.2867C26.589 19.8477 26.8342 19.2528 26.8333 18.6329V17.4616C26.8342 16.8417 26.589 16.2468 26.1514 15.8078C25.7138 15.3687 25.1198 15.1213 24.5 15.1201V11.6667ZM14 24.9924C11.5803 23.2191 8.78666 22.0235 5.8333 21.4971V14.3221C8.09672 14.7781 10.2457 15.6834 12.1531 16.9844C12.8011 17.434 13.4181 17.9267 14 18.4591C14.5818 17.9267 15.1988 17.434 15.8468 16.9844C17.7541 15.6829 19.9031 14.7772 22.1666 14.3209V21.4971C19.2133 22.0235 16.4196 23.2191 14 24.9924ZM12.8333 9.33342H15.1666V10.5001H12.8333V9.33342ZM12.8333 4.66675H15.1666V5.83341H12.8333V4.66675Z" fill="#D4D6DB"/>
<path d="M12.8333 11.6667H15.1667V12.8334H12.8333V11.6667ZM10.5 5.83342C10.8094 5.83342 11.1062 5.7105 11.3249 5.49171C11.5437 5.27291 11.6667 4.97617 11.6667 4.66675C11.6677 4.51477 11.6386 4.36409 11.5809 4.22347C11.5233 4.08285 11.4383 3.95509 11.3308 3.84762C11.2233 3.74015 11.0956 3.65511 10.9549 3.59745C10.8143 3.5398 10.6636 3.51066 10.5117 3.51175C10.3592 3.51098 10.2081 3.54025 10.067 3.59788C9.92584 3.65551 9.79744 3.74037 9.68911 3.84762C9.47032 4.06423 9.34653 4.35888 9.34499 4.66675C9.34344 4.97462 9.46426 5.2705 9.68086 5.48929C9.89747 5.70808 10.1921 5.83187 10.5 5.83342Z" fill="#D4D6DB"/>
<path d="M17.5 5.83333C18.1444 5.83333 18.6667 5.311 18.6667 4.66667C18.6667 4.02233 18.1444 3.5 17.5 3.5C16.8557 3.5 16.3334 4.02233 16.3334 4.66667C16.3334 5.311 16.8557 5.83333 17.5 5.83333Z" fill="#D4D6DB"/>
<path d="M18.6667 9.33333H9.33337C8.4054 9.33241 7.5157 8.96336 6.85952 8.30718C6.20335 7.65101 5.8343 6.76131 5.83337 5.83333V3.5C5.8343 2.57203 6.20335 1.68233 6.85952 1.02615C7.5157 0.369973 8.4054 0.000926584 9.33337 0L18.6667 0C19.5947 0.000926584 20.4844 0.369973 21.1406 1.02615C21.7967 1.68233 22.1658 2.57203 22.1667 3.5V5.83333C22.1658 6.76131 21.7967 7.65101 21.1406 8.30718C20.4844 8.96336 19.5947 9.33241 18.6667 9.33333ZM9.33337 2.33333C9.02405 2.33364 8.72748 2.45666 8.50876 2.67538C8.29003 2.89411 8.16702 3.19068 8.16671 3.5V5.83333C8.16702 6.14266 8.29003 6.43922 8.50876 6.65795C8.72748 6.87668 9.02405 6.99969 9.33337 7H18.6667C18.976 6.99969 19.2726 6.87668 19.4913 6.65795C19.71 6.43922 19.8331 6.14266 19.8334 5.83333V3.5C19.8331 3.19068 19.71 2.89411 19.4913 2.67538C19.2726 2.45666 18.976 2.33364 18.6667 2.33333H9.33337Z" fill="#D4D6DB"/>
</g>
<defs>
<clipPath id="clip0_264_54216">
<rect width="28" height="28" fill="white"/>
</clipPath>
</defs>
</svg>
