<svg width="16" height="17" viewBox="0 0 16 17" fill="none" xmlns="http://www.w3.org/2000/svg">
<path d="M5.24428 2.96859V1M1.35313 14.6967L4.27218 16H12.5983C12.8594 15.9999 13.095 15.8428 13.1966 15.6011L15.2441 10.7145C15.3831 10.3828 15.2281 10.0007 14.8978 9.86107C14.8182 9.82733 14.7325 9.81012 14.6459 9.81012H6.65554C6.39041 9.80956 6.15195 9.97214 6.05461 10.22L4.27218 14.6967L1.29058 13.3306C0.966767 13.1822 0.821893 12.7999 0.965652 12.4727L1.83034 10.5273C1.93485 10.2923 2.16696 10.141 2.42313 10.1407H3.62364V8.83744M9.45903 12.7473H10.4366M4.59032 5.90028C4.59257 6.44045 4.15853 6.8802 3.62093 6.88251C3.0833 6.8847 2.64565 6.44865 2.6434 5.90849C2.64117 5.36818 3.07518 4.92848 3.61281 4.92622C3.61642 4.92622 3.62003 4.92622 3.62364 4.92624C4.15735 4.92923 4.58884 5.36407 4.59032 5.90028ZM6.86493 4.92624C6.32805 4.927 5.89343 5.36489 5.89418 5.90437C5.89493 6.44385 6.33076 6.88061 6.86764 6.87978C7.40401 6.87898 7.83839 6.44196 7.83839 5.90301C7.83839 5.36353 7.40319 4.92624 6.86628 4.92624C6.86587 4.92624 6.86534 4.92624 6.86493 4.92624ZM9.13544 4.92624V4.27186C9.13544 3.55208 8.55476 2.96859 7.83839 2.96859H2.65018C1.93383 2.96859 1.35313 3.55208 1.35313 4.27186V4.92624C0.994967 4.92624 0.70459 5.21799 0.70459 5.57787V6.55466C0.70459 6.91449 0.994967 7.20629 1.35313 7.20629V8.83471H9.13544V7.20356C9.49358 7.20356 9.78398 6.91174 9.78398 6.55191V5.57514C9.78248 5.21631 9.49261 4.92624 9.13544 4.92624Z" stroke="currentColor" stroke-width="0.697618" stroke-linecap="round" stroke-linejoin="round"/>
</svg>
