<svg width="13" height="16" viewBox="0 0 13 16" fill="none" xmlns="http://www.w3.org/2000/svg">
<path fill-rule="evenodd" clip-rule="evenodd" d="M8.06875 0.492836C8.08163 0.502036 8.09391 0.512056 8.1055 0.522836L12.4772 4.89384C12.7586 5.17507 12.9167 5.55654 12.9167 5.95434V13.5833C12.9167 13.9812 12.7587 14.3627 12.4774 14.644C12.1961 14.9253 11.8146 15.0833 11.4167 15.0833H2.41675C2.01892 15.0833 1.63739 14.9253 1.35609 14.644C1.07478 14.3627 0.916748 13.9812 0.916748 13.5833V1.58334C0.916748 1.18551 1.07478 0.80398 1.35609 0.522676C1.63739 0.241371 2.01892 0.0833359 2.41675 0.0833359H7.04575C7.06634 0.0836879 7.08689 0.085442 7.10725 0.0885859C7.12189 0.0911176 7.13667 0.0928701 7.1515 0.0938358C7.31208 0.102727 7.47014 0.137683 7.6195 0.197336C7.66034 0.214534 7.69982 0.237211 7.73858 0.259476L7.744 0.262586L7.7815 0.284336L7.8175 0.302336C7.83824 0.31192 7.85829 0.322947 7.8775 0.335336C7.93527 0.376533 7.99014 0.421639 8.04175 0.470336C8.05047 0.478168 8.05947 0.485673 8.06875 0.492836ZM2.15158 13.8485C2.22191 13.9188 2.31729 13.9583 2.41675 13.9583H11.4167C11.5162 13.9583 11.6116 13.9188 11.6819 13.8485C11.7522 13.7782 11.7917 13.6828 11.7917 13.5833V6.08334L6.91675 1.20834H2.41675C2.31729 1.20834 2.22191 1.24784 2.15158 1.31817C2.08126 1.3885 2.04175 1.48388 2.04175 1.58334V13.5833C2.04175 13.6828 2.08126 13.7782 2.15158 13.8485Z" fill="currentColor"/>
<path fill-rule="evenodd" clip-rule="evenodd" d="M8.06875 0.492836C8.08163 0.502036 8.09391 0.512056 8.1055 0.522836L12.4772 4.89384C12.7586 5.17507 12.9167 5.55654 12.9167 5.95434V13.5833C12.9167 13.9812 12.7587 14.3627 12.4774 14.644C12.1961 14.9253 11.8146 15.0833 11.4167 15.0833H2.41675C2.01892 15.0833 1.63739 14.9253 1.35609 14.644C1.07478 14.3627 0.916748 13.9812 0.916748 13.5833V1.58334C0.916748 1.18551 1.07478 0.80398 1.35609 0.522676C1.63739 0.241371 2.01892 0.0833359 2.41675 0.0833359H7.04575C7.06634 0.0836879 7.08689 0.085442 7.10725 0.0885859C7.12189 0.0911176 7.13667 0.0928701 7.1515 0.0938358C7.31208 0.102727 7.47014 0.137683 7.6195 0.197336C7.66034 0.214534 7.69982 0.237211 7.73858 0.259476L7.744 0.262586L7.7815 0.284336L7.8175 0.302336C7.83824 0.31192 7.85829 0.322947 7.8775 0.335336C7.93527 0.376533 7.99014 0.421639 8.04175 0.470336C8.05047 0.478168 8.05947 0.485673 8.06875 0.492836ZM2.15158 13.8485C2.22191 13.9188 2.31729 13.9583 2.41675 13.9583H11.4167C11.5162 13.9583 11.6116 13.9188 11.6819 13.8485C11.7522 13.7782 11.7917 13.6828 11.7917 13.5833V6.08334L6.91675 1.20834H2.41675C2.31729 1.20834 2.22191 1.24784 2.15158 1.31817C2.08126 1.3885 2.04175 1.48388 2.04175 1.58334V13.5833C2.04175 13.6828 2.08126 13.7782 2.15158 13.8485Z" fill="currentColor"/>
<path fill-rule="evenodd" clip-rule="evenodd" d="M8.06875 0.492836C8.08163 0.502036 8.09391 0.512056 8.1055 0.522836L12.4772 4.89384C12.7586 5.17507 12.9167 5.55654 12.9167 5.95434V13.5833C12.9167 13.9812 12.7587 14.3627 12.4774 14.644C12.1961 14.9253 11.8146 15.0833 11.4167 15.0833H2.41675C2.01892 15.0833 1.63739 14.9253 1.35609 14.644C1.07478 14.3627 0.916748 13.9812 0.916748 13.5833V1.58334C0.916748 1.18551 1.07478 0.80398 1.35609 0.522676C1.63739 0.241371 2.01892 0.0833359 2.41675 0.0833359H7.04575C7.06634 0.0836879 7.08689 0.085442 7.10725 0.0885859C7.12189 0.0911176 7.13667 0.0928701 7.1515 0.0938358C7.31208 0.102727 7.47014 0.137683 7.6195 0.197336C7.66034 0.214534 7.69982 0.237211 7.73858 0.259476L7.744 0.262586L7.7815 0.284336L7.8175 0.302336C7.83824 0.31192 7.85829 0.322947 7.8775 0.335336C7.93527 0.376533 7.99014 0.421639 8.04175 0.470336C8.05047 0.478168 8.05947 0.485673 8.06875 0.492836ZM2.15158 13.8485C2.22191 13.9188 2.31729 13.9583 2.41675 13.9583H11.4167C11.5162 13.9583 11.6116 13.9188 11.6819 13.8485C11.7522 13.7782 11.7917 13.6828 11.7917 13.5833V6.08334L6.91675 1.20834H2.41675C2.31729 1.20834 2.22191 1.24784 2.15158 1.31817C2.08126 1.3885 2.04175 1.48388 2.04175 1.58334V13.5833C2.04175 13.6828 2.08126 13.7782 2.15158 13.8485Z" fill="currentColor"/>
<path d="M10.5167 6.08334H3.31675C3.21066 6.08334 3.10892 6.12021 3.03391 6.18585C2.95889 6.25149 2.91675 6.34051 2.91675 6.43334V12.7333C2.91675 12.8262 2.95889 12.9152 3.03391 12.9808C3.10892 13.0465 3.21066 13.0833 3.31675 13.0833H10.5167C10.6228 13.0833 10.7246 13.0465 10.7996 12.9808C10.8746 12.9152 10.9167 12.8262 10.9167 12.7333V6.43334C10.9167 6.34051 10.8746 6.25149 10.7996 6.18585C10.7246 6.12021 10.6228 6.08334 10.5167 6.08334ZM5.31675 12.3833H3.71675V10.9833H5.31675V12.3833ZM5.31675 10.2833H3.71675V8.88334H5.31675V10.2833ZM5.31675 8.18334H3.71675V6.78334H5.31675V8.18334ZM7.71675 12.3833H6.11675V10.9833H7.71675V12.3833ZM7.71675 10.2833H6.11675V8.88334H7.71675V10.2833ZM7.71675 8.18334H6.11675V6.78334H7.71675V8.18334ZM10.1167 12.3833H8.51675V10.9833H10.1167V12.3833ZM10.1167 10.2833H8.51675V8.88334H10.1167V10.2833ZM10.1167 8.18334H8.51675V6.78334H10.1167V8.18334Z" fill="currentColor"/>
</svg>
