<svg width="28" height="27" viewBox="0 0 28 27" fill="none" xmlns="http://www.w3.org/2000/svg">
<path d="M18.4953 14.7257L22.9905 10.2305M12.7742 11.4564L16.0434 14.7257M5.00977 16.7689L10.3223 11.4564" stroke="currentColor" stroke-width="1.63462" stroke-linecap="round" stroke-linejoin="round"/>
<path d="M24.2172 10.2293C24.8943 10.2293 25.4431 9.68039 25.4431 9.00331C25.4431 8.32623 24.8943 7.77734 24.2172 7.77734C23.5401 7.77734 22.9912 8.32623 22.9912 9.00331C22.9912 9.68039 23.5401 10.2293 24.2172 10.2293Z" stroke="currentColor" stroke-width="1.63462" stroke-linecap="round" stroke-linejoin="round"/>
<path d="M17.2699 17.1785C17.947 17.1785 18.4959 16.6296 18.4959 15.9525C18.4959 15.2754 17.947 14.7266 17.2699 14.7266C16.5928 14.7266 16.0439 15.2754 16.0439 15.9525C16.0439 16.6296 16.5928 17.1785 17.2699 17.1785Z" stroke="currentColor" stroke-width="1.63462" stroke-linecap="round" stroke-linejoin="round"/>
<path d="M11.5482 11.4558C12.2253 11.4558 12.7742 10.9069 12.7742 10.2299C12.7742 9.55279 12.2253 9.00391 11.5482 9.00391C10.8711 9.00391 10.3223 9.55279 10.3223 10.2299C10.3223 10.9069 10.8711 11.4558 11.5482 11.4558Z" stroke="currentColor" stroke-width="1.63462" stroke-linecap="round" stroke-linejoin="round"/>
<path d="M3.78358 19.2215C4.46066 19.2215 5.00954 18.6726 5.00954 17.9955C5.00954 17.3184 4.46066 16.7695 3.78358 16.7695C3.1065 16.7695 2.55762 17.3184 2.55762 17.9955C2.55762 18.6726 3.1065 19.2215 3.78358 19.2215Z" stroke="currentColor" stroke-width="1.63462" stroke-linecap="round" stroke-linejoin="round"/>
</svg>
