<svg xmlns="http://www.w3.org/2000/svg" width="22" height="19" viewBox="0 0 22 19" fill="none">
<path d="M21.944 9.96875L18.8011 2.46875C18.7319 2.30355 18.6035 2.16721 18.4387 2.08409C18.2739 2.00097 18.0835 1.97648 17.9015 2.015L11.7857 3.3125V1.25C11.7857 1.05109 11.7029 0.860322 11.5556 0.71967C11.4082 0.579018 11.2084 0.5 11 0.5C10.7916 0.5 10.5918 0.579018 10.4444 0.71967C10.2971 0.860322 10.2143 1.05109 10.2143 1.25V3.64813L3.75769 5.01781C3.6332 5.04406 3.51728 5.09883 3.41992 5.17739C3.32256 5.25595 3.24669 5.35595 3.19885 5.46875V5.47437L0.0559996 12.9688C0.018354 13.0581 -0.000661842 13.1537 1.75841e-05 13.25C1.75841e-05 15.4353 2.41019 16.25 3.92858 16.25C5.44697 16.25 7.85715 15.4353 7.85715 13.25C7.85783 13.1537 7.83881 13.0581 7.80117 12.9688L5.00108 6.29094L10.2143 5.1875V17H8.64286C8.43448 17 8.23463 17.079 8.08728 17.2197C7.93993 17.3603 7.85715 17.5511 7.85715 17.75C7.85715 17.9489 7.93993 18.1397 8.08728 18.2803C8.23463 18.421 8.43448 18.5 8.64286 18.5H13.3571C13.5655 18.5 13.7654 18.421 13.9127 18.2803C14.0601 18.1397 14.1429 17.9489 14.1429 17.75C14.1429 17.5511 14.0601 17.3603 13.9127 17.2197C13.7654 17.079 13.5655 17 13.3571 17H11.7857V4.85187L16.7946 3.79062L14.1988 9.96875C14.1612 10.0581 14.1422 10.1537 14.1429 10.25C14.1429 12.4353 16.553 13.25 18.0714 13.25C19.5898 13.25 22 12.4353 22 10.25C22.0007 10.1537 21.9816 10.0581 21.944 9.96875ZM3.92858 14.75C3.18903 14.75 1.69323 14.4116 1.57832 13.3775L3.92858 7.76937L6.27885 13.3775C6.16394 14.4116 4.66814 14.75 3.92858 14.75ZM18.0714 11.75C17.3319 11.75 15.8361 11.4116 15.7212 10.3775L18.0714 4.76937L20.4217 10.3775C20.3068 11.4116 18.811 11.75 18.0714 11.75Z" fill="currentColor" />
</svg>