<svg width="10" height="10" viewBox="0 0 10 10" fill="none" xmlns="http://www.w3.org/2000/svg">
<path fill-rule="evenodd" clip-rule="evenodd" d="M1 4.5C1 2.567 2.567 1 4.5 1C6.433 1 8 2.567 8 4.5C8 5.44297 7.62709 6.29884 7.0207 6.92819C7.00358 6.94135 6.98712 6.95577 6.97144 6.97145C6.95576 6.98713 6.94134 7.00359 6.92818 7.0207C6.29884 7.62709 5.44297 8 4.5 8C2.567 8 1 6.433 1 4.5ZM7.30884 8.01595C6.53901 8.63176 5.56251 9 4.5 9C2.01472 9 0 6.98528 0 4.5C0 2.01472 2.01472 0 4.5 0C6.98528 0 9 2.01472 9 4.5C9 5.56251 8.63176 6.53901 8.01595 7.30884L9.85355 9.14645C10.0488 9.34171 10.0488 9.65829 9.85355 9.85355C9.65829 10.0488 9.34171 10.0488 9.14644 9.85355L7.30884 8.01595Z" fill="currentColor"/>
</svg>
