<svg width="18" height="18" xmlns="http://www.w3.org/2000/svg" fill="none">
  <path id="svg_1" stroke="currentColor" d="m6.50002,12.75l5.99997,0c0.5305,0 1.0392,-0.2107 1.4142,-0.5858c0.3751,-0.3751 0.5858,-0.8838 0.5858,-1.4142c0,-0.53043 -0.2107,-1.03914 -0.5858,-1.41421c-0.375,-0.37507 -0.8837,-0.58579 -1.4142,-0.58579l-6.99997,0c-0.53043,0 -1.03914,-0.21071 -1.41421,-0.58578c-0.37508,-0.37508 -0.58579,-0.88379 -0.58579,-1.41422c0,-0.53043 0.21071,-1.03914 0.58579,-1.41421c0.37507,-0.37507 0.88378,-0.58579 1.41421,-0.58579l3.242,0m-3.742,6.75c0.39783,0 0.77936,0.158 1.06066,0.4393c0.28131,0.2813 0.43934,0.6629 0.43934,1.0607c0,0.3978 -0.15803,0.7794 -0.43934,1.0607c-0.2813,0.2813 -0.66283,0.4393 -1.06066,0.4393c-0.39782,0 -0.77935,-0.158 -1.06066,-0.4393c-0.2813,-0.2813 -0.43934,-0.6629 -0.43934,-1.0607c0,-0.3978 0.15804,-0.7794 0.43934,-1.0607c0.28131,-0.2813 0.66284,-0.4393 1.06066,-0.4393zm5.49997,-8c0.197,0 0.3921,0.0388 0.5741,0.11418c0.1819,0.07538 0.3473,0.18587 0.4866,0.32516c0.1393,0.13929 0.2498,0.30465 0.3252,0.48664c0.0753,0.18198 0.1141,0.37704 0.1141,0.57402c0,0.19698 -0.0388,0.39204 -0.1141,0.57403c-0.0754,0.18199 -0.1859,0.34734 -0.3252,0.48663c-0.1393,0.13929 -0.3047,0.24978 -0.4866,0.32516c-0.182,0.07538 -0.3771,0.11418 -0.5741,0.11418c-0.3978,0 -0.77932,-0.15803 -1.06063,-0.43934c-0.2813,-0.2813 -0.43934,-0.66283 -0.43934,-1.06066c0,-0.39782 0.15804,-0.77935 0.43934,-1.06066c0.28131,-0.2813 0.66283,-0.43934 1.06063,-0.43934z"/>
</svg>