<svg width="196" height="200" viewBox="0 0 196 200" fill="none" xmlns="http://www.w3.org/2000/svg">
<rect x="0.599398" y="0.709261" width="194.205" height="198.63" rx="23.3765" stroke="#C6192E" stroke-width="1.1988"/>
<path d="M116.203 99.8474C116.203 110.324 107.746 118.811 97.3221 118.811C86.8979 118.811 78.4411 110.324 78.4411 99.8474C78.4411 89.3707 86.8979 80.884 97.3221 80.884C107.746 80.884 116.203 89.3707 116.203 99.8474Z" stroke="url(#paint0_linear_2940_16517)" stroke-width="1.79819" stroke-linejoin="round"/>
<path d="M58.6611 42.0647C58.6611 52.5414 50.2043 61.0281 39.7801 61.0281C29.3559 61.0281 20.8991 52.5414 20.8991 42.0647C20.8991 31.5879 29.3559 23.1012 39.7801 23.1012C50.2043 23.1012 58.6611 31.5879 58.6611 42.0647Z" stroke="url(#paint1_linear_2940_16517)" stroke-width="1.79819" stroke-linejoin="round"/>
<path d="M116.203 42.0647C116.203 52.5414 107.746 61.0281 97.3221 61.0281C86.8979 61.0281 78.4411 52.5414 78.4411 42.0647C78.4411 31.5879 86.8979 23.1012 97.3221 23.1012C107.746 23.1012 116.203 31.5879 116.203 42.0647Z" stroke="url(#paint2_linear_2940_16517)" stroke-width="1.79819" stroke-linejoin="round"/>
<path d="M174.203 42.0647C174.203 52.5414 165.746 61.0281 155.322 61.0281C144.898 61.0281 136.441 52.5414 136.441 42.0647C136.441 31.5879 144.898 23.1012 155.322 23.1012C165.746 23.1012 174.203 31.5879 174.203 42.0647Z" stroke="url(#paint3_linear_2940_16517)" stroke-width="1.79819" stroke-linejoin="round"/>
<path d="M173.745 157.628C173.745 168.105 165.288 176.592 154.864 176.592C144.44 176.592 135.983 168.105 135.983 157.628C135.983 147.151 144.44 138.665 154.864 138.665C165.288 138.665 173.745 147.151 173.745 157.628Z" stroke="url(#paint4_linear_2940_16517)" stroke-width="1.79819" stroke-linejoin="round"/>
<path d="M116.203 157.628C116.203 168.105 107.746 176.592 97.3221 176.592C86.8979 176.592 78.4411 168.105 78.4411 157.628C78.4411 147.151 86.8979 138.665 97.3221 138.665C107.746 138.665 116.203 147.151 116.203 157.628Z" stroke="url(#paint5_linear_2940_16517)" stroke-width="1.79819" stroke-linejoin="round"/>
<path d="M58.6611 157.628C58.6611 168.105 50.2043 176.592 39.7801 176.592C29.3559 176.592 20.8991 168.105 20.8991 157.628C20.8991 147.151 29.3559 138.665 39.7801 138.665C50.2043 138.665 58.6611 147.151 58.6611 157.628Z" stroke="url(#paint6_linear_2940_16517)" stroke-width="1.79819" stroke-linejoin="round"/>
<path d="M58.6611 99.8474C58.6611 110.324 50.2043 118.811 39.7801 118.811C29.3559 118.811 20.8991 110.324 20.8991 99.8474C20.8991 89.3707 29.3559 80.884 39.7801 80.884C50.2043 80.884 58.6611 89.3707 58.6611 99.8474Z" stroke="url(#paint7_linear_2940_16517)" stroke-width="1.79819" stroke-linejoin="round"/>
<path d="M173.745 99.8474C173.745 110.324 165.288 118.811 154.864 118.811C144.44 118.811 135.983 110.324 135.983 99.8474C135.983 89.3707 144.44 80.884 154.864 80.884C165.288 80.884 173.745 89.3707 173.745 99.8474Z" stroke="url(#paint8_linear_2940_16517)" stroke-width="1.79819" stroke-linejoin="round"/>
<defs>
<linearGradient id="paint0_linear_2940_16517" x1="88.5956" y1="109.785" x2="107.211" y2="91.2344" gradientUnits="userSpaceOnUse">
<stop stop-color="#C6192E"/>
<stop offset="0.02" stop-color="#C31B30"/>
<stop offset="0.45" stop-color="#765167"/>
<stop offset="0.76" stop-color="#46738A"/>
<stop offset="0.91" stop-color="#348097"/>
<stop offset="1" stop-color="#348097"/>
</linearGradient>
<linearGradient id="paint1_linear_2940_16517" x1="31.0536" y1="52.0027" x2="49.6693" y2="33.4517" gradientUnits="userSpaceOnUse">
<stop stop-color="#C6192E"/>
<stop offset="0.02" stop-color="#C31B30"/>
<stop offset="0.45" stop-color="#765167"/>
<stop offset="0.76" stop-color="#46738A"/>
<stop offset="0.91" stop-color="#348097"/>
<stop offset="1" stop-color="#348097"/>
</linearGradient>
<linearGradient id="paint2_linear_2940_16517" x1="88.5956" y1="52.0027" x2="107.211" y2="33.4517" gradientUnits="userSpaceOnUse">
<stop stop-color="#C6192E"/>
<stop offset="0.02" stop-color="#C31B30"/>
<stop offset="0.45" stop-color="#765167"/>
<stop offset="0.76" stop-color="#46738A"/>
<stop offset="0.91" stop-color="#348097"/>
<stop offset="1" stop-color="#348097"/>
</linearGradient>
<linearGradient id="paint3_linear_2940_16517" x1="146.596" y1="52.0027" x2="165.211" y2="33.4517" gradientUnits="userSpaceOnUse">
<stop stop-color="#C6192E"/>
<stop offset="0.02" stop-color="#C31B30"/>
<stop offset="0.45" stop-color="#765167"/>
<stop offset="0.76" stop-color="#46738A"/>
<stop offset="0.91" stop-color="#348097"/>
<stop offset="1" stop-color="#348097"/>
</linearGradient>
<linearGradient id="paint4_linear_2940_16517" x1="146.138" y1="167.566" x2="164.753" y2="149.015" gradientUnits="userSpaceOnUse">
<stop stop-color="#C6192E"/>
<stop offset="0.02" stop-color="#C31B30"/>
<stop offset="0.45" stop-color="#765167"/>
<stop offset="0.76" stop-color="#46738A"/>
<stop offset="0.91" stop-color="#348097"/>
<stop offset="1" stop-color="#348097"/>
</linearGradient>
<linearGradient id="paint5_linear_2940_16517" x1="88.5956" y1="167.566" x2="107.211" y2="149.015" gradientUnits="userSpaceOnUse">
<stop stop-color="#C6192E"/>
<stop offset="0.02" stop-color="#C31B30"/>
<stop offset="0.45" stop-color="#765167"/>
<stop offset="0.76" stop-color="#46738A"/>
<stop offset="0.91" stop-color="#348097"/>
<stop offset="1" stop-color="#348097"/>
</linearGradient>
<linearGradient id="paint6_linear_2940_16517" x1="31.0536" y1="167.566" x2="49.6693" y2="149.015" gradientUnits="userSpaceOnUse">
<stop stop-color="#C6192E"/>
<stop offset="0.02" stop-color="#C31B30"/>
<stop offset="0.45" stop-color="#765167"/>
<stop offset="0.76" stop-color="#46738A"/>
<stop offset="0.91" stop-color="#348097"/>
<stop offset="1" stop-color="#348097"/>
</linearGradient>
<linearGradient id="paint7_linear_2940_16517" x1="31.0536" y1="109.785" x2="49.6693" y2="91.2344" gradientUnits="userSpaceOnUse">
<stop stop-color="#C6192E"/>
<stop offset="0.02" stop-color="#C31B30"/>
<stop offset="0.45" stop-color="#765167"/>
<stop offset="0.76" stop-color="#46738A"/>
<stop offset="0.91" stop-color="#348097"/>
<stop offset="1" stop-color="#348097"/>
</linearGradient>
<linearGradient id="paint8_linear_2940_16517" x1="146.138" y1="109.785" x2="164.753" y2="91.2344" gradientUnits="userSpaceOnUse">
<stop stop-color="#C6192E"/>
<stop offset="0.02" stop-color="#C31B30"/>
<stop offset="0.45" stop-color="#765167"/>
<stop offset="0.76" stop-color="#46738A"/>
<stop offset="0.91" stop-color="#348097"/>
<stop offset="1" stop-color="#348097"/>
</linearGradient>
</defs>
</svg>
