<svg width="215" height="200" viewBox="0 0 216 200" fill="none" xmlns="http://www.w3.org/2000/svg">
<rect x="1.0286" y="1.12723" width="194.205" height="198.63" rx="23.3765" stroke="#C6192E" stroke-width="1.1988"/>
<path d="M116.632 100.265C116.632 110.742 108.175 119.229 97.7513 119.229C87.3271 119.229 78.8703 110.742 78.8703 100.265C78.8703 89.7886 87.3271 81.3019 97.7513 81.3019C108.175 81.3019 116.632 89.7886 116.632 100.265Z" stroke="url(#paint0_linear_469_3997)" stroke-width="1.79819" stroke-linejoin="round"/>
<path d="M59.0903 42.4827C59.0903 52.9594 50.6335 61.4461 40.2093 61.4461C29.7851 61.4461 21.3283 52.9594 21.3283 42.4827C21.3283 32.0059 29.7851 23.5192 40.2093 23.5192C50.6335 23.5192 59.0903 32.0059 59.0903 42.4827Z" stroke="url(#paint1_linear_469_3997)" stroke-width="1.79819" stroke-linejoin="round"/>
<path d="M116.632 42.4827C116.632 52.9594 108.175 61.4461 97.7513 61.4461C87.3271 61.4461 78.8703 52.9594 78.8703 42.4827C78.8703 32.0059 87.3271 23.5192 97.7513 23.5192C108.175 23.5192 116.632 32.0059 116.632 42.4827Z" stroke="url(#paint2_linear_469_3997)" stroke-width="1.79819" stroke-linejoin="round"/>
<mask id="path-5-inside-1_469_3997" fill="white">
<ellipse cx="155.294" cy="42.4827" rx="19.7801" ry="19.8625"/>
</mask>
<path d="M154.694 42.4827C154.694 42.4827 154.694 42.4822 154.694 42.4813C154.694 42.4804 154.694 42.4791 154.695 42.4773C154.695 42.4738 154.695 42.469 154.696 42.4629C154.697 42.4504 154.699 42.4347 154.703 42.4163C154.711 42.3787 154.723 42.3399 154.738 42.3031C154.768 42.2323 154.804 42.1828 154.84 42.1471C154.876 42.1113 154.934 42.0657 155.026 42.0265C155.132 41.9815 155.236 41.9657 155.294 41.9657V82.7247C177.553 82.7247 195.453 64.6278 195.453 42.4827H154.694ZM155.294 41.9657C155.351 41.9657 155.455 41.9815 155.561 42.0265C155.654 42.0657 155.712 42.1113 155.748 42.1471C155.783 42.1828 155.82 42.2323 155.85 42.3031C155.865 42.3399 155.877 42.3787 155.885 42.4163C155.888 42.4347 155.891 42.4504 155.892 42.4629C155.892 42.469 155.893 42.4738 155.893 42.4773C155.893 42.4791 155.893 42.4804 155.893 42.4813C155.893 42.4822 155.893 42.4827 155.893 42.4827H115.134C115.134 64.6278 133.034 82.7247 155.294 82.7247V41.9657ZM155.893 42.4827C155.893 42.4826 155.893 42.4831 155.893 42.484C155.893 42.4849 155.893 42.4862 155.893 42.488C155.893 42.4915 155.892 42.4963 155.892 42.5024C155.891 42.5149 155.888 42.5307 155.885 42.549C155.877 42.5866 155.865 42.6254 155.85 42.6622C155.82 42.733 155.783 42.7825 155.748 42.8182C155.712 42.854 155.654 42.8996 155.561 42.9388C155.455 42.9838 155.351 42.9996 155.294 42.9996V2.2406C133.034 2.2406 115.134 20.3376 115.134 42.4827H155.893ZM155.294 42.9996C155.236 42.9996 155.132 42.9838 155.026 42.9388C154.934 42.8996 154.876 42.854 154.84 42.8182C154.804 42.7825 154.768 42.733 154.738 42.6622C154.723 42.6254 154.711 42.5866 154.703 42.549C154.699 42.5307 154.697 42.5149 154.696 42.5024C154.695 42.4963 154.695 42.4915 154.695 42.488C154.694 42.4862 154.694 42.4849 154.694 42.484C154.694 42.4831 154.694 42.4826 154.694 42.4827H195.453C195.453 20.3376 177.553 2.2406 155.294 2.2406V42.9996Z" fill="url(#paint3_linear_469_3997)" mask="url(#path-5-inside-1_469_3997)"/>
<mask id="path-7-inside-2_469_3997" fill="white">
<path d="M173.387 50.5081C171.271 55.3199 167.34 59.0921 162.457 60.9971C157.574 62.902 152.138 62.7841 147.341 60.6692C142.545 58.5543 138.78 54.6152 136.872 49.7161C134.964 44.817 135.07 39.358 137.165 34.5369C139.261 29.7158 143.175 25.9264 148.05 24C152.925 22.0736 158.361 22.1675 163.167 24.2613C167.972 26.355 171.755 30.2775 173.684 35.1682C175.613 40.0589 175.531 45.5182 173.457 50.3485L155.294 42.4827L173.387 50.5081Z"/>
</mask>
<path d="M173.387 50.5081C171.271 55.3199 167.34 59.0921 162.457 60.9971C157.574 62.902 152.138 62.7841 147.341 60.6692C142.545 58.5543 138.78 54.6152 136.872 49.7161C134.964 44.817 135.07 39.358 137.165 34.5369C139.261 29.7158 143.175 25.9264 148.05 24C152.925 22.0736 158.361 22.1675 163.167 24.2613C167.972 26.355 171.755 30.2775 173.684 35.1682C175.613 40.0589 175.531 45.5182 173.457 50.3485L155.294 42.4827L173.387 50.5081Z" stroke="url(#paint4_linear_469_3997)" stroke-width="40.759" stroke-linejoin="round" mask="url(#path-7-inside-2_469_3997)"/>
<path d="M174.175 158.046C174.175 168.523 165.718 177.01 155.294 177.01C144.87 177.01 136.413 168.523 136.413 158.046C136.413 147.569 144.87 139.083 155.294 139.083C165.718 139.083 174.175 147.569 174.175 158.046Z" stroke="url(#paint5_linear_469_3997)" stroke-width="1.79819" stroke-linejoin="round"/>
<path d="M116.632 158.046C116.632 168.523 108.175 177.01 97.7513 177.01C87.3271 177.01 78.8703 168.523 78.8703 158.046C78.8703 147.569 87.3271 139.083 97.7513 139.083C108.175 139.083 116.632 147.569 116.632 158.046Z" stroke="url(#paint6_linear_469_3997)" stroke-width="1.79819" stroke-linejoin="round"/>
<path d="M59.0903 158.046C59.0903 168.523 50.6335 177.01 40.2093 177.01C29.7851 177.01 21.3283 168.523 21.3283 158.046C21.3283 147.569 29.7851 139.083 40.2093 139.083C50.6335 139.083 59.0903 147.569 59.0903 158.046Z" stroke="url(#paint7_linear_469_3997)" stroke-width="1.79819" stroke-linejoin="round"/>
<path d="M59.0903 100.265C59.0903 110.742 50.6335 119.229 40.2093 119.229C29.7851 119.229 21.3283 110.742 21.3283 100.265C21.3283 89.7886 29.7851 81.3019 40.2093 81.3019C50.6335 81.3019 59.0903 89.7886 59.0903 100.265Z" stroke="url(#paint8_linear_469_3997)" stroke-width="1.79819" stroke-linejoin="round"/>
<path d="M174.175 100.265C174.175 110.742 165.718 119.229 155.294 119.229C144.87 119.229 136.413 110.742 136.413 100.265C136.413 89.7886 144.87 81.3019 155.294 81.3019C165.718 81.3019 174.175 89.7886 174.175 100.265Z" stroke="url(#paint9_linear_469_3997)" stroke-width="1.79819" stroke-linejoin="round"/>
<g clip-path="url(#clip0_469_3997)">
<mask id="mask0_469_3997" style="mask-type:luminance" maskUnits="userSpaceOnUse" x="139" y="20" width="78" height="78">
<path d="M209.916 20.9897L139.489 27.5522L145.914 97.0734L216.34 90.5108L209.916 20.9897Z" fill="white"/>
</mask>
<g mask="url(#mask0_469_3997)">
<path d="M204.328 89.7969L190.391 78.6695C189.975 78.3316 189.359 78.3919 189.015 78.8042C188.961 78.8686 188.916 78.9396 188.881 79.0153L184.138 88.988C183.644 90.0368 182.384 90.4941 181.324 90.0094C180.89 89.8113 180.537 89.4739 180.324 89.0515L157.797 44.9073C157.292 43.92 157.695 42.7134 158.697 42.2122C159.157 41.9815 159.69 41.9325 160.185 42.0754L207.999 55.9606C209.123 56.288 209.762 57.4542 209.428 58.5655C209.287 59.0319 208.986 59.4362 208.578 59.709L199.686 65.6446C199.237 65.9425 199.117 66.5424 199.417 66.9844C199.468 67.0603 199.53 67.1286 199.601 67.1871L213.376 78.7333C214.663 79.8205 214.856 81.7175 213.812 83.0419L208.809 89.311C207.715 90.6654 205.72 90.8911 204.352 89.8157C204.344 89.8097 204.336 89.8035 204.328 89.7969Z" fill="#1A1C1E" stroke="url(#paint10_linear_469_3997)" stroke-width="1.86408" stroke-linejoin="round"/>
</g>
</g>
<defs>
<linearGradient id="paint0_linear_469_3997" x1="89.0248" y1="110.203" x2="107.641" y2="91.6524" gradientUnits="userSpaceOnUse">
<stop stop-color="#C6192E"/>
<stop offset="0.02" stop-color="#C31B30"/>
<stop offset="0.45" stop-color="#765167"/>
<stop offset="0.76" stop-color="#46738A"/>
<stop offset="0.91" stop-color="#348097"/>
<stop offset="1" stop-color="#348097"/>
</linearGradient>
<linearGradient id="paint1_linear_469_3997" x1="31.4828" y1="52.4207" x2="50.0985" y2="33.8697" gradientUnits="userSpaceOnUse">
<stop stop-color="#C6192E"/>
<stop offset="0.02" stop-color="#C31B30"/>
<stop offset="0.45" stop-color="#765167"/>
<stop offset="0.76" stop-color="#46738A"/>
<stop offset="0.91" stop-color="#348097"/>
<stop offset="1" stop-color="#348097"/>
</linearGradient>
<linearGradient id="paint2_linear_469_3997" x1="89.0248" y1="52.4207" x2="107.641" y2="33.8697" gradientUnits="userSpaceOnUse">
<stop stop-color="#C6192E"/>
<stop offset="0.02" stop-color="#C31B30"/>
<stop offset="0.45" stop-color="#765167"/>
<stop offset="0.76" stop-color="#46738A"/>
<stop offset="0.91" stop-color="#348097"/>
<stop offset="1" stop-color="#348097"/>
</linearGradient>
<linearGradient id="paint3_linear_469_3997" x1="146.567" y1="52.4207" x2="165.183" y2="33.8697" gradientUnits="userSpaceOnUse">
<stop stop-color="#C6192E"/>
<stop offset="0.02" stop-color="#C31B30"/>
<stop offset="0.45" stop-color="#765167"/>
<stop offset="0.76" stop-color="#46738A"/>
<stop offset="0.91" stop-color="#348097"/>
<stop offset="1" stop-color="#348097"/>
</linearGradient>
<linearGradient id="paint4_linear_469_3997" x1="146.567" y1="52.4207" x2="165.183" y2="33.8697" gradientUnits="userSpaceOnUse">
<stop stop-color="#C6192E"/>
<stop offset="0.02" stop-color="#C31B30"/>
<stop offset="0.45" stop-color="#765167"/>
<stop offset="0.76" stop-color="#46738A"/>
<stop offset="0.91" stop-color="#348097"/>
<stop offset="1" stop-color="#348097"/>
</linearGradient>
<linearGradient id="paint5_linear_469_3997" x1="146.567" y1="167.984" x2="165.183" y2="149.433" gradientUnits="userSpaceOnUse">
<stop stop-color="#C6192E"/>
<stop offset="0.02" stop-color="#C31B30"/>
<stop offset="0.45" stop-color="#765167"/>
<stop offset="0.76" stop-color="#46738A"/>
<stop offset="0.91" stop-color="#348097"/>
<stop offset="1" stop-color="#348097"/>
</linearGradient>
<linearGradient id="paint6_linear_469_3997" x1="89.0248" y1="167.984" x2="107.641" y2="149.433" gradientUnits="userSpaceOnUse">
<stop stop-color="#C6192E"/>
<stop offset="0.02" stop-color="#C31B30"/>
<stop offset="0.45" stop-color="#765167"/>
<stop offset="0.76" stop-color="#46738A"/>
<stop offset="0.91" stop-color="#348097"/>
<stop offset="1" stop-color="#348097"/>
</linearGradient>
<linearGradient id="paint7_linear_469_3997" x1="31.4828" y1="167.984" x2="50.0985" y2="149.433" gradientUnits="userSpaceOnUse">
<stop stop-color="#C6192E"/>
<stop offset="0.02" stop-color="#C31B30"/>
<stop offset="0.45" stop-color="#765167"/>
<stop offset="0.76" stop-color="#46738A"/>
<stop offset="0.91" stop-color="#348097"/>
<stop offset="1" stop-color="#348097"/>
</linearGradient>
<linearGradient id="paint8_linear_469_3997" x1="31.4828" y1="110.203" x2="50.0985" y2="91.6524" gradientUnits="userSpaceOnUse">
<stop stop-color="#C6192E"/>
<stop offset="0.02" stop-color="#C31B30"/>
<stop offset="0.45" stop-color="#765167"/>
<stop offset="0.76" stop-color="#46738A"/>
<stop offset="0.91" stop-color="#348097"/>
<stop offset="1" stop-color="#348097"/>
</linearGradient>
<linearGradient id="paint9_linear_469_3997" x1="146.567" y1="110.203" x2="165.183" y2="91.6524" gradientUnits="userSpaceOnUse">
<stop stop-color="#C6192E"/>
<stop offset="0.02" stop-color="#C31B30"/>
<stop offset="0.45" stop-color="#765167"/>
<stop offset="0.76" stop-color="#46738A"/>
<stop offset="0.91" stop-color="#348097"/>
<stop offset="1" stop-color="#348097"/>
</linearGradient>
<linearGradient id="paint10_linear_469_3997" x1="164.352" y1="77.3682" x2="193.089" y2="42.2834" gradientUnits="userSpaceOnUse">
<stop stop-color="#C6192E"/>
<stop offset="0.02" stop-color="#C31B30"/>
<stop offset="0.45" stop-color="#765167"/>
<stop offset="0.76" stop-color="#46738A"/>
<stop offset="0.91" stop-color="#348097"/>
<stop offset="1" stop-color="#348097"/>
</linearGradient>
<clipPath id="clip0_469_3997">
<rect width="70.7314" height="69.8174" fill="white" transform="matrix(0.995687 -0.0927817 0.0920198 0.995757 139.489 27.5522)"/>
</clipPath>
</defs>
</svg>
