<svg width="18" height="19" viewBox="0 0 18 19" fill="none" xmlns="http://www.w3.org/2000/svg">
<rect x="0.25" y="0.75" width="17.1747" height="17.5" rx="1.74882" stroke="currentColor" stroke-width="0.5"/>
<circle cx="8.80283" cy="9.48838" r="1.38916" stroke="url(#paint0_linear_3544_15078)" stroke-width="0.8" stroke-linejoin="round"/>
<circle cx="3.59775" cy="4.28281" r="1.38916" stroke="url(#paint1_linear_3544_15078)" stroke-width="0.8" stroke-linejoin="round"/>
<circle cx="8.80283" cy="4.28281" r="1.38916" stroke="url(#paint2_linear_3544_15078)" stroke-width="0.8" stroke-linejoin="round"/>
<circle cx="14.0079" cy="4.28281" r="1.38916" stroke="url(#paint3_linear_3544_15078)" stroke-width="0.8" stroke-linejoin="round"/>
<mask id="path-6-inside-1_3544_15078" fill="white">
<path d="M15.6445 5.00572C15.4531 5.43915 15.0975 5.77894 14.6558 5.95053C14.2141 6.12212 13.7224 6.1115 13.2886 5.921C12.8547 5.7305 12.5142 5.37567 12.3416 4.93438C12.1691 4.49308 12.1786 4.00135 12.3681 3.56708C12.5577 3.13281 12.9118 2.79147 13.3527 2.61794C13.7936 2.44442 14.2854 2.45288 14.72 2.64148C15.1547 2.83008 15.4968 3.18341 15.6713 3.62395C15.8458 4.06448 15.8384 4.55625 15.6508 4.99134L15.1579 4.77878C15.2893 4.47421 15.2944 4.12998 15.1723 3.8216C15.0502 3.51323 14.8107 3.2659 14.5064 3.13388C14.2021 3.00186 13.8579 2.99594 13.5493 3.1174C13.2406 3.23887 12.9928 3.47781 12.8601 3.7818C12.7274 4.08579 12.7207 4.43 12.8415 4.73891C12.9623 5.04781 13.2007 5.29619 13.5044 5.42954C13.8081 5.56289 14.1523 5.57033 14.4614 5.45021C14.7706 5.3301 15.0195 5.09225 15.1535 4.78884L15.6445 5.00572Z"/>
</mask>
<path d="M15.6445 5.00572C15.4531 5.43915 15.0975 5.77894 14.6558 5.95053C14.2141 6.12212 13.7224 6.1115 13.2886 5.921C12.8547 5.7305 12.5142 5.37567 12.3416 4.93438C12.1691 4.49308 12.1786 4.00135 12.3681 3.56708C12.5577 3.13281 12.9118 2.79147 13.3527 2.61794C13.7936 2.44442 14.2854 2.45288 14.72 2.64148C15.1547 2.83008 15.4968 3.18341 15.6713 3.62395C15.8458 4.06448 15.8384 4.55625 15.6508 4.99134L15.1579 4.77878C15.2893 4.47421 15.2944 4.12998 15.1723 3.8216C15.0502 3.51323 14.8107 3.2659 14.5064 3.13388C14.2021 3.00186 13.8579 2.99594 13.5493 3.1174C13.2406 3.23887 12.9928 3.47781 12.8601 3.7818C12.7274 4.08579 12.7207 4.43 12.8415 4.73891C12.9623 5.04781 13.2007 5.29619 13.5044 5.42954C13.8081 5.56289 14.1523 5.57033 14.4614 5.45021C14.7706 5.3301 15.0195 5.09225 15.1535 4.78884L15.6445 5.00572Z" stroke="url(#paint4_linear_3544_15078)" stroke-width="1.6" stroke-linejoin="round" mask="url(#path-6-inside-1_3544_15078)"/>
<circle cx="14.0079" cy="14.6915" r="1.38916" stroke="url(#paint5_linear_3544_15078)" stroke-width="0.8" stroke-linejoin="round"/>
<circle cx="8.80283" cy="14.6915" r="1.38916" stroke="url(#paint6_linear_3544_15078)" stroke-width="0.8" stroke-linejoin="round"/>
<circle cx="3.59775" cy="14.6915" r="1.38916" stroke="url(#paint7_linear_3544_15078)" stroke-width="0.8" stroke-linejoin="round"/>
<circle cx="3.59775" cy="9.48838" r="1.38916" stroke="url(#paint8_linear_3544_15078)" stroke-width="0.8" stroke-linejoin="round"/>
<circle cx="14.0079" cy="9.48838" r="1.38916" stroke="url(#paint9_linear_3544_15078)" stroke-width="0.8" stroke-linejoin="round"/>
<defs>
<linearGradient id="paint0_linear_3544_15078" x1="8.0135" y1="10.3836" x2="9.69035" y2="8.70557" gradientUnits="userSpaceOnUse">
<stop stop-color="#C6192E"/>
<stop offset="0.02" stop-color="#C31B30"/>
<stop offset="0.45" stop-color="#765167"/>
<stop offset="0.76" stop-color="#46738A"/>
<stop offset="0.91" stop-color="#348097"/>
<stop offset="1" stop-color="#348097"/>
</linearGradient>
<linearGradient id="paint1_linear_3544_15078" x1="2.80842" y1="5.178" x2="4.48528" y2="3.50001" gradientUnits="userSpaceOnUse">
<stop stop-color="#C6192E"/>
<stop offset="0.02" stop-color="#C31B30"/>
<stop offset="0.45" stop-color="#765167"/>
<stop offset="0.76" stop-color="#46738A"/>
<stop offset="0.91" stop-color="#348097"/>
<stop offset="1" stop-color="#348097"/>
</linearGradient>
<linearGradient id="paint2_linear_3544_15078" x1="8.0135" y1="5.178" x2="9.69035" y2="3.50001" gradientUnits="userSpaceOnUse">
<stop stop-color="#C6192E"/>
<stop offset="0.02" stop-color="#C31B30"/>
<stop offset="0.45" stop-color="#765167"/>
<stop offset="0.76" stop-color="#46738A"/>
<stop offset="0.91" stop-color="#348097"/>
<stop offset="1" stop-color="#348097"/>
</linearGradient>
<linearGradient id="paint3_linear_3544_15078" x1="13.2186" y1="5.178" x2="14.8954" y2="3.50001" gradientUnits="userSpaceOnUse">
<stop stop-color="#C6192E"/>
<stop offset="0.02" stop-color="#C31B30"/>
<stop offset="0.45" stop-color="#765167"/>
<stop offset="0.76" stop-color="#46738A"/>
<stop offset="0.91" stop-color="#348097"/>
<stop offset="1" stop-color="#348097"/>
</linearGradient>
<linearGradient id="paint4_linear_3544_15078" x1="13.2186" y1="5.178" x2="14.8954" y2="3.50001" gradientUnits="userSpaceOnUse">
<stop stop-color="#C6192E"/>
<stop offset="0.02" stop-color="#C31B30"/>
<stop offset="0.45" stop-color="#765167"/>
<stop offset="0.76" stop-color="#46738A"/>
<stop offset="0.91" stop-color="#348097"/>
<stop offset="1" stop-color="#348097"/>
</linearGradient>
<linearGradient id="paint5_linear_3544_15078" x1="13.2186" y1="15.5867" x2="14.8954" y2="13.9087" gradientUnits="userSpaceOnUse">
<stop stop-color="#C6192E"/>
<stop offset="0.02" stop-color="#C31B30"/>
<stop offset="0.45" stop-color="#765167"/>
<stop offset="0.76" stop-color="#46738A"/>
<stop offset="0.91" stop-color="#348097"/>
<stop offset="1" stop-color="#348097"/>
</linearGradient>
<linearGradient id="paint6_linear_3544_15078" x1="8.0135" y1="15.5867" x2="9.69035" y2="13.9087" gradientUnits="userSpaceOnUse">
<stop stop-color="#C6192E"/>
<stop offset="0.02" stop-color="#C31B30"/>
<stop offset="0.45" stop-color="#765167"/>
<stop offset="0.76" stop-color="#46738A"/>
<stop offset="0.91" stop-color="#348097"/>
<stop offset="1" stop-color="#348097"/>
</linearGradient>
<linearGradient id="paint7_linear_3544_15078" x1="2.80842" y1="15.5867" x2="4.48528" y2="13.9087" gradientUnits="userSpaceOnUse">
<stop stop-color="#C6192E"/>
<stop offset="0.02" stop-color="#C31B30"/>
<stop offset="0.45" stop-color="#765167"/>
<stop offset="0.76" stop-color="#46738A"/>
<stop offset="0.91" stop-color="#348097"/>
<stop offset="1" stop-color="#348097"/>
</linearGradient>
<linearGradient id="paint8_linear_3544_15078" x1="2.80842" y1="10.3836" x2="4.48528" y2="8.70557" gradientUnits="userSpaceOnUse">
<stop stop-color="#C6192E"/>
<stop offset="0.02" stop-color="#C31B30"/>
<stop offset="0.45" stop-color="#765167"/>
<stop offset="0.76" stop-color="#46738A"/>
<stop offset="0.91" stop-color="#348097"/>
<stop offset="1" stop-color="#348097"/>
</linearGradient>
<linearGradient id="paint9_linear_3544_15078" x1="13.2186" y1="10.3836" x2="14.8954" y2="8.70557" gradientUnits="userSpaceOnUse">
<stop stop-color="#C6192E"/>
<stop offset="0.02" stop-color="#C31B30"/>
<stop offset="0.45" stop-color="#765167"/>
<stop offset="0.76" stop-color="#46738A"/>
<stop offset="0.91" stop-color="#348097"/>
<stop offset="1" stop-color="#348097"/>
</linearGradient>
</defs>
</svg>
