<svg width="16" height="16" viewBox="0 0 16 16" fill="none" xmlns="http://www.w3.org/2000/svg">
<path fill-rule="evenodd" clip-rule="evenodd" d="M14.8962 0.653784C15.0388 0.796394 15.0872 1.00809 15.0205 1.19845L10.1205 15.1984C10.0494 15.4016 9.86148 15.5408 9.6464 15.5496C9.43132 15.5584 9.23268 15.4349 9.14525 15.2382L6.42726 9.12276L0.31178 6.40477C0.115073 6.31734 -0.00833571 6.1187 0.000439051 5.90361C0.00921381 5.68853 0.148393 5.5006 0.351569 5.42949L14.3516 0.529489C14.5419 0.462864 14.7536 0.511174 14.8962 0.653784ZM7.4512 8.84128L9.56693 13.6017L13.2695 3.023L7.4512 8.84128ZM12.527 2.28054L1.94832 5.98308L6.70873 8.09882L12.527 2.28054Z" fill="currentColor"/>
</svg>