<svg width="12" height="12" viewBox="0 0 12 12" fill="none" xmlns="http://www.w3.org/2000/svg">
<path d="M5.12119 0.845529C5.18301 0.819028 5.25044 0.808291 5.31743 0.814282C5.38443 0.820273 5.44889 0.842804 5.50502 0.879853C5.56116 0.916902 5.60722 0.96731 5.63907 1.02655C5.67092 1.08579 5.68756 1.15202 5.6875 1.21928V1.39478L6.461 1.03728L6.48538 1.02672C6.45615 0.843585 6.38553 0.669536 6.27887 0.517827C6.17222 0.366117 6.03235 0.240747 5.86992 0.151264C5.70749 0.0617823 5.52678 0.0105479 5.34155 0.00146334C5.15633 -0.00762124 4.97147 0.0256836 4.80106 0.0988413L1.23094 1.62878C0.865567 1.7854 0.554185 2.0458 0.33538 2.37769C0.116575 2.70958 -3.55938e-05 3.09838 8.14972e-09 3.4959V6.90515C2.77651e-05 7.10012 0.0468273 7.29223 0.13647 7.46536C0.226112 7.63849 0.355982 7.78759 0.515175 7.90014C0.674369 8.01269 0.85824 8.0854 1.05135 8.11218C1.24447 8.13896 1.44119 8.11902 1.625 8.05403V7.17328L1.37881 7.2789C1.31699 7.3054 1.24956 7.31614 1.18257 7.31015C1.11557 7.30416 1.05111 7.28163 0.994977 7.24458C0.93884 7.20753 0.89278 7.15712 0.860931 7.09788C0.829081 7.03864 0.81244 6.97241 0.8125 6.90515V3.49672C0.8125 3.00922 1.10338 2.56884 1.55188 2.37628L5.12119 0.845529ZM7.55869 2.47053C7.62051 2.44403 7.68794 2.43329 7.75493 2.43928C7.82193 2.44527 7.88639 2.4678 7.94252 2.50485C7.99866 2.5419 8.04472 2.59231 8.07657 2.65155C8.10842 2.71079 8.12506 2.77702 8.125 2.84428V3.12947L8.93588 2.78172C8.92578 2.58566 8.86848 2.39495 8.76885 2.2258C8.66921 2.05665 8.53018 1.91407 8.3636 1.8102C8.19702 1.70632 8.00781 1.64423 7.81208 1.62919C7.61634 1.61416 7.41987 1.64663 7.23937 1.72384L3.17687 3.46503C2.9576 3.55884 2.77067 3.71492 2.63925 3.91394C2.50782 4.11295 2.43767 4.34616 2.4375 4.58465V8.52772C2.43753 8.72268 2.48433 8.91479 2.57397 9.08792C2.66361 9.26105 2.79348 9.41015 2.95268 9.5227C3.11187 9.63525 3.29574 9.70796 3.48885 9.73474C3.68197 9.76152 3.87869 9.74158 4.0625 9.67659V8.79584L3.81631 8.90147C3.75449 8.92797 3.68706 8.9387 3.62007 8.93271C3.55307 8.92672 3.48861 8.90419 3.43248 8.86714C3.37634 8.83009 3.33028 8.77969 3.29843 8.72044C3.26658 8.6612 3.24994 8.59498 3.25 8.52772V4.58465C3.25 4.42215 3.3475 4.2759 3.49619 4.2109L7.55869 2.47053ZM11.375 4.46928C11.375 4.26767 11.325 4.06921 11.2294 3.89169C11.1338 3.71416 10.9957 3.56312 10.8275 3.45209C10.6592 3.34105 10.466 3.2735 10.2652 3.25548C10.0644 3.23746 9.86223 3.26954 9.67687 3.34884L5.61437 5.09003C5.39498 5.18389 5.20796 5.3401 5.07652 5.53928C4.94509 5.73845 4.87501 5.97183 4.875 6.21047V10.1527C4.87501 10.3549 4.9253 10.5538 5.02133 10.7317C5.11736 10.9095 5.25613 11.0607 5.42513 11.1716C5.59413 11.2825 5.78806 11.3496 5.98945 11.3669C6.19084 11.3842 6.39338 11.3512 6.57881 11.2707L10.6413 9.5084C10.8593 9.41385 11.0448 9.25765 11.1752 9.05902C11.3055 8.86038 11.375 8.62799 11.375 8.3904V4.46928ZM9.99619 4.09553C10.058 4.06903 10.1254 4.05829 10.1924 4.06428C10.2594 4.07027 10.3239 4.0928 10.38 4.12985C10.4362 4.1669 10.4822 4.21731 10.5141 4.27655C10.5459 4.33579 10.5626 4.40202 10.5625 4.46928V8.3904C10.5625 8.46964 10.5394 8.54717 10.496 8.61343C10.4525 8.67969 10.3906 8.7318 10.3179 8.76334L6.25544 10.5248C6.1936 10.5517 6.12607 10.5627 6.05892 10.5569C5.99176 10.5511 5.9271 10.5287 5.87076 10.4917C5.81442 10.4547 5.76817 10.4043 5.73618 10.345C5.70419 10.2857 5.68746 10.2193 5.6875 10.1519V6.21047C5.6875 6.04797 5.785 5.9009 5.93369 5.83672L9.99619 4.09553Z" fill="currentColor"/>
</svg>
