<svg width="18" height="18" viewBox="0 0 18 18" fill="none" xmlns="http://www.w3.org/2000/svg">
<path fill-rule="evenodd" clip-rule="evenodd" d="M8.9999 5.88326C8.38343 5.88326 7.78081 6.06607 7.26824 6.40856C6.75567 6.75104 6.35617 7.2378 6.12026 7.80734C5.88436 8.37687 5.82265 9.00358 5.94291 9.60819C6.06318 10.2128 6.36002 10.7682 6.79592 11.2041C7.23183 11.64 7.7872 11.9369 8.39182 12.0571C8.99643 12.1774 9.62314 12.1157 10.1927 11.8797C10.7622 11.6438 11.249 11.2444 11.5915 10.7318C11.934 10.2192 12.1168 9.6166 12.1168 9.00014C12.1157 8.17381 11.787 7.38161 11.2027 6.79731C10.6184 6.213 9.82623 5.88429 8.9999 5.88326ZM8.9999 10.9482C8.61461 10.9482 8.23798 10.8339 7.91762 10.6199C7.59727 10.4058 7.34758 10.1016 7.20013 9.74564C7.05269 9.38968 7.01411 8.99797 7.08927 8.62009C7.16444 8.2422 7.34998 7.8951 7.62242 7.62266C7.89486 7.35022 8.24196 7.16468 8.61984 7.08952C8.99773 7.01435 9.38941 7.05294 9.74537 7.20038C10.1013 7.34782 10.4056 7.59751 10.6196 7.91787C10.8337 8.23822 10.9479 8.61485 10.9479 9.00014C10.9479 9.5168 10.7427 10.0123 10.3774 10.3776C10.012 10.7429 9.51655 10.9482 8.9999 10.9482ZM16.4025 6.66248H15.1947C15.1452 6.53001 15.0911 6.40144 15.033 6.27287L15.8874 5.41964C16.1064 5.19977 16.2294 4.90207 16.2294 4.59172C16.2294 4.28137 16.1064 3.98367 15.8874 3.7638L14.2343 2.11181C14.1258 2.00325 13.9969 1.91716 13.8551 1.85841C13.7133 1.79966 13.5613 1.76942 13.4077 1.76942C13.2542 1.76942 13.1022 1.79966 12.9604 1.85841C12.8186 1.91716 12.6897 2.00325 12.5812 2.11181L11.7272 2.96898C11.5991 2.91054 11.4692 2.85597 11.3376 2.80532V1.59754C11.3376 1.28755 11.2144 0.990245 10.9952 0.771047C10.776 0.551848 10.4787 0.428711 10.1687 0.428711H7.83106C7.52107 0.428711 7.22377 0.551848 7.00457 0.771047C6.78537 0.990245 6.66223 1.28755 6.66223 1.59754V2.80532C6.53106 2.85727 6.40119 2.91184 6.27262 2.96898L5.41859 2.11181C5.31005 2.00325 5.18119 1.91716 5.03937 1.85841C4.89755 1.79966 4.74556 1.76942 4.59205 1.76942C4.43854 1.76942 4.28652 1.79966 4.1447 1.85841C4.00288 1.91716 3.87402 2.00325 3.76548 2.11181L2.11237 3.7638C1.89334 3.98367 1.77037 4.28137 1.77037 4.59172C1.77037 4.90207 1.89334 5.19977 2.11237 5.41964L2.96678 6.27287C2.90873 6.40144 2.85457 6.53001 2.8047 6.66248H1.5973C1.2873 6.66248 0.990001 6.78561 0.770803 7.00481C0.551604 7.22401 0.428467 7.52132 0.428467 7.83131V10.169C0.428467 10.479 0.551604 10.7763 0.770803 10.9955C0.990001 11.2147 1.2873 11.3378 1.5973 11.3378H2.80508C2.85495 11.4703 2.90911 11.5988 2.96716 11.7274L2.11275 12.5806C1.89372 12.8005 1.77075 13.0982 1.77075 13.4086C1.77075 13.7189 1.89372 14.0166 2.11275 14.2365L3.76586 15.8885C3.8744 15.997 4.00326 16.0831 4.14508 16.1419C4.2869 16.2006 4.43892 16.2309 4.59243 16.2309C4.74594 16.2309 4.89795 16.2006 5.03978 16.1419C5.1816 16.0831 5.31046 15.997 5.41899 15.8885L6.273 15.0313C6.40105 15.0897 6.53093 15.1443 6.66261 15.195V16.4027C6.66261 16.7127 6.78577 17.01 7.00497 17.2292C7.22417 17.4484 7.52145 17.5716 7.83144 17.5716H10.1691C10.4791 17.5716 10.7764 17.4484 10.9956 17.2292C11.2148 17.01 11.3379 16.7127 11.3379 16.4027V15.195C11.4691 15.143 11.599 15.0884 11.7275 15.0313L12.5816 15.8885C12.6901 15.997 12.819 16.0831 12.9608 16.1419C13.1026 16.2006 13.2546 16.2309 13.4081 16.2309C13.5617 16.2309 13.7136 16.2006 13.8555 16.1419C13.9973 16.0831 14.1262 15.997 14.2347 15.8885L15.8878 14.2365C16.1069 14.0166 16.2298 13.7189 16.2298 13.4086C16.2298 13.0982 16.1069 12.8005 15.8878 12.5806L15.0334 11.7274C15.0915 11.5988 15.1456 11.4703 15.1951 11.3378H16.4025C16.7125 11.3378 17.0098 11.2147 17.229 10.9955C17.4482 10.7763 17.5713 10.479 17.5713 10.169V7.83131C17.5713 7.52132 17.4482 7.22401 17.229 7.00481C17.0098 6.78561 16.7125 6.66248 16.4025 6.66248ZM16.4025 10.169H14.3259C14.1878 10.7976 13.9388 11.3965 13.5907 11.9378L15.0607 13.4067L13.408 15.0625L11.938 13.5898C11.3966 13.9383 10.7975 14.1876 10.1687 14.3261V16.4027H7.83106V14.3261C7.20229 14.1876 6.6032 13.9383 6.06184 13.5898L4.59183 15.0625L2.9391 13.4067L4.40911 11.9378C4.06096 11.3965 3.81202 10.7976 3.67393 10.169H1.5973V7.83131H3.67393C3.81202 7.20272 4.06096 6.60374 4.40911 6.06246L2.9391 4.59362L4.59183 2.93778L6.06184 4.41052C6.6032 4.062 7.20229 3.81265 7.83106 3.67415V1.59754H10.1687V3.67415C10.7975 3.81265 11.3966 4.062 11.938 4.41052L13.408 2.93778L15.0607 4.59362L13.5907 6.06246C13.9388 6.60374 14.1878 7.20272 14.3259 7.83131H16.4025V10.169Z" fill="currentColor"/>
</svg>
