<svg width="23" height="22" viewBox="0 0 23 22" fill="none" xmlns="http://www.w3.org/2000/svg">
<path d="M18.75 13.3C18.65 13.3 18.57 13.34 18.5 13.4C18.45 13.45 18.41 13.51 18.4 13.58V13.78C18.41 13.85 18.45 13.91 18.5 13.95C18.57 14.01 18.65 14.05 18.75 14.05H19.7V13.3H18.75ZM18.75 16.55C18.55 16.55 18.38 16.72 18.38 16.93C18.38 16.95 18.38 16.96 18.39 16.98C18.39 17.02 18.4 17.06 18.42 17.09C18.55 17 18.67 16.89 18.78 16.78C18.85 16.71 18.92 16.63 18.99 16.55H18.75ZM18.75 14.93C18.55 14.93 18.38 15.1 18.38 15.3C18.38 15.51 18.55 15.68 18.75 15.68H19.49C19.59 15.44 19.65 15.19 19.68 14.93H18.75ZM19.6 10.03L18.5 9.68L18.4 9.65V10.7L18.5 10.73L19.6 11.08L19.7 11.11V10.06L19.6 10.03ZM18.5 8.8H19.6V5.55C19.6 4.75 19.28 3.97 18.71 3.4C18.14 2.83 17.37 2.51 16.55 2.5H9.28L7.38 0.61C6.99 0.22 6.48 0.01 5.93 0H3.05C2.24 0 1.47 0.32 0.9 0.9C0.32 1.47 0 2.24 0 3.05V14.55C0 15.37 0.32 16.14 0.9 16.71C1.47 17.29 2.24 17.6 3.05 17.6H10.8V16.5H3.05C1.98 16.5 1.1 15.63 1.1 14.55V6.1H5.93C6.2 6.1 6.47 6.05 6.72 5.95C6.97 5.85 7.19 5.7 7.38 5.5L9.28 3.6H16.55C17.07 3.6 17.57 3.81 17.93 4.18C18.3 4.54 18.5 5.03 18.5 5.55V8.8ZM6.53 4.8L6.42 4.69L1.1 5.01V3.05C1.1 2.54 1.31 2.04 1.67 1.68C2.03 1.32 2.54 1.1 3.05 1.1H5.93C6.18 1.1 6.43 1.21 6.6 1.38L8.27 3.05L6.53 4.8ZM14.35 17.6C14.16 17.25 14 16.88 13.87 16.5C13.86 16.47 13.85 16.43 13.84 16.4H12.8C12.8 16.4 12.81 16.47 12.82 16.5C12.93 16.88 13.07 17.25 13.23 17.6C13.25 17.63 13.26 17.67 13.28 17.7H14.4C14.4 17.7 14.36 17.63 14.35 17.6Z" fill="currentColor"/>
<path fill-rule="evenodd" clip-rule="evenodd" d="M22.15 10.84L19.8 10.09L19.7 10.06L19.6 10.03L18.5 9.68L18.4 9.65L18.3 9.61L17.66 9.41C17.56 9.38 17.45 9.38 17.35 9.41L12.85 10.84C12.64 10.9 12.5 11.09 12.5 11.31V14.23C12.5 14.93 12.59 15.63 12.77 16.3C12.78 16.33 12.79 16.37 12.8 16.4C12.8 16.43 12.81 16.47 12.82 16.5C12.93 16.88 13.07 17.25 13.23 17.6C13.25 17.63 13.26 17.67 13.28 17.7C13.3 17.74 13.31 17.78 13.34 17.81C13.48 18.11 13.65 18.4 13.83 18.68C14.69 19.97 15.92 20.95 17.33 21.46C17.44 21.5 17.56 21.5 17.67 21.46C19.09 20.95 20.31 19.97 21.18 18.68C22.04 17.38 22.5 15.82 22.5 14.23V11.31C22.5 11.09 22.36 10.9 22.15 10.84ZM20.34 18.12C19.63 19.2 18.64 20.01 17.5 20.46C16.37 20.01 15.38 19.2 14.66 18.12C14.59 18.02 14.53 17.91 14.47 17.81C14.44 17.77 14.42 17.73 14.4 17.7C14.38 17.66 14.36 17.63 14.35 17.6C14.16 17.25 14 16.88 13.87 16.5C13.86 16.47 13.85 16.43 13.84 16.4C13.84 16.36 13.82 16.33 13.81 16.3C13.6 15.63 13.5 14.94 13.5 14.23V11.68L17.5 10.41L18.3 10.66L18.4 10.7L18.5 10.73L19.6 11.08L19.7 11.11L19.8 11.14L21.5 11.68V14.23C21.5 14.47 21.49 14.7 21.46 14.93C21.44 15.18 21.4 15.43 21.35 15.68C21.29 15.98 21.21 16.27 21.11 16.55C21.03 16.81 20.93 17.06 20.81 17.3C20.67 17.59 20.52 17.86 20.34 18.12Z" fill="currentColor"/>
<path fill-rule="evenodd" clip-rule="evenodd" d="M22.13 13.68C22.13 13.89 21.96 14.05 21.75 14.05H18.75C18.65 14.05 18.57 14.01 18.5 13.95C18.45 13.91 18.41 13.85 18.4 13.78C18.38 13.75 18.38 13.71 18.38 13.68C18.38 13.65 18.38 13.61 18.4 13.58C18.41 13.51 18.45 13.45 18.5 13.4C18.57 13.34 18.65 13.3 18.75 13.3H21.75C21.96 13.3 22.13 13.47 22.13 13.68Z" fill="currentColor"/>
<path fill-rule="evenodd" clip-rule="evenodd" d="M22.13 15.3C22.13 15.51 21.96 15.68 21.75 15.68H18.75C18.55 15.68 18.38 15.51 18.38 15.3C18.38 15.09 18.55 14.93 18.75 14.93H21.75C21.96 14.93 22.13 15.1 22.13 15.3Z" fill="currentColor"/>
<path fill-rule="evenodd" clip-rule="evenodd" d="M21.8799 16.93C21.8799 17.14 21.7099 17.3 21.4999 17.3H18.7499C18.6399 17.3 18.5399 17.25 18.4799 17.17C18.4499 17.15 18.43 17.12 18.42 17.09C18.4 17.06 18.39 17.02 18.39 16.98C18.38 16.96 18.38 16.95 18.38 16.93C18.38 16.72 18.55 16.55 18.75 16.55L21.4999 16.55C21.7099 16.55 21.8799 16.7201 21.8799 16.93Z" fill="currentColor"/>
</svg>