<svg width="27" height="26" viewBox="0 0 27 26" fill="none" xmlns="http://www.w3.org/2000/svg">
  <path d="M14.8691 24.9161H5.11914C3.02831 24.9161 1.32747 23.2152 1.32747 21.1244V4.87441C1.32747 2.78357 3.02831 1.08274 5.11914 1.08274H11.0937C11.4556 1.08274 11.812 1.11524 12.1608 1.17807V7.04107C12.1608 8.53499 13.3752 9.7494 14.8691 9.7494C14.8691 9.7494 21.1958 9.76024 21.3009 9.73207C21.5912 9.65841 21.7656 9.36266 21.6909 9.07341C21.3778 7.84924 20.7408 6.73015 19.8471 5.83749L16.0727 2.06316C14.7424 0.732822 12.9744 0.000488281 11.0926 0.000488281H5.11806C2.43139 -0.00059465 0.244141 2.18666 0.244141 4.87441V21.1244C0.244141 23.8122 2.43139 25.9994 5.11914 25.9994H14.8691C15.1681 25.9994 15.4108 25.7567 15.4108 25.4577C15.4108 25.1587 15.1681 24.9161 14.8691 24.9161ZM13.2441 1.48141C14.009 1.77716 14.7099 2.23216 15.3068 2.82907L19.0811 6.60341C19.6694 7.19166 20.1255 7.89582 20.4245 8.66607H14.8681C13.9721 8.66607 13.2431 7.93699 13.2431 7.04107V1.48141H13.2441ZM12.1608 15.7077C12.1608 16.0067 11.9181 16.2494 11.6191 16.2494H5.11914C4.82014 16.2494 4.57747 16.0067 4.57747 15.7077C4.57747 15.4087 4.82014 15.1661 5.11914 15.1661H11.6191C11.9181 15.1661 12.1608 15.4087 12.1608 15.7077ZM12.1608 20.0411C12.1608 20.3401 11.9181 20.5827 11.6191 20.5827H5.11914C4.82014 20.5827 4.57747 20.3401 4.57747 20.0411C4.57747 19.7421 4.82014 19.4994 5.11914 19.4994H11.6191C11.9181 19.4994 12.1608 19.7421 12.1608 20.0411ZM25.0481 12.9247L20.4559 11.4026C20.3454 11.3668 20.2251 11.3668 20.1157 11.4026L15.5224 12.9247C14.8085 13.163 14.3275 13.8271 14.3275 14.5778V18.8212C14.3275 22.7353 18.5178 25.136 19.8016 25.7795C19.8016 25.7795 20.0659 25.9582 20.2869 25.9582C20.5079 25.9582 20.7408 25.8174 20.7408 25.8174C22.0321 25.2985 26.2441 23.2575 26.2441 18.8212V14.5778C26.2441 13.8271 25.7642 13.1619 25.0481 12.9247ZM25.1608 18.8212C25.1608 22.5782 21.4439 24.3668 20.3107 24.8229C19.1667 24.2509 15.4108 22.1146 15.4108 18.8212V14.5778C15.4108 14.294 15.5928 14.0427 15.8636 13.9527L20.2858 12.4859L24.7069 13.9527C24.9788 14.0427 25.1608 14.294 25.1608 14.5778V18.8212ZM12.1608 11.3744C12.1608 11.6734 11.9181 11.9161 11.6191 11.9161H5.11914C4.82014 11.9161 4.57747 11.6734 4.57747 11.3744C4.57747 11.0754 4.82014 10.8327 5.11914 10.8327H11.6191C11.9181 10.8327 12.1608 11.0754 12.1608 11.3744Z" fill="currentColor"/>
  <path d="M14.8691 24.9161H5.11914C3.02831 24.9161 1.32747 23.2152 1.32747 21.1244V4.87441C1.32747 2.78357 3.02831 1.08274 5.11914 1.08274H11.0937C11.4556 1.08274 11.812 1.11524 12.1608 1.17807V7.04107C12.1608 8.53499 13.3752 9.7494 14.8691 9.7494C14.8691 9.7494 21.1958 9.76024 21.3009 9.73207C21.5912 9.65841 21.7656 9.36266 21.6909 9.07341C21.3778 7.84924 20.7408 6.73015 19.8471 5.83749L16.0727 2.06316C14.7424 0.732822 12.9744 0.000488281 11.0926 0.000488281H5.11806C2.43139 -0.00059465 0.244141 2.18666 0.244141 4.87441V21.1244C0.244141 23.8122 2.43139 25.9994 5.11914 25.9994H14.8691C15.1681 25.9994 15.4108 25.7567 15.4108 25.4577C15.4108 25.1587 15.1681 24.9161 14.8691 24.9161ZM13.2441 1.48141C14.009 1.77716 14.7099 2.23216 15.3068 2.82907L19.0811 6.60341C19.6694 7.19166 20.1255 7.89582 20.4245 8.66607H14.8681C13.9721 8.66607 13.2431 7.93699 13.2431 7.04107V1.48141H13.2441ZM12.1608 15.7077C12.1608 16.0067 11.9181 16.2494 11.6191 16.2494H5.11914C4.82014 16.2494 4.57747 16.0067 4.57747 15.7077C4.57747 15.4087 4.82014 15.1661 5.11914 15.1661H11.6191C11.9181 15.1661 12.1608 15.4087 12.1608 15.7077ZM12.1608 20.0411C12.1608 20.3401 11.9181 20.5827 11.6191 20.5827H5.11914C4.82014 20.5827 4.57747 20.3401 4.57747 20.0411C4.57747 19.7421 4.82014 19.4994 5.11914 19.4994H11.6191C11.9181 19.4994 12.1608 19.7421 12.1608 20.0411ZM25.0481 12.9247L20.4559 11.4026C20.3454 11.3668 20.2251 11.3668 20.1157 11.4026L15.5224 12.9247C14.8085 13.163 14.3275 13.8271 14.3275 14.5778V18.8212C14.3275 22.7353 18.5178 25.136 19.8016 25.7795C19.8016 25.7795 20.0659 25.9582 20.2869 25.9582C20.5079 25.9582 20.7408 25.8174 20.7408 25.8174C22.0321 25.2985 26.2441 23.2575 26.2441 18.8212V14.5778C26.2441 13.8271 25.7642 13.1619 25.0481 12.9247ZM25.1608 18.8212C25.1608 22.5782 21.4439 24.3668 20.3107 24.8229C19.1667 24.2509 15.4108 22.1146 15.4108 18.8212V14.5778C15.4108 14.294 15.5928 14.0427 15.8636 13.9527L20.2858 12.4859L24.7069 13.9527C24.9788 14.0427 25.1608 14.294 25.1608 14.5778V18.8212ZM12.1608 11.3744C12.1608 11.6734 11.9181 11.9161 11.6191 11.9161H5.11914C4.82014 11.9161 4.57747 11.6734 4.57747 11.3744C4.57747 11.0754 4.82014 10.8327 5.11914 10.8327H11.6191C11.9181 10.8327 12.1608 11.0754 12.1608 11.3744Z" stroke="currentColor"/>
</svg>
