<svg width="26" height="26" viewBox="0 0 26 26" fill="none" xmlns="http://www.w3.org/2000/svg">
<path d="M17.0625 8.125L12.2383 16.6309L8.9375 13.3301" stroke="currentColor" stroke-width="1.625" stroke-linecap="round" stroke-linejoin="round"/>
<path d="M12.4143 0.690282C12.7946 0.566781 13.2041 0.566781 13.5843 0.690282L22.5219 3.5882C22.9027 3.71175 23.2347 3.95272 23.4702 4.27655C23.7056 4.60039 23.8325 4.99046 23.8327 5.39086V10.8335C23.8327 17.5394 19.7485 22.4306 13.6483 24.7327C13.2299 24.8898 12.7688 24.8898 12.3504 24.7327C6.25127 22.4295 2.16602 17.5394 2.16602 10.8335V5.39086C2.16602 4.56753 2.69685 3.8417 3.47685 3.5882L12.4143 0.690282ZM13.0828 2.23511C13.0285 2.21778 12.9702 2.21778 12.9159 2.23511L3.97843 5.1352C3.92412 5.15278 3.87675 5.18708 3.84309 5.23318C3.80944 5.27929 3.79121 5.33486 3.79102 5.39195V10.8335C3.79102 16.7496 7.34435 21.1068 12.9235 23.2117C12.9724 23.2301 13.0263 23.2301 13.0752 23.2117C18.6544 21.1068 22.2077 16.7485 22.2077 10.8335V5.39086C22.2075 5.33378 22.1893 5.27821 22.1556 5.2321C22.1219 5.18599 22.0746 5.1517 22.0203 5.13411L13.0828 2.23511Z" fill="currentColor"/>
</svg>
