  <svg width="24" height="24" viewBox="0 0 24 24" xmlns="http://www.w3.org/2000/svg" fill="none"><path id="svg_1" fill="currentColor" d="m11.62169,2.08013l-9.2105,2.1309c-0.24917,0.11239 -0.41334,0.34297 -0.41118,0.5775c0,4.95121 1.24816,10.16641 3.10855,12.42911c1.86039,2.2627 4.28788,3.5304 6.46383,4.6812c0.2532,0.1349 0.602,0.1349 0.8552,0c2.1759,-1.1508 4.6032,-2.4185 6.4638,-4.6812c1.8607,-2.2627 3.1086,-7.4778 3.1086,-12.42911c0.0021,-0.23453 -0.162,-0.46511 -0.4112,-0.5775l-9.2105,-2.1309c-0.287,-0.11417 -0.5056,-0.09927 -0.7566,0zm0.3783,1.31808l0,17.17583c-2.0328,-1.0799 -4.03666,-2.2084 -5.58387,-4.0901c-1.60829,-1.9562 -2.74702,-6.7907 -2.81249,-11.32172l8.39636,-1.76401z"/></svg>