<svg xmlns="http://www.w3.org/2000/svg" width="14" height="16" viewBox="0 0 14 16" fill="none">
<path d="M6.649 0.194006C6.87713 0.117623 7.12287 0.117623 7.351 0.194006L12.7135 1.98632C12.942 2.06274 13.1412 2.21177 13.2825 2.41206C13.4238 2.61234 13.4999 2.8536 13.5 3.10124V6.46744C13.5 10.6149 11.0495 13.6401 7.38935 15.0639C7.13834 15.161 6.86166 15.161 6.61065 15.0639C2.95115 13.6394 0.5 10.6149 0.5 6.46744V3.10124C0.5 2.59202 0.8185 2.14311 1.2865 1.98632L6.649 0.194006ZM7.05005 1.14946C7.01749 1.13874 6.98251 1.13874 6.94995 1.14946L1.58745 2.94312C1.55486 2.95399 1.52644 2.9752 1.50625 3.00372C1.48605 3.03224 1.47512 3.0666 1.475 3.10191V6.46744C1.475 10.1264 3.607 12.8213 6.9545 14.1231C6.98383 14.1345 7.01617 14.1345 7.0455 14.1231C10.393 12.8213 12.525 10.1258 12.525 6.46744V3.10124C12.5249 3.06593 12.5139 3.03157 12.4938 3.00305C12.4736 2.97453 12.4451 2.95332 12.4125 2.94245L7.05005 1.14946Z" fill="currentColor"/>
<path fill-rule="evenodd" clip-rule="evenodd" d="M4.69091 5.40284C4.88911 5.21057 5.20566 5.21537 5.39794 5.41357L6.85803 6.91864L8.31812 5.41357C8.51039 5.21537 8.82694 5.21057 9.02514 5.40284C9.22334 5.59512 9.22814 5.91167 9.03587 6.10987L7.55465 7.63672L9.03587 9.16357C9.22814 9.36177 9.22334 9.67832 9.02514 9.87059C8.82694 10.0629 8.51039 10.0581 8.31812 9.85987L6.85803 8.3548L5.39794 9.85987C5.20566 10.0581 4.88911 10.0629 4.69091 9.87059C4.49271 9.67832 4.48791 9.36177 4.68019 9.16357L6.16141 7.63672L4.68019 6.10987C4.48791 5.91167 4.49271 5.59512 4.69091 5.40284Z" fill="currentColor"/>
</svg>