<svg width="22" height="22" viewBox="0 0 22 22" fill="none" xmlns="http://www.w3.org/2000/svg">
<path d="M15.1542 8.42843C14.9263 8.3572 14.6809 8.35719 14.453 8.42841C14.4529 8.42842 14.4529 8.42842 14.4529 8.42843L9.66501 9.92201L9.66493 9.92203C9.19771 10.0681 8.875 10.4885 8.875 10.9704V13.7756C8.875 17.2955 11.1078 19.8559 14.4133 21.0568L14.4135 21.0568C14.665 21.1477 14.9421 21.1477 15.1937 21.0568L15.1939 21.0568C18.5 19.8564 20.7321 17.2955 20.7321 13.7756V10.9704V10.9704C20.7321 10.7364 20.655 10.509 20.5127 10.3207C20.3704 10.1325 20.1705 9.99328 19.9422 9.92201L19.9421 9.92201L15.1542 8.42843ZM15.1542 8.42843L15.117 8.54774L15.1542 8.42841L15.1542 8.42843ZM10.0081 10.958L10.0082 10.958L14.7956 9.46343C14.7957 9.46342 14.7957 9.4634 14.7958 9.46339C14.8008 9.46187 14.8063 9.46187 14.8114 9.46339C14.8114 9.4634 14.8115 9.46342 14.8115 9.46343L19.599 10.9574L19.599 10.9575C19.6038 10.959 19.6072 10.9616 19.6091 10.9642C19.611 10.9666 19.6116 10.9689 19.6116 10.9708C19.6116 10.9708 19.6116 10.9708 19.6116 10.9709L19.6116 13.7756C19.6116 16.76 17.7529 18.9659 14.8036 20.0371C11.8542 18.9659 9.99554 16.7606 9.99554 13.7756V10.9713C9.99556 10.9695 9.99617 10.9672 9.99802 10.9647C9.99995 10.9622 10.0033 10.9595 10.0081 10.958Z" fill="currentColor" stroke="currentColor" stroke-width="0.25"/>
<g clip-path="url(#clip0_3209_12490)">
<path d="M3.16121 8.27003C5.32331 7.99111 6.14835 6.95993 5.86522 4.76505C6.14835 6.95993 7.20152 7.74883 9.37017 7.46907C7.20152 7.74883 6.38641 8.80538 6.66616 10.974C6.38641 8.80538 5.32331 7.99111 3.16121 8.27003Z" fill="currentColor" stroke="currentColor" stroke-width="0.589165" stroke-linejoin="round"/>
</g>
<g clip-path="url(#clip1_3209_12490)">
<path d="M9.71774 4.75846C11.0873 4.51499 11.5818 3.8327 11.3346 2.44241C11.5818 3.8327 12.277 4.30349 13.6506 4.05929C12.277 4.30349 11.7896 5.00165 12.0338 6.37534C11.7896 5.00165 11.0873 4.51499 9.71774 4.75846Z" fill="currentColor" stroke="currentColor" stroke-width="0.369914" stroke-linejoin="round"/>
</g>
<defs>
<clipPath id="clip0_3209_12490">
<rect width="9.42661" height="9.42667" fill="currentColor" transform="matrix(0.991782 -0.12794 0.127937 0.991782 0.987305 3.79834)"/>
</clipPath>
<clipPath id="clip1_3209_12490">
<rect width="5.35762" height="5.35765" fill="currentColor" transform="matrix(0.984563 -0.175029 0.175025 0.984564 8.64258 2.09277)"/>
</clipPath>
</defs>
</svg>

