<svg width="24" height="14" viewBox="0 0 24 14" fill="none" xmlns="http://www.w3.org/2000/svg">
<path d="M7.1189 2.96295L12.0499 1.5238L16.976 2.96295V5.91407C16.976 7.42651 16.5001 8.90059 15.6157 10.1275C14.7312 11.3544 13.4832 12.2719 12.0483 12.75C10.613 12.2719 9.36449 11.3543 8.47976 10.1272C7.59503 8.9 7.11892 7.42553 7.1189 5.9127V2.96295Z" stroke="currentColor" stroke-linejoin="round"/>
<path d="M9.58325 6.72619L11.4999 8.64286L14.7856 5.35715" stroke="currentColor" stroke-linecap="round" stroke-linejoin="round"/>
<path d="M2.69058 3.71417C2.69058 3.43803 2.46672 3.21417 2.19058 3.21417C1.91444 3.21417 1.69058 3.43803 1.69058 3.71417H2.69058ZM6.57153 7.49989H7.07153V6.49989H6.57153V7.49989ZM5.4763 7.49989H6.57153V6.49989H5.4763V7.49989ZM1.69058 3.71417C1.69058 5.80496 3.3855 7.49989 5.4763 7.49989V6.49989C3.93779 6.49989 2.69058 5.25268 2.69058 3.71417H1.69058Z" fill="currentColor"/>
<path d="M2.69058 10.2856C2.69058 10.5617 2.46672 10.7856 2.19058 10.7856C1.91444 10.7856 1.69058 10.5617 1.69058 10.2856H2.69058ZM6.57153 6.49987H7.07153V7.49987H6.57153V6.49987ZM5.4763 6.49987H6.57153V7.49987H5.4763V6.49987ZM1.69058 10.2856C1.69058 8.19479 3.3855 6.49987 5.4763 6.49987V7.49987C3.93779 7.49987 2.69058 8.74708 2.69058 10.2856H1.69058Z" fill="currentColor"/>
<circle cx="1.64286" cy="1.64286" r="1.64286" transform="matrix(1 0 0 -1 0 4.80939)" fill="currentColor"/>
<circle cx="1.64286" cy="1.64286" r="1.64286" transform="matrix(1 0 0 -1 0 12.4761)" fill="currentColor"/>
<path d="M17.5238 6.99999H23M23 6.99999L20.0809 9.19046M23 6.99999L20.0809 4.80951" stroke="currentColor" stroke-linecap="round" stroke-linejoin="round"/>
</svg>
