<svg width="20" height="20" viewBox="0 0 19 18" fill="none" xmlns="http://www.w3.org/2000/svg">
<path d="M9.66651 0C7.27956 0 4.99038 0.948213 3.30255 2.63604C1.61472 4.32387 0.666504 6.61306 0.666504 9.00001C0.666504 11.387 1.61472 13.6761 3.30255 15.364C4.99038 17.0518 7.27956 18 9.66651 18C12.0535 18 14.3427 17.0518 16.0305 15.364C17.7183 13.6761 18.6665 11.387 18.6665 9.00001C18.6665 6.61306 17.7183 4.32387 16.0305 2.63604C14.3427 0.948213 12.0535 0 9.66651 0ZM1.77651 9.68001H4.28651C4.32651 10.59 4.45351 11.494 4.66651 12.38H2.50651C2.10371 11.5309 1.85646 10.6164 1.77651 9.68001ZM10.3465 4.28V1.19C11.3102 1.55623 12.1021 2.26963 12.5665 3.19C12.7715 3.537 12.9525 3.898 13.1065 4.27L10.3465 4.28ZM13.5665 5.63001C13.7985 6.51301 13.9365 7.41801 13.9765 8.33001H10.3465V5.63001H13.5665ZM8.98651 1.19V4.28H6.22651C6.38077 3.9077 6.56122 3.5468 6.76651 3.2C7.22898 2.27586 8.0211 1.55866 8.98651 1.19ZM8.98651 5.63001V8.33001H5.36651C5.40651 7.41801 5.54451 6.51301 5.77651 5.63001H8.98651ZM4.28651 8.32001H1.77651C1.85646 7.3836 2.10371 6.46913 2.50651 5.62001H4.66651C4.4531 6.50565 4.32584 7.40986 4.28651 8.32001ZM5.36651 9.68001H8.98651V12.38H5.77651C5.54455 11.4971 5.40711 10.592 5.36651 9.68001ZM8.99651 13.68V16.77C8.03283 16.4038 7.24096 15.6904 6.77651 14.77C6.57122 14.4232 6.39077 14.0623 6.23651 13.69L8.99651 13.68ZM10.3465 16.77V13.73H13.1065C12.9523 14.1023 12.7718 14.4632 12.5665 14.81C12.1021 15.7304 11.3102 16.4438 10.3465 16.81V16.77ZM10.3465 12.33V9.63001H13.9665C13.9259 10.542 13.7885 11.4471 13.5565 12.33H10.3465ZM15.0565 9.63001H17.5665C17.4866 10.5664 17.2393 11.4809 16.8365 12.33H14.6665C14.8765 11.46 15.0035 10.573 15.0465 9.68001L15.0565 9.63001ZM15.0565 8.28001C15.0107 7.38632 14.8801 6.499 14.6665 5.63001H16.8265C17.2295 6.48001 17.4765 7.39401 17.5565 8.33001L15.0565 8.28001ZM16.0565 4.28H14.2665C13.9426 3.3703 13.4732 2.51923 12.8765 1.76C14.1209 2.31858 15.2018 3.18605 16.0165 4.28H16.0565ZM6.45651 1.76C5.85983 2.51923 5.39039 3.3703 5.06651 4.28H3.31651C4.13123 3.18605 5.21213 2.31858 6.45651 1.76ZM3.30651 13.76H5.06651C5.39039 14.6697 5.85983 15.5208 6.45651 16.28C5.20868 15.713 4.12745 14.835 3.31651 13.73L3.30651 13.76ZM12.8665 16.28C13.4632 15.5208 13.9326 14.6697 14.2565 13.76H16.0165C15.1968 14.8393 14.1164 15.6927 12.8765 16.24L12.8665 16.28Z" fill="currentColor"/>
</svg>
