<svg width="9" height="8" viewBox="0 0 9 8" fill="none" xmlns="http://www.w3.org/2000/svg">
<path fill-rule="evenodd" clip-rule="evenodd" d="M1.23901 3.625C1.23901 2.17525 2.41427 1 3.86401 1C5.31376 1 6.48901 2.17525 6.48901 3.625C6.48901 4.33223 6.20933 4.97413 5.75454 5.44614C5.7417 5.45601 5.72936 5.46683 5.7176 5.47858C5.70584 5.49034 5.69502 5.50269 5.68515 5.51553C5.21314 5.97032 4.57124 6.25 3.86401 6.25C2.41427 6.25 1.23901 5.07475 1.23901 3.625ZM5.97064 6.26196C5.39327 6.72382 4.66089 7 3.86401 7C2.00005 7 0.489014 5.48896 0.489014 3.625C0.489014 1.76104 2.00005 0.25 3.86401 0.25C5.72797 0.25 7.23901 1.76104 7.23901 3.625C7.23901 4.42188 6.96283 5.15426 6.50097 5.73163L7.87918 7.10983C8.02562 7.25628 8.02562 7.49372 7.87918 7.64017C7.73273 7.78661 7.49529 7.78661 7.34885 7.64017L5.97064 6.26196Z" fill="currentColor" stroke="currentColor" stroke-width="0.5" stroke-linecap="round" stroke-linejoin="round"/>
</svg>
