<svg width="19" height="19" viewBox="0 0 19 19" fill="none" xmlns="http://www.w3.org/2000/svg">
<g clip-path="url(#clip0_901_11043)">
<path d="M16.4562 7.18327H2.45622M16.4562 7.18327C16.7656 7.18327 17.0624 7.06035 17.2812 6.84156C17.5 6.62277 17.6229 6.32602 17.6229 6.0166V3.68327C17.6229 3.37385 17.5 3.0771 17.2812 2.85831C17.0624 2.63952 16.7656 2.5166 16.4562 2.5166H2.45622C2.1468 2.5166 1.85005 2.63952 1.63126 2.85831C1.41247 3.0771 1.28955 3.37385 1.28955 3.68327V6.0166C1.28955 6.32602 1.41247 6.62277 1.63126 6.84156C1.85005 7.06035 2.1468 7.18327 2.45622 7.18327M16.4562 7.18327C16.7656 7.18327 17.0624 7.30618 17.2812 7.52498C17.5 7.74377 17.6229 8.04052 17.6229 8.34993V10.6833C17.6229 10.9927 17.5 11.2894 17.2812 11.5082C17.0624 11.727 16.7656 11.8499 16.4562 11.8499M2.45622 7.18327C2.1468 7.18327 1.85005 7.30618 1.63126 7.52498C1.41247 7.74377 1.28955 8.04052 1.28955 8.34993V10.6833C1.28955 10.9927 1.41247 11.2894 1.63126 11.5082C1.85005 11.727 2.1468 11.8499 2.45622 11.8499M16.4562 11.8499H2.45622M16.4562 11.8499C16.7656 11.8499 17.0624 11.9729 17.2812 12.1916C17.5 12.4104 17.6229 12.7072 17.6229 13.0166V15.3499C17.6229 15.6594 17.5 15.9561 17.2812 16.1749C17.0624 16.3937 16.7656 16.5166 16.4562 16.5166H2.45622C2.1468 16.5166 1.85005 16.3937 1.63126 16.1749C1.41247 15.9561 1.28955 15.6594 1.28955 15.3499V13.0166C1.28955 12.7072 1.41247 12.4104 1.63126 12.1916C1.85005 11.9729 2.1468 11.8499 2.45622 11.8499M3.03955 4.84993H6.53955M3.03955 9.5166H6.53955M3.03955 14.1833H6.53955" stroke="currentColor"/>
</g>
<defs>
<clipPath id="clip0_901_11043">
<rect width="18" height="18" fill="white" transform="translate(0.457031 0.516602)"/>
</clipPath>
</defs>
</svg>
