<svg xmlns="http://www.w3.org/2000/svg" width="84" height="25" viewBox="0 0 84 25" fill="none">
<path d="M83.6225 11.6117V12.2843H79.9026V11.6117H83.6225ZM81.2684 9.70367H82.0851V17.2327C82.0851 17.5758 82.1309 17.8343 82.2224 18.0082C82.3139 18.1821 82.4328 18.2988 82.5793 18.3582C82.7257 18.4177 82.8835 18.4475 83.0528 18.4475C83.1764 18.4475 83.2953 18.4406 83.4097 18.4269C83.5241 18.4086 83.627 18.3903 83.7186 18.372L83.7529 19.0652C83.6522 19.0972 83.5218 19.1223 83.3617 19.1406C83.2015 19.1635 83.0414 19.175 82.8812 19.175C82.5655 19.175 82.2864 19.1178 82.0439 19.0034C81.8014 18.8844 81.6115 18.6831 81.4743 18.3994C81.337 18.1112 81.2684 17.72 81.2684 17.2258V9.70367Z" fill="#A6ABB5"/>
<path d="M76.5531 12.84V19.0375H75.7363V11.6114H76.5325L76.5531 12.84ZM79.1817 11.5565L79.1611 12.3115C79.0696 12.2978 78.9804 12.2863 78.8934 12.2772C78.8065 12.268 78.7127 12.2635 78.612 12.2635C78.2551 12.2635 77.9417 12.3298 77.6718 12.4625C77.4064 12.5906 77.1822 12.7713 76.9992 13.0047C76.8162 13.2335 76.6766 13.5034 76.5805 13.8146C76.4844 14.1211 76.4295 14.4505 76.4158 14.8029L76.1138 14.9195C76.1138 14.4345 76.1641 13.9838 76.2648 13.5675C76.3655 13.1511 76.5187 12.7874 76.7246 12.4762C76.9351 12.1605 77.1982 11.9157 77.5139 11.7418C77.8342 11.5634 78.2094 11.4742 78.6395 11.4742C78.7447 11.4742 78.8477 11.4833 78.9483 11.5016C79.0536 11.5154 79.1314 11.5337 79.1817 11.5565Z" fill="#A6ABB5"/>
<path d="M71.3297 19.1748C70.8447 19.1748 70.3985 19.0855 69.9913 18.9071C69.5887 18.7286 69.2364 18.477 68.9344 18.1521C68.637 17.8273 68.4059 17.4429 68.2412 16.9991C68.0811 16.5507 68.001 16.0611 68.001 15.5304V15.2352C68.001 14.6633 68.0856 14.1463 68.2549 13.6842C68.4242 13.222 68.6576 12.8262 68.955 12.4968C69.2524 12.1674 69.591 11.9157 69.9707 11.7418C70.3551 11.5634 70.7577 11.4742 71.1787 11.4742C71.6499 11.4742 72.0686 11.5588 72.4346 11.7281C72.8007 11.8928 73.1072 12.1285 73.3543 12.435C73.606 12.737 73.7959 13.0962 73.924 13.5126C74.0521 13.9244 74.1161 14.3796 74.1161 14.8784V15.3794H68.4951V14.6793H73.2994V14.5832C73.2903 14.1669 73.2056 13.7779 73.0455 13.4165C72.8899 13.0504 72.6566 12.753 72.3454 12.5243C72.0343 12.2955 71.6454 12.1811 71.1787 12.1811C70.8309 12.1811 70.5106 12.2543 70.2178 12.4007C69.9296 12.5471 69.6802 12.7576 69.4697 13.0321C69.2638 13.3021 69.1037 13.6247 68.9893 13.9999C68.8795 14.3705 68.8246 14.7823 68.8246 15.2352V15.5304C68.8246 15.9422 68.8841 16.3265 69.003 16.6834C69.1266 17.0357 69.3004 17.3468 69.5246 17.6168C69.7534 17.8867 70.0234 18.0972 70.3345 18.2482C70.6456 18.3992 70.9888 18.4747 71.364 18.4747C71.8032 18.4747 72.1921 18.3946 72.5307 18.2345C72.8693 18.0698 73.1736 17.8113 73.4435 17.4589L73.9583 17.857C73.7981 18.0949 73.5968 18.3146 73.3543 18.5159C73.1164 18.7172 72.8304 18.8773 72.4964 18.9963C72.1624 19.1153 71.7735 19.1748 71.3297 19.1748Z" fill="#A6ABB5"/>
<path d="M61.4742 13.039V23.4844H60.6506V11.6114H61.4193L61.4742 13.039ZM66.6354 15.2558V15.4C66.6354 15.9536 66.5713 16.4615 66.4432 16.9236C66.3151 17.3857 66.1298 17.7861 65.8873 18.1247C65.6494 18.4587 65.3543 18.7172 65.0019 18.9002C64.6496 19.0832 64.2493 19.1748 63.8009 19.1748C63.357 19.1748 62.9613 19.1061 62.6135 18.9689C62.2658 18.8316 61.9661 18.6371 61.7144 18.3855C61.4674 18.1293 61.2683 17.8318 61.1173 17.4933C60.9709 17.1501 60.868 16.7749 60.8085 16.3677V14.4666C60.8771 14.0182 60.9892 13.6109 61.1448 13.2449C61.3004 12.8789 61.4994 12.5632 61.7419 12.2978C61.989 12.0324 62.2818 11.8288 62.6204 11.6869C62.959 11.5451 63.3456 11.4742 63.7803 11.4742C64.2333 11.4742 64.6359 11.5634 64.9882 11.7418C65.3451 11.9157 65.6448 12.1697 65.8873 12.5037C66.1344 12.8331 66.3197 13.2312 66.4432 13.6979C66.5713 14.16 66.6354 14.6793 66.6354 15.2558ZM65.8118 15.4V15.2558C65.8118 14.8212 65.766 14.4185 65.6745 14.0479C65.5876 13.6773 65.4526 13.3547 65.2696 13.0802C65.0912 12.8011 64.8624 12.5837 64.5833 12.4282C64.3088 12.2726 63.9816 12.1948 63.6018 12.1948C63.2083 12.1948 62.872 12.2612 62.5929 12.3939C62.3184 12.522 62.0896 12.6936 61.9066 12.9086C61.7236 13.1191 61.5795 13.3501 61.4742 13.6018C61.369 13.8534 61.2912 14.1005 61.2409 14.343V16.5324C61.3278 16.8801 61.4674 17.2027 61.6595 17.5001C61.8517 17.793 62.1079 18.0286 62.4282 18.207C62.7531 18.3809 63.1489 18.4678 63.6156 18.4678C63.9907 18.4678 64.3156 18.3901 64.5901 18.2345C64.8647 18.0789 65.0912 17.8616 65.2696 17.5825C65.4526 17.3034 65.5876 16.9785 65.6745 16.6079C65.766 16.2373 65.8118 15.8346 65.8118 15.4Z" fill="#A6ABB5"/>
<path d="M54.2857 6.5484L55.2636 10.8287L57.571 6.5484H60.4445L56.5674 12.853L58.4631 19.0376H55.7268L54.7489 14.6801L52.3901 19.0376H49.4736L53.4451 12.6386L51.5838 6.5484H54.2857Z" fill="#A6ABB5"/>
<path d="M47.7714 15.8706H49.3391C49.2889 16.5268 49.1217 17.1119 48.8375 17.6259C48.5532 18.1353 48.1539 18.5368 47.6397 18.8305C47.1255 19.1242 46.5005 19.271 45.7648 19.271C45.2004 19.271 44.6925 19.1609 44.241 18.9406C43.7895 18.7158 43.4028 18.3991 43.0809 17.9907C42.759 17.5777 42.5123 17.0798 42.3409 16.497C42.1737 15.9142 42.0901 15.2625 42.0901 14.542V13.7091C42.0901 12.9886 42.1758 12.337 42.3472 11.7542C42.5228 11.1714 42.7736 10.6735 43.0997 10.2604C43.4258 9.84283 43.8166 9.52389 44.2723 9.30362C44.7322 9.08334 45.2485 8.97321 45.8212 8.97321C46.5486 8.97321 47.1632 9.12006 47.6648 9.41375C48.1665 9.70745 48.5553 10.1136 48.8312 10.6321C49.1113 11.1507 49.2827 11.745 49.3454 12.415H47.7777C47.7359 11.9836 47.6439 11.6142 47.5018 11.3067C47.3638 10.9993 47.159 10.7652 46.8872 10.6046C46.6155 10.4394 46.2602 10.3568 45.8212 10.3568C45.4617 10.3568 45.1481 10.4302 44.8806 10.5771C44.613 10.7239 44.3894 10.9396 44.2096 11.2241C44.0299 11.5087 43.894 11.8597 43.802 12.2773C43.7142 12.6903 43.6703 13.163 43.6703 13.6953V14.542C43.6703 15.0468 43.71 15.5057 43.7895 15.9187C43.8731 16.3272 43.9985 16.6782 44.1657 16.9719C44.3371 17.2656 44.5545 17.4928 44.8179 17.6534C45.0813 17.814 45.3969 17.8943 45.7648 17.8943C46.2121 17.8943 46.5737 17.8163 46.8496 17.6603C47.1297 17.5043 47.3408 17.2771 47.483 16.9788C47.6293 16.6759 47.7254 16.3065 47.7714 15.8706Z" fill="#A6ABB5"/>
<path d="M40.9189 13.8468V14.3975C40.9189 15.1547 40.8328 15.8338 40.6606 16.435C40.4884 17.0362 40.2422 17.5479 39.9219 17.97C39.6056 18.3922 39.2252 18.7158 38.7807 18.9406C38.3363 19.1609 37.8438 19.271 37.3032 19.271C36.7667 19.271 36.2762 19.1609 35.8318 18.9406C35.3913 18.7158 35.0089 18.3922 34.6846 17.97C34.3603 17.5479 34.108 17.0362 33.9278 16.435C33.7517 15.8338 33.6636 15.1547 33.6636 14.3975V13.8468C33.6636 13.0896 33.7517 12.4127 33.9278 11.8161C34.104 11.215 34.3523 10.7033 34.6726 10.2811C34.9969 9.8543 35.3793 9.53078 35.8197 9.3105C36.2642 9.08564 36.7547 8.97321 37.2912 8.97321C37.8318 8.97321 38.3243 9.08564 38.7687 9.3105C39.2132 9.53078 39.5955 9.8543 39.9159 10.2811C40.2362 10.7033 40.4824 11.215 40.6546 11.8161C40.8308 12.4127 40.9189 13.0896 40.9189 13.8468ZM39.4114 14.3975V13.833C39.4114 13.2731 39.3633 12.7798 39.2672 12.353C39.1751 11.9217 39.037 11.5614 38.8528 11.2723C38.6726 10.9786 38.4504 10.7583 38.1861 10.6115C37.9219 10.4601 37.6236 10.3843 37.2912 10.3843C36.9589 10.3843 36.6626 10.4601 36.4023 10.6115C36.1421 10.7583 35.9198 10.9786 35.7357 11.2723C35.5555 11.5614 35.4173 11.9217 35.3212 12.353C35.2251 12.7798 35.1771 13.2731 35.1771 13.833V14.3975C35.1771 14.9573 35.2251 15.453 35.3212 15.8843C35.4173 16.3157 35.5575 16.6805 35.7417 16.9788C35.9299 17.2725 36.1541 17.4951 36.4143 17.6465C36.6746 17.7934 36.9709 17.8668 37.3032 17.8668C37.6396 17.8668 37.9379 17.7934 38.1981 17.6465C38.4584 17.4951 38.6786 17.2725 38.8588 16.9788C39.039 16.6805 39.1751 16.3157 39.2672 15.8843C39.3633 15.453 39.4114 14.9573 39.4114 14.3975Z" fill="#A6ABB5"/>
<path d="M31.0985 16.4866C31.0985 16.2801 31.0675 16.0965 31.0054 15.9359C30.9478 15.7753 30.8436 15.6284 30.6928 15.4954C30.5421 15.3623 30.3293 15.2338 30.0544 15.1099C29.784 14.9814 29.4382 14.8506 29.017 14.7175C28.5559 14.5707 28.1303 14.4078 27.7402 14.2288C27.3545 14.0452 27.0175 13.8341 26.7294 13.5955C26.4412 13.3523 26.2173 13.0746 26.0577 12.7626C25.8981 12.4459 25.8183 12.0811 25.8183 11.6681C25.8183 11.2597 25.9003 10.888 26.0644 10.553C26.2328 10.218 26.47 9.92884 26.7759 9.68562C27.0863 9.43781 27.452 9.24737 27.8732 9.11428C28.2944 8.97661 28.7599 8.90778 29.2697 8.90778C29.9879 8.90778 30.6064 9.04545 31.1251 9.32079C31.6482 9.59613 32.0495 9.96555 32.3288 10.429C32.6125 10.8925 32.7544 11.4042 32.7544 11.9641H31.0985C31.0985 11.6337 31.0298 11.3423 30.8924 11.0899C30.7593 10.8329 30.5554 10.631 30.2805 10.4841C30.0101 10.3373 29.6665 10.2638 29.2498 10.2638C28.8552 10.2638 28.5271 10.3258 28.2655 10.4497C28.004 10.5736 27.8089 10.7411 27.6803 10.9522C27.5518 11.1633 27.4875 11.4019 27.4875 11.6681C27.4875 11.8562 27.5296 12.0283 27.6138 12.1844C27.6981 12.3358 27.8266 12.4781 27.9995 12.6111C28.1724 12.7396 28.3897 12.8612 28.6513 12.976C28.9128 13.0907 29.221 13.2008 29.5756 13.3064C30.1121 13.4716 30.5798 13.6552 30.9788 13.8571C31.3778 14.0544 31.7103 14.2793 31.9763 14.5317C32.2423 14.7841 32.4418 15.0709 32.5748 15.3921C32.7078 15.7088 32.7743 16.069 32.7743 16.4728C32.7743 16.895 32.6923 17.2759 32.5283 17.6155C32.3642 17.9505 32.1293 18.2373 31.8234 18.476C31.5219 18.71 31.1584 18.8913 30.7327 19.0198C30.3116 19.1437 29.8416 19.2056 29.3229 19.2056C28.8574 19.2056 28.3986 19.1414 27.9463 19.0129C27.4986 18.8844 27.0907 18.6893 26.7227 18.4278C26.3547 18.1616 26.0621 17.8312 25.8449 17.4365C25.6277 17.0373 25.519 16.5715 25.519 16.0392H27.1882C27.1882 16.365 27.2414 16.6426 27.3478 16.8721C27.4587 17.1015 27.6116 17.2897 27.8067 17.4365C28.0018 17.5788 28.2279 17.6843 28.485 17.7532C28.7466 17.822 29.0259 17.8564 29.3229 17.8564C29.7131 17.8564 30.0389 17.7991 30.3005 17.6843C30.5665 17.5696 30.766 17.409 30.899 17.2025C31.032 16.996 31.0985 16.7574 31.0985 16.4866Z" fill="#A6ABB5"/>
<circle cx="1.28724" cy="1.28724" r="1.28724" transform="matrix(-4.37114e-08 -1 -1 4.37114e-08 66.4929 23.4852)" fill="#A6ABB5"/>
<circle cx="1.28724" cy="1.28724" r="1.28724" transform="matrix(-4.37114e-08 -1 -1 4.37114e-08 70.2375 23.4852)" fill="#A6ABB5"/>
<circle cx="1.28724" cy="1.28724" r="1.28724" transform="matrix(-4.37114e-08 -1 -1 4.37114e-08 73.9822 23.4852)" fill="#A6ABB5"/>
<path d="M20.414 6.3736L18.2134 19.0374H16.0825L18.283 6.3736H20.414Z" fill="#A6ABB5"/>
<path d="M11.1684 8.17401L5.64537 19.0374H3.33179L10.1508 6.3736H11.6381L11.1684 8.17401ZM12.3687 19.0374L10.5769 7.93918L10.7074 6.3736H12.0903L14.5344 19.0374H12.3687ZM12.9862 14.3407L12.6818 16.0715H5.98457L6.28899 14.3407H12.9862Z" fill="#A6ABB5"/>
<g clip-path="url(#clip0_4243_8159)">
<path d="M0.424344 8.66185C2.54381 8.69631 3.50409 7.82198 3.5921 5.67601C3.50409 7.82198 4.38499 8.72625 6.51089 8.76082C4.38499 8.72625 3.43009 9.62631 3.34313 11.7467C3.43009 9.62631 2.54381 8.69631 0.424344 8.66185Z" fill="#A6ABB5" stroke="#A6ABB5" stroke-width="0.485679" stroke-linejoin="round"/>
</g>
<g clip-path="url(#clip1_4243_8159)">
<path d="M6.72283 3.58484C8.05356 3.6065 8.65649 3.05756 8.71178 1.71018C8.65649 3.05756 9.20957 3.62532 10.5443 3.64705C9.20957 3.62532 8.61001 4.19042 8.55538 5.5217C8.61001 4.19042 8.05356 3.6065 6.72283 3.58484Z" fill="#A6ABB5" stroke="#A6ABB5" stroke-width="0.304939" stroke-linejoin="round"/>
</g>
<defs>
<clipPath id="clip0_4243_8159">
<rect width="7.36029" height="8.10099" fill="white" transform="matrix(0.999868 0.0162586 -0.0409774 0.99916 0.332031 4.6109)"/>
</clipPath>
<clipPath id="clip1_4243_8159">
<rect width="5.12619" height="5.11642" fill="white" transform="matrix(0.999868 0.0162774 -0.0409977 0.999159 6.26685 0.892151)"/>
</clipPath>
</defs>
</svg>