<svg xmlns="http://www.w3.org/2000/svg" width="87" height="24" viewBox="0 0 87 24" fill="none">
<path d="M84.1596 11.8841V12.5567H80.4397V11.8841H84.1596ZM81.8055 9.97607H82.6222V17.5051C82.6222 17.8482 82.668 18.1067 82.7595 18.2806C82.851 18.4545 82.97 18.5712 83.1164 18.6306C83.2628 18.6901 83.4206 18.7199 83.5899 18.7199C83.7135 18.7199 83.8324 18.713 83.9468 18.6993C84.0612 18.681 84.1642 18.6627 84.2557 18.6444L84.29 19.3376C84.1893 19.3696 84.0589 19.3947 83.8988 19.413C83.7386 19.4359 83.5785 19.4474 83.4183 19.4474C83.1026 19.4474 82.8235 19.3902 82.581 19.2758C82.3385 19.1568 82.1486 18.9555 82.0114 18.6718C81.8741 18.3836 81.8055 17.9924 81.8055 17.4982V9.97607Z" fill="white"/>
<path d="M77.0902 13.1124V19.3099H76.2734V11.8838H77.0696L77.0902 13.1124ZM79.7188 11.8289L79.6982 12.5839C79.6067 12.5702 79.5175 12.5587 79.4305 12.5496C79.3436 12.5404 79.2498 12.5359 79.1491 12.5359C78.7923 12.5359 78.4788 12.6022 78.2089 12.7349C77.9435 12.863 77.7193 13.0437 77.5363 13.2771C77.3533 13.5059 77.2137 13.7758 77.1176 14.087C77.0215 14.3935 76.9666 14.7229 76.9529 15.0753L76.6509 15.1919C76.6509 14.7069 76.7012 14.2562 76.8019 13.8399C76.9026 13.4235 77.0559 13.0598 77.2617 12.7486C77.4722 12.4329 77.7353 12.1881 78.051 12.0142C78.3713 11.8358 78.7465 11.7466 79.1766 11.7466C79.2818 11.7466 79.3848 11.7557 79.4854 11.774C79.5907 11.7878 79.6685 11.8061 79.7188 11.8289Z" fill="white"/>
<path d="M71.8668 19.4472C71.3818 19.4472 70.9357 19.3579 70.5284 19.1795C70.1258 19.001 69.7735 18.7494 69.4715 18.4245C69.1741 18.0997 68.943 17.7153 68.7783 17.2715C68.6182 16.8231 68.5381 16.3335 68.5381 15.8028V15.5076C68.5381 14.9357 68.6227 14.4187 68.792 13.9566C68.9613 13.4944 69.1947 13.0986 69.4921 12.7692C69.7895 12.4398 70.1281 12.1881 70.5078 12.0142C70.8922 11.8358 71.2948 11.7466 71.7158 11.7466C72.1871 11.7466 72.6057 11.8312 72.9717 12.0005C73.3378 12.1652 73.6443 12.4009 73.8914 12.7074C74.1431 13.0094 74.333 13.3686 74.4611 13.785C74.5892 14.1968 74.6532 14.652 74.6532 15.1508V15.6518H69.0322V14.9517H73.8365V14.8556C73.8274 14.4393 73.7427 14.0503 73.5826 13.6889C73.427 13.3228 73.1937 13.0254 72.8825 12.7967C72.5714 12.5679 72.1825 12.4535 71.7158 12.4535C71.368 12.4535 71.0478 12.5267 70.7549 12.6731C70.4667 12.8195 70.2173 13.03 70.0068 13.3045C69.8009 13.5745 69.6408 13.8971 69.5264 14.2723C69.4166 14.6429 69.3617 15.0547 69.3617 15.5076V15.8028C69.3617 16.2146 69.4212 16.5989 69.5401 16.9558C69.6637 17.3081 69.8375 17.6192 70.0617 17.8892C70.2905 18.1591 70.5605 18.3696 70.8716 18.5206C71.1827 18.6716 71.5259 18.7471 71.9011 18.7471C72.3403 18.7471 72.7292 18.667 73.0678 18.5069C73.4064 18.3422 73.7107 18.0837 73.9806 17.7313L74.4954 18.1294C74.3352 18.3673 74.1339 18.587 73.8914 18.7883C73.6535 18.9896 73.3675 19.1497 73.0335 19.2687C72.6995 19.3877 72.3106 19.4472 71.8668 19.4472Z" fill="white"/>
<path d="M62.0113 13.3114V23.7568H61.1877V11.8838H61.9564L62.0113 13.3114ZM67.1725 15.5282V15.6724C67.1725 16.226 67.1084 16.7339 66.9803 17.196C66.8522 17.6581 66.6669 18.0585 66.4244 18.3971C66.1865 18.7311 65.8914 18.9896 65.539 19.1726C65.1867 19.3556 64.7864 19.4472 64.338 19.4472C63.8942 19.4472 63.4984 19.3785 63.1506 19.2413C62.8029 19.104 62.5032 18.9095 62.2515 18.6579C62.0045 18.4017 61.8054 18.1042 61.6544 17.7657C61.508 17.4225 61.4051 17.0473 61.3456 16.6401V14.739C61.4142 14.2906 61.5263 13.8833 61.6819 13.5173C61.8375 13.1513 62.0365 12.8356 62.279 12.5702C62.5261 12.3048 62.8189 12.1012 63.1575 11.9593C63.4961 11.8175 63.8827 11.7466 64.3174 11.7466C64.7704 11.7466 65.173 11.8358 65.5253 12.0142C65.8822 12.1881 66.1819 12.4421 66.4244 12.7761C66.6715 13.1055 66.8568 13.5036 66.9803 13.9703C67.1084 14.4324 67.1725 14.9517 67.1725 15.5282ZM66.3489 15.6724V15.5282C66.3489 15.0936 66.3032 14.6909 66.2116 14.3203C66.1247 13.9497 65.9897 13.6271 65.8067 13.3526C65.6283 13.0735 65.3995 12.8561 65.1204 12.7006C64.8459 12.545 64.5187 12.4672 64.1389 12.4672C63.7455 12.4672 63.4092 12.5336 63.13 12.6663C62.8555 12.7944 62.6267 12.966 62.4437 13.181C62.2607 13.3915 62.1166 13.6225 62.0113 13.8742C61.9061 14.1258 61.8283 14.3729 61.778 14.6154V16.8048C61.8649 17.1525 62.0045 17.4751 62.1966 17.7725C62.3888 18.0654 62.645 18.301 62.9653 18.4794C63.2902 18.6533 63.686 18.7402 64.1527 18.7402C64.5279 18.7402 64.8527 18.6625 65.1273 18.5069C65.4018 18.3513 65.6283 18.134 65.8067 17.8549C65.9897 17.5758 66.1247 17.2509 66.2116 16.8803C66.3032 16.5097 66.3489 16.107 66.3489 15.6724Z" fill="white"/>
<path d="M54.8228 6.8208L55.8007 11.1011L58.1081 6.8208H60.9816L57.1045 13.1254L59.0002 19.31H56.2639L55.286 14.9525L52.9272 19.31H50.0107L53.9822 12.911L52.1209 6.8208H54.8228Z" fill="white"/>
<path d="M48.3085 16.143H49.8762C49.8261 16.7992 49.6588 17.3843 49.3746 17.8983C49.0903 18.4077 48.691 18.8092 48.1768 19.1029C47.6626 19.3966 47.0376 19.5434 46.3019 19.5434C45.7375 19.5434 45.2296 19.4333 44.7781 19.213C44.3266 18.9882 43.9399 18.6715 43.618 18.2631C43.2961 17.8501 43.0494 17.3522 42.878 16.7694C42.7108 16.1866 42.6272 15.5349 42.6272 14.8144V13.9815C42.6272 13.261 42.7129 12.6094 42.8843 12.0266C43.0599 11.4438 43.3107 10.9459 43.6368 10.5328C43.9629 10.1152 44.3538 9.79629 44.8094 9.57602C45.2693 9.35574 45.7856 9.24561 46.3583 9.24561C47.0857 9.24561 47.7003 9.39245 48.2019 9.68615C48.7036 9.97985 49.0924 10.386 49.3683 10.9045C49.6484 11.4231 49.8198 12.0174 49.8825 12.6874H48.3148C48.273 12.256 48.181 11.8866 48.0389 11.5791C47.9009 11.2717 47.6961 11.0376 47.4243 10.877C47.1526 10.7118 46.7973 10.6292 46.3583 10.6292C45.9988 10.6292 45.6852 10.7026 45.4177 10.8495C45.1501 10.9963 44.9265 11.212 44.7467 11.4965C44.567 11.7811 44.4311 12.1321 44.3391 12.5497C44.2513 12.9627 44.2074 13.4354 44.2074 13.9677V14.8144C44.2074 15.3192 44.2471 15.7781 44.3266 16.1911C44.4102 16.5996 44.5356 16.9506 44.7028 17.2443C44.8742 17.538 45.0916 17.7652 45.355 17.9258C45.6184 18.0864 45.934 18.1667 46.3019 18.1667C46.7492 18.1667 47.1108 18.0887 47.3867 17.9327C47.6668 17.7767 47.8779 17.5495 48.0201 17.2512C48.1664 16.9483 48.2625 16.5789 48.3085 16.143Z" fill="white"/>
<path d="M41.456 14.1192V14.6699C41.456 15.4271 41.3699 16.1062 41.1977 16.7074C41.0255 17.3086 40.7793 17.8203 40.459 18.2424C40.1427 18.6646 39.7623 18.9882 39.3178 19.213C38.8734 19.4333 38.3809 19.5434 37.8403 19.5434C37.3038 19.5434 36.8133 19.4333 36.3689 19.213C35.9284 18.9882 35.546 18.6646 35.2217 18.2424C34.8974 17.8203 34.6451 17.3086 34.4649 16.7074C34.2888 16.1062 34.2007 15.4271 34.2007 14.6699V14.1192C34.2007 13.362 34.2888 12.6851 34.4649 12.0885C34.6411 11.4874 34.8894 10.9757 35.2097 10.5535C35.534 10.1267 35.9164 9.80318 36.3569 9.5829C36.8013 9.35804 37.2918 9.24561 37.8283 9.24561C38.3689 9.24561 38.8614 9.35804 39.3058 9.5829C39.7503 9.80318 40.1326 10.1267 40.453 10.5535C40.7733 10.9757 41.0195 11.4874 41.1917 12.0885C41.3679 12.6851 41.456 13.362 41.456 14.1192ZM39.9485 14.6699V14.1054C39.9485 13.5455 39.9004 13.0522 39.8043 12.6254C39.7122 12.1941 39.5741 11.8338 39.3899 11.5447C39.2097 11.251 38.9875 11.0307 38.7232 10.8839C38.459 10.7325 38.1607 10.6567 37.8283 10.6567C37.496 10.6567 37.1997 10.7325 36.9394 10.8839C36.6792 11.0307 36.457 11.251 36.2728 11.5447C36.0926 11.8338 35.9544 12.1941 35.8584 12.6254C35.7623 13.0522 35.7142 13.5455 35.7142 14.1054V14.6699C35.7142 15.2297 35.7623 15.7254 35.8584 16.1567C35.9544 16.5881 36.0946 16.9529 36.2788 17.2512C36.467 17.5449 36.6912 17.7675 36.9514 17.9189C37.2117 18.0658 37.508 18.1392 37.8403 18.1392C38.1767 18.1392 38.475 18.0658 38.7352 17.9189C38.9955 17.7675 39.2157 17.5449 39.3959 17.2512C39.5761 16.9529 39.7122 16.5881 39.8043 16.1567C39.9004 15.7254 39.9485 15.2297 39.9485 14.6699Z" fill="white"/>
<path d="M31.6356 16.759C31.6356 16.5525 31.6046 16.3689 31.5425 16.2083C31.4849 16.0477 31.3807 15.9008 31.23 15.7678C31.0792 15.6347 30.8664 15.5062 30.5915 15.3823C30.3211 15.2538 29.9753 15.123 29.5541 14.9899C29.093 14.8431 28.6674 14.6802 28.2773 14.5012C27.8916 14.3176 27.5546 14.1065 27.2665 13.8679C26.9783 13.6247 26.7544 13.347 26.5948 13.035C26.4352 12.7183 26.3554 12.3535 26.3554 11.9405C26.3554 11.5321 26.4374 11.1604 26.6015 10.8254C26.7699 10.4904 27.0071 10.2012 27.313 9.95802C27.6234 9.71021 27.9891 9.51977 28.4103 9.38668C28.8315 9.24901 29.297 9.18018 29.8068 9.18018C30.525 9.18018 31.1435 9.31785 31.6622 9.59319C32.1854 9.86853 32.5866 10.238 32.8659 10.7014C33.1496 11.1649 33.2915 11.6766 33.2915 12.2365H31.6356C31.6356 11.9061 31.5669 11.6147 31.4295 11.3623C31.2965 11.1053 31.0925 10.9034 30.8176 10.7565C30.5472 10.6097 30.2036 10.5362 29.7869 10.5362C29.3923 10.5362 29.0642 10.5982 28.8027 10.7221C28.5411 10.846 28.346 11.0135 28.2174 11.2246C28.0889 11.4357 28.0246 11.6743 28.0246 11.9405C28.0246 12.1286 28.0667 12.3007 28.1509 12.4568C28.2352 12.6082 28.3637 12.7505 28.5367 12.8835C28.7096 13.012 28.9268 13.1336 29.1884 13.2484C29.4499 13.3631 29.7581 13.4732 30.1127 13.5788C30.6492 13.744 31.1169 13.9276 31.5159 14.1295C31.9149 14.3268 32.2474 14.5517 32.5134 14.8041C32.7794 15.0565 32.9789 15.3433 33.1119 15.6645C33.2449 15.9812 33.3114 16.3414 33.3114 16.7452C33.3114 17.1674 33.2294 17.5483 33.0654 17.8879C32.9014 18.2229 32.6664 18.5097 32.3605 18.7484C32.059 18.9824 31.6955 19.1637 31.2699 19.2922C30.8487 19.4161 30.3787 19.478 29.86 19.478C29.3945 19.478 28.9357 19.4138 28.4835 19.2853C28.0357 19.1568 27.6278 18.9617 27.2598 18.7002C26.8919 18.434 26.5992 18.1036 26.382 17.7089C26.1648 17.3097 26.0562 16.8439 26.0562 16.3116H27.7253C27.7253 16.6374 27.7785 16.915 27.8849 17.1445C27.9958 17.3739 28.1487 17.5621 28.3438 17.7089C28.5389 17.8512 28.765 17.9567 29.0221 18.0256C29.2837 18.0944 29.563 18.1288 29.86 18.1288C30.2502 18.1288 30.576 18.0715 30.8376 17.9567C31.1036 17.842 31.3031 17.6814 31.4361 17.4749C31.5691 17.2684 31.6356 17.0298 31.6356 16.759Z" fill="white"/>
<circle cx="1.28724" cy="1.28724" r="1.28724" transform="matrix(-4.37114e-08 -1 -1 4.37114e-08 67.03 23.7576)" fill="#29DF76"/>
<circle cx="1.28724" cy="1.28724" r="1.28724" transform="matrix(-4.37114e-08 -1 -1 4.37114e-08 70.7747 23.7576)" fill="#FFE207"/>
<circle cx="1.28724" cy="1.28724" r="1.28724" transform="matrix(-4.37114e-08 -1 -1 4.37114e-08 74.5193 23.7576)" fill="#FC4C5D"/>
<path d="M20.9511 7.37781L18.7506 19.4472H16.6196L18.8201 7.37781H20.9511Z" fill="white"/>
<path d="M11.7055 9.09371L6.18247 19.4472H3.8689L10.6879 7.37781H12.1752L11.7055 9.09371ZM12.9058 19.4472L11.114 8.8699L11.2445 7.37781H12.6274L15.0715 19.4472H12.9058ZM13.5233 14.9709L13.2189 16.6205H6.52168L6.8261 14.9709H13.5233Z" fill="white"/>
<g clip-path="url(#clip0_4227_29850)">
<path d="M0.657546 9.55911C2.69308 9.59195 3.61532 8.75866 3.69985 6.71342C3.61532 8.75866 4.46134 9.62049 6.50304 9.65343C4.46134 9.62049 3.54425 10.4783 3.46074 12.4991C3.54425 10.4783 2.69308 9.59195 0.657546 9.55911Z" fill="white" stroke="white" stroke-width="0.485679" stroke-linejoin="round"/>
</g>
<g clip-path="url(#clip1_4227_29850)">
<path d="M6.70688 4.72036C7.98491 4.741 8.56397 4.21783 8.61706 2.9337C8.56397 4.21783 9.09514 4.75894 10.377 4.77965C9.09514 4.75894 8.51932 5.29752 8.46686 6.56631C8.51932 5.29752 7.98491 4.741 6.70688 4.72036Z" fill="white" stroke="white" stroke-width="0.304939" stroke-linejoin="round"/>
</g>
<defs>
<clipPath id="clip0_4227_29850">
<rect width="7.06878" height="7.72084" fill="white" transform="matrix(0.99987 0.0161345 -0.0412922 0.999147 0.568848 5.6983)"/>
</clipPath>
<clipPath id="clip1_4227_29850">
<rect width="4.92316" height="4.87632" fill="white" transform="matrix(0.99987 0.0161531 -0.0413127 0.999146 6.2688 2.15411)"/>
</clipPath>
</defs>
</svg>