<svg xmlns="http://www.w3.org/2000/svg" width="16" height="16" viewBox="0 0 16 16" fill="none">
<path d="M14.6654 7.88542C14.6654 11.5673 11.6806 14.5521 7.9987 14.5521M14.6654 7.88542C14.6654 4.20352 11.6806 1.21875 7.9987 1.21875M14.6654 7.88542H1.33203M7.9987 14.5521C4.3168 14.5521 1.33203 11.5673 1.33203 7.88542M7.9987 14.5521C9.66622 12.7265 10.6139 10.3574 10.6654 7.88542C10.6139 5.41344 9.66622 3.04432 7.9987 1.21875M7.9987 14.5521C6.33118 12.7265 5.38353 10.3574 5.33203 7.88542C5.38353 5.41344 6.33118 3.04432 7.9987 1.21875M1.33203 7.88542C1.33203 4.20352 4.3168 1.21875 7.9987 1.21875" stroke="currentColor" stroke-width="1.33333" stroke-linecap="round" stroke-linejoin="round"/>
</svg>