<svg width="19" height="19" viewBox="0 0 19 19" fill="none" xmlns="http://www.w3.org/2000/svg">
<g clip-path="url(#clip0_901_11027)">
<path d="M5.49564 9.51563C5.49564 9.23111 5.4396 8.94939 5.33072 8.68653C5.22184 8.42367 5.06226 8.18483 4.86107 7.98365C4.65989 7.78247 4.42105 7.62288 4.1582 7.514C3.89534 7.40512 3.61361 7.34908 3.32909 7.34908C2.75449 7.34908 2.20342 7.57734 1.79711 7.98365C1.39081 8.38996 1.16255 8.94103 1.16255 9.51563C1.16255 10.0902 1.39081 10.6413 1.79711 11.0476C2.20342 11.4539 2.75449 11.6822 3.32909 11.6822C3.9037 11.6822 4.45477 11.4539 4.86107 11.0476C5.26738 10.6413 5.49564 10.0902 5.49564 9.51563ZM5.49564 9.51563H13.4194M13.4194 9.51563C13.4194 9.80015 13.4754 10.0819 13.5843 10.3447C13.6932 10.6076 13.8528 10.8464 14.054 11.0476C14.2551 11.2488 14.494 11.4084 14.7568 11.5173C15.0197 11.6261 15.3014 11.6822 15.5859 11.6822C15.8705 11.6822 16.1522 11.6261 16.415 11.5173C16.6779 11.4084 16.9167 11.2488 17.1179 11.0476C17.3191 10.8464 17.4787 10.6076 17.5876 10.3447C17.6965 10.0819 17.7525 9.80014 17.7525 9.51563C17.7525 8.94103 17.5242 8.38996 17.1179 7.98365C16.7116 7.57734 16.1606 7.34908 15.5859 7.34908C15.0113 7.34908 14.4603 7.57734 14.054 7.98365C13.6477 8.38996 13.4194 8.94103 13.4194 9.51563ZM13.4194 9.51563H13.4235" stroke="currentColor" stroke-linecap="round" stroke-linejoin="round"/>
</g>
<defs>
<clipPath id="clip0_901_11027">
<rect width="18" height="18" fill="white" transform="translate(0.457031 0.516602)"/>
</clipPath>
</defs>
</svg>
