<svg width="11" height="12" viewBox="0 0 11 12" fill="none" xmlns="http://www.w3.org/2000/svg">
<path d="M10.375 4.34266C10.3694 4.2929 10.3585 4.24388 10.3425 4.19641V4.14766C10.3165 4.09197 10.2817 4.04077 10.2396 3.996L6.98958 0.745996C6.94481 0.703863 6.89361 0.669123 6.83792 0.643079C6.82175 0.640783 6.80534 0.640783 6.78917 0.643079C6.73414 0.611523 6.67337 0.591266 6.61042 0.583496H4.41667C3.98569 0.583496 3.57236 0.754701 3.26762 1.05945C2.96287 1.36419 2.79167 1.77752 2.79167 2.2085V2.75016H2.25C1.81902 2.75016 1.4057 2.92137 1.10095 3.22611C0.796205 3.53086 0.625 3.94419 0.625 4.37516V9.79183C0.625 10.2228 0.796205 10.6361 1.10095 10.9409C1.4057 11.2456 1.81902 11.4168 2.25 11.4168H6.58333C7.01431 11.4168 7.42764 11.2456 7.73238 10.9409C8.03713 10.6361 8.20833 10.2228 8.20833 9.79183V9.25016H8.75C9.18098 9.25016 9.5943 9.07896 9.89905 8.77421C10.2038 8.46947 10.375 8.05614 10.375 7.62516V4.37516C10.375 4.37516 10.375 4.37516 10.375 4.34266ZM7.125 2.43058L8.52792 3.8335H7.66667C7.52301 3.8335 7.38523 3.77643 7.28365 3.67485C7.18207 3.57326 7.125 3.43549 7.125 3.29183V2.43058ZM7.125 9.79183C7.125 9.93549 7.06793 10.0733 6.96635 10.1748C6.86477 10.2764 6.72699 10.3335 6.58333 10.3335H2.25C2.10634 10.3335 1.96857 10.2764 1.86698 10.1748C1.7654 10.0733 1.70833 9.93549 1.70833 9.79183V4.37516C1.70833 4.2315 1.7654 4.09373 1.86698 3.99215C1.96857 3.89056 2.10634 3.8335 2.25 3.8335H2.79167V7.62516C2.79167 8.05614 2.96287 8.46947 3.26762 8.77421C3.57236 9.07896 3.98569 9.25016 4.41667 9.25016H7.125V9.79183ZM9.29167 7.62516C9.29167 7.76882 9.2346 7.9066 9.13302 8.00818C9.03144 8.10976 8.89366 8.16683 8.75 8.16683H4.41667C4.27301 8.16683 4.13523 8.10976 4.03365 8.00818C3.93207 7.9066 3.875 7.76882 3.875 7.62516V2.2085C3.875 2.06484 3.93207 1.92706 4.03365 1.82548C4.13523 1.7239 4.27301 1.66683 4.41667 1.66683H6.04167V3.29183C6.04167 3.72281 6.21287 4.13613 6.51762 4.44088C6.82236 4.74563 7.23569 4.91683 7.66667 4.91683H9.29167V7.62516Z" fill="#6B7280"/>
</svg>
