<svg width="12" height="12" viewBox="0 0 12 12" fill="none" xmlns="http://www.w3.org/2000/svg">
<path fill-rule="evenodd" clip-rule="evenodd" d="M8.39737 3.91127C8.39737 3.91127 5.75062 8.52374 5.70487 8.56499C5.55375 8.70749 5.31638 8.70002 5.175 8.55002L3.4605 6.96748C3.31875 6.81748 3.32663 6.57752 3.47775 6.43877C3.62888 6.29627 3.86625 6.30374 4.008 6.45374L5.34975 7.69125L7.74788 3.53627C7.85138 3.36002 8.0805 3.29623 8.26013 3.40123C8.43937 3.50248 8.50087 3.73502 8.39737 3.91127ZM6 0C2.6865 0 0 2.685 0 6C0 9.315 2.6865 12 6 12C9.3135 12 12 9.315 12 6C12 2.685 9.3135 0 6 0Z" fill="currentColor"/>
</svg>
 