<svg width="18" height="18" viewBox="0 0 18 18" fill="none" xmlns="http://www.w3.org/2000/svg">
  <path
    fillRule="evenodd"
    clipRule="evenodd"
    d="M9 1.5C4.86 1.5 1.5 4.86 1.5 9C1.5 13.14 4.86 16.5 9 16.5C13.14 16.5 16.5 13.15 16.5 9C16.5 4.85 13.14 1.5 9 1.5ZM12.47 6.71L8.55 12.04C8.44 12.19 8.28 12.28 8.1 12.29C7.92 12.31 7.74 12.25 7.61 12.12L5.53 10.12C5.28 9.88 5.28 9.49 5.51 9.24C5.75 8.99 6.15 8.98 6.4 9.22L7.96 10.73L11.46 5.97C11.67 5.69 12.06 5.63 12.34 5.83C12.61 6.04 12.67 6.43 12.47 6.71Z"
    fill="var(--icon-positive)"
  />
  <path
    fillRule="evenodd"
    clipRule="evenodd"
    d="M12.4699 6.70871L8.54992 12.0387C8.43992 12.1887 8.27992 12.2787 8.09992 12.2887C7.91992 12.3087 7.73992 12.2487 7.60992 12.1187L5.52992 10.1187C5.27992 9.87871 5.27992 9.48871 5.50992 9.23871C5.74992 8.98871 6.14992 8.97871 6.39992 9.21871L7.95992 10.7287L11.4599 5.96871C11.6699 5.68871 12.0599 5.62871 12.3399 5.82871C12.6099 6.03871 12.6699 6.42871 12.4699 6.70871Z"
    fill="var(--text-on-action)"
  />
</svg>