<svg width="32" height="32" viewBox="-2 1 23 22" fill="none" xmlns="http://www.w3.org/2000/svg">
<path d="M13.8438 20.1032C13.8984 20.16 13.9463 20.2287 13.9873 20.3092C14.0283 20.3897 14.0625 20.4749 14.0898 20.5648C14.1172 20.6548 14.1377 20.7447 14.1514 20.8347C14.165 20.9247 14.1719 21.0099 14.1719 21.0904C14.1719 21.2182 14.1491 21.3366 14.1035 21.4455C14.0579 21.5544 13.9964 21.649 13.919 21.7295C13.8415 21.81 13.7481 21.8763 13.6387 21.9284C13.5293 21.9805 13.4154 22.0041 13.2969 21.9994H1.04741C0.924367 21.9994 0.81044 21.9757 0.705626 21.9284C0.600813 21.881 0.50967 21.8171 0.4322 21.7366C0.354729 21.6562 0.290929 21.5591 0.240801 21.4455C0.190673 21.3318 0.167888 21.2135 0.172445 21.0904C0.172445 21.0146 0.17928 20.9318 0.192952 20.8418C0.206623 20.7518 0.22713 20.6595 0.254473 20.5648C0.281815 20.4701 0.315993 20.3849 0.357007 20.3092C0.398021 20.2334 0.445871 20.1648 0.500556 20.1032L1.92237 18.626V12.5C1.92237 12.2239 2.14623 12 2.42237 12H11.9219C12.1981 12 12.4219 12.2239 12.4219 12.5V18.626L13.8438 20.1032ZM2.79734 18.3633H11.547V13.409C11.547 13.1329 11.3231 12.909 11.047 12.909H3.29734C3.0212 12.909 2.79734 13.1329 2.79734 13.409V18.3633ZM13.2969 21.0904C13.2969 21.0383 13.2878 20.972 13.2696 20.8915C13.2513 20.811 13.224 20.7495 13.1875 20.7069L11.7999 19.2723H2.54442L1.15678 20.7069C1.12032 20.7447 1.09298 20.8039 1.07475 20.8844C1.05652 20.9649 1.04741 21.0336 1.04741 21.0904H13.2969Z" fill="currentColor"/>
<path d="M15.4219 8.5C16.1122 8.5 16.6719 7.94036 16.6719 7.25C16.6719 6.55964 16.1122 6 15.4219 6C14.7315 6 14.1719 6.55964 14.1719 7.25C14.1719 7.94036 14.7315 8.5 15.4219 8.5Z" stroke="currentColor" stroke-width="0.7"/>
<path d="M11.3214 3.42997L11.5402 3.0508C11.4543 3.00126 11.3541 2.98236 11.2561 2.99719C11.1581 3.01203 11.068 3.05973 11.0006 3.13247L11.3214 3.42997ZM10.1553 5.45064L9.73709 5.32114C9.70784 5.4159 9.71164 5.51779 9.74789 5.61011C9.78414 5.70242 9.85068 5.77968 9.93659 5.82922L10.1553 5.45064ZM10.1542 8.54872L9.93543 8.16955C9.84949 8.21921 9.78299 8.2966 9.74684 8.38904C9.7107 8.48147 9.70705 8.58344 9.73651 8.67822L10.1542 8.54872ZM11.3208 10.5694L11 10.8669C11.0674 10.9396 11.1575 10.9873 11.2555 11.0022C11.3535 11.017 11.4537 10.9981 11.5396 10.9486L11.3208 10.5694ZM14.0042 12.1181H13.5667C13.5667 12.3223 13.7084 12.4991 13.9073 12.5446L14.0042 12.1181ZM16.3381 12.1193L16.4355 12.5463C16.5322 12.5242 16.6185 12.4699 16.6803 12.3924C16.7421 12.3148 16.7757 12.2185 16.7756 12.1193H16.3381ZM19.022 10.57L18.8033 10.9491C18.8891 10.9987 18.9893 11.0176 19.0873 11.0027C19.1854 10.9879 19.2755 10.9402 19.3428 10.8675L19.022 10.57ZM20.1875 8.54814L20.6058 8.67764C20.635 8.58288 20.6312 8.48098 20.595 8.38867C20.5587 8.29635 20.4922 8.21909 20.4063 8.16955L20.1875 8.54814ZM20.1887 5.45005L20.4074 5.82922C20.4934 5.77957 20.5599 5.70217 20.596 5.60974C20.6322 5.51731 20.6358 5.41533 20.6063 5.32055L20.1887 5.45005ZM19.022 3.4288L19.3428 3.13189C19.2755 3.05915 19.1854 3.01145 19.0873 2.99661C18.9893 2.98177 18.8891 3.00068 18.8033 3.05022L19.022 3.4288ZM16.3387 1.88122H16.7762C16.7762 1.78214 16.7425 1.68599 16.6807 1.60853C16.6189 1.53107 16.5327 1.47687 16.4361 1.4548L16.3387 1.88122ZM14.0053 1.88005L13.9079 1.45305C13.8112 1.47514 13.7249 1.52942 13.6631 1.60701C13.6013 1.68459 13.5677 1.78087 13.5678 1.88005H14.0053ZM10.5736 5.58014C10.7859 4.89001 11.151 4.25657 11.6417 3.72689L11.0006 3.13247C10.4207 3.75837 9.98811 4.50567 9.73709 5.32114L10.5736 5.58014ZM11.0041 9.40622C10.8239 9.09472 10.6791 8.76406 10.5724 8.42039L9.73651 8.67822C9.86233 9.08429 10.0337 9.4756 10.2463 9.84372L11.0041 9.40622ZM11.6423 10.2731C11.3979 10.0088 11.1839 9.71804 11.0041 9.40622L10.2463 9.84372C10.4586 10.212 10.7114 10.5548 11 10.8669L11.6423 10.2731ZM16.2413 11.6935C15.5374 11.8537 14.8065 11.8533 14.1028 11.6923L13.9073 12.5446C14.7392 12.735 15.6033 12.7356 16.4355 12.5463L16.2413 11.6935ZM19.7704 8.4198C19.5581 9.10993 19.193 9.74336 18.7023 10.2731L19.3428 10.8675C19.9227 10.2416 20.3547 9.49311 20.6058 8.67764L19.7704 8.4198ZM19.3399 4.59372C19.5237 4.9128 19.6666 5.24297 19.7716 5.57955L20.6063 5.32055C20.4805 4.91448 20.3103 4.52434 20.0977 4.15622L19.3399 4.59372ZM18.7012 3.72689C18.9403 3.9853 19.1556 4.27522 19.3399 4.59372L20.0977 4.15622C19.8852 3.78792 19.6316 3.44396 19.3428 3.13189L18.7012 3.72689ZM14.1022 2.30647C14.8061 2.14627 15.537 2.14667 16.2407 2.30764L16.4361 1.4548C15.6042 1.26436 14.7401 1.26376 13.9079 1.45305L14.1022 2.30647ZM14.4423 2.95864V1.87947L13.5678 1.88005L13.5673 2.95864H14.4423ZM12.4741 3.5898L11.5402 3.0508L11.1027 3.80855L12.0366 4.34814L12.4741 3.5898ZM10.8699 7.63172L9.93543 8.16955L10.3735 8.92847L11.3074 8.38947L10.8699 7.63172ZM11.3074 5.61047L10.3741 5.07205L9.93659 5.82922L10.8699 6.3688L11.3074 5.61047ZM14.4428 12.1187V11.0413H13.5678L13.5667 12.1181L14.4428 12.1187ZM12.0366 9.65239L11.1027 10.1914L11.5396 10.9486L12.4735 10.4101L12.0366 9.65239ZM19.2413 10.1914L18.3074 9.65239L17.8699 10.4101L18.8033 10.9491L19.2413 10.1914ZM16.7756 12.1193L16.7762 11.0413H15.9012V12.1205L16.7756 12.1193ZM19.9705 5.07147L19.0366 5.61047L19.4741 6.3688L20.4074 5.82922L19.9705 5.07147ZM20.4063 8.16955L19.4741 7.63114L19.0366 8.38947L19.9699 8.92789L20.4063 8.16955ZM16.7762 2.95864V1.88122H15.9012V2.95864H16.7762ZM18.8033 3.05022L17.8699 3.5898L18.3074 4.34814L19.2413 3.80855L18.8033 3.05022ZM15.9012 2.95864C15.9012 4.19355 17.2382 4.96589 18.3074 4.34814L17.8699 3.5898C17.7591 3.65379 17.6334 3.68748 17.5054 3.68749C17.3775 3.68751 17.2517 3.65384 17.1409 3.58988C17.0301 3.52592 16.938 3.43392 16.874 3.32311C16.81 3.21231 16.7762 3.08661 16.7762 2.95864H15.9012ZM19.0366 5.61047C17.9673 6.22822 17.9673 7.77172 19.0366 8.38947L19.4741 7.63114C19.3633 7.56714 19.2712 7.47509 19.2072 7.36425C19.1432 7.2534 19.1095 7.12767 19.1095 6.99968C19.1095 6.87169 19.1432 6.74596 19.2072 6.63511C19.2712 6.52427 19.3633 6.43281 19.4741 6.3688L19.0366 5.61047ZM18.3074 9.65239C17.2382 9.03464 15.9012 9.80639 15.9012 11.0413H16.7762C16.7762 10.9133 16.81 10.7876 16.874 10.6768C16.938 10.566 17.0301 10.474 17.1409 10.4101C17.2517 10.3461 17.3775 10.3124 17.5054 10.3124C17.6334 10.3125 17.7591 10.3462 17.8699 10.4101L18.3074 9.65239ZM14.4428 11.0413C14.4428 9.80639 13.1058 9.03464 12.0366 9.65239L12.4735 10.4101C12.5843 10.3462 12.7106 10.3125 12.8386 10.3124C12.9666 10.3124 13.0923 10.3461 13.2031 10.4101C13.314 10.474 13.406 10.566 13.47 10.6768C13.5341 10.7876 13.5678 10.9133 13.5678 11.0413H14.4428ZM11.3074 8.38947C12.3767 7.77172 12.3767 6.22822 11.3074 5.61047L10.8699 6.3688C10.9808 6.43281 11.0728 6.52485 11.1368 6.6357C11.2008 6.74654 11.2345 6.87227 11.2345 7.00026C11.2345 7.12825 11.2008 7.25399 11.1368 7.36483C11.0728 7.47567 10.9808 7.56772 10.8699 7.63172L11.3074 8.38947ZM13.5673 2.95864C13.5672 3.08661 13.5341 3.21231 13.47 3.32311C13.406 3.43392 13.314 3.52592 13.2031 3.58988C13.0923 3.65384 12.9666 3.68751 12.8386 3.68749C12.7106 3.68748 12.5849 3.65379 12.4741 3.5898L12.0366 4.34814C13.1058 4.9653 14.4423 4.19355 14.4423 2.95864H13.5673Z" fill="currentColor"/>
</svg>
