<svg width="21" height="23" viewBox="0 0 21 23" fill="none" xmlns="http://www.w3.org/2000/svg">
<path d="M11.0776 2.62425V19.7304M11.0776 2.62425C11.1682 1.5431 11.8721 -0.345505 15.9895 2.49032M11.0776 2.62425C11.0588 2.82761 11.0588 3.03231 11.0776 3.23567M17.1042 5.40573C17.7008 4.56205 17.5049 3.39134 16.6667 2.79085C15.8285 2.19036 14.6653 2.38748 14.0687 3.23115C13.8437 3.54928 13.723 3.9302 13.7235 4.3207M19.6189 9.2276C19.845 8.72501 19.9123 8.16468 19.8118 7.62236C19.5693 6.31968 18.4285 5.38306 17.1119 5.40573C16.9585 5.40795 16.8055 5.42356 16.6548 5.45231C15.1885 5.72524 14.2197 7.1428 14.4909 8.61857C14.4916 8.62231 14.4923 8.62602 14.493 8.62977M18.1571 13.8938C19.6544 13.6073 20.6375 12.1534 20.3528 10.6463C20.2525 10.1149 20 9.62449 19.6266 9.23537M12.4198 9.77303C12.8563 10.9683 14.173 11.5812 15.3606 11.1419C16.5483 10.7025 17.1572 9.37734 16.7207 8.18199C16.7168 8.17143 16.7128 8.16083 16.7088 8.15031C16.6895 8.09988 16.6702 8.04941 16.6471 8.00089M14.3155 11.256C14.3304 11.3166 14.3491 11.3763 14.3715 11.4345C14.704 12.3268 15.6923 12.7788 16.5788 12.4442L16.5796 12.4439C16.6183 12.4303 16.6563 12.4148 16.6934 12.3973M13.1295 19.0996C14.3821 19.2872 15.5487 18.4174 15.7351 17.1566C15.9151 15.9398 15.115 14.7948 13.9163 14.5537C13.8624 14.5537 13.8084 14.5382 13.7544 14.5324M15.2566 18.3348C15.702 18.7778 16.352 18.9408 16.9518 18.7599C16.9904 18.7483 17.0289 18.7366 17.0675 18.7211M11.0776 7.2128C11.0776 7.26132 11.0776 7.30794 11.0776 7.35452M19.8214 12.8651C19.9446 13.0253 20.0501 13.1985 20.1359 13.3818C20.7859 14.7705 20.1945 16.4266 18.8147 17.081C18.8372 17.1573 18.8565 17.2346 18.8724 17.3126C19.179 18.8164 18.2164 20.2856 16.7223 20.5942M11.0814 19.7324C11.4276 21.3898 13.0433 22.4512 14.6901 22.1027C15.5542 21.9199 16.297 21.3689 16.7262 20.5923" stroke="currentColor" stroke-width="0.81419" stroke-linecap="round" stroke-linejoin="round"/>
<path d="M9.49334 1.25586V10.0061V11.0999M9.49334 21.4907V11.0999M9.49334 11.0999L7.85267 13.0914M6.21201 3.7943L7.85267 5.43497V10.357M7.85267 10.357L6.21201 8.7163H5.11823M7.85267 10.357V11.9976M7.85267 11.9976V15.8258L6.21201 17.4665M7.85267 11.9976L5.11823 14.1852H3.1582" stroke="currentColor" stroke-width="0.81419" stroke-linecap="round" stroke-linejoin="round"/>
<circle cx="4.7891" cy="2.89701" r="1.23357" stroke="currentColor" stroke-width="0.81419"/>
<circle cx="3.47563" cy="8.36576" r="1.23357" stroke="currentColor" stroke-width="0.81419"/>
<circle cx="1.64067" cy="14.1851" r="1.23357" stroke="currentColor" stroke-width="0.81419"/>
<circle cx="4.7891" cy="17.8169" r="1.23357" stroke="currentColor" stroke-width="0.81419"/>
</svg>
