<svg width="32" height="32" viewBox="0 0 32 26" fill="none" xmlns="http://www.w3.org/2000/svg">
<path d="M8.96368 11.2751V25.1175M8.96368 11.2751C9.03703 10.4002 9.60664 8.8719 12.9384 11.1667M8.96368 11.2751C8.94847 11.4396 8.94847 11.6053 8.96368 11.7698M13.8405 13.5258C14.3232 12.8431 14.1647 11.8958 13.4865 11.4099C12.8082 10.9239 11.8669 11.0835 11.3841 11.7662C11.2021 12.0236 11.1044 12.3318 11.1048 12.6478M15.8754 16.6185C16.0583 16.2118 16.1128 15.7584 16.0315 15.3196C15.8353 14.2654 14.9121 13.5075 13.8467 13.5258C13.7226 13.5276 13.5988 13.5403 13.4768 13.5635C12.2903 13.7844 11.5063 14.9315 11.7257 16.1257C11.7263 16.1287 11.7269 16.1317 11.7275 16.1348M14.6925 20.3945C15.9041 20.1626 16.6997 18.9861 16.4693 17.7666C16.3881 17.3365 16.1838 16.9397 15.8817 16.6248M10.0498 17.0599C10.4031 18.0272 11.4685 18.5231 12.4296 18.1676C13.3906 17.8121 13.8833 16.7397 13.5301 15.7724C13.527 15.7639 13.5238 15.7553 13.5205 15.7468C13.5049 15.706 13.4893 15.6651 13.4706 15.6259M11.5839 18.2599C11.5959 18.309 11.611 18.3573 11.6291 18.4044C11.8982 19.1265 12.6979 19.4922 13.4153 19.2214L13.416 19.2212C13.4473 19.2102 13.478 19.1977 13.508 19.1835M10.6241 24.6071C11.6377 24.7589 12.5817 24.055 12.7326 23.0348C12.8782 22.0501 12.2308 21.1236 11.2608 20.9285C11.2172 20.9285 11.1735 20.9159 11.1298 20.9112M12.3454 23.9882C12.7058 24.3467 13.2318 24.4785 13.7172 24.3322C13.7484 24.3228 13.7796 24.3133 13.8108 24.3008M8.96368 14.9881C8.96368 15.0274 8.96368 15.0651 8.96368 15.1028M16.0393 19.562C16.139 19.6917 16.2243 19.8319 16.2937 19.9802C16.8197 21.1039 16.3412 22.4441 15.2247 22.9735C15.2429 23.0353 15.2584 23.0979 15.2713 23.161C15.5194 24.3779 14.7405 25.5667 13.5314 25.8165M8.96681 25.1191C9.24692 26.4603 10.5543 27.3192 11.8869 27.0372C12.5862 26.8893 13.1873 26.4434 13.5346 25.8149" stroke="currentColor" stroke-width="0.75156" stroke-linecap="round" stroke-linejoin="round"/>
<path d="M7.68199 10.1676V17.2484V18.1335M7.68199 26.5418V18.1335M7.68199 18.1335L6.35435 19.745M5.02671 12.2217L6.35435 13.5494V17.5323M6.35435 17.5323L5.02671 16.2047H4.14161M6.35435 17.5323V18.8599M6.35435 18.8599V21.9578L5.02671 23.2854M6.35435 18.8599L4.14161 20.6301H2.55554" stroke="currentColor" stroke-width="0.75156" stroke-linecap="round" stroke-linejoin="round"/>
<circle cx="3.87549" cy="11.4952" r="0.951862" stroke="currentColor" stroke-width="0.75156"/>
<circle cx="2.81251" cy="15.9206" r="0.951862" stroke="currentColor" stroke-width="0.75156"/>
<circle cx="1.32752" cy="20.6297" r="0.951862" stroke="currentColor" stroke-width="0.75156"/>
<circle cx="3.87549" cy="23.5694" r="0.951862" stroke="currentColor" stroke-width="0.75156"/>
<path d="M8.21411 7.42351C8.36154 6.09379 8.91355 4.82858 9.80741 3.77164C10.7013 2.7147 11.9011 1.90841 13.2707 1.4444C14.6402 0.980388 16.1245 0.877253 17.5549 1.14672C18.9853 1.41618 20.3044 2.04743 21.3623 2.96875C22.4203 3.89007 23.1747 5.06451 23.5398 6.35861H24.7694C26.0634 6.35861 27.3044 6.82908 28.2195 7.66653C29.1345 8.50398 29.6486 9.6398 29.6486 10.8241C29.6486 12.0085 29.1345 13.1443 28.2195 13.9817C27.3044 14.8192 26.0634 15.2896 24.7694 15.2896H20.0416" stroke="url(#paint0_linear_444_6015)" stroke-width="1.36138" stroke-linecap="round" stroke-linejoin="round"/>
<defs>
<linearGradient id="paint0_linear_444_6015" x1="18.9132" y1="1" x2="18.9132" y2="15.2896" gradientUnits="userSpaceOnUse">
<stop stop-color="#718F9D"/>
<stop offset="1" stop-color="#7A9CFF" stop-opacity="0.58"/>
</linearGradient>
</defs>
</svg>
