<svg width="15" height="14" viewBox="0 0 15 14" fill="none" xmlns="http://www.w3.org/2000/svg">
<path d="M4.18673 6.11443V12.5791M4.18673 6.11443C4.22098 5.70586 4.487 4.99213 6.04299 6.06382M4.18673 6.11443C4.17962 6.19129 4.17962 6.26864 4.18673 6.3455M6.46425 7.16559C6.68972 6.84675 6.6157 6.40433 6.29893 6.17739C5.98215 5.95046 5.54258 6.02496 5.3171 6.34379C5.23209 6.46401 5.18647 6.60797 5.18664 6.75554M7.4146 8.60992C7.50003 8.41999 7.52548 8.20823 7.48748 8.00328C7.39585 7.51098 6.96472 7.15702 6.46715 7.16559C6.40919 7.16643 6.35139 7.17233 6.29444 7.18319C5.74031 7.28633 5.37419 7.82205 5.47665 8.37976C5.47692 8.38117 5.47718 8.38258 5.47745 8.38399M6.86217 10.3733C7.42802 10.2651 7.79953 9.7156 7.69195 9.14608C7.65403 8.94522 7.55863 8.75991 7.41751 8.61286M4.69398 8.81604C4.85894 9.26777 5.35651 9.49938 5.80534 9.33335C6.25416 9.16731 6.48427 8.66651 6.31931 8.21477C6.31785 8.21078 6.31635 8.20678 6.31484 8.2028C6.30755 8.18374 6.30026 8.16467 6.29152 8.14633M5.41039 9.37646C5.416 9.39938 5.42306 9.42192 5.43153 9.44394C5.55719 9.78116 5.93067 9.95198 6.26571 9.82549L6.266 9.82539C6.28063 9.82028 6.29499 9.8144 6.30901 9.80778M4.96217 12.3407C5.43554 12.4116 5.8764 12.0828 5.94685 11.6064C6.01487 11.1465 5.71251 10.7138 5.25952 10.6227C5.23913 10.6227 5.21872 10.6169 5.19831 10.6147M5.76605 12.0517C5.93436 12.2191 6.18001 12.2806 6.40667 12.2123C6.42124 12.2079 6.43582 12.2035 6.45039 12.1976M4.18673 7.8485C4.18673 7.86684 4.18673 7.88446 4.18673 7.90206M7.49112 9.98456C7.53769 10.0451 7.57754 10.1106 7.60996 10.1799C7.8556 10.7046 7.63211 11.3305 7.11069 11.5778C7.11919 11.6067 7.12646 11.6359 7.13247 11.6653C7.24835 12.2336 6.88456 12.7889 6.31993 12.9055M4.18819 12.5798C4.319 13.2062 4.92958 13.6073 5.55193 13.4756C5.87848 13.4065 6.1592 13.1982 6.32139 12.9048" stroke="#D4D6DB" stroke-width="0.316446" stroke-linecap="round" stroke-linejoin="round"/>
<path d="M3.58779 5.59708V8.90389V9.31724M3.58779 13.2441V9.31724M3.58779 9.31724L2.96776 10.0699M2.34773 6.55638L2.96776 7.17641V9.03649M2.96776 9.03649L2.34773 8.41647H1.93438M2.96776 9.03649V9.65652M2.96776 9.65652V11.1033L2.34773 11.7233M2.96776 9.65652L1.93438 10.4832H1.19366" stroke="#D4D6DB" stroke-width="0.316446" stroke-linecap="round" stroke-linejoin="round"/>
<circle cx="1.81009" cy="6.2171" r="0.461804" stroke="#D4D6DB" stroke-width="0.316446"/>
<circle cx="1.31363" cy="8.28382" r="0.461804" stroke="#D4D6DB" stroke-width="0.316446"/>
<circle cx="0.620149" cy="10.483" r="0.461804" stroke="#D4D6DB" stroke-width="0.316446"/>
<circle cx="1.81009" cy="11.8559" r="0.461804" stroke="#D4D6DB" stroke-width="0.316446"/>
<path d="M3.81061 3.6761C3.88351 3.01857 4.15647 2.39294 4.59847 1.8703C5.04048 1.34765 5.6338 0.948955 6.31101 0.719506C6.98823 0.490058 7.72219 0.439059 8.4295 0.572305C9.1368 0.705551 9.78909 1.0177 10.3122 1.47328C10.8354 1.92886 11.2084 2.5096 11.389 3.14952H11.997C12.6369 3.14952 13.2505 3.38216 13.703 3.79627C14.1555 4.21038 14.4097 4.77203 14.4097 5.35766C14.4097 5.9433 14.1555 6.50494 13.703 6.91905C13.2505 7.33316 12.6369 7.5658 11.997 7.5658H9.65914" stroke="url(#paint0_linear_6_1238)" stroke-width="0.68389" stroke-linecap="round" stroke-linejoin="round"/>
<defs>
<linearGradient id="paint0_linear_6_1238" x1="9.10115" y1="0.499756" x2="9.10115" y2="7.5658" gradientUnits="userSpaceOnUse">
<stop stop-color="#718F9D"/>
<stop offset="1" stop-color="#7A9CFF" stop-opacity="0.58"/>
</linearGradient>
</defs>
</svg>
