<svg width="30" height="31" viewBox="0 0 30 31" fill="none" xmlns="http://www.w3.org/2000/svg">
<path d="M13.8746 23.5538C14.2797 23.5516 14.6736 23.4208 14.9994 23.1802C15.3253 22.9396 15.5663 22.6017 15.6876 22.2153L16.4191 19.9378C16.5032 19.6772 16.6421 19.4395 16.8241 19.2429C17.3837 18.6367 17.8541 17.9539 18.2211 17.215H18.8172C19.0906 17.5926 19.4883 17.8733 19.9528 17.9977C20.2179 18.069 20.5178 18.069 20.8662 18.0681H21.0198C21.3672 18.0681 21.6689 18.0681 21.9322 17.9977C22.2809 17.9043 22.5989 17.7208 22.8542 17.4656C23.1095 17.2104 23.2932 16.8926 23.3868 16.5439C23.4582 16.2788 23.4572 15.9789 23.4572 15.6297V9.99217C23.4572 9.64475 23.4572 9.34303 23.3868 9.07972C23.2935 8.73102 23.11 8.41304 22.8548 8.15771C22.5996 7.90238 22.2818 7.71869 21.9331 7.62509C21.668 7.55377 21.3681 7.55469 21.0188 7.55469H20.8662C20.5187 7.55469 20.217 7.55469 19.9537 7.62509C19.4715 7.75408 19.0526 8.05401 18.7752 8.46897H12.7144C11.4883 8.46897 10.6518 8.522 9.98615 8.80452C9.41324 9.04871 8.91494 9.43978 8.54158 9.93823C8.11644 10.5033 7.91986 11.242 7.62821 12.3355L7.59164 12.4708L6.95895 14.6349L6.95164 14.6623C6.80535 15.1506 6.68284 15.5583 6.61335 15.8966C6.54112 16.2431 6.50638 16.5951 6.59872 16.9481C6.73312 17.4674 7.05586 17.9199 7.50569 18.2116C7.81564 18.4118 8.16124 18.4822 8.50958 18.5142C8.84512 18.5453 9.26204 18.5453 9.75666 18.5453H11.8614C11.374 20.0941 11.534 21.3485 11.7973 22.1814C12.1018 23.1487 13.0243 23.5547 13.828 23.5547L13.8746 23.5538ZM18.4278 9.83949V15.6306L18.4287 15.8436H17.348L17.0792 16.4251C16.7594 17.1159 16.3337 17.7526 15.8175 18.3122C15.4969 18.6574 15.2565 19.0692 15.1135 19.5181L14.382 21.7947C14.3497 21.9049 14.2831 22.0019 14.1918 22.0717C14.1006 22.1414 13.9894 22.1802 13.8746 22.1823H13.828C13.4166 22.1823 13.1752 21.9903 13.1048 21.7673C12.8799 21.055 12.7171 19.8015 13.4851 18.1476C13.5337 18.0431 13.5551 17.9281 13.5474 17.8132C13.5398 17.6982 13.5033 17.587 13.4414 17.4899C13.3794 17.3928 13.294 17.3128 13.193 17.2574C13.0919 17.2021 12.9786 17.173 12.8634 17.173H9.78775C9.25381 17.173 8.90089 17.173 8.63575 17.1483C8.37518 17.1236 8.28832 17.0825 8.25084 17.0587C8.08919 16.9522 7.97312 16.7891 7.92535 16.6015C7.91164 16.5485 7.90066 16.4397 7.95644 16.1718C8.01129 15.9012 8.11644 15.5501 8.27369 15.0253L8.27461 15.0207L8.91278 12.8393L8.91552 12.8319C9.26021 11.5401 9.39369 11.0857 9.63781 10.7611C9.87095 10.4521 10.1763 10.2125 10.5219 10.0662C10.895 9.90806 11.46 9.83949 12.7144 9.83949H18.4278ZM21.5775 16.6729C21.5125 16.6911 21.4129 16.6966 20.943 16.6966C20.4739 16.6966 20.3734 16.6911 20.3084 16.6729C20.1923 16.6417 20.0863 16.5805 20.0013 16.4954C19.9162 16.4104 19.855 16.3045 19.8239 16.1883C19.8056 16.1234 19.8001 16.0237 19.8001 15.5538V10.0681C19.8001 9.59903 19.8056 9.49846 19.823 9.43355C19.8541 9.31737 19.9153 9.21144 20.0004 9.12639C20.0854 9.04133 20.1913 8.98015 20.3075 8.94897C20.3734 8.93069 20.4739 8.9252 20.943 8.9252C21.412 8.9252 21.5125 8.93069 21.5775 8.94897C21.6936 8.98015 21.7996 9.04133 21.8846 9.12639C21.9697 9.21144 22.0309 9.31737 22.062 9.43355C22.0803 9.49846 22.0858 9.59812 22.0858 10.0681V15.5538C22.0858 16.0228 22.0794 16.1234 22.062 16.1883C22.0309 16.3045 21.9697 16.4104 21.8846 16.4954C21.7996 16.5805 21.6936 16.6417 21.5775 16.6729Z" fill="currentColor"/>
</svg>
