<svg width="30" height="31" viewBox="0 0 30 31" fill="none" xmlns="http://www.w3.org/2000/svg">
<path d="M16.1255 7.55469C15.7206 7.55702 15.3269 7.68792 15.0012 7.92849C14.6755 8.16906 14.4347 8.50687 14.3134 8.89319L13.5801 11.1706C13.4987 11.4294 13.3606 11.6667 13.176 11.8655C12.6164 12.4717 12.146 13.1545 11.779 13.8934H11.1829C10.9055 13.5094 10.5041 13.233 10.0465 13.1107C9.78225 13.0394 9.48237 13.0403 9.13403 13.0403H8.98043C8.633 13.0403 8.33129 13.0403 8.06798 13.1107C7.71929 13.2041 7.40131 13.3876 7.14599 13.6428C6.89066 13.8979 6.70697 14.2158 6.61337 14.5644C6.54205 14.8296 6.54297 15.1295 6.54297 15.4787V21.1171C6.54297 21.4645 6.54297 21.7662 6.61337 22.0295C6.70675 22.3782 6.89024 22.6962 7.14541 22.9515C7.40057 23.2068 7.71844 23.3905 8.06707 23.4841C8.33221 23.5554 8.63209 23.5554 8.98134 23.5545H9.13403C9.48145 23.5545 9.78316 23.5545 10.0465 23.4841C10.5287 23.3551 10.9475 23.0552 11.225 22.6402H17.2857C18.5118 22.6402 19.3483 22.5872 20.0139 22.3047C20.5868 22.0605 21.0851 21.6694 21.4585 21.171C21.8836 20.606 22.0802 19.8672 22.3718 18.7738L22.4084 18.6385L23.0402 16.4744L23.0493 16.4469C23.1956 15.9587 23.3172 15.5509 23.3876 15.2127C23.4589 14.8662 23.4936 14.5142 23.4013 14.1612C23.2674 13.6416 22.9438 13.1908 22.4943 12.8977C22.1844 12.6975 21.8388 12.6271 21.4905 12.5951C21.1549 12.564 20.738 12.564 20.2434 12.564H18.1387C18.626 11.0143 18.466 9.76083 18.2027 8.92793C17.8983 7.96063 16.9758 7.55469 16.1721 7.55469H16.1255ZM11.5724 21.2688V15.4778L11.5715 15.2648H12.6522L12.921 14.6833C13.2408 13.9924 13.6664 13.3558 14.1827 12.7962C14.5027 12.4515 14.7413 12.0392 14.8866 11.5903L15.6181 9.31375C15.6504 9.20354 15.717 9.1065 15.8083 9.03678C15.8995 8.96705 16.0107 8.92828 16.1255 8.9261H16.1721C16.5835 8.9261 16.8249 9.1181 16.8953 9.34118C17.1202 10.0534 17.283 11.3069 16.515 12.9608C16.4664 13.0653 16.445 13.1803 16.4527 13.2952C16.4603 13.4102 16.4968 13.5214 16.5587 13.6185C16.6207 13.7156 16.7061 13.7956 16.8071 13.8509C16.9081 13.9063 17.0215 13.9354 17.1367 13.9354H20.2123C20.7462 13.9354 21.0992 13.9354 21.3643 13.9601C21.6249 13.9848 21.7117 14.0259 21.7492 14.0497C21.9055 14.1503 22.0235 14.3121 22.0747 14.5068C22.0884 14.5599 22.0994 14.6687 22.0436 14.9365C21.9887 15.2072 21.8836 15.5583 21.7263 16.0831L21.7245 16.0876L21.0864 18.2691L21.0845 18.2764C20.7398 19.5683 20.6064 20.0227 20.3622 20.3472C20.1338 20.6526 19.8289 20.8923 19.4781 21.0421C19.1042 21.2003 18.5401 21.2688 17.2857 21.2688H11.5724ZM8.42272 14.4346C8.48763 14.4172 8.58729 14.4118 9.05723 14.4118C9.52625 14.4118 9.62682 14.4172 9.69173 14.4346C9.80791 14.4658 9.91384 14.527 9.99889 14.612C10.0839 14.6971 10.1451 14.803 10.1763 14.9192C10.1946 14.985 10.2001 15.0856 10.2001 15.5546V21.0403C10.2001 21.5093 10.1946 21.6098 10.1772 21.6748C10.146 21.7909 10.0849 21.8969 9.9998 21.9819C9.91475 22.067 9.80882 22.1282 9.69265 22.1593C9.62682 22.1776 9.52625 22.1831 9.05723 22.1831C8.5882 22.1831 8.48763 22.1776 8.42272 22.1593C8.30655 22.1282 8.20062 22.067 8.11556 21.9819C8.03051 21.8969 7.96933 21.7909 7.93815 21.6748C7.91987 21.6098 7.91438 21.5102 7.91438 21.0403V15.5546C7.91438 15.0856 7.92078 14.985 7.93815 14.9201C7.96933 14.8039 8.03051 14.698 8.11556 14.6129C8.20062 14.5279 8.30655 14.4667 8.42272 14.4355" fill="currentColor"/>
</svg>
