<svg width="19" height="19" viewBox="0 0 19 19" fill="none" xmlns="http://www.w3.org/2000/svg">
<g clip-path="url(#clip0_1956_117880)">
<path d="M17.1865 9.5C17.1865 5.35775 13.8288 2 9.68652 2C5.54427 2 2.18652 5.35775 2.18652 9.5C2.18652 13.6422 5.54427 17 9.68652 17" stroke="currentColor" stroke-width="1.125" stroke-linecap="round" stroke-linejoin="round"/>
<path d="M10.4367 2.03906C10.4367 2.03906 12.6867 5.00156 12.6867 9.50156M8.93668 16.9641C8.93668 16.9641 6.68668 14.0016 6.68668 9.50156C6.68668 5.00156 8.93668 2.03906 8.93668 2.03906M2.65918 12.1266H9.68668M2.65918 6.87656H16.7142M14.9367 13.6266V14.7516H16.0617" stroke="currentColor" stroke-width="1.125" stroke-linecap="round" stroke-linejoin="round"/>
<path d="M14.9365 17.75C15.7322 17.75 16.4952 17.4339 17.0578 16.8713C17.6205 16.3087 17.9365 15.5456 17.9365 14.75C17.9365 13.9544 17.6205 13.1913 17.0578 12.6287C16.4952 12.0661 15.7322 11.75 14.9365 11.75C14.1409 11.75 13.3778 12.0661 12.8152 12.6287C12.2526 13.1913 11.9365 13.9544 11.9365 14.75C11.9365 15.5456 12.2526 16.3087 12.8152 16.8713C13.3778 17.4339 14.1409 17.75 14.9365 17.75Z" stroke="currentColor" stroke-width="1.125" stroke-linecap="round" stroke-linejoin="round"/>
</g>
<defs>
<clipPath id="clip0_1956_117880">
<rect width="18" height="18" fill="white" transform="translate(0.686523 0.5)"/>
</clipPath>
</defs>
</svg>
