<svg width="20" height="20" viewBox="0 0 20 20" fill="none" xmlns="http://www.w3.org/2000/svg">
<path d="M9.72124 1.07419C9.80622 1.02565 9.90238 1.00012 10.0002 1.00012C10.0981 1.00012 10.1943 1.02565 10.2792 1.07419L14.498 3.48512C14.5841 3.53429 14.6557 3.60536 14.7054 3.6911C14.7552 3.77684 14.7815 3.87422 14.7815 3.97338V8.46784L18.7167 10.7179C18.8025 10.7669 18.8739 10.8376 18.9236 10.9229C18.9734 11.0082 18.9998 11.1051 19.0002 11.2039V16.0257C19.0002 16.1249 18.974 16.2223 18.9242 16.308C18.8744 16.3938 18.8028 16.4648 18.7167 16.514L14.498 18.9249C14.413 18.9735 14.3169 18.999 14.219 18.999C14.1211 18.999 14.025 18.9735 13.94 18.9249L10.0002 16.6749L6.06049 18.9261C5.97552 18.9746 5.87935 19.0001 5.78149 19.0001C5.68363 19.0001 5.58747 18.9746 5.50249 18.9261L1.28374 16.5151C1.19765 16.466 1.12609 16.3949 1.0763 16.3091C1.02651 16.2234 1.00028 16.126 1.00024 16.0269V11.205C1.00028 11.1059 1.02651 11.0085 1.0763 10.9227C1.12609 10.837 1.19765 10.7659 1.28374 10.7168L5.21899 8.46784V3.97338C5.21903 3.87422 5.24526 3.77684 5.29505 3.6911C5.34484 3.60536 5.4164 3.53429 5.50249 3.48512L9.72124 1.07419ZM5.78149 9.44211L2.69674 11.205L5.78149 12.9679L8.86624 11.205L5.78149 9.44211ZM9.43774 12.1748L6.34399 13.9422V17.468L9.43774 15.7006V12.1748ZM10.5627 15.7006L13.6565 17.468V13.9422L10.5627 12.1748V15.7006ZM11.1342 11.205L14.219 12.9679L17.3037 11.205L14.219 9.44211L11.1342 11.205ZM13.6565 8.46784V4.94202L10.5627 6.71056V10.2364L13.6565 8.46784ZM9.43774 10.2364V6.71056L6.34399 4.94202V8.46784L9.43774 10.2364ZM6.91549 3.97338L10.0002 5.73629L13.085 3.97338L10.0002 2.21046L6.91549 3.97338ZM17.8752 12.1748L14.7815 13.9422V17.468L17.8752 15.7006V12.1748ZM5.21899 17.468V13.9422L2.12524 12.1748V15.7006L5.21899 17.468Z" fill="currentColor"/>
</svg>
