<svg width="20" height="20" viewBox="0 0 20 20" fill="none" xmlns="http://www.w3.org/2000/svg">
<path fill-rule="evenodd" clip-rule="evenodd" d="M9.20099 5.99895C10.2519 5.88839 11.3051 6.10216 12.283 6.62043C13.2602 7.13839 14.1336 7.94513 14.8444 8.97334C15.1233 9.37684 15.0819 9.98042 14.7519 10.3215C14.4219 10.6625 13.9283 10.6119 13.6493 10.2084C13.0859 9.39325 12.4053 8.7705 11.6606 8.37584C10.9166 7.98149 10.123 7.82223 9.33513 7.90513C8.54707 7.98804 7.77652 8.31203 7.07895 8.86162C6.38083 9.41165 5.77153 10.1755 5.30041 11.1057C5.07291 11.5549 4.5907 11.6935 4.22334 11.4154C3.85599 11.1372 3.74261 10.5476 3.97011 10.0984C4.55685 8.93994 5.32731 7.96568 6.23142 7.25336C7.13608 6.5406 8.15032 6.10949 9.20099 5.99895Z" fill="currentColor"/>
<path fill-rule="evenodd" clip-rule="evenodd" d="M4.69157 2.9572C6.32468 2.00237 8.14596 1.5 10 1.5C11.854 1.5 13.6753 2.00237 15.3084 2.9572C16.9407 3.91154 18.3338 5.2876 19.3768 6.96033C19.6157 7.34339 19.4967 7.84626 19.111 8.08351C18.7254 8.32077 18.2191 8.20256 17.9803 7.8195C17.0691 6.35821 15.8643 5.1756 14.4751 4.3634C13.0868 3.55169 11.5521 3.13171 10 3.13171C8.44787 3.13171 6.91318 3.55169 5.52486 4.3634C4.13569 5.1756 2.93092 6.35821 2.01975 7.8195C1.78089 8.20256 1.27464 8.32077 0.888989 8.08351C0.503342 7.84626 0.384343 7.34339 0.623197 6.96033C1.66621 5.2876 3.0593 3.91154 4.69157 2.9572Z" fill="currentColor"/>
</svg>
