<svg width="9" height="12" viewBox="0 0 9 12" fill="none" xmlns="http://www.w3.org/2000/svg">
<path d="M2.799 11.3007L1.09929 9.60096L8.67857 9.60096C8.76382 9.60096 8.84558 9.5671 8.90586 9.50682C8.96614 9.44654 9 9.36478 9 9.27953C9 9.19428 8.96614 9.11253 8.90586 9.05225C8.84558 8.99197 8.76382 8.9581 8.67857 8.9581L1.09607 8.9581L2.79964 7.25517C2.85991 7.19482 2.89374 7.11299 2.89368 7.0277C2.89362 6.9424 2.85968 6.86062 2.79932 6.80035C2.73897 6.74008 2.65714 6.70626 2.57184 6.70632C2.48655 6.70638 2.40477 6.74032 2.3445 6.80067L0.100929 9.04425L0.0945001 9.05067C0.0645542 9.08053 0.0407927 9.11599 0.0245767 9.15505C0.00836077 9.1941 8.9977e-06 9.23596 3.91696e-08 9.27825L3.91543e-08 9.27953C-1.07736e-05 9.32649 0.0102893 9.37288 0.0301727 9.41543C0.0500562 9.45797 0.079038 9.49563 0.115071 9.52575L2.3445 11.7558C2.37438 11.7857 2.40986 11.8093 2.44889 11.8255C2.48792 11.8416 2.52974 11.8499 2.57198 11.8499C2.61421 11.8498 2.65603 11.8415 2.69503 11.8253C2.73404 11.8091 2.76948 11.7854 2.79932 11.7555C2.82916 11.7256 2.85283 11.6901 2.86896 11.6511C2.8851 11.6121 2.89339 11.5703 2.89336 11.528C2.89333 11.4858 2.88498 11.444 2.86879 11.405C2.8526 11.366 2.82889 11.3305 2.799 11.3007ZM6.201 1.46946L7.90071 3.16917L0.321429 3.16917C0.236181 3.16917 0.154424 3.20304 0.0941444 3.26332C0.0338649 3.3236 1.09203e-07 3.40535 1.08187e-07 3.4906C1.0717e-07 3.57585 0.0338649 3.65761 0.0941444 3.71789C0.154424 3.77817 0.236181 3.81203 0.321429 3.81203L7.90393 3.81203L6.20036 5.5156C6.17051 5.54549 6.14685 5.58096 6.13071 5.61999C6.11458 5.65902 6.10629 5.70085 6.10632 5.74308C6.10638 5.82838 6.14032 5.91015 6.20068 5.97042C6.26103 6.0307 6.34286 6.06452 6.42816 6.06446C6.51345 6.0644 6.59523 6.03046 6.6555 5.9701L8.89907 3.72653L8.9055 3.7201C8.93547 3.69013 8.95923 3.65455 8.97545 3.6154C8.99166 3.57624 9.00001 3.53427 9 3.49189L9 3.4906C8.99997 3.44365 8.98965 3.39727 8.96977 3.35474C8.94989 3.3122 8.92093 3.27453 8.88493 3.24439L6.6555 1.01496C6.62585 0.984261 6.59038 0.959773 6.55117 0.942927C6.51195 0.926082 6.46977 0.917214 6.42709 0.916843C6.38441 0.916473 6.34209 0.924606 6.30259 0.940768C6.26308 0.95693 6.2272 0.980797 6.19702 1.01098C6.16684 1.04116 6.14297 1.07704 6.12681 1.11655C6.11065 1.15605 6.10251 1.19837 6.10288 1.24105C6.10325 1.28373 6.11212 1.32591 6.12897 1.36513C6.14581 1.40434 6.1703 1.43981 6.201 1.46946Z" fill="currentColor"/>
</svg>
