<svg width="18" height="18" viewBox="0 0 18 18" fill="none" xmlns="http://www.w3.org/2000/svg">
<g opacity="1">
<path d="M9.74585 2.50949V14.3522M9.74585 2.50949C9.8086 1.761 10.2959 0.453506 13.1464 2.41677M9.74585 2.50949C9.73283 2.65028 9.73283 2.79199 9.74585 2.93278M13.9181 4.43513C14.3311 3.85105 14.1955 3.04055 13.6153 2.62483C13.0349 2.2091 12.2297 2.34558 11.8166 2.92965C11.6609 3.1499 11.5773 3.41361 11.5776 3.68396M15.6591 7.08104C15.8156 6.7331 15.8622 6.34518 15.7926 5.96972C15.6247 5.06787 14.8349 4.41943 13.9234 4.43513C13.8172 4.43667 13.7114 4.44748 13.607 4.46738C12.5919 4.65633 11.9212 5.63772 12.1089 6.6594C12.1094 6.662 12.1099 6.66456 12.1104 6.66716M14.6471 10.3115C15.6837 10.1131 16.3643 9.10656 16.1672 8.06324C16.0977 7.69529 15.9229 7.35581 15.6644 7.08642M10.6751 7.45865C10.9773 8.28617 11.8888 8.71048 12.711 8.40632C13.5332 8.10214 13.9548 7.18471 13.6526 6.35716C13.6499 6.34985 13.6472 6.34251 13.6444 6.33522C13.631 6.30031 13.6177 6.26537 13.6017 6.23178M11.9875 8.48529C11.9978 8.52727 12.0107 8.56857 12.0262 8.60891C12.2564 9.22666 12.9406 9.53959 13.5544 9.30788L13.5549 9.30769C13.5817 9.29832 13.608 9.28757 13.6337 9.27544M11.1664 13.9155C12.0336 14.0454 12.8412 13.4432 12.9703 12.5704C13.0949 11.7279 12.541 10.9352 11.7111 10.7684C11.6738 10.7684 11.6364 10.7576 11.599 10.7536M12.639 13.386C12.9474 13.6927 13.3974 13.8056 13.8126 13.6803C13.8393 13.6723 13.866 13.6642 13.8927 13.6535M9.74585 5.68618C9.74585 5.71977 9.74585 5.75205 9.74585 5.7843M15.7993 9.59928C15.8846 9.71021 15.9576 9.83016 16.017 9.95705C16.467 10.9184 16.0575 12.065 15.1023 12.518C15.1179 12.5708 15.1312 12.6244 15.1422 12.6784C15.3545 13.7194 14.6881 14.7366 13.6537 14.9502M9.74852 14.3536C9.98816 15.501 11.1067 16.2358 12.2468 15.9946C12.845 15.868 13.3593 15.4865 13.6564 14.9489" stroke="currentColor" stroke-opacity="1" stroke-width="0.8" stroke-linecap="round" stroke-linejoin="round"/>
<path d="M8.64978 1.56226V7.6201V8.37733M8.64978 15.571V8.37733M8.64978 8.37733L7.51393 9.7561M6.37809 3.31964L7.51393 4.45548V7.86302M7.51393 7.86302L6.37809 6.72717H5.62086M7.51393 7.86302V8.99887M7.51393 8.99887V11.6492L6.37809 12.785M7.51393 8.99887L5.62086 10.5133H4.26392" stroke="currentColor" stroke-opacity="1" stroke-width="0.8" stroke-linecap="round" stroke-linejoin="round"/>
<circle cx="5.39268" cy="2.6981" r="0.735845" stroke="currentColor" stroke-opacity="1" stroke-width="0.8"/>
<circle cx="4.48326" cy="6.48423" r="0.735845" stroke="currentColor" stroke-opacity="1" stroke-width="0.8"/>
<circle cx="3.21299" cy="10.5133" r="0.735845" stroke="currentColor" stroke-opacity="1" stroke-width="0.8"/>
<circle cx="5.39268" cy="13.0279" r="0.735845" stroke="currentColor" stroke-opacity="1" stroke-width="0.8"/>
</g>
</svg>
