<svg width="30" height="30" viewBox="0 0 30 30" fill="none" xmlns="http://www.w3.org/2000/svg">
<path d="M14.9918 2.06846C15.4283 2.06846 15.8581 2.09598 16.258 2.16072C16.6517 2.21086 17.0403 2.29427 17.4191 2.41C17.799 2.52169 18.1705 2.66089 18.542 2.83571C18.9035 3.00243 19.275 3.20638 19.6465 3.42814C20.2746 3.81662 20.8927 4.13064 21.5224 4.38153C22.7621 4.86362 24.0731 5.1505 25.4058 5.23133C26.0822 5.27827 26.7769 5.30579 27.4999 5.30579V11.7805C27.4999 13.0106 27.3383 14.1761 27.0151 15.2865C26.7047 16.381 26.2635 17.4366 25.7007 18.4315C25.1402 19.4251 24.4771 20.3607 23.7215 21.2237C22.9544 22.1064 22.1237 22.9351 21.2359 23.7035C20.3363 24.4742 19.3888 25.1905 18.3987 25.8483C17.4091 26.5152 16.4096 27.1351 15.41 27.6984L15.0101 27.9299L14.6103 27.6984C13.5827 27.1204 12.579 26.5032 11.6016 25.8483C10.606 25.1979 9.65799 24.4813 8.76442 23.7035C7.87711 22.9351 7.04703 22.1064 6.28046 21.2237C5.52693 20.357 4.86081 19.422 4.29129 18.4315C3.73807 17.4321 3.29737 16.3777 2.97684 15.2865C2.65159 14.1449 2.49123 12.9649 2.50037 11.7805V5.30579C3.22507 5.30579 3.91978 5.27827 4.59616 5.23133C5.26199 5.1864 5.9235 5.09388 6.57534 4.95454C7.2134 4.81534 7.85147 4.63081 8.47954 4.38153C9.13127 4.12597 9.75613 3.80995 10.3454 3.43785C11.0785 2.97491 11.8215 2.63337 12.5545 2.40838C13.344 2.17324 14.1662 2.05857 14.9918 2.06846ZM25.824 6.89694C24.5629 6.83749 23.3135 6.63264 22.1022 6.2867C20.8973 5.93748 19.7496 5.42354 18.6936 4.7603C18.1459 4.41099 17.551 4.13699 16.926 3.94611C16.3017 3.76277 15.6524 3.67218 15.0002 3.67741C14.3431 3.67328 13.689 3.76384 13.0593 3.94611C12.4333 4.13079 11.8393 4.40521 11.2967 4.7603C10.2389 5.42715 9.08825 5.94335 7.87979 6.29318C6.69862 6.62662 5.46247 6.83057 4.16634 6.90503V11.7885C4.16634 12.8617 4.30961 13.888 4.59616 14.877C4.88808 15.8574 5.29035 16.8035 5.79566 17.6983C6.30703 18.6024 6.90975 19.4548 7.59491 20.2428C8.28962 21.0376 9.03098 21.7773 9.83064 22.4798C10.6303 23.1839 11.4683 23.8314 12.3446 24.4319C13.2292 25.0341 14.1155 25.5796 15.0002 26.0781C15.906 25.5658 16.7892 25.0165 17.6474 24.4319C18.5295 23.8333 19.3719 23.1813 20.1697 22.4798C20.9693 21.7773 21.7124 21.0376 22.4071 20.2428C23.0923 19.4548 23.695 18.6024 24.2063 17.6983C24.7094 16.8046 25.1057 15.8581 25.3875 14.877C25.6827 13.8728 25.8297 12.8329 25.824 11.7885V6.89694Z" fill="currentColor"/>
<path fill-rule="evenodd" clip-rule="evenodd" d="M19.4772 18.3555L19.1322 18.0692L18.8138 18.0957L15.3951 21.9957L14.2307 20.3896L13.9171 20.3381L13.554 20.5889L13.4999 20.8919L14.9968 22.9571L15.167 23.048L15.5253 23.0692L15.7088 22.9919L19.4999 18.6624L19.4772 18.3555Z" fill="currentColor"/>
<path d="M11.0512 8.98325H12.1498V13.2591C12.1498 13.7455 12.0444 14.1527 11.8334 14.4808C11.6225 14.8089 11.3354 15.0565 10.9721 15.2235C10.6118 15.3875 10.2089 15.4696 9.76361 15.4696C9.30365 15.4696 8.89349 15.3875 8.53314 15.2235C8.17279 15.0565 7.88861 14.8089 7.6806 14.4808C7.47552 14.1527 7.37298 13.7455 7.37298 13.2591V8.98325H8.47161V13.2591C8.47161 13.5667 8.52435 13.8202 8.62982 14.0194C8.73529 14.2157 8.8847 14.3607 9.07806 14.4544C9.27142 14.5482 9.49994 14.5951 9.76361 14.5951C10.0273 14.5951 10.2543 14.5482 10.4448 14.4544C10.6381 14.3607 10.7875 14.2157 10.893 14.0194C10.9985 13.8202 11.0512 13.5667 11.0512 13.2591V8.98325Z" fill="currentColor"/>
<path d="M13.3495 8.98325H15.6127C16.0991 8.98325 16.5136 9.05649 16.8564 9.20297C17.1992 9.34946 17.4614 9.56626 17.643 9.85336C17.8276 10.1375 17.9199 10.4891 17.9199 10.9081C17.9199 11.2274 17.8613 11.5086 17.7441 11.7518C17.6269 11.995 17.4614 12.2 17.2475 12.367C17.0336 12.5311 16.7787 12.6585 16.4828 12.7494L16.1489 12.912H14.1142L14.1054 12.0374H15.6303C15.894 12.0374 16.1137 11.9906 16.2895 11.8968C16.4653 11.8031 16.5971 11.6756 16.685 11.5145C16.7758 11.3504 16.8212 11.1659 16.8212 10.9608C16.8212 10.7381 16.7773 10.5448 16.6894 10.3807C16.6044 10.2137 16.4726 10.0863 16.2939 9.99838C16.1152 9.90756 15.8881 9.86215 15.6127 9.86215H14.4526V15.3817H13.3495V8.98325ZM17.0014 15.3817L15.4985 12.5077L16.6542 12.5033L18.1791 15.3246V15.3817H17.0014Z" fill="currentColor"/>
<path d="M23.0263 14.5072V15.3817H19.8139V14.5072H23.0263ZM20.1215 8.98325V15.3817H19.0185V8.98325H20.1215Z" fill="currentColor"/>
</svg>
