<svg width="226" height="226" viewBox="0 0 226 226" fill="none" xmlns="http://www.w3.org/2000/svg">
<path d="M16.3682 40.3979C16.3682 35.289 18.3977 30.3894 22.0102 26.7768C25.6228 23.1643 30.5225 21.1348 35.6314 21.1348H189.737C194.846 21.1348 199.746 23.1643 203.358 26.7768C206.971 30.3894 209 35.289 209 40.3979V146.345C209 151.454 206.971 156.354 203.358 159.966C199.746 163.579 194.846 165.608 189.737 165.608L121.5 165.608V188L151.211 188C153.765 188 156.215 189.015 158.021 190.821C159.828 192.627 159.5 193.735 159.5 196.289C159.5 198.844 159.828 199.507 158.021 201.314C156.215 203.12 153.765 204.135 151.211 204.135H74.1578C71.6034 204.135 69.1535 203.12 67.3473 201.314C65.541 199.507 65.8686 198.844 65.8686 196.289C65.8686 193.735 65.541 192.627 67.3473 190.821C69.1535 189.015 71.6034 188 74.1578 188L104.875 188V165.608L35.6314 165.608C30.5225 165.608 25.6228 163.579 22.0102 159.966C18.3977 156.354 16.3682 151.454 16.3682 146.345V40.3979ZM195.135 151.743V35L30.2335 35L30.2335 151.743L195.135 151.743Z" fill="url(#paint0_linear_345_4512)"/>
<g opacity="0.08">
<path d="M80.5151 81.2612C78.0438 90.4662 69.5909 97.2715 59.6337 97.2715C47.7065 97.2357 38 87.565 38 75.6378C38 65.6448 44.8053 57.2277 54.0103 54.7563C53.7596 55.7234 53.9029 55.0787 53.8671 75.6378C53.8671 78.7898 56.4459 81.3686 59.5978 81.3686C80.0495 81.3328 79.5123 81.4402 80.5151 81.2612Z" fill="black"/>
<path d="M81.2315 75.6379C81.2315 76.6766 80.3719 77.5362 79.3332 77.5362H59.6337C58.595 77.5362 57.7353 76.6766 57.7353 75.6379V55.9384C57.7353 54.8638 58.595 54.04 59.6337 54.04C71.5608 54.04 81.2315 63.7107 81.2315 75.6379ZM79.3332 108.841H39.8983C38.8596 108.841 38 107.981 38 106.942C38 105.904 38.8596 105.044 39.8983 105.044H79.3332C80.3719 105.044 81.2315 105.904 81.2315 106.942C81.2315 107.981 80.3719 108.841 79.3332 108.841ZM79.3332 120.087H39.8983C38.8596 120.087 38 119.228 38 118.189C38 117.15 38.8596 116.291 39.8983 116.291H79.3332C80.3719 116.291 81.2315 117.15 81.2315 118.189C81.2315 119.263 80.3719 120.087 79.3332 120.087ZM79.3332 131.37H39.8983C38.8596 131.37 38 130.51 38 129.471C38 128.433 38.8596 127.573 39.8983 127.573H79.3332C80.3719 127.573 81.2315 128.433 81.2315 129.471C81.2315 130.51 80.3719 131.37 79.3332 131.37ZM116.225 99.5638V127.537C116.225 129.65 114.506 131.37 112.393 131.37H104.441C102.328 131.37 100.609 129.65 100.609 127.537V99.5638C100.609 97.4506 102.292 95.7314 104.441 95.7314H112.393C114.506 95.7314 116.225 97.4506 116.225 99.5638ZM139.829 79.8643V127.537C139.829 129.65 138.109 131.37 135.996 131.37H128.045C125.931 131.37 124.212 129.65 124.212 127.537V79.8643C124.212 77.7511 125.896 76.0319 128.045 76.0319H135.996C138.109 76.0319 139.829 77.7511 139.829 79.8643ZM163.396 99.5638V127.537C163.396 129.65 161.677 131.37 159.564 131.37H151.577C149.463 131.37 147.744 129.65 147.744 127.537V99.5638C147.744 97.4506 149.463 95.7314 151.577 95.7314H159.564C161.677 95.7314 163.396 97.4506 163.396 99.5638ZM187 87.8874V127.537C187 129.65 185.281 131.37 183.168 131.37H175.18C173.067 131.37 171.348 129.65 171.348 127.537V87.8874C171.348 85.7742 173.067 84.0549 175.18 84.0549H183.168C185.281 84.0549 187 85.7742 187 87.8874Z" fill="black"/>
<path d="M155.588 85.8813C155.051 85.8813 154.513 85.6306 154.119 85.2008L131.841 58.6959L109.742 80.0431C108.989 80.7594 107.772 80.7594 107.055 80.0072C106.339 79.2551 106.339 78.0373 107.091 77.3209L130.695 54.5411C131.089 54.183 131.59 53.9681 132.127 54.0039C132.665 54.0397 133.166 54.2904 133.489 54.6844L155.946 81.4041L178.117 65.752C178.976 65.1431 180.158 65.358 180.767 66.2176C181.376 67.0772 181.161 68.2592 180.302 68.8681L156.698 85.5589C156.376 85.7738 155.982 85.8813 155.588 85.8813Z" fill="black"/>
</g>
<path fill-rule="evenodd" clip-rule="evenodd" d="M112.499 69.7994C106.214 69.7994 100.186 72.2964 95.741 76.741C91.2964 81.1856 88.7994 87.2138 88.7994 93.4994C88.7994 99.785 91.2964 105.813 95.741 110.258C100.186 114.702 106.214 117.199 112.499 117.199C118.785 117.199 124.813 114.702 129.258 110.258C133.702 105.813 136.199 99.785 136.199 93.4994C136.199 87.2138 133.702 81.1856 129.258 76.741C124.813 72.2964 118.785 69.7994 112.499 69.7994ZM80.8994 93.4994C80.8994 85.1186 84.2287 77.081 90.1548 71.1548C96.081 65.2287 104.119 61.8994 112.499 61.8994C120.88 61.8994 128.918 65.2287 134.844 71.1548C140.77 77.081 144.099 85.1186 144.099 93.4994C144.099 101.88 140.77 109.918 134.844 115.844C128.918 121.77 120.88 125.099 112.499 125.099C104.119 125.099 96.081 121.77 90.1548 115.844C84.2287 109.918 80.8994 101.88 80.8994 93.4994Z" fill="url(#paint1_linear_345_4512)"/>
<path fill-rule="evenodd" clip-rule="evenodd" d="M112.499 69.7994C106.214 69.7994 100.186 72.2964 95.741 76.741C91.2964 81.1856 88.7994 87.2138 88.7994 93.4994C88.7994 99.785 91.2964 105.813 95.741 110.258C100.186 114.702 106.214 117.199 112.499 117.199C118.785 117.199 124.813 114.702 129.258 110.258C133.702 105.813 136.199 99.785 136.199 93.4994C136.199 87.2138 133.702 81.1856 129.258 76.741C124.813 72.2964 118.785 69.7994 112.499 69.7994ZM80.8994 93.4994C80.8994 85.1186 84.2287 77.081 90.1548 71.1548C96.081 65.2287 104.119 61.8994 112.499 61.8994C120.88 61.8994 128.918 65.2287 134.844 71.1548C140.77 77.081 144.099 85.1186 144.099 93.4994C144.099 101.88 140.77 109.918 134.844 115.844C128.918 121.77 120.88 125.099 112.499 125.099C104.119 125.099 96.081 121.77 90.1548 115.844C84.2287 109.918 80.8994 101.88 80.8994 93.4994Z" fill="#BD1E35"/>
<path fill-rule="evenodd" clip-rule="evenodd" d="M134.845 71.1526C135.586 71.8933 136.002 72.8979 136.002 73.9453C136.002 74.9927 135.586 75.9972 134.845 76.7379L95.74 115.843C94.995 116.562 93.9973 116.961 92.9616 116.952C91.9259 116.943 90.9352 116.527 90.2028 115.795C89.4705 115.062 89.055 114.072 89.046 113.036C89.037 112 89.4352 111.003 90.1547 110.258L129.26 71.1526C130 70.4121 131.005 69.9961 132.052 69.9961C133.1 69.9961 134.104 70.4121 134.845 71.1526Z" fill="url(#paint2_linear_345_4512)"/>
<path fill-rule="evenodd" clip-rule="evenodd" d="M134.845 71.1526C135.586 71.8933 136.002 72.8979 136.002 73.9453C136.002 74.9927 135.586 75.9972 134.845 76.7379L95.74 115.843C94.995 116.562 93.9973 116.961 92.9616 116.952C91.9259 116.943 90.9352 116.527 90.2028 115.795C89.4705 115.062 89.055 114.072 89.046 113.036C89.037 112 89.4352 111.003 90.1547 110.258L129.26 71.1526C130 70.4121 131.005 69.9961 132.052 69.9961C133.1 69.9961 134.104 70.4121 134.845 71.1526Z" fill="#BD1E35"/>
<defs>
<linearGradient id="paint0_linear_345_4512" x1="41.7451" y1="176.83" x2="169.423" y2="35.6775" gradientUnits="userSpaceOnUse">
<stop offset="0.1" stop-color="#BD1E35"/>
<stop offset="0.333333" stop-color="#8C3D5B"/>
<stop offset="0.520833" stop-color="#784A6A"/>
<stop offset="0.666667" stop-color="#61597C"/>
<stop offset="0.796875" stop-color="#556086"/>
<stop offset="1" stop-color="#38729B"/>
</linearGradient>
<linearGradient id="paint1_linear_345_4512" x1="89.2252" y1="115.669" x2="133.488" y2="69.182" gradientUnits="userSpaceOnUse">
<stop offset="0.1" stop-color="#BD1E35"/>
<stop offset="0.333333" stop-color="#8C3D5B"/>
<stop offset="0.520833" stop-color="#784A6A"/>
<stop offset="0.666667" stop-color="#61597C"/>
<stop offset="0.796875" stop-color="#556086"/>
<stop offset="1" stop-color="#38729B"/>
</linearGradient>
<linearGradient id="paint2_linear_345_4512" x1="95.2317" y1="109.946" x2="128.118" y2="75.4068" gradientUnits="userSpaceOnUse">
<stop offset="0.1" stop-color="#BD1E35"/>
<stop offset="0.333333" stop-color="#8C3D5B"/>
<stop offset="0.520833" stop-color="#784A6A"/>
<stop offset="0.666667" stop-color="#61597C"/>
<stop offset="0.796875" stop-color="#556086"/>
<stop offset="1" stop-color="#38729B"/>
</linearGradient>
</defs>
</svg>
