<svg width="163" height="160" viewBox="0 0 163 160" fill="none" xmlns="http://www.w3.org/2000/svg">
<path d="M28.2735 8.95029L30.5108 8.19646C31.3613 7.9159 32.1342 7.43859 32.7673 6.80298C33.4004 6.16738 33.8759 5.39127 34.1556 4.53723L34.9086 2.26366C34.9334 2.18701 34.9817 2.12023 35.0466 2.07287C35.1116 2.02551 35.1898 2 35.27 2C35.3503 2 35.4285 2.02551 35.4934 2.07287C35.5583 2.12023 35.6067 2.18701 35.6315 2.26366L36.3845 4.53723C36.6643 5.38337 37.1371 6.15218 37.765 6.78243C38.393 7.41268 39.1588 7.88695 40.0015 8.16747L42.2665 8.92251C42.3418 8.94832 42.4072 8.99714 42.4535 9.06213C42.4998 9.12712 42.5247 9.20502 42.5247 9.28493C42.5247 9.36483 42.4998 9.44273 42.4535 9.50772C42.4072 9.57271 42.3418 9.62153 42.2665 9.64734L40.0292 10.4314C39.1869 10.7127 38.4216 11.1873 37.7937 11.8174C37.1659 12.4476 36.6929 13.2159 36.4121 14.0616L35.6603 16.334C35.6355 16.4106 35.5872 16.4774 35.5223 16.5248C35.4573 16.5721 35.3791 16.5976 35.2989 16.5976C35.2186 16.5976 35.1404 16.5721 35.0755 16.5248C35.0106 16.4774 34.9622 16.4106 34.9374 16.334L34.1556 14.0894C33.8766 13.2351 33.4013 12.4588 32.7681 11.8233C32.1349 11.1878 31.3616 10.711 30.5108 10.4314L28.2446 9.67634C28.1702 9.64764 28.1066 9.59625 28.0628 9.52937C28.019 9.4625 27.9971 9.38352 28.0003 9.30353C28.0035 9.22353 28.0316 9.14655 28.0806 9.08341C28.1296 9.02027 28.197 8.97293 28.2735 8.95029Z" stroke="currentColor" stroke-width="3" stroke-linecap="round" stroke-linejoin="round"/>
<path d="M2.49727 24.6369L6.56517 23.2663C8.11147 22.7562 9.51679 21.8883 10.6679 20.7327C11.8189 19.5771 12.6835 18.166 13.1919 16.6132L14.561 12.4794C14.6061 12.34 14.694 12.2186 14.8121 12.1325C14.9301 12.0464 15.0723 12 15.2182 12C15.3641 12 15.5063 12.0464 15.6243 12.1325C15.7424 12.2186 15.8303 12.34 15.8754 12.4794L17.2445 16.6132C17.7534 18.1516 18.6129 19.5494 19.7546 20.6953C20.8964 21.8412 22.2888 22.7035 23.8209 23.2136L27.9392 24.5864C28.076 24.6333 28.1949 24.7221 28.2791 24.8402C28.3632 24.9584 28.4085 25.1 28.4085 25.2453C28.4085 25.3906 28.3632 25.5322 28.2791 25.6504C28.1949 25.7686 28.076 25.8573 27.9392 25.9043L23.8713 27.3298C22.3399 27.8413 20.9483 28.7042 19.8068 29.8499C18.6652 30.9956 17.8052 32.3926 17.2948 33.9302L15.9279 38.0618C15.8828 38.2011 15.7949 38.3226 15.6768 38.4087C15.5588 38.4948 15.4166 38.5412 15.2707 38.5412C15.1248 38.5412 14.9826 38.4948 14.8646 38.4087C14.7465 38.3226 14.6586 38.2011 14.6135 38.0618L13.1919 33.9807C12.6848 32.4275 11.8206 31.016 10.6693 29.8606C9.51805 28.7051 8.11206 27.8381 6.56517 27.3298L2.44478 25.957C2.30948 25.9048 2.19386 25.8114 2.11418 25.6898C2.0345 25.5682 1.99476 25.4246 2.00055 25.2791C2.00635 25.1337 2.05738 24.9937 2.14647 24.8789C2.23557 24.7641 2.35825 24.6781 2.49727 24.6369Z" stroke="currentColor" stroke-width="3" stroke-linecap="round" stroke-linejoin="round"/>
<path d="M97.2223 65.7778L68.7778 94.2222M68.7778 65.7778L97.2223 94.2222M83 144C70.342 144 57.9683 140.246 47.4436 133.214C36.9188 126.182 28.7157 116.186 23.8717 104.492C19.0277 92.7973 17.7603 79.929 20.2298 67.5142C22.6992 55.0995 28.7947 43.6957 37.7452 34.7452C46.6958 25.7946 58.0995 19.6992 70.5143 17.2298C82.929 14.7603 95.7973 16.0277 107.492 20.8717C119.186 25.7157 129.182 33.9188 136.214 44.4435C143.246 54.9683 147 67.342 147 80C147 90.24 144.596 99.9111 140.316 108.494C137.094 114.972 141.574 123.712 143.281 130.091C143.659 131.501 143.659 132.987 143.281 134.398C142.903 135.808 142.16 137.095 141.128 138.128C140.095 139.16 138.808 139.903 137.398 140.281C135.987 140.659 134.501 140.659 133.091 140.281C126.712 138.574 117.972 134.094 111.494 137.323C102.639 141.719 92.8863 144.005 83 144Z" stroke="currentColor" stroke-width="3.5" stroke-linecap="round" stroke-linejoin="round"/>
</svg>
