<svg width="18" height="16" viewBox="0 0 18 16" fill="none" xmlns="http://www.w3.org/2000/svg">
<path d="M9.34654 15.3467L12.3563 12.3368C12.5479 12.1453 12.5479 11.8349 12.3563 11.6435C12.1649 11.4522 11.8545 11.4522 11.6632 11.6435L8.99995 14.3068L6.33683 11.6436C6.14537 11.4522 5.83499 11.4522 5.6436 11.6436C5.45213 11.835 5.45213 12.1454 5.6436 12.3369L8.65344 15.3468C8.74918 15.4425 8.87453 15.4903 8.99993 15.4903C9.1254 15.4903 9.25084 15.4424 9.34654 15.3467Z" fill="currentColor"/>
<path d="M9.34654 0.653296L12.3563 3.66319C12.5479 3.85466 12.5479 4.16509 12.3563 4.35646C12.1649 4.54785 11.8545 4.54785 11.6632 4.35646L8.99995 1.69317L6.33683 4.35638C6.14537 4.54777 5.83499 4.54777 5.6436 4.35638C5.45213 4.16499 5.45213 3.85458 5.6436 3.66311L8.65344 0.653219C8.74918 0.557525 8.87453 0.509732 8.99993 0.509732C9.1254 0.509732 9.25084 0.557618 9.34654 0.653296Z" fill="currentColor"/>
</svg>
