<svg width="17" height="18" viewBox="0 0 17 18" fill="none" xmlns="http://www.w3.org/2000/svg">
<path d="M8.45283 10.6932C7.50637 10.7442 6.56661 10.5079 5.75689 10.0152C4.94718 9.52248 4.30534 8.79648 3.91564 7.93247C3.52593 7.06846 3.40657 6.10681 3.57321 5.17374C3.73985 4.24067 4.1847 3.37979 4.84939 2.70408C5.51408 2.02837 6.36753 1.56942 7.29773 1.38747C8.22794 1.20551 9.19142 1.30905 10.0617 1.6845C10.932 2.05994 11.6685 2.68975 12.1744 3.49126C12.6804 4.29276 12.9321 5.22851 12.8967 6.17568" stroke="white" stroke-linecap="round" stroke-linejoin="round"/>
<path d="M9.27294 9.65459C9.73434 10.4558 9.94917 11.3753 9.89054 12.2981C9.83192 13.2208 9.50244 14.1057 8.94335 14.8421C8.38426 15.5785 7.62039 16.1336 6.74735 16.438C5.87431 16.7424 4.93088 16.7826 4.03514 16.5534C3.1394 16.3243 2.33115 15.836 1.71154 15.1498C1.09193 14.4635 0.688487 13.6097 0.551711 12.6953C0.414936 11.7809 0.550901 10.8465 0.94259 10.009C1.33428 9.17144 1.96429 8.46805 2.75377 7.98682" stroke="white" stroke-linecap="round"/>
<path d="M7.86514 9.42981C8.36874 8.65881 9.08775 8.05275 9.93285 7.68689C10.7779 7.32102 11.7119 7.21149 12.6187 7.37189C13.5256 7.53229 14.3653 7.95556 15.0336 8.58911C15.7019 9.22267 16.1694 10.0386 16.378 10.9356C16.5865 11.8325 16.527 12.771 16.2068 13.6344C15.8865 14.4979 15.3197 15.2482 14.5767 15.7922C13.8337 16.3363 12.9472 16.65 12.0274 16.6946C11.1076 16.7391 10.1949 16.5124 9.40282 16.0427" stroke="white" stroke-linecap="round"/>
</svg>
