<svg width="20" height="20" viewBox="0 0 20 20" fill="none" xmlns="http://www.w3.org/2000/svg">
<mask id="path-1-inside-1_1538_305960" fill="white">
<path d="M20 9.99919V9.99419C20 7.03502 18.7117 4.37752 16.6658 2.55002L16.6558 2.54169C16.6306 2.51445 16.6023 2.49013 16.5717 2.46919L16.57 2.46835C14.753 0.872961 12.4163 -0.00469308 9.99834 1.8875e-05C7.47167 1.8875e-05 5.165 0.938352 3.40667 2.48669L3.4175 2.47752C3.39631 2.49359 3.37677 2.51174 3.35917 2.53169V2.53252C2.30211 3.46851 1.456 4.61843 0.876884 5.9061C0.297771 7.19376 -0.00112241 8.58979 3.16722e-06 10.0017C3.16722e-06 12.96 1.28667 15.6175 3.33084 17.4459L3.34084 17.4542C3.36731 17.4842 3.39692 17.5113 3.42917 17.535L3.43084 17.5359C5.24737 19.1289 7.58224 20.0052 9.99834 20.0009C12.4257 20.0046 14.7706 19.1201 16.5908 17.5142L16.58 17.5234C17.6554 16.5884 18.5174 15.4334 19.1077 14.1364C19.698 12.8395 20.0029 11.4308 20.0017 10.0059V10L20 9.99919ZM16.2817 16.5034C15.7863 16.1027 15.2536 15.7505 14.6908 15.4517L14.6367 15.425C15.1475 13.9525 15.455 12.255 15.4842 10.4892V10.4759H19.035C18.9153 12.7604 17.932 14.914 16.2842 16.5009L16.2817 16.5034ZM10.4767 15.2492C11.5458 15.3067 12.545 15.5417 13.4667 15.9242L13.4067 15.9025C12.6683 17.5859 11.6292 18.7425 10.4767 18.9967V15.2492ZM10.4767 14.2959V10.4759H14.5333C14.5012 12.0577 14.2269 13.6254 13.72 15.1242L13.7525 15.015C12.7179 14.5898 11.6175 14.3468 10.5 14.2967L10.4775 14.2959H10.4767ZM10.4767 9.52252V5.70252C11.6243 5.65014 12.7541 5.39891 13.8158 4.96002L13.75 4.98419C14.2125 6.33335 14.4967 7.88835 14.5333 9.50502V9.52252H10.4767ZM10.4767 4.74919V1.00335C11.6292 1.25752 12.6683 2.40919 13.4067 4.09752C12.545 4.45585 11.5458 4.69002 10.5008 4.74835L10.4767 4.74919ZM12.855 1.41585C13.837 1.74338 14.7553 2.23724 15.57 2.87585L15.5508 2.86085C15.1817 3.15085 14.7675 3.42419 14.3308 3.66169L14.2842 3.68502C13.9313 2.85229 13.4462 2.08208 12.8475 1.40419L12.855 1.41335V1.41585ZM9.52167 1.00585V4.74919C8.49375 4.69675 7.48243 4.46844 6.53167 4.07419L6.59167 4.09585C7.33334 2.41252 8.37084 1.25669 9.52334 1.00252L9.52167 1.00585ZM5.715 3.68252C5.26328 3.43948 4.83286 3.15876 4.42834 2.84335L4.44834 2.85835C5.23928 2.23848 6.12893 1.75618 7.08 1.43169L7.14334 1.41252C6.56035 2.07205 6.08532 2.81961 5.73584 3.62752L5.715 3.68169V3.68252ZM9.52334 5.70169V9.52169H5.46667C5.50334 7.88752 5.7875 6.33252 6.2825 4.87419L6.25 4.98335C7.28422 5.40791 8.384 5.65065 9.50084 5.70085L9.52334 5.70169ZM9.52334 10.475V14.295C8.3757 14.3474 7.24586 14.5986 6.18417 15.0375L6.25 15.0134C5.7875 13.665 5.50334 12.1092 5.46667 10.4925V10.475H9.52334ZM9.52334 15.2484V18.9942C8.37084 18.74 7.33167 17.5884 6.59334 15.9C7.455 15.5417 8.45417 15.3084 9.49917 15.25L9.52334 15.2492V15.2484ZM7.14834 18.5817C6.16663 18.2551 5.24829 17.7624 4.43334 17.125L4.45334 17.14C4.8225 16.85 5.23667 16.5767 5.67334 16.3392L5.72 16.3159C6.06991 17.1489 6.55505 17.9185 7.15584 18.5934L7.14834 18.585V18.5817ZM14.285 16.315C14.7683 16.5775 15.1825 16.85 15.5717 17.1542L15.5517 17.1392C14.7607 17.7591 13.8711 18.2414 12.92 18.5659L12.8567 18.585C13.4397 17.9258 13.9147 17.1785 14.2642 16.3709L14.285 16.3167V16.315ZM19.035 9.52252H15.4842C15.4586 7.79831 15.1611 6.08894 14.6025 4.45752L14.6367 4.57252C15.2253 4.26257 15.7827 3.89642 16.3008 3.47919L16.2808 3.49419C17.9252 5.07504 18.9089 7.22072 19.0333 9.49835L19.0342 9.52169L19.035 9.52252ZM3.71834 3.49502C4.19834 3.88502 4.7375 4.24252 5.30917 4.54669L5.36334 4.57335C4.8525 6.04585 4.545 7.74335 4.51584 9.50919V9.52252H0.96417C1.08391 7.23802 2.06721 5.08436 3.715 3.49752L3.7175 3.49502H3.71834ZM0.965003 10.4759H4.51584C4.54138 12.2001 4.83893 13.9094 5.3975 15.5409L5.36334 15.4259C4.7375 15.7584 4.19917 16.1159 3.69917 16.5192L3.71917 16.5042C2.07478 14.9233 1.09114 12.7777 0.96667 10.5L0.965837 10.4767L0.965003 10.4759Z"/>
</mask>
<path d="M20 9.99919V9.99419C20 7.03502 18.7117 4.37752 16.6658 2.55002L16.6558 2.54169C16.6306 2.51445 16.6023 2.49013 16.5717 2.46919L16.57 2.46835C14.753 0.872961 12.4163 -0.00469308 9.99834 1.8875e-05C7.47167 1.8875e-05 5.165 0.938352 3.40667 2.48669L3.4175 2.47752C3.39631 2.49359 3.37677 2.51174 3.35917 2.53169V2.53252C2.30211 3.46851 1.456 4.61843 0.876884 5.9061C0.297771 7.19376 -0.00112241 8.58979 3.16722e-06 10.0017C3.16722e-06 12.96 1.28667 15.6175 3.33084 17.4459L3.34084 17.4542C3.36731 17.4842 3.39692 17.5113 3.42917 17.535L3.43084 17.5359C5.24737 19.1289 7.58224 20.0052 9.99834 20.0009C12.4257 20.0046 14.7706 19.1201 16.5908 17.5142L16.58 17.5234C17.6554 16.5884 18.5174 15.4334 19.1077 14.1364C19.698 12.8395 20.0029 11.4308 20.0017 10.0059V10L20 9.99919ZM16.2817 16.5034C15.7863 16.1027 15.2536 15.7505 14.6908 15.4517L14.6367 15.425C15.1475 13.9525 15.455 12.255 15.4842 10.4892V10.4759H19.035C18.9153 12.7604 17.932 14.914 16.2842 16.5009L16.2817 16.5034ZM10.4767 15.2492C11.5458 15.3067 12.545 15.5417 13.4667 15.9242L13.4067 15.9025C12.6683 17.5859 11.6292 18.7425 10.4767 18.9967V15.2492ZM10.4767 14.2959V10.4759H14.5333C14.5012 12.0577 14.2269 13.6254 13.72 15.1242L13.7525 15.015C12.7179 14.5898 11.6175 14.3468 10.5 14.2967L10.4775 14.2959H10.4767ZM10.4767 9.52252V5.70252C11.6243 5.65014 12.7541 5.39891 13.8158 4.96002L13.75 4.98419C14.2125 6.33335 14.4967 7.88835 14.5333 9.50502V9.52252H10.4767ZM10.4767 4.74919V1.00335C11.6292 1.25752 12.6683 2.40919 13.4067 4.09752C12.545 4.45585 11.5458 4.69002 10.5008 4.74835L10.4767 4.74919ZM12.855 1.41585C13.837 1.74338 14.7553 2.23724 15.57 2.87585L15.5508 2.86085C15.1817 3.15085 14.7675 3.42419 14.3308 3.66169L14.2842 3.68502C13.9313 2.85229 13.4462 2.08208 12.8475 1.40419L12.855 1.41335V1.41585ZM9.52167 1.00585V4.74919C8.49375 4.69675 7.48243 4.46844 6.53167 4.07419L6.59167 4.09585C7.33334 2.41252 8.37084 1.25669 9.52334 1.00252L9.52167 1.00585ZM5.715 3.68252C5.26328 3.43948 4.83286 3.15876 4.42834 2.84335L4.44834 2.85835C5.23928 2.23848 6.12893 1.75618 7.08 1.43169L7.14334 1.41252C6.56035 2.07205 6.08532 2.81961 5.73584 3.62752L5.715 3.68169V3.68252ZM9.52334 5.70169V9.52169H5.46667C5.50334 7.88752 5.7875 6.33252 6.2825 4.87419L6.25 4.98335C7.28422 5.40791 8.384 5.65065 9.50084 5.70085L9.52334 5.70169ZM9.52334 10.475V14.295C8.3757 14.3474 7.24586 14.5986 6.18417 15.0375L6.25 15.0134C5.7875 13.665 5.50334 12.1092 5.46667 10.4925V10.475H9.52334ZM9.52334 15.2484V18.9942C8.37084 18.74 7.33167 17.5884 6.59334 15.9C7.455 15.5417 8.45417 15.3084 9.49917 15.25L9.52334 15.2492V15.2484ZM7.14834 18.5817C6.16663 18.2551 5.24829 17.7624 4.43334 17.125L4.45334 17.14C4.8225 16.85 5.23667 16.5767 5.67334 16.3392L5.72 16.3159C6.06991 17.1489 6.55505 17.9185 7.15584 18.5934L7.14834 18.585V18.5817ZM14.285 16.315C14.7683 16.5775 15.1825 16.85 15.5717 17.1542L15.5517 17.1392C14.7607 17.7591 13.8711 18.2414 12.92 18.5659L12.8567 18.585C13.4397 17.9258 13.9147 17.1785 14.2642 16.3709L14.285 16.3167V16.315ZM19.035 9.52252H15.4842C15.4586 7.79831 15.1611 6.08894 14.6025 4.45752L14.6367 4.57252C15.2253 4.26257 15.7827 3.89642 16.3008 3.47919L16.2808 3.49419C17.9252 5.07504 18.9089 7.22072 19.0333 9.49835L19.0342 9.52169L19.035 9.52252ZM3.71834 3.49502C4.19834 3.88502 4.7375 4.24252 5.30917 4.54669L5.36334 4.57335C4.8525 6.04585 4.545 7.74335 4.51584 9.50919V9.52252H0.96417C1.08391 7.23802 2.06721 5.08436 3.715 3.49752L3.7175 3.49502H3.71834ZM0.965003 10.4759H4.51584C4.54138 12.2001 4.83893 13.9094 5.3975 15.5409L5.36334 15.4259C4.7375 15.7584 4.19917 16.1159 3.69917 16.5192L3.71917 16.5042C2.07478 14.9233 1.09114 12.7777 0.96667 10.5L0.965837 10.4767L0.965003 10.4759Z" fill="currentColor" stroke="currentColor" stroke-width="6" mask="url(#path-1-inside-1_1538_305960)"/>
</svg>
