<svg width="16" height="16" viewBox="0 0 16 16" fill="none" xmlns="http://www.w3.org/2000/svg">
    <path fill-rule="evenodd" clip-rule="evenodd"
        d="M14.75 11C15.1642 11 15.5 11.3358 15.5 11.75V14C15.5 14.8284 14.8284 15.5 14 15.5H2C1.17157 15.5 0.5 14.8284 0.5 14V11.75C0.5 11.3358 0.835786 11 1.25 11C1.66421 11 2 11.3358 2 11.75V13C2 13.5523 2.44772 14 3 14H13C13.5523 14 14 13.5523 14 13V11.75C14 11.3358 14.3358 11 14.75 11Z"
        fill="currentColor" />
    <path
        d="M10.6894 5.31055L8.75006 3.37121V10.5605C8.75006 10.9748 8.41427 11.3105 8.00006 11.3105C7.58584 11.3105 7.25006 10.9748 7.25006 10.5605V3.37121L5.31072 5.31055C5.01782 5.60344 4.54295 5.60344 4.25006 5.31055C3.95716 5.01765 3.95716 4.54278 4.25006 4.24989L7.29295 1.20699C7.68347 0.81647 8.31664 0.81647 8.70716 1.20699L11.7501 4.24989C12.0429 4.54278 12.0429 5.01765 11.7501 5.31055C11.4572 5.60344 10.9823 5.60344 10.6894 5.31055Z"
        fill="currentColor" />
</svg>