<svg width="200" height="210" viewBox="0 0 200 210" fill="none" xmlns="http://www.w3.org/2000/svg">
<g clip-path="url(#clip0_1533_28199)">
<path d="M150.875 197.519C150.867 203.076 146.364 207.578 140.812 207.578H12.3445C6.79398 207.578 2.29443 203.075 2.29443 197.519V143.892C2.29443 120.177 50.7742 103.336 76.5846 103.336C102.395 103.336 150.875 120.23 150.875 143.892M76.5846 83.1108C96.2589 83.1108 110.356 68.4551 110.356 49.3094V35.7995C110.356 16.6005 96.2589 1.99805 76.5846 1.99805C56.9106 1.99805 42.8139 16.6538 42.8139 35.7995V49.296C42.8139 68.5085 56.9106 83.1108 76.5846 83.1108ZM178.123 150.887H44.5711C33.7568 150.887 24.9901 159.662 24.9901 170.486C24.9901 181.31 33.7568 190.085 44.5711 190.085H178.123C188.937 190.085 197.704 181.31 197.704 170.486C197.704 159.662 188.937 150.887 178.123 150.887ZM47.007 164.211C43.5149 164.211 40.6842 167.044 40.6842 170.539C40.6842 174.034 43.5149 176.868 47.007 176.868C50.4992 176.868 53.3299 174.034 53.3299 170.539C53.3594 167.044 50.5525 164.186 47.0606 164.157C47.0427 164.157 47.0249 164.157 47.007 164.157V164.211ZM79.0606 170.539C79.0606 174.034 76.2299 176.868 72.7377 176.868C69.2456 176.868 66.4149 174.034 66.4149 170.539C66.4149 167.044 69.2456 164.211 72.7377 164.211C76.2299 164.211 79.0606 167.044 79.0606 170.539ZM104.791 170.539C104.791 174.034 101.96 176.868 98.4685 176.868C94.9763 176.868 92.1456 174.034 92.1456 170.539C92.1456 167.044 94.9766 164.211 98.4685 164.211H98.4818C101.967 164.211 104.791 167.038 104.791 170.526V170.539ZM130.535 170.539C130.535 174.034 127.704 176.868 124.213 176.868C120.72 176.868 117.89 174.034 117.89 170.539C117.89 167.044 120.72 164.211 124.213 164.211C127.704 164.211 130.535 167.044 130.535 170.539ZM156.266 170.539C156.266 174.034 153.435 176.868 149.943 176.868C146.452 176.868 143.62 174.034 143.62 170.539C143.62 167.044 146.452 164.211 149.943 164.211C153.435 164.211 156.266 167.044 156.266 170.539ZM181.997 170.539C181.997 174.034 179.166 176.868 175.674 176.868C172.183 176.868 169.351 174.034 169.351 170.539C169.351 167.044 172.183 164.211 175.674 164.211H175.687C179.172 164.211 181.997 167.038 181.997 170.526V170.539Z" stroke="url(#paint0_linear_1533_28199)" stroke-width="3.9952" stroke-linecap="round" stroke-linejoin="round"/>
</g>
<defs>
<linearGradient id="paint0_linear_1533_28199" x1="9.04327" y1="211.215" x2="156.16" y2="64.2323" gradientUnits="userSpaceOnUse">
<stop stop-color="#C6192E"/>
<stop offset="0.1" stop-color="#C6192E"/>
<stop offset="0.9" stop-color="#348097"/>
<stop offset="1" stop-color="#348097"/>
</linearGradient>
<clipPath id="clip0_1533_28199">
<rect width="200" height="209.524" fill="white"/>
</clipPath>
</defs>
</svg>
