<svg width="11" height="10" viewBox="0 0 11 10" fill="none" xmlns="http://www.w3.org/2000/svg">
<path d="M5.5 0C6.16304 0 6.79893 0.263392 7.26777 0.732233C7.73661 1.20107 8 1.83696 8 2.5C8 3.16304 7.73661 3.79893 7.26777 4.26777C6.79893 4.73661 6.16304 5 5.5 5C4.83696 5 4.20107 4.73661 3.73223 4.26777C3.26339 3.79893 3 3.16304 3 2.5C3 1.83696 3.26339 1.20107 3.73223 0.732233C4.20107 0.263392 4.83696 0 5.5 0ZM5.5 10C5.5 10 10.5 10 10.5 8.75C10.5 7.25 8.0625 5.625 5.5 5.625C2.9375 5.625 0.5 7.25 0.5 8.75C0.5 10 5.5 10 5.5 10Z" fill="currentColor"/>
</svg>
