<svg width="24" height="24" viewBox="0 0 24 24" xmlns="http://www.w3.org/2000/svg" fill="none"><g><path fill="currentColor" d="m12,4c1.06087,0 2.0783,0.42143 2.8284,1.17157c0.7502,0.75015 1.1716,1.76756 1.1716,2.82843c0,1.06087 -0.4214,2.07828 -1.1716,2.82843c-0.7501,0.75014 -1.76753,1.17157 -2.8284,1.17157c-1.06087,0 -2.07828,-0.42143 -2.82843,-1.17157c-0.75014,-0.75015 -1.17157,-1.76756 -1.17157,-2.82843c0,-1.06087 0.42143,-2.07828 1.17157,-2.82843c0.75015,-0.75014 1.76756,-1.17157 2.82843,-1.17157zm0,2c-0.53043,0 -1.03914,0.21071 -1.41421,0.58579c-0.37508,0.37507 -0.58579,0.88378 -0.58579,1.41421c0,0.53043 0.21071,1.03914 0.58579,1.41421c0.37507,0.37508 0.88378,0.58579 1.41421,0.58579c0.53043,0 1.03914,-0.21071 1.41421,-0.58579c0.37508,-0.37507 0.58579,-0.88378 0.58579,-1.41421c0,-0.53043 -0.21071,-1.03914 -0.58579,-1.41421c-0.37507,-0.37508 -0.88378,-0.58579 -1.41421,-0.58579zm0,7c2.67,0 8,1.33 8,4l0,3l-16,0l0,-3c0,-2.67 5.33,-4 8,-4zm0,1.9c-2.97,0 -6.1,1.46 -6.1,2.1l0,1.1l12.2,0l0,-1.1c0,-0.64 -3.13,-2.1 -6.1,-2.1z"/></g></svg>