<svg width="27" height="23" viewBox="0 0 27 23" fill="none" xmlns="http://www.w3.org/2000/svg">
<path d="M26.5172 18.8702L16.3672 1.40536C16.1136 0.97748 15.7515 0.622701 15.3169 0.376192C14.8822 0.129682 14.3901 0 13.8893 0C13.3884 0 12.8963 0.129682 12.4616 0.376192C12.027 0.622701 11.6649 0.97748 11.4113 1.40536L1.26133 18.8702C1.01728 19.2841 0.888672 19.7548 0.888672 20.2341C0.888672 20.7134 1.01728 21.1842 1.26133 21.598C1.51171 22.0285 1.87319 22.3852 2.30866 22.6315C2.74412 22.8779 3.2379 23.005 3.73932 22.9999H24.0392C24.5402 23.0046 25.0335 22.8773 25.4685 22.631C25.9035 22.3846 26.2647 22.0281 26.5149 21.598C26.7593 21.1844 26.8883 20.7138 26.8887 20.2344C26.8891 19.7551 26.7609 19.2843 26.5172 18.8702ZM24.9073 20.6769C24.8189 20.8264 24.6918 20.95 24.5393 21.0348C24.3867 21.1197 24.2141 21.1629 24.0392 21.1599H3.73932C3.56439 21.1629 3.39179 21.1197 3.23923 21.0348C3.08667 20.95 2.95964 20.8264 2.87115 20.6769C2.791 20.5424 2.74873 20.3891 2.74873 20.233C2.74873 20.0768 2.791 19.9235 2.87115 19.7891L13.0211 2.3242C13.1114 2.17536 13.239 2.0522 13.3915 1.9667C13.544 1.88119 13.7163 1.83626 13.8916 1.83626C14.0668 1.83626 14.2391 1.88119 14.3916 1.9667C14.5442 2.0522 14.6718 2.17536 14.7621 2.3242L24.912 19.7891C24.9914 19.9239 25.0329 20.0775 25.0321 20.2336C25.0313 20.3898 24.9882 20.5428 24.9073 20.6769ZM12.9607 13.7999V9.19999C12.9607 8.95599 13.0586 8.72198 13.2327 8.54945C13.4068 8.37692 13.643 8.27999 13.8893 8.27999C14.1355 8.27999 14.3717 8.37692 14.5458 8.54945C14.7199 8.72198 14.8178 8.95599 14.8178 9.19999V13.7999C14.8178 14.0439 14.7199 14.2779 14.5458 14.4505C14.3717 14.623 14.1355 14.7199 13.8893 14.7199C13.643 14.7199 13.4068 14.623 13.2327 14.4505C13.0586 14.2779 12.9607 14.0439 12.9607 13.7999ZM15.282 17.9399C15.282 18.2128 15.2004 18.4796 15.0473 18.7066C14.8943 18.9335 14.6767 19.1104 14.4222 19.2148C14.1677 19.3193 13.8877 19.3466 13.6175 19.2934C13.3474 19.2401 13.0992 19.1087 12.9044 18.9157C12.7096 18.7227 12.577 18.4768 12.5232 18.2091C12.4695 17.9414 12.4971 17.664 12.6025 17.4118C12.7079 17.1596 12.8864 16.9441 13.1155 16.7925C13.3445 16.6408 13.6138 16.5599 13.8893 16.5599C14.2586 16.5599 14.6129 16.7053 14.8741 16.9641C15.1353 17.2229 15.282 17.5739 15.282 17.9399Z" fill="currentColor"/>
</svg>
