<svg width="16" height="16" viewBox="0 0 16 16" fill="none" xmlns="http://www.w3.org/2000/svg">
<path d="M7.42308 8.57692V4.53846C7.42308 4.38545 7.48386 4.23871 7.59205 4.13052C7.70025 4.02232 7.84699 3.96154 8 3.96154C8.15301 3.96154 8.29975 4.02232 8.40795 4.13052C8.51614 4.23871 8.57692 4.38545 8.57692 4.53846V8.57692C8.57692 8.72993 8.51614 8.87667 8.40795 8.98487C8.29975 9.09306 8.15301 9.15384 8 9.15384C7.84699 9.15384 7.70025 9.09306 7.59205 8.98487C7.48386 8.87667 7.42308 8.72993 7.42308 8.57692ZM15.5 5.3714V10.6286C15.5005 10.7802 15.4708 10.9303 15.4128 11.0704C15.3547 11.2104 15.2694 11.3375 15.1618 11.4442L11.4442 15.1618C11.3375 15.2694 11.2104 15.3547 11.0704 15.4128C10.9303 15.4708 10.7802 15.5005 10.6286 15.5H5.3714C5.21982 15.5005 5.06965 15.4708 4.92963 15.4128C4.78961 15.3547 4.66253 15.2694 4.55577 15.1618L0.838227 11.4442C0.730616 11.3375 0.645299 11.2104 0.587236 11.0704C0.529173 10.9303 0.499522 10.7802 0.500006 10.6286V5.3714C0.499522 5.21982 0.529173 5.06965 0.587236 4.92963C0.645299 4.78961 0.730616 4.66253 0.838227 4.55577L4.55577 0.838227C4.66253 0.730616 4.78961 0.645299 4.92963 0.587236C5.06965 0.529173 5.21982 0.499522 5.3714 0.500006H10.6286C10.7802 0.499522 10.9303 0.529173 11.0704 0.587236C11.2104 0.645299 11.3375 0.730616 11.4442 0.838227L15.1618 4.55577C15.2694 4.66253 15.3547 4.78961 15.4128 4.92963C15.4708 5.06965 15.5005 5.21982 15.5 5.3714ZM14.3461 5.3714L10.6286 1.65385H5.3714L1.65385 5.3714V10.6286L5.3714 14.3461H10.6286L14.3461 10.6286V5.3714ZM8 10.3077C7.82884 10.3077 7.66153 10.3584 7.51922 10.4535C7.37691 10.5486 7.26599 10.6838 7.20049 10.8419C7.13499 11 7.11785 11.174 7.15124 11.3419C7.18464 11.5098 7.26705 11.664 7.38808 11.785C7.50911 11.906 7.6633 11.9884 7.83117 12.0218C7.99904 12.0552 8.17304 12.0381 8.33117 11.9726C8.4893 11.9071 8.62445 11.7962 8.71954 11.6539C8.81463 11.5115 8.86538 11.3442 8.86538 11.1731C8.86538 10.9436 8.77421 10.7234 8.61192 10.5612C8.44963 10.3989 8.22951 10.3077 8 10.3077Z" fill="currentColor"/>
</svg>
