<svg width="11" height="10" xmlns="http://www.w3.org/2000/svg" fill="none">
  <path id="svg_1" stroke-width="0.3" stroke="currentColor" fill="currentColor" d="m5.24451,5.85955l0,-1.71875c0,-0.06837 0.02681,-0.13395 0.07454,-0.1823c0.04773,-0.04835 0.11246,-0.07551 0.17996,-0.07551c0.06749,0 0.13223,0.02716 0.17995,0.07551c0.04773,0.04835 0.07454,0.11393 0.07454,0.1823l0,1.71875c0,0.06838 -0.02681,0.13396 -0.07454,0.18231c-0.04772,0.04835 -0.11246,0.07551 -0.17995,0.07551c-0.0675,0 -0.13223,-0.02716 -0.17996,-0.07551c-0.04773,-0.04835 -0.07454,-0.11393 -0.07454,-0.18231zm4.79302,2.87891c-0.08037,0.14456 -0.19752,0.26466 -0.33925,0.34779c-0.14174,0.08313 -0.30288,0.12625 -0.46666,0.12487l-7.46523,0c-0.16361,-0.0004 -0.32425,-0.04437 -0.46579,-0.1275c-0.14155,-0.08313 -0.25904,-0.2025 -0.34067,-0.34614c-0.08164,-0.14363 -0.12456,-0.30649 -0.12446,-0.47224c0.00009,-0.16574 0.04321,-0.32855 0.12502,-0.47209l3.73261,-6.53125c0.08133,-0.14374 0.19869,-0.26318 0.3402,-0.34625c0.14151,-0.08306 0.30216,-0.1268 0.46571,-0.1268c0.16355,0 0.3242,0.04374 0.46571,0.1268c0.14151,0.08307 0.25886,0.20251 0.34019,0.34625l3.73262,6.53125c0.08321,0.14327 0.12701,0.30645 0.12701,0.47266c0,0.1662 -0.0438,0.32938 -0.12701,0.47265zm-0.44113,-0.6875l-3.72837,-6.53125c-0.03786,-0.06504 -0.09181,-0.11894 -0.15653,-0.15639c-0.06472,-0.03745 -0.13796,-0.05715 -0.21249,-0.05715c-0.07453,0 -0.14778,0.0197 -0.21249,0.05715c-0.06472,0.03745 -0.11867,0.09135 -0.15653,0.15639l-3.72838,6.53125c-0.03712,0.06513 -0.05672,0.13899 -0.05683,0.2142c-0.00011,0.07521 0.01926,0.14913 0.05619,0.21437c0.03693,0.06525 0.09011,0.11953 0.15424,0.15743c0.06412,0.0379 0.13694,0.05808 0.21118,0.05853l7.46523,0c0.07424,-0.00045 0.14706,-0.02063 0.21119,-0.05853c0.06413,-0.0379 0.11731,-0.09218 0.15424,-0.15743c0.03692,-0.06524 0.0563,-0.13916 0.05618,-0.21437c-0.00011,-0.07521 -0.01971,-0.14907 -0.05683,-0.2142zm-4.09739,-1.07422c-0.08389,0 -0.1659,0.0252 -0.23565,0.07242c-0.06976,0.04721 -0.12412,0.11432 -0.15623,0.19284c-0.0321,0.07851 -0.0405,0.16491 -0.02413,0.24826c0.01636,0.08335 0.05676,0.15991 0.11608,0.22001c0.05932,0.06009 0.1349,0.10101 0.21718,0.11759c0.08228,0.01658 0.16756,0.00807 0.24507,-0.02445c0.0775,-0.03252 0.14375,-0.0876 0.19035,-0.15826c0.04661,-0.07066 0.07149,-0.15374 0.07149,-0.23872c0,-0.11396 -0.04469,-0.22325 -0.12423,-0.30383c-0.07955,-0.08059 -0.18744,-0.12586 -0.29993,-0.12586z"/>
</svg>