<svg width="12" height="12" viewBox="0 0 12 12" fill="none" xmlns="http://www.w3.org/2000/svg">
<g id="ph:warning-light">
<path id="Vector" d="M5.71824 6.75043V4.87543C5.71824 4.80084 5.74787 4.7293 5.80062 4.67656C5.85336 4.62381 5.9249 4.59418 5.99949 4.59418C6.07408 4.59418 6.14562 4.62381 6.19837 4.67656C6.25111 4.7293 6.28074 4.80084 6.28074 4.87543V6.75043C6.28074 6.82502 6.25111 6.89656 6.19837 6.9493C6.14562 7.00205 6.07408 7.03168 5.99949 7.03168C5.9249 7.03168 5.85336 7.00205 5.80062 6.9493C5.74787 6.89656 5.71824 6.82502 5.71824 6.75043ZM11.0151 9.89106C10.9263 10.0488 10.7968 10.1798 10.6402 10.2705C10.4836 10.3611 10.3055 10.4082 10.1245 10.4067H1.87449C1.69368 10.4062 1.51616 10.3583 1.35973 10.2676C1.2033 10.1769 1.07347 10.0467 0.983249 9.88999C0.893029 9.73329 0.845595 9.55563 0.845703 9.37482C0.845812 9.194 0.893459 9.0164 0.983866 8.85981L5.10887 1.73481C5.19875 1.578 5.32844 1.4477 5.48483 1.35708C5.64121 1.26647 5.81875 1.21875 5.99949 1.21875C6.18023 1.21875 6.35777 1.26647 6.51416 1.35708C6.67054 1.4477 6.80023 1.578 6.89012 1.73481L11.0151 8.85981C11.107 9.0161 11.1555 9.19412 11.1555 9.37543C11.1555 9.55675 11.107 9.73476 11.0151 9.89106ZM10.5276 9.14106L6.4073 2.01606C6.36547 1.94511 6.30584 1.8863 6.23432 1.84544C6.1628 1.80459 6.08186 1.7831 5.99949 1.7831C5.91712 1.7831 5.83618 1.80459 5.76466 1.84544C5.69314 1.8863 5.63352 1.94511 5.59168 2.01606L1.47137 9.14106C1.43034 9.21211 1.40869 9.29268 1.40856 9.37473C1.40844 9.45677 1.42985 9.53741 1.47066 9.60859C1.51146 9.67976 1.57024 9.73898 1.6411 9.78033C1.71197 9.82167 1.79245 9.84369 1.87449 9.84418H10.1245C10.2065 9.84369 10.287 9.82167 10.3579 9.78033C10.4287 9.73898 10.4875 9.67976 10.5283 9.60859C10.5691 9.53741 10.5905 9.45677 10.5904 9.37473C10.5903 9.29268 10.5686 9.21211 10.5276 9.14106ZM5.99949 7.96918C5.90678 7.96918 5.81615 7.99667 5.73907 8.04818C5.66198 8.09969 5.6019 8.17289 5.56642 8.25855C5.53094 8.3442 5.52166 8.43845 5.53975 8.52938C5.55784 8.62031 5.60248 8.70383 5.66804 8.76939C5.73359 8.83494 5.81711 8.87959 5.90804 8.89767C5.99897 8.91576 6.09322 8.90648 6.17887 8.871C6.26453 8.83552 6.33774 8.77544 6.38924 8.69835C6.44075 8.62127 6.46824 8.53064 6.46824 8.43793C6.46824 8.31361 6.41886 8.19438 6.33095 8.10647C6.24304 8.01857 6.12381 7.96918 5.99949 7.96918Z" fill="currentColor"/>
</g>
</svg>
