<svg width="20" height="20" viewBox="0 0 20 20" fill="none" xmlns="http://www.w3.org/2000/svg">
<g clip-path="url(#clip0_648_12761)">
<path d="M10.2002 9.50773L14.7024 8.08423L19.2002 9.50773V12.4268C19.2002 13.9228 18.7656 15.3808 17.9581 16.5944C17.1506 17.808 16.0111 18.7155 14.7009 19.1884C13.3904 18.7155 12.2505 17.8079 11.4427 16.5941C10.6349 15.3802 10.2002 13.9218 10.2002 12.4254V9.50773Z" stroke="currentColor" stroke-linejoin="round"/>
<path d="M15.9502 11.876H18.9502" stroke="currentColor" stroke-width="0.75" stroke-linecap="round"/>
<path d="M15.9502 13.501H18.9502" stroke="currentColor" stroke-width="0.75" stroke-linecap="round"/>
<path d="M15.9502 15.126H18.7002" stroke="currentColor" stroke-width="0.75" stroke-linecap="round"/>
<path fill-rule="evenodd" clip-rule="evenodd" d="M8.8999 16.992C8.76626 16.9982 8.63222 17.0012 8.49788 17.001C6.44436 17.0047 4.45989 16.2598 2.91597 14.9058L2.91455 14.9051C2.88714 14.8849 2.86197 14.8619 2.83947 14.8364L2.83097 14.8293C1.09358 13.2753 2.69191e-06 11.0165 2.69191e-06 8.50204C-0.000953966 7.30198 0.253084 6.11541 0.745289 5.02094C1.23749 3.92647 1.95663 2.94837 2.85506 2.15282C2.86926 2.13672 2.88494 2.12201 2.90191 2.10887C4.39555 0.796238 6.35349 0.000992606 8.49788 0.000992606C10.553 -0.00301238 12.539 0.742961 14.0833 2.09898L14.0847 2.09969C14.1108 2.11749 14.1348 2.13816 14.1563 2.16132L14.1648 2.1684C15.551 3.40673 16.528 5.09344 16.8673 7.00098H16.0419C15.7385 5.47241 14.9737 4.06341 13.8381 2.9714C13.4033 3.31974 12.9364 3.62587 12.4435 3.88564C12.7815 4.89657 13.0019 5.94189 13.1012 7.00098H12.2843C12.1826 6.01849 11.9758 5.08179 11.6872 4.23942C10.801 4.59848 9.85996 4.8043 8.90442 4.84791V8.00098H8.8999L8.8999 16.992ZM8.90442 4.03761V0.853789C9.88397 1.06982 10.7672 2.0487 11.3947 3.48372C10.6624 3.78829 9.81314 3.98732 8.92496 4.0369L8.90442 4.03761ZM13.2171 2.4326C12.5297 1.8967 11.756 1.48172 10.9292 1.20552C11.4335 1.77902 11.8425 2.42983 12.1405 3.13311L12.1802 3.11327C12.5513 2.91141 12.9033 2.67909 13.2171 2.4326ZM8.09274 0.855914V4.03761C7.21908 3.99304 6.35953 3.79899 5.55145 3.46388L5.60245 3.4823C6.23281 2.05153 7.11462 1.06911 8.09416 0.853081L8.09274 0.855914ZM4.85735 3.13098C4.47341 2.92441 4.10759 2.68581 3.76377 2.41772L3.78077 2.43047C4.45301 1.9036 5.20916 1.49367 6.0175 1.21786L6.07133 1.20157C5.57583 1.76214 5.17209 2.39754 4.87505 3.08423L4.85735 3.13098ZM8.09416 4.8472V8.09406H4.64628C4.67744 6.70508 4.91897 5.38338 5.33968 4.14385L5.31206 4.23664C6.19107 4.5975 7.1258 4.80382 8.07504 4.84649L8.09416 4.8472ZM8.09416 8.90436V12.1512C7.13863 12.1948 6.19762 12.4006 5.31135 12.7597C4.91868 11.6141 4.67743 10.2925 4.64628 8.91923V8.90436H8.09416ZM8.09416 12.9615V16.1453C7.11462 15.9293 6.2314 14.9504 5.60387 13.5154C6.33622 13.2108 7.18544 13.0125 8.07362 12.9629L8.09416 12.9615ZM3.76802 14.5566C4.45971 15.0976 5.23904 15.516 6.07212 15.7936C5.56604 15.2226 5.15708 14.5724 4.8616 13.8688L4.82193 13.8887C4.4508 14.0905 4.09878 14.3229 3.78502 14.5694L3.76802 14.5566ZM6.08195 15.8046L6.07558 15.7975V15.7976L6.08195 15.8046ZM3.16032 2.97161C3.56829 3.3031 4.02654 3.60696 4.51242 3.86549L4.55845 3.88816C4.12428 5.13973 3.86293 6.58254 3.83814 8.08343V8.09477H0.819476C0.921249 6.15303 1.75698 4.32249 3.15749 2.97374L3.16032 2.97161ZM0.820184 8.90506H3.83814C3.85935 10.3368 4.10122 11.7565 4.55504 13.1142C4.03144 13.3926 3.57991 13.6917 3.1605 14.0284C1.76321 12.6848 0.927378 10.8613 0.821601 8.9256L0.820892 8.90577L0.820184 8.90506Z" fill="currentColor"/>
</g>
<defs>
<clipPath id="clip0_648_12761">
<rect width="20" height="20" fill="white" transform="translate(0 0.000976562)"/>
</clipPath>
</defs>
</svg>
