<svg width="20" height="20" viewBox="0 0 21 20" fill="none" xmlns="http://www.w3.org/2000/svg">
<g clip-path="url(#clip0_368_27041)">
<path d="M10.4998 10.7916H19.7744M17.4994 8.08331L20.3432 10.7916L17.4994 13.5M20.9999 16.2083H11.7246M13.9994 13.5L11.1557 16.2083L13.9994 18.9166" stroke="currentColor" stroke-width="0.833333"/>
<path fill-rule="evenodd" clip-rule="evenodd" d="M8.92277 17C9.09907 17.0002 9.27489 16.9955 9.45 16.9858V16.1229C9.41666 16.1316 9.38321 16.1394 9.34965 16.1465V12.9612C9.38317 12.963 9.41663 12.9649 9.45 12.967V12.1554C9.4235 12.154 9.39699 12.1528 9.37047 12.1517L9.35039 12.1509H9.34965V8.90409H9.45V8.09379H9.34965V4.84693C10.353 4.80332 11.341 4.59751 12.2716 4.23844C12.5746 5.08081 12.7917 6.01751 12.8985 7H13.7562C13.652 5.94092 13.4205 4.89559 13.0657 3.88467C13.5832 3.62489 14.0735 3.31876 14.53 2.97042C15.7224 4.06243 16.5254 5.47143 16.844 7H17.7106C17.3544 5.09246 16.3285 3.40575 14.873 2.16742L14.8641 2.16034C14.8416 2.13719 14.8164 2.11652 14.789 2.09872L14.7875 2.09801C13.166 0.741984 11.0807 -0.00398895 8.92277 1.60431e-05C6.67117 1.60431e-05 4.61533 0.795261 3.047 2.10789C3.02919 2.12103 3.01272 2.13574 2.99781 2.15184C2.05446 2.9474 1.29937 3.92549 0.782554 5.01996C0.265739 6.11443 -0.00100166 7.301 2.82651e-06 8.50106C2.82651e-06 11.0155 1.14826 13.2743 2.97252 14.8283L2.98145 14.8354C3.00507 14.8609 3.0315 14.884 3.06028 14.9041L3.06177 14.9048C4.68288 16.2588 6.76658 17.0037 8.92277 17ZM9.34965 4.03663V0.852812C10.3782 1.06884 11.3055 2.04772 11.9645 3.48274C11.1955 3.78731 10.3038 3.98634 9.37121 4.03592L9.34965 4.03663ZM13.878 2.43163C13.1562 1.89572 12.3438 1.48075 11.4756 1.20454C12.0052 1.77804 12.4347 2.42886 12.7476 3.13213L12.7892 3.1123C13.1789 2.91043 13.5485 2.67811 13.878 2.43163ZM8.49738 0.854937V4.03663C7.58004 3.99206 6.67751 3.79801 5.82903 3.46291L5.88257 3.48132C6.54446 2.05055 7.47035 1.06814 8.49887 0.852104L8.49738 0.854937ZM5.10021 3.13C4.69708 2.92343 4.31297 2.68483 3.95196 2.41674L3.96981 2.42949C4.67567 1.90263 5.46962 1.49269 6.31837 1.21688L6.37489 1.20059C5.85462 1.76116 5.43069 2.39657 5.11881 3.08326L5.10021 3.13ZM8.49887 4.84622V8.09308H4.87859C4.91132 6.7041 5.16491 5.38241 5.60667 4.14288L5.57766 4.23567C6.50062 4.59652 7.48209 4.80284 8.47879 4.84551L8.49887 4.84622ZM8.49887 8.90338V12.1502C7.49556 12.1939 6.5075 12.3997 5.57692 12.7587C5.16461 11.6132 4.9113 10.2915 4.87859 8.91825V8.90338H8.49887ZM8.49887 12.9605V16.1444C7.47035 15.9283 6.54297 14.9494 5.88406 13.5144C6.65303 13.2099 7.54472 13.0115 8.4773 12.962L8.49887 12.9605ZM3.95642 14.5556C4.6827 15.0966 5.50099 15.515 6.37573 15.7926C5.84434 15.2216 5.41493 14.5714 5.10468 13.8679L5.06303 13.8877C4.67334 14.0896 4.30372 14.3219 3.97427 14.5684L3.95642 14.5556ZM6.38605 15.8037L6.37936 15.7965V15.7966L6.38605 15.8037ZM3.31834 2.97064C3.7467 3.30212 4.22787 3.60598 4.73804 3.86451L4.78638 3.88718C4.3305 5.13875 4.05608 6.58156 4.03005 8.08246V8.09379H0.86045C0.967312 6.15205 1.84483 4.32152 3.31536 2.97276L3.31834 2.97064ZM0.861193 8.90409H4.03005C4.05232 10.3358 4.30628 11.7556 4.78279 13.1132C4.23302 13.3917 3.7589 13.6908 3.31853 14.0274C1.85137 12.6838 0.973747 10.8603 0.862681 8.92463L0.861937 8.9048L0.861193 8.90409Z" fill="currentColor"/>
</g>
<defs>
<clipPath id="clip0_368_27041">
<rect width="21" height="20" fill="white"/>
</clipPath>
</defs>
</svg>
