<svg width="26" height="24" viewBox="0 0 26 24" fill="none" xmlns="http://www.w3.org/2000/svg">
<path d="M3.50586 17.4167C4.45684 19.0639 5.82472 20.4317 7.47195 21.3825C9.11919 22.3333 10.9877 22.8337 12.8897 22.8334C14.7917 22.8337 16.6602 22.3333 18.3074 21.3825C19.9547 20.4317 21.3225 19.0639 22.2735 17.4167M3.50586 6.58341C4.45684 4.93626 5.82472 3.56851 7.47195 2.61767C9.11919 1.66683 10.9877 1.16642 12.8897 1.16675C14.7917 1.16642 16.6602 1.66683 18.3074 2.61767C19.9547 3.56851 21.3225 4.93626 22.2735 6.58341" stroke="currentColor" stroke-width="1.36957" stroke-linecap="round" stroke-linejoin="round"/>
<path d="M13.9727 22.7793C13.9727 22.7793 15.498 20.7719 16.4589 17.4168M13.9727 1.22095C13.9727 1.22095 15.498 3.22728 16.4589 6.58345M11.806 22.7793C11.806 22.7793 10.2807 20.7729 9.31974 17.4168M11.806 1.22095C11.806 1.22095 10.2807 3.22728 9.31974 6.58345M9.63932 9.83345L11.2643 15.2501L12.8893 9.83345L14.5143 15.2501L16.1393 9.83345M0.972656 9.83345L2.59766 15.2501L4.22266 9.83345L5.84766 15.2501L7.47266 9.83345M18.306 9.83345L19.931 15.2501L21.556 9.83345L23.181 15.2501L24.806 9.83345" stroke="currentColor" stroke-width="1.36957" stroke-linecap="round" stroke-linejoin="round"/>
</svg>
