<svg width="30" height="30" viewBox="0 0 30 30" fill="none" xmlns="http://www.w3.org/2000/svg">
  <rect width="30" height="30" rx="15" fill="#FFE5BD"/>
  <path d="M16.875 23.125H13.125V24.375H16.875V23.125Z" fill="#FFB549"/>
  <path d="M17.5 21.25H12.5V22.5H17.5V21.25Z" fill="#FFB549"/>
  <path d="M19.4305 7.44885C18.2559 6.27267 16.6824 5.62502 15 5.62502C14.1787 5.62306 13.3651 5.78338 12.6059 6.09678C11.8468 6.41018 11.157 6.87048 10.5762 7.45124C9.99548 8.03199 9.53518 8.72176 9.22178 9.48093C8.90838 10.2401 8.74806 11.0537 8.75002 11.875C8.75002 13.6961 9.44806 15.3996 10.6641 16.5485L10.8344 16.7082C11.5379 17.366 12.5 18.2672 12.5 19.0625V20.625H14.375V15.5121L12.6453 14.5313L13.3594 13.5047L15 14.375L16.6129 13.5004L17.359 14.5035L15.625 15.5192V20.625H17.5V19.0625C17.5 18.286 18.4516 17.3856 19.1465 16.7278L19.3383 16.5457C20.5891 15.3516 21.25 13.7348 21.25 11.875C21.2542 11.0536 21.0955 10.2396 20.7832 9.47985C20.4709 8.72014 20.0111 8.02984 19.4305 7.44885Z" fill="#FFB549"/>
</svg>
