<svg width="160" height="18" xmlns="http://www.w3.org/2000/svg" fill="none">
 <defs>
  <linearGradient y2="1" x2="0.49916" y1="0" x1="0.49916" id="paint0_linear_505_281">
   <stop stop-color="#718F9D"/>
   <stop stop-opacity="0.58" stop-color="#7A9CFF" offset="1"/>
  </linearGradient>
 </defs>
 <g>
  <title>Layer 1</title>
  <path id="svg_1" stroke-linejoin="round" stroke-linecap="round" stroke-width="1.5" stroke="url(#paint0_linear_505_281)" d="m135.5,8.19235c0.1618,-1.48887 0.7678,-2.90552 1.749,-4.08897c0.9812,-1.18345 2.2984,-2.08624 3.8018,-2.60579c1.5034,-0.51955 3.1327,-0.63503 4.7029,-0.33331c1.5702,0.30171 3.0182,1.00852 4.1796,2.04012c1.1614,1.03159 1.9895,2.3466 2.3903,3.7956l1.3497,0c1.4205,0 2.7829,0.52678 3.7873,1.46447c1.0044,0.93768 1.5684,2.20943 1.5684,3.53553c0,1.3261 -0.564,2.5979 -1.5684,3.5355c-1.0044,0.9377 -2.3668,1.4645 -3.7873,1.4645l-5.1898,0"/>
  <path id="svg_2" fill="#ffffff" d="m63.20703,15.1699l1.75195,0c-0.03515,0.5742 -0.19336,1.084 -0.4746,1.5293c-0.27735,0.4453 -0.66602,0.793 -1.16602,1.043c-0.49609,0.25 -1.09375,0.375 -1.79297,0.375c-0.54687,0 -1.03711,-0.0938 -1.4707,-0.2813c-0.4336,-0.1914 -0.80469,-0.4648 -1.11328,-0.8203c-0.30469,-0.3554 -0.53711,-0.7851 -0.69727,-1.289c-0.16016,-0.5039 -0.24023,-1.0684 -0.24023,-1.6934l0,-0.5918c0,-0.625 0.08203,-1.1894 0.24609,-1.6934c0.16797,-0.5078 0.40625,-0.9394 0.71484,-1.2949c0.3125,-0.3554 0.68555,-0.62888 1.11914,-0.82029c0.4336,-0.1914 0.91797,-0.28711 1.45313,-0.28711c0.71094,0 1.31055,0.12891 1.79883,0.38672c0.49218,0.25781 0.87304,0.61328 1.14258,1.06638c0.27343,0.4532 0.4375,0.9688 0.49218,1.5469l-1.75781,0c-0.01953,-0.3437 -0.08789,-0.6348 -0.20508,-0.873c-0.11719,-0.2422 -0.29492,-0.4239 -0.5332,-0.545c-0.23438,-0.125 -0.54688,-0.1875 -0.9375,-0.1875c-0.29297,0 -0.54883,0.0547 -0.76758,0.1641c-0.21875,0.1094 -0.40234,0.2754 -0.55078,0.498c-0.14844,0.2227 -0.25977,0.5039 -0.33398,0.8438c-0.07032,0.3359 -0.10547,0.7305 -0.10547,1.1836l0,0.6035c0,0.4414 0.0332,0.8301 0.09961,1.166c0.0664,0.332 0.16797,0.6133 0.30468,0.8438c0.14063,0.2265 0.32032,0.3984 0.53907,0.5156c0.22265,0.1133 0.49023,0.1699 0.80273,0.1699c0.36719,0 0.66992,-0.0586 0.9082,-0.1758c0.23829,-0.1172 0.41993,-0.291 0.54493,-0.5215c0.1289,-0.2304 0.20507,-0.5175 0.22851,-0.8613zm4.58207,-6.1699l0,9l-1.6934,0l0,-9l1.6934,0zm1.125,5.8945l0,-0.123c0,-0.4649 0.0664,-0.8926 0.1992,-1.2832c0.1328,-0.3945 0.3262,-0.7363 0.5801,-1.0254c0.2539,-0.2891 0.5664,-0.5137 0.9375,-0.6738c0.3711,-0.1641 0.7968,-0.2461 1.2773,-0.2461c0.4805,0 0.9082,0.082 1.2832,0.2461c0.375,0.1601 0.6895,0.3847 0.9434,0.6738c0.2578,0.2891 0.4531,0.6309 0.5859,1.0254c0.1328,0.3906 0.1992,0.8183 0.1992,1.2832l0,0.123c0,0.461 -0.0664,0.8887 -0.1992,1.2832c-0.1328,0.3907 -0.3281,0.7325 -0.5859,1.0254c-0.2539,0.2891 -0.5664,0.5137 -0.9375,0.6739c-0.3711,0.1601 -0.7969,0.2402 -1.2774,0.2402c-0.4804,0 -0.9082,-0.0801 -1.2832,-0.2402c-0.3711,-0.1602 -0.6855,-0.3848 -0.9433,-0.6739c-0.2539,-0.2929 -0.4473,-0.6347 -0.5801,-1.0254c-0.1328,-0.3945 -0.1992,-0.8222 -0.1992,-1.2832zm1.6875,-0.123l0,0.123c0,0.2657 0.0234,0.5137 0.0703,0.7442c0.0469,0.2304 0.1211,0.4336 0.2226,0.6093c0.1055,0.1719 0.2422,0.3067 0.4102,0.4043c0.168,0.0977 0.373,0.1465 0.6152,0.1465c0.2344,0 0.4356,-0.0488 0.6035,-0.1465c0.168,-0.0976 0.3028,-0.2324 0.4043,-0.4043c0.1016,-0.1757 0.1758,-0.3789 0.2227,-0.6093c0.0508,-0.2305 0.0762,-0.4785 0.0762,-0.7442l0,-0.123c0,-0.2578 -0.0254,-0.5 -0.0762,-0.7266c-0.0469,-0.2304 -0.1231,-0.4336 -0.2285,-0.6094c-0.1016,-0.1796 -0.2364,-0.3203 -0.4043,-0.4218c-0.168,-0.1016 -0.3711,-0.1524 -0.6094,-0.1524c-0.2383,0 -0.4414,0.0508 -0.6094,0.1524c-0.164,0.1015 -0.2988,0.2422 -0.4043,0.4218c-0.1015,0.1758 -0.1757,0.379 -0.2226,0.6094c-0.0469,0.2266 -0.0703,0.4688 -0.0703,0.7266zm9.1054,1.7109l0,-4.8222l1.6875,0l0,6.3398l-1.5879,0l-0.0996,-1.5176zm0.1875,-1.3008l0.4981,-0.0117c0,0.4219 -0.0488,0.8145 -0.1465,1.1778c-0.0977,0.3593 -0.2441,0.6718 -0.4395,0.9375c-0.1953,0.2617 -0.4414,0.4668 -0.7382,0.6152c-0.2969,0.1445 -0.6465,0.2168 -1.0489,0.2168c-0.3086,0 -0.5937,-0.043 -0.8554,-0.1289c-0.2579,-0.0899 -0.4805,-0.2285 -0.668,-0.416c-0.1836,-0.1914 -0.3281,-0.4356 -0.4336,-0.7325c-0.1016,-0.3007 -0.1523,-0.6621 -0.1523,-1.0839l0,-4.0957l1.6875,0l0,4.1074c0,0.1875 0.0214,0.3457 0.0644,0.4746c0.0469,0.1289 0.1113,0.2344 0.1934,0.3164c0.082,0.082 0.1777,0.1406 0.2871,0.1758c0.1133,0.0351 0.2383,0.0527 0.375,0.0527c0.3476,0 0.6211,-0.0703 0.8203,-0.2109c0.2031,-0.1407 0.3457,-0.3321 0.4277,-0.5742c0.086,-0.2461 0.1289,-0.5196 0.1289,-0.8204zm6.5332,1.4356l0,-7.6172l1.6993,0l0,9l-1.5293,0l-0.17,-1.3828zm-4.0078,-1.711l0,-0.123c0,-0.4844 0.0547,-0.9238 0.1641,-1.3184c0.1094,-0.3984 0.2695,-0.7402 0.4805,-1.0253c0.2109,-0.2852 0.4707,-0.5059 0.7793,-0.6622c0.3085,-0.1562 0.6601,-0.2343 1.0546,-0.2343c0.3711,0 0.6954,0.0781 0.9727,0.2343c0.2812,0.1563 0.5195,0.3789 0.7148,0.668c0.1993,0.2852 0.3594,0.6231 0.4805,1.0137c0.1211,0.3867 0.209,0.8105 0.2637,1.2715l0,0.2695c-0.0547,0.4414 -0.1426,0.8516 -0.2637,1.2305c-0.1211,0.3789 -0.2812,0.7109 -0.4805,0.9961c-0.1953,0.2812 -0.4336,0.5 -0.7148,0.6562c-0.2813,0.1563 -0.6094,0.2344 -0.9844,0.2344c-0.3945,0 -0.7461,-0.0801 -1.0547,-0.2402c-0.3047,-0.1602 -0.5625,-0.3848 -0.7734,-0.6739c-0.207,-0.289 -0.3652,-0.6289 -0.4746,-1.0195c-0.1094,-0.3906 -0.1641,-0.8164 -0.1641,-1.2774zm1.6875,-0.123l0,0.123c0,0.2618 0.0196,0.5059 0.0586,0.7325c0.043,0.2265 0.1113,0.4277 0.2051,0.6035c0.0977,0.1719 0.2227,0.3066 0.375,0.4043c0.1562,0.0937 0.3457,0.1406 0.5684,0.1406c0.289,0 0.5273,-0.0644 0.7148,-0.1933c0.1875,-0.1329 0.3301,-0.3145 0.4277,-0.545c0.1016,-0.2304 0.1602,-0.4961 0.1758,-0.7968l0,-0.7676c-0.0117,-0.2461 -0.0469,-0.4668 -0.1055,-0.6621c-0.0546,-0.1993 -0.1367,-0.3692 -0.2461,-0.5098c-0.1054,-0.1406 -0.2382,-0.25 -0.3984,-0.3281c-0.1562,-0.0782 -0.3418,-0.1172 -0.5566,-0.1172c-0.2188,0 -0.4063,0.0508 -0.5625,0.1523c-0.1563,0.0977 -0.2832,0.2325 -0.3809,0.4043c-0.0937,0.1719 -0.164,0.375 -0.2109,0.6094c-0.043,0.2305 -0.0645,0.4805 -0.0645,0.75zm13.5235,1.1191c0,-0.2343 -0.0391,-0.4433 -0.1172,-0.6269c-0.0782,-0.1836 -0.2071,-0.3477 -0.3867,-0.4922c-0.1758,-0.1484 -0.4141,-0.2852 -0.7149,-0.4102c-0.2969,-0.1289 -0.668,-0.2558 -1.1133,-0.3808c-0.4258,-0.1211 -0.8105,-0.2539 -1.1543,-0.3984c-0.3437,-0.1446 -0.6386,-0.3106 -0.8847,-0.4981c-0.2422,-0.1875 -0.4278,-0.4062 -0.5567,-0.6562c-0.1289,-0.254 -0.1933,-0.5489 -0.1933,-0.8848c0,-0.3281 0.0703,-0.627 0.2109,-0.8965c0.1406,-0.2695 0.3379,-0.502 0.5918,-0.69726c0.2578,-0.19532 0.5605,-0.34571 0.9082,-0.45117c0.3516,-0.10547 0.7363,-0.15821 1.1543,-0.15821c0.5977,0 1.1133,0.11328 1.5469,0.33985c0.4375,0.22656 0.7754,0.53319 1.0136,0.91989c0.2422,0.3828 0.3633,0.8125 0.3633,1.2891l-0.7207,0c0,-0.3711 -0.0879,-0.7012 -0.2636,-0.9902c-0.1719,-0.293 -0.4219,-0.5215 -0.75,-0.6856c-0.3243,-0.168 -0.7207,-0.25194 -1.1895,-0.25194c-0.4688,0 -0.8633,0.07224 -1.1836,0.21684c-0.3164,0.1406 -0.5566,0.33 -0.7207,0.5683c-0.1602,0.2344 -0.2402,0.4961 -0.2402,0.7852c0,0.2031 0.039,0.3906 0.1172,0.5625c0.0781,0.1679 0.205,0.3261 0.3808,0.4746c0.1797,0.1445 0.416,0.2812 0.709,0.4101c0.293,0.125 0.6543,0.2442 1.084,0.3575c0.4531,0.125 0.8555,0.2636 1.207,0.416c0.3516,0.1523 0.6485,0.3281 0.8906,0.5273c0.2422,0.1953 0.4258,0.4238 0.5508,0.6856c0.125,0.2617 0.1875,0.5664 0.1875,0.914c0,0.3477 -0.0742,0.6602 -0.2226,0.9375c-0.1446,0.2735 -0.3496,0.5059 -0.6153,0.6973c-0.2617,0.1914 -0.5722,0.3379 -0.9316,0.4394c-0.3555,0.1016 -0.7441,0.1524 -1.166,0.1524c-0.3789,0 -0.7559,-0.0488 -1.1309,-0.1465c-0.375,-0.0977 -0.7187,-0.248 -1.0312,-0.4512c-0.3086,-0.207 -0.5567,-0.4726 -0.7442,-0.7968c-0.1836,-0.3243 -0.2754,-0.711 -0.2754,-1.1602l0.7149,0c0,0.3594 0.0722,0.6621 0.2168,0.9082c0.1445,0.2461 0.3359,0.4453 0.5742,0.5977c0.2422,0.1523 0.5078,0.2636 0.7969,0.3339c0.2929,0.0665 0.5859,0.0997 0.8789,0.0997c0.4492,0 0.8379,-0.0665 1.166,-0.1993c0.332,-0.1328 0.5879,-0.3183 0.7676,-0.5566c0.1836,-0.2422 0.2754,-0.5234 0.2754,-0.8438zm4.5703,2.2149c-0.4141,0 -0.795,-0.0762 -1.1426,-0.2285c-0.3438,-0.1524 -0.6445,-0.3672 -0.9024,-0.6446c-0.2539,-0.2773 -0.4511,-0.6054 -0.5917,-0.9843c-0.1368,-0.3828 -0.2051,-0.8008 -0.2051,-1.2539l0,-0.252c0,-0.4883 0.0722,-0.9297 0.2168,-1.3242c0.1445,-0.3945 0.3437,-0.7324 0.5976,-1.0137c0.2539,-0.2812 0.543,-0.4961 0.8672,-0.6445c0.3281,-0.1524 0.6719,-0.2285 1.0313,-0.2285c0.4023,0 0.7597,0.0722 1.0722,0.2168c0.3125,0.1406 0.5743,0.3418 0.7852,0.6035c0.2148,0.2578 0.3769,0.5644 0.4863,0.9199c0.1094,0.3516 0.1641,0.7402 0.1641,1.166l0,0.4278l-4.7989,0l0,-0.5977l4.1016,0l0,-0.082c-0.0078,-0.3555 -0.0801,-0.6875 -0.2168,-0.9961c-0.1328,-0.3125 -0.332,-0.5664 -0.5976,-0.7617c-0.2657,-0.1954 -0.5977,-0.293 -0.9961,-0.293c-0.2969,0 -0.5703,0.0625 -0.8203,0.1875c-0.2461,0.125 -0.459,0.3047 -0.6387,0.539c-0.1758,0.2305 -0.3125,0.5059 -0.4102,0.8262c-0.0937,0.3164 -0.1406,0.668 -0.1406,1.0547l0,0.252c0,0.3515 0.0508,0.6796 0.1523,0.9843c0.1055,0.3008 0.254,0.5664 0.4454,0.7969c0.1953,0.2305 0.4257,0.4102 0.6914,0.5391c0.2656,0.1289 0.5586,0.1933 0.8789,0.1933c0.375,0 0.707,-0.0683 0.9961,-0.205c0.289,-0.1407 0.5488,-0.3614 0.7793,-0.6622l0.4394,0.3399c-0.1367,0.2031 -0.3086,0.3906 -0.5156,0.5625c-0.2031,0.1719 -0.4473,0.3086 -0.7324,0.4101c-0.2852,0.1016 -0.6172,0.1524 -0.9961,0.1524zm4.459,-5.4082l0,5.291l-0.6973,0l0,-6.3398l0.6797,0l0.0176,1.0488zm2.2441,-1.0957l-0.0176,0.6445c-0.0781,-0.0117 -0.1543,-0.0215 -0.2285,-0.0293c-0.0742,-0.0078 -0.1543,-0.0117 -0.2402,-0.0117c-0.3047,0 -0.5723,0.0566 -0.8028,0.1699c-0.2265,0.1094 -0.4179,0.2637 -0.5742,0.4629c-0.1562,0.1953 -0.2754,0.4258 -0.3574,0.6914c-0.082,0.2617 -0.1289,0.543 -0.1406,0.8438l-0.2578,0.0996c0,-0.4141 0.0429,-0.7989 0.1289,-1.1543c0.0859,-0.3555 0.2168,-0.666 0.3925,-0.9317c0.1797,-0.2695 0.4043,-0.4785 0.6739,-0.6269c0.2734,-0.1524 0.5937,-0.2285 0.9609,-0.2285c0.0898,0 0.1777,0.0078 0.2637,0.0234c0.0898,0.0117 0.1562,0.0274 0.1992,0.0469zm3.0762,5.7129l2.0332,-5.666l0.7207,0l-2.3731,6.3398l-0.5097,0l0.1289,-0.6738zm-1.8399,-5.666l2.0567,5.6836l0.1113,0.6562l-0.5156,0l-2.3789,-6.3398l0.7265,0zm6.5274,0l0,6.3398l-0.6973,0l0,-6.3398l0.6973,0zm-0.8203,-1.83403c0,-0.13281 0.041,-0.24414 0.123,-0.33398c0.0859,-0.09375 0.2031,-0.14063 0.3516,-0.14063c0.1484,0 0.2656,0.04688 0.3515,0.14063c0.0899,0.08984 0.1348,0.20117 0.1348,0.33398c0,0.12891 -0.0449,0.24023 -0.1348,0.33403c-0.0859,0.0898 -0.2031,0.1347 -0.3515,0.1347c-0.1485,0 -0.2657,-0.0449 -0.3516,-0.1347c-0.082,-0.0938 -0.123,-0.20512 -0.123,-0.33403zm5.0742,7.68753c0.2969,0 0.5742,-0.0547 0.832,-0.1641c0.2617,-0.1133 0.4766,-0.2793 0.6445,-0.498c0.1719,-0.2227 0.2696,-0.4942 0.293,-0.8145l0.668,0c-0.0196,0.4024 -0.1426,0.7617 -0.3692,1.0781c-0.2226,0.3125 -0.5156,0.5586 -0.8789,0.7383c-0.3593,0.1758 -0.7558,0.2637 -1.1894,0.2637c-0.4414,0 -0.8321,-0.0801 -1.1719,-0.2402c-0.3359,-0.1602 -0.6172,-0.3829 -0.8438,-0.668c-0.2265,-0.2891 -0.3984,-0.625 -0.5156,-1.0078c-0.1133,-0.3867 -0.1699,-0.8028 -0.1699,-1.2481l0,-0.2461c0,-0.4453 0.0566,-0.8593 0.1699,-1.2422c0.1172,-0.3867 0.2891,-0.7226 0.5156,-1.0078c0.2266,-0.289 0.5079,-0.5136 0.8438,-0.6738c0.3359,-0.1602 0.7246,-0.2402 1.166,-0.2402c0.4531,0 0.8594,0.0918 1.2188,0.2754c0.3632,0.1836 0.6523,0.4433 0.8672,0.7793c0.2187,0.3359 0.3378,0.7343 0.3574,1.1953l-0.668,0c-0.0195,-0.3399 -0.1094,-0.6328 -0.2695,-0.8789c-0.1602,-0.2461 -0.3711,-0.4356 -0.6328,-0.5684c-0.2618,-0.1328 -0.5528,-0.1992 -0.8731,-0.1992c-0.3594,0 -0.666,0.0703 -0.9199,0.2109c-0.2539,0.1367 -0.4609,0.3262 -0.6211,0.5684c-0.1562,0.2383 -0.2715,0.5117 -0.3457,0.8203c-0.0742,0.3047 -0.1113,0.625 -0.1113,0.9609l0,0.2461c0,0.3399 0.0351,0.6641 0.1054,0.9727c0.0743,0.3047 0.1895,0.5762 0.3457,0.8144c0.1602,0.2383 0.3672,0.4278 0.6211,0.5684c0.2578,0.1367 0.5684,0.2051 0.9317,0.2051zm6.2988,0.6035c-0.4141,0 -0.7949,-0.0762 -1.1426,-0.2285c-0.3437,-0.1524 -0.6445,-0.3672 -0.9023,-0.6446c-0.2539,-0.2773 -0.4512,-0.6054 -0.5918,-0.9843c-0.1367,-0.3828 -0.2051,-0.8008 -0.2051,-1.2539l0,-0.252c0,-0.4883 0.0723,-0.9297 0.2168,-1.3242c0.1445,-0.3945 0.3438,-0.7324 0.5977,-1.0137c0.2539,-0.2812 0.5429,-0.4961 0.8671,-0.6445c0.3282,-0.1524 0.6719,-0.2285 1.0313,-0.2285c0.4023,0 0.7598,0.0722 1.0723,0.2168c0.3125,0.1406 0.5742,0.3418 0.7851,0.6035c0.2149,0.2578 0.377,0.5644 0.4863,0.9199c0.1094,0.3516 0.1641,0.7402 0.1641,1.166l0,0.4278l-4.7988,0l0,-0.5977l4.1015,0l0,-0.082c-0.0078,-0.3555 -0.08,-0.6875 -0.2168,-0.9961c-0.1328,-0.3125 -0.332,-0.5664 -0.5976,-0.7617c-0.2656,-0.1954 -0.5977,-0.293 -0.9961,-0.293c-0.2969,0 -0.5703,0.0625 -0.8203,0.1875c-0.2461,0.125 -0.459,0.3047 -0.6387,0.539c-0.1758,0.2305 -0.3125,0.5059 -0.4101,0.8262c-0.0938,0.3164 -0.1407,0.668 -0.1407,1.0547l0,0.252c0,0.3515 0.0508,0.6796 0.1524,0.9843c0.1054,0.3008 0.2539,0.5664 0.4453,0.7969c0.1953,0.2305 0.4258,0.4102 0.6914,0.5391c0.2656,0.1289 0.5586,0.1933 0.8789,0.1933c0.375,0 0.707,-0.0683 0.9961,-0.205c0.2891,-0.1407 0.5488,-0.3614 0.7793,-0.6622l0.4394,0.3399c-0.1367,0.2031 -0.3086,0.3906 -0.5156,0.5625c-0.2031,0.1719 -0.4472,0.3086 -0.7324,0.4101c-0.2852,0.1016 -0.6172,0.1524 -0.9961,0.1524zm7.5586,-1.7344c0,-0.1719 -0.043,-0.3418 -0.1289,-0.5098c-0.0859,-0.1679 -0.252,-0.3222 -0.4981,-0.4628c-0.2421,-0.1407 -0.5996,-0.2598 -1.0722,-0.3575c-0.3516,-0.0781 -0.666,-0.166 -0.9434,-0.2636c-0.2734,-0.0977 -0.5039,-0.2149 -0.6914,-0.3516c-0.1875,-0.1367 -0.3301,-0.3008 -0.4277,-0.4922c-0.0977,-0.1914 -0.1465,-0.418 -0.1465,-0.6797c0,-0.2344 0.0508,-0.4551 0.1523,-0.6621c0.1055,-0.2109 0.2539,-0.3945 0.4454,-0.5508c0.1953,-0.1601 0.4296,-0.2851 0.7031,-0.375c0.2773,-0.0898 0.5879,-0.1347 0.9316,-0.1347c0.4883,0 0.9063,0.084 1.2539,0.2519c0.3516,0.1641 0.6192,0.3887 0.8028,0.6739c0.1875,0.2851 0.2812,0.6074 0.2812,0.9667l-0.6973,0c0,-0.2187 -0.0644,-0.4257 -0.1933,-0.621c-0.125,-0.1954 -0.3106,-0.3555 -0.5567,-0.4805c-0.2421,-0.125 -0.539,-0.1875 -0.8906,-0.1875c-0.3633,0 -0.6582,0.0547 -0.8847,0.164c-0.2266,0.1094 -0.3926,0.2481 -0.4981,0.4161c-0.1016,0.1679 -0.1523,0.3418 -0.1523,0.5214c0,0.1407 0.0214,0.2696 0.0644,0.3868c0.0469,0.1132 0.1289,0.2187 0.2461,0.3164c0.1211,0.0976 0.293,0.1894 0.5156,0.2754c0.2227,0.0859 0.5117,0.1699 0.8672,0.2519c0.5117,0.1133 0.9297,0.252 1.2539,0.416c0.3282,0.1602 0.5703,0.3594 0.7266,0.5977c0.1562,0.2344 0.2344,0.5195 0.2344,0.8555c0,0.2617 -0.0547,0.5019 -0.1641,0.7207c-0.1094,0.2148 -0.2676,0.4004 -0.4746,0.5566c-0.2031,0.1562 -0.4492,0.2773 -0.7383,0.3633c-0.2851,0.0859 -0.6055,0.1289 -0.9609,0.1289c-0.5352,0 -0.9883,-0.0879 -1.3594,-0.2637c-0.3672,-0.1797 -0.6465,-0.414 -0.8379,-0.7031c-0.1875,-0.293 -0.2812,-0.6035 -0.2812,-0.9316l0.6972,0c0.0235,0.3281 0.127,0.5878 0.3106,0.7792c0.1836,0.1875 0.4082,0.3204 0.6738,0.3985c0.2695,0.0781 0.5352,0.1172 0.7969,0.1172c0.3593,0 0.6601,-0.0528 0.9023,-0.1582c0.2422,-0.1055 0.4258,-0.2442 0.5508,-0.416c0.125,-0.1719 0.1875,-0.3575 0.1875,-0.5567z"/>
  <circle cx="57.5" cy="0" id="svg_3" fill="#D01E2F" transform="matrix(1 0 0 -1 81.4023 17.0001)" r="0.99993"/>
  <circle cx="57.5" cy="0" id="svg_4" fill="#50AF4C" transform="matrix(1 0 0 -1 84.4013 17.0001)" r="0.99993"/>
  <circle cx="57.5" cy="0" id="svg_5" fill="#FFC700" transform="matrix(1 0 0 -1 87.4023 17.0001)" r="0.99993"/>
  <g>
   <ellipse fill="#ffffff" ry="2.68085" rx="2.74355" cy="2.68083" cx="21.5565"/>
   <ellipse fill="#F8AE3D" ry="2.68085" rx="2.74355" cy="8.99992" cx="15.2855"/>
   <ellipse fill="#D0D2D3" ry="2.68085" rx="2.74355" cy="8.99992" cx="21.5565"/>
   <ellipse fill="#078540" ry="2.68085" rx="2.74355" cy="15.31918" cx="15.2855"/>
   <ellipse fill="#D0D2D3" ry="2.68085" rx="2.74355" cy="15.31918" cx="9.01454"/>
   <ellipse fill="#B4181E" ry="2.68085" rx="2.74355" cy="2.68083" cx="15.2855"/>
   <ellipse fill="#D0D2D3" ry="2.68085" rx="2.74355" cy="2.68083" cx="9.01454"/>
   <ellipse fill="#D0D2D3" ry="2.68085" rx="2.74355" cy="2.68083" cx="2.74355"/>
  </g>
 </g>
</svg>