<svg width="12" height="12" viewBox="0 0 12 12" fill="none" xmlns="http://www.w3.org/2000/svg">
<path d="M6.00018 2.4C5.84797 2.4 5.70199 2.33953 5.59436 2.2319C5.48674 2.12427 5.42627 1.9783 5.42627 1.82609L5.42627 0.573913C5.42627 0.421702 5.48674 0.275725 5.59436 0.168095C5.70199 0.0604656 5.84797 1.34044e-08 6.00018 1.82427e-08C6.15239 2.3081e-08 6.29837 0.0604657 6.406 0.168095C6.51363 0.275725 6.5741 0.421702 6.5741 0.573913L6.5741 1.82609C6.5741 1.9783 6.51363 2.12428 6.406 2.2319C6.29837 2.33953 6.15239 2.4 6.00018 2.4Z" fill="#212225"/>
<path d="M6.00018 11.9999C5.84797 11.9999 5.70199 11.9394 5.59436 11.8318C5.48674 11.7242 5.42627 11.5782 5.42627 11.426L5.42627 10.1738C5.42627 10.0216 5.48674 9.87564 5.59436 9.76801C5.70199 9.66038 5.84797 9.59991 6.00018 9.59991C6.15239 9.59991 6.29837 9.66038 6.406 9.76801C6.51363 9.87564 6.5741 10.0216 6.5741 10.1738L6.5741 11.426C6.5741 11.5782 6.51363 11.7242 6.406 11.8318C6.29837 11.9394 6.15239 11.9999 6.00018 11.9999Z" fill="#212225"/>
<path d="M8.95129 3.62247C8.8378 3.62245 8.72687 3.5888 8.63251 3.52575C8.53815 3.4627 8.4646 3.3731 8.42116 3.26826C8.37772 3.16342 8.36633 3.04805 8.38844 2.93675C8.41055 2.82544 8.46516 2.72318 8.54537 2.6429L9.43077 1.75751C9.53887 1.65222 9.68408 1.59375 9.83498 1.59474C9.98588 1.59573 10.1303 1.65612 10.237 1.76282C10.3437 1.86953 10.4041 2.01396 10.4051 2.16486C10.4061 2.31576 10.3476 2.46098 10.2423 2.56908L9.35694 3.45447C9.30372 3.50781 9.24049 3.5501 9.17087 3.57893C9.10126 3.60776 9.02663 3.62256 8.95129 3.62247Z" fill="#212225"/>
<path d="M2.1632 10.4108C2.04968 10.4107 1.93872 10.3771 1.84435 10.314C1.74997 10.2509 1.67642 10.1613 1.633 10.0564C1.58958 9.9515 1.57824 9.8361 1.60041 9.72477C1.62258 9.61344 1.67726 9.51118 1.75755 9.43094L2.64294 8.54554C2.69597 8.4911 2.75928 8.44773 2.82921 8.41795C2.89914 8.38817 2.97428 8.37258 3.05029 8.37208C3.12629 8.37158 3.20163 8.38618 3.27194 8.41504C3.34226 8.44389 3.40614 8.48642 3.45988 8.54017C3.51362 8.59391 3.55616 8.65779 3.58501 8.7281C3.61387 8.79842 3.62847 8.87376 3.62797 8.94976C3.62746 9.02576 3.61187 9.10091 3.5821 9.17084C3.55232 9.24076 3.50895 9.30408 3.4545 9.35711L2.56911 10.2425C2.51587 10.2959 2.45261 10.3383 2.38295 10.3671C2.31329 10.396 2.23861 10.4108 2.1632 10.4108Z" fill="#212225"/>
<path d="M11.4262 6.57391L10.174 6.57391C10.0218 6.57391 9.87582 6.51345 9.76819 6.40582C9.66056 6.29819 9.6001 6.15221 9.6001 6C9.6001 5.84779 9.66056 5.70181 9.76819 5.59418C9.87582 5.48655 10.0218 5.42609 10.174 5.42609L11.4262 5.42609C11.5784 5.42609 11.7244 5.48655 11.832 5.59418C11.9396 5.70181 12.0001 5.84779 12.0001 6C12.0001 6.15221 11.9396 6.29819 11.832 6.40582C11.7244 6.51345 11.5784 6.57391 11.4262 6.57391Z" fill="#212225"/>
<path d="M1.82609 6.57391L0.573913 6.57391C0.421702 6.57391 0.275725 6.51345 0.168095 6.40582C0.0604656 6.29819 -2.3081e-08 6.15221 -1.82427e-08 6C-1.34044e-08 5.84779 0.0604656 5.70181 0.168095 5.59418C0.275725 5.48655 0.421702 5.42609 0.573913 5.42609L1.82609 5.42609C1.9783 5.42609 2.12427 5.48655 2.2319 5.59418C2.33953 5.70181 2.4 5.84779 2.4 6C2.4 6.15221 2.33953 6.29819 2.2319 6.40582C2.12427 6.51345 1.9783 6.57391 1.82609 6.57391Z" fill="#212225"/>
<path d="M9.83641 10.4108C9.761 10.4109 9.68632 10.3961 9.61666 10.3672C9.547 10.3383 9.48374 10.296 9.4305 10.2426L8.54511 9.35716C8.43982 9.24906 8.38134 9.10384 8.38234 8.95295C8.38333 8.80205 8.44372 8.65761 8.55042 8.55091C8.65712 8.4442 8.80156 8.38382 8.95246 8.38282C9.10335 8.38183 9.24857 8.44031 9.35667 8.5456L10.2421 9.43099C10.3223 9.51124 10.377 9.61349 10.3992 9.72482C10.4214 9.83615 10.41 9.95155 10.3666 10.0564C10.3232 10.1613 10.2496 10.251 10.1553 10.314C10.0609 10.3771 9.94992 10.4108 9.83641 10.4108Z" fill="#212225"/>
<path d="M3.04856 3.62246C2.9732 3.62261 2.89856 3.60784 2.82894 3.57901C2.75932 3.55018 2.69609 3.50785 2.6429 3.45446L1.75751 2.56908C1.65222 2.46098 1.59375 2.31576 1.59474 2.16486C1.59573 2.01396 1.65612 1.86953 1.76282 1.76282C1.86953 1.65612 2.01396 1.59573 2.16486 1.59474C2.31576 1.59375 2.46098 1.65222 2.56908 1.75751L3.45447 2.6429C3.53468 2.72318 3.58929 2.82543 3.6114 2.93674C3.63351 3.04805 3.62212 3.16342 3.57868 3.26825C3.53524 3.37309 3.46169 3.4627 3.36733 3.52575C3.27297 3.58879 3.16204 3.62245 3.04856 3.62246Z" fill="#212225"/>
<path d="M6.00023 8.66091C5.47396 8.66091 4.9595 8.50486 4.52193 8.21248C4.08435 7.92009 3.7433 7.50452 3.5419 7.01831C3.34051 6.5321 3.28781 5.99709 3.39048 5.48093C3.49315 4.96477 3.74658 4.49065 4.11871 4.11852C4.49084 3.74639 4.96496 3.49297 5.48112 3.3903C5.99727 3.28763 6.53229 3.34033 7.0185 3.54172C7.50471 3.74312 7.92028 4.08417 8.21266 4.52174C8.50504 4.95932 8.6611 5.47377 8.6611 6.00004C8.66027 6.7055 8.37966 7.38182 7.88083 7.88065C7.382 8.37948 6.70568 8.66008 6.00023 8.66091Z" fill="#212225"/>
</svg>
